<?xml version="1.0" encoding="UTF-8" standalone="no"?><svg xmlns="http://www.w3.org/2000/svg" xmlns:xlink="http://www.w3.org/1999/xlink" contentScriptType="application/ecmascript" contentStyleType="text/css" height="1874px" preserveAspectRatio="none" style="width:1796px;height:1874px;" version="1.1" viewBox="0 0 1796 1874" width="1796px" zoomAndPan="magnify"><defs><filter height="300%" id="f6ne835i3jt8h" width="300%" x="-1" y="-1"><feGaussianBlur result="blurOut" stdDeviation="2.0"/><feColorMatrix in="blurOut" result="blurOut2" type="matrix" values="0 0 0 0 0 0 0 0 0 0 0 0 0 0 0 0 0 0 .4 0"/><feOffset dx="4.0" dy="4.0" in="blurOut2" result="blurOut3"/><feBlend in="SourceGraphic" in2="blurOut3" mode="normal"/></filter></defs><g><!--MD5=[a999c1570c205a2156b04a15307bc1ff]
class LabOrder--><rect codeLine="2" fill="#FEFECE" filter="url(#f6ne835i3jt8h)" height="73.6094" id="LabOrder" style="stroke:#A80036;stroke-width:1.5;" width="89" x="603.378" y="695"/><ellipse cx="618.378" cy="711" fill="#ADD1B2" rx="11" ry="11" style="stroke:#A80036;stroke-width:1.0;"/><path d="M620.7218,706.6719 C619.7843,706.2344 619.1905,706.0938 618.3155,706.0938 C615.6905,706.0938 613.6905,708.1719 613.6905,710.8906 L613.6905,712.0156 C613.6905,714.5938 615.7999,716.4844 618.6905,716.4844 C619.9093,716.4844 621.0655,716.1875 621.8155,715.6406 C622.3936,715.2344 622.7218,714.7813 622.7218,714.3906 C622.7218,713.9375 622.3311,713.5469 621.8624,713.5469 C621.6436,713.5469 621.4405,713.625 621.253,713.8125 C620.7999,714.2969 620.7999,714.2969 620.6124,714.3906 C620.1905,714.6563 619.503,714.7813 618.7374,714.7813 C616.6905,714.7813 615.3936,713.6875 615.3936,711.9844 L615.3936,710.8906 C615.3936,709.1094 616.6436,707.7969 618.378,707.7969 C618.9561,707.7969 619.5655,707.9531 620.0343,708.2031 C620.5186,708.4844 620.6905,708.7031 620.7843,709.1094 C620.8468,709.5156 620.878,709.6406 621.0186,709.7656 C621.1593,709.9063 621.3936,710.0156 621.6124,710.0156 C621.878,710.0156 622.1436,709.875 622.3155,709.6563 C622.4249,709.5 622.4561,709.3125 622.4561,708.8906 L622.4561,707.4688 C622.4561,707.0313 622.4405,706.9063 622.3468,706.75 C622.1905,706.4844 621.9093,706.3438 621.6124,706.3438 C621.3155,706.3438 621.1124,706.4375 620.8936,706.75 L620.7218,706.6719 Z " fill="#000000"/><text fill="#000000" font-family="sans-serif" font-size="12" lengthAdjust="spacing" textLength="57" x="632.378" y="715.1543">LabOrder</text><line style="stroke:#A80036;stroke-width:1.5;" x1="604.378" x2="691.378" y1="727" y2="727"/><text fill="#000000" font-family="sans-serif" font-size="11" lengthAdjust="spacing" textLength="77" x="609.378" y="741.2104">-Type of Test</text><text fill="#000000" font-family="sans-serif" font-size="11" lengthAdjust="spacing" textLength="69" x="609.378" y="754.0151">-Parameters</text><line style="stroke:#A80036;stroke-width:1.5;" x1="604.378" x2="691.378" y1="760.6094" y2="760.6094"/><!--MD5=[03960189e81aa2c066c762ffabbee709]
class Receptionist--><rect codeLine="6" fill="#FEFECE" filter="url(#f6ne835i3jt8h)" height="137.6328" id="Receptionist" style="stroke:#A80036;stroke-width:1.5;" width="293" x="715.378" y="1136"/><ellipse cx="820.628" cy="1152" fill="#ADD1B2" rx="11" ry="11" style="stroke:#A80036;stroke-width:1.0;"/><path d="M822.9718,1147.6719 C822.0343,1147.2344 821.4405,1147.0938 820.5655,1147.0938 C817.9405,1147.0938 815.9405,1149.1719 815.9405,1151.8906 L815.9405,1153.0156 C815.9405,1155.5938 818.0499,1157.4844 820.9405,1157.4844 C822.1593,1157.4844 823.3155,1157.1875 824.0655,1156.6406 C824.6436,1156.2344 824.9718,1155.7813 824.9718,1155.3906 C824.9718,1154.9375 824.5811,1154.5469 824.1124,1154.5469 C823.8936,1154.5469 823.6905,1154.625 823.503,1154.8125 C823.0499,1155.2969 823.0499,1155.2969 822.8624,1155.3906 C822.4405,1155.6563 821.753,1155.7813 820.9874,1155.7813 C818.9405,1155.7813 817.6436,1154.6875 817.6436,1152.9844 L817.6436,1151.8906 C817.6436,1150.1094 818.8936,1148.7969 820.628,1148.7969 C821.2061,1148.7969 821.8155,1148.9531 822.2843,1149.2031 C822.7686,1149.4844 822.9405,1149.7031 823.0343,1150.1094 C823.0968,1150.5156 823.128,1150.6406 823.2686,1150.7656 C823.4093,1150.9063 823.6436,1151.0156 823.8624,1151.0156 C824.128,1151.0156 824.3936,1150.875 824.5655,1150.6563 C824.6749,1150.5 824.7061,1150.3125 824.7061,1149.8906 L824.7061,1148.4688 C824.7061,1148.0313 824.6905,1147.9063 824.5968,1147.75 C824.4405,1147.4844 824.1593,1147.3438 823.8624,1147.3438 C823.5655,1147.3438 823.3624,1147.4375 823.1436,1147.75 L822.9718,1147.6719 Z " fill="#000000"/><text fill="#000000" font-family="sans-serif" font-size="12" lengthAdjust="spacing" textLength="74" x="841.128" y="1156.1543">Receptionist</text><line style="stroke:#A80036;stroke-width:1.5;" x1="716.378" x2="1007.378" y1="1168" y2="1168"/><text fill="#000000" font-family="sans-serif" font-size="11" lengthAdjust="spacing" textLength="78" x="721.378" y="1182.2104">-Employee ID</text><text fill="#000000" font-family="sans-serif" font-size="11" lengthAdjust="spacing" textLength="105" x="721.378" y="1195.0151">-Organization Role</text><text fill="#000000" font-family="sans-serif" font-size="11" lengthAdjust="spacing" textLength="38" x="721.378" y="1207.8198">-Name</text><text fill="#000000" font-family="sans-serif" font-size="11" lengthAdjust="spacing" textLength="43" x="721.378" y="1220.6245">-Adress</text><text fill="#000000" font-family="sans-serif" font-size="11" lengthAdjust="spacing" textLength="39" x="721.378" y="1233.4292">-E-mail</text><text fill="#000000" font-family="sans-serif" font-size="11" lengthAdjust="spacing" textLength="88" x="721.378" y="1246.2339">-Phone Number</text><text fill="#000000" font-family="sans-serif" font-size="11" lengthAdjust="spacing" textLength="281" x="721.378" y="1259.0386">-Standard Occupational Classification (SOC) Code</text><line style="stroke:#A80036;stroke-width:1.5;" x1="716.378" x2="1007.378" y1="1265.6328" y2="1265.6328"/><!--MD5=[da547346deef918ea16944ba046651ef]
class Administrator--><rect codeLine="15" fill="#FEFECE" filter="url(#f6ne835i3jt8h)" height="137.6328" id="Administrator" style="stroke:#A80036;stroke-width:1.5;" width="293" x="204.378" y="7"/><ellipse cx="306.628" cy="23" fill="#ADD1B2" rx="11" ry="11" style="stroke:#A80036;stroke-width:1.0;"/><path d="M308.9718,18.6719 C308.0343,18.2344 307.4405,18.0938 306.5655,18.0938 C303.9405,18.0938 301.9405,20.1719 301.9405,22.8906 L301.9405,24.0156 C301.9405,26.5938 304.0499,28.4844 306.9405,28.4844 C308.1593,28.4844 309.3155,28.1875 310.0655,27.6406 C310.6436,27.2344 310.9718,26.7813 310.9718,26.3906 C310.9718,25.9375 310.5811,25.5469 310.1124,25.5469 C309.8936,25.5469 309.6905,25.625 309.503,25.8125 C309.0499,26.2969 309.0499,26.2969 308.8624,26.3906 C308.4405,26.6563 307.753,26.7813 306.9874,26.7813 C304.9405,26.7813 303.6436,25.6875 303.6436,23.9844 L303.6436,22.8906 C303.6436,21.1094 304.8936,19.7969 306.628,19.7969 C307.2061,19.7969 307.8155,19.9531 308.2843,20.2031 C308.7686,20.4844 308.9405,20.7031 309.0343,21.1094 C309.0968,21.5156 309.128,21.6406 309.2686,21.7656 C309.4093,21.9063 309.6436,22.0156 309.8624,22.0156 C310.128,22.0156 310.3936,21.875 310.5655,21.6563 C310.6749,21.5 310.7061,21.3125 310.7061,20.8906 L310.7061,19.4688 C310.7061,19.0313 310.6905,18.9063 310.5968,18.75 C310.4405,18.4844 310.1593,18.3438 309.8624,18.3438 C309.5655,18.3438 309.3624,18.4375 309.1436,18.75 L308.9718,18.6719 Z " fill="#000000"/><text fill="#000000" font-family="sans-serif" font-size="12" lengthAdjust="spacing" textLength="80" x="327.128" y="27.1543">Administrator</text><line style="stroke:#A80036;stroke-width:1.5;" x1="205.378" x2="496.378" y1="39" y2="39"/><text fill="#000000" font-family="sans-serif" font-size="11" lengthAdjust="spacing" textLength="78" x="210.378" y="53.2104">-Employee ID</text><text fill="#000000" font-family="sans-serif" font-size="11" lengthAdjust="spacing" textLength="105" x="210.378" y="66.0151">-Organization Role</text><text fill="#000000" font-family="sans-serif" font-size="11" lengthAdjust="spacing" textLength="38" x="210.378" y="78.8198">-Name</text><text fill="#000000" font-family="sans-serif" font-size="11" lengthAdjust="spacing" textLength="43" x="210.378" y="91.6245">-Adress</text><text fill="#000000" font-family="sans-serif" font-size="11" lengthAdjust="spacing" textLength="39" x="210.378" y="104.4292">-E-mail</text><text fill="#000000" font-family="sans-serif" font-size="11" lengthAdjust="spacing" textLength="88" x="210.378" y="117.2339">-Phone Number</text><text fill="#000000" font-family="sans-serif" font-size="11" lengthAdjust="spacing" textLength="281" x="210.378" y="130.0386">-Standard Occupational Classification (SOC) Code</text><line style="stroke:#A80036;stroke-width:1.5;" x1="205.378" x2="496.378" y1="136.6328" y2="136.6328"/><!--MD5=[ed6624c6556d5e7b1bd23032162d20b7]
class Client--><rect codeLine="24" fill="#FEFECE" filter="url(#f6ne835i3jt8h)" height="176.0469" id="Client" style="stroke:#A80036;stroke-width:1.5;" width="261" x="718.378" y="877"/><ellipse cx="828.128" cy="893" fill="#ADD1B2" rx="11" ry="11" style="stroke:#A80036;stroke-width:1.0;"/><path d="M830.4718,888.6719 C829.5343,888.2344 828.9405,888.0938 828.0655,888.0938 C825.4405,888.0938 823.4405,890.1719 823.4405,892.8906 L823.4405,894.0156 C823.4405,896.5938 825.5499,898.4844 828.4405,898.4844 C829.6593,898.4844 830.8155,898.1875 831.5655,897.6406 C832.1436,897.2344 832.4718,896.7813 832.4718,896.3906 C832.4718,895.9375 832.0811,895.5469 831.6124,895.5469 C831.3936,895.5469 831.1905,895.625 831.003,895.8125 C830.5499,896.2969 830.5499,896.2969 830.3624,896.3906 C829.9405,896.6563 829.253,896.7813 828.4874,896.7813 C826.4405,896.7813 825.1436,895.6875 825.1436,893.9844 L825.1436,892.8906 C825.1436,891.1094 826.3936,889.7969 828.128,889.7969 C828.7061,889.7969 829.3155,889.9531 829.7843,890.2031 C830.2686,890.4844 830.4405,890.7031 830.5343,891.1094 C830.5968,891.5156 830.628,891.6406 830.7686,891.7656 C830.9093,891.9063 831.1436,892.0156 831.3624,892.0156 C831.628,892.0156 831.8936,891.875 832.0655,891.6563 C832.1749,891.5 832.2061,891.3125 832.2061,890.8906 L832.2061,889.4688 C832.2061,889.0313 832.1905,888.9063 832.0968,888.75 C831.9405,888.4844 831.6593,888.3438 831.3624,888.3438 C831.0655,888.3438 830.8624,888.4375 830.6436,888.75 L830.4718,888.6719 Z " fill="#000000"/><text fill="#000000" font-family="sans-serif" font-size="12" lengthAdjust="spacing" textLength="33" x="848.628" y="897.1543">Client</text><line style="stroke:#A80036;stroke-width:1.5;" x1="719.378" x2="978.378" y1="909" y2="909"/><text fill="#000000" font-family="sans-serif" font-size="11" lengthAdjust="spacing" textLength="38" x="724.378" y="923.2104">-Name</text><text fill="#000000" font-family="sans-serif" font-size="11" lengthAdjust="spacing" textLength="27" x="724.378" y="936.0151">-Sex</text><text fill="#000000" font-family="sans-serif" font-size="11" lengthAdjust="spacing" textLength="123" x="724.378" y="948.8198">-Citizen Card Number</text><text fill="#000000" font-family="sans-serif" font-size="11" lengthAdjust="spacing" textLength="249" x="724.378" y="961.6245">-National Healthcare Service (NHS) Number</text><text fill="#000000" font-family="sans-serif" font-size="11" lengthAdjust="spacing" textLength="62" x="724.378" y="974.4292">-Birth Date</text><text fill="#000000" font-family="sans-serif" font-size="11" lengthAdjust="spacing" textLength="27" x="724.378" y="987.2339">-Sex</text><text fill="#000000" font-family="sans-serif" font-size="11" lengthAdjust="spacing" textLength="181" x="724.378" y="1000.0386">-Tax Identification Number (TIN)</text><text fill="#000000" font-family="sans-serif" font-size="11" lengthAdjust="spacing" textLength="88" x="724.378" y="1012.8433">-Phone Number</text><text fill="#000000" font-family="sans-serif" font-size="11" lengthAdjust="spacing" textLength="39" x="724.378" y="1025.6479">-E-mail</text><line style="stroke:#A80036;stroke-width:1.5;" x1="719.378" x2="978.378" y1="1045.0469" y2="1045.0469"/><!--MD5=[df38be88ccee13e832d6fafd6288a4ca]
class Test--><rect codeLine="36" fill="#FEFECE" filter="url(#f6ne835i3jt8h)" height="150.4375" id="Test" style="stroke:#A80036;stroke-width:1.5;" width="244" x="398.878" y="1130"/><ellipse cx="503.628" cy="1146" fill="#ADD1B2" rx="11" ry="11" style="stroke:#A80036;stroke-width:1.0;"/><path d="M505.9718,1141.6719 C505.0343,1141.2344 504.4405,1141.0938 503.5655,1141.0938 C500.9405,1141.0938 498.9405,1143.1719 498.9405,1145.8906 L498.9405,1147.0156 C498.9405,1149.5938 501.0499,1151.4844 503.9405,1151.4844 C505.1593,1151.4844 506.3155,1151.1875 507.0655,1150.6406 C507.6436,1150.2344 507.9718,1149.7813 507.9718,1149.3906 C507.9718,1148.9375 507.5811,1148.5469 507.1124,1148.5469 C506.8936,1148.5469 506.6905,1148.625 506.503,1148.8125 C506.0499,1149.2969 506.0499,1149.2969 505.8624,1149.3906 C505.4405,1149.6563 504.753,1149.7813 503.9874,1149.7813 C501.9405,1149.7813 500.6436,1148.6875 500.6436,1146.9844 L500.6436,1145.8906 C500.6436,1144.1094 501.8936,1142.7969 503.628,1142.7969 C504.2061,1142.7969 504.8155,1142.9531 505.2843,1143.2031 C505.7686,1143.4844 505.9405,1143.7031 506.0343,1144.1094 C506.0968,1144.5156 506.128,1144.6406 506.2686,1144.7656 C506.4093,1144.9063 506.6436,1145.0156 506.8624,1145.0156 C507.128,1145.0156 507.3936,1144.875 507.5655,1144.6563 C507.6749,1144.5 507.7061,1144.3125 507.7061,1143.8906 L507.7061,1142.4688 C507.7061,1142.0313 507.6905,1141.9063 507.5968,1141.75 C507.4405,1141.4844 507.1593,1141.3438 506.8624,1141.3438 C506.5655,1141.3438 506.3624,1141.4375 506.1436,1141.75 L505.9718,1141.6719 Z " fill="#000000"/><text fill="#000000" font-family="sans-serif" font-size="12" lengthAdjust="spacing" textLength="26" x="524.128" y="1150.1543">Test</text><line style="stroke:#A80036;stroke-width:1.5;" x1="399.878" x2="641.878" y1="1162" y2="1162"/><text fill="#000000" font-family="sans-serif" font-size="11" lengthAdjust="spacing" textLength="62" x="404.878" y="1176.2104">-Test Type</text><text fill="#000000" font-family="sans-serif" font-size="11" lengthAdjust="spacing" textLength="81" x="404.878" y="1189.0151">-Internal Code</text><text fill="#000000" font-family="sans-serif" font-size="11" lengthAdjust="spacing" textLength="62" x="404.878" y="1201.8198">-NHS Code</text><text fill="#000000" font-family="sans-serif" font-size="11" lengthAdjust="spacing" textLength="217" x="404.878" y="1214.6245">-Description Of The Collection Method</text><text fill="#000000" font-family="sans-serif" font-size="11" lengthAdjust="spacing" textLength="148" x="404.878" y="1227.4292">-Date and Time Collected</text><text fill="#000000" font-family="sans-serif" font-size="11" lengthAdjust="spacing" textLength="213" x="404.878" y="1240.2339">-Date and Time of Chemical Analysis</text><text fill="#000000" font-family="sans-serif" font-size="11" lengthAdjust="spacing" textLength="232" x="404.878" y="1253.0386">-Date and Time of Validation of the Test</text><text fill="#000000" font-family="sans-serif" font-size="11" lengthAdjust="spacing" textLength="187" x="404.878" y="1265.8433">-Date and Time of the Diagnosis</text><line style="stroke:#A80036;stroke-width:1.5;" x1="399.878" x2="641.878" y1="1272.4375" y2="1272.4375"/><!--MD5=[01931d41e78f8996acd44f6f0fd8de28]
class MedicalLabTechnician--><rect codeLine="46" fill="#FEFECE" filter="url(#f6ne835i3jt8h)" height="137.6328" id="MedicalLabTechnician" style="stroke:#A80036;stroke-width:1.5;" width="293" x="848.378" y="1533"/><ellipse cx="925.628" cy="1549" fill="#ADD1B2" rx="11" ry="11" style="stroke:#A80036;stroke-width:1.0;"/><path d="M927.9718,1544.6719 C927.0343,1544.2344 926.4405,1544.0938 925.5655,1544.0938 C922.9405,1544.0938 920.9405,1546.1719 920.9405,1548.8906 L920.9405,1550.0156 C920.9405,1552.5938 923.0499,1554.4844 925.9405,1554.4844 C927.1593,1554.4844 928.3155,1554.1875 929.0655,1553.6406 C929.6436,1553.2344 929.9718,1552.7813 929.9718,1552.3906 C929.9718,1551.9375 929.5811,1551.5469 929.1124,1551.5469 C928.8936,1551.5469 928.6905,1551.625 928.503,1551.8125 C928.0499,1552.2969 928.0499,1552.2969 927.8624,1552.3906 C927.4405,1552.6563 926.753,1552.7813 925.9874,1552.7813 C923.9405,1552.7813 922.6436,1551.6875 922.6436,1549.9844 L922.6436,1548.8906 C922.6436,1547.1094 923.8936,1545.7969 925.628,1545.7969 C926.2061,1545.7969 926.8155,1545.9531 927.2843,1546.2031 C927.7686,1546.4844 927.9405,1546.7031 928.0343,1547.1094 C928.0968,1547.5156 928.128,1547.6406 928.2686,1547.7656 C928.4093,1547.9063 928.6436,1548.0156 928.8624,1548.0156 C929.128,1548.0156 929.3936,1547.875 929.5655,1547.6563 C929.6749,1547.5 929.7061,1547.3125 929.7061,1546.8906 L929.7061,1545.4688 C929.7061,1545.0313 929.6905,1544.9063 929.5968,1544.75 C929.4405,1544.4844 929.1593,1544.3438 928.8624,1544.3438 C928.5655,1544.3438 928.3624,1544.4375 928.1436,1544.75 L927.9718,1544.6719 Z " fill="#000000"/><text fill="#000000" font-family="sans-serif" font-size="12" lengthAdjust="spacing" textLength="130" x="946.128" y="1553.1543">MedicalLabTechnician</text><line style="stroke:#A80036;stroke-width:1.5;" x1="849.378" x2="1140.378" y1="1565" y2="1565"/><text fill="#000000" font-family="sans-serif" font-size="11" lengthAdjust="spacing" textLength="78" x="854.378" y="1579.2104">-Employee ID</text><text fill="#000000" font-family="sans-serif" font-size="11" lengthAdjust="spacing" textLength="105" x="854.378" y="1592.0151">-Organization Role</text><text fill="#000000" font-family="sans-serif" font-size="11" lengthAdjust="spacing" textLength="38" x="854.378" y="1604.8198">-Name</text><text fill="#000000" font-family="sans-serif" font-size="11" lengthAdjust="spacing" textLength="43" x="854.378" y="1617.6245">-Adress</text><text fill="#000000" font-family="sans-serif" font-size="11" lengthAdjust="spacing" textLength="39" x="854.378" y="1630.4292">-E-mail</text><text fill="#000000" font-family="sans-serif" font-size="11" lengthAdjust="spacing" textLength="88" x="854.378" y="1643.2339">-Phone Number</text><text fill="#000000" font-family="sans-serif" font-size="11" lengthAdjust="spacing" textLength="281" x="854.378" y="1656.0386">-Standard Occupational Classification (SOC) Code</text><line style="stroke:#A80036;stroke-width:1.5;" x1="849.378" x2="1140.378" y1="1662.6328" y2="1662.6328"/><!--MD5=[63d70d9fc382ec74720fc4f696215b7d]
class Laboratories--><rect codeLine="55" fill="#FEFECE" filter="url(#f6ne835i3jt8h)" height="48" id="Laboratories" style="stroke:#A80036;stroke-width:1.5;" width="108" x="21.878" y="1181"/><ellipse cx="36.878" cy="1197" fill="#ADD1B2" rx="11" ry="11" style="stroke:#A80036;stroke-width:1.0;"/><path d="M39.2218,1192.6719 C38.2843,1192.2344 37.6905,1192.0938 36.8155,1192.0938 C34.1905,1192.0938 32.1905,1194.1719 32.1905,1196.8906 L32.1905,1198.0156 C32.1905,1200.5938 34.2999,1202.4844 37.1905,1202.4844 C38.4093,1202.4844 39.5655,1202.1875 40.3155,1201.6406 C40.8936,1201.2344 41.2218,1200.7813 41.2218,1200.3906 C41.2218,1199.9375 40.8311,1199.5469 40.3624,1199.5469 C40.1436,1199.5469 39.9405,1199.625 39.753,1199.8125 C39.2999,1200.2969 39.2999,1200.2969 39.1124,1200.3906 C38.6905,1200.6563 38.003,1200.7813 37.2374,1200.7813 C35.1905,1200.7813 33.8936,1199.6875 33.8936,1197.9844 L33.8936,1196.8906 C33.8936,1195.1094 35.1436,1193.7969 36.878,1193.7969 C37.4561,1193.7969 38.0655,1193.9531 38.5343,1194.2031 C39.0186,1194.4844 39.1905,1194.7031 39.2843,1195.1094 C39.3468,1195.5156 39.378,1195.6406 39.5186,1195.7656 C39.6593,1195.9063 39.8936,1196.0156 40.1124,1196.0156 C40.378,1196.0156 40.6436,1195.875 40.8155,1195.6563 C40.9249,1195.5 40.9561,1195.3125 40.9561,1194.8906 L40.9561,1193.4688 C40.9561,1193.0313 40.9405,1192.9063 40.8468,1192.75 C40.6905,1192.4844 40.4093,1192.3438 40.1124,1192.3438 C39.8155,1192.3438 39.6124,1192.4375 39.3936,1192.75 L39.2218,1192.6719 Z " fill="#000000"/><text fill="#000000" font-family="sans-serif" font-size="12" lengthAdjust="spacing" textLength="76" x="50.878" y="1201.1543">Laboratories</text><line style="stroke:#A80036;stroke-width:1.5;" x1="22.878" x2="128.878" y1="1213" y2="1213"/><line style="stroke:#A80036;stroke-width:1.5;" x1="22.878" x2="128.878" y1="1221" y2="1221"/><!--MD5=[02e4b9b7573f1156f41e60aa5b4e25a4]
class Company--><rect codeLine="57" fill="#FEFECE" filter="url(#f6ne835i3jt8h)" height="86.4141" id="Company" style="stroke:#A80036;stroke-width:1.5;" width="108" x="128.878" y="1363.5"/><ellipse cx="152.878" cy="1379.5" fill="#ADD1B2" rx="11" ry="11" style="stroke:#A80036;stroke-width:1.0;"/><path d="M155.2218,1375.1719 C154.2843,1374.7344 153.6905,1374.5938 152.8155,1374.5938 C150.1905,1374.5938 148.1905,1376.6719 148.1905,1379.3906 L148.1905,1380.5156 C148.1905,1383.0938 150.2999,1384.9844 153.1905,1384.9844 C154.4093,1384.9844 155.5655,1384.6875 156.3155,1384.1406 C156.8936,1383.7344 157.2218,1383.2813 157.2218,1382.8906 C157.2218,1382.4375 156.8311,1382.0469 156.3624,1382.0469 C156.1436,1382.0469 155.9405,1382.125 155.753,1382.3125 C155.2999,1382.7969 155.2999,1382.7969 155.1124,1382.8906 C154.6905,1383.1563 154.003,1383.2813 153.2374,1383.2813 C151.1905,1383.2813 149.8936,1382.1875 149.8936,1380.4844 L149.8936,1379.3906 C149.8936,1377.6094 151.1436,1376.2969 152.878,1376.2969 C153.4561,1376.2969 154.0655,1376.4531 154.5343,1376.7031 C155.0186,1376.9844 155.1905,1377.2031 155.2843,1377.6094 C155.3468,1378.0156 155.378,1378.1406 155.5186,1378.2656 C155.6593,1378.4063 155.8936,1378.5156 156.1124,1378.5156 C156.378,1378.5156 156.6436,1378.375 156.8155,1378.1563 C156.9249,1378 156.9561,1377.8125 156.9561,1377.3906 L156.9561,1375.9688 C156.9561,1375.5313 156.9405,1375.4063 156.8468,1375.25 C156.6905,1374.9844 156.4093,1374.8438 156.1124,1374.8438 C155.8155,1374.8438 155.6124,1374.9375 155.3936,1375.25 L155.2218,1375.1719 Z " fill="#000000"/><text fill="#000000" font-family="sans-serif" font-size="12" lengthAdjust="spacing" textLength="56" x="168.878" y="1383.6543">Company</text><line style="stroke:#A80036;stroke-width:1.5;" x1="129.878" x2="235.878" y1="1395.5" y2="1395.5"/><text fill="#000000" font-family="sans-serif" font-size="11" lengthAdjust="spacing" textLength="96" x="134.878" y="1409.7104">-Company Name</text><text fill="#000000" font-family="sans-serif" font-size="11" lengthAdjust="spacing" textLength="89" x="134.878" y="1422.5151">-Company Logo</text><text fill="#000000" font-family="sans-serif" font-size="11" lengthAdjust="spacing" textLength="88" x="134.878" y="1435.3198">-Phone Number</text><line style="stroke:#A80036;stroke-width:1.5;" x1="129.878" x2="235.878" y1="1441.9141" y2="1441.9141"/><!--MD5=[a64badb107d3691f2dc6af242cdbeb21]
class ChemicalLaboratory--><rect codeLine="62" fill="#FEFECE" filter="url(#f6ne835i3jt8h)" height="99.2188" id="ChemicalLaboratory" style="stroke:#A80036;stroke-width:1.5;" width="151" x="680.378" y="1754.5"/><ellipse cx="695.378" cy="1770.5" fill="#ADD1B2" rx="11" ry="11" style="stroke:#A80036;stroke-width:1.0;"/><path d="M697.7218,1766.1719 C696.7843,1765.7344 696.1905,1765.5938 695.3155,1765.5938 C692.6905,1765.5938 690.6905,1767.6719 690.6905,1770.3906 L690.6905,1771.5156 C690.6905,1774.0938 692.7999,1775.9844 695.6905,1775.9844 C696.9093,1775.9844 698.0655,1775.6875 698.8155,1775.1406 C699.3936,1774.7344 699.7218,1774.2813 699.7218,1773.8906 C699.7218,1773.4375 699.3311,1773.0469 698.8624,1773.0469 C698.6436,1773.0469 698.4405,1773.125 698.253,1773.3125 C697.7999,1773.7969 697.7999,1773.7969 697.6124,1773.8906 C697.1905,1774.1563 696.503,1774.2813 695.7374,1774.2813 C693.6905,1774.2813 692.3936,1773.1875 692.3936,1771.4844 L692.3936,1770.3906 C692.3936,1768.6094 693.6436,1767.2969 695.378,1767.2969 C695.9561,1767.2969 696.5655,1767.4531 697.0343,1767.7031 C697.5186,1767.9844 697.6905,1768.2031 697.7843,1768.6094 C697.8468,1769.0156 697.878,1769.1406 698.0186,1769.2656 C698.1593,1769.4063 698.3936,1769.5156 698.6124,1769.5156 C698.878,1769.5156 699.1436,1769.375 699.3155,1769.1563 C699.4249,1769 699.4561,1768.8125 699.4561,1768.3906 L699.4561,1766.9688 C699.4561,1766.5313 699.4405,1766.4063 699.3468,1766.25 C699.1905,1765.9844 698.9093,1765.8438 698.6124,1765.8438 C698.3155,1765.8438 698.1124,1765.9375 697.8936,1766.25 L697.7218,1766.1719 Z " fill="#000000"/><text fill="#000000" font-family="sans-serif" font-size="12" lengthAdjust="spacing" textLength="119" x="709.378" y="1774.6543">ChemicalLaboratory</text><line style="stroke:#A80036;stroke-width:1.5;" x1="681.378" x2="830.378" y1="1786.5" y2="1786.5"/><text fill="#000000" font-family="sans-serif" font-size="11" lengthAdjust="spacing" textLength="38" x="686.378" y="1800.7104">-Name</text><text fill="#000000" font-family="sans-serif" font-size="11" lengthAdjust="spacing" textLength="50" x="686.378" y="1813.5151">-Address</text><text fill="#000000" font-family="sans-serif" font-size="11" lengthAdjust="spacing" textLength="88" x="686.378" y="1826.3198">-Phone Number</text><text fill="#000000" font-family="sans-serif" font-size="11" lengthAdjust="spacing" textLength="70" x="686.378" y="1839.1245">-TIN number</text><line style="stroke:#A80036;stroke-width:1.5;" x1="681.378" x2="830.378" y1="1845.7188" y2="1845.7188"/><!--MD5=[f856f85595ce4f8bf435bc42f531c692]
class Results--><rect codeLine="68" fill="#FEFECE" filter="url(#f6ne835i3jt8h)" height="48" id="Results" style="stroke:#A80036;stroke-width:1.5;" width="75" x="1362.378" y="1780"/><ellipse cx="1377.378" cy="1796" fill="#ADD1B2" rx="11" ry="11" style="stroke:#A80036;stroke-width:1.0;"/><path d="M1379.7218,1791.6719 C1378.7843,1791.2344 1378.1905,1791.0938 1377.3155,1791.0938 C1374.6905,1791.0938 1372.6905,1793.1719 1372.6905,1795.8906 L1372.6905,1797.0156 C1372.6905,1799.5938 1374.7999,1801.4844 1377.6905,1801.4844 C1378.9093,1801.4844 1380.0655,1801.1875 1380.8155,1800.6406 C1381.3936,1800.2344 1381.7218,1799.7813 1381.7218,1799.3906 C1381.7218,1798.9375 1381.3311,1798.5469 1380.8624,1798.5469 C1380.6436,1798.5469 1380.4405,1798.625 1380.253,1798.8125 C1379.7999,1799.2969 1379.7999,1799.2969 1379.6124,1799.3906 C1379.1905,1799.6563 1378.503,1799.7813 1377.7374,1799.7813 C1375.6905,1799.7813 1374.3936,1798.6875 1374.3936,1796.9844 L1374.3936,1795.8906 C1374.3936,1794.1094 1375.6436,1792.7969 1377.378,1792.7969 C1377.9561,1792.7969 1378.5655,1792.9531 1379.0343,1793.2031 C1379.5186,1793.4844 1379.6905,1793.7031 1379.7843,1794.1094 C1379.8468,1794.5156 1379.878,1794.6406 1380.0186,1794.7656 C1380.1593,1794.9063 1380.3936,1795.0156 1380.6124,1795.0156 C1380.878,1795.0156 1381.1436,1794.875 1381.3155,1794.6563 C1381.4249,1794.5 1381.4561,1794.3125 1381.4561,1793.8906 L1381.4561,1792.4688 C1381.4561,1792.0313 1381.4405,1791.9063 1381.3468,1791.75 C1381.1905,1791.4844 1380.9093,1791.3438 1380.6124,1791.3438 C1380.3155,1791.3438 1380.1124,1791.4375 1379.8936,1791.75 L1379.7218,1791.6719 Z " fill="#000000"/><text fill="#000000" font-family="sans-serif" font-size="12" lengthAdjust="spacing" textLength="43" x="1391.378" y="1800.1543">Results</text><line style="stroke:#A80036;stroke-width:1.5;" x1="1363.378" x2="1436.378" y1="1812" y2="1812"/><line style="stroke:#A80036;stroke-width:1.5;" x1="1363.378" x2="1436.378" y1="1820" y2="1820"/><!--MD5=[012ee2a8bf3ae2b319009b06f951c2e5]
class ClinicalChemistryTechnologist--><rect codeLine="70" fill="#FEFECE" filter="url(#f6ne835i3jt8h)" height="137.6328" id="ClinicalChemistryTechnologist" style="stroke:#A80036;stroke-width:1.5;" width="293" x="1429.378" y="527"/><ellipse cx="1482.628" cy="543" fill="#ADD1B2" rx="11" ry="11" style="stroke:#A80036;stroke-width:1.0;"/><path d="M1484.9718,538.6719 C1484.0343,538.2344 1483.4405,538.0938 1482.5655,538.0938 C1479.9405,538.0938 1477.9405,540.1719 1477.9405,542.8906 L1477.9405,544.0156 C1477.9405,546.5938 1480.0499,548.4844 1482.9405,548.4844 C1484.1593,548.4844 1485.3155,548.1875 1486.0655,547.6406 C1486.6436,547.2344 1486.9718,546.7813 1486.9718,546.3906 C1486.9718,545.9375 1486.5811,545.5469 1486.1124,545.5469 C1485.8936,545.5469 1485.6905,545.625 1485.503,545.8125 C1485.0499,546.2969 1485.0499,546.2969 1484.8624,546.3906 C1484.4405,546.6563 1483.753,546.7813 1482.9874,546.7813 C1480.9405,546.7813 1479.6436,545.6875 1479.6436,543.9844 L1479.6436,542.8906 C1479.6436,541.1094 1480.8936,539.7969 1482.628,539.7969 C1483.2061,539.7969 1483.8155,539.9531 1484.2843,540.2031 C1484.7686,540.4844 1484.9405,540.7031 1485.0343,541.1094 C1485.0968,541.5156 1485.128,541.6406 1485.2686,541.7656 C1485.4093,541.9063 1485.6436,542.0156 1485.8624,542.0156 C1486.128,542.0156 1486.3936,541.875 1486.5655,541.6563 C1486.6749,541.5 1486.7061,541.3125 1486.7061,540.8906 L1486.7061,539.4688 C1486.7061,539.0313 1486.6905,538.9063 1486.5968,538.75 C1486.4405,538.4844 1486.1593,538.3438 1485.8624,538.3438 C1485.5655,538.3438 1485.3624,538.4375 1485.1436,538.75 L1484.9718,538.6719 Z " fill="#000000"/><text fill="#000000" font-family="sans-serif" font-size="12" lengthAdjust="spacing" textLength="178" x="1503.128" y="547.1543">ClinicalChemistryTechnologist</text><line style="stroke:#A80036;stroke-width:1.5;" x1="1430.378" x2="1721.378" y1="559" y2="559"/><text fill="#000000" font-family="sans-serif" font-size="11" lengthAdjust="spacing" textLength="78" x="1435.378" y="573.2104">-Employee ID</text><text fill="#000000" font-family="sans-serif" font-size="11" lengthAdjust="spacing" textLength="105" x="1435.378" y="586.0151">-Organization Role</text><text fill="#000000" font-family="sans-serif" font-size="11" lengthAdjust="spacing" textLength="38" x="1435.378" y="598.8198">-Name</text><text fill="#000000" font-family="sans-serif" font-size="11" lengthAdjust="spacing" textLength="43" x="1435.378" y="611.6245">-Adress</text><text fill="#000000" font-family="sans-serif" font-size="11" lengthAdjust="spacing" textLength="39" x="1435.378" y="624.4292">-E-mail</text><text fill="#000000" font-family="sans-serif" font-size="11" lengthAdjust="spacing" textLength="88" x="1435.378" y="637.2339">-Phone Number</text><text fill="#000000" font-family="sans-serif" font-size="11" lengthAdjust="spacing" textLength="281" x="1435.378" y="650.0386">-Standard Occupational Classification (SOC) Code</text><line style="stroke:#A80036;stroke-width:1.5;" x1="1430.378" x2="1721.378" y1="656.6328" y2="656.6328"/><!--MD5=[7d96fd15f3014691d2fcaf89c5791e2a]
class SpecialistDoctor--><rect codeLine="79" fill="#FEFECE" filter="url(#f6ne835i3jt8h)" height="150.4375" id="SpecialistDoctor" style="stroke:#A80036;stroke-width:1.5;" width="293" x="1253.378" y="347"/><ellipse cx="1346.128" cy="363" fill="#ADD1B2" rx="11" ry="11" style="stroke:#A80036;stroke-width:1.0;"/><path d="M1348.4718,358.6719 C1347.5343,358.2344 1346.9405,358.0938 1346.0655,358.0938 C1343.4405,358.0938 1341.4405,360.1719 1341.4405,362.8906 L1341.4405,364.0156 C1341.4405,366.5938 1343.5499,368.4844 1346.4405,368.4844 C1347.6593,368.4844 1348.8155,368.1875 1349.5655,367.6406 C1350.1436,367.2344 1350.4718,366.7813 1350.4718,366.3906 C1350.4718,365.9375 1350.0811,365.5469 1349.6124,365.5469 C1349.3936,365.5469 1349.1905,365.625 1349.003,365.8125 C1348.5499,366.2969 1348.5499,366.2969 1348.3624,366.3906 C1347.9405,366.6563 1347.253,366.7813 1346.4874,366.7813 C1344.4405,366.7813 1343.1436,365.6875 1343.1436,363.9844 L1343.1436,362.8906 C1343.1436,361.1094 1344.3936,359.7969 1346.128,359.7969 C1346.7061,359.7969 1347.3155,359.9531 1347.7843,360.2031 C1348.2686,360.4844 1348.4405,360.7031 1348.5343,361.1094 C1348.5968,361.5156 1348.628,361.6406 1348.7686,361.7656 C1348.9093,361.9063 1349.1436,362.0156 1349.3624,362.0156 C1349.628,362.0156 1349.8936,361.875 1350.0655,361.6563 C1350.1749,361.5 1350.2061,361.3125 1350.2061,360.8906 L1350.2061,359.4688 C1350.2061,359.0313 1350.1905,358.9063 1350.0968,358.75 C1349.9405,358.4844 1349.6593,358.3438 1349.3624,358.3438 C1349.0655,358.3438 1348.8624,358.4375 1348.6436,358.75 L1348.4718,358.6719 Z " fill="#000000"/><text fill="#000000" font-family="sans-serif" font-size="12" lengthAdjust="spacing" textLength="99" x="1366.628" y="367.1543">SpecialistDoctor</text><line style="stroke:#A80036;stroke-width:1.5;" x1="1254.378" x2="1545.378" y1="379" y2="379"/><text fill="#000000" font-family="sans-serif" font-size="11" lengthAdjust="spacing" textLength="78" x="1259.378" y="393.2104">-Employee ID</text><text fill="#000000" font-family="sans-serif" font-size="11" lengthAdjust="spacing" textLength="105" x="1259.378" y="406.0151">-Organization Role</text><text fill="#000000" font-family="sans-serif" font-size="11" lengthAdjust="spacing" textLength="38" x="1259.378" y="418.8198">-Name</text><text fill="#000000" font-family="sans-serif" font-size="11" lengthAdjust="spacing" textLength="43" x="1259.378" y="431.6245">-Adress</text><text fill="#000000" font-family="sans-serif" font-size="11" lengthAdjust="spacing" textLength="39" x="1259.378" y="444.4292">-E-mail</text><text fill="#000000" font-family="sans-serif" font-size="11" lengthAdjust="spacing" textLength="88" x="1259.378" y="457.2339">-Phone Number</text><text fill="#000000" font-family="sans-serif" font-size="11" lengthAdjust="spacing" textLength="281" x="1259.378" y="470.0386">-Standard Occupational Classification (SOC) Code</text><text fill="#000000" font-family="sans-serif" font-size="11" lengthAdjust="spacing" textLength="126" x="1259.378" y="482.8433">-Doctor Index Number</text><line style="stroke:#A80036;stroke-width:1.5;" x1="1254.378" x2="1545.378" y1="489.4375" y2="489.4375"/><!--MD5=[052425de1c0eb6cc1c1b48342b0bb88f]
class LaboratoryCoordinator--><rect codeLine="89" fill="#FEFECE" filter="url(#f6ne835i3jt8h)" height="137.6328" id="LaboratoryCoordinator" style="stroke:#A80036;stroke-width:1.5;" width="293" x="1489.378" y="1533"/><ellipse cx="1563.628" cy="1549" fill="#ADD1B2" rx="11" ry="11" style="stroke:#A80036;stroke-width:1.0;"/><path d="M1565.9718,1544.6719 C1565.0343,1544.2344 1564.4405,1544.0938 1563.5655,1544.0938 C1560.9405,1544.0938 1558.9405,1546.1719 1558.9405,1548.8906 L1558.9405,1550.0156 C1558.9405,1552.5938 1561.0499,1554.4844 1563.9405,1554.4844 C1565.1593,1554.4844 1566.3155,1554.1875 1567.0655,1553.6406 C1567.6436,1553.2344 1567.9718,1552.7813 1567.9718,1552.3906 C1567.9718,1551.9375 1567.5811,1551.5469 1567.1124,1551.5469 C1566.8936,1551.5469 1566.6905,1551.625 1566.503,1551.8125 C1566.0499,1552.2969 1566.0499,1552.2969 1565.8624,1552.3906 C1565.4405,1552.6563 1564.753,1552.7813 1563.9874,1552.7813 C1561.9405,1552.7813 1560.6436,1551.6875 1560.6436,1549.9844 L1560.6436,1548.8906 C1560.6436,1547.1094 1561.8936,1545.7969 1563.628,1545.7969 C1564.2061,1545.7969 1564.8155,1545.9531 1565.2843,1546.2031 C1565.7686,1546.4844 1565.9405,1546.7031 1566.0343,1547.1094 C1566.0968,1547.5156 1566.128,1547.6406 1566.2686,1547.7656 C1566.4093,1547.9063 1566.6436,1548.0156 1566.8624,1548.0156 C1567.128,1548.0156 1567.3936,1547.875 1567.5655,1547.6563 C1567.6749,1547.5 1567.7061,1547.3125 1567.7061,1546.8906 L1567.7061,1545.4688 C1567.7061,1545.0313 1567.6905,1544.9063 1567.5968,1544.75 C1567.4405,1544.4844 1567.1593,1544.3438 1566.8624,1544.3438 C1566.5655,1544.3438 1566.3624,1544.4375 1566.1436,1544.75 L1565.9718,1544.6719 Z " fill="#000000"/><text fill="#000000" font-family="sans-serif" font-size="12" lengthAdjust="spacing" textLength="136" x="1584.128" y="1553.1543">LaboratoryCoordinator</text><line style="stroke:#A80036;stroke-width:1.5;" x1="1490.378" x2="1781.378" y1="1565" y2="1565"/><text fill="#000000" font-family="sans-serif" font-size="11" lengthAdjust="spacing" textLength="78" x="1495.378" y="1579.2104">-Employee ID</text><text fill="#000000" font-family="sans-serif" font-size="11" lengthAdjust="spacing" textLength="105" x="1495.378" y="1592.0151">-Organization Role</text><text fill="#000000" font-family="sans-serif" font-size="11" lengthAdjust="spacing" textLength="38" x="1495.378" y="1604.8198">-Name</text><text fill="#000000" font-family="sans-serif" font-size="11" lengthAdjust="spacing" textLength="43" x="1495.378" y="1617.6245">-Adress</text><text fill="#000000" font-family="sans-serif" font-size="11" lengthAdjust="spacing" textLength="39" x="1495.378" y="1630.4292">-E-mail</text><text fill="#000000" font-family="sans-serif" font-size="11" lengthAdjust="spacing" textLength="88" x="1495.378" y="1643.2339">-Phone Number</text><text fill="#000000" font-family="sans-serif" font-size="11" lengthAdjust="spacing" textLength="281" x="1495.378" y="1656.0386">-Standard Occupational Classification (SOC) Code</text><line style="stroke:#A80036;stroke-width:1.5;" x1="1490.378" x2="1781.378" y1="1662.6328" y2="1662.6328"/><!--MD5=[aaf53804a0ba57453ce78ea34e1d24e9]
class BloodTest--><rect codeLine="98" fill="#FEFECE" filter="url(#f6ne835i3jt8h)" height="99.2188" id="BloodTest" style="stroke:#A80036;stroke-width:1.5;" width="160" x="468.878" y="1357"/><ellipse cx="514.128" cy="1373" fill="#ADD1B2" rx="11" ry="11" style="stroke:#A80036;stroke-width:1.0;"/><path d="M516.4717,1368.6719 C515.5342,1368.2344 514.9405,1368.0938 514.0655,1368.0938 C511.4405,1368.0938 509.4405,1370.1719 509.4405,1372.8906 L509.4405,1374.0156 C509.4405,1376.5938 511.5499,1378.4844 514.4405,1378.4844 C515.6592,1378.4844 516.8155,1378.1875 517.5655,1377.6406 C518.1436,1377.2344 518.4717,1376.7813 518.4717,1376.3906 C518.4717,1375.9375 518.0811,1375.5469 517.6124,1375.5469 C517.3936,1375.5469 517.1905,1375.625 517.003,1375.8125 C516.5499,1376.2969 516.5499,1376.2969 516.3624,1376.3906 C515.9405,1376.6563 515.253,1376.7813 514.4874,1376.7813 C512.4405,1376.7813 511.1436,1375.6875 511.1436,1373.9844 L511.1436,1372.8906 C511.1436,1371.1094 512.3936,1369.7969 514.128,1369.7969 C514.7061,1369.7969 515.3155,1369.9531 515.7842,1370.2031 C516.2686,1370.4844 516.4405,1370.7031 516.5342,1371.1094 C516.5967,1371.5156 516.628,1371.6406 516.7686,1371.7656 C516.9092,1371.9063 517.1436,1372.0156 517.3624,1372.0156 C517.628,1372.0156 517.8936,1371.875 518.0655,1371.6563 C518.1749,1371.5 518.2061,1371.3125 518.2061,1370.8906 L518.2061,1369.4688 C518.2061,1369.0313 518.1905,1368.9063 518.0967,1368.75 C517.9405,1368.4844 517.6592,1368.3438 517.3624,1368.3438 C517.0655,1368.3438 516.8624,1368.4375 516.6436,1368.75 L516.4717,1368.6719 Z " fill="#000000"/><text fill="#000000" font-family="sans-serif" font-size="12" lengthAdjust="spacing" textLength="61" x="534.628" y="1377.1543">BloodTest</text><line style="stroke:#A80036;stroke-width:1.5;" x1="469.878" x2="627.878" y1="1389" y2="1389"/><line style="stroke:#A80036;stroke-width:1.5;" x1="469.878" x2="627.878" y1="1397" y2="1397"/><text fill="#000000" font-family="sans-serif" font-size="11" lengthAdjust="spacing" textLength="129" x="474.878" y="1411.2104">-Red Blood Cells (RBC)</text><text fill="#000000" font-family="sans-serif" font-size="11" lengthAdjust="spacing" textLength="144" x="474.878" y="1424.0151">-White Blood Cells (WBC)</text><text fill="#000000" font-family="sans-serif" font-size="11" lengthAdjust="spacing" textLength="84" x="474.878" y="1436.8198">-Platelets (PLT)</text><text fill="#000000" font-family="sans-serif" font-size="11" lengthAdjust="spacing" textLength="148" x="474.878" y="1449.6245">-Blood Count (Hemogram)</text><!--MD5=[5c21708e279ec6fdb925c03544a86352]
class CovidTest--><rect codeLine="104" fill="#FEFECE" filter="url(#f6ne835i3jt8h)" height="60.8047" id="CovidTest" style="stroke:#A80036;stroke-width:1.5;" width="106" x="663.878" y="1376"/><ellipse cx="685.178" cy="1392" fill="#ADD1B2" rx="11" ry="11" style="stroke:#A80036;stroke-width:1.0;"/><path d="M687.5218,1387.6719 C686.5843,1387.2344 685.9905,1387.0938 685.1155,1387.0938 C682.4905,1387.0938 680.4905,1389.1719 680.4905,1391.8906 L680.4905,1393.0156 C680.4905,1395.5938 682.5999,1397.4844 685.4905,1397.4844 C686.7093,1397.4844 687.8655,1397.1875 688.6155,1396.6406 C689.1936,1396.2344 689.5218,1395.7813 689.5218,1395.3906 C689.5218,1394.9375 689.1311,1394.5469 688.6624,1394.5469 C688.4436,1394.5469 688.2405,1394.625 688.053,1394.8125 C687.5999,1395.2969 687.5999,1395.2969 687.4124,1395.3906 C686.9905,1395.6563 686.303,1395.7813 685.5374,1395.7813 C683.4905,1395.7813 682.1936,1394.6875 682.1936,1392.9844 L682.1936,1391.8906 C682.1936,1390.1094 683.4436,1388.7969 685.178,1388.7969 C685.7561,1388.7969 686.3655,1388.9531 686.8343,1389.2031 C687.3186,1389.4844 687.4905,1389.7031 687.5843,1390.1094 C687.6468,1390.5156 687.678,1390.6406 687.8186,1390.7656 C687.9593,1390.9063 688.1936,1391.0156 688.4124,1391.0156 C688.678,1391.0156 688.9436,1390.875 689.1155,1390.6563 C689.2249,1390.5 689.2561,1390.3125 689.2561,1389.8906 L689.2561,1388.4688 C689.2561,1388.0313 689.2405,1387.9063 689.1468,1387.75 C688.9905,1387.4844 688.7093,1387.3438 688.4124,1387.3438 C688.1155,1387.3438 687.9124,1387.4375 687.6936,1387.75 L687.5218,1387.6719 Z " fill="#000000"/><text fill="#000000" font-family="sans-serif" font-size="12" lengthAdjust="spacing" textLength="60" x="700.578" y="1396.1543">CovidTest</text><line style="stroke:#A80036;stroke-width:1.5;" x1="664.878" x2="768.878" y1="1408" y2="1408"/><text fill="#000000" font-family="sans-serif" font-size="11" lengthAdjust="spacing" textLength="94" x="669.878" y="1422.2104">-Posite/Negative</text><line style="stroke:#A80036;stroke-width:1.5;" x1="664.878" x2="768.878" y1="1428.8047" y2="1428.8047"/><!--MD5=[9681492165142af2a4a3a169d90ee8d4]
class Sample--><rect codeLine="107" fill="#FEFECE" filter="url(#f6ne835i3jt8h)" height="73.6094" id="Sample" style="stroke:#A80036;stroke-width:1.5;" width="78" x="907.878" y="1369.5"/><ellipse cx="923.328" cy="1385.5" fill="#ADD1B2" rx="11" ry="11" style="stroke:#A80036;stroke-width:1.0;"/><path d="M925.6718,1381.1719 C924.7343,1380.7344 924.1405,1380.5938 923.2655,1380.5938 C920.6405,1380.5938 918.6405,1382.6719 918.6405,1385.3906 L918.6405,1386.5156 C918.6405,1389.0938 920.7499,1390.9844 923.6405,1390.9844 C924.8593,1390.9844 926.0155,1390.6875 926.7655,1390.1406 C927.3436,1389.7344 927.6718,1389.2813 927.6718,1388.8906 C927.6718,1388.4375 927.2811,1388.0469 926.8124,1388.0469 C926.5936,1388.0469 926.3905,1388.125 926.203,1388.3125 C925.7499,1388.7969 925.7499,1388.7969 925.5624,1388.8906 C925.1405,1389.1563 924.453,1389.2813 923.6874,1389.2813 C921.6405,1389.2813 920.3436,1388.1875 920.3436,1386.4844 L920.3436,1385.3906 C920.3436,1383.6094 921.5936,1382.2969 923.328,1382.2969 C923.9061,1382.2969 924.5155,1382.4531 924.9843,1382.7031 C925.4686,1382.9844 925.6405,1383.2031 925.7343,1383.6094 C925.7968,1384.0156 925.828,1384.1406 925.9686,1384.2656 C926.1093,1384.4063 926.3436,1384.5156 926.5624,1384.5156 C926.828,1384.5156 927.0936,1384.375 927.2655,1384.1563 C927.3749,1384 927.4061,1383.8125 927.4061,1383.3906 L927.4061,1381.9688 C927.4061,1381.5313 927.3905,1381.4063 927.2968,1381.25 C927.1405,1380.9844 926.8593,1380.8438 926.5624,1380.8438 C926.2655,1380.8438 926.0624,1380.9375 925.8436,1381.25 L925.6718,1381.1719 Z " fill="#000000"/><text fill="#000000" font-family="sans-serif" font-size="12" lengthAdjust="spacing" textLength="45" x="937.428" y="1389.6543">Sample</text><line style="stroke:#A80036;stroke-width:1.5;" x1="908.878" x2="984.878" y1="1401.5" y2="1401.5"/><text fill="#000000" font-family="sans-serif" font-size="11" lengthAdjust="spacing" textLength="66" x="913.878" y="1415.7104">-Client/Test</text><text fill="#000000" font-family="sans-serif" font-size="11" lengthAdjust="spacing" textLength="51" x="913.878" y="1428.5151">-Barcode</text><line style="stroke:#A80036;stroke-width:1.5;" x1="908.878" x2="984.878" y1="1435.1094" y2="1435.1094"/><!--MD5=[1934a092c0e7d4da7dc7075b6f4b6b03]
class ClinicalAnalysisLaboratory--><rect codeLine="111" fill="#FEFECE" filter="url(#f6ne835i3jt8h)" height="112.0234" id="ClinicalAnalysisLaboratory" style="stroke:#A80036;stroke-width:1.5;" width="187" x="390.378" y="1748"/><ellipse cx="405.378" cy="1764" fill="#ADD1B2" rx="11" ry="11" style="stroke:#A80036;stroke-width:1.0;"/><path d="M407.7218,1759.6719 C406.7843,1759.2344 406.1905,1759.0938 405.3155,1759.0938 C402.6905,1759.0938 400.6905,1761.1719 400.6905,1763.8906 L400.6905,1765.0156 C400.6905,1767.5938 402.7999,1769.4844 405.6905,1769.4844 C406.9093,1769.4844 408.0655,1769.1875 408.8155,1768.6406 C409.3936,1768.2344 409.7218,1767.7813 409.7218,1767.3906 C409.7218,1766.9375 409.3311,1766.5469 408.8624,1766.5469 C408.6436,1766.5469 408.4405,1766.625 408.253,1766.8125 C407.7999,1767.2969 407.7999,1767.2969 407.6124,1767.3906 C407.1905,1767.6563 406.503,1767.7813 405.7374,1767.7813 C403.6905,1767.7813 402.3936,1766.6875 402.3936,1764.9844 L402.3936,1763.8906 C402.3936,1762.1094 403.6436,1760.7969 405.378,1760.7969 C405.9561,1760.7969 406.5655,1760.9531 407.0343,1761.2031 C407.5186,1761.4844 407.6905,1761.7031 407.7843,1762.1094 C407.8468,1762.5156 407.878,1762.6406 408.0186,1762.7656 C408.1593,1762.9063 408.3936,1763.0156 408.6124,1763.0156 C408.878,1763.0156 409.1436,1762.875 409.3155,1762.6563 C409.4249,1762.5 409.4561,1762.3125 409.4561,1761.8906 L409.4561,1760.4688 C409.4561,1760.0313 409.4405,1759.9063 409.3468,1759.75 C409.1905,1759.4844 408.9093,1759.3438 408.6124,1759.3438 C408.3155,1759.3438 408.1124,1759.4375 407.8936,1759.75 L407.7218,1759.6719 Z " fill="#000000"/><text fill="#000000" font-family="sans-serif" font-size="12" lengthAdjust="spacing" textLength="155" x="419.378" y="1768.1543">ClinicalAnalysisLaboratory</text><line style="stroke:#A80036;stroke-width:1.5;" x1="391.378" x2="576.378" y1="1780" y2="1780"/><text fill="#000000" font-family="sans-serif" font-size="11" lengthAdjust="spacing" textLength="80" x="396.378" y="1794.2104">-Laboratory ID</text><text fill="#000000" font-family="sans-serif" font-size="11" lengthAdjust="spacing" textLength="38" x="396.378" y="1807.0151">-Name</text><text fill="#000000" font-family="sans-serif" font-size="11" lengthAdjust="spacing" textLength="50" x="396.378" y="1819.8198">-Address</text><text fill="#000000" font-family="sans-serif" font-size="11" lengthAdjust="spacing" textLength="88" x="396.378" y="1832.6245">-Phone Number</text><text fill="#000000" font-family="sans-serif" font-size="11" lengthAdjust="spacing" textLength="70" x="396.378" y="1845.4292">-TIN number</text><line style="stroke:#A80036;stroke-width:1.5;" x1="391.378" x2="576.378" y1="1852.0234" y2="1852.0234"/><!--MD5=[10d06bcee75aaf74ab8f6040820ceef2]
class Diagnosis--><rect codeLine="118" fill="#FEFECE" filter="url(#f6ne835i3jt8h)" height="60.8047" id="Diagnosis" style="stroke:#A80036;stroke-width:1.5;" width="91" x="967.378" y="701.5"/><ellipse cx="982.378" cy="717.5" fill="#ADD1B2" rx="11" ry="11" style="stroke:#A80036;stroke-width:1.0;"/><path d="M984.7218,713.1719 C983.7843,712.7344 983.1905,712.5938 982.3155,712.5938 C979.6905,712.5938 977.6905,714.6719 977.6905,717.3906 L977.6905,718.5156 C977.6905,721.0938 979.7999,722.9844 982.6905,722.9844 C983.9093,722.9844 985.0655,722.6875 985.8155,722.1406 C986.3936,721.7344 986.7218,721.2813 986.7218,720.8906 C986.7218,720.4375 986.3311,720.0469 985.8624,720.0469 C985.6436,720.0469 985.4405,720.125 985.253,720.3125 C984.7999,720.7969 984.7999,720.7969 984.6124,720.8906 C984.1905,721.1563 983.503,721.2813 982.7374,721.2813 C980.6905,721.2813 979.3936,720.1875 979.3936,718.4844 L979.3936,717.3906 C979.3936,715.6094 980.6436,714.2969 982.378,714.2969 C982.9561,714.2969 983.5655,714.4531 984.0343,714.7031 C984.5186,714.9844 984.6905,715.2031 984.7843,715.6094 C984.8468,716.0156 984.878,716.1406 985.0186,716.2656 C985.1593,716.4063 985.3936,716.5156 985.6124,716.5156 C985.878,716.5156 986.1436,716.375 986.3155,716.1563 C986.4249,716 986.4561,715.8125 986.4561,715.3906 L986.4561,713.9688 C986.4561,713.5313 986.4405,713.4063 986.3468,713.25 C986.1905,712.9844 985.9093,712.8438 985.6124,712.8438 C985.3155,712.8438 985.1124,712.9375 984.8936,713.25 L984.7218,713.1719 Z " fill="#000000"/><text fill="#000000" font-family="sans-serif" font-size="12" lengthAdjust="spacing" textLength="59" x="996.378" y="721.6543">Diagnosis</text><line style="stroke:#A80036;stroke-width:1.5;" x1="968.378" x2="1057.378" y1="733.5" y2="733.5"/><text fill="#000000" font-family="sans-serif" font-size="11" lengthAdjust="spacing" textLength="41" x="973.378" y="747.7104">-Report</text><line style="stroke:#A80036;stroke-width:1.5;" x1="968.378" x2="1057.378" y1="754.3047" y2="754.3047"/><!--MD5=[36afb6bbd95a8ac778c4537c55a683d5]
class ParameterCategory--><rect codeLine="121" fill="#FEFECE" filter="url(#f6ne835i3jt8h)" height="48" id="ParameterCategory" style="stroke:#A80036;stroke-width:1.5;" width="148" x="361.878" y="222"/><ellipse cx="376.878" cy="238" fill="#ADD1B2" rx="11" ry="11" style="stroke:#A80036;stroke-width:1.0;"/><path d="M379.2218,233.6719 C378.2843,233.2344 377.6905,233.0938 376.8155,233.0938 C374.1905,233.0938 372.1905,235.1719 372.1905,237.8906 L372.1905,239.0156 C372.1905,241.5938 374.2999,243.4844 377.1905,243.4844 C378.4093,243.4844 379.5655,243.1875 380.3155,242.6406 C380.8936,242.2344 381.2218,241.7813 381.2218,241.3906 C381.2218,240.9375 380.8311,240.5469 380.3624,240.5469 C380.1436,240.5469 379.9405,240.625 379.753,240.8125 C379.2999,241.2969 379.2999,241.2969 379.1124,241.3906 C378.6905,241.6563 378.003,241.7813 377.2374,241.7813 C375.1905,241.7813 373.8936,240.6875 373.8936,238.9844 L373.8936,237.8906 C373.8936,236.1094 375.1436,234.7969 376.878,234.7969 C377.4561,234.7969 378.0655,234.9531 378.5343,235.2031 C379.0186,235.4844 379.1905,235.7031 379.2843,236.1094 C379.3468,236.5156 379.378,236.6406 379.5186,236.7656 C379.6593,236.9063 379.8936,237.0156 380.1124,237.0156 C380.378,237.0156 380.6436,236.875 380.8155,236.6563 C380.9249,236.5 380.9561,236.3125 380.9561,235.8906 L380.9561,234.4688 C380.9561,234.0313 380.9405,233.9063 380.8468,233.75 C380.6905,233.4844 380.4093,233.3438 380.1124,233.3438 C379.8155,233.3438 379.6124,233.4375 379.3936,233.75 L379.2218,233.6719 Z " fill="#000000"/><text fill="#000000" font-family="sans-serif" font-size="12" lengthAdjust="spacing" textLength="116" x="390.878" y="242.1543">ParameterCategory</text><line style="stroke:#A80036;stroke-width:1.5;" x1="362.878" x2="508.878" y1="254" y2="254"/><line style="stroke:#A80036;stroke-width:1.5;" x1="362.878" x2="508.878" y1="262" y2="262"/><!--MD5=[a05769ccb6ff68467d0f03d44782bb8a]
class ChemicalAnalysis--><rect fill="#FEFECE" filter="url(#f6ne835i3jt8h)" height="48" id="ChemicalAnalysis" style="stroke:#A80036;stroke-width:1.5;" width="135" x="1176.378" y="1578"/><ellipse cx="1191.378" cy="1594" fill="#ADD1B2" rx="11" ry="11" style="stroke:#A80036;stroke-width:1.0;"/><path d="M1193.7218,1589.6719 C1192.7843,1589.2344 1192.1905,1589.0938 1191.3155,1589.0938 C1188.6905,1589.0938 1186.6905,1591.1719 1186.6905,1593.8906 L1186.6905,1595.0156 C1186.6905,1597.5938 1188.7999,1599.4844 1191.6905,1599.4844 C1192.9093,1599.4844 1194.0655,1599.1875 1194.8155,1598.6406 C1195.3936,1598.2344 1195.7218,1597.7813 1195.7218,1597.3906 C1195.7218,1596.9375 1195.3311,1596.5469 1194.8624,1596.5469 C1194.6436,1596.5469 1194.4405,1596.625 1194.253,1596.8125 C1193.7999,1597.2969 1193.7999,1597.2969 1193.6124,1597.3906 C1193.1905,1597.6563 1192.503,1597.7813 1191.7374,1597.7813 C1189.6905,1597.7813 1188.3936,1596.6875 1188.3936,1594.9844 L1188.3936,1593.8906 C1188.3936,1592.1094 1189.6436,1590.7969 1191.378,1590.7969 C1191.9561,1590.7969 1192.5655,1590.9531 1193.0343,1591.2031 C1193.5186,1591.4844 1193.6905,1591.7031 1193.7843,1592.1094 C1193.8468,1592.5156 1193.878,1592.6406 1194.0186,1592.7656 C1194.1593,1592.9063 1194.3936,1593.0156 1194.6124,1593.0156 C1194.878,1593.0156 1195.1436,1592.875 1195.3155,1592.6563 C1195.4249,1592.5 1195.4561,1592.3125 1195.4561,1591.8906 L1195.4561,1590.4688 C1195.4561,1590.0313 1195.4405,1589.9063 1195.3468,1589.75 C1195.1905,1589.4844 1194.9093,1589.3438 1194.6124,1589.3438 C1194.3155,1589.3438 1194.1124,1589.4375 1193.8936,1589.75 L1193.7218,1589.6719 Z " fill="#000000"/><text fill="#000000" font-family="sans-serif" font-size="12" lengthAdjust="spacing" textLength="103" x="1205.378" y="1598.1543">ChemicalAnalysis</text><line style="stroke:#A80036;stroke-width:1.5;" x1="1177.378" x2="1310.378" y1="1610" y2="1610"/><line style="stroke:#A80036;stroke-width:1.5;" x1="1177.378" x2="1310.378" y1="1618" y2="1618"/><!--MD5=[f536e7a2367d50907da12b5658fff58d]
class DailyReports--><rect fill="#FEFECE" filter="url(#f6ne835i3jt8h)" height="48" id="DailyReports" style="stroke:#A80036;stroke-width:1.5;" width="108" x="128.878" y="1578"/><ellipse cx="143.878" cy="1594" fill="#ADD1B2" rx="11" ry="11" style="stroke:#A80036;stroke-width:1.0;"/><path d="M146.2218,1589.6719 C145.2843,1589.2344 144.6905,1589.0938 143.8155,1589.0938 C141.1905,1589.0938 139.1905,1591.1719 139.1905,1593.8906 L139.1905,1595.0156 C139.1905,1597.5938 141.2999,1599.4844 144.1905,1599.4844 C145.4093,1599.4844 146.5655,1599.1875 147.3155,1598.6406 C147.8936,1598.2344 148.2218,1597.7813 148.2218,1597.3906 C148.2218,1596.9375 147.8311,1596.5469 147.3624,1596.5469 C147.1436,1596.5469 146.9405,1596.625 146.753,1596.8125 C146.2999,1597.2969 146.2999,1597.2969 146.1124,1597.3906 C145.6905,1597.6563 145.003,1597.7813 144.2374,1597.7813 C142.1905,1597.7813 140.8936,1596.6875 140.8936,1594.9844 L140.8936,1593.8906 C140.8936,1592.1094 142.1436,1590.7969 143.878,1590.7969 C144.4561,1590.7969 145.0655,1590.9531 145.5343,1591.2031 C146.0186,1591.4844 146.1905,1591.7031 146.2843,1592.1094 C146.3468,1592.5156 146.378,1592.6406 146.5186,1592.7656 C146.6593,1592.9063 146.8936,1593.0156 147.1124,1593.0156 C147.378,1593.0156 147.6436,1592.875 147.8155,1592.6563 C147.9249,1592.5 147.9561,1592.3125 147.9561,1591.8906 L147.9561,1590.4688 C147.9561,1590.0313 147.9405,1589.9063 147.8468,1589.75 C147.6905,1589.4844 147.4093,1589.3438 147.1124,1589.3438 C146.8155,1589.3438 146.6124,1589.4375 146.3936,1589.75 L146.2218,1589.6719 Z " fill="#000000"/><text fill="#000000" font-family="sans-serif" font-size="12" lengthAdjust="spacing" textLength="76" x="157.878" y="1598.1543">DailyReports</text><line style="stroke:#A80036;stroke-width:1.5;" x1="129.878" x2="235.878" y1="1610" y2="1610"/><line style="stroke:#A80036;stroke-width:1.5;" x1="129.878" x2="235.878" y1="1618" y2="1618"/><!--MD5=[7421f545a0d8420c5bec41e74b387d9c]
class Employee--><rect fill="#FEFECE" filter="url(#f6ne835i3jt8h)" height="48" id="Employee" style="stroke:#A80036;stroke-width:1.5;" width="92" x="1217.878" y="222"/><ellipse cx="1232.878" cy="238" fill="#ADD1B2" rx="11" ry="11" style="stroke:#A80036;stroke-width:1.0;"/><path d="M1235.2218,233.6719 C1234.2843,233.2344 1233.6905,233.0938 1232.8155,233.0938 C1230.1905,233.0938 1228.1905,235.1719 1228.1905,237.8906 L1228.1905,239.0156 C1228.1905,241.5938 1230.2999,243.4844 1233.1905,243.4844 C1234.4093,243.4844 1235.5655,243.1875 1236.3155,242.6406 C1236.8936,242.2344 1237.2218,241.7813 1237.2218,241.3906 C1237.2218,240.9375 1236.8311,240.5469 1236.3624,240.5469 C1236.1436,240.5469 1235.9405,240.625 1235.753,240.8125 C1235.2999,241.2969 1235.2999,241.2969 1235.1124,241.3906 C1234.6905,241.6563 1234.003,241.7813 1233.2374,241.7813 C1231.1905,241.7813 1229.8936,240.6875 1229.8936,238.9844 L1229.8936,237.8906 C1229.8936,236.1094 1231.1436,234.7969 1232.878,234.7969 C1233.4561,234.7969 1234.0655,234.9531 1234.5343,235.2031 C1235.0186,235.4844 1235.1905,235.7031 1235.2843,236.1094 C1235.3468,236.5156 1235.378,236.6406 1235.5186,236.7656 C1235.6593,236.9063 1235.8936,237.0156 1236.1124,237.0156 C1236.378,237.0156 1236.6436,236.875 1236.8155,236.6563 C1236.9249,236.5 1236.9561,236.3125 1236.9561,235.8906 L1236.9561,234.4688 C1236.9561,234.0313 1236.9405,233.9063 1236.8468,233.75 C1236.6905,233.4844 1236.4093,233.3438 1236.1124,233.3438 C1235.8155,233.3438 1235.6124,233.4375 1235.3936,233.75 L1235.2218,233.6719 Z " fill="#000000"/><text fill="#000000" font-family="sans-serif" font-size="12" lengthAdjust="spacing" textLength="60" x="1246.878" y="242.1543">Employee</text><line style="stroke:#A80036;stroke-width:1.5;" x1="1218.878" x2="1308.878" y1="254" y2="254"/><line style="stroke:#A80036;stroke-width:1.5;" x1="1218.878" x2="1308.878" y1="262" y2="262"/><!--MD5=[1f6362a5c8f21d8d6a0fce68f3a92a4e]
class Parameter--><rect fill="#FEFECE" filter="url(#f6ne835i3jt8h)" height="48" id="Parameter" style="stroke:#A80036;stroke-width:1.5;" width="93" x="369.378" y="799"/><ellipse cx="384.378" cy="815" fill="#ADD1B2" rx="11" ry="11" style="stroke:#A80036;stroke-width:1.0;"/><path d="M386.7218,810.6719 C385.7843,810.2344 385.1905,810.0938 384.3155,810.0938 C381.6905,810.0938 379.6905,812.1719 379.6905,814.8906 L379.6905,816.0156 C379.6905,818.5938 381.7999,820.4844 384.6905,820.4844 C385.9093,820.4844 387.0655,820.1875 387.8155,819.6406 C388.3936,819.2344 388.7218,818.7813 388.7218,818.3906 C388.7218,817.9375 388.3311,817.5469 387.8624,817.5469 C387.6436,817.5469 387.4405,817.625 387.253,817.8125 C386.7999,818.2969 386.7999,818.2969 386.6124,818.3906 C386.1905,818.6563 385.503,818.7813 384.7374,818.7813 C382.6905,818.7813 381.3936,817.6875 381.3936,815.9844 L381.3936,814.8906 C381.3936,813.1094 382.6436,811.7969 384.378,811.7969 C384.9561,811.7969 385.5655,811.9531 386.0343,812.2031 C386.5186,812.4844 386.6905,812.7031 386.7843,813.1094 C386.8468,813.5156 386.878,813.6406 387.0186,813.7656 C387.1593,813.9063 387.3936,814.0156 387.6124,814.0156 C387.878,814.0156 388.1436,813.875 388.3155,813.6563 C388.4249,813.5 388.4561,813.3125 388.4561,812.8906 L388.4561,811.4688 C388.4561,811.0313 388.4405,810.9063 388.3468,810.75 C388.1905,810.4844 387.9093,810.3438 387.6124,810.3438 C387.3155,810.3438 387.1124,810.4375 386.8936,810.75 L386.7218,810.6719 Z " fill="#000000"/><text fill="#000000" font-family="sans-serif" font-size="12" lengthAdjust="spacing" textLength="61" x="398.378" y="819.1543">Parameter</text><line style="stroke:#A80036;stroke-width:1.5;" x1="370.378" x2="461.378" y1="831" y2="831"/><line style="stroke:#A80036;stroke-width:1.5;" x1="370.378" x2="461.378" y1="839" y2="839"/><!--MD5=[7048eb257bae2750d747ca61a113ed73]
link Client to Receptionist--><path codeLine="124" d="M853.645,1053.271 C855.13,1080.468 856.746,1110.049 858.15,1135.746 " fill="none" id="Client-Receptionist" style="stroke:#A80036;stroke-width:1.0;"/><polygon fill="#000000" points="861.6053,1086.5738,859.1641,1095.7658,865.0332,1095.4452,861.6053,1086.5738" style="stroke:#000000;stroke-width:1.0;"/><text fill="#000000" font-family="sans-serif" font-size="13" lengthAdjust="spacing" textLength="56" x="870.878" y="1096.0669">registers</text><text fill="#000000" font-family="sans-serif" font-size="13" lengthAdjust="spacing" textLength="7" x="846.746" y="1072.9731">*</text><!--MD5=[502b51bc079239060389dab43b7d3470]
link Client to Test--><path codeLine="125" d="M728.605,1053.271 C693.958,1078.411 656.502,1105.59 623.063,1129.854 " fill="none" id="Client-Test" style="stroke:#A80036;stroke-width:1.0;"/><polygon fill="#000000" points="693.9249,1088.6299,684.878,1091.5634,688.33,1096.3208,693.9249,1088.6299" style="stroke:#000000;stroke-width:1.0;"/><text fill="#000000" font-family="sans-serif" font-size="13" lengthAdjust="spacing" textLength="85" x="698.878" y="1096.0669">requested by</text><!--MD5=[cb5e86f6614a99551e1d9ce6f0ae5849]
link Sample to MedicalLabTechnician--><path codeLine="126" d="M955.906,1443.896 C962.098,1468.857 970.504,1502.741 977.923,1532.652 " fill="none" id="Sample-MedicalLabTechnician" style="stroke:#A80036;stroke-width:1.0;"/><polygon fill="#000000" points="973.6742,1489.7135,972.9994,1499.2001,978.7044,1497.7849,973.6742,1489.7135" style="stroke:#000000;stroke-width:1.0;"/><text fill="#000000" font-family="sans-serif" font-size="13" lengthAdjust="spacing" textLength="41" x="983.878" y="1499.0669">collect</text><!--MD5=[886e2116207362f923eb53cc6f7d542a]
link Laboratories to Test--><path codeLine="127" d="M107.353,1180.768 C165.461,1139.14 293.294,1062.104 398.878,1101 C416.768,1107.59 433.818,1118.1 449.199,1129.96 " fill="none" id="Laboratories-Test" style="stroke:#A80036;stroke-width:1.0;"/><polygon fill="#000000" points="326.9323,1092.3015,336.3112,1093.8787,335.4471,1088.0647,326.9323,1092.3015" style="stroke:#000000;stroke-width:1.0;"/><text fill="#000000" font-family="sans-serif" font-size="13" lengthAdjust="spacing" textLength="57" x="340.878" y="1096.0669">made by</text><!--MD5=[b72ac8ab7fb5921fceb5036a3902baea]
link Test to Sample--><path codeLine="128" d="M642.953,1263.169 C732.447,1305.08 848.305,1359.337 907.808,1387.203 " fill="none" id="Test-Sample" style="stroke:#A80036;stroke-width:1.0;"/><polygon fill="#000000" points="773.3499,1316.4459,780.2949,1322.9435,782.7877,1317.6204,773.3499,1316.4459" style="stroke:#000000;stroke-width:1.0;"/><text fill="#000000" font-family="sans-serif" font-size="13" lengthAdjust="spacing" textLength="53" x="786.878" y="1323.0669">used for</text><!--MD5=[cbcd78368b5ee39f6c8d14a2f1065472]
link ChemicalAnalysis to Results--><path codeLine="129" d="M1241.298,1626.173 C1239.738,1650.939 1240.808,1690.362 1258.878,1718 C1283.038,1754.963 1329.398,1778.2703 1362.358,1790.9415 " fill="none" id="ChemicalAnalysis-Results" style="stroke:#A80036;stroke-width:1.0;"/><polygon fill="#000000" points="1266.8385,1713.5958,1263.8513,1704.5665,1259.1145,1708.0467,1266.8385,1713.5958" style="stroke:#000000;stroke-width:1.0;"/><text fill="#000000" font-family="sans-serif" font-size="13" lengthAdjust="spacing" textLength="65" x="1272.878" y="1714.0669">generates</text><!--MD5=[abeed2adb53773aed90060ff23689ea1]
link ClinicalChemistryTechnologist to ChemicalAnalysis--><path codeLine="130" d="M1575.958,665.18 C1573.898,791.27 1558.938,1067.418 1472.878,1280 C1422.268,1405.005 1313.938,1527.709 1266.698,1577.628 " fill="none" id="ClinicalChemistryTechnologist-ChemicalAnalysis" style="stroke:#A80036;stroke-width:1.0;"/><polygon fill="#000000" points="1535.273,1096.3018,1540.9599,1088.6788,1535.3931,1086.792,1535.273,1096.3018" style="stroke:#000000;stroke-width:1.0;"/><text fill="#000000" font-family="sans-serif" font-size="13" lengthAdjust="spacing" textLength="59" x="1545.878" y="1096.0669">performs</text><!--MD5=[e055aad303d290fd49a1e7121b5edbcc]
link Laboratories to Company--><path codeLine="131" d="M78.4921,1229.141 C82.1285,1254.496 90.3574,1295.719 107.878,1327 C115.1547,1339.991 125.083,1352.44 135.332,1363.444 " fill="none" id="Laboratories-Company" style="stroke:#A80036;stroke-width:1.0;"/><polygon fill="#000000" points="110.9292,1313.9618,111.7481,1323.4371,117.1611,1321.1461,110.9292,1313.9618" style="stroke:#000000;stroke-width:1.0;"/><text fill="#000000" font-family="sans-serif" font-size="13" lengthAdjust="spacing" textLength="34" x="121.878" y="1323.0669">owns</text><text fill="#000000" font-family="sans-serif" font-size="13" lengthAdjust="spacing" textLength="7" x="71.2762" y="1248.9366">*</text><!--MD5=[5122cec3c0c579e716e8166960782e7b]
link SpecialistDoctor to ChemicalAnalysis--><path codeLine="132" d="M1385.398,497.1 C1383.508,507.14 1381.618,517.32 1379.878,527 C1335.548,773.59 1317.938,834.39 1286.878,1083 C1263.078,1273.505 1249.138,1505.127 1245.108,1577.953 " fill="none" id="SpecialistDoctor-ChemicalAnalysis" style="stroke:#A80036;stroke-width:1.0;"/><polygon fill="#000000" points="1292.5216,1086.608,1288.4429,1095.1996,1294.2718,1095.9561,1292.5216,1086.608" style="stroke:#000000;stroke-width:1.0;"/><text fill="#000000" font-family="sans-serif" font-size="13" lengthAdjust="spacing" textLength="78" x="1300.878" y="1096.0669">analysed by</text><!--MD5=[ea4a37a070b547a484eb1acc58a2b0bb]
link SpecialistDoctor to Diagnosis--><path codeLine="133" d="M1294.618,497.02 C1281.118,506.94 1267.588,517.11 1254.878,527 C1178.338,586.56 1092.308,660.97 1046.248,701.43 " fill="none" id="SpecialistDoctor-Diagnosis" style="stroke:#A80036;stroke-width:1.0;"/><polygon fill="#000000" points="1256.0174,599.2437,1264.8689,595.7651,1261.1337,591.2267,1256.0174,599.2437" style="stroke:#000000;stroke-width:1.0;"/><text fill="#000000" font-family="sans-serif" font-size="13" lengthAdjust="spacing" textLength="55" x="1268.878" y="600.5669">makes a</text><text fill="#000000" font-family="sans-serif" font-size="13" lengthAdjust="spacing" textLength="8" x="1275.3506" y="517.5811">1</text><text fill="#000000" font-family="sans-serif" font-size="13" lengthAdjust="spacing" textLength="8" x="1044.6727" y="690.205">1</text><!--MD5=[1058ccf554d0ab00b7bf283101c51df7]
link Diagnosis to Client--><path codeLine="134" d="M967.367,746.67 C940.715,756.94 908.534,773.66 888.878,799 C871.625,821.24 861.677,849.85 855.986,876.982 " fill="none" id="Diagnosis-Client" style="stroke:#A80036;stroke-width:1.0;"/><polygon fill="#000000" points="890.6293,826.8672,898.7403,821.901,894.2722,818.082,890.6293,826.8672" style="stroke:#000000;stroke-width:1.0;"/><text fill="#000000" font-family="sans-serif" font-size="13" lengthAdjust="spacing" textLength="120" x="902.878" y="827.5669">will be delivered to</text><text fill="#000000" font-family="sans-serif" font-size="13" lengthAdjust="spacing" textLength="8" x="951.4762" y="744.9058">1</text><text fill="#000000" font-family="sans-serif" font-size="13" lengthAdjust="spacing" textLength="8" x="848.2531" y="865.844">1</text><!--MD5=[4b82047290a06c8b32e27f2a763def38]
link LaboratoryCoordinator to Results--><path codeLine="135" d="M1613.268,1671.257 C1605.318,1688.032 1594.988,1704.913 1581.878,1718 C1541.268,1758.522 1477.698,1782.0641 1437.448,1793.7162 " fill="none" id="LaboratoryCoordinator-Results" style="stroke:#A80036;stroke-width:1.0;"/><polygon fill="#000000" points="1595.7751,1712.4241,1604.877,1709.6661,1601.5176,1704.8429,1595.7751,1712.4241" style="stroke:#000000;stroke-width:1.0;"/><text fill="#000000" font-family="sans-serif" font-size="13" lengthAdjust="spacing" textLength="58" x="1608.878" y="1714.0669">validates</text><!--MD5=[4b82047290a06c8b32e27f2a763def38]
link LaboratoryCoordinator to Results--><path codeLine="139" d="M1550.858,1671.059 C1538.708,1681.015 1526.428,1691.211 1514.878,1701 C1483.528,1727.575 1448.278,1759.089 1425.168,1779.982 " fill="none" id="LaboratoryCoordinator-Results-1" style="stroke:#A80036;stroke-width:1.0;"/><polygon fill="#000000" points="1516.0994,1712.8409,1524.8596,1709.1383,1521.0102,1704.6963,1516.0994,1712.8409" style="stroke:#000000;stroke-width:1.0;"/><text fill="#000000" font-family="sans-serif" font-size="13" lengthAdjust="spacing" textLength="44" x="1528.878" y="1714.0669">checks</text><!--MD5=[1d4d4d9fb4e1ba3ea5c342abd0f4f897]
link Company to DailyReports--><path codeLine="136" d="M182.878,1449.964 C182.878,1489.347 182.878,1546.472 182.878,1577.979 " fill="none" id="Company-DailyReports" style="stroke:#A80036;stroke-width:1.0;"/><polygon fill="#000000" points="187.878,1499.5664,190.8169,1490.5213,184.9391,1490.5213,187.878,1499.5664" style="stroke:#000000;stroke-width:1.0;"/><text fill="#000000" font-family="sans-serif" font-size="13" lengthAdjust="spacing" textLength="65" x="196.878" y="1499.0669">generates</text><!--MD5=[8a6939a1352fc98b6628716147a2c2dd]
link MedicalLabTechnician to Results--><path codeLine="137" d="M1099.528,1671.054 C1126.498,1687.37 1155.838,1704.081 1183.878,1718 C1244.518,1748.103 1318.588,1775.3021 1362.348,1790.4446 " fill="none" id="MedicalLabTechnician-Results" style="stroke:#A80036;stroke-width:1.0;"/><polygon fill="#000000" points="1193.4303,1711.6344,1186.4106,1705.2176,1183.9796,1710.5692,1193.4303,1711.6344" style="stroke:#000000;stroke-width:1.0;"/><text fill="#000000" font-family="sans-serif" font-size="13" lengthAdjust="spacing" textLength="44" x="1197.878" y="1714.0669">checks</text><!--MD5=[7d5f62ef585791fc1b231dccb16748df]
link Client to Results--><path codeLine="138" d="M948.053,1053.186 C1058.818,1156.374 1234.878,1338.851 1328.878,1533 C1370.388,1618.721 1389.998,1731.925 1396.878,1779.9158 " fill="none" id="Client-Results" style="stroke:#A80036;stroke-width:1.0;"/><polygon fill="#000000" points="1294.5053,1410.8205,1292.253,1401.5805,1287.252,1404.6691,1294.5053,1410.8205" style="stroke:#000000;stroke-width:1.0;"/><text fill="#000000" font-family="sans-serif" font-size="13" lengthAdjust="spacing" textLength="44" x="1300.878" y="1411.0669">checks</text><!--MD5=[30986eb9547a17a7d69613c4e4ec0900]
link SpecialistDoctor to Results--><path codeLine="140" d="M1402.128,497.05 C1403.828,559.43 1405.878,651.04 1405.878,731 C1405.878,731 1405.878,731 1405.878,1092.5 C1405.878,1362.954 1409.768,1430.549 1410.878,1701 C1410.908,1708.555 1411.368,1710.46 1410.878,1718 C1409.518,1739.086 1406.288,1762.9323 1403.668,1779.989 " fill="none" id="SpecialistDoctor-Results" style="stroke:#A80036;stroke-width:1.0;"/><polygon fill="#000000" points="1411.884,1210.0664,1414.8121,1201.0178,1408.9342,1201.0249,1411.884,1210.0664" style="stroke:#000000;stroke-width:1.0;"/><text fill="#000000" font-family="sans-serif" font-size="13" lengthAdjust="spacing" textLength="44" x="1420.878" y="1209.5669">checks</text><!--MD5=[d14d2d36f5e84ebb42cb924c0a03e15b]
link Test to BloodTest--><path codeLine="141" d="M510.359,1280.062 C509.876,1295.681 510.68,1311.976 513.878,1327 C515.99,1336.924 519.45,1347.115 523.392,1356.731 " fill="none" id="Test-BloodTest" style="stroke:#A80036;stroke-width:1.0;"/><polygon fill="#000000" points="518.0401,1313.6371,516.6585,1323.0468,522.4533,1322.0618,518.0401,1313.6371" style="stroke:#000000;stroke-width:1.0;"/><text fill="#000000" font-family="sans-serif" font-size="13" lengthAdjust="spacing" textLength="72" x="527.878" y="1323.0669">is a type of</text><!--MD5=[f4eea3df79f2fe813979568e68552a7b]
link Test to CovidTest--><path codeLine="142" d="M593.583,1280.003 C626.266,1313.27 662.979,1350.638 687.778,1375.88 " fill="none" id="Test-CovidTest" style="stroke:#A80036;stroke-width:1.0;"/><polygon fill="#000000" points="638.3739,1314.9997,642.6164,1323.5116,646.8093,1319.3922,638.3739,1314.9997" style="stroke:#000000;stroke-width:1.0;"/><text fill="#000000" font-family="sans-serif" font-size="13" lengthAdjust="spacing" textLength="72" x="650.878" y="1323.0669">is a type of</text><!--MD5=[7dcd581d20c87a53331ad083603da507]
link Sample to ChemicalLaboratory--><path codeLine="143" d="M907.806,1430.391 C861.68,1458.292 789.269,1505.152 773.878,1533 C735.531,1602.386 739.918,1697.616 747.362,1754.469 " fill="none" id="Sample-ChemicalLaboratory" style="stroke:#A80036;stroke-width:1.0;"/><polygon fill="#000000" points="776.6596,1606.5473,783.3065,1599.7452,778.0389,1597.1373,776.6596,1606.5473" style="stroke:#000000;stroke-width:1.0;"/><text fill="#000000" font-family="sans-serif" font-size="13" lengthAdjust="spacing" textLength="42" x="787.878" y="1606.5669">is sent</text><!--MD5=[97f0e67b6e351c541401326f382aebd9]
link ChemicalAnalysis to ChemicalLaboratory--><path codeLine="144" d="M1221.008,1626.205 C1204.958,1641.177 1182.258,1659.869 1158.878,1671 C1102.208,1697.984 1081.008,1683.007 1020.878,1701 C955.821,1720.467 884.049,1748.516 831.626,1770.2763 " fill="none" id="ChemicalAnalysis-ChemicalLaboratory" style="stroke:#A80036;stroke-width:1.0;"/><polygon fill="#000000" points="1021.1887,1711.3015,1030.6916,1710.919,1028.6519,1705.4064,1021.1887,1711.3015" style="stroke:#000000;stroke-width:1.0;"/><text fill="#000000" font-family="sans-serif" font-size="13" lengthAdjust="spacing" textLength="108" x="1034.878" y="1714.0669">are performed in</text><!--MD5=[56903aa8e267b46eaa7e199485d3630d]
link ChemicalLaboratory to Laboratories--><path codeLine="145" d="M728.825,1754.273 C689.197,1686.573 609.586,1563.648 513.878,1486 C489.795,1466.461 477.849,1471.307 450.878,1456 C318.521,1380.882 170.818,1275.597 107.4903,1229.346 " fill="none" id="ChemicalLaboratory-Laboratories" style="stroke:#A80036;stroke-width:1.0;"/><polygon fill="#000000" points="534.0586,1491.3396,539.0713,1499.4219,542.8646,1494.9319,534.0586,1491.3396" style="stroke:#000000;stroke-width:1.0;"/><text fill="#000000" font-family="sans-serif" font-size="13" lengthAdjust="spacing" textLength="57" x="546.878" y="1499.0669">is part of</text><text fill="#000000" font-family="sans-serif" font-size="13" lengthAdjust="spacing" textLength="8" x="716.4582" y="1743.2863">1</text><!--MD5=[b097d9d314264888b7dbeddc95343863]
link LabOrder to Client--><path codeLine="146" d="M679.284,769.09 C704.348,797.9 740.524,839.47 773.032,876.833 " fill="none" id="LabOrder-Client" style="stroke:#A80036;stroke-width:1.0;"/><polygon fill="#000000" points="751.1601,826.8384,747.4399,818.0856,743.0056,821.9439,751.1601,826.8384" style="stroke:#000000;stroke-width:1.0;"/><text fill="#000000" font-family="sans-serif" font-size="13" lengthAdjust="spacing" textLength="67" x="756.878" y="827.5669">belongs to</text><text fill="#000000" font-family="sans-serif" font-size="13" lengthAdjust="spacing" textLength="8" x="675.8231" y="788.5855">1</text><text fill="#000000" font-family="sans-serif" font-size="13" lengthAdjust="spacing" textLength="8" x="758.4198" y="865.981">1</text><!--MD5=[84a279e28ad6c3248737114c29c49c27]
link LabOrder to Test--><path codeLine="147" d="M641.054,769.35 C629.513,829.09 604.482,951.527 574.878,1053 C567.509,1078.257 558.223,1105.443 549.438,1129.693 " fill="none" id="LabOrder-Test" style="stroke:#A80036;stroke-width:1.0;"/><polygon fill="#000000" points="622.646,969.9122,627.723,961.8702,622.0264,960.4219,622.646,969.9122" style="stroke:#000000;stroke-width:1.0;"/><text fill="#000000" font-family="sans-serif" font-size="13" lengthAdjust="spacing" textLength="54" x="632.878" y="969.5669">contains</text><text fill="#000000" font-family="sans-serif" font-size="13" lengthAdjust="spacing" textLength="8" x="631.3289" y="788.6066">1</text><text fill="#000000" font-family="sans-serif" font-size="13" lengthAdjust="spacing" textLength="8" x="543.7789" y="1118.8528">1</text><!--MD5=[eea11252f0b3915a435a28328cb56940]
link ClinicalAnalysisLaboratory to Laboratories--><path codeLine="148" d="M390.316,1797.6305 C303.041,1787.1919 176.707,1757.075 110.878,1671 C6,1533.866 51.5638,1302.535 69.7061,1229.098 " fill="none" id="ClinicalAnalysisLaboratory-Laboratories" style="stroke:#A80036;stroke-width:1.0;"/><polygon fill="#000000" points="51.422,1490.2112,53.305,1499.5335,58.4249,1496.6462,51.422,1490.2112" style="stroke:#000000;stroke-width:1.0;"/><text fill="#000000" font-family="sans-serif" font-size="13" lengthAdjust="spacing" textLength="57" x="62.878" y="1499.0669">is part of</text><text fill="#000000" font-family="sans-serif" font-size="13" lengthAdjust="spacing" textLength="7" x="375.2781" y="1793.5534">*</text><!--MD5=[6cd0a3af2322bf46f6c633408da71c74]
link Receptionist to ClinicalAnalysisLaboratory--><path codeLine="149" d="M857.674,1274.03 C850.814,1329.441 832.98,1406.363 786.878,1456 C766.588,1477.845 749.868,1467.017 726.878,1486 C634.773,1562.051 556.601,1679.275 515.31,1747.835 " fill="none" id="Receptionist-ClinicalAnalysisLaboratory" style="stroke:#A80036;stroke-width:1.0;"/><polygon fill="#000000" points="728.9496,1498.6191,736.6293,1493.009,731.865,1489.5664,728.9496,1498.6191" style="stroke:#000000;stroke-width:1.0;"/><text fill="#000000" font-family="sans-serif" font-size="13" lengthAdjust="spacing" textLength="53" x="740.878" y="1499.0669">works in</text><text fill="#000000" font-family="sans-serif" font-size="13" lengthAdjust="spacing" textLength="7" x="849.9156" y="1293.6549">*</text><text fill="#000000" font-family="sans-serif" font-size="13" lengthAdjust="spacing" textLength="7" x="511.8888" y="1736.7518">*</text><!--MD5=[738f0445d4a0804ca0738b44323ae22b]
link MedicalLabTechnician to ClinicalAnalysisLaboratory--><path codeLine="150" d="M848.104,1660.446 C760.966,1694.551 653.087,1736.773 577.435,1766.3829 " fill="none" id="MedicalLabTechnician-ClinicalAnalysisLaboratory" style="stroke:#A80036;stroke-width:1.0;"/><polygon fill="#000000" points="740.2219,1711.3887,749.716,1710.8289,747.5737,1705.3553,740.2219,1711.3887" style="stroke:#000000;stroke-width:1.0;"/><text fill="#000000" font-family="sans-serif" font-size="13" lengthAdjust="spacing" textLength="53" x="753.878" y="1714.0669">works in</text><text fill="#000000" font-family="sans-serif" font-size="13" lengthAdjust="spacing" textLength="7" x="833.3555" y="1660.1527">*</text><text fill="#000000" font-family="sans-serif" font-size="13" lengthAdjust="spacing" textLength="7" x="585.4725" y="1759.7182">*</text><!--MD5=[dbe5bc39261da22785c9b7eef7c0c242]
link Sample to ChemicalAnalysis--><path codeLine="151" d="M986.188,1428.592 C1029.528,1452.344 1100.818,1492.883 1158.878,1533 C1179.088,1546.965 1200.698,1564.283 1217.068,1577.946 " fill="none" id="Sample-ChemicalAnalysis" style="stroke:#A80036;stroke-width:1.0;"/><polygon fill="#000000" points="1118.0762,1497.2822,1112.0779,1489.9017,1108.8853,1494.8369,1118.0762,1497.2822" style="stroke:#000000;stroke-width:1.0;"/><text fill="#000000" font-family="sans-serif" font-size="13" lengthAdjust="spacing" textLength="53" x="1122.878" y="1499.0669">used for</text><text fill="#000000" font-family="sans-serif" font-size="13" lengthAdjust="spacing" textLength="8" x="993.9026" y="1428.3047">1</text><text fill="#000000" font-family="sans-serif" font-size="13" lengthAdjust="spacing" textLength="8" x="1201.1729" y="1566.9442">1</text><!--MD5=[6a792874ec670501550ba3cef1907474]
link Diagnosis to Test--><path codeLine="152" d="M1021.101,762.66 C1023.838,773.94 1026.528,786.97 1027.878,799 C1040.558,912.017 1054.548,954.982 996.878,1053 C927.289,1171.271 830.466,1094.63 697.878,1130 C679.856,1134.807 661.25,1141.053 643.176,1147.877 " fill="none" id="Diagnosis-Test" style="stroke:#A80036;stroke-width:1.0;"/><polygon fill="#000000" points="1041.3764,968.6356,1049.8087,964.2371,1045.613,960.1207,1041.3764,968.6356" style="stroke:#000000;stroke-width:1.0;"/><text fill="#000000" font-family="sans-serif" font-size="13" lengthAdjust="spacing" textLength="13" x="1053.878" y="969.5669">of</text><text fill="#000000" font-family="sans-serif" font-size="13" lengthAdjust="spacing" textLength="8" x="1013.9324" y="782.2719">1</text><text fill="#000000" font-family="sans-serif" font-size="13" lengthAdjust="spacing" textLength="8" x="650.8723" y="1140.9966">1</text><!--MD5=[ca29482912e344ebd5dc9db2d1c2ccab]
link Test to ClinicalAnalysisLaboratory--><path codeLine="153" d="M481.705,1280.142 C455.288,1335.183 423.402,1413.031 412.878,1486 C399.474,1578.941 433.539,1685.08 458.997,1747.934 " fill="none" id="Test-ClinicalAnalysisLaboratory" style="stroke:#A80036;stroke-width:1.0;"/><polygon fill="#000000" points="417.6356,1499.5605,421.0096,1490.6686,415.1387,1490.3836,417.6356,1499.5605" style="stroke:#000000;stroke-width:1.0;"/><text fill="#000000" font-family="sans-serif" font-size="13" lengthAdjust="spacing" textLength="82" x="426.878" y="1499.0669">are made by</text><text fill="#000000" font-family="sans-serif" font-size="13" lengthAdjust="spacing" textLength="23" x="453.4793" y="1300.7156">1..*</text><text fill="#000000" font-family="sans-serif" font-size="13" lengthAdjust="spacing" textLength="23" x="431.3357" y="1736.8635">1..*</text><!--MD5=[e81fca0f34dd6b0a10f4f75277b45ff4]
link Client to Company--><path codeLine="154" d="M718.244,1045.014 C710.808,1048.014 703.326,1050.711 695.878,1053 C615.545,1077.693 387.085,1033.899 318.878,1083 C294.744,1100.373 228.001,1279.739 197.921,1363.205 " fill="none" id="Client-Company" style="stroke:#A80036;stroke-width:1.0;"/><text fill="#000000" font-family="sans-serif" font-size="13" lengthAdjust="spacing" textLength="80" x="290.878" y="1209.5669">registered in</text><text fill="#000000" font-family="sans-serif" font-size="13" lengthAdjust="spacing" textLength="23" x="687.471" y="1046.0489">1..*</text><text fill="#000000" font-family="sans-serif" font-size="13" lengthAdjust="spacing" textLength="8" x="191.612" y="1352.4724">1</text><!--MD5=[8f7dd94d56b58fc07b233ccd3dd98f8c]
link Administrator to Employee--><path codeLine="155" d="M497.567,103.99 C708.521,142.81 1086.598,212.38 1217.648,236.49 " fill="none" id="Administrator-Employee" style="stroke:#A80036;stroke-width:1.0;"/><polygon fill="#000000" points="978.7954,184.4713,970.4316,179.944,969.3678,185.7248,978.7954,184.4713" style="stroke:#000000;stroke-width:1.0;"/><text fill="#000000" font-family="sans-serif" font-size="13" lengthAdjust="spacing" textLength="68" x="982.878" y="188.0669">registers a</text><text fill="#000000" font-family="sans-serif" font-size="13" lengthAdjust="spacing" textLength="23" x="505.2293" y="102.0615">1..*</text><text fill="#000000" font-family="sans-serif" font-size="13" lengthAdjust="spacing" textLength="23" x="1186.8905" y="231.2801">1..*</text><!--MD5=[304db59a05c0da2cdffc3c882f2d9e9b]
link Administrator to Company--><path codeLine="156" d="M236.496,145.03 C206.75,171.53 182.878,205.2 182.878,245 C182.878,245 182.878,245 182.878,1206 C182.878,1260.378 182.878,1323.092 182.878,1363.466 " fill="none" id="Administrator-Company" style="stroke:#A80036;stroke-width:1.0;"/><polygon fill="#000000" points="187.6582,737.0616,190.9919,728.1544,185.1197,727.896,187.6582,737.0616" style="stroke:#000000;stroke-width:1.0;"/><text fill="#000000" font-family="sans-serif" font-size="13" lengthAdjust="spacing" textLength="53" x="196.878" y="736.5669">works in</text><text fill="#000000" font-family="sans-serif" font-size="13" lengthAdjust="spacing" textLength="23" x="201.1045" y="164.6549">1..*</text><text fill="#000000" font-family="sans-serif" font-size="13" lengthAdjust="spacing" textLength="8" x="174.2405" y="1352.4566">1</text><!--MD5=[1da12df22706e73e1def33b218b7f412]
link Employee to Receptionist--><path codeLine="157" d="M1217.838,263.99 C1201.398,272.35 1184.378,284.12 1173.878,300 C987.797,581.55 1250.218,764.03 1075.878,1053 C1055.968,1085.996 1025.788,1113.694 994.32,1135.986 " fill="none" id="Employee-Receptionist" style="stroke:#A80036;stroke-width:1.0;"/><polygon fill="#000000" points="1141.1195,727.223,1136.0267,735.2551,1141.7205,736.7146,1141.1195,727.223" style="stroke:#000000;stroke-width:1.0;"/><text fill="#000000" font-family="sans-serif" font-size="13" lengthAdjust="spacing" textLength="22" x="1148.878" y="736.5669">is a</text><text fill="#000000" font-family="sans-serif" font-size="13" lengthAdjust="spacing" textLength="8" x="1201.8629" y="262.7393">1</text><text fill="#000000" font-family="sans-serif" font-size="13" lengthAdjust="spacing" textLength="8" x="1000.3683" y="1124.7115">1</text><!--MD5=[dad08633360fb9f059c0c4df7f2e8d04]
link Employee to SpecialistDoctor--><path codeLine="158" d="M1281.938,270.11 C1297.328,289.8 1320.328,319.22 1341.938,346.87 " fill="none" id="Employee-SpecialistDoctor" style="stroke:#A80036;stroke-width:1.0;"/><polygon fill="#000000" points="1317.7988,304.6271,1321.0536,313.5633,1325.6846,309.9435,1317.7988,304.6271" style="stroke:#000000;stroke-width:1.0;"/><text fill="#000000" font-family="sans-serif" font-size="13" lengthAdjust="spacing" textLength="22" x="1329.878" y="313.0669">is a</text><text fill="#000000" font-family="sans-serif" font-size="13" lengthAdjust="spacing" textLength="8" x="1277.3651" y="289.898">1</text><text fill="#000000" font-family="sans-serif" font-size="13" lengthAdjust="spacing" textLength="8" x="1328.0343" y="336.0467">1</text><!--MD5=[d0b577d991866bb293f65e18071b6be7]
link Employee to ClinicalChemistryTechnologist--><path codeLine="159" d="M1310.018,247.3 C1378.038,250.52 1503.678,267.6 1563.878,347 C1602.418,397.84 1600.408,472.78 1591.848,526.97 " fill="none" id="Employee-ClinicalChemistryTechnologist" style="stroke:#A80036;stroke-width:1.0;"/><polygon fill="#000000" points="1536.3289,305.0445,1540.6792,313.5018,1544.8194,309.3296,1536.3289,305.0445" style="stroke:#000000;stroke-width:1.0;"/><text fill="#000000" font-family="sans-serif" font-size="13" lengthAdjust="spacing" textLength="22" x="1548.878" y="313.0669">is a</text><text fill="#000000" font-family="sans-serif" font-size="13" lengthAdjust="spacing" textLength="8" x="1318.0091" y="243.3894">1</text><text fill="#000000" font-family="sans-serif" font-size="13" lengthAdjust="spacing" textLength="8" x="1585.0824" y="516.1705">1</text><!--MD5=[a0184b63db99e4170c08b50ca520f26e]
link Employee to LaboratoryCoordinator--><path codeLine="160" d="M1309.918,248.14 C1373.128,251.14 1489.238,261.89 1579.878,300 C1664.038,335.39 1745.878,329.7 1745.878,421 C1745.878,421 1745.878,421 1745.878,1407.5 C1745.878,1453.098 1722.508,1497.772 1697.308,1532.686 " fill="none" id="Employee-LaboratoryCoordinator" style="stroke:#A80036;stroke-width:1.0;"/><polygon fill="#000000" points="1749.4343,960.2794,1749.2322,969.7878,1754.8597,968.0906,1749.4343,960.2794" style="stroke:#000000;stroke-width:1.0;"/><text fill="#000000" font-family="sans-serif" font-size="13" lengthAdjust="spacing" textLength="22" x="1759.878" y="969.5669">is a</text><text fill="#000000" font-family="sans-serif" font-size="13" lengthAdjust="spacing" textLength="8" x="1317.8931" y="261.7539">1</text><text fill="#000000" font-family="sans-serif" font-size="13" lengthAdjust="spacing" textLength="8" x="1695.2305" y="1521.8572">1</text><!--MD5=[3960df5b1ea8ecab6ad2804cc08d8583]
link Employee to MedicalLabTechnician--><path codeLine="161" d="M1256.008,270.14 C1249.518,290.22 1240.628,320.19 1235.878,347 C1199.028,555.01 1218.878,610.75 1218.878,822 C1218.878,822 1218.878,822 1218.878,1407.5 C1218.878,1452.554 1214.528,1469.078 1184.878,1503 C1172.538,1517.112 1157.678,1529.47 1141.768,1540.217 " fill="none" id="Employee-MedicalLabTechnician" style="stroke:#A80036;stroke-width:1.0;"/><polygon fill="#000000" points="1224.3259,960.0865,1220.5885,968.8319,1226.4427,969.3585,1224.3259,960.0865" style="stroke:#000000;stroke-width:1.0;"/><text fill="#000000" font-family="sans-serif" font-size="13" lengthAdjust="spacing" textLength="22" x="1232.878" y="969.5669">is a</text><text fill="#000000" font-family="sans-serif" font-size="13" lengthAdjust="spacing" textLength="8" x="1245.1147" y="289.9353">1</text><text fill="#000000" font-family="sans-serif" font-size="13" lengthAdjust="spacing" textLength="8" x="1149.5483" y="1533.7244">1</text><!--MD5=[f0cf61b3d44ca7b4a714aa4fb0975b4b]
link Administrator to Test--><path codeLine="162" d="M322.724,145.28 C312.714,175.33 303.878,211.38 303.878,245 C303.878,245 303.878,245 303.878,966 C303.878,1026.353 290.723,1050.943 325.878,1100 C326.615,1101.028 359.862,1118.872 398.699,1139.496 " fill="none" id="Administrator-Test" style="stroke:#A80036;stroke-width:1.0;"/><polygon fill="#000000" points="309.259,601.0519,311.5002,591.8091,305.6394,592.257,309.259,601.0519" style="stroke:#000000;stroke-width:1.0;"/><text fill="#000000" font-family="sans-serif" font-size="13" lengthAdjust="spacing" textLength="99" x="317.878" y="600.5669">specifies a new</text><text fill="#000000" font-family="sans-serif" font-size="13" lengthAdjust="spacing" textLength="23" x="295.9445" y="164.6888">1..*</text><text fill="#000000" font-family="sans-serif" font-size="13" lengthAdjust="spacing" textLength="23" x="367.9707" y="1132.3335">1..*</text><!--MD5=[7144ffdeebbe38808f7fb2ce8ac24f7d]
link Administrator to ParameterCategory--><path codeLine="163" d="M385.451,145.33 C399.239,172.58 414.182,202.12 424.193,221.9 " fill="none" id="Administrator-ParameterCategory" style="stroke:#A80036;stroke-width:1.0;"/><polygon fill="#000000" points="416.1353,188.0278,414.6741,178.6302,409.4294,181.2839,416.1353,188.0278" style="stroke:#000000;stroke-width:1.0;"/><text fill="#000000" font-family="sans-serif" font-size="13" lengthAdjust="spacing" textLength="99" x="422.878" y="188.0669">specifies a new</text><text fill="#000000" font-family="sans-serif" font-size="13" lengthAdjust="spacing" textLength="23" x="364.6501" y="164.7436">1..*</text><text fill="#000000" font-family="sans-serif" font-size="13" lengthAdjust="spacing" textLength="23" x="395.2518" y="210.8864">1..*</text><!--MD5=[7a9e3e328fb1db48284e23a673c1e60d]
link ParameterCategory to Parameter--><path codeLine="164" d="M435.069,270.25 C431.843,363.01 419.911,706.06 416.686,798.77 " fill="none" id="ParameterCategory-Parameter" style="stroke:#A80036;stroke-width:1.0;"/><polygon fill="#000000" points="438.0518,417.0694,434.8002,426.0069,440.6745,426.2112,438.0518,417.0694" style="stroke:#000000;stroke-width:1.0;"/><text fill="#000000" font-family="sans-serif" font-size="13" lengthAdjust="spacing" textLength="120" x="446.878" y="426.5669">is presented under</text><text fill="#000000" font-family="sans-serif" font-size="13" lengthAdjust="spacing" textLength="8" x="425.8968" y="290.0721">1</text><text fill="#000000" font-family="sans-serif" font-size="13" lengthAdjust="spacing" textLength="7" x="409.0298" y="788.1189">*</text><!--MD5=[4265453a012991a726928e22789b8a83]
link Parameter to Test--><path codeLine="165" d="M411.92,847.11 C405.63,889.206 396.234,980.72 418.878,1053 C427.343,1080.019 442.356,1106.602 458.304,1129.752 " fill="none" id="Parameter-Test" style="stroke:#A80036;stroke-width:1.0;"/><polygon fill="#000000" points="423.0683,960.1324,421.6329,969.534,427.4332,968.5822,423.0683,960.1324" style="stroke:#000000;stroke-width:1.0;"/><text fill="#000000" font-family="sans-serif" font-size="13" lengthAdjust="spacing" textLength="137" x="432.878" y="969.5669">requestes analysis of</text><text fill="#000000" font-family="sans-serif" font-size="13" lengthAdjust="spacing" textLength="23" x="385.1521" y="866.898">1..*</text><text fill="#000000" font-family="sans-serif" font-size="13" lengthAdjust="spacing" textLength="7" x="445.0063" y="1118.9175">*</text><!--MD5=[222831ae1a16f981a1235f8e0c6cb10a]
@startuml
skinparam classAttributeIconSize 0
Class LabOrder{
- Type of Test
- Parameters
}
Class Receptionist{
- Employee ID
- Organization Role
- Name
- Adress
- E-mail
- Phone Number
- {field}Standard Occupational Classification (SOC) Code
}
class Administrator{
- Employee ID
- Organization Role
- Name
- Adress
- E-mail
- Phone Number
- {field}Standard Occupational Classification (SOC) Code
}
Class Client{
- Name
- Sex
- Citizen Card Number
- {field}National Healthcare Service (NHS) Number
- Birth Date
- Sex
- {field}Tax Identification Number (TIN)
- Phone Number
- E-mail
}
Class Test{
- Test Type
- Internal Code
- NHS Code
- Description Of The Collection Method
- Date and Time Collected
- Date and Time of Chemical Analysis
- Date and Time of Validation of the Test
- Date and Time of the Diagnosis
}
Class MedicalLabTechnician{
- Employee ID
- Organization Role
- Name
- Adress
- E-mail
- Phone Number
- {field}Standard Occupational Classification (SOC) Code
}
Class Laboratories{
}
Class Company{
- Company Name
- Company Logo
- Phone Number
}
Class ChemicalLaboratory{
- Name
- Address
- Phone Number
- TIN number
}
Class Results{
}
Class ClinicalChemistryTechnologist{
- Employee ID
- Organization Role
- Name
- Adress
- E-mail
- Phone Number
- {field}Standard Occupational Classification (SOC) Code
}
Class SpecialistDoctor{
- Employee ID
- Organization Role
- Name
- Adress
- E-mail
- Phone Number
- {field}Standard Occupational Classification (SOC) Code
- Doctor Index Number
}
Class LaboratoryCoordinator{
- Employee ID
- Organization Role
- Name
- Adress
- E-mail
- Phone Number
- {field}Standard Occupational Classification (SOC) Code
}
Class BloodTest{
- Red Blood Cells (RBC)
- White Blood Cells (WBC)
- Platelets (PLT)
- Blood Count (Hemogram)
}
Class CovidTest{
- Posite/Negative
}
Class Sample{
- Client/Test
- Barcode
}
Class ClinicalAnalysisLaboratory{
- Laboratory ID 
- Name
- Address 
- Phone Number 
- TIN number
}
Class Diagnosis{
- Report
}
class ParameterCategory{

}
Receptionist - -u "*" Client : registers >
Test - -u Client : requested by >
MedicalLabTechnician - -u Sample : collect >
Laboratories - -r Test : made by <
Test - -d Sample : used for <
ChemicalAnalysis - - Results : generates >
ClinicalChemistryTechnologist - - ChemicalAnalysis : performs >
Company - -u "*" Laboratories : owns >
SpecialistDoctor - - ChemicalAnalysis : analysed by <
SpecialistDoctor"1" - - "1"Diagnosis : makes a >
Diagnosis"1" - - "1"Client : will be delivered to >
LaboratoryCoordinator - - Results : validates >
Company - - DailyReports : generates >
MedicalLabTechnician - - Results : checks >
Client - - Results : checks >
LaboratoryCoordinator - - Results : checks >
SpecialistDoctor - - Results : checks >
Test - - BloodTest : is a type of <
Test - - CovidTest : is a type of <
Sample - - ChemicalLaboratory : is sent >
ChemicalAnalysis - - ChemicalLaboratory : are performed in >
ChemicalLaboratory "1" - - Laboratories: is part of >
LabOrder"1" - - "1"Client: belongs to >
LabOrder"1" - - "1"Test: contains >
ClinicalAnalysisLaboratory "*" - - Laboratories: is part of >
Receptionist "*" - - "*" ClinicalAnalysisLaboratory : works in >
MedicalLabTechnician "*" - - "*" ClinicalAnalysisLaboratory : works in >
Sample "1" - - "1" ChemicalAnalysis : used for >
Diagnosis"1" - - "1"Test : of >
Test "1..*" - - "1..*" ClinicalAnalysisLaboratory: are made by >
Client "1..*" - - "1" Company: registered in
Administrator "1..*" - - "1..*" Employee: registers a >
Administrator "1..*" - - "1" Company: works in >
Employee "1" - -d "1" Receptionist: is a <
Employee "1" - -d "1" SpecialistDoctor: is a <
Employee "1" - -d "1" ClinicalChemistryTechnologist: is a <
Employee "1" - -d "1" LaboratoryCoordinator: is a <
Employee "1" - -d "1" MedicalLabTechnician: is a <
Administrator "1..*" - - "1..*" Test: specifies a new >
Administrator "1..*" - - "1..*" ParameterCategory: specifies a new >
ParameterCategory "1" - - "*" Parameter: is presented under <
Parameter "1..*" - - "*" Test: requestes analysis of <
@enduml

PlantUML version 1.2021.5(Sun Apr 25 11:20:28 UTC 2021)
(GPL source distribution)
Java Runtime: Java(TM) SE Runtime Environment
JVM: Java HotSpot(TM) 64-Bit Server VM
Default Encoding: UTF-8
Language: en
Country: US
--></g></svg>