<svg xmlns="http://www.w3.org/2000/svg" xmlns:xlink="http://www.w3.org/1999/xlink" xmlns:lucid="lucid" width="710.07" height="3460"><g transform="translate(-89.92592592592592 20)" lucid:page-tab-id="0_0"><path d="M239.75 119.75c0 10.9-8.84 19.75-19.75 19.75-10.9 0-19.75-8.84-19.75-19.75 0-10.9 8.84-19.75 19.75-19.75 10.9 0 19.75 8.84 19.75 19.75z" stroke="#5e5e5e" stroke-width="3" fill="#fff"/><path d="M220 139.5v49.3c0 3.3 1.44 8.27 3.2 11.07L260 258m-40-63.2L180 258m0-98.75h80" stroke="#5e5e5e" stroke-width="3" fill="none"/><path d="M180 106c0-3.3 2.7-6 6-6h68c3.3 0 6 2.7 6 6v168c0 3.3-2.7 6-6 6h-68c-3.3 0-6-2.7-6-6z" fill="none"/><use xlink:href="#a" transform="matrix(1,0,0,1,100,258) translate(56.51234567901234 17.77777777777778)"/><path d="M300 159V86c0-3.3 2.7-6 6-6h134M300 158.97V160" stroke="#5e5e5e" stroke-width="2" fill="none"/><path d="M455.26 80L441 84.64v-9.28z" stroke="#5e5e5e" stroke-width="2" fill="#5e5e5e"/><path d="M780 80c0 44.18-71.63 80-160 80s-160-35.82-160-80S531.63 0 620 0s160 35.82 160 80z" stroke="#5e5e5e" stroke-width="3" fill="#fff"/><use xlink:href="#b" transform="matrix(1,0,0,1,465,5) translate(20.09259259259258 78.71527777777777)"/><use xlink:href="#c" transform="matrix(1,0,0,1,465,5) translate(58.240740740740726 78.71527777777777)"/><use xlink:href="#d" transform="matrix(1,0,0,1,465,5) translate(84.10493827160492 78.71527777777777)"/><use xlink:href="#e" transform="matrix(1,0,0,1,465,5) translate(172.80864197530863 78.71527777777777)"/><use xlink:href="#f" transform="matrix(1,0,0,1,465,5) translate(191.32716049382717 78.71527777777777)"/><use xlink:href="#g" transform="matrix(1,0,0,1,465,5) translate(238.179012345679 78.71527777777777)"/><path d="M780 260c0 44.18-71.63 80-160 80s-160-35.82-160-80 71.63-80 160-80 160 35.82 160 80z" stroke="#5e5e5e" stroke-width="3" fill="#fff"/><use xlink:href="#h" transform="matrix(1,0,0,1,465,185) translate(20.622283950617266 59.96527777777778)"/><use xlink:href="#i" transform="matrix(1,0,0,1,465,185) translate(58.77043209876541 59.96527777777778)"/><use xlink:href="#j" transform="matrix(1,0,0,1,465,185) translate(77.28895061728393 59.96527777777778)"/><use xlink:href="#k" transform="matrix(1,0,0,1,465,185) translate(90.80746913580245 59.96527777777778)"/><use xlink:href="#l" transform="matrix(1,0,0,1,465,185) translate(179.51117283950617 59.96527777777778)"/><use xlink:href="#m" transform="matrix(1,0,0,1,465,185) translate(198.0296913580247 59.96527777777778)"/><use xlink:href="#n" transform="matrix(1,0,0,1,465,185) translate(240.00500000000002 59.96527777777778)"/><use xlink:href="#o" transform="matrix(1,0,0,1,465,185) translate(264.6963580246914 59.96527777777778)"/><use xlink:href="#p" transform="matrix(1,0,0,1,465,185) translate(1.5432098765431874 86.63194444444446)"/><use xlink:href="#n" transform="matrix(1,0,0,1,465,185) translate(108.76543209876542 86.63194444444446)"/><use xlink:href="#l" transform="matrix(1,0,0,1,465,185) translate(133.45679012345678 86.63194444444446)"/><use xlink:href="#q" transform="matrix(1,0,0,1,465,185) translate(151.9753086419753 86.63194444444446)"/><use xlink:href="#r" transform="matrix(1,0,0,1,465,185) translate(256.7283950617284 86.63194444444446)"/><path d="M300 161v91.53c0 3.3 2.7 6 6 6h134.03M300 161.03V160" stroke="#5e5e5e" stroke-width="2" fill="none"/><path d="M455.3 258.53l-14.27 4.64v-9.27z" stroke="#5e5e5e" stroke-width="2" fill="#5e5e5e"/><path d="M239.75 479.75c0 10.9-8.84 19.75-19.75 19.75-10.9 0-19.75-8.84-19.75-19.75 0-10.9 8.84-19.75 19.75-19.75 10.9 0 19.75 8.84 19.75 19.75z" stroke="#5e5e5e" stroke-width="3" fill="#fff"/><path d="M220 499.5v49.3c0 3.3 1.44 8.27 3.2 11.07L260 618m-40-63.2L180 618m0-98.75h80" stroke="#5e5e5e" stroke-width="3" fill="none"/><path d="M180 466c0-3.3 2.7-6 6-6h68c3.3 0 6 2.7 6 6v168c0 3.3-2.7 6-6 6h-68c-3.3 0-6-2.7-6-6z" fill="none"/><use xlink:href="#s" transform="matrix(1,0,0,1,100,618) translate(10.925925925925924 17.77777777777778)"/><use xlink:href="#t" transform="matrix(1,0,0,1,100,618) translate(93.45679012345678 17.77777777777778)"/><use xlink:href="#u" transform="matrix(1,0,0,1,100,618) translate(129.19753086419752 17.77777777777778)"/><path d="M780 520c0 44.18-71.63 80-160 80s-160-35.82-160-80 71.63-80 160-80 160 35.82 160 80z" stroke="#5e5e5e" stroke-width="3" fill="#fff"/><use xlink:href="#b" transform="matrix(1,0,0,1,465,445) translate(24.356851851851854 50.59027777777778)"/><use xlink:href="#v" transform="matrix(1,0,0,1,465,445) translate(62.504999999999995 50.59027777777778)"/><use xlink:href="#w" transform="matrix(1,0,0,1,465,445) translate(88.3691975308642 50.59027777777778)"/><use xlink:href="#x" transform="matrix(1,0,0,1,465,445) translate(166.02351851851853 50.59027777777778)"/><use xlink:href="#y" transform="matrix(1,0,0,1,465,445) translate(203.06055555555557 50.59027777777778)"/><use xlink:href="#z" transform="matrix(1,0,0,1,465,445) translate(26.697530864197518 77.25694444444446)"/><use xlink:href="#A" transform="matrix(1,0,0,1,465,445) translate(120.40123456790123 77.25694444444446)"/><use xlink:href="#x" transform="matrix(1,0,0,1,465,445) translate(143.7962962962963 77.25694444444446)"/><use xlink:href="#B" transform="matrix(1,0,0,1,465,445) translate(180.83333333333331 77.25694444444446)"/><use xlink:href="#C" transform="matrix(1,0,0,1,465,445) translate(246.26543209876542 77.25694444444446)"/><use xlink:href="#D" transform="matrix(1,0,0,1,465,445) translate(270.9567901234568 77.25694444444446)"/><use xlink:href="#E" transform="matrix(1,0,0,1,465,445) translate(107.50500000000001 103.92361111111111)"/><use xlink:href="#F" transform="matrix(1,0,0,1,465,445) translate(166.70253086419754 103.92361111111111)"/><path d="M302.02 518.53h138M302.04 518.53h-1.02" stroke="#5e5e5e" stroke-width="2" fill="none"/><path d="M455.3 518.53l-14.27 4.64v-9.27z" stroke="#5e5e5e" stroke-width="2" fill="#5e5e5e"/><path d="M239.75 1039.75c0 10.9-8.84 19.75-19.75 19.75-10.9 0-19.75-8.84-19.75-19.75 0-10.9 8.84-19.75 19.75-19.75 10.9 0 19.75 8.84 19.75 19.75z" stroke="#5e5e5e" stroke-width="3" fill="#fff"/><path d="M220 1059.5v49.3c0 3.3 1.44 8.27 3.2 11.07L260 1178m-40-63.2l-40 63.2m0-98.75h80" stroke="#5e5e5e" stroke-width="3" fill="none"/><path d="M180 1026c0-3.3 2.7-6 6-6h68c3.3 0 6 2.7 6 6v168c0 3.3-2.7 6-6 6h-68c-3.3 0-6-2.7-6-6z" fill="none"/><use xlink:href="#G" transform="matrix(1,0,0,1,100,1178) translate(31.388888888888886 17.777777777777775)"/><use xlink:href="#H" transform="matrix(1,0,0,1,100,1178) translate(108.85802469135801 17.777777777777775)"/><use xlink:href="#I" transform="matrix(1,0,0,1,100,1178) translate(58.36419753086421 44.44444444444444)"/><path d="M300 521v173c0 3.3 2.7 6 6 6h134M300 521.03V520" stroke="#5e5e5e" stroke-width="2" fill="none"/><path d="M455.26 700L441 704.64v-9.28z" stroke="#5e5e5e" stroke-width="2" fill="#5e5e5e"/><path d="M780 700c0 44.18-71.63 80-160 80s-160-35.82-160-80 71.63-80 160-80 160 35.82 160 80z" stroke="#5e5e5e" stroke-width="3" fill="#fff"/><use xlink:href="#J" transform="matrix(1,0,0,1,465,625) translate(7.072901234567931 64.65277777777777)"/><use xlink:href="#K" transform="matrix(1,0,0,1,465,625) translate(45.22104938271607 64.65277777777777)"/><use xlink:href="#L" transform="matrix(1,0,0,1,465,625) translate(71.08524691358026 64.65277777777777)"/><use xlink:href="#M" transform="matrix(1,0,0,1,465,625) translate(140.15932098765433 64.65277777777777)"/><use xlink:href="#N" transform="matrix(1,0,0,1,465,625) translate(177.19635802469136 64.65277777777777)"/><use xlink:href="#O" transform="matrix(1,0,0,1,465,625) translate(248.67783950617283 64.65277777777777)"/><use xlink:href="#P" transform="matrix(1,0,0,1,465,625) translate(272.0729012345679 64.65277777777777)"/><use xlink:href="#Q" transform="matrix(1,0,0,1,465,625) translate(65.65314814814816 91.31944444444443)"/><use xlink:href="#R" transform="matrix(1,0,0,1,465,625) translate(138.3691975308642 91.31944444444443)"/><path d="M261 1077.75h33c3.3 0 6-2.7 6-6V1026c0-3.3 2.7-6 6-6h134" stroke="#5e5e5e" stroke-width="2" fill="none"/><path d="M261.03 1078.75H260v-1h-3v-1h4.03z" fill="#5e5e5e"/><path d="M455.26 1020l-14.26 4.64v-9.28z" stroke="#5e5e5e" stroke-width="2" fill="#5e5e5e"/><path d="M780 1020c0 44.18-71.63 80-160 80s-160-35.82-160-80 71.63-80 160-80 160 35.82 160 80z" stroke="#5e5e5e" stroke-width="3" fill="#fff"/><use xlink:href="#b" transform="matrix(1,0,0,1,465,945) translate(5.221049382716055 64.65277777777777)"/><use xlink:href="#S" transform="matrix(1,0,0,1,465,945) translate(43.3691975308642 64.65277777777777)"/><use xlink:href="#w" transform="matrix(1,0,0,1,465,945) translate(81.57907407407407 64.65277777777777)"/><use xlink:href="#x" transform="matrix(1,0,0,1,465,945) translate(159.2333950617284 64.65277777777777)"/><use xlink:href="#T" transform="matrix(1,0,0,1,465,945) translate(196.27043209876544 64.65277777777777)"/><use xlink:href="#C" transform="matrix(1,0,0,1,465,945) translate(267.75191358024693 64.65277777777777)"/><use xlink:href="#D" transform="matrix(1,0,0,1,465,945) translate(292.4432716049383 64.65277777777777)"/><use xlink:href="#E" transform="matrix(1,0,0,1,465,945) translate(104.41858024691358 91.31944444444446)"/><use xlink:href="#U" transform="matrix(1,0,0,1,465,945) translate(163.6161111111111 91.31944444444446)"/><path d="M300 1047.36v-92.1c0-3.3 2.7-6 6-6h142.73c3.3 0 6-2.68 6-6V718.5M300 1047.33v1.03" stroke="#5e5e5e" stroke-width="2" fill="none"/><path d="M454.73 703.24l4.63 14.26h-9.27z" stroke="#5e5e5e" stroke-width="2" fill="#5e5e5e"/><path d="M239.75 1759.75c0 10.9-8.84 19.75-19.75 19.75-10.9 0-19.75-8.84-19.75-19.75 0-10.9 8.84-19.75 19.75-19.75 10.9 0 19.75 8.84 19.75 19.75z" stroke="#5e5e5e" stroke-width="3" fill="#fff"/><path d="M220 1779.5v49.3c0 3.3 1.44 8.27 3.2 11.07L260 1898m-40-63.2l-40 63.2m0-98.75h80" stroke="#5e5e5e" stroke-width="3" fill="none"/><path d="M180 1746c0-3.3 2.7-6 6-6h68c3.3 0 6 2.7 6 6v168c0 3.3-2.7 6-6 6h-68c-3.3 0-6-2.7-6-6z" fill="none"/><use xlink:href="#V" transform="matrix(1,0,0,1,100,1898) translate(66.97530864197532 17.777777777777775)"/><use xlink:href="#W" transform="matrix(1,0,0,1,100,1898) translate(59.01234567901236 44.44444444444444)"/><use xlink:href="#X" transform="matrix(1,0,0,1,100,1898) translate(65.1851851851852 44.44444444444444)"/><path d="M222.53 1828.88h71.9c3.08 0 5.57 2.5 5.57 5.56 0 3.07 2.5 5.56 5.56 5.56H440M222.56 1828.88h-4.03" stroke="#5e5e5e" stroke-width="2" fill="none"/><path d="M455.26 1840l-14.26 4.64v-9.28z" stroke="#5e5e5e" stroke-width="2" fill="#5e5e5e"/><path d="M780 1840c0 44.18-71.63 80-160 80s-160-35.82-160-80 71.63-80 160-80 160 35.82 160 80z" stroke="#5e5e5e" stroke-width="3" fill="#fff"/><use xlink:href="#b" transform="matrix(1,0,0,1,465,1765) translate(55.27060088734569 44.05381944444444)"/><use xlink:href="#Y" transform="matrix(1,0,0,1,465,1765) translate(93.41874903549383 44.05381944444444)"/><use xlink:href="#Z" transform="matrix(1,0,0,1,465,1765) translate(124.28294656635804 44.05381944444444)"/><use xlink:href="#aa" transform="matrix(1,0,0,1,465,1765) translate(137.80146508487655 44.05381944444444)"/><use xlink:href="#ab" transform="matrix(1,0,0,1,465,1765) translate(223.4676977237654 44.05381944444444)"/><use xlink:href="#ac" transform="matrix(1,0,0,1,465,1765) translate(33.64540798611112 73.55902777777777)"/><use xlink:href="#ad" transform="matrix(1,0,0,1,465,1765) translate(87.3020920138889 73.55902777777777)"/><use xlink:href="#ae" transform="matrix(1,0,0,1,465,1765) translate(142.0438454861111 73.55902777777777)"/><use xlink:href="#af" transform="matrix(1,0,0,1,465,1765) translate(170.40756076388888 73.55902777777777)"/><use xlink:href="#ag" transform="matrix(1,0,0,1,465,1765) translate(207.1805642361111 73.55902777777777)"/><use xlink:href="#ah" transform="matrix(1,0,0,1,465,1765) translate(21.09115451388889 99.60069444444444)"/><use xlink:href="#ai" transform="matrix(1,0,0,1,465,1765) translate(124.05339409722222 99.60069444444444)"/><use xlink:href="#aj" transform="matrix(1,0,0,1,465,1765) translate(252.03733506944442 99.60069444444444)"/><use xlink:href="#ak" transform="matrix(1,0,0,1,465,1765) translate(70.80361111111111 125.6423611111111)"/><use xlink:href="#al" transform="matrix(1,0,0,1,465,1765) translate(170.61914930555554 125.6423611111111)"/><path d="M224.3 1836.26h113.15c1.9 0 3.45 1.54 3.45 3.45 0 1.9 1.54 3.45 3.45 3.45H452.5c3.3 0 6-2.68 6-6V718.5M224.33 1836.26h-4.03" stroke="#5e5e5e" stroke-width="2" fill="none"/><path d="M458.5 703.24l4.64 14.26h-9.28z" stroke="#5e5e5e" stroke-width="2" fill="#5e5e5e"/><path d="M239.75 1399.75c0 10.9-8.84 19.75-19.75 19.75-10.9 0-19.75-8.84-19.75-19.75 0-10.9 8.84-19.75 19.75-19.75 10.9 0 19.75 8.84 19.75 19.75z" stroke="#5e5e5e" stroke-width="3" fill="#fff"/><path d="M220 1419.5v49.3c0 3.3 1.44 8.27 3.2 11.07L260 1538m-40-63.2l-40 63.2m0-98.75h80" stroke="#5e5e5e" stroke-width="3" fill="none"/><path d="M180 1386c0-3.3 2.7-6 6-6h68c3.3 0 6 2.7 6 6v168c0 3.3-2.7 6-6 6h-68c-3.3 0-6-2.7-6-6z" fill="none"/><g><use xlink:href="#am" transform="matrix(1,0,0,1,100,1538) translate(36.820987654321 17.777777777777775)"/><use xlink:href="#an" transform="matrix(1,0,0,1,100,1538) translate(137.87037037037038 17.777777777777775)"/></g><path d="M261 1437.75h33c3.3 0 6-2.7 6-6V1386c0-3.3 2.7-6 6-6h134" stroke="#5e5e5e" stroke-width="2" fill="none"/><path d="M261.03 1438.75H260v-1h-3v-1h4.03z" fill="#5e5e5e"/><path d="M455.26 1380l-14.26 4.64v-9.28z" stroke="#5e5e5e" stroke-width="2" fill="#5e5e5e"/><path d="M780 1380c0 44.18-71.63 80-160 80s-160-35.82-160-80 71.63-80 160-80 160 35.82 160 80z" stroke="#5e5e5e" stroke-width="3" fill="#fff"/><g><use xlink:href="#b" transform="matrix(1,0,0,1,465,1305) translate(21.23956790123456 50.59027777777778)"/><use xlink:href="#ao" transform="matrix(1,0,0,1,465,1305) translate(59.3877160493827 50.59027777777778)"/><use xlink:href="#ap" transform="matrix(1,0,0,1,465,1305) translate(97.59759259259258 50.59027777777778)"/><use xlink:href="#x" transform="matrix(1,0,0,1,465,1305) translate(158.02969135802468 50.59027777777778)"/><use xlink:href="#aq" transform="matrix(1,0,0,1,465,1305) translate(195.06672839506172 50.59027777777778)"/><use xlink:href="#ar" transform="matrix(1,0,0,1,465,1305) translate(13.858024691358025 77.25694444444446)"/><use xlink:href="#as" transform="matrix(1,0,0,1,465,1305) translate(57.067901234567906 77.25694444444446)"/><use xlink:href="#e" transform="matrix(1,0,0,1,465,1305) translate(109.96913580246914 77.25694444444446)"/><use xlink:href="#at" transform="matrix(1,0,0,1,465,1305) translate(128.48765432098764 77.25694444444446)"/><use xlink:href="#au" transform="matrix(1,0,0,1,465,1305) translate(192.56172839506172 77.25694444444446)"/><use xlink:href="#e" transform="matrix(1,0,0,1,465,1305) translate(224.59876543209876 77.25694444444446)"/><use xlink:href="#av" transform="matrix(1,0,0,1,465,1305) translate(243.11728395061726 77.25694444444446)"/><use xlink:href="#U" transform="matrix(1,0,0,1,465,1305) translate(134.01734567901235 103.92361111111111)"/></g><path d="M303.15 1379V956c0-3.3 2.7-6 6-6H452.5c3.3 0 6-2.7 6-6V718.5M303.15 1378.97v1.03" stroke="#5e5e5e" stroke-width="2" fill="none"/><path d="M458.5 703.24l4.64 14.26h-9.28z" stroke="#5e5e5e" stroke-width="2" fill="#5e5e5e"/><path d="M239.75 2059.75c0 10.9-8.84 19.75-19.75 19.75-10.9 0-19.75-8.84-19.75-19.75 0-10.9 8.84-19.75 19.75-19.75 10.9 0 19.75 8.84 19.75 19.75z" stroke="#5e5e5e" stroke-width="3" fill="#fff"/><path d="M220 2079.5v49.3c0 3.3 1.44 8.27 3.2 11.07L260 2198m-40-63.2l-40 63.2m0-98.75h80" stroke="#5e5e5e" stroke-width="3" fill="none"/><path d="M180 2046c0-3.3 2.7-6 6-6h68c3.3 0 6 2.7 6 6v168c0 3.3-2.7 6-6 6h-68c-3.3 0-6-2.7-6-6z" fill="none"/><g><use xlink:href="#aw" transform="matrix(1,0,0,1,100,2198) translate(91.69753086419753 17.777777777777775)"/></g><path d="M239.75 2339.75c0 10.9-8.84 19.75-19.75 19.75-10.9 0-19.75-8.84-19.75-19.75 0-10.9 8.84-19.75 19.75-19.75 10.9 0 19.75 8.84 19.75 19.75z" stroke="#5e5e5e" stroke-width="3" fill="#fff"/><path d="M220 2359.5v49.3c0 3.3 1.44 8.27 3.2 11.07L260 2478m-40-63.2l-40 63.2m0-98.75h80" stroke="#5e5e5e" stroke-width="3" fill="none"/><path d="M180 2326c0-3.3 2.7-6 6-6h68c3.3 0 6 2.7 6 6v168c0 3.3-2.7 6-6 6h-68c-3.3 0-6-2.7-6-6z" fill="none"/><g><use xlink:href="#ax" transform="matrix(1,0,0,1,100,2478) translate(72.53086419753087 17.777777777777775)"/></g><path d="M301 2100h151.5c3.3 0 6-2.7 6-6V718.5M301.03 2100H300" stroke="#5e5e5e" stroke-width="2" fill="none"/><path d="M458.5 703.24l4.64 14.26h-9.28z" stroke="#5e5e5e" stroke-width="2" fill="#5e5e5e"/><path d="M301 2400h139M301.03 2400H300" stroke="#5e5e5e" stroke-width="2" fill="none"/><path d="M455.26 2400l-14.26 4.64v-9.28z" stroke="#5e5e5e" stroke-width="2" fill="#5e5e5e"/><path d="M780 2400c0 44.18-71.63 80-160 80s-160-35.82-160-80 71.63-80 160-80 160 35.82 160 80z" stroke="#5e5e5e" stroke-width="3" fill="#fff"/><g><use xlink:href="#J" transform="matrix(1,0,0,1,465,2325) translate(44.696358024691385 64.65277777777777)"/><use xlink:href="#ay" transform="matrix(1,0,0,1,465,2325) translate(82.84450617283952 64.65277777777777)"/><use xlink:href="#az" transform="matrix(1,0,0,1,465,2325) translate(121.0543827160494 64.65277777777777)"/><use xlink:href="#aA" transform="matrix(1,0,0,1,465,2325) translate(219.75808641975306 64.65277777777777)"/><use xlink:href="#aB" transform="matrix(1,0,0,1,465,2325) translate(69.325987654321 91.31944444444443)"/><use xlink:href="#aC" transform="matrix(1,0,0,1,465,2325) translate(171.67166666666665 91.31944444444443)"/></g><path d="M239.75 2759.75c0 10.9-8.84 19.75-19.75 19.75-10.9 0-19.75-8.84-19.75-19.75 0-10.9 8.84-19.75 19.75-19.75 10.9 0 19.75 8.84 19.75 19.75z" stroke="#5e5e5e" stroke-width="3" fill="#fff"/><path d="M220 2779.5v49.3c0 3.3 1.44 8.27 3.2 11.07L260 2898m-40-63.2l-40 63.2m0-98.75h80" stroke="#5e5e5e" stroke-width="3" fill="none"/><path d="M180 2746c0-3.3 2.7-6 6-6h68c3.3 0 6 2.7 6 6v168c0 3.3-2.7 6-6 6h-68c-3.3 0-6-2.7-6-6z" fill="none"/><g><use xlink:href="#aD" transform="matrix(1,0,0,1,100,2898) translate(54.72222222222224 17.777777777777775)"/></g><path d="M780 2800c0 44.18-71.63 80-160 80s-160-35.82-160-80 71.63-80 160-80 160 35.82 160 80z" stroke="#5e5e5e" stroke-width="3" fill="#fff"/><g><use xlink:href="#J" transform="matrix(1,0,0,1,465,2725) translate(45.96179012345682 50.59027777777777)"/><use xlink:href="#aE" transform="matrix(1,0,0,1,465,2725) translate(84.10993827160496 50.59027777777777)"/><use xlink:href="#aF" transform="matrix(1,0,0,1,465,2725) translate(102.62845679012348 50.59027777777777)"/><use xlink:href="#aG" transform="matrix(1,0,0,1,465,2725) translate(116.146975308642 50.59027777777777)"/><use xlink:href="#aH" transform="matrix(1,0,0,1,465,2725) translate(204.85067901234567 50.59027777777777)"/><use xlink:href="#aI" transform="matrix(1,0,0,1,465,2725) translate(223.36919753086417 50.59027777777777)"/><use xlink:href="#aJ" transform="matrix(1,0,0,1,465,2725) translate(4.660493827160536 77.25694444444444)"/><use xlink:href="#aK" transform="matrix(1,0,0,1,465,2725) translate(77.25308641975312 77.25694444444444)"/><use xlink:href="#aL" transform="matrix(1,0,0,1,465,2725) translate(163.5493827160494 77.25694444444444)"/><use xlink:href="#aM" transform="matrix(1,0,0,1,465,2725) translate(268.3024691358024 77.25694444444444)"/><use xlink:href="#aN" transform="matrix(1,0,0,1,465,2725) translate(79.7580864197531 103.9236111111111)"/><use xlink:href="#aO" transform="matrix(1,0,0,1,465,2725) translate(134.07907407407407 103.9236111111111)"/><use xlink:href="#aP" transform="matrix(1,0,0,1,465,2725) translate(183.33833333333334 103.9236111111111)"/></g><path d="M780 2980c0 44.18-71.63 80-160 80s-160-35.82-160-80 71.63-80 160-80 160 35.82 160 80z" stroke="#5e5e5e" stroke-width="3" fill="#fff"/><g><use xlink:href="#J" transform="matrix(1,0,0,1,465,2905) translate(23.677839506172838 64.65277777777777)"/><use xlink:href="#aQ" transform="matrix(1,0,0,1,465,2905) translate(61.825987654320976 64.65277777777777)"/><use xlink:href="#aF" transform="matrix(1,0,0,1,465,2905) translate(80.34450617283949 64.65277777777777)"/><use xlink:href="#aR" transform="matrix(1,0,0,1,465,2905) translate(93.863024691358 64.65277777777777)"/><use xlink:href="#aS" transform="matrix(1,0,0,1,465,2905) translate(172.81364197530863 64.65277777777777)"/><use xlink:href="#aT" transform="matrix(1,0,0,1,465,2905) translate(219.66549382716047 64.65277777777777)"/><use xlink:href="#aU" transform="matrix(1,0,0,1,465,2905) translate(267.81364197530866 64.65277777777777)"/><use xlink:href="#aV" transform="matrix(1,0,0,1,465,2905) translate(20.560555555555574 91.31944444444443)"/><use xlink:href="#aW" transform="matrix(1,0,0,1,465,2905) translate(62.53586419753088 91.31944444444443)"/><use xlink:href="#aX" transform="matrix(1,0,0,1,465,2905) translate(105.74574074074076 91.31944444444443)"/><use xlink:href="#aY" transform="matrix(1,0,0,1,465,2905) translate(204.32598765432098 91.31944444444443)"/></g><path d="M780 3160c0 44.18-71.63 80-160 80s-160-35.82-160-80 71.63-80 160-80 160 35.82 160 80z" stroke="#5e5e5e" stroke-width="3" fill="#fff"/><g><use xlink:href="#J" transform="matrix(1,0,0,1,465,3085) translate(53.92475308641976 64.65277777777777)"/><use xlink:href="#aZ" transform="matrix(1,0,0,1,465,3085) translate(92.0729012345679 64.65277777777777)"/><use xlink:href="#aF" transform="matrix(1,0,0,1,465,3085) translate(122.9370987654321 64.65277777777777)"/><use xlink:href="#aR" transform="matrix(1,0,0,1,465,3085) translate(136.45561728395063 64.65277777777777)"/><use xlink:href="#aI" transform="matrix(1,0,0,1,465,3085) translate(215.4062345679012 64.65277777777777)"/><use xlink:href="#ba" transform="matrix(1,0,0,1,465,3085) translate(20.00500000000003 91.31944444444443)"/><use xlink:href="#aW" transform="matrix(1,0,0,1,465,3085) translate(127.22722222222222 91.31944444444443)"/><use xlink:href="#bb" transform="matrix(1,0,0,1,465,3085) translate(170.4370987654321 91.31944444444443)"/><use xlink:href="#bc" transform="matrix(1,0,0,1,465,3085) translate(278.9556172839506 91.31944444444443)"/></g><path d="M780 2600c0 44.18-71.63 80-160 80s-160-35.82-160-80 71.63-80 160-80 160 35.82 160 80z" stroke="#5e5e5e" stroke-width="3" fill="#fff"/><g><use xlink:href="#J" transform="matrix(1,0,0,1,465,2525) translate(7.129629629629676 78.71527777777777)"/><use xlink:href="#bd" transform="matrix(1,0,0,1,465,2525) translate(45.277777777777814 78.71527777777777)"/><use xlink:href="#aG" transform="matrix(1,0,0,1,465,2525) translate(71.141975308642 78.71527777777777)"/><use xlink:href="#aS" transform="matrix(1,0,0,1,465,2525) translate(159.84567901234567 78.71527777777777)"/><use xlink:href="#be" transform="matrix(1,0,0,1,465,2525) translate(206.69753086419752 78.71527777777777)"/></g><path d="M780 3340c0 44.18-71.63 80-160 80s-160-35.82-160-80 71.63-80 160-80 160 35.82 160 80z" stroke="#5e5e5e" stroke-width="3" fill="#fff"/><g><use xlink:href="#J" transform="matrix(1,0,0,1,465,3265) translate(54.758086419753106 64.65277777777777)"/><use xlink:href="#bf" transform="matrix(1,0,0,1,465,3265) translate(92.90623456790124 64.65277777777777)"/><use xlink:href="#aF" transform="matrix(1,0,0,1,465,3265) translate(122.10376543209877 64.65277777777777)"/><use xlink:href="#aR" transform="matrix(1,0,0,1,465,3265) translate(135.6222839506173 64.65277777777777)"/><use xlink:href="#aI" transform="matrix(1,0,0,1,465,3265) translate(214.5729012345679 64.65277777777777)"/><use xlink:href="#ba" transform="matrix(1,0,0,1,465,3265) translate(58.83216049382717 91.31944444444443)"/><use xlink:href="#bg" transform="matrix(1,0,0,1,465,3265) translate(166.05438271604936 91.31944444444443)"/></g><path d="M222.7 2830h111.4c3.3 0 6-2.7 6-6v-218c0-3.3 2.7-6 6-6H440M222.73 2830h-4.03" stroke="#5e5e5e" stroke-width="2" fill="none"/><path d="M455.26 2600l-14.26 4.64v-9.28z" stroke="#5e5e5e" stroke-width="2" fill="#5e5e5e"/><path d="M222.7 2830h111.4c3.3 0 6-2.7 6-6v-18c0-3.3 2.7-6 6-6H440M222.73 2830h-4.03" stroke="#5e5e5e" stroke-width="2" fill="none"/><path d="M455.26 2800l-14.26 4.64v-9.28z" stroke="#5e5e5e" stroke-width="2" fill="#5e5e5e"/><path d="M261 2830h73c3.3 0 6 2.7 6 6v138c0 3.3 2.7 6 6 6h94" stroke="#5e5e5e" stroke-width="2" fill="none"/><path d="M261.03 2831H257v-2h4.03z" fill="#5e5e5e"/><path d="M455.26 2980l-14.26 4.64v-9.28z" stroke="#5e5e5e" stroke-width="2" fill="#5e5e5e"/><path d="M222.7 2830h111.4c3.3 0 6 2.7 6 6v328c0 3.3 2.7 6 6 6h67.4c2.76 0 5-2.24 5-5s2.24-5 5-5H440M222.73 2830h-1.03" stroke="#5e5e5e" stroke-width="2" fill="none"/><path d="M455.26 3160l-14.26 4.64v-9.28z" stroke="#5e5e5e" stroke-width="2" fill="#5e5e5e"/><path d="M339.07 2831v503c0 3.3 2.7 6 6 6H440M339.07 2831.03V2830" stroke="#5e5e5e" stroke-width="2" fill="none"/><path d="M455.26 3340l-14.26 4.64v-9.28z" stroke="#5e5e5e" stroke-width="2" fill="#5e5e5e"/><path d="M458.5 3160" stroke="#5e5e5e" stroke-width="2" fill="none"/><path fill="#5e5e5e"/><path d="M455.26 3160l-14.26 4.64v-9.28z" stroke="#5e5e5e" stroke-width="2" fill="#5e5e5e"/><defs><path fill="#333" d="M233-177c-1 41-23 64-60 70L243 0h-38l-65-103H63V0H30v-248c88 3 205-21 203 71zM63-129c60-2 137 13 137-47 0-61-80-42-137-45v92" id="bh"/><path fill="#333" d="M100-194c63 0 86 42 84 106H49c0 40 14 67 53 68 26 1 43-12 49-29l28 8c-11 28-37 45-77 45C44 4 14-33 15-96c1-61 26-98 85-98zm52 81c6-60-76-77-97-28-3 7-6 17-6 28h103" id="bi"/><path fill="#333" d="M96-169c-40 0-48 33-48 73s9 75 48 75c24 0 41-14 43-38l32 2c-6 37-31 61-74 61-59 0-76-41-82-99-10-93 101-131 147-64 4 7 5 14 7 22l-32 3c-4-21-16-35-41-35" id="bj"/><path fill="#333" d="M115-194c55 1 70 41 70 98S169 2 115 4C84 4 66-9 55-30l1 105H24l-1-265h31l2 30c10-21 28-34 59-34zm-8 174c40 0 45-34 45-75s-6-73-45-74c-42 0-51 32-51 76 0 43 10 73 51 73" id="bk"/><path fill="#333" d="M24-231v-30h32v30H24zM24 0v-190h32V0H24" id="bl"/><path fill="#333" d="M100-194c62-1 85 37 85 99 1 63-27 99-86 99S16-35 15-95c0-66 28-99 85-99zM99-20c44 1 53-31 53-75 0-43-8-75-51-75s-53 32-53 75 10 74 51 75" id="bm"/><path fill="#333" d="M117-194c89-4 53 116 60 194h-32v-121c0-31-8-49-39-48C34-167 62-67 57 0H25l-1-190h30c1 10-1 24 2 32 11-22 29-35 61-36" id="bn"/><path fill="#333" d="M135-143c-3-34-86-38-87 0 15 53 115 12 119 90S17 21 10-45l28-5c4 36 97 45 98 0-10-56-113-15-118-90-4-57 82-63 122-42 12 7 21 19 24 35" id="bo"/><path fill="#333" d="M59-47c-2 24 18 29 38 22v24C64 9 27 4 27-40v-127H5v-23h24l9-43h21v43h35v23H59v120" id="bp"/><g id="a"><use transform="matrix(0.06172839506172839,0,0,0.06172839506172839,0,0)" xlink:href="#bh"/><use transform="matrix(0.06172839506172839,0,0,0.06172839506172839,15.987654320987653,0)" xlink:href="#bi"/><use transform="matrix(0.06172839506172839,0,0,0.06172839506172839,28.333333333333332,0)" xlink:href="#bj"/><use transform="matrix(0.06172839506172839,0,0,0.06172839506172839,39.44444444444444,0)" xlink:href="#bi"/><use transform="matrix(0.06172839506172839,0,0,0.06172839506172839,51.79012345679012,0)" xlink:href="#bk"/><use transform="matrix(0.06172839506172839,0,0,0.06172839506172839,64.1358024691358,0)" xlink:href="#bj"/><use transform="matrix(0.06172839506172839,0,0,0.06172839506172839,75.24691358024691,0)" xlink:href="#bl"/><use transform="matrix(0.06172839506172839,0,0,0.06172839506172839,80.12345679012346,0)" xlink:href="#bm"/><use transform="matrix(0.06172839506172839,0,0,0.06172839506172839,92.46913580246914,0)" xlink:href="#bn"/><use transform="matrix(0.06172839506172839,0,0,0.06172839506172839,104.81481481481482,0)" xlink:href="#bl"/><use transform="matrix(0.06172839506172839,0,0,0.06172839506172839,109.69135802469137,0)" xlink:href="#bo"/><use transform="matrix(0.06172839506172839,0,0,0.06172839506172839,120.80246913580248,0)" xlink:href="#bp"/></g><path fill="#333" d="M232-93c-1 65-40 97-104 97C67 4 28-28 28-90v-158h33c8 89-33 224 67 224 102 0 64-133 71-224h33v155" id="bq"/><path fill="#333" d="M212-179c-10-28-35-45-73-45-59 0-87 40-87 99 0 60 29 101 89 101 43 0 62-24 78-52l27 14C228-24 195 4 139 4 59 4 22-46 18-125c-6-104 99-153 187-111 19 9 31 26 39 46" id="br"/><g id="b"><use transform="matrix(0.06172839506172839,0,0,0.06172839506172839,0,0)" xlink:href="#bq"/><use transform="matrix(0.06172839506172839,0,0,0.06172839506172839,15.987654320987653,0)" xlink:href="#br"/></g><path fill="#333" d="M126-127c33 6 58 20 58 59 0 88-139 92-164 29-3-8-5-16-6-25l32-3c6 27 21 44 54 44 32 0 52-15 52-46 0-38-36-46-79-43v-28c39 1 72-4 72-42 0-27-17-43-46-43-28 0-47 15-49 41l-32-3c6-42 35-63 81-64 48-1 79 21 79 65 0 36-21 52-52 59" id="bs"/><path fill="#333" d="M16-82v-28h88v28H16" id="bt"/><g id="c"><use transform="matrix(0.06172839506172839,0,0,0.06172839506172839,0,0)" xlink:href="#bs"/><use transform="matrix(0.06172839506172839,0,0,0.06172839506172839,12.345679012345679,0)" xlink:href="#bt"/></g><path fill="#333" d="M177-190C167-65 218 103 67 71c-23-6-38-20-44-43l32-5c15 47 100 32 89-28v-30C133-14 115 1 83 1 29 1 15-40 15-95c0-56 16-97 71-98 29-1 48 16 59 35 1-10 0-23 2-32h30zM94-22c36 0 50-32 50-73 0-42-14-75-50-75-39 0-46 34-46 75s6 73 46 73" id="bu"/><path fill="#333" d="M114-163C36-179 61-72 57 0H25l-1-190h30c1 12-1 29 2 39 6-27 23-49 58-41v29" id="bv"/><g id="d"><use transform="matrix(0.06172839506172839,0,0,0.06172839506172839,0,0)" xlink:href="#bh"/><use transform="matrix(0.06172839506172839,0,0,0.06172839506172839,15.987654320987653,0)" xlink:href="#bi"/><use transform="matrix(0.06172839506172839,0,0,0.06172839506172839,28.333333333333332,0)" xlink:href="#bu"/><use transform="matrix(0.06172839506172839,0,0,0.06172839506172839,40.67901234567901,0)" xlink:href="#bl"/><use transform="matrix(0.06172839506172839,0,0,0.06172839506172839,45.55555555555556,0)" xlink:href="#bo"/><use transform="matrix(0.06172839506172839,0,0,0.06172839506172839,56.66666666666667,0)" xlink:href="#bp"/><use transform="matrix(0.06172839506172839,0,0,0.06172839506172839,62.83950617283951,0)" xlink:href="#bi"/><use transform="matrix(0.06172839506172839,0,0,0.06172839506172839,75.18518518518519,0)" xlink:href="#bv"/></g><path fill="#333" d="M141-36C126-15 110 5 73 4 37 3 15-17 15-53c-1-64 63-63 125-63 3-35-9-54-41-54-24 1-41 7-42 31l-33-3c5-37 33-52 76-52 45 0 72 20 72 64v82c-1 20 7 32 28 27v20c-31 9-61-2-59-35zM48-53c0 20 12 33 32 33 41-3 63-29 60-74-43 2-92-5-92 41" id="bw"/><use transform="matrix(0.06172839506172839,0,0,0.06172839506172839,0,0)" xlink:href="#bw" id="e"/><path fill="#333" d="M206 0h-36l-40-164L89 0H53L-1-190h32L70-26l43-164h34l41 164 42-164h31" id="bx"/><g id="f"><use transform="matrix(0.06172839506172839,0,0,0.06172839506172839,0,0)" xlink:href="#bn"/><use transform="matrix(0.06172839506172839,0,0,0.06172839506172839,12.345679012345679,0)" xlink:href="#bi"/><use transform="matrix(0.06172839506172839,0,0,0.06172839506172839,24.691358024691358,0)" xlink:href="#bx"/></g><path fill="#333" d="M24 0v-261h32V0H24" id="by"/><g id="g"><use transform="matrix(0.06172839506172839,0,0,0.06172839506172839,0,0)" xlink:href="#bj"/><use transform="matrix(0.06172839506172839,0,0,0.06172839506172839,11.11111111111111,0)" xlink:href="#by"/><use transform="matrix(0.06172839506172839,0,0,0.06172839506172839,15.987654320987653,0)" xlink:href="#bl"/><use transform="matrix(0.06172839506172839,0,0,0.06172839506172839,20.864197530864196,0)" xlink:href="#bi"/><use transform="matrix(0.06172839506172839,0,0,0.06172839506172839,33.20987654320987,0)" xlink:href="#bn"/><use transform="matrix(0.06172839506172839,0,0,0.06172839506172839,45.55555555555555,0)" xlink:href="#bp"/></g><g id="h"><use transform="matrix(0.06172839506172839,0,0,0.06172839506172839,0,0)" xlink:href="#bq"/><use transform="matrix(0.06172839506172839,0,0,0.06172839506172839,15.987654320987653,0)" xlink:href="#br"/></g><path fill="#333" d="M155-56V0h-30v-56H8v-25l114-167h33v167h35v25h-35zm-30-156c-27 46-58 90-88 131h88v-131" id="bz"/><use transform="matrix(0.06172839506172839,0,0,0.06172839506172839,0,0)" xlink:href="#bz" id="i"/><use transform="matrix(0.06172839506172839,0,0,0.06172839506172839,0,0)" xlink:href="#bt" id="j"/><g id="k"><use transform="matrix(0.06172839506172839,0,0,0.06172839506172839,0,0)" xlink:href="#bh"/><use transform="matrix(0.06172839506172839,0,0,0.06172839506172839,15.987654320987653,0)" xlink:href="#bi"/><use transform="matrix(0.06172839506172839,0,0,0.06172839506172839,28.333333333333332,0)" xlink:href="#bu"/><use transform="matrix(0.06172839506172839,0,0,0.06172839506172839,40.67901234567901,0)" xlink:href="#bl"/><use transform="matrix(0.06172839506172839,0,0,0.06172839506172839,45.55555555555556,0)" xlink:href="#bo"/><use transform="matrix(0.06172839506172839,0,0,0.06172839506172839,56.66666666666667,0)" xlink:href="#bp"/><use transform="matrix(0.06172839506172839,0,0,0.06172839506172839,62.83950617283951,0)" xlink:href="#bi"/><use transform="matrix(0.06172839506172839,0,0,0.06172839506172839,75.18518518518519,0)" xlink:href="#bv"/></g><use transform="matrix(0.06172839506172839,0,0,0.06172839506172839,0,0)" xlink:href="#bw" id="l"/><g id="m"><use transform="matrix(0.06172839506172839,0,0,0.06172839506172839,0,0)" xlink:href="#bp"/><use transform="matrix(0.06172839506172839,0,0,0.06172839506172839,6.172839506172839,0)" xlink:href="#bi"/><use transform="matrix(0.06172839506172839,0,0,0.06172839506172839,18.51851851851852,0)" xlink:href="#bo"/><use transform="matrix(0.06172839506172839,0,0,0.06172839506172839,29.62962962962963,0)" xlink:href="#bp"/></g><g id="n"><use transform="matrix(0.06172839506172839,0,0,0.06172839506172839,0,0)" xlink:href="#bp"/><use transform="matrix(0.06172839506172839,0,0,0.06172839506172839,6.172839506172839,0)" xlink:href="#bm"/></g><path fill="#333" d="M115-194c53 0 69 39 70 98 0 66-23 100-70 100C84 3 66-7 56-30L54 0H23l1-261h32v101c10-23 28-34 59-34zm-8 174c40 0 45-34 45-75 0-40-5-75-45-74-42 0-51 32-51 76 0 43 10 73 51 73" id="bA"/><g id="o"><use transform="matrix(0.06172839506172839,0,0,0.06172839506172839,0,0)" xlink:href="#bA"/><use transform="matrix(0.06172839506172839,0,0,0.06172839506172839,12.345679012345679,0)" xlink:href="#bi"/></g><path fill="#333" d="M101-234c-31-9-42 10-38 44h38v23H63V0H32v-167H5v-23h27c-7-52 17-82 69-68v24" id="bB"/><path fill="#333" d="M210-169c-67 3-38 105-44 169h-31v-121c0-29-5-50-35-48C34-165 62-65 56 0H25l-1-190h30c1 10-1 24 2 32 10-44 99-50 107 0 11-21 27-35 58-36 85-2 47 119 55 194h-31v-121c0-29-5-49-35-48" id="bC"/><path fill="#333" d="M85-194c31 0 48 13 60 33l-1-100h32l1 261h-30c-2-10 0-23-3-31C134-8 116 4 85 4 32 4 16-35 15-94c0-66 23-100 70-100zm9 24c-40 0-46 34-46 75 0 40 6 74 45 74 42 0 51-32 51-76 0-42-9-74-50-73" id="bD"/><g id="p"><use transform="matrix(0.06172839506172839,0,0,0.06172839506172839,0,0)" xlink:href="#bk"/><use transform="matrix(0.06172839506172839,0,0,0.06172839506172839,12.345679012345679,0)" xlink:href="#bi"/><use transform="matrix(0.06172839506172839,0,0,0.06172839506172839,24.691358024691358,0)" xlink:href="#bv"/><use transform="matrix(0.06172839506172839,0,0,0.06172839506172839,32.03703703703704,0)" xlink:href="#bB"/><use transform="matrix(0.06172839506172839,0,0,0.06172839506172839,38.20987654320988,0)" xlink:href="#bm"/><use transform="matrix(0.06172839506172839,0,0,0.06172839506172839,50.55555555555556,0)" xlink:href="#bv"/><use transform="matrix(0.06172839506172839,0,0,0.06172839506172839,57.901234567901234,0)" xlink:href="#bC"/><use transform="matrix(0.06172839506172839,0,0,0.06172839506172839,76.35802469135803,0)" xlink:href="#bi"/><use transform="matrix(0.06172839506172839,0,0,0.06172839506172839,88.70370370370371,0)" xlink:href="#bD"/></g><g id="q"><use transform="matrix(0.06172839506172839,0,0,0.06172839506172839,0,0)" xlink:href="#bv"/><use transform="matrix(0.06172839506172839,0,0,0.06172839506172839,7.345679012345679,0)" xlink:href="#bi"/><use transform="matrix(0.06172839506172839,0,0,0.06172839506172839,19.691358024691358,0)" xlink:href="#bu"/><use transform="matrix(0.06172839506172839,0,0,0.06172839506172839,32.03703703703704,0)" xlink:href="#bl"/><use transform="matrix(0.06172839506172839,0,0,0.06172839506172839,36.91358024691358,0)" xlink:href="#bo"/><use transform="matrix(0.06172839506172839,0,0,0.06172839506172839,48.0246913580247,0)" xlink:href="#bp"/><use transform="matrix(0.06172839506172839,0,0,0.06172839506172839,54.19753086419754,0)" xlink:href="#bi"/><use transform="matrix(0.06172839506172839,0,0,0.06172839506172839,66.54320987654322,0)" xlink:href="#bv"/><use transform="matrix(0.06172839506172839,0,0,0.06172839506172839,73.8888888888889,0)" xlink:href="#bi"/><use transform="matrix(0.06172839506172839,0,0,0.06172839506172839,86.23456790123458,0)" xlink:href="#bD"/></g><g id="r"><use transform="matrix(0.06172839506172839,0,0,0.06172839506172839,0,0)" xlink:href="#bj"/><use transform="matrix(0.06172839506172839,0,0,0.06172839506172839,11.11111111111111,0)" xlink:href="#by"/><use transform="matrix(0.06172839506172839,0,0,0.06172839506172839,15.987654320987653,0)" xlink:href="#bl"/><use transform="matrix(0.06172839506172839,0,0,0.06172839506172839,20.864197530864196,0)" xlink:href="#bi"/><use transform="matrix(0.06172839506172839,0,0,0.06172839506172839,33.20987654320987,0)" xlink:href="#bn"/><use transform="matrix(0.06172839506172839,0,0,0.06172839506172839,45.55555555555555,0)" xlink:href="#bp"/></g><path fill="#333" d="M240 0l2-218c-23 76-54 145-80 218h-23L58-218 59 0H30v-248h44l77 211c21-75 51-140 76-211h43V0h-30" id="bE"/><g id="s"><use transform="matrix(0.06172839506172839,0,0,0.06172839506172839,0,0)" xlink:href="#bE"/><use transform="matrix(0.06172839506172839,0,0,0.06172839506172839,18.456790123456788,0)" xlink:href="#bi"/><use transform="matrix(0.06172839506172839,0,0,0.06172839506172839,30.80246913580247,0)" xlink:href="#bD"/><use transform="matrix(0.06172839506172839,0,0,0.06172839506172839,43.148148148148145,0)" xlink:href="#bl"/><use transform="matrix(0.06172839506172839,0,0,0.06172839506172839,48.02469135802469,0)" xlink:href="#bj"/><use transform="matrix(0.06172839506172839,0,0,0.06172839506172839,59.1358024691358,0)" xlink:href="#bw"/><use transform="matrix(0.06172839506172839,0,0,0.06172839506172839,71.48148148148148,0)" xlink:href="#by"/></g><g id="t"><use transform="matrix(0.06172839506172839,0,0,0.06172839506172839,0,0)" xlink:href="#by"/><use transform="matrix(0.06172839506172839,0,0,0.06172839506172839,4.876543209876543,0)" xlink:href="#bw"/><use transform="matrix(0.06172839506172839,0,0,0.06172839506172839,17.22222222222222,0)" xlink:href="#bA"/></g><path fill="#333" d="M106-169C34-169 62-67 57 0H25v-261h32l-1 103c12-21 28-36 61-36 89 0 53 116 60 194h-32v-121c2-32-8-49-39-48" id="bF"/><g id="u"><use transform="matrix(0.06172839506172839,0,0,0.06172839506172839,0,0)" xlink:href="#bp"/><use transform="matrix(0.06172839506172839,0,0,0.06172839506172839,6.172839506172839,0)" xlink:href="#bi"/><use transform="matrix(0.06172839506172839,0,0,0.06172839506172839,18.51851851851852,0)" xlink:href="#bj"/><use transform="matrix(0.06172839506172839,0,0,0.06172839506172839,29.62962962962963,0)" xlink:href="#bF"/><use transform="matrix(0.06172839506172839,0,0,0.06172839506172839,41.97530864197531,0)" xlink:href="#bn"/><use transform="matrix(0.06172839506172839,0,0,0.06172839506172839,54.32098765432099,0)" xlink:href="#bl"/><use transform="matrix(0.06172839506172839,0,0,0.06172839506172839,59.19753086419753,0)" xlink:href="#bj"/><use transform="matrix(0.06172839506172839,0,0,0.06172839506172839,70.30864197530865,0)" xlink:href="#bl"/><use transform="matrix(0.06172839506172839,0,0,0.06172839506172839,75.18518518518519,0)" xlink:href="#bw"/><use transform="matrix(0.06172839506172839,0,0,0.06172839506172839,87.53086419753087,0)" xlink:href="#bn"/></g><path fill="#333" d="M54-142c48-35 137-8 131 61C196 18 31 33 14-55l32-4c7 23 22 37 52 37 35-1 51-22 54-58 4-55-73-65-99-34H22l8-134h141v27H59" id="bG"/><g id="v"><use transform="matrix(0.06172839506172839,0,0,0.06172839506172839,0,0)" xlink:href="#bG"/><use transform="matrix(0.06172839506172839,0,0,0.06172839506172839,12.345679012345679,0)" xlink:href="#bt"/></g><g id="w"><use transform="matrix(0.06172839506172839,0,0,0.06172839506172839,0,0)" xlink:href="#bh"/><use transform="matrix(0.06172839506172839,0,0,0.06172839506172839,15.987654320987653,0)" xlink:href="#bi"/><use transform="matrix(0.06172839506172839,0,0,0.06172839506172839,28.333333333333332,0)" xlink:href="#bj"/><use transform="matrix(0.06172839506172839,0,0,0.06172839506172839,39.44444444444444,0)" xlink:href="#bm"/><use transform="matrix(0.06172839506172839,0,0,0.06172839506172839,51.79012345679012,0)" xlink:href="#bv"/><use transform="matrix(0.06172839506172839,0,0,0.06172839506172839,59.1358024691358,0)" xlink:href="#bD"/></g><g id="x"><use transform="matrix(0.06172839506172839,0,0,0.06172839506172839,0,0)" xlink:href="#bp"/><use transform="matrix(0.06172839506172839,0,0,0.06172839506172839,6.172839506172839,0)" xlink:href="#bF"/><use transform="matrix(0.06172839506172839,0,0,0.06172839506172839,18.51851851851852,0)" xlink:href="#bi"/></g><g id="y"><use transform="matrix(0.06172839506172839,0,0,0.06172839506172839,0,0)" xlink:href="#bo"/><use transform="matrix(0.06172839506172839,0,0,0.06172839506172839,11.11111111111111,0)" xlink:href="#bw"/><use transform="matrix(0.06172839506172839,0,0,0.06172839506172839,23.45679012345679,0)" xlink:href="#bC"/><use transform="matrix(0.06172839506172839,0,0,0.06172839506172839,41.91358024691358,0)" xlink:href="#bk"/><use transform="matrix(0.06172839506172839,0,0,0.06172839506172839,54.25925925925926,0)" xlink:href="#by"/><use transform="matrix(0.06172839506172839,0,0,0.06172839506172839,59.135802469135804,0)" xlink:href="#bi"/><use transform="matrix(0.06172839506172839,0,0,0.06172839506172839,71.48148148148148,0)" xlink:href="#bo"/></g><g id="z"><use transform="matrix(0.06172839506172839,0,0,0.06172839506172839,0,0)" xlink:href="#bj"/><use transform="matrix(0.06172839506172839,0,0,0.06172839506172839,11.11111111111111,0)" xlink:href="#bm"/><use transform="matrix(0.06172839506172839,0,0,0.06172839506172839,23.45679012345679,0)" xlink:href="#by"/><use transform="matrix(0.06172839506172839,0,0,0.06172839506172839,28.333333333333336,0)" xlink:href="#by"/><use transform="matrix(0.06172839506172839,0,0,0.06172839506172839,33.20987654320988,0)" xlink:href="#bi"/><use transform="matrix(0.06172839506172839,0,0,0.06172839506172839,45.55555555555556,0)" xlink:href="#bj"/><use transform="matrix(0.06172839506172839,0,0,0.06172839506172839,56.66666666666667,0)" xlink:href="#bp"/><use transform="matrix(0.06172839506172839,0,0,0.06172839506172839,62.83950617283951,0)" xlink:href="#bi"/><use transform="matrix(0.06172839506172839,0,0,0.06172839506172839,75.18518518518519,0)" xlink:href="#bD"/></g><g id="A"><use transform="matrix(0.06172839506172839,0,0,0.06172839506172839,0,0)" xlink:href="#bl"/><use transform="matrix(0.06172839506172839,0,0,0.06172839506172839,4.876543209876543,0)" xlink:href="#bn"/></g><g id="B"><use transform="matrix(0.06172839506172839,0,0,0.06172839506172839,0,0)" xlink:href="#bo"/><use transform="matrix(0.06172839506172839,0,0,0.06172839506172839,11.11111111111111,0)" xlink:href="#bj"/><use transform="matrix(0.06172839506172839,0,0,0.06172839506172839,22.22222222222222,0)" xlink:href="#bm"/><use transform="matrix(0.06172839506172839,0,0,0.06172839506172839,34.5679012345679,0)" xlink:href="#bk"/><use transform="matrix(0.06172839506172839,0,0,0.06172839506172839,46.913580246913575,0)" xlink:href="#bi"/></g><g id="C"><use transform="matrix(0.06172839506172839,0,0,0.06172839506172839,0,0)" xlink:href="#bm"/><use transform="matrix(0.06172839506172839,0,0,0.06172839506172839,12.345679012345679,0)" xlink:href="#bB"/></g><use transform="matrix(0.06172839506172839,0,0,0.06172839506172839,0,0)" xlink:href="#bw" id="D"/><path fill="#333" d="M108 0H70L1-190h34L89-25l56-165h34" id="bH"/><g id="E"><use transform="matrix(0.06172839506172839,0,0,0.06172839506172839,0,0)" xlink:href="#bu"/><use transform="matrix(0.06172839506172839,0,0,0.06172839506172839,12.345679012345679,0)" xlink:href="#bl"/><use transform="matrix(0.06172839506172839,0,0,0.06172839506172839,17.22222222222222,0)" xlink:href="#bH"/><use transform="matrix(0.06172839506172839,0,0,0.06172839506172839,28.333333333333332,0)" xlink:href="#bi"/><use transform="matrix(0.06172839506172839,0,0,0.06172839506172839,40.67901234567901,0)" xlink:href="#bn"/></g><g id="F"><use transform="matrix(0.06172839506172839,0,0,0.06172839506172839,0,0)" xlink:href="#bp"/><use transform="matrix(0.06172839506172839,0,0,0.06172839506172839,6.172839506172839,0)" xlink:href="#bi"/><use transform="matrix(0.06172839506172839,0,0,0.06172839506172839,18.51851851851852,0)" xlink:href="#bo"/><use transform="matrix(0.06172839506172839,0,0,0.06172839506172839,29.62962962962963,0)" xlink:href="#bp"/></g><g id="G"><use transform="matrix(0.061728395061728385,0,0,0.061728395061728385,0,0)" xlink:href="#br"/><use transform="matrix(0.061728395061728385,0,0,0.061728395061728385,15.987654320987652,0)" xlink:href="#by"/><use transform="matrix(0.061728395061728385,0,0,0.061728395061728385,20.864197530864196,0)" xlink:href="#bl"/><use transform="matrix(0.061728395061728385,0,0,0.061728395061728385,25.74074074074074,0)" xlink:href="#bn"/><use transform="matrix(0.061728395061728385,0,0,0.061728395061728385,38.08641975308642,0)" xlink:href="#bl"/><use transform="matrix(0.061728395061728385,0,0,0.061728395061728385,42.96296296296296,0)" xlink:href="#bj"/><use transform="matrix(0.061728395061728385,0,0,0.061728395061728385,54.07407407407407,0)" xlink:href="#bw"/><use transform="matrix(0.061728395061728385,0,0,0.061728395061728385,66.41975308641975,0)" xlink:href="#by"/></g><path fill="#333" d="M179-190L93 31C79 59 56 82 12 73V49c39 6 53-20 64-50L1-190h34L92-34l54-156h33" id="bI"/><g id="H"><use transform="matrix(0.061728395061728385,0,0,0.061728395061728385,0,0)" xlink:href="#br"/><use transform="matrix(0.061728395061728385,0,0,0.061728395061728385,15.987654320987652,0)" xlink:href="#bF"/><use transform="matrix(0.061728395061728385,0,0,0.061728395061728385,28.33333333333333,0)" xlink:href="#bi"/><use transform="matrix(0.061728395061728385,0,0,0.061728395061728385,40.679012345679006,0)" xlink:href="#bC"/><use transform="matrix(0.061728395061728385,0,0,0.061728395061728385,59.1358024691358,0)" xlink:href="#bl"/><use transform="matrix(0.061728395061728385,0,0,0.061728395061728385,64.01234567901234,0)" xlink:href="#bo"/><use transform="matrix(0.061728395061728385,0,0,0.061728395061728385,75.12345679012346,0)" xlink:href="#bp"/><use transform="matrix(0.061728395061728385,0,0,0.061728395061728385,81.29629629629629,0)" xlink:href="#bv"/><use transform="matrix(0.061728395061728385,0,0,0.061728395061728385,88.64197530864197,0)" xlink:href="#bI"/></g><path fill="#333" d="M127-220V0H93v-220H8v-28h204v28h-85" id="bJ"/><g id="I"><use transform="matrix(0.061728395061728385,0,0,0.061728395061728385,0,0)" xlink:href="#bJ"/><use transform="matrix(0.061728395061728385,0,0,0.061728395061728385,11.04938271604938,0)" xlink:href="#bi"/><use transform="matrix(0.061728395061728385,0,0,0.061728395061728385,23.395061728395056,0)" xlink:href="#bj"/><use transform="matrix(0.061728395061728385,0,0,0.061728395061728385,34.50617283950616,0)" xlink:href="#bF"/><use transform="matrix(0.061728395061728385,0,0,0.061728395061728385,46.85185185185184,0)" xlink:href="#bn"/><use transform="matrix(0.061728395061728385,0,0,0.061728395061728385,59.19753086419752,0)" xlink:href="#bm"/><use transform="matrix(0.061728395061728385,0,0,0.061728395061728385,71.54320987654319,0)" xlink:href="#by"/><use transform="matrix(0.061728395061728385,0,0,0.061728395061728385,76.41975308641973,0)" xlink:href="#bm"/><use transform="matrix(0.061728395061728385,0,0,0.061728395061728385,88.76543209876542,0)" xlink:href="#bu"/><use transform="matrix(0.061728395061728385,0,0,0.061728395061728385,101.11111111111109,0)" xlink:href="#bl"/><use transform="matrix(0.061728395061728385,0,0,0.061728395061728385,105.98765432098763,0)" xlink:href="#bo"/><use transform="matrix(0.061728395061728385,0,0,0.061728395061728385,117.09876543209874,0)" xlink:href="#bp"/></g><g id="J"><use transform="matrix(0.061728395061728385,0,0,0.061728395061728385,0,0)" xlink:href="#bq"/><use transform="matrix(0.061728395061728385,0,0,0.061728395061728385,15.987654320987652,0)" xlink:href="#br"/></g><path fill="#333" d="M110-160c48 1 74 30 74 79 0 53-28 85-80 85-65 0-83-55-86-122-5-90 50-162 133-122 14 7 22 21 27 39l-31 6c-5-40-67-38-82-6-9 19-15 44-15 74 11-20 30-34 60-33zm-7 138c34 0 49-23 49-58s-16-56-50-56c-29 0-50 16-49 49 1 36 15 65 50 65" id="bK"/><g id="K"><use transform="matrix(0.061728395061728385,0,0,0.061728395061728385,0,0)" xlink:href="#bK"/><use transform="matrix(0.061728395061728385,0,0,0.061728395061728385,12.345679012345677,0)" xlink:href="#bt"/></g><path fill="#333" d="M143 0L79-87 56-68V0H24v-261h32v163l83-92h37l-77 82L181 0h-38" id="bL"/><g id="L"><use transform="matrix(0.061728395061728385,0,0,0.061728395061728385,0,0)" xlink:href="#br"/><use transform="matrix(0.061728395061728385,0,0,0.061728395061728385,15.987654320987652,0)" xlink:href="#bF"/><use transform="matrix(0.061728395061728385,0,0,0.061728395061728385,28.33333333333333,0)" xlink:href="#bi"/><use transform="matrix(0.061728395061728385,0,0,0.061728395061728385,40.679012345679006,0)" xlink:href="#bj"/><use transform="matrix(0.061728395061728385,0,0,0.061728395061728385,51.79012345679011,0)" xlink:href="#bL"/></g><g id="M"><use transform="matrix(0.061728395061728385,0,0,0.061728395061728385,0,0)" xlink:href="#bp"/><use transform="matrix(0.061728395061728385,0,0,0.061728395061728385,6.1728395061728385,0)" xlink:href="#bF"/><use transform="matrix(0.061728395061728385,0,0,0.061728395061728385,18.518518518518515,0)" xlink:href="#bi"/></g><path fill="#333" d="M84 4C-5 8 30-112 23-190h32v120c0 31 7 50 39 49 72-2 45-101 50-169h31l1 190h-30c-1-10 1-25-2-33-11 22-28 36-60 37" id="bM"/><g id="N"><use transform="matrix(0.061728395061728385,0,0,0.061728395061728385,0,0)" xlink:href="#bv"/><use transform="matrix(0.061728395061728385,0,0,0.061728395061728385,7.345679012345678,0)" xlink:href="#bi"/><use transform="matrix(0.061728395061728385,0,0,0.061728395061728385,19.691358024691354,0)" xlink:href="#bo"/><use transform="matrix(0.061728395061728385,0,0,0.061728395061728385,30.80246913580246,0)" xlink:href="#bM"/><use transform="matrix(0.061728395061728385,0,0,0.061728395061728385,43.14814814814814,0)" xlink:href="#by"/><use transform="matrix(0.061728395061728385,0,0,0.061728395061728385,48.02469135802468,0)" xlink:href="#bp"/><use transform="matrix(0.061728395061728385,0,0,0.061728395061728385,54.19753086419752,0)" xlink:href="#bo"/></g><g id="O"><use transform="matrix(0.061728395061728385,0,0,0.061728395061728385,0,0)" xlink:href="#bl"/><use transform="matrix(0.061728395061728385,0,0,0.061728395061728385,4.876543209876543,0)" xlink:href="#bn"/></g><g id="P"><use transform="matrix(0.061728395061728385,0,0,0.061728395061728385,0,0)" xlink:href="#bp"/><use transform="matrix(0.061728395061728385,0,0,0.061728395061728385,6.1728395061728385,0)" xlink:href="#bF"/><use transform="matrix(0.061728395061728385,0,0,0.061728395061728385,18.518518518518515,0)" xlink:href="#bi"/></g><g id="Q"><use transform="matrix(0.061728395061728385,0,0,0.061728395061728385,0,0)" xlink:href="#bj"/><use transform="matrix(0.061728395061728385,0,0,0.061728395061728385,11.111111111111109,0)" xlink:href="#bi"/><use transform="matrix(0.061728395061728385,0,0,0.061728395061728385,23.456790123456784,0)" xlink:href="#bn"/><use transform="matrix(0.061728395061728385,0,0,0.061728395061728385,35.80246913580246,0)" xlink:href="#bp"/><use transform="matrix(0.061728395061728385,0,0,0.061728395061728385,41.9753086419753,0)" xlink:href="#bv"/><use transform="matrix(0.061728395061728385,0,0,0.061728395061728385,49.32098765432098,0)" xlink:href="#bw"/><use transform="matrix(0.061728395061728385,0,0,0.061728395061728385,61.66666666666666,0)" xlink:href="#by"/></g><g id="R"><use transform="matrix(0.061728395061728385,0,0,0.061728395061728385,0,0)" xlink:href="#bw"/><use transform="matrix(0.061728395061728385,0,0,0.061728395061728385,12.345679012345677,0)" xlink:href="#bk"/><use transform="matrix(0.061728395061728385,0,0,0.061728395061728385,24.691358024691354,0)" xlink:href="#bk"/><use transform="matrix(0.061728395061728385,0,0,0.061728395061728385,37.03703703703703,0)" xlink:href="#by"/><use transform="matrix(0.061728395061728385,0,0,0.061728395061728385,41.913580246913575,0)" xlink:href="#bl"/><use transform="matrix(0.061728395061728385,0,0,0.061728395061728385,46.79012345679012,0)" xlink:href="#bj"/><use transform="matrix(0.061728395061728385,0,0,0.061728395061728385,57.90123456790123,0)" xlink:href="#bw"/><use transform="matrix(0.061728395061728385,0,0,0.061728395061728385,70.24691358024691,0)" xlink:href="#bp"/><use transform="matrix(0.061728395061728385,0,0,0.061728395061728385,76.41975308641975,0)" xlink:href="#bl"/><use transform="matrix(0.061728395061728385,0,0,0.061728395061728385,81.29629629629629,0)" xlink:href="#bm"/><use transform="matrix(0.061728395061728385,0,0,0.061728395061728385,93.64197530864197,0)" xlink:href="#bn"/></g><path fill="#333" d="M27 0v-27h64v-190l-56 39v-29l58-41h29v221h61V0H27" id="bN"/><path fill="#333" d="M101-251c82-7 93 87 43 132L82-64C71-53 59-42 53-27h129V0H18c2-99 128-94 128-182 0-28-16-43-45-43s-46 15-49 41l-32-3c6-41 34-60 81-64" id="bO"/><g id="S"><use transform="matrix(0.06172839506172839,0,0,0.06172839506172839,0,0)" xlink:href="#bN"/><use transform="matrix(0.06172839506172839,0,0,0.06172839506172839,12.345679012345679,0)" xlink:href="#bO"/><use transform="matrix(0.06172839506172839,0,0,0.06172839506172839,24.691358024691358,0)" xlink:href="#bt"/></g><g id="T"><use transform="matrix(0.06172839506172839,0,0,0.06172839506172839,0,0)" xlink:href="#bv"/><use transform="matrix(0.06172839506172839,0,0,0.06172839506172839,7.345679012345679,0)" xlink:href="#bi"/><use transform="matrix(0.06172839506172839,0,0,0.06172839506172839,19.691358024691358,0)" xlink:href="#bo"/><use transform="matrix(0.06172839506172839,0,0,0.06172839506172839,30.80246913580247,0)" xlink:href="#bM"/><use transform="matrix(0.06172839506172839,0,0,0.06172839506172839,43.148148148148145,0)" xlink:href="#by"/><use transform="matrix(0.06172839506172839,0,0,0.06172839506172839,48.02469135802469,0)" xlink:href="#bp"/><use transform="matrix(0.06172839506172839,0,0,0.06172839506172839,54.19753086419753,0)" xlink:href="#bo"/></g><path fill="#333" d="M33 0v-38h34V0H33" id="bP"/><g id="U"><use transform="matrix(0.06172839506172839,0,0,0.06172839506172839,0,0)" xlink:href="#bp"/><use transform="matrix(0.06172839506172839,0,0,0.06172839506172839,6.172839506172839,0)" xlink:href="#bi"/><use transform="matrix(0.06172839506172839,0,0,0.06172839506172839,18.51851851851852,0)" xlink:href="#bo"/><use transform="matrix(0.06172839506172839,0,0,0.06172839506172839,29.62962962962963,0)" xlink:href="#bp"/><use transform="matrix(0.06172839506172839,0,0,0.06172839506172839,35.80246913580247,0)" xlink:href="#bP"/></g><path fill="#333" d="M30 0v-248h33v221h125V0H30" id="bQ"/><g id="V"><use transform="matrix(0.061728395061728385,0,0,0.061728395061728385,0,0)" xlink:href="#bQ"/><use transform="matrix(0.061728395061728385,0,0,0.061728395061728385,12.345679012345677,0)" xlink:href="#bw"/><use transform="matrix(0.061728395061728385,0,0,0.061728395061728385,24.691358024691354,0)" xlink:href="#bA"/><use transform="matrix(0.061728395061728385,0,0,0.061728395061728385,37.03703703703703,0)" xlink:href="#bm"/><use transform="matrix(0.061728395061728385,0,0,0.061728395061728385,49.38271604938271,0)" xlink:href="#bv"/><use transform="matrix(0.061728395061728385,0,0,0.061728395061728385,56.728395061728385,0)" xlink:href="#bw"/><use transform="matrix(0.061728395061728385,0,0,0.061728395061728385,69.07407407407406,0)" xlink:href="#bp"/><use transform="matrix(0.061728395061728385,0,0,0.061728395061728385,75.2469135802469,0)" xlink:href="#bm"/><use transform="matrix(0.061728395061728385,0,0,0.061728395061728385,87.59259259259258,0)" xlink:href="#bv"/><use transform="matrix(0.061728395061728385,0,0,0.061728395061728385,94.93827160493827,0)" xlink:href="#bI"/></g><g id="X"><use transform="matrix(0.061728395061728385,0,0,0.061728395061728385,0,0)" xlink:href="#br"/><use transform="matrix(0.061728395061728385,0,0,0.061728395061728385,15.987654320987652,0)" xlink:href="#bm"/><use transform="matrix(0.061728395061728385,0,0,0.061728395061728385,28.33333333333333,0)" xlink:href="#bm"/><use transform="matrix(0.061728395061728385,0,0,0.061728395061728385,40.679012345679006,0)" xlink:href="#bv"/><use transform="matrix(0.061728395061728385,0,0,0.061728395061728385,48.02469135802468,0)" xlink:href="#bD"/><use transform="matrix(0.061728395061728385,0,0,0.061728395061728385,60.37037037037036,0)" xlink:href="#bl"/><use transform="matrix(0.061728395061728385,0,0,0.061728395061728385,65.2469135802469,0)" xlink:href="#bn"/><use transform="matrix(0.061728395061728385,0,0,0.061728395061728385,77.59259259259258,0)" xlink:href="#bw"/><use transform="matrix(0.061728395061728385,0,0,0.061728395061728385,89.93827160493825,0)" xlink:href="#bp"/><use transform="matrix(0.061728395061728385,0,0,0.061728395061728385,96.11111111111109,0)" xlink:href="#bm"/><use transform="matrix(0.061728395061728385,0,0,0.061728395061728385,108.45679012345676,0)" xlink:href="#bv"/></g><g id="Y"><use transform="matrix(0.06172839506172839,0,0,0.06172839506172839,0,0)" xlink:href="#bN"/><use transform="matrix(0.06172839506172839,0,0,0.06172839506172839,12.345679012345679,0)" xlink:href="#bG"/></g><use transform="matrix(0.06172839506172839,0,0,0.06172839506172839,0,0)" xlink:href="#bt" id="Z"/><path fill="#333" d="M651-255l416-1201h210L737 0H567L28-1456h209" id="bR"/><path fill="#333" d="M561-1102c238-4 403 126 403 351v498c0 99 13 178 38 237V0H808c-11-21-19-59-26-114C696-25 593 20 474 20c-199 0-368-130-365-320 4-251 214-359 490-356h180v-85c-1-135-86-212-229-212-115 0-232 67-233 171H131c20-205 206-316 430-320zM294-326c0 117 90 185 207 185 122 0 239-75 278-162v-222H634c-227 0-340 66-340 199" id="bS"/><path fill="#333" d="M341 0H156v-1536h185V0" id="bT"/><path fill="#333" d="M341 0H156v-1082h185V0zm-91-1264c-68 0-108-42-109-105 0-62 41-107 109-107s110 44 110 107-42 105-110 105" id="bU"/><path fill="#333" d="M520 20C244 20 95-247 95-550c0-298 151-550 427-552 127 0 227 43 301 130v-564h185V0H838l-9-116C755-25 652 20 520 20zm48-965c-210 0-288 177-288 416 0 218 87 392 286 392 117 0 203-53 257-158v-497c-55-102-140-153-255-153" id="bV"/><path fill="#333" d="M456 20C285 20 205-92 206-268v-671H9v-143h197v-262h185v262h202v143H391v671c-9 125 92 149 207 118V0c-49 13-96 20-142 20" id="bW"/><path fill="#333" d="M599-131c141 0 220-65 285-146l113 88C906-50 770 20 589 20 281 21 93-214 93-545c0-223 93-397 233-485 74-48 154-72 240-72 300 2 449 218 445 537v77H278c0 197 129 357 321 357zm227-509c-3-180-88-310-260-310-170 0-264 140-282 310h542" id="bX"/><g id="aa"><use transform="matrix(0.010850694444444444,0,0,0.010850694444444444,0,0)" xlink:href="#bR"/><use transform="matrix(0.010850694444444444,0,0,0.010850694444444444,13.639322916666666,0)" xlink:href="#bS"/><use transform="matrix(0.010850694444444444,0,0,0.010850694444444444,25.72699652777778,0)" xlink:href="#bT"/><use transform="matrix(0.010850694444444444,0,0,0.010850694444444444,31.119791666666664,0)" xlink:href="#bU"/><use transform="matrix(0.010850694444444444,0,0,0.010850694444444444,36.51258680555556,0)" xlink:href="#bV"/><use transform="matrix(0.010850694444444444,0,0,0.010850694444444444,49.045138888888886,0)" xlink:href="#bS"/><use transform="matrix(0.010850694444444444,0,0,0.010850694444444444,61.1328125,0)" xlink:href="#bW"/><use transform="matrix(0.010850694444444444,0,0,0.010850694444444444,68.39192708333333,0)" xlink:href="#bX"/></g><path fill="#333" d="M589-945c-131 0-219 81-264 174V0H140v-1536h185v585c82-101 189-151 320-151 229 0 346 129 346 387V0H806v-716c-2-153-65-229-217-229" id="bY"/><g id="ab"><use transform="matrix(0.010850694444444444,0,0,0.010850694444444444,0,0)" xlink:href="#bW"/><use transform="matrix(0.010850694444444444,0,0,0.010850694444444444,7.259114583333333,0)" xlink:href="#bY"/><use transform="matrix(0.010850694444444444,0,0,0.010850694444444444,19.498697916666664,0)" xlink:href="#bX"/></g><path fill="#333" d="M1098-255l208-827h185L1176 0h-150L763-820 507 0H357L43-1082h184l213 810 252-810h149" id="bZ"/><path fill="#333" d="M584 20C278 26 81-227 91-551c10-320 175-545 491-551 308-5 503 247 494 573-9 322-175 543-492 549zm-2-970c-208 0-305 185-305 421 0 216 106 398 307 398 211 0 307-186 307-420 0-214-109-399-309-399" id="ca"/><path fill="#333" d="M663-916c-163-27-288 18-338 148V0H140v-1082h180l3 125c61-97 147-145 258-145 36 0 63 5 82 14v172" id="cb"/><path fill="#333" d="M442-501L326-380V0H141v-1536h185v929c135-169 291-317 436-475h225L566-630 1036 0H819" id="cc"/><g id="ac"><use transform="matrix(0.010850694444444444,0,0,0.010850694444444444,0,0)" xlink:href="#bZ"/><use transform="matrix(0.010850694444444444,0,0,0.010850694444444444,16.69921875,0)" xlink:href="#ca"/><use transform="matrix(0.010850694444444444,0,0,0.010850694444444444,29.37282986111111,0)" xlink:href="#cb"/><use transform="matrix(0.010850694444444444,0,0,0.010850694444444444,36.892361111111114,0)" xlink:href="#cc"/></g><path fill="#333" d="M589-945c-131 0-219 81-264 174V0H140v-1082h175l6 136c83-104 191-156 324-156 229 0 346 129 346 387V0H806v-716c-2-153-65-229-217-229" id="cd"/><g id="ad"><use transform="matrix(0.010850694444444444,0,0,0.010850694444444444,0,0)" xlink:href="#bV"/><use transform="matrix(0.010850694444444444,0,0,0.010850694444444444,12.532552083333332,0)" xlink:href="#ca"/><use transform="matrix(0.010850694444444444,0,0,0.010850694444444444,25.206163194444443,0)" xlink:href="#cd"/><use transform="matrix(0.010850694444444444,0,0,0.010850694444444444,37.467447916666664,0)" xlink:href="#bX"/></g><path fill="#333" d="M634-1102c292 0 422 254 422 573 0 298-143 547-420 549-137 0-242-48-317-145L310 0H140v-1536h185v573c75-93 178-139 309-139zm-44 965c207 0 281-175 281-413 0-224-79-395-283-395-122 0-210 57-263 170v468c57 113 145 170 265 170" id="ce"/><path fill="#333" d="M494-271l252-811h198L509 167C425 381 299 474 84 421V271c167 16 242-37 283-173l41-110L22-1082h202" id="cf"/><g id="ae"><use transform="matrix(0.010850694444444444,0,0,0.010850694444444444,0,0)" xlink:href="#ce"/><use transform="matrix(0.010850694444444444,0,0,0.010850694444444444,12.348090277777777,0)" xlink:href="#cf"/></g><g id="af"><use transform="matrix(0.010850694444444444,0,0,0.010850694444444444,0,0)" xlink:href="#bW"/><use transform="matrix(0.010850694444444444,0,0,0.010850694444444444,7.259114583333333,0)" xlink:href="#bY"/><use transform="matrix(0.010850694444444444,0,0,0.010850694444444444,19.498697916666664,0)" xlink:href="#bX"/></g><path fill="#333" d="M277-555c0 244 77 420 297 424 127 2 249-93 255-210h175C980-127 805 20 574 20 258 20 81-222 92-562c11-319 164-533 481-540 237-5 426 165 431 392H829c-7-133-115-242-256-240-209 4-296 166-296 395" id="cg"/><g id="ag"><use transform="matrix(0.010850694444444444,0,0,0.010850694444444444,0,0)" xlink:href="#cg"/><use transform="matrix(0.010850694444444444,0,0,0.010850694444444444,11.631944444444445,0)" xlink:href="#bT"/><use transform="matrix(0.010850694444444444,0,0,0.010850694444444444,17.024739583333332,0)" xlink:href="#bU"/><use transform="matrix(0.010850694444444444,0,0,0.010850694444444444,22.41753472222222,0)" xlink:href="#cd"/><use transform="matrix(0.010850694444444444,0,0,0.010850694444444444,34.67881944444444,0)" xlink:href="#bU"/><use transform="matrix(0.010850694444444444,0,0,0.010850694444444444,40.07161458333333,0)" xlink:href="#cg"/><use transform="matrix(0.010850694444444444,0,0,0.010850694444444444,51.70355902777778,0)" xlink:href="#bS"/><use transform="matrix(0.010850694444444444,0,0,0.010850694444444444,63.791232638888886,0)" xlink:href="#bT"/></g><path fill="#333" d="M1240-945c-141 0-250 95-250 227V0H804v-709c0-157-77-236-231-236-121 0-204 52-249 155V0H139v-1082h175l5 120c79-93 186-140 321-140 151 0 254 58 309 174 69-98 181-174 345-174 237 0 362 126 362 377V0h-185v-714c-2-159-67-231-231-231" id="ch"/><path fill="#333" d="M538-131c121 0 232-49 232-156 0-50-20-88-56-117-73-60-334-92-420-143-92-55-162-110-162-238 0-190 192-317 400-317 223 0 414 129 413 338H759c0-108-110-186-227-186-119 0-215 53-215 159 0 45 18 78 53 101 76 52 331 90 416 139 98 57 169 115 169 251C955-92 760 20 538 20c-176 0-314-68-386-174-38-55-57-115-57-179h185c6 129 116 202 258 202" id="ci"/><g id="ah"><use transform="matrix(0.010850694444444444,0,0,0.010850694444444444,0,0)" xlink:href="#cg"/><use transform="matrix(0.010850694444444444,0,0,0.010850694444444444,11.631944444444445,0)" xlink:href="#bY"/><use transform="matrix(0.010850694444444444,0,0,0.010850694444444444,23.87152777777778,0)" xlink:href="#bX"/><use transform="matrix(0.010850694444444444,0,0,0.010850694444444444,35.64453125,0)" xlink:href="#ch"/><use transform="matrix(0.010850694444444444,0,0,0.010850694444444444,55.12152777777778,0)" xlink:href="#bU"/><use transform="matrix(0.010850694444444444,0,0,0.010850694444444444,60.514322916666664,0)" xlink:href="#ci"/><use transform="matrix(0.010850694444444444,0,0,0.010850694444444444,71.97265625,0)" xlink:href="#bW"/><use transform="matrix(0.010850694444444444,0,0,0.010850694444444444,79.23177083333333,0)" xlink:href="#cb"/><use transform="matrix(0.010850694444444444,0,0,0.010850694444444444,86.94661458333333,0)" xlink:href="#cf"/></g><path fill="#333" d="M521 20C240 20 96-239 96-550c0-303 147-552 427-552 132 0 235 47 309 140l9-120h169V-26c4 277-183 454-459 452-165-1-334-81-400-187l96-111c79 98 176 147 291 147 180 1 288-109 286-290v-93C750-23 649 20 521 20zm48-965c-209 0-287 178-287 416 0 217 86 392 285 392 117 0 202-53 257-159v-494c-57-103-142-155-255-155" id="cj"/><g id="ai"><use transform="matrix(0.010850694444444444,0,0,0.010850694444444444,0,0)" xlink:href="#bW"/><use transform="matrix(0.010850694444444444,0,0,0.010850694444444444,7.259114583333333,0)" xlink:href="#bX"/><use transform="matrix(0.010850694444444444,0,0,0.010850694444444444,19.032118055555554,0)" xlink:href="#cg"/><use transform="matrix(0.010850694444444444,0,0,0.010850694444444444,30.6640625,0)" xlink:href="#bY"/><use transform="matrix(0.010850694444444444,0,0,0.010850694444444444,42.90364583333333,0)" xlink:href="#cd"/><use transform="matrix(0.010850694444444444,0,0,0.010850694444444444,55.16493055555556,0)" xlink:href="#ca"/><use transform="matrix(0.010850694444444444,0,0,0.010850694444444444,67.83854166666666,0)" xlink:href="#bT"/><use transform="matrix(0.010850694444444444,0,0,0.010850694444444444,73.23133680555554,0)" xlink:href="#ca"/><use transform="matrix(0.010850694444444444,0,0,0.010850694444444444,85.90494791666666,0)" xlink:href="#cj"/><use transform="matrix(0.010850694444444444,0,0,0.010850694444444444,98.37239583333333,0)" xlink:href="#bU"/><use transform="matrix(0.010850694444444444,0,0,0.010850694444444444,103.76519097222221,0)" xlink:href="#ci"/><use transform="matrix(0.010850694444444444,0,0,0.010850694444444444,115.22352430555556,0)" xlink:href="#bW"/></g><g id="aj"><use transform="matrix(0.010850694444444444,0,0,0.010850694444444444,0,0)" xlink:href="#bS"/><use transform="matrix(0.010850694444444444,0,0,0.010850694444444444,12.08767361111111,0)" xlink:href="#cd"/><use transform="matrix(0.010850694444444444,0,0,0.010850694444444444,24.348958333333332,0)" xlink:href="#bV"/></g><path fill="#333" d="M632-1102c291 0 422 251 422 573 0 297-141 548-419 549-131 0-235-42-310-125v521H140v-1498h169l9 120c75-93 180-140 314-140zm-53 971c207 0 290-180 290-419 0-218-92-395-292-395-112 0-196 50-252 149v517c55 99 140 148 254 148" id="ck"/><g id="ak"><use transform="matrix(0.010850694444444444,0,0,0.010850694444444444,0,0)" xlink:href="#ci"/><use transform="matrix(0.010850694444444444,0,0,0.010850694444444444,11.458333333333332,0)" xlink:href="#ck"/><use transform="matrix(0.010850694444444444,0,0,0.010850694444444444,23.92578125,0)" xlink:href="#bX"/><use transform="matrix(0.010850694444444444,0,0,0.010850694444444444,35.69878472222222,0)" xlink:href="#cg"/><use transform="matrix(0.010850694444444444,0,0,0.010850694444444444,47.330729166666664,0)" xlink:href="#bU"/><use transform="matrix(0.010850694444444444,0,0,0.010850694444444444,52.72352430555556,0)" xlink:href="#bS"/><use transform="matrix(0.010850694444444444,0,0,0.010850694444444444,64.81119791666666,0)" xlink:href="#bT"/><use transform="matrix(0.010850694444444444,0,0,0.010850694444444444,70.20399305555554,0)" xlink:href="#bU"/><use transform="matrix(0.010850694444444444,0,0,0.010850694444444444,75.59678819444443,0)" xlink:href="#ci"/><use transform="matrix(0.010850694444444444,0,0,0.010850694444444444,87.05512152777776,0)" xlink:href="#bW"/></g><path fill="#333" d="M258 11c-71 0-114-43-114-108 0-67 42-112 114-112s116 45 116 112c-1 65-45 108-116 108" id="cl"/><g id="al"><use transform="matrix(0.010850694444444444,0,0,0.010850694444444444,0,0)" xlink:href="#bV"/><use transform="matrix(0.010850694444444444,0,0,0.010850694444444444,12.532552083333332,0)" xlink:href="#ca"/><use transform="matrix(0.010850694444444444,0,0,0.010850694444444444,25.206163194444443,0)" xlink:href="#cg"/><use transform="matrix(0.010850694444444444,0,0,0.010850694444444444,36.838107638888886,0)" xlink:href="#bW"/><use transform="matrix(0.010850694444444444,0,0,0.010850694444444444,43.880208333333336,0)" xlink:href="#ca"/><use transform="matrix(0.010850694444444444,0,0,0.010850694444444444,56.55381944444444,0)" xlink:href="#cb"/><use transform="matrix(0.010850694444444444,0,0,0.010850694444444444,62.73871527777778,0)" xlink:href="#cl"/></g><path fill="#333" d="M185-189c-5-48-123-54-124 2 14 75 158 14 163 119 3 78-121 87-175 55-17-10-28-26-33-46l33-7c5 56 141 63 141-1 0-78-155-14-162-118-5-82 145-84 179-34 5 7 8 16 11 25" id="cm"/><g id="am"><use transform="matrix(0.061728395061728385,0,0,0.061728395061728385,0,0)" xlink:href="#cm"/><use transform="matrix(0.061728395061728385,0,0,0.061728395061728385,14.814814814814813,0)" xlink:href="#bk"/><use transform="matrix(0.061728395061728385,0,0,0.061728395061728385,27.16049382716049,0)" xlink:href="#bi"/><use transform="matrix(0.061728395061728385,0,0,0.061728395061728385,39.50617283950616,0)" xlink:href="#bj"/><use transform="matrix(0.061728395061728385,0,0,0.061728395061728385,50.61728395061727,0)" xlink:href="#bl"/><use transform="matrix(0.061728395061728385,0,0,0.061728395061728385,55.493827160493815,0)" xlink:href="#bw"/><use transform="matrix(0.061728395061728385,0,0,0.061728395061728385,67.83950617283949,0)" xlink:href="#by"/><use transform="matrix(0.061728395061728385,0,0,0.061728395061728385,72.71604938271604,0)" xlink:href="#bl"/><use transform="matrix(0.061728395061728385,0,0,0.061728395061728385,77.59259259259258,0)" xlink:href="#bo"/><use transform="matrix(0.061728395061728385,0,0,0.061728395061728385,88.7037037037037,0)" xlink:href="#bp"/></g><path fill="#333" d="M30-248c118-7 216 8 213 122C240-48 200 0 122 0H30v-248zM63-27c89 8 146-16 146-99s-60-101-146-95v194" id="cn"/><g id="an"><use transform="matrix(0.061728395061728385,0,0,0.061728395061728385,0,0)" xlink:href="#cn"/><use transform="matrix(0.061728395061728385,0,0,0.061728395061728385,15.987654320987652,0)" xlink:href="#bm"/><use transform="matrix(0.061728395061728385,0,0,0.061728395061728385,28.33333333333333,0)" xlink:href="#bj"/><use transform="matrix(0.061728395061728385,0,0,0.061728395061728385,39.444444444444436,0)" xlink:href="#bp"/><use transform="matrix(0.061728395061728385,0,0,0.061728395061728385,45.61728395061728,0)" xlink:href="#bm"/><use transform="matrix(0.061728395061728385,0,0,0.061728395061728385,57.962962962962955,0)" xlink:href="#bv"/></g><g id="ao"><use transform="matrix(0.06172839506172839,0,0,0.06172839506172839,0,0)" xlink:href="#bN"/><use transform="matrix(0.06172839506172839,0,0,0.06172839506172839,12.345679012345679,0)" xlink:href="#bz"/><use transform="matrix(0.06172839506172839,0,0,0.06172839506172839,24.691358024691358,0)" xlink:href="#bt"/></g><g id="ap"><use transform="matrix(0.06172839506172839,0,0,0.06172839506172839,0,0)" xlink:href="#bE"/><use transform="matrix(0.06172839506172839,0,0,0.06172839506172839,18.456790123456788,0)" xlink:href="#bw"/><use transform="matrix(0.06172839506172839,0,0,0.06172839506172839,30.80246913580247,0)" xlink:href="#bL"/><use transform="matrix(0.06172839506172839,0,0,0.06172839506172839,41.91358024691358,0)" xlink:href="#bi"/></g><g id="aq"><use transform="matrix(0.06172839506172839,0,0,0.06172839506172839,0,0)" xlink:href="#bD"/><use transform="matrix(0.06172839506172839,0,0,0.06172839506172839,12.345679012345679,0)" xlink:href="#bl"/><use transform="matrix(0.06172839506172839,0,0,0.06172839506172839,17.22222222222222,0)" xlink:href="#bw"/><use transform="matrix(0.06172839506172839,0,0,0.06172839506172839,29.5679012345679,0)" xlink:href="#bu"/><use transform="matrix(0.06172839506172839,0,0,0.06172839506172839,41.913580246913575,0)" xlink:href="#bn"/><use transform="matrix(0.06172839506172839,0,0,0.06172839506172839,54.25925925925925,0)" xlink:href="#bm"/><use transform="matrix(0.06172839506172839,0,0,0.06172839506172839,66.60493827160494,0)" xlink:href="#bo"/><use transform="matrix(0.06172839506172839,0,0,0.06172839506172839,77.71604938271605,0)" xlink:href="#bl"/><use transform="matrix(0.06172839506172839,0,0,0.06172839506172839,82.5925925925926,0)" xlink:href="#bo"/></g><g id="ar"><use transform="matrix(0.06172839506172839,0,0,0.06172839506172839,0,0)" xlink:href="#bw"/><use transform="matrix(0.06172839506172839,0,0,0.06172839506172839,12.345679012345679,0)" xlink:href="#bn"/><use transform="matrix(0.06172839506172839,0,0,0.06172839506172839,24.691358024691358,0)" xlink:href="#bD"/></g><g id="as"><use transform="matrix(0.06172839506172839,0,0,0.06172839506172839,0,0)" xlink:href="#bx"/><use transform="matrix(0.06172839506172839,0,0,0.06172839506172839,15.987654320987653,0)" xlink:href="#bv"/><use transform="matrix(0.06172839506172839,0,0,0.06172839506172839,23.333333333333332,0)" xlink:href="#bl"/><use transform="matrix(0.06172839506172839,0,0,0.06172839506172839,28.209876543209873,0)" xlink:href="#bp"/><use transform="matrix(0.06172839506172839,0,0,0.06172839506172839,34.382716049382715,0)" xlink:href="#bi"/></g><g id="at"><use transform="matrix(0.06172839506172839,0,0,0.06172839506172839,0,0)" xlink:href="#bv"/><use transform="matrix(0.06172839506172839,0,0,0.06172839506172839,7.345679012345679,0)" xlink:href="#bi"/><use transform="matrix(0.06172839506172839,0,0,0.06172839506172839,19.691358024691358,0)" xlink:href="#bk"/><use transform="matrix(0.06172839506172839,0,0,0.06172839506172839,32.03703703703704,0)" xlink:href="#bm"/><use transform="matrix(0.06172839506172839,0,0,0.06172839506172839,44.382716049382715,0)" xlink:href="#bv"/><use transform="matrix(0.06172839506172839,0,0,0.06172839506172839,51.72839506172839,0)" xlink:href="#bp"/></g><g id="au"><use transform="matrix(0.06172839506172839,0,0,0.06172839506172839,0,0)" xlink:href="#bB"/><use transform="matrix(0.06172839506172839,0,0,0.06172839506172839,6.172839506172839,0)" xlink:href="#bm"/><use transform="matrix(0.06172839506172839,0,0,0.06172839506172839,18.51851851851852,0)" xlink:href="#bv"/></g><g id="av"><use transform="matrix(0.06172839506172839,0,0,0.06172839506172839,0,0)" xlink:href="#bu"/><use transform="matrix(0.06172839506172839,0,0,0.06172839506172839,12.345679012345679,0)" xlink:href="#bl"/><use transform="matrix(0.06172839506172839,0,0,0.06172839506172839,17.22222222222222,0)" xlink:href="#bH"/><use transform="matrix(0.06172839506172839,0,0,0.06172839506172839,28.333333333333332,0)" xlink:href="#bi"/><use transform="matrix(0.06172839506172839,0,0,0.06172839506172839,40.67901234567901,0)" xlink:href="#bn"/></g><g id="aw"><use transform="matrix(0.061728395061728385,0,0,0.061728395061728385,0,0)" xlink:href="#br"/><use transform="matrix(0.061728395061728385,0,0,0.061728395061728385,15.987654320987652,0)" xlink:href="#by"/><use transform="matrix(0.061728395061728385,0,0,0.061728395061728385,20.864197530864196,0)" xlink:href="#bl"/><use transform="matrix(0.061728395061728385,0,0,0.061728395061728385,25.74074074074074,0)" xlink:href="#bi"/><use transform="matrix(0.061728395061728385,0,0,0.061728395061728385,38.08641975308642,0)" xlink:href="#bn"/><use transform="matrix(0.061728395061728385,0,0,0.061728395061728385,50.432098765432094,0)" xlink:href="#bp"/></g><g id="ax"><use transform="matrix(0.061728395061728385,0,0,0.061728395061728385,0,0)" xlink:href="#br"/><use transform="matrix(0.061728395061728385,0,0,0.061728395061728385,15.987654320987652,0)" xlink:href="#bm"/><use transform="matrix(0.061728395061728385,0,0,0.061728395061728385,28.33333333333333,0)" xlink:href="#bC"/><use transform="matrix(0.061728395061728385,0,0,0.061728395061728385,46.79012345679011,0)" xlink:href="#bk"/><use transform="matrix(0.061728395061728385,0,0,0.061728395061728385,59.13580246913579,0)" xlink:href="#bw"/><use transform="matrix(0.061728395061728385,0,0,0.061728395061728385,71.48148148148147,0)" xlink:href="#bn"/><use transform="matrix(0.061728395061728385,0,0,0.061728395061728385,83.82716049382714,0)" xlink:href="#bI"/></g><g id="ay"><use transform="matrix(0.061728395061728385,0,0,0.061728395061728385,0,0)" xlink:href="#bN"/><use transform="matrix(0.061728395061728385,0,0,0.061728395061728385,12.345679012345677,0)" xlink:href="#bs"/><use transform="matrix(0.061728395061728385,0,0,0.061728395061728385,24.691358024691354,0)" xlink:href="#bt"/></g><path fill="#333" d="M143 4C61 4 22-44 18-125c-5-107 100-154 193-111 17 8 29 25 37 43l-32 9c-13-25-37-40-76-40-61 0-88 39-88 99 0 61 29 100 91 101 35 0 62-11 79-27v-45h-74v-28h105v86C228-13 192 4 143 4" id="co"/><g id="az"><use transform="matrix(0.061728395061728385,0,0,0.061728395061728385,0,0)" xlink:href="#co"/><use transform="matrix(0.061728395061728385,0,0,0.061728395061728385,17.28395061728395,0)" xlink:href="#bi"/><use transform="matrix(0.061728395061728385,0,0,0.061728395061728385,29.629629629629626,0)" xlink:href="#bn"/><use transform="matrix(0.061728395061728385,0,0,0.061728395061728385,41.9753086419753,0)" xlink:href="#bi"/><use transform="matrix(0.061728395061728385,0,0,0.061728395061728385,54.32098765432098,0)" xlink:href="#bv"/><use transform="matrix(0.061728395061728385,0,0,0.061728395061728385,61.66666666666666,0)" xlink:href="#bw"/><use transform="matrix(0.061728395061728385,0,0,0.061728395061728385,74.01234567901233,0)" xlink:href="#bp"/><use transform="matrix(0.061728395061728385,0,0,0.061728395061728385,80.18518518518516,0)" xlink:href="#bi"/></g><g id="aA"><use transform="matrix(0.061728395061728385,0,0,0.061728395061728385,0,0)" xlink:href="#bD"/><use transform="matrix(0.061728395061728385,0,0,0.061728395061728385,12.345679012345677,0)" xlink:href="#bw"/><use transform="matrix(0.061728395061728385,0,0,0.061728395061728385,24.691358024691354,0)" xlink:href="#bl"/><use transform="matrix(0.061728395061728385,0,0,0.061728395061728385,29.5679012345679,0)" xlink:href="#by"/><use transform="matrix(0.061728395061728385,0,0,0.061728395061728385,34.44444444444444,0)" xlink:href="#bI"/></g><g id="aB"><use transform="matrix(0.061728395061728385,0,0,0.061728395061728385,0,0)" xlink:href="#bw"/><use transform="matrix(0.061728395061728385,0,0,0.061728395061728385,12.345679012345677,0)" xlink:href="#bM"/><use transform="matrix(0.061728395061728385,0,0,0.061728395061728385,24.691358024691354,0)" xlink:href="#bp"/><use transform="matrix(0.061728395061728385,0,0,0.061728395061728385,30.864197530864192,0)" xlink:href="#bm"/><use transform="matrix(0.061728395061728385,0,0,0.061728395061728385,43.20987654320987,0)" xlink:href="#bC"/><use transform="matrix(0.061728395061728385,0,0,0.061728395061728385,61.66666666666666,0)" xlink:href="#bw"/><use transform="matrix(0.061728395061728385,0,0,0.061728395061728385,74.01234567901233,0)" xlink:href="#bp"/><use transform="matrix(0.061728395061728385,0,0,0.061728395061728385,80.18518518518516,0)" xlink:href="#bl"/><use transform="matrix(0.061728395061728385,0,0,0.061728395061728385,85.0617283950617,0)" xlink:href="#bj"/></g><g id="aC"><use transform="matrix(0.061728395061728385,0,0,0.061728395061728385,0,0)" xlink:href="#bv"/><use transform="matrix(0.061728395061728385,0,0,0.061728395061728385,7.345679012345678,0)" xlink:href="#bi"/><use transform="matrix(0.061728395061728385,0,0,0.061728395061728385,19.691358024691354,0)" xlink:href="#bk"/><use transform="matrix(0.061728395061728385,0,0,0.061728395061728385,32.03703703703703,0)" xlink:href="#bm"/><use transform="matrix(0.061728395061728385,0,0,0.061728395061728385,44.38271604938271,0)" xlink:href="#bv"/><use transform="matrix(0.061728395061728385,0,0,0.061728395061728385,51.728395061728385,0)" xlink:href="#bp"/><use transform="matrix(0.061728395061728385,0,0,0.061728395061728385,57.90123456790123,0)" xlink:href="#bo"/></g><path fill="#333" d="M205 0l-28-72H64L36 0H1l101-248h38L239 0h-34zm-38-99l-47-123c-12 45-31 82-46 123h93" id="cp"/><g id="aD"><use transform="matrix(0.061728395061728385,0,0,0.061728395061728385,0,0)" xlink:href="#cp"/><use transform="matrix(0.061728395061728385,0,0,0.061728395061728385,14.814814814814813,0)" xlink:href="#bD"/><use transform="matrix(0.061728395061728385,0,0,0.061728395061728385,27.16049382716049,0)" xlink:href="#bC"/><use transform="matrix(0.061728395061728385,0,0,0.061728395061728385,45.61728395061728,0)" xlink:href="#bl"/><use transform="matrix(0.061728395061728385,0,0,0.061728395061728385,50.49382716049382,0)" xlink:href="#bn"/><use transform="matrix(0.061728395061728385,0,0,0.061728395061728385,62.8395061728395,0)" xlink:href="#bl"/><use transform="matrix(0.061728395061728385,0,0,0.061728395061728385,67.71604938271604,0)" xlink:href="#bo"/><use transform="matrix(0.061728395061728385,0,0,0.061728395061728385,78.82716049382715,0)" xlink:href="#bp"/><use transform="matrix(0.061728395061728385,0,0,0.061728395061728385,84.99999999999999,0)" xlink:href="#bv"/><use transform="matrix(0.061728395061728385,0,0,0.061728395061728385,92.34567901234567,0)" xlink:href="#bw"/><use transform="matrix(0.061728395061728385,0,0,0.061728395061728385,104.69135802469134,0)" xlink:href="#bp"/><use transform="matrix(0.061728395061728385,0,0,0.061728395061728385,110.86419753086417,0)" xlink:href="#bm"/><use transform="matrix(0.061728395061728385,0,0,0.061728395061728385,123.20987654320984,0)" xlink:href="#bv"/></g><path fill="#333" d="M134-131c28 9 52 24 51 62-1 50-34 73-85 73S17-19 16-69c0-36 21-54 49-61-75-25-45-126 34-121 46 3 78 18 79 63 0 33-17 51-44 57zm-34-11c31 1 46-15 46-44 0-28-17-43-47-42-29 0-46 13-45 42 1 28 16 44 46 44zm1 122c35 0 51-18 51-52 0-30-18-46-53-46-33 0-51 17-51 47 0 34 19 51 53 51" id="cq"/><use transform="matrix(0.061728395061728385,0,0,0.061728395061728385,0,0)" xlink:href="#cq" id="aE"/><use transform="matrix(0.061728395061728385,0,0,0.061728395061728385,0,0)" xlink:href="#bt" id="aF"/><g id="aG"><use transform="matrix(0.061728395061728385,0,0,0.061728395061728385,0,0)" xlink:href="#bh"/><use transform="matrix(0.061728395061728385,0,0,0.061728395061728385,15.987654320987652,0)" xlink:href="#bi"/><use transform="matrix(0.061728395061728385,0,0,0.061728395061728385,28.33333333333333,0)" xlink:href="#bu"/><use transform="matrix(0.061728395061728385,0,0,0.061728395061728385,40.679012345679006,0)" xlink:href="#bl"/><use transform="matrix(0.061728395061728385,0,0,0.061728395061728385,45.55555555555555,0)" xlink:href="#bo"/><use transform="matrix(0.061728395061728385,0,0,0.061728395061728385,56.66666666666666,0)" xlink:href="#bp"/><use transform="matrix(0.061728395061728385,0,0,0.061728395061728385,62.83950617283949,0)" xlink:href="#bi"/><use transform="matrix(0.061728395061728385,0,0,0.061728395061728385,75.18518518518516,0)" xlink:href="#bv"/></g><use transform="matrix(0.061728395061728385,0,0,0.061728395061728385,0,0)" xlink:href="#bw" id="aH"/><g id="aI"><use transform="matrix(0.061728395061728385,0,0,0.061728395061728385,0,0)" xlink:href="#bn"/><use transform="matrix(0.061728395061728385,0,0,0.061728395061728385,12.345679012345677,0)" xlink:href="#bi"/><use transform="matrix(0.061728395061728385,0,0,0.061728395061728385,24.691358024691354,0)" xlink:href="#bx"/></g><g id="aJ"><use transform="matrix(0.061728395061728385,0,0,0.061728395061728385,0,0)" xlink:href="#bj"/><use transform="matrix(0.061728395061728385,0,0,0.061728395061728385,11.111111111111109,0)" xlink:href="#by"/><use transform="matrix(0.061728395061728385,0,0,0.061728395061728385,15.987654320987652,0)" xlink:href="#bl"/><use transform="matrix(0.061728395061728385,0,0,0.061728395061728385,20.864197530864196,0)" xlink:href="#bn"/><use transform="matrix(0.061728395061728385,0,0,0.061728395061728385,33.20987654320987,0)" xlink:href="#bl"/><use transform="matrix(0.061728395061728385,0,0,0.061728395061728385,38.08641975308642,0)" xlink:href="#bj"/><use transform="matrix(0.061728395061728385,0,0,0.061728395061728385,49.197530864197525,0)" xlink:href="#bw"/><use transform="matrix(0.061728395061728385,0,0,0.061728395061728385,61.5432098765432,0)" xlink:href="#by"/></g><g id="aK"><use transform="matrix(0.061728395061728385,0,0,0.061728395061728385,0,0)" xlink:href="#bw"/><use transform="matrix(0.061728395061728385,0,0,0.061728395061728385,12.345679012345677,0)" xlink:href="#bn"/><use transform="matrix(0.061728395061728385,0,0,0.061728395061728385,24.691358024691354,0)" xlink:href="#bw"/><use transform="matrix(0.061728395061728385,0,0,0.061728395061728385,37.03703703703703,0)" xlink:href="#by"/><use transform="matrix(0.061728395061728385,0,0,0.061728395061728385,41.913580246913575,0)" xlink:href="#bI"/><use transform="matrix(0.061728395061728385,0,0,0.061728395061728385,53.02469135802468,0)" xlink:href="#bo"/><use transform="matrix(0.061728395061728385,0,0,0.061728395061728385,64.1358024691358,0)" xlink:href="#bl"/><use transform="matrix(0.061728395061728385,0,0,0.061728395061728385,69.01234567901234,0)" xlink:href="#bo"/></g><g id="aL"><use transform="matrix(0.061728395061728385,0,0,0.061728395061728385,0,0)" xlink:href="#by"/><use transform="matrix(0.061728395061728385,0,0,0.061728395061728385,4.876543209876543,0)" xlink:href="#bw"/><use transform="matrix(0.061728395061728385,0,0,0.061728395061728385,17.22222222222222,0)" xlink:href="#bA"/><use transform="matrix(0.061728395061728385,0,0,0.061728395061728385,29.5679012345679,0)" xlink:href="#bm"/><use transform="matrix(0.061728395061728385,0,0,0.061728395061728385,41.913580246913575,0)" xlink:href="#bv"/><use transform="matrix(0.061728395061728385,0,0,0.061728395061728385,49.25925925925925,0)" xlink:href="#bw"/><use transform="matrix(0.061728395061728385,0,0,0.061728395061728385,61.60493827160493,0)" xlink:href="#bp"/><use transform="matrix(0.061728395061728385,0,0,0.061728395061728385,67.77777777777777,0)" xlink:href="#bm"/><use transform="matrix(0.061728395061728385,0,0,0.061728395061728385,80.12345679012344,0)" xlink:href="#bv"/><use transform="matrix(0.061728395061728385,0,0,0.061728395061728385,87.46913580246913,0)" xlink:href="#bI"/></g><g id="aM"><use transform="matrix(0.061728395061728385,0,0,0.061728395061728385,0,0)" xlink:href="#bw"/><use transform="matrix(0.061728395061728385,0,0,0.061728395061728385,12.345679012345677,0)" xlink:href="#bn"/><use transform="matrix(0.061728395061728385,0,0,0.061728395061728385,24.691358024691354,0)" xlink:href="#bD"/></g><g id="aN"><use transform="matrix(0.061728395061728385,0,0,0.061728395061728385,0,0)" xlink:href="#bo"/><use transform="matrix(0.061728395061728385,0,0,0.061728395061728385,11.111111111111109,0)" xlink:href="#bp"/><use transform="matrix(0.061728395061728385,0,0,0.061728395061728385,17.28395061728395,0)" xlink:href="#bw"/><use transform="matrix(0.061728395061728385,0,0,0.061728395061728385,29.629629629629626,0)" xlink:href="#bp"/><use transform="matrix(0.061728395061728385,0,0,0.061728395061728385,35.80246913580247,0)" xlink:href="#bi"/></g><g id="aO"><use transform="matrix(0.061728395061728385,0,0,0.061728395061728385,0,0)" xlink:href="#bp"/><use transform="matrix(0.061728395061728385,0,0,0.061728395061728385,6.1728395061728385,0)" xlink:href="#bF"/><use transform="matrix(0.061728395061728385,0,0,0.061728395061728385,18.518518518518515,0)" xlink:href="#bi"/><use transform="matrix(0.061728395061728385,0,0,0.061728395061728385,30.864197530864192,0)" xlink:href="#bl"/><use transform="matrix(0.061728395061728385,0,0,0.061728395061728385,35.74074074074073,0)" xlink:href="#bv"/></g><g id="aP"><use transform="matrix(0.061728395061728385,0,0,0.061728395061728385,0,0)" xlink:href="#bp"/><use transform="matrix(0.061728395061728385,0,0,0.061728395061728385,6.1728395061728385,0)" xlink:href="#bi"/><use transform="matrix(0.061728395061728385,0,0,0.061728395061728385,18.518518518518515,0)" xlink:href="#bo"/><use transform="matrix(0.061728395061728385,0,0,0.061728395061728385,29.629629629629626,0)" xlink:href="#bp"/><use transform="matrix(0.061728395061728385,0,0,0.061728395061728385,35.80246913580247,0)" xlink:href="#bo"/></g><path fill="#333" d="M99-251c64 0 84 50 84 122C183-37 130 33 47-8c-14-7-20-23-25-40l30-5c6 39 69 39 84 7 9-19 16-44 16-74-10 22-31 35-62 35-49 0-73-33-73-83 0-54 28-83 82-83zm-1 141c31-1 51-18 51-49 0-36-14-67-51-67-34 0-49 23-49 58 0 34 15 58 49 58" id="cr"/><use transform="matrix(0.061728395061728385,0,0,0.061728395061728385,0,0)" xlink:href="#cr" id="aQ"/><g id="aR"><use transform="matrix(0.061728395061728385,0,0,0.061728395061728385,0,0)" xlink:href="#cm"/><use transform="matrix(0.061728395061728385,0,0,0.061728395061728385,14.814814814814813,0)" xlink:href="#bk"/><use transform="matrix(0.061728395061728385,0,0,0.061728395061728385,27.16049382716049,0)" xlink:href="#bi"/><use transform="matrix(0.061728395061728385,0,0,0.061728395061728385,39.50617283950616,0)" xlink:href="#bj"/><use transform="matrix(0.061728395061728385,0,0,0.061728395061728385,50.61728395061727,0)" xlink:href="#bl"/><use transform="matrix(0.061728395061728385,0,0,0.061728395061728385,55.493827160493815,0)" xlink:href="#bB"/><use transform="matrix(0.061728395061728385,0,0,0.061728395061728385,61.66666666666666,0)" xlink:href="#bI"/></g><g id="aS"><use transform="matrix(0.061728395061728385,0,0,0.061728395061728385,0,0)" xlink:href="#bn"/><use transform="matrix(0.061728395061728385,0,0,0.061728395061728385,12.345679012345677,0)" xlink:href="#bi"/><use transform="matrix(0.061728395061728385,0,0,0.061728395061728385,24.691358024691354,0)" xlink:href="#bx"/></g><g id="aT"><use transform="matrix(0.061728395061728385,0,0,0.061728395061728385,0,0)" xlink:href="#bp"/><use transform="matrix(0.061728395061728385,0,0,0.061728395061728385,6.1728395061728385,0)" xlink:href="#bI"/><use transform="matrix(0.061728395061728385,0,0,0.061728395061728385,17.28395061728395,0)" xlink:href="#bk"/><use transform="matrix(0.061728395061728385,0,0,0.061728395061728385,29.629629629629626,0)" xlink:href="#bi"/></g><g id="aU"><use transform="matrix(0.061728395061728385,0,0,0.061728395061728385,0,0)" xlink:href="#bm"/><use transform="matrix(0.061728395061728385,0,0,0.061728395061728385,12.345679012345677,0)" xlink:href="#bB"/></g><g id="aV"><use transform="matrix(0.061728395061728385,0,0,0.061728395061728385,0,0)" xlink:href="#bp"/><use transform="matrix(0.061728395061728385,0,0,0.061728395061728385,6.1728395061728385,0)" xlink:href="#bi"/><use transform="matrix(0.061728395061728385,0,0,0.061728395061728385,18.518518518518515,0)" xlink:href="#bo"/><use transform="matrix(0.061728395061728385,0,0,0.061728395061728385,29.629629629629626,0)" xlink:href="#bp"/></g><g id="aW"><use transform="matrix(0.061728395061728385,0,0,0.061728395061728385,0,0)" xlink:href="#bw"/><use transform="matrix(0.061728395061728385,0,0,0.061728395061728385,12.345679012345677,0)" xlink:href="#bn"/><use transform="matrix(0.061728395061728385,0,0,0.061728395061728385,24.691358024691354,0)" xlink:href="#bD"/></g><g id="aX"><use transform="matrix(0.061728395061728385,0,0,0.061728395061728385,0,0)" xlink:href="#bj"/><use transform="matrix(0.061728395061728385,0,0,0.061728395061728385,11.111111111111109,0)" xlink:href="#bm"/><use transform="matrix(0.061728395061728385,0,0,0.061728395061728385,23.456790123456784,0)" xlink:href="#by"/><use transform="matrix(0.061728395061728385,0,0,0.061728395061728385,28.33333333333333,0)" xlink:href="#by"/><use transform="matrix(0.061728395061728385,0,0,0.061728395061728385,33.20987654320987,0)" xlink:href="#bi"/><use transform="matrix(0.061728395061728385,0,0,0.061728395061728385,45.55555555555555,0)" xlink:href="#bj"/><use transform="matrix(0.061728395061728385,0,0,0.061728395061728385,56.66666666666666,0)" xlink:href="#bp"/><use transform="matrix(0.061728395061728385,0,0,0.061728395061728385,62.83950617283949,0)" xlink:href="#bl"/><use transform="matrix(0.061728395061728385,0,0,0.061728395061728385,67.71604938271604,0)" xlink:href="#bm"/><use transform="matrix(0.061728395061728385,0,0,0.061728395061728385,80.06172839506172,0)" xlink:href="#bn"/></g><g id="aY"><use transform="matrix(0.061728395061728385,0,0,0.061728395061728385,0,0)" xlink:href="#bC"/><use transform="matrix(0.061728395061728385,0,0,0.061728395061728385,18.456790123456788,0)" xlink:href="#bi"/><use transform="matrix(0.061728395061728385,0,0,0.061728395061728385,30.802469135802465,0)" xlink:href="#bp"/><use transform="matrix(0.061728395061728385,0,0,0.061728395061728385,36.9753086419753,0)" xlink:href="#bF"/><use transform="matrix(0.061728395061728385,0,0,0.061728395061728385,49.32098765432098,0)" xlink:href="#bm"/><use transform="matrix(0.061728395061728385,0,0,0.061728395061728385,61.66666666666666,0)" xlink:href="#bD"/><use transform="matrix(0.061728395061728385,0,0,0.061728395061728385,74.01234567901233,0)" xlink:href="#bo"/></g><path fill="#333" d="M101-251c68 0 85 55 85 127S166 4 100 4C33 4 14-52 14-124c0-73 17-127 87-127zm-1 229c47 0 54-49 54-102s-4-102-53-102c-51 0-55 48-55 102 0 53 5 102 54 102" id="cs"/><g id="aZ"><use transform="matrix(0.061728395061728385,0,0,0.061728395061728385,0,0)" xlink:href="#bN"/><use transform="matrix(0.061728395061728385,0,0,0.061728395061728385,12.345679012345677,0)" xlink:href="#cs"/></g><g id="ba"><use transform="matrix(0.061728395061728385,0,0,0.061728395061728385,0,0)" xlink:href="#bk"/><use transform="matrix(0.061728395061728385,0,0,0.061728395061728385,12.345679012345677,0)" xlink:href="#bw"/><use transform="matrix(0.061728395061728385,0,0,0.061728395061728385,24.691358024691354,0)" xlink:href="#bv"/><use transform="matrix(0.061728395061728385,0,0,0.061728395061728385,32.03703703703703,0)" xlink:href="#bw"/><use transform="matrix(0.061728395061728385,0,0,0.061728395061728385,44.38271604938271,0)" xlink:href="#bC"/><use transform="matrix(0.061728395061728385,0,0,0.061728395061728385,62.83950617283949,0)" xlink:href="#bi"/><use transform="matrix(0.061728395061728385,0,0,0.061728395061728385,75.18518518518516,0)" xlink:href="#bp"/><use transform="matrix(0.061728395061728385,0,0,0.061728395061728385,81.358024691358,0)" xlink:href="#bi"/><use transform="matrix(0.061728395061728385,0,0,0.061728395061728385,93.70370370370367,0)" xlink:href="#bv"/></g><path fill="#333" d="M9 0v-24l116-142H16v-24h144v24L44-24h123V0H9" id="ct"/><g id="bb"><use transform="matrix(0.061728395061728385,0,0,0.061728395061728385,0,0)" xlink:href="#bj"/><use transform="matrix(0.061728395061728385,0,0,0.061728395061728385,11.111111111111109,0)" xlink:href="#bw"/><use transform="matrix(0.061728395061728385,0,0,0.061728395061728385,23.456790123456784,0)" xlink:href="#bp"/><use transform="matrix(0.061728395061728385,0,0,0.061728395061728385,29.629629629629623,0)" xlink:href="#bi"/><use transform="matrix(0.061728395061728385,0,0,0.061728395061728385,41.9753086419753,0)" xlink:href="#bu"/><use transform="matrix(0.061728395061728385,0,0,0.061728395061728385,54.32098765432098,0)" xlink:href="#bm"/><use transform="matrix(0.061728395061728385,0,0,0.061728395061728385,66.66666666666666,0)" xlink:href="#bv"/><use transform="matrix(0.061728395061728385,0,0,0.061728395061728385,74.01234567901234,0)" xlink:href="#bl"/><use transform="matrix(0.061728395061728385,0,0,0.061728395061728385,78.88888888888889,0)" xlink:href="#ct"/><use transform="matrix(0.061728395061728385,0,0,0.061728395061728385,90,0)" xlink:href="#bi"/></g><g id="bc"><use transform="matrix(0.061728395061728385,0,0,0.061728395061728385,0,0)" xlink:href="#bl"/><use transform="matrix(0.061728395061728385,0,0,0.061728395061728385,4.876543209876543,0)" xlink:href="#bp"/></g><path fill="#333" d="M64 0c3-98 48-159 88-221H18v-27h164v26C143-157 98-101 97 0H64" id="cu"/><g id="bd"><use transform="matrix(0.061728395061728385,0,0,0.061728395061728385,0,0)" xlink:href="#cu"/><use transform="matrix(0.061728395061728385,0,0,0.061728395061728385,12.345679012345677,0)" xlink:href="#bt"/></g><g id="be"><use transform="matrix(0.061728395061728385,0,0,0.061728395061728385,0,0)" xlink:href="#bi"/><use transform="matrix(0.061728395061728385,0,0,0.061728395061728385,12.345679012345677,0)" xlink:href="#bC"/><use transform="matrix(0.061728395061728385,0,0,0.061728395061728385,30.802469135802465,0)" xlink:href="#bk"/><use transform="matrix(0.061728395061728385,0,0,0.061728395061728385,43.14814814814814,0)" xlink:href="#by"/><use transform="matrix(0.061728395061728385,0,0,0.061728395061728385,48.02469135802468,0)" xlink:href="#bm"/><use transform="matrix(0.061728395061728385,0,0,0.061728395061728385,60.37037037037036,0)" xlink:href="#bI"/><use transform="matrix(0.061728395061728385,0,0,0.061728395061728385,71.48148148148147,0)" xlink:href="#bi"/><use transform="matrix(0.061728395061728385,0,0,0.061728395061728385,83.82716049382714,0)" xlink:href="#bi"/></g><g id="bf"><use transform="matrix(0.061728395061728385,0,0,0.061728395061728385,0,0)" xlink:href="#bN"/><use transform="matrix(0.061728395061728385,0,0,0.061728395061728385,10.679012345679011,0)" xlink:href="#bN"/></g><g id="bg"><use transform="matrix(0.061728395061728385,0,0,0.061728395061728385,0,0)" xlink:href="#bj"/><use transform="matrix(0.061728395061728385,0,0,0.061728395061728385,11.111111111111109,0)" xlink:href="#bw"/><use transform="matrix(0.061728395061728385,0,0,0.061728395061728385,23.456790123456784,0)" xlink:href="#bp"/><use transform="matrix(0.061728395061728385,0,0,0.061728395061728385,29.629629629629623,0)" xlink:href="#bi"/><use transform="matrix(0.061728395061728385,0,0,0.061728395061728385,41.9753086419753,0)" xlink:href="#bu"/><use transform="matrix(0.061728395061728385,0,0,0.061728395061728385,54.32098765432098,0)" xlink:href="#bm"/><use transform="matrix(0.061728395061728385,0,0,0.061728395061728385,66.66666666666666,0)" xlink:href="#bv"/><use transform="matrix(0.061728395061728385,0,0,0.061728395061728385,74.01234567901234,0)" xlink:href="#bI"/></g></defs></g></svg>