<?xml version="1.0" encoding="UTF-8" standalone="no"?><svg xmlns="http://www.w3.org/2000/svg" xmlns:xlink="http://www.w3.org/1999/xlink" contentScriptType="application/ecmascript" contentStyleType="text/css" height="148px" preserveAspectRatio="none" style="width:905px;height:148px;" version="1.1" viewBox="0 0 905 148" width="905px" zoomAndPan="magnify"><defs><filter height="300%" id="f15f2toxarzj50" width="300%" x="-1" y="-1"><feGaussianBlur result="blurOut" stdDeviation="2.0"/><feColorMatrix in="blurOut" result="blurOut2" type="matrix" values="0 0 0 0 0 0 0 0 0 0 0 0 0 0 0 0 0 0 .4 0"/><feOffset dx="4.0" dy="4.0" in="blurOut2" result="blurOut3"/><feBlend in="SourceGraphic" in2="blurOut3" mode="normal"/></filter></defs><g><!--MD5=[850da1d0ee10e58c8d85bd9ec259007c]
class ValidateUI--><rect codeLine="2" fill="#FEFECE" filter="url(#f15f2toxarzj50)" height="48" id="ValidateUI" style="stroke:#A80036;stroke-width:1.5;" width="88" x="7" y="65.87"/><ellipse cx="22" cy="81.87" fill="#ADD1B2" rx="11" ry="11" style="stroke:#A80036;stroke-width:1.0;"/><path d="M24,78.37 Q24.2031,77.87 24.4375,77.62 Q24.6719,77.37 24.9375,77.37 Q25.4063,77.37 25.7031,77.6513 Q26,77.9325 26,78.5888 L26,80.1513 Q26,80.8075 25.7188,81.0888 Q25.4375,81.37 25,81.37 Q24.6094,81.37 24.3594,81.1981 Q24.1094,81.0263 24,80.5731 Q23.9531,80.2606 23.7813,80.0888 Q23.4688,79.7606 22.9063,79.5731 Q22.3438,79.37 21.7813,79.37 Q21.0781,79.37 20.4844,79.6513 Q19.9063,79.9325 19.4531,80.5575 Q19,81.1825 19,82.0419 L19,82.9638 Q19,83.995 19.8438,84.6825 Q20.6875,85.37 22.1875,85.37 Q23.0781,85.37 23.7031,85.1669 Q24.0625,85.0575 24.4688,84.6981 Q24.7344,84.495 24.875,84.4325 Q25.0156,84.37 25.1875,84.37 Q25.5156,84.37 25.75,84.6356 Q26,84.8856 26,85.245 Q26,85.5888 25.6563,85.995 Q25.1563,86.5888 24.3594,86.9169 Q23.3125,87.37 22.0313,87.37 Q20.5313,87.37 19.3281,86.7763 Q18.3594,86.3075 17.6719,85.2919 Q17,84.2763 17,83.0731 L17,81.9794 Q17,80.7294 17.5938,79.6356 Q18.2031,78.5419 19.25,77.9638 Q20.3125,77.37 21.5,77.37 Q22.2188,77.37 22.8438,77.62 Q23.4688,77.87 24,78.37 Z " fill="#000000"/><text fill="#000000" font-family="sans-serif" font-size="12" lengthAdjust="spacing" textLength="56" x="36" y="86.7802">ValidateUI</text><line style="stroke:#A80036;stroke-width:1.5;" x1="8" x2="94" y1="97.87" y2="97.87"/><line style="stroke:#A80036;stroke-width:1.5;" x1="8" x2="94" y1="105.87" y2="105.87"/><!--MD5=[79b2e277f7e3b64d53810de1fc7ba95a]
class ValidateController--><rect codeLine="3" fill="#FEFECE" filter="url(#f15f2toxarzj50)" height="89.5078" id="ValidateController" style="stroke:#A80036;stroke-width:1.5;" width="143" x="130.5" y="44.87"/><ellipse cx="151.35" cy="60.87" fill="#ADD1B2" rx="11" ry="11" style="stroke:#A80036;stroke-width:1.0;"/><path d="M153.35,57.37 Q153.5531,56.87 153.7875,56.62 Q154.0219,56.37 154.2875,56.37 Q154.7563,56.37 155.0531,56.6513 Q155.35,56.9325 155.35,57.5888 L155.35,59.1513 Q155.35,59.8075 155.0688,60.0888 Q154.7875,60.37 154.35,60.37 Q153.9594,60.37 153.7094,60.1981 Q153.4594,60.0263 153.35,59.5731 Q153.3031,59.2606 153.1313,59.0888 Q152.8188,58.7606 152.2563,58.5731 Q151.6938,58.37 151.1313,58.37 Q150.4281,58.37 149.8344,58.6513 Q149.2563,58.9325 148.8031,59.5575 Q148.35,60.1825 148.35,61.0419 L148.35,61.9638 Q148.35,62.995 149.1938,63.6825 Q150.0375,64.37 151.5375,64.37 Q152.4281,64.37 153.0531,64.1669 Q153.4125,64.0575 153.8188,63.6981 Q154.0844,63.495 154.225,63.4325 Q154.3656,63.37 154.5375,63.37 Q154.8656,63.37 155.1,63.6356 Q155.35,63.8856 155.35,64.245 Q155.35,64.5888 155.0063,64.995 Q154.5063,65.5888 153.7094,65.9169 Q152.6625,66.37 151.3813,66.37 Q149.8813,66.37 148.6781,65.7763 Q147.7094,65.3075 147.0219,64.2919 Q146.35,63.2763 146.35,62.0731 L146.35,60.9794 Q146.35,59.7294 146.9438,58.6356 Q147.5531,57.5419 148.6,56.9638 Q149.6625,56.37 150.85,56.37 Q151.5688,56.37 152.1938,56.62 Q152.8188,56.87 153.35,57.37 Z " fill="#000000"/><text fill="#000000" font-family="sans-serif" font-size="12" lengthAdjust="spacing" textLength="98" x="166.65" y="65.7802">ValidateController</text><line style="stroke:#A80036;stroke-width:1.5;" x1="131.5" x2="272.5" y1="76.87" y2="76.87"/><line style="stroke:#A80036;stroke-width:1.5;" x1="131.5" x2="272.5" y1="84.87" y2="84.87"/><text fill="#000000" font-family="sans-serif" font-size="11" lengthAdjust="spacing" textLength="106" x="136.5" y="100.2889">+getValidateDTOList()</text><text fill="#000000" font-family="sans-serif" font-size="11" lengthAdjust="spacing" textLength="113" x="136.5" y="114.1249">+addValidated(number)</text><text fill="#000000" font-family="sans-serif" font-size="11" lengthAdjust="spacing" textLength="131" x="136.5" y="127.9608">+removeValidated(number)</text><!--MD5=[02e4b9b7573f1156f41e60aa5b4e25a4]
class Company--><rect codeLine="8" fill="#FEFECE" filter="url(#f15f2toxarzj50)" height="61.8359" id="Company" style="stroke:#A80036;stroke-width:1.5;" width="106" x="568" y="58.87"/><ellipse cx="592.45" cy="74.87" fill="#ADD1B2" rx="11" ry="11" style="stroke:#A80036;stroke-width:1.0;"/><path d="M594.45,71.37 Q594.6531,70.87 594.8875,70.62 Q595.1219,70.37 595.3875,70.37 Q595.8563,70.37 596.1531,70.6513 Q596.45,70.9325 596.45,71.5888 L596.45,73.1513 Q596.45,73.8075 596.1688,74.0888 Q595.8875,74.37 595.45,74.37 Q595.0594,74.37 594.8094,74.1981 Q594.5594,74.0263 594.45,73.5731 Q594.4031,73.2606 594.2313,73.0888 Q593.9188,72.7606 593.3563,72.5731 Q592.7938,72.37 592.2313,72.37 Q591.5281,72.37 590.9344,72.6513 Q590.3563,72.9325 589.9031,73.5575 Q589.45,74.1825 589.45,75.0419 L589.45,75.9638 Q589.45,76.995 590.2938,77.6825 Q591.1375,78.37 592.6375,78.37 Q593.5281,78.37 594.1531,78.1669 Q594.5125,78.0575 594.9188,77.6981 Q595.1844,77.495 595.325,77.4325 Q595.4656,77.37 595.6375,77.37 Q595.9656,77.37 596.2,77.6356 Q596.45,77.8856 596.45,78.245 Q596.45,78.5888 596.1063,78.995 Q595.6063,79.5888 594.8094,79.9169 Q593.7625,80.37 592.4813,80.37 Q590.9813,80.37 589.7781,79.7763 Q588.8094,79.3075 588.1219,78.2919 Q587.45,77.2763 587.45,76.0731 L587.45,74.9794 Q587.45,73.7294 588.0438,72.6356 Q588.6531,71.5419 589.7,70.9638 Q590.7625,70.37 591.95,70.37 Q592.6688,70.37 593.2938,70.62 Q593.9188,70.87 594.45,71.37 Z " fill="#000000"/><text fill="#000000" font-family="sans-serif" font-size="12" lengthAdjust="spacing" textLength="53" x="608.55" y="79.7802">Company</text><line style="stroke:#A80036;stroke-width:1.5;" x1="569" x2="673" y1="90.87" y2="90.87"/><line style="stroke:#A80036;stroke-width:1.5;" x1="569" x2="673" y1="98.87" y2="98.87"/><text fill="#000000" font-family="sans-serif" font-size="11" lengthAdjust="spacing" textLength="94" x="574" y="114.2889">+getValidateStore()</text><!--MD5=[ba35ae546f0531c5ba753a653500d32d]
class ValidateStore--><rect codeLine="11" fill="#FEFECE" filter="url(#f15f2toxarzj50)" height="89.5078" id="ValidateStore" style="stroke:#A80036;stroke-width:1.5;" width="153" x="738.5" y="44.87"/><ellipse cx="775.1" cy="60.87" fill="#ADD1B2" rx="11" ry="11" style="stroke:#A80036;stroke-width:1.0;"/><path d="M777.1,57.37 Q777.3031,56.87 777.5375,56.62 Q777.7719,56.37 778.0375,56.37 Q778.5063,56.37 778.8031,56.6513 Q779.1,56.9325 779.1,57.5888 L779.1,59.1513 Q779.1,59.8075 778.8188,60.0888 Q778.5375,60.37 778.1,60.37 Q777.7094,60.37 777.4594,60.1981 Q777.2094,60.0263 777.1,59.5731 Q777.0531,59.2606 776.8813,59.0888 Q776.5688,58.7606 776.0063,58.5731 Q775.4438,58.37 774.8813,58.37 Q774.1781,58.37 773.5844,58.6513 Q773.0063,58.9325 772.5531,59.5575 Q772.1,60.1825 772.1,61.0419 L772.1,61.9638 Q772.1,62.995 772.9438,63.6825 Q773.7875,64.37 775.2875,64.37 Q776.1781,64.37 776.8031,64.1669 Q777.1625,64.0575 777.5688,63.6981 Q777.8344,63.495 777.975,63.4325 Q778.1156,63.37 778.2875,63.37 Q778.6156,63.37 778.85,63.6356 Q779.1,63.8856 779.1,64.245 Q779.1,64.5888 778.7563,64.995 Q778.2563,65.5888 777.4594,65.9169 Q776.4125,66.37 775.1313,66.37 Q773.6313,66.37 772.4281,65.7763 Q771.4594,65.3075 770.7719,64.2919 Q770.1,63.2763 770.1,62.0731 L770.1,60.9794 Q770.1,59.7294 770.6938,58.6356 Q771.3031,57.5419 772.35,56.9638 Q773.4125,56.37 774.6,56.37 Q775.3188,56.37 775.9438,56.62 Q776.5688,56.87 777.1,57.37 Z " fill="#000000"/><text fill="#000000" font-family="sans-serif" font-size="12" lengthAdjust="spacing" textLength="73" x="793.9" y="65.7802">ValidateStore</text><line style="stroke:#A80036;stroke-width:1.5;" x1="739.5" x2="890.5" y1="76.87" y2="76.87"/><line style="stroke:#A80036;stroke-width:1.5;" x1="739.5" x2="890.5" y1="84.87" y2="84.87"/><text fill="#000000" font-family="sans-serif" font-size="11" lengthAdjust="spacing" textLength="141" x="744.5" y="100.2889">+getWorkToBeValidatedList()</text><text fill="#000000" font-family="sans-serif" font-size="11" lengthAdjust="spacing" textLength="113" x="744.5" y="114.1249">+addValidated(number)</text><text fill="#000000" font-family="sans-serif" font-size="11" lengthAdjust="spacing" textLength="131" x="744.5" y="127.9608">+removeValidated(number)</text><!--MD5=[74736e9db66cb3155cb9cef6bdf1b8ec]
class ValidateMapper--><rect codeLine="16" fill="#FEFECE" filter="url(#f15f2toxarzj50)" height="61.8359" id="ValidateMapper" style="stroke:#A80036;stroke-width:1.5;" width="183" x="349.5" y="58.87"/><ellipse cx="394.25" cy="74.87" fill="#ADD1B2" rx="11" ry="11" style="stroke:#A80036;stroke-width:1.0;"/><path d="M396.25,71.37 Q396.4531,70.87 396.6875,70.62 Q396.9219,70.37 397.1875,70.37 Q397.6563,70.37 397.9531,70.6513 Q398.25,70.9325 398.25,71.5888 L398.25,73.1513 Q398.25,73.8075 397.9688,74.0888 Q397.6875,74.37 397.25,74.37 Q396.8594,74.37 396.6094,74.1981 Q396.3594,74.0263 396.25,73.5731 Q396.2031,73.2606 396.0313,73.0888 Q395.7188,72.7606 395.1563,72.5731 Q394.5938,72.37 394.0313,72.37 Q393.3281,72.37 392.7344,72.6513 Q392.1563,72.9325 391.7031,73.5575 Q391.25,74.1825 391.25,75.0419 L391.25,75.9638 Q391.25,76.995 392.0938,77.6825 Q392.9375,78.37 394.4375,78.37 Q395.3281,78.37 395.9531,78.1669 Q396.3125,78.0575 396.7188,77.6981 Q396.9844,77.495 397.125,77.4325 Q397.2656,77.37 397.4375,77.37 Q397.7656,77.37 398,77.6356 Q398.25,77.8856 398.25,78.245 Q398.25,78.5888 397.9063,78.995 Q397.4063,79.5888 396.6094,79.9169 Q395.5625,80.37 394.2813,80.37 Q392.7813,80.37 391.5781,79.7763 Q390.6094,79.3075 389.9219,78.2919 Q389.25,77.2763 389.25,76.0731 L389.25,74.9794 Q389.25,73.7294 389.8438,72.6356 Q390.4531,71.5419 391.5,70.9638 Q392.5625,70.37 393.75,70.37 Q394.4688,70.37 395.0938,70.62 Q395.7188,70.87 396.25,71.37 Z " fill="#000000"/><text fill="#000000" font-family="sans-serif" font-size="12" lengthAdjust="spacing" textLength="85" x="414.75" y="79.7802">ValidateMapper</text><line style="stroke:#A80036;stroke-width:1.5;" x1="350.5" x2="531.5" y1="90.87" y2="90.87"/><line style="stroke:#A80036;stroke-width:1.5;" x1="350.5" x2="531.5" y1="98.87" y2="98.87"/><text fill="#000000" font-family="sans-serif" font-size="11" lengthAdjust="spacing" textLength="171" x="355.5" y="114.2889">+toDTO(getWorkToBeValidatedList)</text><!--MD5=[07f9d5b5808d8e3ccda791993759c618]
link ValidateUI to ValidateController--><path codeLine="19" d="M95.24,89.87 C105.18,89.87 115.13,89.87 125.07,89.87 " fill="none" id="ValidateUI-to-ValidateController" style="stroke:#A80036;stroke-width:1.0;stroke-dasharray:7.0,7.0;"/><polygon fill="#A80036" points="130.27,89.87,121.27,85.87,125.27,89.87,121.27,93.87,130.27,89.87" style="stroke:#A80036;stroke-width:1.0;"/><!--MD5=[263dc406e30e6f98a08d7c68b1407d70]
link ValidateController to Company--><path codeLine="20" d="M273.81,54.19 C297.34,44.27 324,34.86 349.5,29.87 C429.32,14.26 454.75,6 532.5,29.87 C549.87,35.2 566.89,45.23 581.3,55.58 " fill="none" id="ValidateController-to-Company" style="stroke:#A80036;stroke-width:1.0;stroke-dasharray:7.0,7.0;"/><polygon fill="#A80036" points="585.68,58.8,580.7918,50.2499,581.6493,55.8413,576.0579,56.6989,585.68,58.8" style="stroke:#A80036;stroke-width:1.0;"/><!--MD5=[77f3e0a9603fba82903e0a21972bd168]
link Company to ValidateStore--><path codeLine="21" d="M674.01,89.87 C692.32,89.87 713.27,89.87 733.33,89.87 " fill="none" id="Company-to-ValidateStore" style="stroke:#A80036;stroke-width:1.0;"/><polygon fill="#A80036" points="738.41,89.87,729.41,85.87,733.41,89.87,729.41,93.87,738.41,89.87" style="stroke:#A80036;stroke-width:1.0;"/><text fill="#000000" font-family="sans-serif" font-size="13" lengthAdjust="spacing" textLength="28" x="692.25" y="83.3651">uses</text><!--MD5=[7f6be1b23b111872107e209208fb416e]
link ValidateController to ValidateMapper--><path codeLine="22" d="M273.71,89.87 C295.92,89.87 320.76,89.87 344.37,89.87 " fill="none" id="ValidateController-to-ValidateMapper" style="stroke:#A80036;stroke-width:1.0;"/><polygon fill="#A80036" points="349.38,89.87,340.38,85.87,344.38,89.87,340.38,93.87,349.38,89.87" style="stroke:#A80036;stroke-width:1.0;"/><text fill="#000000" font-family="sans-serif" font-size="13" lengthAdjust="spacing" textLength="39" x="292" y="83.3651">adopts</text><!--MD5=[2905875d4a9fe89810960c7406b8e47d]
@startuml
skinparam classAttributeIconSize 0
class ValidateUI
class ValidateController{
{method}+getValidateDTOList()
{method}+addValidated(number)
{method}+removeValidated(number)
}
class Company{
{method}+getValidateStore()
}
class ValidateStore{
{method}+getWorkToBeValidatedList()
{method}+addValidated(number)
{method}+removeValidated(number)
}
class ValidateMapper{
{method}+toDTO(getWorkToBeValidatedList)
}
ValidateUI .> ValidateController
ValidateController .> Company
Company -> ValidateStore:uses
ValidateController -> ValidateMapper:adopts
@enduml

PlantUML version 1.2021.5(Sun Apr 25 12:20:28 BST 2021)
(GPL source distribution)
Java Runtime: OpenJDK Runtime Environment
JVM: Dynamic Code Evolution 64-Bit Server VM
Default Encoding: Cp1252
Language: en
Country: US
--></g></svg>