<?xml version="1.0" encoding="UTF-8" standalone="no"?><svg xmlns="http://www.w3.org/2000/svg" xmlns:xlink="http://www.w3.org/1999/xlink" contentScriptType="application/ecmascript" contentStyleType="text/css" height="269px" preserveAspectRatio="none" style="width:1846px;height:269px;" version="1.1" viewBox="0 0 1846 269" width="1846px" zoomAndPan="magnify"><defs><filter height="300%" id="ffj9dmgb6lo3f" width="300%" x="-1" y="-1"><feGaussianBlur result="blurOut" stdDeviation="2.0"/><feColorMatrix in="blurOut" result="blurOut2" type="matrix" values="0 0 0 0 0 0 0 0 0 0 0 0 0 0 0 0 0 0 .4 0"/><feOffset dx="4.0" dy="4.0" in="blurOut2" result="blurOut3"/><feBlend in="SourceGraphic" in2="blurOut3" mode="normal"/></filter></defs><g><!--MD5=[10d06bcee75aaf74ab8f6040820ceef2]
class Diagnosis--><rect codeLine="2" fill="#FEFECE" filter="url(#ffj9dmgb6lo3f)" height="61.8359" id="Diagnosis" style="stroke:#A80036;stroke-width:1.5;" width="89" x="1743" y="145.25"/><ellipse cx="1758" cy="161.25" fill="#ADD1B2" rx="11" ry="11" style="stroke:#A80036;stroke-width:1.0;"/><path d="M1760,157.75 Q1760.2031,157.25 1760.4375,157 Q1760.6719,156.75 1760.9375,156.75 Q1761.4063,156.75 1761.7031,157.0313 Q1762,157.3125 1762,157.9688 L1762,159.5313 Q1762,160.1875 1761.7188,160.4688 Q1761.4375,160.75 1761,160.75 Q1760.6094,160.75 1760.3594,160.5781 Q1760.1094,160.4063 1760,159.9531 Q1759.9531,159.6406 1759.7813,159.4688 Q1759.4688,159.1406 1758.9063,158.9531 Q1758.3438,158.75 1757.7813,158.75 Q1757.0781,158.75 1756.4844,159.0313 Q1755.9063,159.3125 1755.4531,159.9375 Q1755,160.5625 1755,161.4219 L1755,162.3438 Q1755,163.375 1755.8438,164.0625 Q1756.6875,164.75 1758.1875,164.75 Q1759.0781,164.75 1759.7031,164.5469 Q1760.0625,164.4375 1760.4688,164.0781 Q1760.7344,163.875 1760.875,163.8125 Q1761.0156,163.75 1761.1875,163.75 Q1761.5156,163.75 1761.75,164.0156 Q1762,164.2656 1762,164.625 Q1762,164.9688 1761.6563,165.375 Q1761.1563,165.9688 1760.3594,166.2969 Q1759.3125,166.75 1758.0313,166.75 Q1756.5313,166.75 1755.3281,166.1563 Q1754.3594,165.6875 1753.6719,164.6719 Q1753,163.6563 1753,162.4531 L1753,161.3594 Q1753,160.1094 1753.5938,159.0156 Q1754.2031,157.9219 1755.25,157.3438 Q1756.3125,156.75 1757.5,156.75 Q1758.2188,156.75 1758.8438,157 Q1759.4688,157.25 1760,157.75 Z " fill="#000000"/><text fill="#000000" font-family="sans-serif" font-size="12" lengthAdjust="spacing" textLength="57" x="1772" y="166.1602">Diagnosis</text><line style="stroke:#A80036;stroke-width:1.5;" x1="1744" x2="1831" y1="177.25" y2="177.25"/><text fill="#000000" font-family="sans-serif" font-size="11" lengthAdjust="spacing" textLength="36" x="1749" y="192.6689">-Report</text><line style="stroke:#A80036;stroke-width:1.5;" x1="1744" x2="1831" y1="199.0859" y2="199.0859"/><!--MD5=[052425de1c0eb6cc1c1b48342b0bb88f]
class LaboratoryCoordinator--><rect codeLine="5" fill="#FEFECE" filter="url(#ffj9dmgb6lo3f)" height="144.8516" id="LaboratoryCoordinator" style="stroke:#A80036;stroke-width:1.5;" width="155" x="484" y="103.75"/><ellipse cx="499" cy="119.75" fill="#ADD1B2" rx="11" ry="11" style="stroke:#A80036;stroke-width:1.0;"/><path d="M501,116.25 Q501.2031,115.75 501.4375,115.5 Q501.6719,115.25 501.9375,115.25 Q502.4063,115.25 502.7031,115.5313 Q503,115.8125 503,116.4688 L503,118.0313 Q503,118.6875 502.7188,118.9688 Q502.4375,119.25 502,119.25 Q501.6094,119.25 501.3594,119.0781 Q501.1094,118.9063 501,118.4531 Q500.9531,118.1406 500.7813,117.9688 Q500.4688,117.6406 499.9063,117.4531 Q499.3438,117.25 498.7813,117.25 Q498.0781,117.25 497.4844,117.5313 Q496.9063,117.8125 496.4531,118.4375 Q496,119.0625 496,119.9219 L496,120.8438 Q496,121.875 496.8438,122.5625 Q497.6875,123.25 499.1875,123.25 Q500.0781,123.25 500.7031,123.0469 Q501.0625,122.9375 501.4688,122.5781 Q501.7344,122.375 501.875,122.3125 Q502.0156,122.25 502.1875,122.25 Q502.5156,122.25 502.75,122.5156 Q503,122.7656 503,123.125 Q503,123.4688 502.6563,123.875 Q502.1563,124.4688 501.3594,124.7969 Q500.3125,125.25 499.0313,125.25 Q497.5313,125.25 496.3281,124.6563 Q495.3594,124.1875 494.6719,123.1719 Q494,122.1563 494,120.9531 L494,119.8594 Q494,118.6094 494.5938,117.5156 Q495.2031,116.4219 496.25,115.8438 Q497.3125,115.25 498.5,115.25 Q499.2188,115.25 499.8438,115.5 Q500.4688,115.75 501,116.25 Z " fill="#000000"/><text fill="#000000" font-family="sans-serif" font-size="12" lengthAdjust="spacing" textLength="123" x="513" y="124.6602">LaboratoryCoordinator</text><line style="stroke:#A80036;stroke-width:1.5;" x1="485" x2="638" y1="135.75" y2="135.75"/><text fill="#000000" font-family="sans-serif" font-size="11" lengthAdjust="spacing" textLength="59" x="490" y="151.1689">-EmployeeID</text><text fill="#000000" font-family="sans-serif" font-size="11" lengthAdjust="spacing" textLength="86" x="490" y="165.0049">-OrganizationRole</text><text fill="#000000" font-family="sans-serif" font-size="11" lengthAdjust="spacing" textLength="31" x="490" y="178.8408">-Name</text><text fill="#000000" font-family="sans-serif" font-size="11" lengthAdjust="spacing" textLength="46" x="490" y="192.6768">-Address</text><text fill="#000000" font-family="sans-serif" font-size="11" lengthAdjust="spacing" textLength="28" x="490" y="206.5127">-Email</text><text fill="#000000" font-family="sans-serif" font-size="11" lengthAdjust="spacing" textLength="71" x="490" y="220.3486">-PhoneNumber</text><text fill="#000000" font-family="sans-serif" font-size="11" lengthAdjust="spacing" textLength="51" x="490" y="234.1846">-SOCCode</text><line style="stroke:#A80036;stroke-width:1.5;" x1="485" x2="638" y1="240.6016" y2="240.6016"/><!--MD5=[df38be88ccee13e832d6fafd6288a4ca]
class Test--><rect codeLine="14" fill="#FEFECE" filter="url(#ffj9dmgb6lo3f)" height="89.5078" id="Test" style="stroke:#A80036;stroke-width:1.5;" width="75" x="1001" y="131.25"/><ellipse cx="1024.55" cy="147.25" fill="#ADD1B2" rx="11" ry="11" style="stroke:#A80036;stroke-width:1.0;"/><path d="M1026.55,143.75 Q1026.7531,143.25 1026.9875,143 Q1027.2219,142.75 1027.4875,142.75 Q1027.9563,142.75 1028.2531,143.0313 Q1028.55,143.3125 1028.55,143.9688 L1028.55,145.5313 Q1028.55,146.1875 1028.2688,146.4688 Q1027.9875,146.75 1027.55,146.75 Q1027.1594,146.75 1026.9094,146.5781 Q1026.6594,146.4063 1026.55,145.9531 Q1026.5031,145.6406 1026.3313,145.4688 Q1026.0188,145.1406 1025.4563,144.9531 Q1024.8938,144.75 1024.3313,144.75 Q1023.6281,144.75 1023.0344,145.0313 Q1022.4563,145.3125 1022.0031,145.9375 Q1021.55,146.5625 1021.55,147.4219 L1021.55,148.3438 Q1021.55,149.375 1022.3938,150.0625 Q1023.2375,150.75 1024.7375,150.75 Q1025.6281,150.75 1026.2531,150.5469 Q1026.6125,150.4375 1027.0188,150.0781 Q1027.2844,149.875 1027.425,149.8125 Q1027.5656,149.75 1027.7375,149.75 Q1028.0656,149.75 1028.3,150.0156 Q1028.55,150.2656 1028.55,150.625 Q1028.55,150.9688 1028.2063,151.375 Q1027.7063,151.9688 1026.9094,152.2969 Q1025.8625,152.75 1024.5813,152.75 Q1023.0813,152.75 1021.8781,152.1563 Q1020.9094,151.6875 1020.2219,150.6719 Q1019.55,149.6563 1019.55,148.4531 L1019.55,147.3594 Q1019.55,146.1094 1020.1438,145.0156 Q1020.7531,143.9219 1021.8,143.3438 Q1022.8625,142.75 1024.05,142.75 Q1024.7688,142.75 1025.3938,143 Q1026.0188,143.25 1026.55,143.75 Z " fill="#000000"/><text fill="#000000" font-family="sans-serif" font-size="12" lengthAdjust="spacing" textLength="24" x="1040.45" y="152.1602">Test</text><line style="stroke:#A80036;stroke-width:1.5;" x1="1002" x2="1075" y1="163.25" y2="163.25"/><text fill="#000000" font-family="sans-serif" font-size="11" lengthAdjust="spacing" textLength="28" x="1007" y="178.6689">-code</text><text fill="#000000" font-family="sans-serif" font-size="11" lengthAdjust="spacing" textLength="49" x="1007" y="192.5049">-NHScode</text><text fill="#000000" font-family="sans-serif" font-size="11" lengthAdjust="spacing" textLength="63" x="1007" y="206.3408">-dateCreated</text><line style="stroke:#A80036;stroke-width:1.5;" x1="1002" x2="1075" y1="212.7578" y2="212.7578"/><!--MD5=[aeb3272166074d8737a70b61b1e71682]
class TestType--><rect codeLine="19" fill="#FEFECE" filter="url(#ffj9dmgb6lo3f)" height="89.5078" id="TestType" style="stroke:#A80036;stroke-width:1.5;" width="96" x="831.5" y="131.25"/><ellipse cx="852.8" cy="147.25" fill="#ADD1B2" rx="11" ry="11" style="stroke:#A80036;stroke-width:1.0;"/><path d="M854.8,143.75 Q855.0031,143.25 855.2375,143 Q855.4719,142.75 855.7375,142.75 Q856.2063,142.75 856.5031,143.0313 Q856.8,143.3125 856.8,143.9688 L856.8,145.5313 Q856.8,146.1875 856.5188,146.4688 Q856.2375,146.75 855.8,146.75 Q855.4094,146.75 855.1594,146.5781 Q854.9094,146.4063 854.8,145.9531 Q854.7531,145.6406 854.5813,145.4688 Q854.2688,145.1406 853.7063,144.9531 Q853.1438,144.75 852.5813,144.75 Q851.8781,144.75 851.2844,145.0313 Q850.7063,145.3125 850.2531,145.9375 Q849.8,146.5625 849.8,147.4219 L849.8,148.3438 Q849.8,149.375 850.6438,150.0625 Q851.4875,150.75 852.9875,150.75 Q853.8781,150.75 854.5031,150.5469 Q854.8625,150.4375 855.2688,150.0781 Q855.5344,149.875 855.675,149.8125 Q855.8156,149.75 855.9875,149.75 Q856.3156,149.75 856.55,150.0156 Q856.8,150.2656 856.8,150.625 Q856.8,150.9688 856.4563,151.375 Q855.9563,151.9688 855.1594,152.2969 Q854.1125,152.75 852.8313,152.75 Q851.3313,152.75 850.1281,152.1563 Q849.1594,151.6875 848.4719,150.6719 Q847.8,149.6563 847.8,148.4531 L847.8,147.3594 Q847.8,146.1094 848.3938,145.0156 Q849.0031,143.9219 850.05,143.3438 Q851.1125,142.75 852.3,142.75 Q853.0188,142.75 853.6438,143 Q854.2688,143.25 854.8,143.75 Z " fill="#000000"/><text fill="#000000" font-family="sans-serif" font-size="12" lengthAdjust="spacing" textLength="50" x="868.2" y="152.1602">TestType</text><line style="stroke:#A80036;stroke-width:1.5;" x1="832.5" x2="926.5" y1="163.25" y2="163.25"/><text fill="#000000" font-family="sans-serif" font-size="11" lengthAdjust="spacing" textLength="28" x="837.5" y="178.6689">-code</text><text fill="#000000" font-family="sans-serif" font-size="11" lengthAdjust="spacing" textLength="57" x="837.5" y="192.5049">-description</text><text fill="#000000" font-family="sans-serif" font-size="11" lengthAdjust="spacing" textLength="84" x="837.5" y="206.3408">-collectingMethod</text><line style="stroke:#A80036;stroke-width:1.5;" x1="832.5" x2="926.5" y1="212.7578" y2="212.7578"/><!--MD5=[4519e2ce539eff4d21d1cdb2b7d7c82c]
class TestParametersResults--><rect codeLine="24" fill="#FEFECE" filter="url(#ffj9dmgb6lo3f)" height="48" id="TestParametersResults" style="stroke:#A80036;stroke-width:1.5;" width="164" x="1461.5" y="152.25"/><ellipse cx="1476.5" cy="168.25" fill="#ADD1B2" rx="11" ry="11" style="stroke:#A80036;stroke-width:1.0;"/><path d="M1478.5,164.75 Q1478.7031,164.25 1478.9375,164 Q1479.1719,163.75 1479.4375,163.75 Q1479.9063,163.75 1480.2031,164.0313 Q1480.5,164.3125 1480.5,164.9688 L1480.5,166.5313 Q1480.5,167.1875 1480.2188,167.4688 Q1479.9375,167.75 1479.5,167.75 Q1479.1094,167.75 1478.8594,167.5781 Q1478.6094,167.4063 1478.5,166.9531 Q1478.4531,166.6406 1478.2813,166.4688 Q1477.9688,166.1406 1477.4063,165.9531 Q1476.8438,165.75 1476.2813,165.75 Q1475.5781,165.75 1474.9844,166.0313 Q1474.4063,166.3125 1473.9531,166.9375 Q1473.5,167.5625 1473.5,168.4219 L1473.5,169.3438 Q1473.5,170.375 1474.3438,171.0625 Q1475.1875,171.75 1476.6875,171.75 Q1477.5781,171.75 1478.2031,171.5469 Q1478.5625,171.4375 1478.9688,171.0781 Q1479.2344,170.875 1479.375,170.8125 Q1479.5156,170.75 1479.6875,170.75 Q1480.0156,170.75 1480.25,171.0156 Q1480.5,171.2656 1480.5,171.625 Q1480.5,171.9688 1480.1563,172.375 Q1479.6563,172.9688 1478.8594,173.2969 Q1477.8125,173.75 1476.5313,173.75 Q1475.0313,173.75 1473.8281,173.1563 Q1472.8594,172.6875 1472.1719,171.6719 Q1471.5,170.6563 1471.5,169.4531 L1471.5,168.3594 Q1471.5,167.1094 1472.0938,166.0156 Q1472.7031,164.9219 1473.75,164.3438 Q1474.8125,163.75 1476,163.75 Q1476.7188,163.75 1477.3438,164 Q1477.9688,164.25 1478.5,164.75 Z " fill="#000000"/><text fill="#000000" font-family="sans-serif" font-size="12" lengthAdjust="spacing" textLength="132" x="1490.5" y="173.1602">TestParametersResults</text><line style="stroke:#A80036;stroke-width:1.5;" x1="1462.5" x2="1624.5" y1="184.25" y2="184.25"/><line style="stroke:#A80036;stroke-width:1.5;" x1="1462.5" x2="1624.5" y1="192.25" y2="192.25"/><!--MD5=[7d96fd15f3014691d2fcaf89c5791e2a]
class SpecialistDoctor--><rect codeLine="25" fill="#FEFECE" filter="url(#ffj9dmgb6lo3f)" height="158.6875" id="SpecialistDoctor" style="stroke:#A80036;stroke-width:1.5;" width="122" x="674.5" y="96.75"/><ellipse cx="689.5" cy="112.75" fill="#ADD1B2" rx="11" ry="11" style="stroke:#A80036;stroke-width:1.0;"/><path d="M691.5,109.25 Q691.7031,108.75 691.9375,108.5 Q692.1719,108.25 692.4375,108.25 Q692.9063,108.25 693.2031,108.5313 Q693.5,108.8125 693.5,109.4688 L693.5,111.0313 Q693.5,111.6875 693.2188,111.9688 Q692.9375,112.25 692.5,112.25 Q692.1094,112.25 691.8594,112.0781 Q691.6094,111.9063 691.5,111.4531 Q691.4531,111.1406 691.2813,110.9688 Q690.9688,110.6406 690.4063,110.4531 Q689.8438,110.25 689.2813,110.25 Q688.5781,110.25 687.9844,110.5313 Q687.4063,110.8125 686.9531,111.4375 Q686.5,112.0625 686.5,112.9219 L686.5,113.8438 Q686.5,114.875 687.3438,115.5625 Q688.1875,116.25 689.6875,116.25 Q690.5781,116.25 691.2031,116.0469 Q691.5625,115.9375 691.9688,115.5781 Q692.2344,115.375 692.375,115.3125 Q692.5156,115.25 692.6875,115.25 Q693.0156,115.25 693.25,115.5156 Q693.5,115.7656 693.5,116.125 Q693.5,116.4688 693.1563,116.875 Q692.6563,117.4688 691.8594,117.7969 Q690.8125,118.25 689.5313,118.25 Q688.0313,118.25 686.8281,117.6563 Q685.8594,117.1875 685.1719,116.1719 Q684.5,115.1563 684.5,113.9531 L684.5,112.8594 Q684.5,111.6094 685.0938,110.5156 Q685.7031,109.4219 686.75,108.8438 Q687.8125,108.25 689,108.25 Q689.7188,108.25 690.3438,108.5 Q690.9688,108.75 691.5,109.25 Z " fill="#000000"/><text fill="#000000" font-family="sans-serif" font-size="12" lengthAdjust="spacing" textLength="90" x="703.5" y="117.6602">SpecialistDoctor</text><line style="stroke:#A80036;stroke-width:1.5;" x1="675.5" x2="795.5" y1="128.75" y2="128.75"/><text fill="#000000" font-family="sans-serif" font-size="11" lengthAdjust="spacing" textLength="59" x="680.5" y="144.1689">-EmployeeID</text><text fill="#000000" font-family="sans-serif" font-size="11" lengthAdjust="spacing" textLength="86" x="680.5" y="158.0049">-OrganizationRole</text><text fill="#000000" font-family="sans-serif" font-size="11" lengthAdjust="spacing" textLength="31" x="680.5" y="171.8408">-Name</text><text fill="#000000" font-family="sans-serif" font-size="11" lengthAdjust="spacing" textLength="46" x="680.5" y="185.6768">-Address</text><text fill="#000000" font-family="sans-serif" font-size="11" lengthAdjust="spacing" textLength="28" x="680.5" y="199.5127">-Email</text><text fill="#000000" font-family="sans-serif" font-size="11" lengthAdjust="spacing" textLength="71" x="680.5" y="213.3486">-PhoneNumber</text><text fill="#000000" font-family="sans-serif" font-size="11" lengthAdjust="spacing" textLength="51" x="680.5" y="227.1846">-SOCCode</text><text fill="#000000" font-family="sans-serif" font-size="11" lengthAdjust="spacing" textLength="99" x="680.5" y="241.0205">-DoctorIndexNumber</text><line style="stroke:#A80036;stroke-width:1.5;" x1="675.5" x2="795.5" y1="247.4375" y2="247.4375"/><!--MD5=[012ee2a8bf3ae2b319009b06f951c2e5]
class ClinicalChemistryTechnologist--><rect codeLine="35" fill="#FEFECE" filter="url(#ffj9dmgb6lo3f)" height="144.8516" id="ClinicalChemistryTechnologist" style="stroke:#A80036;stroke-width:1.5;" width="200" x="248.5" y="103.75"/><ellipse cx="263.5" cy="119.75" fill="#ADD1B2" rx="11" ry="11" style="stroke:#A80036;stroke-width:1.0;"/><path d="M265.5,116.25 Q265.7031,115.75 265.9375,115.5 Q266.1719,115.25 266.4375,115.25 Q266.9063,115.25 267.2031,115.5313 Q267.5,115.8125 267.5,116.4688 L267.5,118.0313 Q267.5,118.6875 267.2188,118.9688 Q266.9375,119.25 266.5,119.25 Q266.1094,119.25 265.8594,119.0781 Q265.6094,118.9063 265.5,118.4531 Q265.4531,118.1406 265.2813,117.9688 Q264.9688,117.6406 264.4063,117.4531 Q263.8438,117.25 263.2813,117.25 Q262.5781,117.25 261.9844,117.5313 Q261.4063,117.8125 260.9531,118.4375 Q260.5,119.0625 260.5,119.9219 L260.5,120.8438 Q260.5,121.875 261.3438,122.5625 Q262.1875,123.25 263.6875,123.25 Q264.5781,123.25 265.2031,123.0469 Q265.5625,122.9375 265.9688,122.5781 Q266.2344,122.375 266.375,122.3125 Q266.5156,122.25 266.6875,122.25 Q267.0156,122.25 267.25,122.5156 Q267.5,122.7656 267.5,123.125 Q267.5,123.4688 267.1563,123.875 Q266.6563,124.4688 265.8594,124.7969 Q264.8125,125.25 263.5313,125.25 Q262.0313,125.25 260.8281,124.6563 Q259.8594,124.1875 259.1719,123.1719 Q258.5,122.1563 258.5,120.9531 L258.5,119.8594 Q258.5,118.6094 259.0938,117.5156 Q259.7031,116.4219 260.75,115.8438 Q261.8125,115.25 263,115.25 Q263.7188,115.25 264.3438,115.5 Q264.9688,115.75 265.5,116.25 Z " fill="#000000"/><text fill="#000000" font-family="sans-serif" font-size="12" lengthAdjust="spacing" textLength="168" x="277.5" y="124.6602">ClinicalChemistryTechnologist</text><line style="stroke:#A80036;stroke-width:1.5;" x1="249.5" x2="447.5" y1="135.75" y2="135.75"/><text fill="#000000" font-family="sans-serif" font-size="11" lengthAdjust="spacing" textLength="59" x="254.5" y="151.1689">-EmployeeID</text><text fill="#000000" font-family="sans-serif" font-size="11" lengthAdjust="spacing" textLength="86" x="254.5" y="165.0049">-OrganizationRole</text><text fill="#000000" font-family="sans-serif" font-size="11" lengthAdjust="spacing" textLength="31" x="254.5" y="178.8408">-Name</text><text fill="#000000" font-family="sans-serif" font-size="11" lengthAdjust="spacing" textLength="46" x="254.5" y="192.6768">-Address</text><text fill="#000000" font-family="sans-serif" font-size="11" lengthAdjust="spacing" textLength="28" x="254.5" y="206.5127">-Email</text><text fill="#000000" font-family="sans-serif" font-size="11" lengthAdjust="spacing" textLength="71" x="254.5" y="220.3486">-PhoneNumber</text><text fill="#000000" font-family="sans-serif" font-size="11" lengthAdjust="spacing" textLength="51" x="254.5" y="234.1846">-SOCCode</text><line style="stroke:#A80036;stroke-width:1.5;" x1="249.5" x2="447.5" y1="240.6016" y2="240.6016"/><!--MD5=[a05769ccb6ff68467d0f03d44782bb8a]
class ChemicalAnalysis--><rect fill="#FEFECE" filter="url(#ffj9dmgb6lo3f)" height="48" id="ChemicalAnalysis" style="stroke:#A80036;stroke-width:1.5;" width="131" x="7" y="152.25"/><ellipse cx="22" cy="168.25" fill="#ADD1B2" rx="11" ry="11" style="stroke:#A80036;stroke-width:1.0;"/><path d="M24,164.75 Q24.2031,164.25 24.4375,164 Q24.6719,163.75 24.9375,163.75 Q25.4063,163.75 25.7031,164.0313 Q26,164.3125 26,164.9688 L26,166.5313 Q26,167.1875 25.7188,167.4688 Q25.4375,167.75 25,167.75 Q24.6094,167.75 24.3594,167.5781 Q24.1094,167.4063 24,166.9531 Q23.9531,166.6406 23.7813,166.4688 Q23.4688,166.1406 22.9063,165.9531 Q22.3438,165.75 21.7813,165.75 Q21.0781,165.75 20.4844,166.0313 Q19.9063,166.3125 19.4531,166.9375 Q19,167.5625 19,168.4219 L19,169.3438 Q19,170.375 19.8438,171.0625 Q20.6875,171.75 22.1875,171.75 Q23.0781,171.75 23.7031,171.5469 Q24.0625,171.4375 24.4688,171.0781 Q24.7344,170.875 24.875,170.8125 Q25.0156,170.75 25.1875,170.75 Q25.5156,170.75 25.75,171.0156 Q26,171.2656 26,171.625 Q26,171.9688 25.6563,172.375 Q25.1563,172.9688 24.3594,173.2969 Q23.3125,173.75 22.0313,173.75 Q20.5313,173.75 19.3281,173.1563 Q18.3594,172.6875 17.6719,171.6719 Q17,170.6563 17,169.4531 L17,168.3594 Q17,167.1094 17.5938,166.0156 Q18.2031,164.9219 19.25,164.3438 Q20.3125,163.75 21.5,163.75 Q22.2188,163.75 22.8438,164 Q23.4688,164.25 24,164.75 Z " fill="#000000"/><text fill="#000000" font-family="sans-serif" font-size="12" lengthAdjust="spacing" textLength="99" x="36" y="173.1602">ChemicalAnalysis</text><line style="stroke:#A80036;stroke-width:1.5;" x1="8" x2="137" y1="184.25" y2="184.25"/><line style="stroke:#A80036;stroke-width:1.5;" x1="8" x2="137" y1="192.25" y2="192.25"/><!--MD5=[e1d86066171c3a502f759e19a2a6ce90]
class TestParameters--><rect fill="#FEFECE" filter="url(#ffj9dmgb6lo3f)" height="48" id="TestParameters" style="stroke:#A80036;stroke-width:1.5;" width="121" x="1242" y="152.25"/><ellipse cx="1257" cy="168.25" fill="#ADD1B2" rx="11" ry="11" style="stroke:#A80036;stroke-width:1.0;"/><path d="M1259,164.75 Q1259.2031,164.25 1259.4375,164 Q1259.6719,163.75 1259.9375,163.75 Q1260.4063,163.75 1260.7031,164.0313 Q1261,164.3125 1261,164.9688 L1261,166.5313 Q1261,167.1875 1260.7188,167.4688 Q1260.4375,167.75 1260,167.75 Q1259.6094,167.75 1259.3594,167.5781 Q1259.1094,167.4063 1259,166.9531 Q1258.9531,166.6406 1258.7813,166.4688 Q1258.4688,166.1406 1257.9063,165.9531 Q1257.3438,165.75 1256.7813,165.75 Q1256.0781,165.75 1255.4844,166.0313 Q1254.9063,166.3125 1254.4531,166.9375 Q1254,167.5625 1254,168.4219 L1254,169.3438 Q1254,170.375 1254.8438,171.0625 Q1255.6875,171.75 1257.1875,171.75 Q1258.0781,171.75 1258.7031,171.5469 Q1259.0625,171.4375 1259.4688,171.0781 Q1259.7344,170.875 1259.875,170.8125 Q1260.0156,170.75 1260.1875,170.75 Q1260.5156,170.75 1260.75,171.0156 Q1261,171.2656 1261,171.625 Q1261,171.9688 1260.6563,172.375 Q1260.1563,172.9688 1259.3594,173.2969 Q1258.3125,173.75 1257.0313,173.75 Q1255.5313,173.75 1254.3281,173.1563 Q1253.3594,172.6875 1252.6719,171.6719 Q1252,170.6563 1252,169.4531 L1252,168.3594 Q1252,167.1094 1252.5938,166.0156 Q1253.2031,164.9219 1254.25,164.3438 Q1255.3125,163.75 1256.5,163.75 Q1257.2188,163.75 1257.8438,164 Q1258.4688,164.25 1259,164.75 Z " fill="#000000"/><text fill="#000000" font-family="sans-serif" font-size="12" lengthAdjust="spacing" textLength="89" x="1271" y="173.1602">TestParameters</text><line style="stroke:#A80036;stroke-width:1.5;" x1="1243" x2="1362" y1="184.25" y2="184.25"/><line style="stroke:#A80036;stroke-width:1.5;" x1="1243" x2="1362" y1="192.25" y2="192.25"/><!--MD5=[c2c6b28b052a3fe86d789b83a09b2815]
link TestType to Test--><path codeLine="45" d="M927.64,176.25 C951.13,176.25 978.97,176.25 1000.87,176.25 " fill="none" id="TestType-Test" style="stroke:#A80036;stroke-width:1.0;"/><polygon fill="#000000" points="944.75,164.4258,953.7951,167.3647,953.7951,161.4869,944.75,164.4258" style="stroke:#000000;stroke-width:1.0;"/><text fill="#000000" font-family="sans-serif" font-size="13" lengthAdjust="spacing" textLength="24" x="958.75" y="169.7451">is of</text><text fill="#000000" font-family="sans-serif" font-size="13" lengthAdjust="spacing" textLength="7" x="935.5474" y="172.5847">1</text><text fill="#000000" font-family="sans-serif" font-size="13" lengthAdjust="spacing" textLength="5" x="987.9694" y="172.2532">*</text><!--MD5=[ff45e86ffcf19d3f3fb7531e16bd7c99]
link LaboratoryCoordinator to Diagnosis--><path codeLine="46" d="M631.57,103.63 C650.02,88.94 670.98,75.6 693,67.75 C720.21,58.05 729.11,67.28 758,67.75 C954.86,70.97 1453.68,44.5 1643.5,96.75 C1679.71,106.72 1716.71,127.42 1744.14,145.2 " fill="none" id="LaboratoryCoordinator-Diagnosis" style="stroke:#A80036;stroke-width:1.0;"/><polygon fill="#000000" points="702.9965,58.1125,694.0675,54.8379,693.848,60.7116,702.9965,58.1125" style="stroke:#000000;stroke-width:1.0;"/><text fill="#000000" font-family="sans-serif" font-size="13" lengthAdjust="spacing" textLength="50" x="707" y="63.2451">validates</text><text fill="#000000" font-family="sans-serif" font-size="13" lengthAdjust="spacing" textLength="20" x="617.7647" y="92.837">1..*</text><text fill="#000000" font-family="sans-serif" font-size="13" lengthAdjust="spacing" textLength="20" x="1736.8425" y="134.2093">1..*</text><!--MD5=[683be3a81e6356290bebea8d046461f0]
link ChemicalAnalysis to LaboratoryCoordinator--><path codeLine="47" d="M105.68,152.14 C144.67,125.44 212.41,84 278,67.75 C360.28,47.36 390.69,58.84 466.5,96.75 C472.37,99.68 478.18,103.05 483.88,106.7 " fill="none" id="ChemicalAnalysis-LaboratoryCoordinator" style="stroke:#A80036;stroke-width:1.0;"/><polygon fill="#000000" points="278.0357,58.5222,287.3668,60.3612,286.6656,54.5253,278.0357,58.5222" style="stroke:#000000;stroke-width:1.0;"/><text fill="#000000" font-family="sans-serif" font-size="13" lengthAdjust="spacing" textLength="50" x="292" y="63.2451">validates</text><text fill="#000000" font-family="sans-serif" font-size="13" lengthAdjust="spacing" textLength="20" x="91.6199" y="141.452">1..*</text><text fill="#000000" font-family="sans-serif" font-size="13" lengthAdjust="spacing" textLength="20" x="456.6275" y="96.916">1..*</text><!--MD5=[ea4a37a070b547a484eb1acc58a2b0bb]
link SpecialistDoctor to Diagnosis--><path codeLine="48" d="M781.03,96.61 C791.3,84.96 803.3,74.59 817,67.75 C842.84,54.84 853.12,67.2 882,67.75 C1220.63,74.2 1317.19,6 1643.5,96.75 C1679.54,106.77 1716.4,127.36 1743.81,145.07 " fill="none" id="SpecialistDoctor-Diagnosis" style="stroke:#A80036;stroke-width:1.0;"/><polygon fill="#000000" points="826.9937,58.1771,818.1078,54.7872,817.8123,60.6576,826.9937,58.1771" style="stroke:#000000;stroke-width:1.0;"/><text fill="#000000" font-family="sans-serif" font-size="13" lengthAdjust="spacing" textLength="50" x="831" y="63.2451">makes a</text><text fill="#000000" font-family="sans-serif" font-size="13" lengthAdjust="spacing" textLength="20" x="764.4165" y="85.7836">1..*</text><text fill="#000000" font-family="sans-serif" font-size="13" lengthAdjust="spacing" textLength="20" x="1714.9176" y="136.1186">1..*</text><!--MD5=[df21a3f01e2f109f59d5e6f76258f810]
link ChemicalAnalysis to ClinicalChemistryTechnologist--><path codeLine="49" d="M138.26,176.25 C171.18,176.25 211.75,176.25 248.44,176.25 " fill="none" id="ChemicalAnalysis-ClinicalChemistryTechnologist" style="stroke:#A80036;stroke-width:1.0;"/><polygon fill="#000000" points="155.25,164.4258,164.2951,167.3647,164.2951,161.4869,155.25,164.4258" style="stroke:#000000;stroke-width:1.0;"/><text fill="#000000" font-family="sans-serif" font-size="13" lengthAdjust="spacing" textLength="61" x="169.25" y="169.7451">performs a</text><text fill="#000000" font-family="sans-serif" font-size="13" lengthAdjust="spacing" textLength="20" x="146.0727" y="190.5882">1..*</text><text fill="#000000" font-family="sans-serif" font-size="13" lengthAdjust="spacing" textLength="20" x="220.3575" y="190.351">1..*</text><!--MD5=[fd8daac44fff60988c8bce2304a37d26]
link ChemicalAnalysis to Test--><path codeLine="50" d="M109.28,152.22 C140.42,133.29 186.97,108.24 231.5,96.75 C312.03,75.96 908.01,25.25 979.5,67.75 C1002.63,81.5 1017.26,107.85 1026.17,131.13 " fill="none" id="ChemicalAnalysis-Test" style="stroke:#A80036;stroke-width:1.0;"/><polygon fill="#000000" points="939.4987,57.8108,930.3884,55.0807,930.5236,60.9569,939.4987,57.8108" style="stroke:#000000;stroke-width:1.0;"/><text fill="#000000" font-family="sans-serif" font-size="13" lengthAdjust="spacing" textLength="35" x="943.5" y="63.2451">is of a</text><text fill="#000000" font-family="sans-serif" font-size="13" lengthAdjust="spacing" textLength="7" x="119.6018" y="141.5525">1</text><text fill="#000000" font-family="sans-serif" font-size="13" lengthAdjust="spacing" textLength="7" x="1016.746" y="120.5557">1</text><!--MD5=[e80eb7b358ff3844f1d066086bf7c32a]
link Test to TestParameters--><path codeLine="51" d="M1076.04,176.25 C1119.25,176.25 1190.8,176.25 1241.92,176.25 " fill="none" id="Test-TestParameters" style="stroke:#A80036;stroke-width:1.0;"/><polygon fill="#000000" points="1103.5,164.4258,1094.4549,161.4869,1094.4549,167.3647,1103.5,164.4258" style="stroke:#000000;stroke-width:1.0;"/><text fill="#000000" font-family="sans-serif" font-size="13" lengthAdjust="spacing" textLength="116" x="1107.5" y="169.7451">requests analysis of</text><text fill="#000000" font-family="sans-serif" font-size="13" lengthAdjust="spacing" textLength="7" x="1084.1198" y="172.2532">1</text><text fill="#000000" font-family="sans-serif" font-size="13" lengthAdjust="spacing" textLength="20" x="1214.2003" y="190.6393">1..*</text><!--MD5=[da4a618ed680c09914916f03305b958f]
link TestParameters to TestParametersResults--><path codeLine="52" d="M1363,176.25 C1392.7,176.25 1428.93,176.25 1461.11,176.25 " fill="none" id="TestParameters-TestParametersResults" style="stroke:#A80036;stroke-width:1.0;"/><polygon fill="#000000" points="1390.25,164.4258,1381.2049,161.4869,1381.2049,167.3647,1390.25,164.4258" style="stroke:#000000;stroke-width:1.0;"/><text fill="#000000" font-family="sans-serif" font-size="13" lengthAdjust="spacing" textLength="49" x="1394.25" y="169.7451">contains</text><text fill="#000000" font-family="sans-serif" font-size="13" lengthAdjust="spacing" textLength="7" x="1370.8" y="172.7915">1</text><text fill="#000000" font-family="sans-serif" font-size="13" lengthAdjust="spacing" textLength="22" x="1431.3761" y="190.4222">0..1</text><!--MD5=[f2330008e09122de8d78f7e2005bd99a]
link TestParametersResults to Diagnosis--><path codeLine="53" d="M1625.77,176.25 C1664.92,176.25 1710.2,176.25 1742.88,176.25 " fill="none" id="TestParametersResults-Diagnosis" style="stroke:#A80036;stroke-width:1.0;"/><polygon fill="#000000" points="1642.75,164.4258,1651.7951,167.3647,1651.7951,161.4869,1642.75,164.4258" style="stroke:#000000;stroke-width:1.0;"/><text fill="#000000" font-family="sans-serif" font-size="13" lengthAdjust="spacing" textLength="68" x="1656.75" y="169.7451">made about</text><text fill="#000000" font-family="sans-serif" font-size="13" lengthAdjust="spacing" textLength="20" x="1633.4111" y="190.4222">1..*</text><text fill="#000000" font-family="sans-serif" font-size="13" lengthAdjust="spacing" textLength="7" x="1727.9101" y="172.4628">1</text><!--MD5=[1dcc5b160b2cf310e0d9f17b7cc443f3]
@startuml
skinparam classAttributeIconSize 0
class Diagnosis{
-Report
}
class LaboratoryCoordinator{
-EmployeeID
-OrganizationRole
-Name
-Address
-Email
-PhoneNumber
-SOCCode
}
class Test{
-code
-NHScode
-dateCreated
}
class TestType{
-code
-description
-collectingMethod
}
class TestParametersResults{}
class SpecialistDoctor{
-EmployeeID
-OrganizationRole
-Name
-Address
-Email
-PhoneNumber
-SOCCode
-DoctorIndexNumber
}
class ClinicalChemistryTechnologist{
-EmployeeID
-OrganizationRole
-Name
-Address
-Email
-PhoneNumber
-SOCCode
}

Test "*" -up "1" TestType: is of >
LaboratoryCoordinator "1..*" -down "1..*" Diagnosis:validates >
LaboratoryCoordinator "1..*" -up "1..*" ChemicalAnalysis:validates >
SpecialistDoctor "1..*" -right "1..*" Diagnosis: makes a >
ClinicalChemistryTechnologist "1..*" -up "1..*" ChemicalAnalysis: performs a >
ChemicalAnalysis "1" -down "1" Test: is of a >
Test "1" -down "1..*" TestParameters: requests analysis of >
TestParameters "1" -down "0..1" TestParametersResults: contains >
TestParametersResults "1..*" -down "1" Diagnosis: made about <
@enduml

PlantUML version 1.2021.5(Sun Apr 25 12:20:28 BST 2021)
(GPL source distribution)
Java Runtime: OpenJDK Runtime Environment
JVM: Dynamic Code Evolution 64-Bit Server VM
Default Encoding: Cp1252
Language: en
Country: US
--></g></svg>