<?xml version="1.0" encoding="UTF-8" standalone="no"?><svg xmlns="http://www.w3.org/2000/svg" xmlns:xlink="http://www.w3.org/1999/xlink" contentScriptType="application/ecmascript" contentStyleType="text/css" height="1103px" preserveAspectRatio="none" style="width:1708px;height:1103px;" version="1.1" viewBox="0 0 1708 1103" width="1708px" zoomAndPan="magnify"><defs><filter height="300%" id="f372ob2gh6jat" width="300%" x="-1" y="-1"><feGaussianBlur result="blurOut" stdDeviation="2.0"/><feColorMatrix in="blurOut" result="blurOut2" type="matrix" values="0 0 0 0 0 0 0 0 0 0 0 0 0 0 0 0 0 0 .4 0"/><feOffset dx="4.0" dy="4.0" in="blurOut2" result="blurOut3"/><feBlend in="SourceGraphic" in2="blurOut3" mode="normal"/></filter></defs><g><rect fill="#FFFFFF" filter="url(#f372ob2gh6jat)" height="900.25" style="stroke:#A80036;stroke-width:1.0;" width="10" x="77" y="99.6094"/><rect fill="#FFFFFF" filter="url(#f372ob2gh6jat)" height="575.0859" style="stroke:#A80036;stroke-width:1.0;" width="10" x="339" y="121.9609"/><rect fill="#FFFFFF" filter="url(#f372ob2gh6jat)" height="30.3516" style="stroke:#A80036;stroke-width:1.0;" width="10" x="339" y="727.3984"/><rect fill="#FFFFFF" filter="url(#f372ob2gh6jat)" height="211.7578" style="stroke:#A80036;stroke-width:1.0;" width="10" x="339" y="788.1016"/><rect fill="#FFFFFF" filter="url(#f372ob2gh6jat)" height="514.3828" style="stroke:#A80036;stroke-width:1.0;" width="10" x="537" y="152.3125"/><rect fill="#FFFFFF" filter="url(#f372ob2gh6jat)" height="151.0547" style="stroke:#A80036;stroke-width:1.0;" width="10" x="537" y="818.4531"/><rect fill="#FFFFFF" filter="url(#f372ob2gh6jat)" height="30" style="stroke:#A80036;stroke-width:1.0;" width="10" x="771" y="182.6641"/><rect fill="#FFFFFF" filter="url(#f372ob2gh6jat)" height="30" style="stroke:#A80036;stroke-width:1.0;" width="10" x="875.5" y="243.0156"/><rect fill="#FFFFFF" filter="url(#f372ob2gh6jat)" height="30" style="stroke:#A80036;stroke-width:1.0;" width="10" x="875.5" y="848.8047"/><rect fill="#FFFFFF" filter="url(#f372ob2gh6jat)" height="30" style="stroke:#A80036;stroke-width:1.0;" width="10" x="875.5" y="939.5078"/><rect fill="#FFFFFF" filter="url(#f372ob2gh6jat)" height="363.3281" style="stroke:#A80036;stroke-width:1.0;" width="10" x="999.5" y="303.3672"/><rect fill="#FFFFFF" filter="url(#f372ob2gh6jat)" height="28" style="stroke:#A80036;stroke-width:1.0;" width="10" x="1004.5" y="487.3828"/><rect fill="#FFFFFF" filter="url(#f372ob2gh6jat)" height="30" style="stroke:#A80036;stroke-width:1.0;" width="10" x="1245" y="599.3438"/><rect fill="#FFFFFF" filter="url(#f372ob2gh6jat)" height="242.0156" style="stroke:#000000;stroke-width:2.0;" width="760.5" x="934" y="395.3281"/><line style="stroke:#A80036;stroke-width:1.0;stroke-dasharray:5.0,5.0;" x1="82" x2="82" y1="89.6094" y2="1017.8594"/><line style="stroke:#A80036;stroke-width:1.0;stroke-dasharray:5.0,5.0;" x1="343.5" x2="343.5" y1="89.6094" y2="1017.8594"/><line style="stroke:#A80036;stroke-width:1.0;stroke-dasharray:5.0,5.0;" x1="541.5" x2="541.5" y1="89.6094" y2="1017.8594"/><line style="stroke:#A80036;stroke-width:1.0;stroke-dasharray:5.0,5.0;" x1="776" x2="776" y1="89.6094" y2="1017.8594"/><line style="stroke:#A80036;stroke-width:1.0;stroke-dasharray:5.0,5.0;" x1="880" x2="880" y1="89.6094" y2="1017.8594"/><line style="stroke:#A80036;stroke-width:1.0;stroke-dasharray:5.0,5.0;" x1="1004" x2="1004" y1="89.6094" y2="1017.8594"/><line style="stroke:#A80036;stroke-width:1.0;stroke-dasharray:5.0,5.0;" x1="1249.5" x2="1249.5" y1="375.0234" y2="1017.8594"/><line style="stroke:#A80036;stroke-width:1.0;stroke-dasharray:5.0,5.0;" x1="1552.5" x2="1552.5" y1="563.6875" y2="1017.8594"/><text fill="#000000" font-family="sans-serif" font-size="14" lengthAdjust="spacing" textLength="148" x="5" y="86.5332">Laboratory Coordinator</text><ellipse cx="82" cy="15" fill="#FEFECE" filter="url(#f372ob2gh6jat)" rx="8" ry="8" style="stroke:#A80036;stroke-width:2.0;"/><path d="M82,23 L82,50 M69,31 L95,31 M82,50 L69,65 M82,50 L95,65 " fill="none" filter="url(#f372ob2gh6jat)" style="stroke:#A80036;stroke-width:2.0;"/><text fill="#000000" font-family="sans-serif" font-size="14" lengthAdjust="spacing" textLength="148" x="5" y="1031.3926">Laboratory Coordinator</text><ellipse cx="82" cy="1044.4688" fill="#FEFECE" filter="url(#f372ob2gh6jat)" rx="8" ry="8" style="stroke:#A80036;stroke-width:2.0;"/><path d="M82,1052.4688 L82,1079.4688 M69,1060.4688 L95,1060.4688 M82,1079.4688 L69,1094.4688 M82,1079.4688 L95,1094.4688 " fill="none" filter="url(#f372ob2gh6jat)" style="stroke:#A80036;stroke-width:2.0;"/><rect fill="#FEFECE" filter="url(#f372ob2gh6jat)" height="31.6094" style="stroke:#A80036;stroke-width:1.5;" width="81" x="301.5" y="53"/><text fill="#000000" font-family="sans-serif" font-size="14" lengthAdjust="spacing" textLength="67" x="308.5" y="74.5332">:ValidateUI</text><rect fill="#FEFECE" filter="url(#f372ob2gh6jat)" height="31.6094" style="stroke:#A80036;stroke-width:1.5;" width="81" x="301.5" y="1016.8594"/><text fill="#000000" font-family="sans-serif" font-size="14" lengthAdjust="spacing" textLength="67" x="308.5" y="1038.3926">:ValidateUI</text><rect fill="#FEFECE" filter="url(#f372ob2gh6jat)" height="31.6094" style="stroke:#A80036;stroke-width:1.5;" width="131" x="474.5" y="53"/><text fill="#000000" font-family="sans-serif" font-size="14" lengthAdjust="spacing" textLength="117" x="481.5" y="74.5332">:ValidateController</text><rect fill="#FEFECE" filter="url(#f372ob2gh6jat)" height="31.6094" style="stroke:#A80036;stroke-width:1.5;" width="131" x="474.5" y="1016.8594"/><text fill="#000000" font-family="sans-serif" font-size="14" lengthAdjust="spacing" textLength="117" x="481.5" y="1038.3926">:ValidateController</text><rect fill="#FEFECE" filter="url(#f372ob2gh6jat)" height="31.6094" style="stroke:#A80036;stroke-width:1.5;" width="78" x="735" y="53"/><text fill="#000000" font-family="sans-serif" font-size="14" lengthAdjust="spacing" textLength="64" x="742" y="74.5332">:Company</text><rect fill="#FEFECE" filter="url(#f372ob2gh6jat)" height="31.6094" style="stroke:#A80036;stroke-width:1.5;" width="78" x="735" y="1016.8594"/><text fill="#000000" font-family="sans-serif" font-size="14" lengthAdjust="spacing" textLength="64" x="742" y="1038.3926">:Company</text><rect fill="#FEFECE" filter="url(#f372ob2gh6jat)" height="31.6094" style="stroke:#A80036;stroke-width:1.5;" width="103" x="827" y="53"/><text fill="#000000" font-family="sans-serif" font-size="14" lengthAdjust="spacing" textLength="89" x="834" y="74.5332">:ValidateStore</text><rect fill="#FEFECE" filter="url(#f372ob2gh6jat)" height="31.6094" style="stroke:#A80036;stroke-width:1.5;" width="103" x="827" y="1016.8594"/><text fill="#000000" font-family="sans-serif" font-size="14" lengthAdjust="spacing" textLength="89" x="834" y="1038.3926">:ValidateStore</text><rect fill="#FEFECE" filter="url(#f372ob2gh6jat)" height="31.6094" style="stroke:#A80036;stroke-width:1.5;" width="117" x="944" y="53"/><text fill="#000000" font-family="sans-serif" font-size="14" lengthAdjust="spacing" textLength="103" x="951" y="74.5332">:ValidateMapper</text><rect fill="#FEFECE" filter="url(#f372ob2gh6jat)" height="31.6094" style="stroke:#A80036;stroke-width:1.5;" width="117" x="944" y="1016.8594"/><text fill="#000000" font-family="sans-serif" font-size="14" lengthAdjust="spacing" textLength="103" x="951" y="1038.3926">:ValidateMapper</text><rect fill="#FEFECE" filter="url(#f372ob2gh6jat)" height="31.6094" style="stroke:#A80036;stroke-width:1.5;" width="319" x="1088.5" y="1016.8594"/><text fill="#000000" font-family="sans-serif" font-size="14" lengthAdjust="spacing" textLength="305" x="1095.5" y="1038.3926">workToBeValidatedListDTO : List&lt;ValidateDTO&gt;</text><rect fill="#FEFECE" filter="url(#f372ob2gh6jat)" height="31.6094" style="stroke:#A80036;stroke-width:1.5;" width="259" x="1421.5" y="1016.8594"/><text fill="#000000" font-family="sans-serif" font-size="14" lengthAdjust="spacing" textLength="245" x="1428.5" y="1038.3926">workToBeValidatedDTO : ValidateDTO</text><rect fill="#FFFFFF" filter="url(#f372ob2gh6jat)" height="900.25" style="stroke:#A80036;stroke-width:1.0;" width="10" x="77" y="99.6094"/><rect fill="#FFFFFF" filter="url(#f372ob2gh6jat)" height="575.0859" style="stroke:#A80036;stroke-width:1.0;" width="10" x="339" y="121.9609"/><rect fill="#FFFFFF" filter="url(#f372ob2gh6jat)" height="30.3516" style="stroke:#A80036;stroke-width:1.0;" width="10" x="339" y="727.3984"/><rect fill="#FFFFFF" filter="url(#f372ob2gh6jat)" height="211.7578" style="stroke:#A80036;stroke-width:1.0;" width="10" x="339" y="788.1016"/><rect fill="#FFFFFF" filter="url(#f372ob2gh6jat)" height="514.3828" style="stroke:#A80036;stroke-width:1.0;" width="10" x="537" y="152.3125"/><rect fill="#FFFFFF" filter="url(#f372ob2gh6jat)" height="151.0547" style="stroke:#A80036;stroke-width:1.0;" width="10" x="537" y="818.4531"/><rect fill="#FFFFFF" filter="url(#f372ob2gh6jat)" height="30" style="stroke:#A80036;stroke-width:1.0;" width="10" x="771" y="182.6641"/><rect fill="#FFFFFF" filter="url(#f372ob2gh6jat)" height="30" style="stroke:#A80036;stroke-width:1.0;" width="10" x="875.5" y="243.0156"/><rect fill="#FFFFFF" filter="url(#f372ob2gh6jat)" height="30" style="stroke:#A80036;stroke-width:1.0;" width="10" x="875.5" y="848.8047"/><rect fill="#FFFFFF" filter="url(#f372ob2gh6jat)" height="30" style="stroke:#A80036;stroke-width:1.0;" width="10" x="875.5" y="939.5078"/><rect fill="#FFFFFF" filter="url(#f372ob2gh6jat)" height="363.3281" style="stroke:#A80036;stroke-width:1.0;" width="10" x="999.5" y="303.3672"/><rect fill="#FFFFFF" filter="url(#f372ob2gh6jat)" height="28" style="stroke:#A80036;stroke-width:1.0;" width="10" x="1004.5" y="487.3828"/><rect fill="#FFFFFF" filter="url(#f372ob2gh6jat)" height="30" style="stroke:#A80036;stroke-width:1.0;" width="10" x="1245" y="599.3438"/><polygon fill="#A80036" points="327,117.9609,337,121.9609,327,125.9609,331,121.9609" style="stroke:#A80036;stroke-width:1.0;"/><line style="stroke:#A80036;stroke-width:1.0;" x1="87" x2="333" y1="121.9609" y2="121.9609"/><text fill="#000000" font-family="sans-serif" font-size="13" font-weight="bold" lengthAdjust="spacing" textLength="7" x="94" y="117.1045">1</text><text fill="#000000" font-family="sans-serif" font-size="13" lengthAdjust="spacing" textLength="162" x="105" y="117.1045">starts the validation process</text><polygon fill="#A80036" points="525,148.3125,535,152.3125,525,156.3125,529,152.3125" style="stroke:#A80036;stroke-width:1.0;"/><line style="stroke:#A80036;stroke-width:1.0;" x1="349" x2="531" y1="152.3125" y2="152.3125"/><text fill="#000000" font-family="sans-serif" font-size="13" font-weight="bold" lengthAdjust="spacing" textLength="7" x="356" y="147.4561">2</text><text fill="#000000" font-family="sans-serif" font-size="13" lengthAdjust="spacing" textLength="120" x="367" y="147.4561">getValidateDTOList()</text><polygon fill="#A80036" points="759,178.6641,769,182.6641,759,186.6641,763,182.6641" style="stroke:#A80036;stroke-width:1.0;"/><line style="stroke:#A80036;stroke-width:1.0;" x1="547" x2="765" y1="182.6641" y2="182.6641"/><text fill="#000000" font-family="sans-serif" font-size="13" font-weight="bold" lengthAdjust="spacing" textLength="7" x="554" y="177.8076">3</text><text fill="#000000" font-family="sans-serif" font-size="13" lengthAdjust="spacing" textLength="194" x="565" y="177.8076">validateStore = getValidateStore()</text><polygon fill="#A80036" points="863.5,239.0156,873.5,243.0156,863.5,247.0156,867.5,243.0156" style="stroke:#A80036;stroke-width:1.0;"/><line style="stroke:#A80036;stroke-width:1.0;" x1="547" x2="869.5" y1="243.0156" y2="243.0156"/><text fill="#000000" font-family="sans-serif" font-size="13" font-weight="bold" lengthAdjust="spacing" textLength="7" x="554" y="238.1592">4</text><text fill="#000000" font-family="sans-serif" font-size="13" lengthAdjust="spacing" textLength="162" x="565" y="238.1592">getWorkToBeValidatedList()</text><polygon fill="#A80036" points="987.5,299.3672,997.5,303.3672,987.5,307.3672,991.5,303.3672" style="stroke:#A80036;stroke-width:1.0;"/><line style="stroke:#A80036;stroke-width:1.0;" x1="547" x2="993.5" y1="303.3672" y2="303.3672"/><text fill="#000000" font-family="sans-serif" font-size="13" font-weight="bold" lengthAdjust="spacing" textLength="7" x="554" y="298.5107">5</text><text fill="#000000" font-family="sans-serif" font-size="13" lengthAdjust="spacing" textLength="184" x="565" y="298.5107">mapper = new ValidateMapper()</text><polygon fill="#A80036" points="987.5,329.7188,997.5,333.7188,987.5,337.7188,991.5,333.7188" style="stroke:#A80036;stroke-width:1.0;"/><line style="stroke:#A80036;stroke-width:1.0;" x1="547" x2="993.5" y1="333.7188" y2="333.7188"/><text fill="#000000" font-family="sans-serif" font-size="13" font-weight="bold" lengthAdjust="spacing" textLength="7" x="554" y="328.8623">6</text><text fill="#000000" font-family="sans-serif" font-size="13" lengthAdjust="spacing" textLength="246" x="565" y="328.8623">mapper.toDTO(getWorkToBeValidatedList)</text><polygon fill="#A80036" points="1076.5,360.0703,1086.5,364.0703,1076.5,368.0703,1080.5,364.0703" style="stroke:#A80036;stroke-width:1.0;"/><line style="stroke:#A80036;stroke-width:1.0;" x1="1009.5" x2="1082.5" y1="364.0703" y2="364.0703"/><text fill="#000000" font-family="sans-serif" font-size="13" font-weight="bold" lengthAdjust="spacing" textLength="7" x="1016.5" y="359.2139">7</text><text fill="#000000" font-family="sans-serif" font-size="13" lengthAdjust="spacing" textLength="44" x="1027.5" y="359.2139">create()</text><rect fill="#FEFECE" filter="url(#f372ob2gh6jat)" height="31.6094" style="stroke:#A80036;stroke-width:1.5;" width="319" x="1088.5" y="341.7188"/><text fill="#000000" font-family="sans-serif" font-size="14" lengthAdjust="spacing" textLength="305" x="1095.5" y="363.252">workToBeValidatedListDTO : List&lt;ValidateDTO&gt;</text><path d="M934,395.3281 L1007,395.3281 L1007,403.3281 L997,413.3281 L934,413.3281 L934,395.3281 " fill="#EEEEEE" style="stroke:#000000;stroke-width:1.0;"/><rect fill="none" height="242.0156" style="stroke:#000000;stroke-width:2.0;" width="760.5" x="934" y="395.3281"/><text fill="#000000" font-family="sans-serif" font-size="13" font-weight="bold" lengthAdjust="spacing" textLength="28" x="949" y="409.8232">loop</text><text fill="#000000" font-family="sans-serif" font-size="11" font-weight="bold" lengthAdjust="spacing" textLength="253" x="1022" y="408.7471">[for each object in getWorkToBeValidatedList]</text><line style="stroke:#A80036;stroke-width:1.0;" x1="1009.5" x2="1051.5" y1="436.0313" y2="436.0313"/><line style="stroke:#A80036;stroke-width:1.0;" x1="1051.5" x2="1051.5" y1="436.0313" y2="449.0313"/><line style="stroke:#A80036;stroke-width:1.0;" x1="1010.5" x2="1051.5" y1="449.0313" y2="449.0313"/><polygon fill="#A80036" points="1020.5,445.0313,1010.5,449.0313,1020.5,453.0313,1016.5,449.0313" style="stroke:#A80036;stroke-width:1.0;"/><text fill="#000000" font-family="sans-serif" font-size="13" font-weight="bold" lengthAdjust="spacing" textLength="7" x="1016.5" y="431.1748">8</text><text fill="#000000" font-family="sans-serif" font-size="13" lengthAdjust="spacing" textLength="62" x="1027.5" y="431.1748">obj = get(i)</text><line style="stroke:#A80036;stroke-width:1.0;" x1="1014.5" x2="1056.5" y1="479.3828" y2="479.3828"/><line style="stroke:#A80036;stroke-width:1.0;" x1="1056.5" x2="1056.5" y1="479.3828" y2="492.3828"/><line style="stroke:#A80036;stroke-width:1.0;" x1="1015.5" x2="1056.5" y1="492.3828" y2="492.3828"/><polygon fill="#A80036" points="1025.5,488.3828,1015.5,492.3828,1025.5,496.3828,1021.5,492.3828" style="stroke:#A80036;stroke-width:1.0;"/><text fill="#000000" font-family="sans-serif" font-size="13" font-weight="bold" lengthAdjust="spacing" textLength="7" x="1021.5" y="474.5264">9</text><text fill="#000000" font-family="sans-serif" font-size="13" lengthAdjust="spacing" textLength="121" x="1032.5" y="474.5264">objDTO = toDTO(obj)</text><polygon fill="#A80036" points="1409.5,548.7344,1419.5,552.7344,1409.5,556.7344,1413.5,552.7344" style="stroke:#A80036;stroke-width:1.0;"/><line style="stroke:#A80036;stroke-width:1.0;" x1="1009.5" x2="1415.5" y1="552.7344" y2="552.7344"/><text fill="#000000" font-family="sans-serif" font-size="13" font-weight="bold" lengthAdjust="spacing" textLength="14" x="1016.5" y="547.8779">10</text><text fill="#000000" font-family="sans-serif" font-size="13" lengthAdjust="spacing" textLength="56" x="1034.5" y="547.8779">create(...)</text><rect fill="#FEFECE" filter="url(#f372ob2gh6jat)" height="31.6094" style="stroke:#A80036;stroke-width:1.5;" width="259" x="1421.5" y="530.3828"/><text fill="#000000" font-family="sans-serif" font-size="14" lengthAdjust="spacing" textLength="245" x="1428.5" y="551.916">workToBeValidatedDTO : ValidateDTO</text><polygon fill="#A80036" points="1233,595.3438,1243,599.3438,1233,603.3438,1237,599.3438" style="stroke:#A80036;stroke-width:1.0;"/><line style="stroke:#A80036;stroke-width:1.0;" x1="1009.5" x2="1239" y1="599.3438" y2="599.3438"/><text fill="#000000" font-family="sans-serif" font-size="13" font-weight="bold" lengthAdjust="spacing" textLength="14" x="1016.5" y="594.4873">11</text><text fill="#000000" font-family="sans-serif" font-size="13" lengthAdjust="spacing" textLength="72" x="1034.5" y="594.4873">add(objDTO)</text><polygon fill="#A80036" points="553,662.6953,543,666.6953,553,670.6953,549,666.6953" style="stroke:#A80036;stroke-width:1.0;"/><line style="stroke:#A80036;stroke-width:1.0;stroke-dasharray:2.0,2.0;" x1="547" x2="1003.5" y1="666.6953" y2="666.6953"/><text fill="#000000" font-family="sans-serif" font-size="13" font-weight="bold" lengthAdjust="spacing" textLength="14" x="559" y="661.8389">12</text><text fill="#000000" font-family="sans-serif" font-size="13" lengthAdjust="spacing" textLength="158" x="577" y="661.8389">workToBeValidatedListDTO</text><polygon fill="#A80036" points="98,693.0469,88,697.0469,98,701.0469,94,697.0469" style="stroke:#A80036;stroke-width:1.0;"/><line style="stroke:#A80036;stroke-width:1.0;stroke-dasharray:2.0,2.0;" x1="92" x2="343" y1="697.0469" y2="697.0469"/><text fill="#000000" font-family="sans-serif" font-size="13" font-weight="bold" lengthAdjust="spacing" textLength="14" x="104" y="692.1904">13</text><text fill="#000000" font-family="sans-serif" font-size="13" lengthAdjust="spacing" textLength="177" x="122" y="692.1904">shows the work to be validated</text><polygon fill="#A80036" points="327,723.3984,337,727.3984,327,731.3984,331,727.3984" style="stroke:#A80036;stroke-width:1.0;"/><line style="stroke:#A80036;stroke-width:1.0;" x1="87" x2="333" y1="727.3984" y2="727.3984"/><text fill="#000000" font-family="sans-serif" font-size="13" font-weight="bold" lengthAdjust="spacing" textLength="14" x="94" y="722.542">14</text><text fill="#000000" font-family="sans-serif" font-size="13" lengthAdjust="spacing" textLength="182" x="112" y="722.542">selects the work to be validated</text><polygon fill="#A80036" points="98,753.75,88,757.75,98,761.75,94,757.75" style="stroke:#A80036;stroke-width:1.0;"/><line style="stroke:#A80036;stroke-width:1.0;stroke-dasharray:2.0,2.0;" x1="92" x2="343" y1="757.75" y2="757.75"/><text fill="#000000" font-family="sans-serif" font-size="13" font-weight="bold" lengthAdjust="spacing" textLength="14" x="104" y="752.8936">15</text><text fill="#000000" font-family="sans-serif" font-size="13" lengthAdjust="spacing" textLength="103" x="122" y="752.8936">asks for validation</text><polygon fill="#A80036" points="327,784.1016,337,788.1016,327,792.1016,331,788.1016" style="stroke:#A80036;stroke-width:1.0;"/><line style="stroke:#A80036;stroke-width:1.0;" x1="87" x2="333" y1="788.1016" y2="788.1016"/><text fill="#000000" font-family="sans-serif" font-size="13" font-weight="bold" lengthAdjust="spacing" textLength="14" x="94" y="783.2451">16</text><text fill="#000000" font-family="sans-serif" font-size="13" lengthAdjust="spacing" textLength="103" x="112" y="783.2451">validates the work</text><polygon fill="#A80036" points="525,814.4531,535,818.4531,525,822.4531,529,818.4531" style="stroke:#A80036;stroke-width:1.0;"/><line style="stroke:#A80036;stroke-width:1.0;" x1="349" x2="531" y1="818.4531" y2="818.4531"/><text fill="#000000" font-family="sans-serif" font-size="13" font-weight="bold" lengthAdjust="spacing" textLength="14" x="356" y="813.5967">17</text><text fill="#000000" font-family="sans-serif" font-size="13" lengthAdjust="spacing" textLength="126" x="374" y="813.5967">addValidated(number)</text><polygon fill="#A80036" points="863.5,844.8047,873.5,848.8047,863.5,852.8047,867.5,848.8047" style="stroke:#A80036;stroke-width:1.0;"/><line style="stroke:#A80036;stroke-width:1.0;" x1="547" x2="869.5" y1="848.8047" y2="848.8047"/><text fill="#000000" font-family="sans-serif" font-size="13" font-weight="bold" lengthAdjust="spacing" textLength="14" x="554" y="843.9482">18</text><text fill="#000000" font-family="sans-serif" font-size="13" lengthAdjust="spacing" textLength="126" x="572" y="843.9482">addValidated(number)</text><polygon fill="#A80036" points="525,905.1563,535,909.1563,525,913.1563,529,909.1563" style="stroke:#A80036;stroke-width:1.0;"/><line style="stroke:#A80036;stroke-width:1.0;" x1="349" x2="531" y1="909.1563" y2="909.1563"/><text fill="#000000" font-family="sans-serif" font-size="13" font-weight="bold" lengthAdjust="spacing" textLength="14" x="356" y="904.2998">19</text><text fill="#000000" font-family="sans-serif" font-size="13" lengthAdjust="spacing" textLength="146" x="374" y="904.2998">removeValidated(number)</text><polygon fill="#A80036" points="863.5,935.5078,873.5,939.5078,863.5,943.5078,867.5,939.5078" style="stroke:#A80036;stroke-width:1.0;"/><line style="stroke:#A80036;stroke-width:1.0;" x1="547" x2="869.5" y1="939.5078" y2="939.5078"/><text fill="#000000" font-family="sans-serif" font-size="13" font-weight="bold" lengthAdjust="spacing" textLength="14" x="554" y="934.6514">20</text><text fill="#000000" font-family="sans-serif" font-size="13" lengthAdjust="spacing" textLength="146" x="572" y="934.6514">removeValidated(number)</text><polygon fill="#A80036" points="93,995.8594,83,999.8594,93,1003.8594,89,999.8594" style="stroke:#A80036;stroke-width:1.0;"/><line style="stroke:#A80036;stroke-width:1.0;stroke-dasharray:2.0,2.0;" x1="87" x2="343" y1="999.8594" y2="999.8594"/><text fill="#000000" font-family="sans-serif" font-size="13" font-weight="bold" lengthAdjust="spacing" textLength="14" x="99" y="995.0029">21</text><text fill="#000000" font-family="sans-serif" font-size="13" lengthAdjust="spacing" textLength="210" x="117" y="995.0029">informs the success of the operation</text><!--MD5=[899733da9e6dc5c599a2cfbeaa81b769]
@startuml
autonumber
Actor "Laboratory Coordinator"
activate "Laboratory Coordinator"
"Laboratory Coordinator" -> ":ValidateUI": starts the validation process
activate ":ValidateUI"
":ValidateUI" -> ":ValidateController" : getValidateDTOList()
activate ":ValidateController"
":ValidateController" -> ":Company" : validateStore = getValidateStore()
activate ":Company"
deactivate
":ValidateController" -> ":ValidateStore" : getWorkToBeValidatedList()
activate ":ValidateStore"
deactivate
":ValidateController" -> ":ValidateMapper" : mapper = new ValidateMapper()
activate ":ValidateMapper"
":ValidateController" -> ":ValidateMapper" : mapper.toDTO(getWorkToBeValidatedList)
create "workToBeValidatedListDTO : List<ValidateDTO>"
":ValidateMapper" -> "workToBeValidatedListDTO : List<ValidateDTO>": create()
loop for each object in getWorkToBeValidatedList
":ValidateMapper" -> ":ValidateMapper" : obj = get(i)
":ValidateMapper" -> ":ValidateMapper" : objDTO = toDTO(obj)
activate ":ValidateMapper"
deactivate
create "workToBeValidatedDTO : ValidateDTO"
":ValidateMapper" -> "workToBeValidatedDTO : ValidateDTO": create(...)
":ValidateMapper" -> "workToBeValidatedListDTO : List<ValidateDTO>" : add(objDTO)
activate "workToBeValidatedListDTO : List<ValidateDTO>"
deactivate
end
":ValidateMapper" - -> ":ValidateController" : workToBeValidatedListDTO
deactivate
deactivate ":ValidateController"


":ValidateUI" - -> "Laboratory Coordinator": shows the work to be validated
deactivate ":ValidateUI"

"Laboratory Coordinator" -> ":ValidateUI": selects the work to be validated
activate ":ValidateUI"
":ValidateUI" - -> "Laboratory Coordinator": asks for validation
deactivate ":ValidateUI"


"Laboratory Coordinator" -> ":ValidateUI": validates the work
activate ":ValidateUI"
":ValidateUI" -> ":ValidateController": addValidated(number)
activate ":ValidateController"
":ValidateController" -> ":ValidateStore": addValidated(number)
activate ":ValidateStore"
deactivate ":ValidateStore"
":ValidateUI" -> ":ValidateController": removeValidated(number)
":ValidateController" -> ":ValidateStore": removeValidated(number)
activate ":ValidateStore"
deactivate ":ValidateStore"
deactivate
":ValidateUI" - -> "Laboratory Coordinator": informs the success of the operation
deactivate ":ValidateUI"
deactivate "Laboratory Coordinator"
@enduml

PlantUML version 1.2021.5(Sun Apr 25 12:20:28 BST 2021)
(GPL source distribution)
Java Runtime: OpenJDK Runtime Environment
JVM: Dynamic Code Evolution 64-Bit Server VM
Default Encoding: Cp1252
Language: en
Country: US
--></g></svg>