<?xml version="1.0" encoding="UTF-8" standalone="no"?><svg xmlns="http://www.w3.org/2000/svg" xmlns:xlink="http://www.w3.org/1999/xlink" contentScriptType="application/ecmascript" contentStyleType="text/css" height="368px" preserveAspectRatio="none" style="width:310px;height:368px;background:#FFFFFF;" version="1.1" viewBox="0 0 310 368" width="310px" zoomAndPan="magnify"><defs><filter height="300%" id="fb00dfhw9qv4n" width="300%" x="-1" y="-1"><feGaussianBlur result="blurOut" stdDeviation="2.0"/><feColorMatrix in="blurOut" result="blurOut2" type="matrix" values="0 0 0 0 0 0 0 0 0 0 0 0 0 0 0 0 0 0 .4 0"/><feOffset dx="4.0" dy="4.0" in="blurOut2" result="blurOut3"/><feBlend in="SourceGraphic" in2="blurOut3" mode="normal"/></filter></defs><g><rect fill="#FFFFFF" filter="url(#fb00dfhw9qv4n)" height="146.5313" style="stroke:#A80036;stroke-width:1.0;" width="10" x="90.5" y="119.4297"/><rect fill="#FFFFFF" filter="url(#fb00dfhw9qv4n)" height="30" style="stroke:#A80036;stroke-width:1.0;" width="10" x="256.5" y="119.4297"/><rect fill="#FFFFFF" filter="url(#fb00dfhw9qv4n)" height="29.1328" style="stroke:#A80036;stroke-width:1.0;" width="10" x="256.5" y="178.5625"/><rect fill="#FFFFFF" filter="url(#fb00dfhw9qv4n)" height="29.1328" style="stroke:#A80036;stroke-width:1.0;" width="10" x="256.5" y="236.8281"/><line style="stroke:#A80036;stroke-width:1.0;stroke-dasharray:5.0,5.0;" x1="95" x2="95" y1="88.2969" y2="283.9609"/><line style="stroke:#A80036;stroke-width:1.0;stroke-dasharray:5.0,5.0;" x1="261" x2="261" y1="88.2969" y2="283.9609"/><text fill="#000000" font-family="sans-serif" font-size="14" lengthAdjust="spacing" textLength="175" x="5" y="84.9951">Laboratory Coordinatorr</text><ellipse cx="95.5" cy="15" fill="#FEFECE" filter="url(#fb00dfhw9qv4n)" rx="8" ry="8" style="stroke:#A80036;stroke-width:2.0;"/><path d="M95.5,23 L95.5,50 M82.5,31 L108.5,31 M95.5,50 L82.5,65 M95.5,50 L108.5,65 " fill="none" filter="url(#fb00dfhw9qv4n)" style="stroke:#A80036;stroke-width:2.0;"/><text fill="#000000" font-family="sans-serif" font-size="14" lengthAdjust="spacing" textLength="175" x="5" y="295.9561">Laboratory Coordinatorr</text><ellipse cx="95.5" cy="309.2578" fill="#FEFECE" filter="url(#fb00dfhw9qv4n)" rx="8" ry="8" style="stroke:#A80036;stroke-width:2.0;"/><path d="M95.5,317.2578 L95.5,344.2578 M82.5,325.2578 L108.5,325.2578 M95.5,344.2578 L82.5,359.2578 M95.5,344.2578 L108.5,359.2578 " fill="none" filter="url(#fb00dfhw9qv4n)" style="stroke:#A80036;stroke-width:2.0;"/><rect fill="#FEFECE" filter="url(#fb00dfhw9qv4n)" height="30.2969" style="stroke:#A80036;stroke-width:1.5;" width="73" x="223" y="53"/><text fill="#000000" font-family="sans-serif" font-size="14" lengthAdjust="spacing" textLength="59" x="230" y="72.9951">:System</text><rect fill="#FEFECE" filter="url(#fb00dfhw9qv4n)" height="30.2969" style="stroke:#A80036;stroke-width:1.5;" width="73" x="223" y="282.9609"/><text fill="#000000" font-family="sans-serif" font-size="14" lengthAdjust="spacing" textLength="59" x="230" y="302.9561">:System</text><rect fill="#FFFFFF" filter="url(#fb00dfhw9qv4n)" height="146.5313" style="stroke:#A80036;stroke-width:1.0;" width="10" x="90.5" y="119.4297"/><rect fill="#FFFFFF" filter="url(#fb00dfhw9qv4n)" height="30" style="stroke:#A80036;stroke-width:1.0;" width="10" x="256.5" y="119.4297"/><rect fill="#FFFFFF" filter="url(#fb00dfhw9qv4n)" height="29.1328" style="stroke:#A80036;stroke-width:1.0;" width="10" x="256.5" y="178.5625"/><rect fill="#FFFFFF" filter="url(#fb00dfhw9qv4n)" height="29.1328" style="stroke:#A80036;stroke-width:1.0;" width="10" x="256.5" y="236.8281"/><polygon fill="#A80036" points="244.5,115.4297,254.5,119.4297,244.5,123.4297,248.5,119.4297" style="stroke:#A80036;stroke-width:1.0;"/><line style="stroke:#A80036;stroke-width:1.0;" x1="100.5" x2="250.5" y1="119.4297" y2="119.4297"/><text fill="#000000" font-family="sans-serif" font-size="13" lengthAdjust="spacing" textLength="124" x="107.5" y="114.3638">Starts the interface</text><polygon fill="#A80036" points="244.5,174.5625,254.5,178.5625,244.5,182.5625,248.5,178.5625" style="stroke:#A80036;stroke-width:1.0;"/><line style="stroke:#A80036;stroke-width:1.0;" x1="100.5" x2="250.5" y1="178.5625" y2="178.5625"/><text fill="#000000" font-family="sans-serif" font-size="13" lengthAdjust="spacing" textLength="112" x="107.5" y="173.4966">onActionAddFile()</text><polygon fill="#A80036" points="111.5,203.6953,101.5,207.6953,111.5,211.6953,107.5,207.6953" style="stroke:#A80036;stroke-width:1.0;"/><line style="stroke:#A80036;stroke-width:1.0;stroke-dasharray:2.0,2.0;" x1="105.5" x2="260.5" y1="207.6953" y2="207.6953"/><text fill="#000000" font-family="sans-serif" font-size="13" lengthAdjust="spacing" textLength="132" x="117.5" y="202.6294">Asks to choose a file</text><polygon fill="#A80036" points="244.5,232.8281,254.5,236.8281,244.5,240.8281,248.5,236.8281" style="stroke:#A80036;stroke-width:1.0;"/><line style="stroke:#A80036;stroke-width:1.0;" x1="100.5" x2="250.5" y1="236.8281" y2="236.8281"/><text fill="#000000" font-family="sans-serif" font-size="13" lengthAdjust="spacing" textLength="78" x="107.5" y="231.7622">Chooses file</text><polygon fill="#A80036" points="106.5,261.9609,96.5,265.9609,106.5,269.9609,102.5,265.9609" style="stroke:#A80036;stroke-width:1.0;"/><line style="stroke:#A80036;stroke-width:1.0;stroke-dasharray:2.0,2.0;" x1="100.5" x2="260.5" y1="265.9609" y2="265.9609"/><text fill="#000000" font-family="sans-serif" font-size="13" lengthAdjust="spacing" textLength="127" x="112.5" y="260.895">Shows imported file</text><!--MD5=[4a7eaf33e6442c65c0caa891f162fc9e]
@startuml
actor "Laboratory Coordinatorr"
"Laboratory Coordinatorr" ->":System":Starts the interface
activate "Laboratory Coordinatorr"
activate ":System"
deactivate ":System"
"Laboratory Coordinatorr" ->":System":onActionAddFile()
activate ":System"
"Laboratory Coordinatorr" <- -":System":Asks to choose a file 
deactivate ":System"
"Laboratory Coordinatorr" ->":System":Chooses file
activate ":System"
"Laboratory Coordinatorr" <- -":System":Shows imported file
deactivate
deactivate "Laboratory Coordinatorr"
@enduml

PlantUML version 1.2021.7(Sun May 23 12:40:07 UTC 2021)
(GPL source distribution)
Java Runtime: Java(TM) SE Runtime Environment
JVM: Java HotSpot(TM) 64-Bit Server VM
Default Encoding: UTF-8
Language: en
Country: US
--></g></svg>