<?xml version="1.0" encoding="UTF-8" standalone="no"?><svg xmlns="http://www.w3.org/2000/svg" xmlns:xlink="http://www.w3.org/1999/xlink" contentScriptType="application/ecmascript" contentStyleType="text/css" height="334px" preserveAspectRatio="none" style="width:1252px;height:334px;background:#FFFFFF;" version="1.1" viewBox="0 0 1252 334" width="1252px" zoomAndPan="magnify"><defs><filter height="300%" id="f4di5tdrd260d" width="300%" x="-1" y="-1"><feGaussianBlur result="blurOut" stdDeviation="2.0"/><feColorMatrix in="blurOut" result="blurOut2" type="matrix" values="0 0 0 0 0 0 0 0 0 0 0 0 0 0 0 0 0 0 .4 0"/><feOffset dx="4.0" dy="4.0" in="blurOut2" result="blurOut3"/><feBlend in="SourceGraphic" in2="blurOut3" mode="normal"/></filter></defs><g><text fill="#000000" font-family="sans-serif" font-size="18" lengthAdjust="spacing" textLength="221" x="509" y="16.708">Classes - Class Diagram</text><!--MD5=[b5a6ab0514abcd25a7e38086e6b22fcb]
class ImportTestInterfaceController--><rect codeLine="5" fill="#FEFECE" filter="url(#f4di5tdrd260d)" height="99.2188" id="ImportTestInterfaceController" style="stroke:#A80036;stroke-width:1.5;" width="209" x="7" y="138.7911"/><ellipse cx="22" cy="154.7911" fill="#ADD1B2" rx="11" ry="11" style="stroke:#A80036;stroke-width:1.0;"/><path d="M24.3438,150.463 C23.4063,150.0255 22.8125,149.8849 21.9375,149.8849 C19.3125,149.8849 17.3125,151.963 17.3125,154.6818 L17.3125,155.8068 C17.3125,158.3849 19.4219,160.2755 22.3125,160.2755 C23.5313,160.2755 24.6875,159.9786 25.4375,159.4318 C26.0156,159.0255 26.3438,158.5724 26.3438,158.1818 C26.3438,157.7286 25.9531,157.338 25.4844,157.338 C25.2656,157.338 25.0625,157.4161 24.875,157.6036 C24.4219,158.088 24.4219,158.088 24.2344,158.1818 C23.8125,158.4474 23.125,158.5724 22.3594,158.5724 C20.3125,158.5724 19.0156,157.4786 19.0156,155.7755 L19.0156,154.6818 C19.0156,152.9005 20.2656,151.588 22,151.588 C22.5781,151.588 23.1875,151.7443 23.6563,151.9943 C24.1406,152.2755 24.3125,152.4943 24.4063,152.9005 C24.4688,153.3068 24.5,153.4318 24.6406,153.5568 C24.7813,153.6974 25.0156,153.8068 25.2344,153.8068 C25.5,153.8068 25.7656,153.6661 25.9375,153.4474 C26.0469,153.2911 26.0781,153.1036 26.0781,152.6818 L26.0781,151.2599 C26.0781,150.8224 26.0625,150.6974 25.9688,150.5411 C25.8125,150.2755 25.5313,150.1349 25.2344,150.1349 C24.9375,150.1349 24.7344,150.2286 24.5156,150.5411 L24.3438,150.463 Z " fill="#000000"/><text fill="#000000" font-family="sans-serif" font-size="12" lengthAdjust="spacing" textLength="177" x="36" y="158.9454">ImportTestInterfaceController</text><line style="stroke:#A80036;stroke-width:1.5;" x1="8" x2="215" y1="170.7911" y2="170.7911"/><line style="stroke:#A80036;stroke-width:1.5;" x1="8" x2="215" y1="178.7911" y2="178.7911"/><text fill="#000000" font-family="sans-serif" font-size="11" lengthAdjust="spacing" textLength="50" x="13" y="193.0016">+fillFile()</text><text fill="#000000" font-family="sans-serif" font-size="11" lengthAdjust="spacing" textLength="64" x="13" y="205.8063">+addUser()</text><text fill="#000000" font-family="sans-serif" font-size="11" lengthAdjust="spacing" textLength="180" x="13" y="218.6109">+onActionAddFile(mouseEvent)</text><text fill="#000000" font-family="sans-serif" font-size="11" lengthAdjust="spacing" textLength="160" x="13" y="231.4156">+onActionBack(actionEvent)</text><!--MD5=[f0149d2d953df60d8ea534071708cd61]
class ImportedTestConnectorToInterface--><rect codeLine="11" fill="#FEFECE" filter="url(#f4di5tdrd260d)" height="227.2656" id="ImportedTestConnectorToInterface" style="stroke:#A80036;stroke-width:1.5;" width="243" x="251" y="74.7911"/><ellipse cx="266" cy="90.7911" fill="#ADD1B2" rx="11" ry="11" style="stroke:#A80036;stroke-width:1.0;"/><path d="M268.3438,86.463 C267.4063,86.0255 266.8125,85.8849 265.9375,85.8849 C263.3125,85.8849 261.3125,87.963 261.3125,90.6818 L261.3125,91.8068 C261.3125,94.3849 263.4219,96.2755 266.3125,96.2755 C267.5313,96.2755 268.6875,95.9786 269.4375,95.4318 C270.0156,95.0255 270.3438,94.5724 270.3438,94.1818 C270.3438,93.7286 269.9531,93.338 269.4844,93.338 C269.2656,93.338 269.0625,93.4161 268.875,93.6036 C268.4219,94.088 268.4219,94.088 268.2344,94.1818 C267.8125,94.4474 267.125,94.5724 266.3594,94.5724 C264.3125,94.5724 263.0156,93.4786 263.0156,91.7755 L263.0156,90.6818 C263.0156,88.9005 264.2656,87.588 266,87.588 C266.5781,87.588 267.1875,87.7443 267.6563,87.9943 C268.1406,88.2755 268.3125,88.4943 268.4063,88.9005 C268.4688,89.3068 268.5,89.4318 268.6406,89.5568 C268.7813,89.6974 269.0156,89.8068 269.2344,89.8068 C269.5,89.8068 269.7656,89.6661 269.9375,89.4474 C270.0469,89.2911 270.0781,89.1036 270.0781,88.6818 L270.0781,87.2599 C270.0781,86.8224 270.0625,86.6974 269.9688,86.5411 C269.8125,86.2755 269.5313,86.1349 269.2344,86.1349 C268.9375,86.1349 268.7344,86.2286 268.5156,86.5411 L268.3438,86.463 Z " fill="#000000"/><text fill="#000000" font-family="sans-serif" font-size="12" lengthAdjust="spacing" textLength="211" x="280" y="94.9454">ImportedTestConnectorToInterface</text><line style="stroke:#A80036;stroke-width:1.5;" x1="252" x2="493" y1="106.7911" y2="106.7911"/><line style="stroke:#A80036;stroke-width:1.5;" x1="252" x2="493" y1="114.7911" y2="114.7911"/><text fill="#000000" font-family="sans-serif" font-size="11" lengthAdjust="spacing" textLength="99" x="257" y="129.0016">+filePart(filepath)</text><text fill="#000000" font-family="sans-serif" font-size="11" lengthAdjust="spacing" textLength="64" x="257" y="141.8063">+clearList()</text><text fill="#000000" font-family="sans-serif" font-size="11" lengthAdjust="spacing" textLength="148" x="257" y="154.6109">+registerClient(otherLine)</text><text fill="#000000" font-family="sans-serif" font-size="11" lengthAdjust="spacing" textLength="117" x="257" y="167.4156">+validateDate(date)</text><text fill="#000000" font-family="sans-serif" font-size="11" lengthAdjust="spacing" textLength="64" x="257" y="180.2203">+fixString()</text><text fill="#000000" font-family="sans-serif" font-size="11" lengthAdjust="spacing" textLength="46" x="257" y="193.025">+fillArr()</text><text fill="#000000" font-family="sans-serif" font-size="11" lengthAdjust="spacing" textLength="128" x="257" y="205.8297">+convertToDate(date)</text><text fill="#000000" font-family="sans-serif" font-size="11" lengthAdjust="spacing" textLength="121" x="257" y="218.6344">+validateHours(date)</text><text fill="#000000" font-family="sans-serif" font-size="11" lengthAdjust="spacing" textLength="130" x="257" y="231.4391">+validateName(name)</text><text fill="#000000" font-family="sans-serif" font-size="11" lengthAdjust="spacing" textLength="126" x="257" y="244.2438">+validateEmail(email)</text><text fill="#000000" font-family="sans-serif" font-size="11" lengthAdjust="spacing" textLength="178" x="257" y="257.0484">+checkNumber(number,length)</text><text fill="#000000" font-family="sans-serif" font-size="11" lengthAdjust="spacing" textLength="139" x="257" y="269.8531">+getCategoryLines(line)</text><text fill="#000000" font-family="sans-serif" font-size="11" lengthAdjust="spacing" textLength="54" x="257" y="282.6578">+logFile()</text><text fill="#000000" font-family="sans-serif" font-size="11" lengthAdjust="spacing" textLength="182" x="257" y="295.4625">+registerTest(firstline,otherline)</text><!--MD5=[aa6bd7b4baf24da762bf752b97fb8f0e]
class importedTestController--><rect codeLine="27" fill="#FEFECE" filter="url(#f4di5tdrd260d)" height="265.6797" id="importedTestController" style="stroke:#A80036;stroke-width:1.5;" width="189" x="580" y="55.2911"/><ellipse cx="602.65" cy="71.2911" fill="#ADD1B2" rx="11" ry="11" style="stroke:#A80036;stroke-width:1.0;"/><path d="M604.9938,66.963 C604.0563,66.5255 603.4625,66.3849 602.5875,66.3849 C599.9625,66.3849 597.9625,68.463 597.9625,71.1818 L597.9625,72.3068 C597.9625,74.8849 600.0719,76.7755 602.9625,76.7755 C604.1813,76.7755 605.3375,76.4786 606.0875,75.9318 C606.6656,75.5255 606.9938,75.0724 606.9938,74.6818 C606.9938,74.2286 606.6031,73.838 606.1344,73.838 C605.9156,73.838 605.7125,73.9161 605.525,74.1036 C605.0719,74.588 605.0719,74.588 604.8844,74.6818 C604.4625,74.9474 603.775,75.0724 603.0094,75.0724 C600.9625,75.0724 599.6656,73.9786 599.6656,72.2755 L599.6656,71.1818 C599.6656,69.4005 600.9156,68.088 602.65,68.088 C603.2281,68.088 603.8375,68.2443 604.3063,68.4943 C604.7906,68.7755 604.9625,68.9943 605.0563,69.4005 C605.1188,69.8068 605.15,69.9318 605.2906,70.0568 C605.4313,70.1974 605.6656,70.3068 605.8844,70.3068 C606.15,70.3068 606.4156,70.1661 606.5875,69.9474 C606.6969,69.7911 606.7281,69.6036 606.7281,69.1818 L606.7281,67.7599 C606.7281,67.3224 606.7125,67.1974 606.6188,67.0411 C606.4625,66.7755 606.1813,66.6349 605.8844,66.6349 C605.5875,66.6349 605.3844,66.7286 605.1656,67.0411 L604.9938,66.963 Z " fill="#000000"/><text fill="#000000" font-family="sans-serif" font-size="12" lengthAdjust="spacing" textLength="140" x="618.35" y="75.4454">importedTestController</text><line style="stroke:#A80036;stroke-width:1.5;" x1="581" x2="768" y1="87.2911" y2="87.2911"/><line style="stroke:#A80036;stroke-width:1.5;" x1="581" x2="768" y1="95.2911" y2="95.2911"/><text fill="#000000" font-family="sans-serif" font-size="11" lengthAdjust="spacing" textLength="90" x="586" y="109.5016">+getCompany()</text><text fill="#000000" font-family="sans-serif" font-size="11" lengthAdjust="spacing" textLength="106" x="586" y="122.3063">+validateCCN(ccn)</text><text fill="#000000" font-family="sans-serif" font-size="11" lengthAdjust="spacing" textLength="94" x="586" y="135.1109">+registerClient()</text><text fill="#000000" font-family="sans-serif" font-size="11" lengthAdjust="spacing" textLength="110" x="586" y="147.9156">+validateTest(test)</text><text fill="#000000" font-family="sans-serif" font-size="11" lengthAdjust="spacing" textLength="125" x="586" y="160.7203">+getTypeOfTest(test)</text><text fill="#000000" font-family="sans-serif" font-size="11" lengthAdjust="spacing" textLength="122" x="586" y="173.525">+validateParameter()</text><text fill="#000000" font-family="sans-serif" font-size="11" lengthAdjust="spacing" textLength="115" x="586" y="186.3297">+validateCategory()</text><text fill="#000000" font-family="sans-serif" font-size="11" lengthAdjust="spacing" textLength="114" x="586" y="199.1344">+getParameterList()</text><text fill="#000000" font-family="sans-serif" font-size="11" lengthAdjust="spacing" textLength="177" x="586" y="211.9391">+validateTestNumber(number)</text><text fill="#000000" font-family="sans-serif" font-size="11" lengthAdjust="spacing" textLength="107" x="586" y="224.7438">+validateNHS(nhs)</text><text fill="#000000" font-family="sans-serif" font-size="11" lengthAdjust="spacing" textLength="160" x="586" y="237.5484">+validateLaboratoryId(labId)</text><text fill="#000000" font-family="sans-serif" font-size="11" lengthAdjust="spacing" textLength="86" x="586" y="250.3531">+registerTest()</text><text fill="#000000" font-family="sans-serif" font-size="11" lengthAdjust="spacing" textLength="71" x="586" y="263.1578">+storeTest()</text><text fill="#000000" font-family="sans-serif" font-size="11" lengthAdjust="spacing" textLength="89" x="586" y="275.9625">+validateError()</text><text fill="#000000" font-family="sans-serif" font-size="11" lengthAdjust="spacing" textLength="135" x="586" y="288.7672">+registerRecordResult()</text><text fill="#000000" font-family="sans-serif" font-size="11" lengthAdjust="spacing" textLength="55" x="586" y="301.5719">+getList()</text><text fill="#000000" font-family="sans-serif" font-size="11" lengthAdjust="spacing" textLength="64" x="586" y="314.3766">+clearList()</text><!--MD5=[da873f92788bdc2e0e69e57a33555660]
class importedTestStore--><rect codeLine="46" fill="#FEFECE" filter="url(#f4di5tdrd260d)" height="150.4375" id="importedTestStore" style="stroke:#A80036;stroke-width:1.5;" width="173" x="845" y="113.2911"/><ellipse cx="872.15" cy="129.2911" fill="#ADD1B2" rx="11" ry="11" style="stroke:#A80036;stroke-width:1.0;"/><path d="M874.4938,124.963 C873.5563,124.5255 872.9625,124.3849 872.0875,124.3849 C869.4625,124.3849 867.4625,126.463 867.4625,129.1818 L867.4625,130.3068 C867.4625,132.8849 869.5719,134.7755 872.4625,134.7755 C873.6813,134.7755 874.8375,134.4786 875.5875,133.9318 C876.1656,133.5255 876.4938,133.0724 876.4938,132.6818 C876.4938,132.2286 876.1031,131.838 875.6344,131.838 C875.4156,131.838 875.2125,131.9161 875.025,132.1036 C874.5719,132.588 874.5719,132.588 874.3844,132.6818 C873.9625,132.9474 873.275,133.0724 872.5094,133.0724 C870.4625,133.0724 869.1656,131.9786 869.1656,130.2755 L869.1656,129.1818 C869.1656,127.4005 870.4156,126.088 872.15,126.088 C872.7281,126.088 873.3375,126.2443 873.8063,126.4943 C874.2906,126.7755 874.4625,126.9943 874.5563,127.4005 C874.6188,127.8068 874.65,127.9318 874.7906,128.0568 C874.9313,128.1974 875.1656,128.3068 875.3844,128.3068 C875.65,128.3068 875.9156,128.1661 876.0875,127.9474 C876.1969,127.7911 876.2281,127.6036 876.2281,127.1818 L876.2281,125.7599 C876.2281,125.3224 876.2125,125.1974 876.1188,125.0411 C875.9625,124.7755 875.6813,124.6349 875.3844,124.6349 C875.0875,124.6349 874.8844,124.7286 874.6656,125.0411 L874.4938,124.963 Z " fill="#000000"/><text fill="#000000" font-family="sans-serif" font-size="12" lengthAdjust="spacing" textLength="114" x="888.85" y="133.4454">importedTestStore</text><line style="stroke:#A80036;stroke-width:1.5;" x1="846" x2="1017" y1="145.2911" y2="145.2911"/><line style="stroke:#A80036;stroke-width:1.5;" x1="846" x2="1017" y1="153.2911" y2="153.2911"/><text fill="#000000" font-family="sans-serif" font-size="11" lengthAdjust="spacing" textLength="161" x="851" y="167.5016">+createImportedTest(client)</text><text fill="#000000" font-family="sans-serif" font-size="11" lengthAdjust="spacing" textLength="155" x="851" y="180.3063">+addNewParameterValue()</text><text fill="#000000" font-family="sans-serif" font-size="11" lengthAdjust="spacing" textLength="110" x="851" y="193.1109">+getRecordResult()</text><text fill="#000000" font-family="sans-serif" font-size="11" lengthAdjust="spacing" textLength="121" x="851" y="205.9156">+saveImportedTest()</text><text fill="#000000" font-family="sans-serif" font-size="11" lengthAdjust="spacing" textLength="110" x="851" y="218.7203">+addRegisterTest()</text><text fill="#000000" font-family="sans-serif" font-size="11" lengthAdjust="spacing" textLength="82" x="851" y="231.525">+addToListRt()</text><text fill="#000000" font-family="sans-serif" font-size="11" lengthAdjust="spacing" textLength="118" x="851" y="244.3297">+getImportedTests()</text><text fill="#000000" font-family="sans-serif" font-size="11" lengthAdjust="spacing" textLength="64" x="851" y="257.1344">+clearList()</text><!--MD5=[02e4b9b7573f1156f41e60aa5b4e25a4]
class Company--><rect codeLine="57" fill="#FEFECE" filter="url(#f4di5tdrd260d)" height="99.2188" id="Company" style="stroke:#A80036;stroke-width:1.5;" width="153" x="1085" y="138.7911"/><ellipse cx="1129.25" cy="154.7911" fill="#ADD1B2" rx="11" ry="11" style="stroke:#A80036;stroke-width:1.0;"/><path d="M1131.5938,150.463 C1130.6563,150.0255 1130.0625,149.8849 1129.1875,149.8849 C1126.5625,149.8849 1124.5625,151.963 1124.5625,154.6818 L1124.5625,155.8068 C1124.5625,158.3849 1126.6719,160.2755 1129.5625,160.2755 C1130.7813,160.2755 1131.9375,159.9786 1132.6875,159.4318 C1133.2656,159.0255 1133.5938,158.5724 1133.5938,158.1818 C1133.5938,157.7286 1133.2031,157.338 1132.7344,157.338 C1132.5156,157.338 1132.3125,157.4161 1132.125,157.6036 C1131.6719,158.088 1131.6719,158.088 1131.4844,158.1818 C1131.0625,158.4474 1130.375,158.5724 1129.6094,158.5724 C1127.5625,158.5724 1126.2656,157.4786 1126.2656,155.7755 L1126.2656,154.6818 C1126.2656,152.9005 1127.5156,151.588 1129.25,151.588 C1129.8281,151.588 1130.4375,151.7443 1130.9063,151.9943 C1131.3906,152.2755 1131.5625,152.4943 1131.6563,152.9005 C1131.7188,153.3068 1131.75,153.4318 1131.8906,153.5568 C1132.0313,153.6974 1132.2656,153.8068 1132.4844,153.8068 C1132.75,153.8068 1133.0156,153.6661 1133.1875,153.4474 C1133.2969,153.2911 1133.3281,153.1036 1133.3281,152.6818 L1133.3281,151.2599 C1133.3281,150.8224 1133.3125,150.6974 1133.2188,150.5411 C1133.0625,150.2755 1132.7813,150.1349 1132.4844,150.1349 C1132.1875,150.1349 1131.9844,150.2286 1131.7656,150.5411 L1131.5938,150.463 Z " fill="#000000"/><text fill="#000000" font-family="sans-serif" font-size="12" lengthAdjust="spacing" textLength="56" x="1149.75" y="158.9454">Company</text><line style="stroke:#A80036;stroke-width:1.5;" x1="1086" x2="1237" y1="170.7911" y2="170.7911"/><line style="stroke:#A80036;stroke-width:1.5;" x1="1086" x2="1237" y1="178.7911" y2="178.7911"/><text fill="#000000" font-family="sans-serif" font-size="11" lengthAdjust="spacing" textLength="114" x="1091" y="193.0016">+getValidateStore()</text><text fill="#000000" font-family="sans-serif" font-size="11" lengthAdjust="spacing" textLength="139" x="1091" y="205.8063">+getRegisterTestStore()</text><text fill="#000000" font-family="sans-serif" font-size="11" lengthAdjust="spacing" textLength="141" x="1091" y="218.6109">+getRecordResultStore()</text><text fill="#000000" font-family="sans-serif" font-size="11" lengthAdjust="spacing" textLength="100" x="1091" y="231.4156">+getClientStore()</text><!--MD5=[e7188d256e1963de19ecde750406fda0]
link ImportTestInterfaceController to ImportedTestConnectorToInterface--><path codeLine="64" d="M216.002,188.2911 C225.893,188.2911 235.784,188.2911 245.675,188.2911 " fill="none" id="ImportTestInterfaceController-to-ImportedTestConnectorToInterface" style="stroke:#A80036;stroke-width:1.0;stroke-dasharray:7.0,7.0;"/><polygon fill="#A80036" points="250.847,188.2911,241.847,184.2911,245.847,188.2911,241.847,192.2911,250.847,188.2911" style="stroke:#A80036;stroke-width:1.0;"/><!--MD5=[28bcea83f5a9aa9c8c4b2276a878227c]
link ImportedTestConnectorToInterface to importedTestController--><path codeLine="65" d="M494.03,188.2911 C520.766,188.2911 548.785,188.2911 574.555,188.2911 " fill="none" id="ImportedTestConnectorToInterface-to-importedTestController" style="stroke:#A80036;stroke-width:1.0;"/><polygon fill="#A80036" points="579.679,188.2911,570.679,184.2911,574.679,188.2911,570.679,192.2911,579.679,188.2911" style="stroke:#A80036;stroke-width:1.0;"/><text fill="#000000" font-family="sans-serif" font-size="13" lengthAdjust="spacing" textLength="49" x="512.5" y="181.358">interact</text><!--MD5=[e0bf345702cc4b395d14d92bd8d6d923]
link importedTestController to importedTestStore--><path codeLine="66" d="M769.102,188.2911 C792.122,188.2911 816.704,188.2911 839.596,188.2911 " fill="none" id="importedTestController-to-importedTestStore" style="stroke:#A80036;stroke-width:1.0;"/><polygon fill="#A80036" points="844.76,188.2911,835.76,184.2911,839.76,188.2911,835.76,192.2911,844.76,188.2911" style="stroke:#A80036;stroke-width:1.0;"/><text fill="#000000" font-family="sans-serif" font-size="13" lengthAdjust="spacing" textLength="39" x="787.5" y="181.358">needs</text><!--MD5=[7db68e326b7278263c36f56648bb62cd]
link importedTestStore to Company--><path codeLine="67" d="M1018.13,188.2911 C1038.32,188.2911 1059.75,188.2911 1079.73,188.2911 " fill="none" id="importedTestStore-to-Company" style="stroke:#A80036;stroke-width:1.0;"/><polygon fill="#A80036" points="1084.77,188.2911,1075.77,184.2911,1079.77,188.2911,1075.77,192.2911,1084.77,188.2911" style="stroke:#A80036;stroke-width:1.0;"/><text fill="#000000" font-family="sans-serif" font-size="13" lengthAdjust="spacing" textLength="30" x="1036.5" y="181.358">uses</text><!--MD5=[6b578c98d4c17fbef7223073f045f3a0]
link importedTestController to Company--><path codeLine="68" d="M769.247,85.5001 C792.073,66.9661 817.796,50.3541 845,40.2911 C881.056,26.9531 981.944,26.9531 1018,40.2911 C1064.61,57.5331 1102.87,99.6121 1128.13,134.5131 " fill="none" id="importedTestController-to-Company" style="stroke:#A80036;stroke-width:1.0;stroke-dasharray:7.0,7.0;"/><polygon fill="#A80036" points="1131.15,138.7311,1129.1731,129.0827,1128.2435,134.6627,1122.6636,133.733,1131.15,138.7311" style="stroke:#A80036;stroke-width:1.0;"/><!--MD5=[311283e69130130db2900ea2a63dcd5e]
@startuml
title Classes - Class Diagram
skinparam classAttributeIconSize 0


class ImportTestInterfaceController {
+fillFile()
+addUser()
+onActionAddFile(mouseEvent)
+onActionBack(actionEvent)
}
class ImportedTestConnectorToInterface{
+filePart(filepath)
+clearList()
+registerClient(otherLine)
+validateDate(date)
+fixString()
+fillArr()
+convertToDate(date)
+validateHours(date)
+validateName(name)
+validateEmail(email)
+checkNumber(number,length)
+getCategoryLines(line)
+logFile()
+registerTest(firstline,otherline)
}
class importedTestController{
+getCompany()
+validateCCN(ccn)
+registerClient()
+validateTest(test)
+getTypeOfTest(test)
+validateParameter()
+validateCategory()
+getParameterList()
+validateTestNumber(number)
+validateNHS(nhs)
+validateLaboratoryId(labId)
+registerTest()
+storeTest()
+validateError()
+registerRecordResult()
+getList()
+clearList()
}
class importedTestStore{
+createImportedTest(client)
+addNewParameterValue()
+getRecordResult()
+saveImportedTest()
+addRegisterTest()
+addToListRt()
+getImportedTests()
+clearList()
}

class Company{
+getValidateStore()
+getRegisterTestStore()
+getRecordResultStore()
+getClientStore()
}

ImportTestInterfaceController -r..> ImportedTestConnectorToInterface
ImportedTestConnectorToInterface -r- -> importedTestController:interact
importedTestController -r-> importedTestStore:needs
importedTestStore -r- -> Company:uses
importedTestController -r..> Company
@enduml

PlantUML version 1.2021.7(Sun May 23 12:40:07 UTC 2021)
(GPL source distribution)
Java Runtime: Java(TM) SE Runtime Environment
JVM: Java HotSpot(TM) 64-Bit Server VM
Default Encoding: UTF-8
Language: en
Country: US
--></g></svg>