<?xml version="1.0" encoding="UTF-8" standalone="no"?><svg xmlns="http://www.w3.org/2000/svg" xmlns:xlink="http://www.w3.org/1999/xlink" contentScriptType="application/ecmascript" contentStyleType="text/css" height="820px" preserveAspectRatio="none" style="width:859px;height:820px;background:#FFFFFF;" version="1.1" viewBox="0 0 859 820" width="859px" zoomAndPan="magnify"><defs><filter height="300%" id="f16jpyk65yiy44" width="300%" x="-1" y="-1"><feGaussianBlur result="blurOut" stdDeviation="2.0"/><feColorMatrix in="blurOut" result="blurOut2" type="matrix" values="0 0 0 0 0 0 0 0 0 0 0 0 0 0 0 0 0 0 .4 0"/><feOffset dx="4.0" dy="4.0" in="blurOut2" result="blurOut3"/><feBlend in="SourceGraphic" in2="blurOut3" mode="normal"/></filter></defs><g><text fill="#000000" font-family="sans-serif" font-size="18" lengthAdjust="spacing" textLength="221" x="312.75" y="16.708">Classes - Class Diagram</text><!--MD5=[d98ae7081adb595d9f0e7ca0f090f434]
class Laboratory Coordinator--><rect codeLine="5" fill="#FEFECE" filter="url(#f16jpyk65yiy44)" height="137.6328" id="Laboratory Coordinator" style="stroke:#A80036;stroke-width:1.5;" width="293" x="381" y="27.9531"/><ellipse cx="453.25" cy="43.9531" fill="#ADD1B2" rx="11" ry="11" style="stroke:#A80036;stroke-width:1.0;"/><path d="M455.5938,39.625 C454.6563,39.1875 454.0625,39.0469 453.1875,39.0469 C450.5625,39.0469 448.5625,41.125 448.5625,43.8438 L448.5625,44.9688 C448.5625,47.5469 450.6719,49.4375 453.5625,49.4375 C454.7813,49.4375 455.9375,49.1406 456.6875,48.5938 C457.2656,48.1875 457.5938,47.7344 457.5938,47.3438 C457.5938,46.8906 457.2031,46.5 456.7344,46.5 C456.5156,46.5 456.3125,46.5781 456.125,46.7656 C455.6719,47.25 455.6719,47.25 455.4844,47.3438 C455.0625,47.6094 454.375,47.7344 453.6094,47.7344 C451.5625,47.7344 450.2656,46.6406 450.2656,44.9375 L450.2656,43.8438 C450.2656,42.0625 451.5156,40.75 453.25,40.75 C453.8281,40.75 454.4375,40.9063 454.9063,41.1563 C455.3906,41.4375 455.5625,41.6563 455.6563,42.0625 C455.7188,42.4688 455.75,42.5938 455.8906,42.7188 C456.0313,42.8594 456.2656,42.9688 456.4844,42.9688 C456.75,42.9688 457.0156,42.8281 457.1875,42.6094 C457.2969,42.4531 457.3281,42.2656 457.3281,41.8438 L457.3281,40.4219 C457.3281,39.9844 457.3125,39.8594 457.2188,39.7031 C457.0625,39.4375 456.7813,39.2969 456.4844,39.2969 C456.1875,39.2969 455.9844,39.3906 455.7656,39.7031 L455.5938,39.625 Z " fill="#000000"/><text fill="#000000" font-family="sans-serif" font-size="12" lengthAdjust="spacing" textLength="140" x="473.75" y="48.1074">Laboratory Coordinator</text><line style="stroke:#A80036;stroke-width:1.5;" x1="382" x2="673" y1="59.9531" y2="59.9531"/><text fill="#000000" font-family="sans-serif" font-size="11" lengthAdjust="spacing" textLength="78" x="387" y="74.1636">-Employee ID</text><text fill="#000000" font-family="sans-serif" font-size="11" lengthAdjust="spacing" textLength="105" x="387" y="86.9683">-Organization Role</text><text fill="#000000" font-family="sans-serif" font-size="11" lengthAdjust="spacing" textLength="38" x="387" y="99.7729">-Name</text><text fill="#000000" font-family="sans-serif" font-size="11" lengthAdjust="spacing" textLength="43" x="387" y="112.5776">-Adress</text><text fill="#000000" font-family="sans-serif" font-size="11" lengthAdjust="spacing" textLength="39" x="387" y="125.3823">-E-mail</text><text fill="#000000" font-family="sans-serif" font-size="11" lengthAdjust="spacing" textLength="88" x="387" y="138.187">-Phone Number</text><text fill="#000000" font-family="sans-serif" font-size="11" lengthAdjust="spacing" textLength="281" x="387" y="150.9917">-Standard Occupational Classification (SOC) Code</text><line style="stroke:#A80036;stroke-width:1.5;" x1="382" x2="673" y1="157.5859" y2="157.5859"/><!--MD5=[ed6624c6556d5e7b1bd23032162d20b7]
class Client--><rect codeLine="14" fill="#FEFECE" filter="url(#f16jpyk65yiy44)" height="176.0469" id="Client" style="stroke:#A80036;stroke-width:1.5;" width="261" x="7" y="242.9531"/><ellipse cx="116.75" cy="258.9531" fill="#ADD1B2" rx="11" ry="11" style="stroke:#A80036;stroke-width:1.0;"/><path d="M119.0938,254.625 C118.1563,254.1875 117.5625,254.0469 116.6875,254.0469 C114.0625,254.0469 112.0625,256.125 112.0625,258.8438 L112.0625,259.9688 C112.0625,262.5469 114.1719,264.4375 117.0625,264.4375 C118.2813,264.4375 119.4375,264.1406 120.1875,263.5938 C120.7656,263.1875 121.0938,262.7344 121.0938,262.3438 C121.0938,261.8906 120.7031,261.5 120.2344,261.5 C120.0156,261.5 119.8125,261.5781 119.625,261.7656 C119.1719,262.25 119.1719,262.25 118.9844,262.3438 C118.5625,262.6094 117.875,262.7344 117.1094,262.7344 C115.0625,262.7344 113.7656,261.6406 113.7656,259.9375 L113.7656,258.8438 C113.7656,257.0625 115.0156,255.75 116.75,255.75 C117.3281,255.75 117.9375,255.9063 118.4063,256.1563 C118.8906,256.4375 119.0625,256.6563 119.1563,257.0625 C119.2188,257.4688 119.25,257.5938 119.3906,257.7188 C119.5313,257.8594 119.7656,257.9688 119.9844,257.9688 C120.25,257.9688 120.5156,257.8281 120.6875,257.6094 C120.7969,257.4531 120.8281,257.2656 120.8281,256.8438 L120.8281,255.4219 C120.8281,254.9844 120.8125,254.8594 120.7188,254.7031 C120.5625,254.4375 120.2813,254.2969 119.9844,254.2969 C119.6875,254.2969 119.4844,254.3906 119.2656,254.7031 L119.0938,254.625 Z " fill="#000000"/><text fill="#000000" font-family="sans-serif" font-size="12" lengthAdjust="spacing" textLength="33" x="137.25" y="263.1074">Client</text><line style="stroke:#A80036;stroke-width:1.5;" x1="8" x2="267" y1="274.9531" y2="274.9531"/><text fill="#000000" font-family="sans-serif" font-size="11" lengthAdjust="spacing" textLength="38" x="13" y="289.1636">-Name</text><text fill="#000000" font-family="sans-serif" font-size="11" lengthAdjust="spacing" textLength="27" x="13" y="301.9683">-Sex</text><text fill="#000000" font-family="sans-serif" font-size="11" lengthAdjust="spacing" textLength="123" x="13" y="314.7729">-Citizen Card Number</text><text fill="#000000" font-family="sans-serif" font-size="11" lengthAdjust="spacing" textLength="249" x="13" y="327.5776">-National Healthcare Service (NHS) Number</text><text fill="#000000" font-family="sans-serif" font-size="11" lengthAdjust="spacing" textLength="62" x="13" y="340.3823">-Birth Date</text><text fill="#000000" font-family="sans-serif" font-size="11" lengthAdjust="spacing" textLength="27" x="13" y="353.187">-Sex</text><text fill="#000000" font-family="sans-serif" font-size="11" lengthAdjust="spacing" textLength="181" x="13" y="365.9917">-Tax Identification Number (TIN)</text><text fill="#000000" font-family="sans-serif" font-size="11" lengthAdjust="spacing" textLength="88" x="13" y="378.7964">-Phone Number</text><text fill="#000000" font-family="sans-serif" font-size="11" lengthAdjust="spacing" textLength="39" x="13" y="391.6011">-E-mail</text><text fill="#000000" font-family="sans-serif" font-size="11" lengthAdjust="spacing" textLength="60" x="13" y="404.4058">-Lab Order</text><line style="stroke:#A80036;stroke-width:1.5;" x1="8" x2="267" y1="411" y2="411"/><!--MD5=[df38be88ccee13e832d6fafd6288a4ca]
class Test--><rect codeLine="27" fill="#FEFECE" filter="url(#f16jpyk65yiy44)" height="150.4375" id="Test" style="stroke:#A80036;stroke-width:1.5;" width="244" x="405.5" y="255.9531"/><ellipse cx="510.25" cy="271.9531" fill="#ADD1B2" rx="11" ry="11" style="stroke:#A80036;stroke-width:1.0;"/><path d="M512.5938,267.625 C511.6563,267.1875 511.0625,267.0469 510.1875,267.0469 C507.5625,267.0469 505.5625,269.125 505.5625,271.8438 L505.5625,272.9688 C505.5625,275.5469 507.6719,277.4375 510.5625,277.4375 C511.7813,277.4375 512.9375,277.1406 513.6875,276.5938 C514.2656,276.1875 514.5938,275.7344 514.5938,275.3438 C514.5938,274.8906 514.2031,274.5 513.7344,274.5 C513.5156,274.5 513.3125,274.5781 513.125,274.7656 C512.6719,275.25 512.6719,275.25 512.4844,275.3438 C512.0625,275.6094 511.375,275.7344 510.6094,275.7344 C508.5625,275.7344 507.2656,274.6406 507.2656,272.9375 L507.2656,271.8438 C507.2656,270.0625 508.5156,268.75 510.25,268.75 C510.8281,268.75 511.4375,268.9063 511.9063,269.1563 C512.3906,269.4375 512.5625,269.6563 512.6563,270.0625 C512.7188,270.4688 512.75,270.5938 512.8906,270.7188 C513.0313,270.8594 513.2656,270.9688 513.4844,270.9688 C513.75,270.9688 514.0156,270.8281 514.1875,270.6094 C514.2969,270.4531 514.3281,270.2656 514.3281,269.8438 L514.3281,268.4219 C514.3281,267.9844 514.3125,267.8594 514.2188,267.7031 C514.0625,267.4375 513.7813,267.2969 513.4844,267.2969 C513.1875,267.2969 512.9844,267.3906 512.7656,267.7031 L512.5938,267.625 Z " fill="#000000"/><text fill="#000000" font-family="sans-serif" font-size="12" lengthAdjust="spacing" textLength="26" x="530.75" y="276.1074">Test</text><line style="stroke:#A80036;stroke-width:1.5;" x1="406.5" x2="648.5" y1="287.9531" y2="287.9531"/><text fill="#000000" font-family="sans-serif" font-size="11" lengthAdjust="spacing" textLength="62" x="411.5" y="302.1636">-Test Type</text><text fill="#000000" font-family="sans-serif" font-size="11" lengthAdjust="spacing" textLength="81" x="411.5" y="314.9683">-Internal Code</text><text fill="#000000" font-family="sans-serif" font-size="11" lengthAdjust="spacing" textLength="62" x="411.5" y="327.7729">-NHS Code</text><text fill="#000000" font-family="sans-serif" font-size="11" lengthAdjust="spacing" textLength="217" x="411.5" y="340.5776">-Description Of The Collection Method</text><text fill="#000000" font-family="sans-serif" font-size="11" lengthAdjust="spacing" textLength="148" x="411.5" y="353.3823">-Date and Time Collected</text><text fill="#000000" font-family="sans-serif" font-size="11" lengthAdjust="spacing" textLength="213" x="411.5" y="366.187">-Date and Time of Chemical Analysis</text><text fill="#000000" font-family="sans-serif" font-size="11" lengthAdjust="spacing" textLength="232" x="411.5" y="378.9917">-Date and Time of Validation of the Test</text><text fill="#000000" font-family="sans-serif" font-size="11" lengthAdjust="spacing" textLength="187" x="411.5" y="391.7964">-Date and Time of the Diagnosis</text><line style="stroke:#A80036;stroke-width:1.5;" x1="406.5" x2="648.5" y1="398.3906" y2="398.3906"/><!--MD5=[aeb3272166074d8737a70b61b1e71682]
class TestType--><rect codeLine="38" fill="#FEFECE" filter="url(#f16jpyk65yiy44)" height="86.4141" id="TestType" style="stroke:#A80036;stroke-width:1.5;" width="112" x="733.5" y="287.9531"/><ellipse cx="759.3" cy="303.9531" fill="#ADD1B2" rx="11" ry="11" style="stroke:#A80036;stroke-width:1.0;"/><path d="M761.6438,299.625 C760.7063,299.1875 760.1125,299.0469 759.2375,299.0469 C756.6125,299.0469 754.6125,301.125 754.6125,303.8438 L754.6125,304.9688 C754.6125,307.5469 756.7219,309.4375 759.6125,309.4375 C760.8313,309.4375 761.9875,309.1406 762.7375,308.5938 C763.3156,308.1875 763.6438,307.7344 763.6438,307.3438 C763.6438,306.8906 763.2531,306.5 762.7844,306.5 C762.5656,306.5 762.3625,306.5781 762.175,306.7656 C761.7219,307.25 761.7219,307.25 761.5344,307.3438 C761.1125,307.6094 760.425,307.7344 759.6594,307.7344 C757.6125,307.7344 756.3156,306.6406 756.3156,304.9375 L756.3156,303.8438 C756.3156,302.0625 757.5656,300.75 759.3,300.75 C759.8781,300.75 760.4875,300.9063 760.9563,301.1563 C761.4406,301.4375 761.6125,301.6563 761.7063,302.0625 C761.7688,302.4688 761.8,302.5938 761.9406,302.7188 C762.0813,302.8594 762.3156,302.9688 762.5344,302.9688 C762.8,302.9688 763.0656,302.8281 763.2375,302.6094 C763.3469,302.4531 763.3781,302.2656 763.3781,301.8438 L763.3781,300.4219 C763.3781,299.9844 763.3625,299.8594 763.2688,299.7031 C763.1125,299.4375 762.8313,299.2969 762.5344,299.2969 C762.2375,299.2969 762.0344,299.3906 761.8156,299.7031 L761.6438,299.625 Z " fill="#000000"/><text fill="#000000" font-family="sans-serif" font-size="12" lengthAdjust="spacing" textLength="56" x="775.7" y="308.1074">TestType</text><line style="stroke:#A80036;stroke-width:1.5;" x1="734.5" x2="844.5" y1="319.9531" y2="319.9531"/><text fill="#000000" font-family="sans-serif" font-size="11" lengthAdjust="spacing" textLength="32" x="739.5" y="334.1636">-code</text><text fill="#000000" font-family="sans-serif" font-size="11" lengthAdjust="spacing" textLength="66" x="739.5" y="346.9683">-description</text><text fill="#000000" font-family="sans-serif" font-size="11" lengthAdjust="spacing" textLength="100" x="739.5" y="359.7729">-collectingMethod</text><line style="stroke:#A80036;stroke-width:1.5;" x1="734.5" x2="844.5" y1="366.3672" y2="366.3672"/><!--MD5=[e1d86066171c3a502f759e19a2a6ce90]
class TestParameters--><rect codeLine="43" fill="#FEFECE" filter="url(#f16jpyk65yiy44)" height="48" id="TestParameters" style="stroke:#A80036;stroke-width:1.5;" width="126" x="464.5" y="495.9531"/><ellipse cx="479.5" cy="511.9531" fill="#ADD1B2" rx="11" ry="11" style="stroke:#A80036;stroke-width:1.0;"/><path d="M481.8438,507.625 C480.9063,507.1875 480.3125,507.0469 479.4375,507.0469 C476.8125,507.0469 474.8125,509.125 474.8125,511.8438 L474.8125,512.9688 C474.8125,515.5469 476.9219,517.4375 479.8125,517.4375 C481.0313,517.4375 482.1875,517.1406 482.9375,516.5938 C483.5156,516.1875 483.8438,515.7344 483.8438,515.3438 C483.8438,514.8906 483.4531,514.5 482.9844,514.5 C482.7656,514.5 482.5625,514.5781 482.375,514.7656 C481.9219,515.25 481.9219,515.25 481.7344,515.3438 C481.3125,515.6094 480.625,515.7344 479.8594,515.7344 C477.8125,515.7344 476.5156,514.6406 476.5156,512.9375 L476.5156,511.8438 C476.5156,510.0625 477.7656,508.75 479.5,508.75 C480.0781,508.75 480.6875,508.9063 481.1563,509.1563 C481.6406,509.4375 481.8125,509.6563 481.9063,510.0625 C481.9688,510.4688 482,510.5938 482.1406,510.7188 C482.2813,510.8594 482.5156,510.9688 482.7344,510.9688 C483,510.9688 483.2656,510.8281 483.4375,510.6094 C483.5469,510.4531 483.5781,510.2656 483.5781,509.8438 L483.5781,508.4219 C483.5781,507.9844 483.5625,507.8594 483.4688,507.7031 C483.3125,507.4375 483.0313,507.2969 482.7344,507.2969 C482.4375,507.2969 482.2344,507.3906 482.0156,507.7031 L481.8438,507.625 Z " fill="#000000"/><text fill="#000000" font-family="sans-serif" font-size="12" lengthAdjust="spacing" textLength="94" x="493.5" y="516.1074">TestParameters</text><line style="stroke:#A80036;stroke-width:1.5;" x1="465.5" x2="589.5" y1="527.9531" y2="527.9531"/><line style="stroke:#A80036;stroke-width:1.5;" x1="465.5" x2="589.5" y1="535.9531" y2="535.9531"/><!--MD5=[4519e2ce539eff4d21d1cdb2b7d7c82c]
class TestParametersResults--><rect codeLine="46" fill="#FEFECE" filter="url(#f16jpyk65yiy44)" height="48" id="TestParametersResults" style="stroke:#A80036;stroke-width:1.5;" width="169" x="443" y="620.9531"/><ellipse cx="458" cy="636.9531" fill="#ADD1B2" rx="11" ry="11" style="stroke:#A80036;stroke-width:1.0;"/><path d="M460.3438,632.625 C459.4063,632.1875 458.8125,632.0469 457.9375,632.0469 C455.3125,632.0469 453.3125,634.125 453.3125,636.8438 L453.3125,637.9688 C453.3125,640.5469 455.4219,642.4375 458.3125,642.4375 C459.5313,642.4375 460.6875,642.1406 461.4375,641.5938 C462.0156,641.1875 462.3438,640.7344 462.3438,640.3438 C462.3438,639.8906 461.9531,639.5 461.4844,639.5 C461.2656,639.5 461.0625,639.5781 460.875,639.7656 C460.4219,640.25 460.4219,640.25 460.2344,640.3438 C459.8125,640.6094 459.125,640.7344 458.3594,640.7344 C456.3125,640.7344 455.0156,639.6406 455.0156,637.9375 L455.0156,636.8438 C455.0156,635.0625 456.2656,633.75 458,633.75 C458.5781,633.75 459.1875,633.9063 459.6563,634.1563 C460.1406,634.4375 460.3125,634.6563 460.4063,635.0625 C460.4688,635.4688 460.5,635.5938 460.6406,635.7188 C460.7813,635.8594 461.0156,635.9688 461.2344,635.9688 C461.5,635.9688 461.7656,635.8281 461.9375,635.6094 C462.0469,635.4531 462.0781,635.2656 462.0781,634.8438 L462.0781,633.4219 C462.0781,632.9844 462.0625,632.8594 461.9688,632.7031 C461.8125,632.4375 461.5313,632.2969 461.2344,632.2969 C460.9375,632.2969 460.7344,632.3906 460.5156,632.7031 L460.3438,632.625 Z " fill="#000000"/><text fill="#000000" font-family="sans-serif" font-size="12" lengthAdjust="spacing" textLength="137" x="472" y="641.1074">TestParametersResults</text><line style="stroke:#A80036;stroke-width:1.5;" x1="444" x2="611" y1="652.9531" y2="652.9531"/><line style="stroke:#A80036;stroke-width:1.5;" x1="444" x2="611" y1="660.9531" y2="660.9531"/><!--MD5=[10d06bcee75aaf74ab8f6040820ceef2]
class Diagnosis--><rect codeLine="49" fill="#FEFECE" filter="url(#f16jpyk65yiy44)" height="60.8047" id="Diagnosis" style="stroke:#A80036;stroke-width:1.5;" width="91" x="482" y="745.9531"/><ellipse cx="497" cy="761.9531" fill="#ADD1B2" rx="11" ry="11" style="stroke:#A80036;stroke-width:1.0;"/><path d="M499.3438,757.625 C498.4063,757.1875 497.8125,757.0469 496.9375,757.0469 C494.3125,757.0469 492.3125,759.125 492.3125,761.8438 L492.3125,762.9688 C492.3125,765.5469 494.4219,767.4375 497.3125,767.4375 C498.5313,767.4375 499.6875,767.1406 500.4375,766.5938 C501.0156,766.1875 501.3438,765.7344 501.3438,765.3438 C501.3438,764.8906 500.9531,764.5 500.4844,764.5 C500.2656,764.5 500.0625,764.5781 499.875,764.7656 C499.4219,765.25 499.4219,765.25 499.2344,765.3438 C498.8125,765.6094 498.125,765.7344 497.3594,765.7344 C495.3125,765.7344 494.0156,764.6406 494.0156,762.9375 L494.0156,761.8438 C494.0156,760.0625 495.2656,758.75 497,758.75 C497.5781,758.75 498.1875,758.9063 498.6563,759.1563 C499.1406,759.4375 499.3125,759.6563 499.4063,760.0625 C499.4688,760.4688 499.5,760.5938 499.6406,760.7188 C499.7813,760.8594 500.0156,760.9688 500.2344,760.9688 C500.5,760.9688 500.7656,760.8281 500.9375,760.6094 C501.0469,760.4531 501.0781,760.2656 501.0781,759.8438 L501.0781,758.4219 C501.0781,757.9844 501.0625,757.8594 500.9688,757.7031 C500.8125,757.4375 500.5313,757.2969 500.2344,757.2969 C499.9375,757.2969 499.7344,757.3906 499.5156,757.7031 L499.3438,757.625 Z " fill="#000000"/><text fill="#000000" font-family="sans-serif" font-size="12" lengthAdjust="spacing" textLength="59" x="511" y="766.1074">Diagnosis</text><line style="stroke:#A80036;stroke-width:1.5;" x1="483" x2="572" y1="777.9531" y2="777.9531"/><text fill="#000000" font-family="sans-serif" font-size="11" lengthAdjust="spacing" textLength="41" x="488" y="792.1636">-Report</text><line style="stroke:#A80036;stroke-width:1.5;" x1="483" x2="572" y1="798.7578" y2="798.7578"/><!--MD5=[8a5894da779413859a90f085b1749175]
link Laboratory Coordinator to Test--><path codeLine="53" d="M527.5,165.9931 C527.5,194.2051 527.5,227.0101 527.5,255.8311 " fill="none" id="Laboratory Coordinator-Test" style="stroke:#A80036;stroke-width:1.0;"/><polygon fill="#000000" points="532.5,209.5195,535.4389,200.4744,529.5611,200.4744,532.5,209.5195" style="stroke:#000000;stroke-width:1.0;"/><text fill="#000000" font-family="sans-serif" font-size="13" lengthAdjust="spacing" textLength="85" x="541.5" y="209.02">Imports tests</text><!--MD5=[502b51bc079239060389dab43b7d3470]
link Client to Test--><path codeLine="54" d="M268.178,330.9531 C312.45,330.9531 361.704,330.9531 405.293,330.9531 " fill="none" id="Client-Test" style="stroke:#A80036;stroke-width:1.0;"/><polygon fill="#000000" points="285.25,319.5195,294.2951,322.4585,294.2951,316.5806,285.25,319.5195" style="stroke:#000000;stroke-width:1.0;"/><text fill="#000000" font-family="sans-serif" font-size="13" lengthAdjust="spacing" textLength="88" x="299.25" y="324.02">performed by</text><!--MD5=[e981d4f96c4342412d1e68160b30cf70]
link Test to TestType--><path codeLine="55" d="M649.679,330.9531 C678.895,330.9531 708.699,330.9531 733.242,330.9531 " fill="none" id="Test-TestType" style="stroke:#A80036;stroke-width:1.0;"/><polygon fill="#000000" points="677,319.5195,667.9549,316.5806,667.9549,322.4585,677,319.5195" style="stroke:#000000;stroke-width:1.0;"/><text fill="#000000" font-family="sans-serif" font-size="13" lengthAdjust="spacing" textLength="34" x="681" y="324.02">is of*</text><!--MD5=[e80eb7b358ff3844f1d066086bf7c32a]
link Test to TestParameters--><path codeLine="56" d="M527.5,406.1291 C527.5,438.1481 527.5,473.3281 527.5,495.7501 " fill="none" id="Test-TestParameters" style="stroke:#A80036;stroke-width:1.0;"/><polygon fill="#000000" points="532.5,462.5195,535.4389,453.4744,529.5611,453.4744,532.5,462.5195" style="stroke:#000000;stroke-width:1.0;"/><text fill="#000000" font-family="sans-serif" font-size="13" lengthAdjust="spacing" textLength="129" x="541.5" y="462.02">requests analysis of</text><!--MD5=[da4a618ed680c09914916f03305b958f]
link TestParameters to TestParametersResults--><path codeLine="57" d="M527.5,544.0881 C527.5,566.0791 527.5,598.9651 527.5,620.9211 " fill="none" id="TestParameters-TestParametersResults" style="stroke:#A80036;stroke-width:1.0;"/><polygon fill="#000000" points="532.5,587.5195,535.4389,578.4744,529.5611,578.4744,532.5,587.5195" style="stroke:#000000;stroke-width:1.0;"/><text fill="#000000" font-family="sans-serif" font-size="13" lengthAdjust="spacing" textLength="54" x="541.5" y="587.02">contains</text><!--MD5=[f2330008e09122de8d78f7e2005bd99a]
link TestParametersResults to Diagnosis--><path codeLine="58" d="M527.5,669.1051 C527.5,690.4941 527.5,722.385 527.5,745.6645 " fill="none" id="TestParametersResults-Diagnosis" style="stroke:#A80036;stroke-width:1.0;"/><polygon fill="#000000" points="532.5,702.5195,529.5611,711.5646,535.4389,711.5646,532.5,702.5195" style="stroke:#000000;stroke-width:1.0;"/><text fill="#000000" font-family="sans-serif" font-size="13" lengthAdjust="spacing" textLength="78" x="541.5" y="712.02">made about</text><!--MD5=[a139dad4857a2b4e77d8ebad165f3d6d]
@startuml
title Classes - Class Diagram
skinparam classAttributeIconSize 0


class "Laboratory Coordinator" {
-Employee ID
-Organization Role
-Name
-Adress
-E-mail
-Phone Number
-{field}Standard Occupational Classification (SOC) Code
}
class Client{
  -Name
  -Sex
  -Citizen Card Number
  {field}-National Healthcare Service (NHS) Number
  -Birth Date
  -Sex
  {field}-Tax Identification Number (TIN)
  -Phone Number
  -E-mail
  -Lab Order
}

class Test{
  -Test Type
  -Internal Code
  -NHS Code
  -Description Of The Collection Method
  -Date and Time Collected
  -Date and Time of Chemical Analysis
  -Date and Time of Validation of the Test
  -Date and Time of the Diagnosis
}

class "TestType"{
-code
-description
-collectingMethod
}
class TestParameters{

}
class TestParametersResults{

}
class Diagnosis{
-Report
}

"Laboratory Coordinator" -d- Test : Imports tests >
Client -r- Test : performed by <
Test -r- "TestType": is of* >
Test -d- TestParameters: > requests analysis of
TestParameters -d- TestParametersResults: > contains
TestParametersResults -d- Diagnosis: < made about
@enduml

PlantUML version 1.2021.7(Sun May 23 12:40:07 UTC 2021)
(GPL source distribution)
Java Runtime: Java(TM) SE Runtime Environment
JVM: Java HotSpot(TM) 64-Bit Server VM
Default Encoding: UTF-8
Language: en
Country: US
--></g></svg>