<?xml version="1.0" encoding="UTF-8" standalone="no"?><svg xmlns="http://www.w3.org/2000/svg" xmlns:xlink="http://www.w3.org/1999/xlink" contentScriptType="application/ecmascript" contentStyleType="text/css" height="466px" preserveAspectRatio="none" style="width:1318px;height:466px;" version="1.1" viewBox="0 0 1318 466" width="1318px" zoomAndPan="magnify"><defs><filter height="300%" id="fo90lemxy42fj" width="300%" x="-1" y="-1"><feGaussianBlur result="blurOut" stdDeviation="2.0"/><feColorMatrix in="blurOut" result="blurOut2" type="matrix" values="0 0 0 0 0 0 0 0 0 0 0 0 0 0 0 0 0 0 .4 0"/><feOffset dx="4.0" dy="4.0" in="blurOut2" result="blurOut3"/><feBlend in="SourceGraphic" in2="blurOut3" mode="normal"/></filter></defs><g><!--MD5=[8969e8ed42d9c765032cea6283c2ef26]
class EmployeeUI--><rect codeLine="3" fill="#FEFECE" filter="url(#fo90lemxy42fj)" height="48" id="EmployeeUI" style="stroke:#A80036;stroke-width:1.5;" width="104" x="742" y="7"/><ellipse cx="757" cy="23" fill="#ADD1B2" rx="11" ry="11" style="stroke:#A80036;stroke-width:1.0;"/><path d="M759.3438,18.6719 C758.4063,18.2344 757.8125,18.0938 756.9375,18.0938 C754.3125,18.0938 752.3125,20.1719 752.3125,22.8906 L752.3125,24.0156 C752.3125,26.5938 754.4219,28.4844 757.3125,28.4844 C758.5313,28.4844 759.6875,28.1875 760.4375,27.6406 C761.0156,27.2344 761.3438,26.7813 761.3438,26.3906 C761.3438,25.9375 760.9531,25.5469 760.4844,25.5469 C760.2656,25.5469 760.0625,25.625 759.875,25.8125 C759.4219,26.2969 759.4219,26.2969 759.2344,26.3906 C758.8125,26.6563 758.125,26.7813 757.3594,26.7813 C755.3125,26.7813 754.0156,25.6875 754.0156,23.9844 L754.0156,22.8906 C754.0156,21.1094 755.2656,19.7969 757,19.7969 C757.5781,19.7969 758.1875,19.9531 758.6563,20.2031 C759.1406,20.4844 759.3125,20.7031 759.4063,21.1094 C759.4688,21.5156 759.5,21.6406 759.6406,21.7656 C759.7813,21.9063 760.0156,22.0156 760.2344,22.0156 C760.5,22.0156 760.7656,21.875 760.9375,21.6563 C761.0469,21.5 761.0781,21.3125 761.0781,20.8906 L761.0781,19.4688 C761.0781,19.0313 761.0625,18.9063 760.9688,18.75 C760.8125,18.4844 760.5313,18.3438 760.2344,18.3438 C759.9375,18.3438 759.7344,18.4375 759.5156,18.75 L759.3438,18.6719 Z " fill="#000000"/><text fill="#000000" font-family="sans-serif" font-size="12" lengthAdjust="spacing" textLength="72" x="771" y="27.1543">EmployeeUI</text><line style="stroke:#A80036;stroke-width:1.5;" x1="743" x2="845" y1="39" y2="39"/><line style="stroke:#A80036;stroke-width:1.5;" x1="743" x2="845" y1="47" y2="47"/><!--MD5=[e3298d6dd127d371f1a68ca8fbd2682f]
class EmployeeController--><rect codeLine="4" fill="#FEFECE" filter="url(#fo90lemxy42fj)" height="99.2188" id="EmployeeController" style="stroke:#A80036;stroke-width:1.5;" width="334" x="295" y="116"/><ellipse cx="398.25" cy="132" fill="#ADD1B2" rx="11" ry="11" style="stroke:#A80036;stroke-width:1.0;"/><path d="M400.5938,127.6719 C399.6563,127.2344 399.0625,127.0938 398.1875,127.0938 C395.5625,127.0938 393.5625,129.1719 393.5625,131.8906 L393.5625,133.0156 C393.5625,135.5938 395.6719,137.4844 398.5625,137.4844 C399.7813,137.4844 400.9375,137.1875 401.6875,136.6406 C402.2656,136.2344 402.5938,135.7813 402.5938,135.3906 C402.5938,134.9375 402.2031,134.5469 401.7344,134.5469 C401.5156,134.5469 401.3125,134.625 401.125,134.8125 C400.6719,135.2969 400.6719,135.2969 400.4844,135.3906 C400.0625,135.6563 399.375,135.7813 398.6094,135.7813 C396.5625,135.7813 395.2656,134.6875 395.2656,132.9844 L395.2656,131.8906 C395.2656,130.1094 396.5156,128.7969 398.25,128.7969 C398.8281,128.7969 399.4375,128.9531 399.9063,129.2031 C400.3906,129.4844 400.5625,129.7031 400.6563,130.1094 C400.7188,130.5156 400.75,130.6406 400.8906,130.7656 C401.0313,130.9063 401.2656,131.0156 401.4844,131.0156 C401.75,131.0156 402.0156,130.875 402.1875,130.6563 C402.2969,130.5 402.3281,130.3125 402.3281,129.8906 L402.3281,128.4688 C402.3281,128.0313 402.3125,127.9063 402.2188,127.75 C402.0625,127.4844 401.7813,127.3438 401.4844,127.3438 C401.1875,127.3438 400.9844,127.4375 400.7656,127.75 L400.5938,127.6719 Z " fill="#000000"/><text fill="#000000" font-family="sans-serif" font-size="12" lengthAdjust="spacing" textLength="119" x="418.75" y="136.1543">EmployeeController</text><line style="stroke:#A80036;stroke-width:1.5;" x1="296" x2="628" y1="148" y2="148"/><line style="stroke:#A80036;stroke-width:1.5;" x1="296" x2="628" y1="156" y2="156"/><text fill="#000000" font-family="sans-serif" font-size="11" lengthAdjust="spacing" textLength="322" x="301" y="170.2104">+createEmployee(employeeId, organizationRole, name,</text><text fill="#000000" font-family="sans-serif" font-size="11" lengthAdjust="spacing" textLength="175" x="305" y="183.0151">address, phoneNumber, email,</text><text fill="#000000" font-family="sans-serif" font-size="11" lengthAdjust="spacing" textLength="230" x="305" y="195.8198">standardOccupationalClassificationCode)</text><text fill="#000000" font-family="sans-serif" font-size="11" lengthAdjust="spacing" textLength="103" x="301" y="208.6245">+saveEmployee()</text><!--MD5=[02e4b9b7573f1156f41e60aa5b4e25a4]
class Company--><rect codeLine="9" fill="#FEFECE" filter="url(#fo90lemxy42fj)" height="60.8047" id="Company" style="stroke:#A80036;stroke-width:1.5;" width="128" x="398" y="333.5"/><ellipse cx="431" cy="349.5" fill="#ADD1B2" rx="11" ry="11" style="stroke:#A80036;stroke-width:1.0;"/><path d="M433.3438,345.1719 C432.4063,344.7344 431.8125,344.5938 430.9375,344.5938 C428.3125,344.5938 426.3125,346.6719 426.3125,349.3906 L426.3125,350.5156 C426.3125,353.0938 428.4219,354.9844 431.3125,354.9844 C432.5313,354.9844 433.6875,354.6875 434.4375,354.1406 C435.0156,353.7344 435.3438,353.2813 435.3438,352.8906 C435.3438,352.4375 434.9531,352.0469 434.4844,352.0469 C434.2656,352.0469 434.0625,352.125 433.875,352.3125 C433.4219,352.7969 433.4219,352.7969 433.2344,352.8906 C432.8125,353.1563 432.125,353.2813 431.3594,353.2813 C429.3125,353.2813 428.0156,352.1875 428.0156,350.4844 L428.0156,349.3906 C428.0156,347.6094 429.2656,346.2969 431,346.2969 C431.5781,346.2969 432.1875,346.4531 432.6563,346.7031 C433.1406,346.9844 433.3125,347.2031 433.4063,347.6094 C433.4688,348.0156 433.5,348.1406 433.6406,348.2656 C433.7813,348.4063 434.0156,348.5156 434.2344,348.5156 C434.5,348.5156 434.7656,348.375 434.9375,348.1563 C435.0469,348 435.0781,347.8125 435.0781,347.3906 L435.0781,345.9688 C435.0781,345.5313 435.0625,345.4063 434.9688,345.25 C434.8125,344.9844 434.5313,344.8438 434.2344,344.8438 C433.9375,344.8438 433.7344,344.9375 433.5156,345.25 L433.3438,345.1719 Z " fill="#000000"/><text fill="#000000" font-family="sans-serif" font-size="12" lengthAdjust="spacing" textLength="56" x="449" y="353.6543">Company</text><line style="stroke:#A80036;stroke-width:1.5;" x1="399" x2="525" y1="365.5" y2="365.5"/><line style="stroke:#A80036;stroke-width:1.5;" x1="399" x2="525" y1="373.5" y2="373.5"/><text fill="#000000" font-family="sans-serif" font-size="11" lengthAdjust="spacing" textLength="116" x="404" y="387.7104">getEmployeeStore()</text><!--MD5=[829fb52c07ade3ad64ef85b99d1fca10]
class EmployeeStore--><rect codeLine="12" fill="#FEFECE" filter="url(#fo90lemxy42fj)" height="124.8281" id="EmployeeStore" style="stroke:#A80036;stroke-width:1.5;" width="334" x="593" y="301.5"/><ellipse cx="709.25" cy="317.5" fill="#ADD1B2" rx="11" ry="11" style="stroke:#A80036;stroke-width:1.0;"/><path d="M711.5938,313.1719 C710.6563,312.7344 710.0625,312.5938 709.1875,312.5938 C706.5625,312.5938 704.5625,314.6719 704.5625,317.3906 L704.5625,318.5156 C704.5625,321.0938 706.6719,322.9844 709.5625,322.9844 C710.7813,322.9844 711.9375,322.6875 712.6875,322.1406 C713.2656,321.7344 713.5938,321.2813 713.5938,320.8906 C713.5938,320.4375 713.2031,320.0469 712.7344,320.0469 C712.5156,320.0469 712.3125,320.125 712.125,320.3125 C711.6719,320.7969 711.6719,320.7969 711.4844,320.8906 C711.0625,321.1563 710.375,321.2813 709.6094,321.2813 C707.5625,321.2813 706.2656,320.1875 706.2656,318.4844 L706.2656,317.3906 C706.2656,315.6094 707.5156,314.2969 709.25,314.2969 C709.8281,314.2969 710.4375,314.4531 710.9063,314.7031 C711.3906,314.9844 711.5625,315.2031 711.6563,315.6094 C711.7188,316.0156 711.75,316.1406 711.8906,316.2656 C712.0313,316.4063 712.2656,316.5156 712.4844,316.5156 C712.75,316.5156 713.0156,316.375 713.1875,316.1563 C713.2969,316 713.3281,315.8125 713.3281,315.3906 L713.3281,313.9688 C713.3281,313.5313 713.3125,313.4063 713.2188,313.25 C713.0625,312.9844 712.7813,312.8438 712.4844,312.8438 C712.1875,312.8438 711.9844,312.9375 711.7656,313.25 L711.5938,313.1719 Z " fill="#000000"/><text fill="#000000" font-family="sans-serif" font-size="12" lengthAdjust="spacing" textLength="93" x="729.75" y="321.6543">EmployeeStore</text><line style="stroke:#A80036;stroke-width:1.5;" x1="594" x2="926" y1="333.5" y2="333.5"/><line style="stroke:#A80036;stroke-width:1.5;" x1="594" x2="926" y1="341.5" y2="341.5"/><text fill="#000000" font-family="sans-serif" font-size="11" lengthAdjust="spacing" textLength="322" x="599" y="355.7104">+createEmployee(employeeId, organizationRole, name,</text><text fill="#000000" font-family="sans-serif" font-size="11" lengthAdjust="spacing" textLength="175" x="603" y="368.5151">address, phoneNumber, email,</text><text fill="#000000" font-family="sans-serif" font-size="11" lengthAdjust="spacing" textLength="230" x="603" y="381.3198">standardOccupationalClassificationCode)</text><text fill="#000000" font-family="sans-serif" font-size="11" lengthAdjust="spacing" textLength="147" x="599" y="394.1245">+validateEmployee(emp)</text><text fill="#000000" font-family="sans-serif" font-size="11" lengthAdjust="spacing" textLength="122" x="599" y="406.9292">+addEmployee(emp)</text><text fill="#000000" font-family="sans-serif" font-size="11" lengthAdjust="spacing" textLength="129" x="599" y="419.7339">+saveEmployee(emp)</text><!--MD5=[7421f545a0d8420c5bec41e74b387d9c]
class Employee--><rect codeLine="18" fill="#FEFECE" filter="url(#fo90lemxy42fj)" height="176.0469" id="Employee" style="stroke:#A80036;stroke-width:1.5;" width="297" x="1007.5" y="276"/><ellipse cx="1121.75" cy="292" fill="#ADD1B2" rx="11" ry="11" style="stroke:#A80036;stroke-width:1.0;"/><path d="M1124.0938,287.6719 C1123.1563,287.2344 1122.5625,287.0938 1121.6875,287.0938 C1119.0625,287.0938 1117.0625,289.1719 1117.0625,291.8906 L1117.0625,293.0156 C1117.0625,295.5938 1119.1719,297.4844 1122.0625,297.4844 C1123.2813,297.4844 1124.4375,297.1875 1125.1875,296.6406 C1125.7656,296.2344 1126.0938,295.7813 1126.0938,295.3906 C1126.0938,294.9375 1125.7031,294.5469 1125.2344,294.5469 C1125.0156,294.5469 1124.8125,294.625 1124.625,294.8125 C1124.1719,295.2969 1124.1719,295.2969 1123.9844,295.3906 C1123.5625,295.6563 1122.875,295.7813 1122.1094,295.7813 C1120.0625,295.7813 1118.7656,294.6875 1118.7656,292.9844 L1118.7656,291.8906 C1118.7656,290.1094 1120.0156,288.7969 1121.75,288.7969 C1122.3281,288.7969 1122.9375,288.9531 1123.4063,289.2031 C1123.8906,289.4844 1124.0625,289.7031 1124.1563,290.1094 C1124.2188,290.5156 1124.25,290.6406 1124.3906,290.7656 C1124.5313,290.9063 1124.7656,291.0156 1124.9844,291.0156 C1125.25,291.0156 1125.5156,290.875 1125.6875,290.6563 C1125.7969,290.5 1125.8281,290.3125 1125.8281,289.8906 L1125.8281,288.4688 C1125.8281,288.0313 1125.8125,287.9063 1125.7188,287.75 C1125.5625,287.4844 1125.2813,287.3438 1124.9844,287.3438 C1124.6875,287.3438 1124.4844,287.4375 1124.2656,287.75 L1124.0938,287.6719 Z " fill="#000000"/><text fill="#000000" font-family="sans-serif" font-size="12" lengthAdjust="spacing" textLength="60" x="1142.25" y="296.1543">Employee</text><line style="stroke:#A80036;stroke-width:1.5;" x1="1008.5" x2="1303.5" y1="308" y2="308"/><text fill="#000000" font-family="sans-serif" font-size="11" lengthAdjust="spacing" textLength="73" x="1013.5" y="322.2104">-employeeId</text><text fill="#000000" font-family="sans-serif" font-size="11" lengthAdjust="spacing" textLength="99" x="1013.5" y="335.0151">-organizationRole</text><text fill="#000000" font-family="sans-serif" font-size="11" lengthAdjust="spacing" textLength="37" x="1013.5" y="347.8198">-name</text><text fill="#000000" font-family="sans-serif" font-size="11" lengthAdjust="spacing" textLength="49" x="1013.5" y="360.6245">-address</text><text fill="#000000" font-family="sans-serif" font-size="11" lengthAdjust="spacing" textLength="85" x="1013.5" y="373.4292">-phoneNumber</text><text fill="#000000" font-family="sans-serif" font-size="11" lengthAdjust="spacing" textLength="36" x="1013.5" y="386.2339">-email</text><text fill="#000000" font-family="sans-serif" font-size="11" lengthAdjust="spacing" textLength="230" x="1013.5" y="399.0386">-standardOccupationalClassificationCode</text><line style="stroke:#A80036;stroke-width:1.5;" x1="1008.5" x2="1303.5" y1="405.6328" y2="405.6328"/><text fill="#000000" font-family="sans-serif" font-size="11" lengthAdjust="spacing" textLength="285" x="1013.5" y="419.8433">+Employee(employeeId, organizationRole, name,</text><text fill="#000000" font-family="sans-serif" font-size="11" lengthAdjust="spacing" textLength="175" x="1017.5" y="432.6479">address, phoneNumber, email,</text><text fill="#000000" font-family="sans-serif" font-size="11" lengthAdjust="spacing" textLength="230" x="1017.5" y="445.4526">standardOccupationalClassificationCode)</text><!--MD5=[8ae808d068a8995f06b9b3ec51357f0b]
class AuthFacade--><rect codeLine="28" fill="#FEFECE" filter="url(#fo90lemxy42fj)" height="73.6094" id="AuthFacade" style="stroke:#A80036;stroke-width:1.5;" width="356" x="7" y="327"/><ellipse cx="145.75" cy="343" fill="#ADD1B2" rx="11" ry="11" style="stroke:#A80036;stroke-width:1.0;"/><path d="M148.0938,338.6719 C147.1563,338.2344 146.5625,338.0938 145.6875,338.0938 C143.0625,338.0938 141.0625,340.1719 141.0625,342.8906 L141.0625,344.0156 C141.0625,346.5938 143.1719,348.4844 146.0625,348.4844 C147.2813,348.4844 148.4375,348.1875 149.1875,347.6406 C149.7656,347.2344 150.0938,346.7813 150.0938,346.3906 C150.0938,345.9375 149.7031,345.5469 149.2344,345.5469 C149.0156,345.5469 148.8125,345.625 148.625,345.8125 C148.1719,346.2969 148.1719,346.2969 147.9844,346.3906 C147.5625,346.6563 146.875,346.7813 146.1094,346.7813 C144.0625,346.7813 142.7656,345.6875 142.7656,343.9844 L142.7656,342.8906 C142.7656,341.1094 144.0156,339.7969 145.75,339.7969 C146.3281,339.7969 146.9375,339.9531 147.4063,340.2031 C147.8906,340.4844 148.0625,340.7031 148.1563,341.1094 C148.2188,341.5156 148.25,341.6406 148.3906,341.7656 C148.5313,341.9063 148.7656,342.0156 148.9844,342.0156 C149.25,342.0156 149.5156,341.875 149.6875,341.6563 C149.7969,341.5 149.8281,341.3125 149.8281,340.8906 L149.8281,339.4688 C149.8281,339.0313 149.8125,338.9063 149.7188,338.75 C149.5625,338.4844 149.2813,338.3438 148.9844,338.3438 C148.6875,338.3438 148.4844,338.4375 148.2656,338.75 L148.0938,338.6719 Z " fill="#000000"/><text fill="#000000" font-family="sans-serif" font-size="12" lengthAdjust="spacing" textLength="70" x="166.25" y="347.1543">AuthFacade</text><line style="stroke:#A80036;stroke-width:1.5;" x1="8" x2="362" y1="359" y2="359"/><line style="stroke:#A80036;stroke-width:1.5;" x1="8" x2="362" y1="367" y2="367"/><text fill="#000000" font-family="sans-serif" font-size="11" lengthAdjust="spacing" textLength="344" x="13" y="381.2104">+addUserWithRole(name,email, password, organizationRole)</text><text fill="#000000" font-family="sans-serif" font-size="11" lengthAdjust="spacing" textLength="109" x="13" y="394.0151">+existsUser(email)</text><!--MD5=[4af44b1d00658e0ecf4ff69aff0feb68]
link EmployeeUI to EmployeeController--><path codeLine="33" d="M741.76,52.849 C700.724,69.226 641.818,92.735 588.634,113.961 " fill="none" id="EmployeeUI-to-EmployeeController" style="stroke:#A80036;stroke-width:1.0;stroke-dasharray:7.0,7.0;"/><polygon fill="#A80036" points="583.834,115.876,593.6756,116.2552,588.4779,114.0227,590.7103,108.825,583.834,115.876" style="stroke:#A80036;stroke-width:1.0;"/><!--MD5=[89a874917d38e7d0b678b06005c2e8f2]
link EmployeeController to Company--><path codeLine="34" d="M462,215.073 C462,250.097 462,296.55 462,327.986 " fill="none" id="EmployeeController-to-Company" style="stroke:#A80036;stroke-width:1.0;stroke-dasharray:7.0,7.0;"/><polygon fill="#A80036" points="462,333.286,466,324.286,462,328.286,458,324.286,462,333.286" style="stroke:#A80036;stroke-width:1.0;"/><!--MD5=[1a0efbbe7ee03453a44a0ca1757bdbd0]
link EmployeeUI to Employee--><path codeLine="35" d="M819.168,55.012 C867.544,99.246 975.871,198.296 1056.69,272.199 " fill="none" id="EmployeeUI-to-Employee" style="stroke:#A80036;stroke-width:1.0;stroke-dasharray:7.0,7.0;"/><polygon fill="#A80036" points="1060.52,275.698,1056.5738,266.6743,1056.8287,272.3254,1051.1776,272.5803,1060.52,275.698" style="stroke:#A80036;stroke-width:1.0;"/><!--MD5=[41dd9e817dd46b557bad4b48ebd4475d]
link EmployeeController to AuthFacade--><path codeLine="36" d="M393.528,215.073 C346.346,248.543 284.45,292.451 240.378,323.716 " fill="none" id="EmployeeController-to-AuthFacade" style="stroke:#A80036;stroke-width:1.0;stroke-dasharray:7.0,7.0;"/><polygon fill="#A80036" points="236.169,326.701,245.8241,324.7568,240.2473,323.8083,241.1958,318.2316,236.169,326.701" style="stroke:#A80036;stroke-width:1.0;"/><!--MD5=[ce859576cba61219b3cb4d2d23fdcd81]
link Company to EmployeeStore--><path codeLine="37" d="M526.295,364 C544.749,364 565.798,364 587.531,364 " fill="none" id="Company-to-EmployeeStore" style="stroke:#A80036;stroke-width:1.0;"/><polygon fill="#A80036" points="592.77,364,583.77,360,587.77,364,583.77,368,592.77,364" style="stroke:#A80036;stroke-width:1.0;"/><text fill="#000000" font-family="sans-serif" font-size="13" lengthAdjust="spacing" textLength="30" x="544.5" y="357.0669">uses</text><!--MD5=[2f3bac1bdf76f0b867b8cadb6fadb6bc]
link EmployeeStore to Employee--><path codeLine="38" d="M927.079,364 C951.927,364 977.441,364 1002.003,364 " fill="none" id="EmployeeStore-to-Employee" style="stroke:#A80036;stroke-width:1.0;"/><polygon fill="#A80036" points="1007.23,364,998.23,360,1002.23,364,998.23,368,1007.23,364" style="stroke:#A80036;stroke-width:1.0;"/><text fill="#000000" font-family="sans-serif" font-size="13" lengthAdjust="spacing" textLength="44" x="945.25" y="357.0669">adopts</text><!--MD5=[d6c49c2befc7650521b8032fc7c83a7e]
@startuml
skinparam classAttributeIconSize 0

class EmployeeUI
class EmployeeController{
{method}+createEmployee(employeeId, organizationRole, name,\n address, phoneNumber, email,\n standardOccupationalClassificationCode)
{method}+saveEmployee()

}
class Company{
{method}getEmployeeStore()
}
class EmployeeStore{
{method}+createEmployee(employeeId, organizationRole, name,\n address, phoneNumber, email,\n standardOccupationalClassificationCode)
{method}+validateEmployee(emp)
{method}+addEmployee(emp)
{method}+saveEmployee(emp)
}
class Employee{
{field}-employeeId
{field}-organizationRole
{field}-name
{field}-address
{field}-phoneNumber
{field}-email
{field}-standardOccupationalClassificationCode
{method}+Employee(employeeId, organizationRole, name,\n address, phoneNumber, email,\n standardOccupationalClassificationCode)
}
class AuthFacade{
{method}+addUserWithRole(name,email, password, organizationRole)
{method}+existsUser(email)
}

EmployeeUI ..> EmployeeController
EmployeeController ..> Company
EmployeeUI ..> Employee
EmployeeController ..> AuthFacade
Company -> EmployeeStore: uses
EmployeeStore -> Employee: adopts
@enduml

PlantUML version 1.2021.6beta4(Unknown compile time)
(GPL source distribution)
Java Runtime: Java(TM) SE Runtime Environment
JVM: Java HotSpot(TM) 64-Bit Server VM
Default Encoding: UTF-8
Language: en
Country: US
--></g></svg>