<?xml version="1.0" encoding="UTF-8" standalone="no"?><svg xmlns="http://www.w3.org/2000/svg" xmlns:xlink="http://www.w3.org/1999/xlink" contentScriptType="application/ecmascript" contentStyleType="text/css" height="158px" preserveAspectRatio="none" style="width:722px;height:158px;" version="1.1" viewBox="0 0 722 158" width="722px" zoomAndPan="magnify"><defs><filter height="300%" id="f1tus4bd8zsasq" width="300%" x="-1" y="-1"><feGaussianBlur result="blurOut" stdDeviation="2.0"/><feColorMatrix in="blurOut" result="blurOut2" type="matrix" values="0 0 0 0 0 0 0 0 0 0 0 0 0 0 0 0 0 0 .4 0"/><feOffset dx="4.0" dy="4.0" in="blurOut2" result="blurOut3"/><feBlend in="SourceGraphic" in2="blurOut3" mode="normal"/></filter></defs><g><!--MD5=[da547346deef918ea16944ba046651ef]
class Administrator--><rect codeLine="2" fill="#FEFECE" filter="url(#f1tus4bd8zsasq)" height="48" id="Administrator" style="stroke:#A80036;stroke-width:1.5;" width="112" x="405.5" y="52"/><ellipse cx="420.5" cy="68" fill="#ADD1B2" rx="11" ry="11" style="stroke:#A80036;stroke-width:1.0;"/><path d="M422.8438,63.6719 C421.9063,63.2344 421.3125,63.0938 420.4375,63.0938 C417.8125,63.0938 415.8125,65.1719 415.8125,67.8906 L415.8125,69.0156 C415.8125,71.5938 417.9219,73.4844 420.8125,73.4844 C422.0313,73.4844 423.1875,73.1875 423.9375,72.6406 C424.5156,72.2344 424.8438,71.7813 424.8438,71.3906 C424.8438,70.9375 424.4531,70.5469 423.9844,70.5469 C423.7656,70.5469 423.5625,70.625 423.375,70.8125 C422.9219,71.2969 422.9219,71.2969 422.7344,71.3906 C422.3125,71.6563 421.625,71.7813 420.8594,71.7813 C418.8125,71.7813 417.5156,70.6875 417.5156,68.9844 L417.5156,67.8906 C417.5156,66.1094 418.7656,64.7969 420.5,64.7969 C421.0781,64.7969 421.6875,64.9531 422.1563,65.2031 C422.6406,65.4844 422.8125,65.7031 422.9063,66.1094 C422.9688,66.5156 423,66.6406 423.1406,66.7656 C423.2813,66.9063 423.5156,67.0156 423.7344,67.0156 C424,67.0156 424.2656,66.875 424.4375,66.6563 C424.5469,66.5 424.5781,66.3125 424.5781,65.8906 L424.5781,64.4688 C424.5781,64.0313 424.5625,63.9063 424.4688,63.75 C424.3125,63.4844 424.0313,63.3438 423.7344,63.3438 C423.4375,63.3438 423.2344,63.4375 423.0156,63.75 L422.8438,63.6719 Z " fill="#000000"/><text fill="#000000" font-family="sans-serif" font-size="12" lengthAdjust="spacing" textLength="80" x="434.5" y="72.1543">Administrator</text><line style="stroke:#A80036;stroke-width:1.5;" x1="406.5" x2="516.5" y1="84" y2="84"/><line style="stroke:#A80036;stroke-width:1.5;" x1="406.5" x2="516.5" y1="92" y2="92"/><!--MD5=[02e4b9b7573f1156f41e60aa5b4e25a4]
class Company--><rect codeLine="4" fill="#FEFECE" filter="url(#f1tus4bd8zsasq)" height="60.8047" id="Company" style="stroke:#A80036;stroke-width:1.5;" width="88" x="620.5" y="45.5"/><ellipse cx="635.5" cy="61.5" fill="#ADD1B2" rx="11" ry="11" style="stroke:#A80036;stroke-width:1.0;"/><path d="M637.8438,57.1719 C636.9063,56.7344 636.3125,56.5938 635.4375,56.5938 C632.8125,56.5938 630.8125,58.6719 630.8125,61.3906 L630.8125,62.5156 C630.8125,65.0938 632.9219,66.9844 635.8125,66.9844 C637.0313,66.9844 638.1875,66.6875 638.9375,66.1406 C639.5156,65.7344 639.8438,65.2813 639.8438,64.8906 C639.8438,64.4375 639.4531,64.0469 638.9844,64.0469 C638.7656,64.0469 638.5625,64.125 638.375,64.3125 C637.9219,64.7969 637.9219,64.7969 637.7344,64.8906 C637.3125,65.1563 636.625,65.2813 635.8594,65.2813 C633.8125,65.2813 632.5156,64.1875 632.5156,62.4844 L632.5156,61.3906 C632.5156,59.6094 633.7656,58.2969 635.5,58.2969 C636.0781,58.2969 636.6875,58.4531 637.1563,58.7031 C637.6406,58.9844 637.8125,59.2031 637.9063,59.6094 C637.9688,60.0156 638,60.1406 638.1406,60.2656 C638.2813,60.4063 638.5156,60.5156 638.7344,60.5156 C639,60.5156 639.2656,60.375 639.4375,60.1563 C639.5469,60 639.5781,59.8125 639.5781,59.3906 L639.5781,57.9688 C639.5781,57.5313 639.5625,57.4063 639.4688,57.25 C639.3125,56.9844 639.0313,56.8438 638.7344,56.8438 C638.4375,56.8438 638.2344,56.9375 638.0156,57.25 L637.8438,57.1719 Z " fill="#000000"/><text fill="#000000" font-family="sans-serif" font-size="12" lengthAdjust="spacing" textLength="56" x="649.5" y="65.6543">Company</text><line style="stroke:#A80036;stroke-width:1.5;" x1="621.5" x2="707.5" y1="77.5" y2="77.5"/><text fill="#000000" font-family="sans-serif" font-size="11" lengthAdjust="spacing" textLength="72" x="626.5" y="91.7104">-Designation</text><line style="stroke:#A80036;stroke-width:1.5;" x1="621.5" x2="707.5" y1="98.3047" y2="98.3047"/><!--MD5=[7421f545a0d8420c5bec41e74b387d9c]
class Employee--><rect codeLine="7" fill="#FEFECE" filter="url(#f1tus4bd8zsasq)" height="137.6328" id="Employee" style="stroke:#A80036;stroke-width:1.5;" width="293" x="7" y="7"/><ellipse cx="119.25" cy="23" fill="#ADD1B2" rx="11" ry="11" style="stroke:#A80036;stroke-width:1.0;"/><path d="M121.5938,18.6719 C120.6563,18.2344 120.0625,18.0938 119.1875,18.0938 C116.5625,18.0938 114.5625,20.1719 114.5625,22.8906 L114.5625,24.0156 C114.5625,26.5938 116.6719,28.4844 119.5625,28.4844 C120.7813,28.4844 121.9375,28.1875 122.6875,27.6406 C123.2656,27.2344 123.5938,26.7813 123.5938,26.3906 C123.5938,25.9375 123.2031,25.5469 122.7344,25.5469 C122.5156,25.5469 122.3125,25.625 122.125,25.8125 C121.6719,26.2969 121.6719,26.2969 121.4844,26.3906 C121.0625,26.6563 120.375,26.7813 119.6094,26.7813 C117.5625,26.7813 116.2656,25.6875 116.2656,23.9844 L116.2656,22.8906 C116.2656,21.1094 117.5156,19.7969 119.25,19.7969 C119.8281,19.7969 120.4375,19.9531 120.9063,20.2031 C121.3906,20.4844 121.5625,20.7031 121.6563,21.1094 C121.7188,21.5156 121.75,21.6406 121.8906,21.7656 C122.0313,21.9063 122.2656,22.0156 122.4844,22.0156 C122.75,22.0156 123.0156,21.875 123.1875,21.6563 C123.2969,21.5 123.3281,21.3125 123.3281,20.8906 L123.3281,19.4688 C123.3281,19.0313 123.3125,18.9063 123.2188,18.75 C123.0625,18.4844 122.7813,18.3438 122.4844,18.3438 C122.1875,18.3438 121.9844,18.4375 121.7656,18.75 L121.5938,18.6719 Z " fill="#000000"/><text fill="#000000" font-family="sans-serif" font-size="12" lengthAdjust="spacing" textLength="60" x="139.75" y="27.1543">Employee</text><line style="stroke:#A80036;stroke-width:1.5;" x1="8" x2="299" y1="39" y2="39"/><text fill="#000000" font-family="sans-serif" font-size="11" lengthAdjust="spacing" textLength="78" x="13" y="53.2104">-Employee ID</text><text fill="#000000" font-family="sans-serif" font-size="11" lengthAdjust="spacing" textLength="105" x="13" y="66.0151">-Organization Role</text><text fill="#000000" font-family="sans-serif" font-size="11" lengthAdjust="spacing" textLength="38" x="13" y="78.8198">-Name</text><text fill="#000000" font-family="sans-serif" font-size="11" lengthAdjust="spacing" textLength="43" x="13" y="91.6245">-Adress</text><text fill="#000000" font-family="sans-serif" font-size="11" lengthAdjust="spacing" textLength="39" x="13" y="104.4292">-E-mail</text><text fill="#000000" font-family="sans-serif" font-size="11" lengthAdjust="spacing" textLength="88" x="13" y="117.2339">-Phone Number</text><text fill="#000000" font-family="sans-serif" font-size="11" lengthAdjust="spacing" textLength="281" x="13" y="130.0386">-Standard Occupational Classification (SOC) Code</text><line style="stroke:#A80036;stroke-width:1.5;" x1="8" x2="299" y1="136.6328" y2="136.6328"/><!--MD5=[304db59a05c0da2cdffc3c882f2d9e9b]
link Administrator to Company--><path codeLine="16" d="M517.508,76 C549.899,76 590.082,76 620.245,76 " fill="none" id="Administrator-Company" style="stroke:#A80036;stroke-width:1.0;"/><polygon fill="#000000" points="545,64.5664,535.9549,61.6275,535.9549,67.5053,545,64.5664" style="stroke:#000000;stroke-width:1.0;"/><text fill="#000000" font-family="sans-serif" font-size="13" lengthAdjust="spacing" textLength="53" x="549" y="69.0669">works in</text><text fill="#000000" font-family="sans-serif" font-size="13" lengthAdjust="spacing" textLength="7" x="525.5044" y="72.068">*</text><text fill="#000000" font-family="sans-serif" font-size="13" lengthAdjust="spacing" textLength="8" x="604.5544" y="71.8977">1</text><!--MD5=[b8a4f1f13c2d56b2385b1bfafed8418f]
link Employee to Administrator--><path codeLine="17" d="M300.284,76 C337.624,76 375.531,76 405.198,76 " fill="none" id="Employee-Administrator" style="stroke:#A80036;stroke-width:1.0;"/><polygon fill="#000000" points="317.25,64.5664,326.2951,67.5053,326.2951,61.6275,317.25,64.5664" style="stroke:#000000;stroke-width:1.0;"/><text fill="#000000" font-family="sans-serif" font-size="13" lengthAdjust="spacing" textLength="56" x="331.25" y="69.0669">registers</text><text fill="#000000" font-family="sans-serif" font-size="13" lengthAdjust="spacing" textLength="23" x="307.9509" y="88.4423">1..*</text><text fill="#000000" font-family="sans-serif" font-size="13" lengthAdjust="spacing" textLength="23" x="374.3584" y="88.9418">1..*</text><!--MD5=[c9a9e929fe26eced43918193d61a5589]
@startuml
skinparam classAttributeIconSize 0
class Administrator{
}
class Company{
-Designation
}
class Employee{
-Employee ID
-Organization Role
-Name
-Adress
-E-mail
-Phone Number
{field}-Standard Occupational Classification (SOC) Code
}
Company "1"- -l"*" Administrator: works in <
Administrator "1..*" - -l "1..*" Employee: registers >
@enduml

PlantUML version 1.2021.5(Sun Apr 25 11:20:28 UTC 2021)
(GPL source distribution)
Java Runtime: Java(TM) SE Runtime Environment
JVM: Java HotSpot(TM) 64-Bit Server VM
Default Encoding: UTF-8
Language: en
Country: US
--></g></svg>