<svg xmlns="http://www.w3.org/2000/svg" xmlns:xlink="http://www.w3.org/1999/xlink" xmlns:lucid="lucid" width="3134.51" height="1642"><g transform="translate(-84.48765432098773 0)" lucid:page-tab-id="0_0"><path d="M0 0h3677.73v2581.67H0z" fill="#fff"/><path d="M239.75 39.75c0 10.9-8.84 19.75-19.75 19.75-10.9 0-19.75-8.84-19.75-19.75C200.25 28.85 209.1 20 220 20c10.9 0 19.75 8.84 19.75 19.75z" stroke="#5e5e5e" stroke-width="3" fill="#fff"/><path d="M220 59.5v49.3c0 3.3 1.44 8.27 3.2 11.07L260 178m-40-63.2L180 178m0-98.75h80" stroke="#5e5e5e" stroke-width="3" fill="none"/><path d="M180 26c0-3.3 2.7-6 6-6h68c3.3 0 6 2.7 6 6v168c0 3.3-2.7 6-6 6h-68c-3.3 0-6-2.7-6-6z" fill="none"/><use xlink:href="#a" transform="matrix(1,0,0,1,100,178) translate(5.9876543209876445 17.77777777777778)"/><use xlink:href="#b" transform="matrix(1,0,0,1,100,178) translate(118.20987654320987 17.77777777777778)"/><path d="M239.25 1459.75c0 10.9-8.84 19.75-19.75 19.75-10.9 0-19.75-8.84-19.75-19.75 0-10.9 8.84-19.75 19.75-19.75 10.9 0 19.75 8.84 19.75 19.75z" stroke="#5e5e5e" stroke-width="3" fill="#fff"/><path d="M219.5 1479.5v49.3c0 3.3 1.44 8.27 3.2 11.07l36.8 58.13m-40-63.2l-40 63.2m0-98.75h80" stroke="#5e5e5e" stroke-width="3" fill="none"/><path d="M179.5 1446c0-3.3 2.7-6 6-6h68c3.3 0 6 2.7 6 6v168c0 3.3-2.7 6-6 6h-68c-3.3 0-6-2.7-6-6z" fill="none"/><use xlink:href="#a" transform="matrix(1,0,0,1,99.50000000000009,1598) translate(5.9876543209876445 17.77777777777778)"/><use xlink:href="#b" transform="matrix(1,0,0,1,99.50000000000009,1598) translate(118.20987654320987 17.77777777777778)"/><path d="M245.44 229.1c0-5.03-4.07-9.1-9.1-9.1H209.1c-5.03 0-9.1 4.07-9.1 9.1v1161.8c0 5.03 4.07 9.1 9.1 9.1h27.25c5.02 0 9.1-4.07 9.1-9.1z" stroke="#5e5e5e" stroke-width="3" fill="#fff"/><path d="M700 180.5c0-.28.22-.5.5-.5s.5.22.5.5v1347.58c0 .28-.22.5-.5.5s-.5-.22-.5-.5z" fill="#fff"/><path d="M701 195.47v6m0 11.97v6m0 11.97v6m0 11.98v6m0 11.96v6m0 11.97v6m0 11.98v6m0 11.97v6m0 11.97v5.98m0 11.98v6m0 11.97v6m0 11.97v6m0 11.97v5.98m0 11.97v6m0 11.97v6m0 11.97v5.98m0 11.98v6m0 11.97v5.98m0 12v5.98m0 11.98v6m0 11.97v6m0 11.97v6m0 11.96v6m0 11.97v6m0 11.97v6m0 11.97v6m0 11.97v5.98m0 11.98v6m0 11.97v6m0 11.97v6m0 11.97v6m0 11.97v6m0 11.97v6m0 11.97v6m0 11.98v6m0 11.97v5.98m0 11.98v6m0 11.98v6m0 11.97v6m0 11.97v6m0 11.96v6m0 11.97v6m0 11.97v6m0 11.97v5.98m0 11.97v6m0 11.97v6m0 11.97v5.98m0 11.98v6m0 11.97v6m0 11.96v5.98m0 11.98v6m0 11.97v6m0 11.97v6m0 11.96v6m0 11.97v6m0 11.97v6m0 11.97v6m0 11.97v6m0 11.96v6m0 11.97v6m0 11.97v6m0 11.97v6m0 11.97v6m0 11.97v6m0 11.97v6m0 11.98v6m0 11.97v6m0 11.96v6m0 11.98v6m0 11.97v6m0 11.97v6m0 11.96v6m0 11.97v6m0 11.97v6m0 11.97v2.98l-.15.36-.35.14-.35-.14-.15-.36v-3m0-11.97v-5.98m0-11.98v-6m0-11.97v-6m0-11.96v-5.98m0-11.98v-6m0-11.97v-6m0-11.97v-6m0-11.96v-6m0-11.97v-6m0-11.97v-6m0-11.97v-6m0-11.97v-6m0-11.96v-6m0-11.97v-6m0-11.97v-6m0-11.97v-6m0-11.97v-6m0-11.97v-6m0-11.97v-6m0-11.98v-6m0-11.97v-6m0-11.96v-6m0-11.98v-6m0-11.97v-6m0-11.97v-6m0-11.96v-6m0-11.97v-6m0-11.97v-6m0-11.97v-5.98m0-11.98v-6m0-11.96v-6m0-11.97v-5.98m0-11.98v-6m0-11.97v-6m0-11.96v-5.98m0-11.98v-6m0-11.97v-6m0-11.97v-6m0-11.97v-5.98m0-11.98v-6m0-11.97v-6m0-11.97v-6m0-11.97v-6m0-11.96v-6m0-11.97v-6m0-11.97v-6m0-11.97v-6m0-11.98v-5.98m0-11.98v-6m0-11.97v-6m0-11.98v-6m0-11.97v-6m0-11.96v-6m0-11.98v-6m0-11.97v-6m0-11.97v-6m0-11.97v-5.97m0-11.98v-6m0-11.97v-6m0-11.97v-5.98m0-11.98v-6m0-11.96v-6m0-11.97v-5.98m0-11.98v-6m0-11.97v-6m0-11.97v-5.98m0-11.98v-6m0-11.97v-6m0-11.97v-6m0-11.97v-6m0-11.96v-6m0-11.97v-6m0-11.97v-6m0-11.97v-6m0-11.97v-3l.15-.35.35-.15.35.15.15.35v3" stroke="#5e5e5e" stroke-width="3" fill="none"/><path d="M616 1500c-8.84 0-16 7.16-16 16v48c0 8.84 7.16 16 16 16h168c8.84 0 16-7.16 16-16v-48c0-8.84-7.16-16-16-16z" stroke="#5e5e5e" stroke-width="3" fill="#fff"/><use xlink:href="#c" transform="matrix(1,0,0,1,608,1508) translate(14.376543209876544 36.44444444444444)"/><path d="M616.5 120c-8.84 0-16 7.16-16 16v48c0 8.84 7.16 16 16 16h168c8.84 0 16-7.16 16-16v-48c0-8.84-7.16-16-16-16z" stroke="#5e5e5e" stroke-width="3" fill="#fff"/><use xlink:href="#c" transform="matrix(1,0,0,1,608.5,128) translate(14.376543209876544 36.44444444444444)"/><path d="M1375 1500c-8.84 0-16 7.16-16 16v48c0 8.84 7.16 16 16 16h248c8.84 0 16-7.16 16-16v-48c0-8.84-7.16-16-16-16z" stroke="#5e5e5e" stroke-width="3" fill="#fff"/><use xlink:href="#d" transform="matrix(1,0,0,1,1367,1508) translate(17.462962962963005 36.44444444444444)"/><path d="M2196 1500c-8.84 0-16 7.16-16 16v48c0 8.84 7.16 16 16 16h168c8.84 0 16-7.16 16-16v-48c0-8.84-7.16-16-16-16z" stroke="#5e5e5e" stroke-width="3" fill="#fff"/><use xlink:href="#e" transform="matrix(1,0,0,1,2188,1508) translate(44.53086419753086 36.44444444444444)"/><path d="M2975 1500c-8.84 0-16 7.16-16 16v48c0 8.84 7.16 16 16 16h208c8.84 0 16-7.16 16-16v-48c0-8.84-7.16-16-16-16z" stroke="#5e5e5e" stroke-width="3" fill="#fff"/><use xlink:href="#f" transform="matrix(1,0,0,1,2967,1508) translate(19.444444444444457 36.44444444444444)"/><path d="M2297.5 160.5c0-.28.22-.5.5-.5s.5.22.5.5v1347.58c0 .28-.22.5-.5.5s-.5-.22-.5-.5z" fill="#fff"/><path d="M2298.5 175.47v6m0 11.97v6m0 11.97v6m0 11.98v6m0 11.96v6m0 11.97v6m0 11.98v6m0 11.97v6m0 11.97v5.98m0 11.98v6m0 11.97v6m0 11.97v6m0 11.97v5.98m0 11.97v6m0 11.97v6m0 11.97v5.98m0 11.98v6m0 11.97v5.98m0 12v5.98m0 11.98v6m0 11.97v6m0 11.97v6m0 11.96v6m0 11.97v6m0 11.97v6m0 11.97v6m0 11.97v5.98m0 11.98v6m0 11.97v6m0 11.97v6m0 11.97v6m0 11.97v6m0 11.97v6m0 11.97v6m0 11.98v6m0 11.97v5.98m0 11.98v6m0 11.98v6m0 11.97v6m0 11.97v6m0 11.96v6m0 11.97v6m0 11.97v6m0 11.97v5.98m0 11.97v6m0 11.97v6m0 11.97v5.98m0 11.98v6m0 11.97v6m0 11.96v5.98m0 11.98v6m0 11.97v6m0 11.97v6m0 11.96v6m0 11.97v6m0 11.97v6m0 11.97v6m0 11.97v6m0 11.96v6m0 11.97v6m0 11.97v6m0 11.97v6m0 11.97v6m0 11.97v6m0 11.97v6m0 11.98v6m0 11.97v6m0 11.96v6m0 11.98v6m0 11.97v6m0 11.97v6m0 11.96v6m0 11.97v6m0 11.97v6m0 11.97v2.98l-.15.36-.35.14-.35-.14-.15-.36v-3m0-11.97v-5.98m0-11.98v-6m0-11.97v-6m0-11.96v-5.98m0-11.98v-6m0-11.97v-6m0-11.97v-6m0-11.96v-6m0-11.97v-6m0-11.97v-6m0-11.97v-6m0-11.97v-6m0-11.96v-6m0-11.97v-6m0-11.97v-6m0-11.97v-6m0-11.97v-6m0-11.97v-6m0-11.97v-6m0-11.98v-6m0-11.97v-6m0-11.96v-6m0-11.98v-6m0-11.97v-6m0-11.97v-6m0-11.96v-6m0-11.97v-6m0-11.97v-6m0-11.97v-5.98m0-11.98v-6m0-11.96v-6m0-11.97v-5.98m0-11.98v-6m0-11.97v-6m0-11.96v-5.98m0-11.98v-6m0-11.97v-6m0-11.97v-6m0-11.97v-5.98m0-11.98v-6m0-11.97v-6m0-11.97v-6m0-11.97v-6m0-11.96v-6m0-11.97v-6m0-11.97v-6m0-11.97v-6m0-11.98v-5.98m0-11.98v-6m0-11.97v-6m0-11.98v-6m0-11.97v-6m0-11.96v-6m0-11.98v-6m0-11.97v-6m0-11.97v-6m0-11.97v-5.97m0-11.98v-6m0-11.97v-6m0-11.97v-5.98m0-11.98v-6m0-11.96v-6m0-11.97v-5.98m0-11.98v-6m0-11.97v-6m0-11.97v-5.98m0-11.98v-6m0-11.97v-6m0-11.97v-6m0-11.97v-6m0-11.96v-6m0-11.97v-6m0-11.97v-6m0-11.97v-6m0-11.97v-3l.15-.35.35-.15.35.15.15.35v3" stroke="#5e5e5e" stroke-width="3" fill="none"/><path d="M1498.5 200.5c0-.28.22-.5.5-.5s.5.22.5.5v1316.2c0 .28-.22.5-.5.5s-.5-.22-.5-.5z" fill="#fff"/><path d="M1499.5 215.53v6m0 12.03v6m0 12.03v6m0 12.02v6m0 12.03v6m0 12.03v6m0 12.03v6.02m0 12.02v6m0 12.03v6m0 12.03v6m0 12.03v6m0 12.03v6m0 12.03v6m0 12.02v6m0 12.03v6m0 12.03v6m0 12.03v6.02m0 12.02v6m0 12.03v6m0 12.03v6m0 12.03v6m0 12.03v6m0 12.03v6m0 12.02v6m0 12.03v6m0 12.03v6m0 12.03v6.02m0 12.02v6m0 12.03v6m0 12.03v6m0 12.03v6m0 12.03v6m0 12.03v6m0 12.02v6m0 12.03v6m0 12.03v6m0 12.03v6.02m0 12.02v6m0 12.03v6m0 12.03v6m0 12.03v6m0 12.04v6m0 12.03v6m0 12.03v6m0 12.03v6m0 12.03v6m0 12.02v6m0 12.03v6m0 12.03v6m0 12.03v6.02m0 12.02v6m0 12.03v6m0 12.03v6m0 12.03v6m0 12.03v6m0 12.03v6m0 12.02v6m0 12.03v6m0 12.03v6m0 12.03v6.02m0 12.02v6m0 12.03v6m0 12.03v6m0 12.03v6m0 12.03v6m0 12.03v6m0 12.02v6m0 12.03v6m0 12.03v6m0 12.03v6.02m0 12.02v6m0 12.03v6m0 12.03v3l-.15.36-.35.15-.35-.14-.15-.35v-3m0-12.02v-6m0-12.03v-6m0-12.03v-6m0-12.03v-6.02m0-12.02v-6m0-12.03v-6m0-12.03v-6m0-12.03v-6m0-12.03v-6m0-12.03v-6m0-12.02v-6m0-12.03v-6m0-12.03v-6m0-12.03v-6.02m0-12.02v-6m0-12.03v-6m0-12.03v-6m0-12.03v-6m0-12.03v-6m0-12.03v-6m0-12.02v-6m0-12.03v-6m0-12.03v-6m0-12.03v-6.02m0-12.02v-6m0-12.03v-6m0-12.03v-6m0-12.03v-6m0-12.03v-6m0-12.03v-6m0-12.02v-6m0-12.04v-6m0-12.03v-6m0-12.02v-6m0-12.03v-6m0-12.03v-6m0-12.03v-6.02m0-12.02v-6m0-12.03v-6m0-12.03v-6m0-12.03v-6m0-12.03v-6m0-12.03v-6m0-12.02v-6m0-12.03v-6m0-12.03v-6m0-12.03v-6.02m0-12.02v-6m0-12.03v-6m0-12.03v-6m0-12.03v-6m0-12.03v-6m0-12.03v-6m0-12.02v-6m0-12.03v-6m0-12.03v-6m0-12.03v-6.02m0-12.02v-6m0-12.03v-6m0-12.03v-6m0-12.03v-6m0-12.03v-6m0-12.03v-6m0-12.02v-6m0-12.03v-6m0-12.03v-6m0-12.03v-6.02m0-12.02v-6m0-12.03v-6m0-12.03v-6m0-12.03v-6m0-12.03v-6m0-12.03v-3l.15-.35.35-.15.35.15.15.35v3" stroke="#5e5e5e" stroke-width="3" fill="none"/><path d="M2215.5 120c-8.84 0-16 7.16-16 16v48c0 8.84 7.16 16 16 16h168c8.84 0 16-7.16 16-16v-48c0-8.84-7.16-16-16-16z" stroke="#5e5e5e" stroke-width="3" fill="#fff"/><use xlink:href="#e" transform="matrix(1,0,0,1,2207.5,128) translate(44.53086419753086 36.44444444444444)"/><path d="M1376 120c-8.84 0-16 7.16-16 16v48c0 8.84 7.16 16 16 16h248c8.84 0 16-7.16 16-16v-48c0-8.84-7.16-16-16-16z" stroke="#5e5e5e" stroke-width="3" fill="#fff"/><use xlink:href="#d" transform="matrix(1,0,0,1,1368,128) translate(17.462962962963005 36.44444444444444)"/><path d="M3080 180.5c0-.28.22-.5.5-.5s.5.22.5.5v1347.58c0 .28-.22.5-.5.5s-.5-.22-.5-.5z" fill="#fff"/><path d="M3081 195.47v6m0 11.97v6m0 11.97v6m0 11.98v6m0 11.96v6m0 11.97v6m0 11.98v6m0 11.97v6m0 11.97v5.98m0 11.98v6m0 11.97v6m0 11.97v6m0 11.97v5.98m0 11.97v6m0 11.97v6m0 11.97v5.98m0 11.98v6m0 11.97v5.98m0 12v5.98m0 11.98v6m0 11.97v6m0 11.97v6m0 11.96v6m0 11.97v6m0 11.97v6m0 11.97v6m0 11.97v5.98m0 11.98v6m0 11.97v6m0 11.97v6m0 11.97v6m0 11.97v6m0 11.97v6m0 11.97v6m0 11.98v6m0 11.97v5.98m0 11.98v6m0 11.98v6m0 11.97v6m0 11.97v6m0 11.96v6m0 11.97v6m0 11.97v6m0 11.97v5.98m0 11.97v6m0 11.97v6m0 11.97v5.98m0 11.98v6m0 11.97v6m0 11.96v5.98m0 11.98v6m0 11.97v6m0 11.97v6m0 11.96v6m0 11.97v6m0 11.97v6m0 11.97v6m0 11.97v6m0 11.96v6m0 11.97v6m0 11.97v6m0 11.97v6m0 11.97v6m0 11.97v6m0 11.97v6m0 11.98v6m0 11.97v6m0 11.96v6m0 11.98v6m0 11.97v6m0 11.97v6m0 11.96v6m0 11.97v6m0 11.97v6m0 11.97v2.98l-.15.36-.35.14-.35-.14-.15-.36v-3m0-11.97v-5.98m0-11.98v-6m0-11.97v-6m0-11.96v-5.98m0-11.98v-6m0-11.97v-6m0-11.97v-6m0-11.96v-6m0-11.97v-6m0-11.97v-6m0-11.97v-6m0-11.97v-6m0-11.96v-6m0-11.97v-6m0-11.97v-6m0-11.97v-6m0-11.97v-6m0-11.97v-6m0-11.97v-6m0-11.98v-6m0-11.97v-6m0-11.96v-6m0-11.98v-6m0-11.97v-6m0-11.97v-6m0-11.96v-6m0-11.97v-6m0-11.97v-6m0-11.97v-5.98m0-11.98v-6m0-11.96v-6m0-11.97v-5.98m0-11.98v-6m0-11.97v-6m0-11.96v-5.98m0-11.98v-6m0-11.97v-6m0-11.97v-6m0-11.97v-5.98m0-11.98v-6m0-11.97v-6m0-11.97v-6m0-11.97v-6m0-11.96v-6m0-11.97v-6m0-11.97v-6m0-11.97v-6m0-11.98v-5.98m0-11.98v-6m0-11.97v-6m0-11.98v-6m0-11.97v-6m0-11.96v-6m0-11.98v-6m0-11.97v-6m0-11.97v-6m0-11.97v-5.97m0-11.98v-6m0-11.97v-6m0-11.97v-5.98m0-11.98v-6m0-11.96v-6m0-11.97v-5.98m0-11.98v-6m0-11.97v-6m0-11.97v-5.98m0-11.98v-6m0-11.97v-6m0-11.97v-6m0-11.97v-6m0-11.96v-6m0-11.97v-6m0-11.97v-6m0-11.97v-6m0-11.97v-3l.15-.35.35-.15.35.15.15.35v3" stroke="#5e5e5e" stroke-width="3" fill="none"/><path d="M2975 120c-8.84 0-16 7.16-16 16v48c0 8.84 7.16 16 16 16h208c8.84 0 16-7.16 16-16v-48c0-8.84-7.16-16-16-16z" stroke="#5e5e5e" stroke-width="3" fill="#fff"/><use xlink:href="#f" transform="matrix(1,0,0,1,2967,128) translate(19.444444444444457 36.44444444444444)"/><path d="M720.5 268.63c0-4.42-3.58-8-8-8h-24c-4.42 0-8 3.58-8 8v192c0 4.4 3.58 8 8 8h24c4.42 0 8-3.6 8-8z" stroke="#5e5e5e" stroke-width="3" fill="#fff"/><path d="M247.94 283.75h214.5c.3 0 .53-.24.53-.54 0-.3.24-.53.54-.53h197" stroke="#5e5e5e" stroke-width="2" fill="none"/><path d="M247.96 284.75h-1.02v-2h1.02z" fill="#5e5e5e"/><path d="M675.76 282.67l-14.26 4.63v-9.27z" stroke="#5e5e5e" stroke-width="2" fill="#5e5e5e"/><path d="M678 438.9h-2.93m-3.9 0h-5.88m-3.92 0h-5.86m-3.9 0h-5.87m-3.9 0h-5.88m-3.9 0h-5.87m-3.9 0h-5.88m-3.9 0h-5.87m-3.9 0h-5.88m-3.9 0h-5.87m-3.9 0h-5.87m-3.9 0h-5.88m-3.9 0h-5.87m-3.9 0H548m-3.9 0h-5.87m-3.9 0h-5.87m-3.9 0h-5.88m-3.9 0h-5.87m-3.9 0h-5.87m-3.9 0h-5.87m-3.9 0h-5.88m-3.9 0h-5.87m-3.9 0H460m-3.94 0h-5.93m-3.95 0h-5.93m-3.95 0h-5.92m-3.95 0h-5.93m-3.95 0h-5.93m-3.95 0h-5.92m-3.95 0h-5.93m-3.95 0H381m-3.96 0h-5.92m-3.95 0h-5.93m-3.95 0h-5.93m-3.96 0h-5.9m-3.96 0h-5.93m-3.94 0h-5.92m-3.95 0h-5.94m-3.95 0H302m-3.95 0h-5.92m-3.94 0h-5.93m-3.95 0h-5.93m-3.95 0h-2.96" stroke="#5e5e5e" stroke-width="2" fill="none"/><path d="M679 439.9h-1.03v-2H679z" fill="#5e5e5e"/><path d="M250.17 438.9l14.27-4.62v9.27z" stroke="#5e5e5e" stroke-width="2" fill="#5e5e5e"/><path d="M259.5 226c0-3.3 2.7-6 6-6H694c3.3 0 6 2.7 6 6v45.5c0 3.3-2.7 6-6 6H265.5c-3.3 0-6-2.7-6-6z" stroke="#000" stroke-opacity="0" stroke-width="3" fill="#fff" fill-opacity="0"/><use xlink:href="#g" transform="matrix(1,0,0,1,264.5000000000001,225.00000000000045) translate(0 29.77777777777778)"/><use xlink:href="#h" transform="matrix(1,0,0,1,264.5000000000001,225.00000000000045) translate(22.22222222222222 29.77777777777778)"/><use xlink:href="#i" transform="matrix(1,0,0,1,264.5000000000001,225.00000000000045) translate(86.35802469135803 29.77777777777778)"/><use xlink:href="#j" transform="matrix(1,0,0,1,264.5000000000001,225.00000000000045) translate(186.23456790123458 29.77777777777778)"/><use xlink:href="#k" transform="matrix(1,0,0,1,264.5000000000001,225.00000000000045) translate(223.27160493827162 29.77777777777778)"/><use xlink:href="#l" transform="matrix(1,0,0,1,264.5000000000001,225.00000000000045) translate(294.69135802469134 29.77777777777778)"/><path d="M245.44 409.95c0-3.32 2.68-6 6-6h417.62c3.32 0 6 2.68 6 6v11.77c0 3.3-2.68 6-6 6H251.44c-3.32 0-6-2.7-6-6z" stroke="#000" stroke-opacity="0" stroke-width="3" fill="#fff" fill-opacity="0"/><use xlink:href="#m" transform="matrix(1,0,0,1,250.43750000000014,408.94807341945864) translate(19.47530864197529 17.77777777777778)"/><use xlink:href="#n" transform="matrix(1,0,0,1,250.43750000000014,408.94807341945864) translate(44.16666666666664 17.77777777777778)"/><use xlink:href="#o" transform="matrix(1,0,0,1,250.43750000000014,408.94807341945864) translate(98.48765432098764 17.77777777777778)"/><use xlink:href="#p" transform="matrix(1,0,0,1,250.43750000000014,408.94807341945864) translate(130.52469135802468 17.77777777777778)"/><use xlink:href="#q" transform="matrix(1,0,0,1,250.43750000000014,408.94807341945864) translate(149.0432098765432 17.77777777777778)"/><use xlink:href="#r" transform="matrix(1,0,0,1,250.43750000000014,408.94807341945864) translate(226.6358024691358 17.77777777777778)"/><use xlink:href="#s" transform="matrix(1,0,0,1,250.43750000000014,408.94807341945864) translate(251.32716049382717 17.77777777777778)"/><use xlink:href="#t" transform="matrix(1,0,0,1,250.43750000000014,408.94807341945864) translate(299.35185185185185 17.77777777777778)"/><use xlink:href="#u" transform="matrix(1,0,0,1,250.43750000000014,408.94807341945864) translate(324.0432098765432 17.77777777777778)"/><path d="M720.5 579.75c0-4.42-3.58-8-8-8h-24c-4.42 0-8 3.58-8 8V712c0 4.42 3.58 8 8 8h24c4.42 0 8-3.58 8-8z" stroke="#5e5e5e" stroke-width="3" fill="#fff"/><path d="M247.94 581.9H660.5" stroke="#5e5e5e" stroke-width="2" fill="none"/><path d="M247.96 582.9h-1.02v-2h1.02z" fill="#5e5e5e"/><path d="M675.76 581.9l-14.26 4.64v-9.27z" stroke="#5e5e5e" stroke-width="2" fill="#5e5e5e"/><path d="M235.06 537.7c0-3.3 2.7-6 6-6h441.7c3.3 0 6 2.7 6 6v35.88c0 3.32-2.7 6-6 6h-441.7c-3.3 0-6-2.68-6-6z" stroke="#000" stroke-opacity="0" stroke-width="3" fill="#fff" fill-opacity="0"/><use xlink:href="#v" transform="matrix(1,0,0,1,240.0625,536.7083333333334) translate(7.370370370370381 22.52777777777778)"/><use xlink:href="#w" transform="matrix(1,0,0,1,240.0625,536.7083333333334) translate(32.061728395061735 22.52777777777778)"/><use xlink:href="#x" transform="matrix(1,0,0,1,240.0625,536.7083333333334) translate(141.87654320987656 22.52777777777778)"/><use xlink:href="#y" transform="matrix(1,0,0,1,240.0625,536.7083333333334) translate(182.55555555555557 22.52777777777778)"/><use xlink:href="#t" transform="matrix(1,0,0,1,240.0625,536.7083333333334) translate(243.0493827160494 22.52777777777778)"/><use xlink:href="#z" transform="matrix(1,0,0,1,240.0625,536.7083333333334) translate(267.74074074074076 22.52777777777778)"/><use xlink:href="#j" transform="matrix(1,0,0,1,240.0625,536.7083333333334) translate(328.17283950617286 22.52777777777778)"/><use xlink:href="#A" transform="matrix(1,0,0,1,240.0625,536.7083333333334) translate(365.2098765432099 22.52777777777778)"/><path d="M1519 559.88c0-4.3-3.5-7.8-7.8-7.8h-23.4c-4.3 0-7.8 3.5-7.8 7.8V692.2c0 4.3 3.5 7.8 7.8 7.8h23.4c4.3 0 7.8-3.5 7.8-7.8z" stroke="#5e5e5e" stroke-width="3" fill="#fff"/><path d="M723 594.7h737" stroke="#5e5e5e" stroke-width="2" fill="none"/><path d="M723.03 595.7H722v-2h1.03z" fill="#5e5e5e"/><path d="M1475.26 594.7l-14.26 4.63v-9.27z" stroke="#5e5e5e" stroke-width="2" fill="#5e5e5e"/><path d="M879.75 558.08c0-3.3 2.7-6 6-6h428c3.3 0 6 2.7 6 6v15.5c0 3.32-2.7 6-6 6h-428c-3.3 0-6-2.68-6-6z" stroke="#000" stroke-opacity="0" stroke-width="3" fill="#fff" fill-opacity="0"/><use xlink:href="#B" transform="matrix(1,0,0,1,884.7500000000002,557.0833333333333) translate(112.71604938271608 17.77777777777778)"/><path d="M720.5 785.58c0-4.4-3.58-8-8-8h-24c-4.42 0-8 3.6-8 8V912c0 4.42 3.58 8 8 8h24c4.42 0 8-3.58 8-8z" stroke="#5e5e5e" stroke-width="3" fill="#fff"/><path d="M723 799.62h739.72" stroke="#5e5e5e" stroke-width="2" fill="none"/><path d="M723.03 800.62H722v-2h1.03z" fill="#5e5e5e"/><path d="M1477.98 799.62l-14.26 4.64V795z" stroke="#5e5e5e" stroke-width="2" fill="#5e5e5e"/><path d="M1522.72 785.58c0-4.4-3.58-8-8-8h-24c-4.42 0-8 3.6-8 8V912c0 4.42 3.58 8 8 8h24c4.42 0 8-3.58 8-8z" stroke="#5e5e5e" stroke-width="3" fill="#fff"/><path d="M759.75 766c0-3.3 2.7-6 6-6h668c3.3 0 6 2.7 6 6v23.96c0 3.3-2.7 6-6 6h-668c-3.3 0-6-2.7-6-6z" stroke="#000" stroke-opacity="0" stroke-width="3" fill="#fff" fill-opacity="0"/><use xlink:href="#C" transform="matrix(1,0,0,1,764.7500000000001,765) translate(237.03703703703704 19.40277777777778)"/><use xlink:href="#D" transform="matrix(1,0,0,1,764.7500000000001,765) translate(261.7283950617284 19.40277777777778)"/><path d="M3102 790.22c0-4.53-3.67-8.2-8.2-8.2h-24.6c-4.53 0-8.2 3.67-8.2 8.2V911.8c0 4.53 3.67 8.2 8.2 8.2h24.6c4.53 0 8.2-3.67 8.2-8.2z" stroke="#5e5e5e" stroke-width="3" fill="#fff"/><path d="M1480.22 891.85H740.5" stroke="#5e5e5e" stroke-width="2" fill="none"/><path d="M1481.22 892.85h-1.03v-2h1.02z" fill="#5e5e5e"/><path d="M725.24 891.85l14.26-4.63v9.27z" stroke="#5e5e5e" stroke-width="2" fill="#5e5e5e"/><path d="M885.63 831.56c0-3.3 2.68-6 6-6h436.75c3.3 0 6 2.7 6 6v51.34c0 3.3-2.7 6-6 6H891.6c-3.3 0-6-2.7-6-6z" stroke="#000" stroke-opacity="0" stroke-width="3" fill="#fff" fill-opacity="0"/><use xlink:href="#E" transform="matrix(1,0,0,1,890.625,830.5623359580055) translate(5.518518518518533 17.77777777777778)"/><use xlink:href="#F" transform="matrix(1,0,0,1,890.625,830.5623359580055) translate(30.20987654320989 17.77777777777778)"/><use xlink:href="#j" transform="matrix(1,0,0,1,890.625,830.5623359580055) translate(83.29629629629632 17.77777777777778)"/><use xlink:href="#G" transform="matrix(1,0,0,1,890.625,830.5623359580055) translate(120.33333333333336 17.77777777777778)"/><use xlink:href="#H" transform="matrix(1,0,0,1,890.625,830.5623359580055) translate(173.41975308641977 17.77777777777778)"/><use xlink:href="#j" transform="matrix(1,0,0,1,890.625,830.5623359580055) translate(218.97530864197535 17.77777777777778)"/><use xlink:href="#I" transform="matrix(1,0,0,1,890.625,830.5623359580055) translate(256.01234567901236 17.77777777777778)"/><use xlink:href="#J" transform="matrix(1,0,0,1,890.625,830.5623359580055) translate(307.74074074074076 17.77777777777778)"/><use xlink:href="#K" transform="matrix(1,0,0,1,890.625,830.5623359580055) translate(379.22222222222223 17.77777777777778)"/><use xlink:href="#L" transform="matrix(1,0,0,1,890.625,830.5623359580055) translate(402.61728395061726 17.77777777777778)"/><use xlink:href="#s" transform="matrix(1,0,0,1,890.625,830.5623359580055) translate(143.69753086419752 44.44444444444444)"/><use xlink:href="#M" transform="matrix(1,0,0,1,890.625,830.5623359580055) translate(191.7222222222222 44.44444444444444)"/><path d="M1525.22 805.92h766.08c.3 0 .56.25.56.55 0 .3.25.56.56.56H3041" stroke="#5e5e5e" stroke-width="2" fill="none"/><path d="M1525.24 806.92h-1.02v-2h1.02z" fill="#5e5e5e"/><path d="M3056.26 807.03l-14.26 4.64v-9.27z" stroke="#5e5e5e" stroke-width="2" fill="#5e5e5e"/><path d="M1521.5 598.8H3040" stroke="#5e5e5e" stroke-width="2" fill="none"/><path d="M1521.53 599.8h-1.03v-2h1.03z" fill="#5e5e5e"/><path d="M3055.26 598.8l-14.26 4.64v-9.27z" stroke="#5e5e5e" stroke-width="2" fill="#5e5e5e"/><path d="M3101 559.95c0-4.53-3.67-8.2-8.2-8.2h-24.6c-4.53 0-8.2 3.67-8.2 8.2v91.85c0 4.53 3.67 8.2 8.2 8.2h24.6c4.53 0 8.2-3.67 8.2-8.2z" stroke="#5e5e5e" stroke-width="3" fill="#fff"/><path d="M2170 546c0-3.3 2.7-6 6-6h228c3.3 0 6 2.7 6 6v48c0 3.3-2.7 6-6 6h-228c-3.3 0-6-2.7-6-6z" stroke="#000" stroke-opacity="0" stroke-width="3" fill="#fff" fill-opacity="0"/><use xlink:href="#N" transform="matrix(1,0,0,1,2175,545) translate(16.388888888888914 30.27777777777778)"/><path d="M1478.33 696.05H740.5" stroke="#5e5e5e" stroke-width="2" fill="none"/><path d="M1479.24 695.9l.8 1.15h-1.73v-2h.76z" fill="#5e5e5e"/><path d="M725.24 696.05l14.26-4.64v9.28z" stroke="#5e5e5e" stroke-width="2" fill="#5e5e5e"/><path d="M900 637.24c0-3.3 2.7-6 6-6h408c3.3 0 6 2.7 6 6v48.35c0 3.3-2.7 6-6 6H906c-3.3 0-6-2.7-6-6z" stroke="#000" stroke-opacity="0" stroke-width="3" fill="#fff" fill-opacity="0"/><use xlink:href="#O" transform="matrix(1,0,0,1,905,636.2401574803148) translate(13.209876543209873 20.96527777777778)"/><use xlink:href="#F" transform="matrix(1,0,0,1,905,636.2401574803148) translate(37.90123456790123 20.96527777777778)"/><use xlink:href="#j" transform="matrix(1,0,0,1,905,636.2401574803148) translate(90.98765432098766 20.96527777777778)"/><use xlink:href="#P" transform="matrix(1,0,0,1,905,636.2401574803148) translate(128.0246913580247 20.96527777777778)"/><use xlink:href="#G" transform="matrix(1,0,0,1,905,636.2401574803148) translate(241.41975308641977 20.96527777777778)"/><use xlink:href="#K" transform="matrix(1,0,0,1,905,636.2401574803148) translate(294.5061728395062 20.96527777777778)"/><use xlink:href="#j" transform="matrix(1,0,0,1,905,636.2401574803148) translate(317.9012345679012 20.96527777777778)"/><use xlink:href="#Q" transform="matrix(1,0,0,1,905,636.2401574803148) translate(354.9382716049383 20.96527777777778)"/><use xlink:href="#M" transform="matrix(1,0,0,1,905,636.2401574803148) translate(153.20987654320987 47.63194444444444)"/><path d="M2170 771.56c0-3.3 2.7-6 6-6h228c3.3 0 6 2.7 6 6v48c0 3.32-2.7 6-6 6h-228c-3.3 0-6-2.68-6-6z" stroke="#000" stroke-opacity="0" stroke-width="3" fill="#fff" fill-opacity="0"/><g><use xlink:href="#R" transform="matrix(1,0,0,1,2175,770.5623359580055) translate(-2.4999999999999716 29.444444444444443)"/></g><g><path d="M720.5 968c0-4.42-3.58-8-8-8h-24c-4.42 0-8 3.58-8 8v126.42c0 4.4 3.58 8 8 8h24c4.42 0 8-3.6 8-8z" stroke="#5e5e5e" stroke-width="3" fill="#fff"/></g><path d="M723 982.85h111c3.3 0 6 2.7 6 6v82.5c0 3.33-2.7 6-6 6h-93.5" stroke="#5e5e5e" stroke-width="2" fill="none"/><path d="M723.03 983.85H722v-2h1.03z" fill="#5e5e5e"/><path d="M725.24 1077.36l14.26-4.63v9.27z" stroke="#5e5e5e" stroke-width="2" fill="#5e5e5e"/><path d="M828 1005.54c0-3.3 2.7-6 6-6h647.5c3.3 0 6 2.7 6 6v51.34c0 3.3-2.7 6-6 6H834c-3.3 0-6-2.7-6-6z" stroke="#000" stroke-opacity="0" stroke-width="3" fill="#fff" fill-opacity="0"/><g><use xlink:href="#S" transform="matrix(1,0,0,1,833,1004.5416666666666) translate(19.13580246913574 17.77777777777778)"/><use xlink:href="#j" transform="matrix(1,0,0,1,833,1004.5416666666666) translate(149.93827160493822 17.77777777777778)"/><use xlink:href="#T" transform="matrix(1,0,0,1,833,1004.5416666666666) translate(186.97530864197526 17.77777777777778)"/><use xlink:href="#G" transform="matrix(1,0,0,1,833,1004.5416666666666) translate(291.72839506172835 17.77777777777778)"/><use xlink:href="#U" transform="matrix(1,0,0,1,833,1004.5416666666666) translate(344.8148148148148 17.77777777777778)"/><use xlink:href="#j" transform="matrix(1,0,0,1,833,1004.5416666666666) translate(388.02469135802465 17.77777777777778)"/><use xlink:href="#V" transform="matrix(1,0,0,1,833,1004.5416666666666) translate(425.0617283950617 17.77777777777778)"/><use xlink:href="#H" transform="matrix(1,0,0,1,833,1004.5416666666666) translate(479.38271604938274 17.77777777777778)"/><use xlink:href="#I" transform="matrix(1,0,0,1,833,1004.5416666666666) translate(524.9382716049383 17.77777777777778)"/><use xlink:href="#W" transform="matrix(1,0,0,1,833,1004.5416666666666) translate(576.6666666666667 17.77777777777778)"/><use xlink:href="#X" transform="matrix(1,0,0,1,833,1004.5416666666666) translate(251.6358024691358 44.44444444444444)"/><use xlink:href="#Y" transform="matrix(1,0,0,1,833,1004.5416666666666) translate(312.0679012345679 44.44444444444444)"/><use xlink:href="#Z" transform="matrix(1,0,0,1,833,1004.5416666666666) translate(353.98148148148147 44.44444444444444)"/></g><g><path d="M679.88 1230.9c0 5.03 4.06 9.1 9.08 9.1h27.27c5 0 9.08-4.07 9.08-9.1v-61.8c0-5.03-4.06-9.1-9.07-9.1h-27.27c-5.02 0-9.08 4.07-9.08 9.1z" stroke="#5e5e5e" stroke-width="3" fill="#fff"/></g><path d="M727.8 1175.32H1460" stroke="#5e5e5e" stroke-width="2" fill="none"/><path d="M727.84 1176.32h-1.03v-2h1.04z" fill="#5e5e5e"/><path d="M1475.26 1175.3l-14.26 4.65v-9.27z" stroke="#5e5e5e" stroke-width="2" fill="#5e5e5e"/><g><path d="M1480 1230.9c0 5.03 4.07 9.1 9.1 9.1h27.25c5.02 0 9.1-4.07 9.1-9.1v-61.8c0-5.03-4.08-9.1-9.1-9.1h-27.26c-5.03 0-9.1 4.07-9.1 9.1z" stroke="#5e5e5e" stroke-width="3" fill="#fff"/></g><path d="M900 1146c0-3.3 2.7-6 6-6h408.25c3.3 0 6 2.7 6 6v8c0 3.3-2.7 6-6 6H906c-3.3 0-6-2.7-6-6z" stroke="#000" stroke-opacity="0" stroke-width="3" fill="#fff" fill-opacity="0"/><g><use xlink:href="#aa" transform="matrix(1,0,0,1,905,1145) translate(23.33950617283955 17.77777777777778)"/><use xlink:href="#ab" transform="matrix(1,0,0,1,905,1145) translate(60.37654320987659 17.77777777777778)"/></g><path d="M678.05 1094.83h-2.93m-3.9 0h-5.88m-3.9 0h-5.87m-3.9 0h-5.88m-3.92 0h-5.86m-3.9 0h-5.88m-3.9 0h-5.87m-3.9 0h-5.88m-3.92 0h-5.86m-3.9 0h-5.88m-3.9 0h-5.87m-3.9 0h-5.88m-3.92 0h-5.86m-3.9 0h-5.88m-3.9 0h-5.87m-3.9 0h-5.88m-3.92 0h-5.87m-3.9 0h-5.86m-3.9 0h-5.88m-3.9 0h-5.87m-3.92 0h-5.87m-3.9 0h-5.86m-3.9 0h-5.91m-3.95 0h-5.93m-3.95 0h-5.92m-3.95 0h-5.93m-3.95 0h-5.93m-3.95 0h-5.93m-3.95 0h-5.93m-3.96 0h-5.9m-3.96 0H381m-3.94 0h-5.93m-3.95 0h-5.93m-3.95 0h-5.92m-3.95 0h-5.93m-3.95 0h-5.93m-3.95 0h-5.93m-3.95 0h-5.93m-3.96 0H302m-3.96 0h-5.93m-3.94 0h-5.93m-3.95 0h-5.93m-3.95 0h-2.96" stroke="#5e5e5e" stroke-width="2" fill="none"/><path d="M679 1094.57l.25 1.26h-1.22v-2h.97z" fill="#5e5e5e"/><path d="M250.17 1094.83l14.27-4.64v9.26z" stroke="#5e5e5e" stroke-width="2" fill="#5e5e5e"/><path d="M241 1068.88c0-3.32 2.7-6 6-6h448c3.3 0 6 2.68 6 6v28.45c0 3.32-2.7 6-6 6H247c-3.3 0-6-2.68-6-6z" stroke="#000" stroke-opacity="0" stroke-width="3" fill="#fff" fill-opacity="0"/><g><use xlink:href="#ac" transform="matrix(1,0,0,1,246,1067.875) translate(27.87037037037038 19.71527777777778)"/><use xlink:href="#ad" transform="matrix(1,0,0,1,246,1067.875) translate(63.24074074074075 19.71527777777778)"/><use xlink:href="#j" transform="matrix(1,0,0,1,246,1067.875) translate(136.01851851851853 19.71527777777778)"/><use xlink:href="#ae" transform="matrix(1,0,0,1,246,1067.875) translate(173.05555555555554 19.71527777777778)"/><use xlink:href="#H" transform="matrix(1,0,0,1,246,1067.875) translate(251.94444444444443 19.71527777777778)"/><use xlink:href="#af" transform="matrix(1,0,0,1,246,1067.875) translate(297.5 19.71527777777778)"/><use xlink:href="#ag" transform="matrix(1,0,0,1,246,1067.875) translate(357.9938271604938 19.71527777777778)"/></g><g><path d="M675.06 1389.95c0 5.55 4.5 10.05 10.05 10.05h30.16c5.55 0 10.05-4.5 10.05-10.05v-79.9c0-5.55-4.5-10.05-10.04-10.05H685.1c-5.54 0-10.04 4.5-10.04 10.05z" stroke="#5e5e5e" stroke-width="3" fill="#fff"/></g><g><path d="M1480 1390.9c0 5.03 4.07 9.1 9.1 9.1h27.25c5.02 0 9.1-4.07 9.1-9.1v-81.8c0-5.03-4.08-9.1-9.1-9.1h-27.26c-5.03 0-9.1 4.07-9.1 9.1z" stroke="#5e5e5e" stroke-width="3" fill="#fff"/></g><path d="M727.8 1325.15h374.78c.04 0 .08-.03.08-.08 0-.04.03-.07.07-.07H1460" stroke="#5e5e5e" stroke-width="2" fill="none"/><path d="M727.84 1326.15h-1.03v-2h1.04z" fill="#5e5e5e"/><path d="M1475.26 1325l-14.26 4.64v-9.28z" stroke="#5e5e5e" stroke-width="2" fill="#5e5e5e"/><path d="M672.56 1380.6h-2.98m-3.97 0h-5.95m-3.97 0h-5.96m-3.97 0h-5.96m-3.98 0h-5.96m-3.97 0h-5.97m-3.97 0H610m-3.97 0h-5.96m-3.97 0h-5.96m-3.97 0h-5.95m-3.98 0h-5.95m-4 0h-5.94m-3.98 0h-5.95m-3.98 0h-5.95m-3.98 0h-5.95m-3.98 0h-5.96m-3.98 0h-5.95m-3.97 0h-5.95m-3.98 0h-5.95m-3.98 0h-5.95m-3.98 0H471m-4 0h-5.94m-3.97 0h-5.97m-3.97 0h-5.96m-3.97 0h-5.96m-3.97 0h-5.96m-3.97 0h-5.96m-3.96 0h-5.96m-3.97 0h-5.95m-3.97 0h-5.96m-3.97 0h-5.96m-3.98 0h-5.96m-3.97 0h-5.97m-3.97 0h-5.96m-3.97 0h-5.96m-3.97 0h-5.96m-3.97 0h-5.96m-3.96 0h-5.96m-3.97 0h-5.95m-3.97 0h-5.96m-3.97 0h-5.96m-3.98 0h-2.98" stroke="#5e5e5e" stroke-width="2" fill="none"/><path d="M673.56 1381.6h-1.02v-2h1.02z" fill="#5e5e5e"/><path d="M250.17 1380.6l14.27-4.64v9.27z" stroke="#5e5e5e" stroke-width="2" fill="#5e5e5e"/><path d="M305.75 1320.28c0-3.3 2.7-6 6-6h297c3.3 0 6 2.7 6 6v59.44c0 3.3-2.7 6-6 6h-297c-3.3 0-6-2.7-6-6z" stroke="#000" stroke-opacity="0" stroke-width="3" fill="#fff" fill-opacity="0"/><g><use xlink:href="#ah" transform="matrix(1,0,0,1,310.7499999999999,1319.28125) translate(2.1234567901234414 21.65277777777778)"/><use xlink:href="#ai" transform="matrix(1,0,0,1,310.7499999999999,1319.28125) translate(39.16049382716048 21.65277777777778)"/><use xlink:href="#j" transform="matrix(1,0,0,1,310.7499999999999,1319.28125) translate(129.09876543209873 21.65277777777778)"/><use xlink:href="#aj" transform="matrix(1,0,0,1,310.7499999999999,1319.28125) translate(166.1358024691358 21.65277777777778)"/><use xlink:href="#U" transform="matrix(1,0,0,1,310.7499999999999,1319.28125) translate(222.80246913580245 21.65277777777778)"/><use xlink:href="#L" transform="matrix(1,0,0,1,310.7499999999999,1319.28125) translate(266.01234567901236 21.65277777777778)"/><use xlink:href="#ak" transform="matrix(1,0,0,1,310.7499999999999,1319.28125) translate(74.90123456790124 48.31944444444444)"/><use xlink:href="#al" transform="matrix(1,0,0,1,310.7499999999999,1319.28125) translate(182.1851851851852 48.31944444444444)"/></g><path d="M1477.5 1230H745.3" stroke="#5e5e5e" stroke-width="2" fill="none"/><path d="M1478.5 1231h-1.03v-2h1.03z" fill="#5e5e5e"/><path d="M730.05 1230l14.26-4.64v9.28z" stroke="#5e5e5e" stroke-width="2" fill="#5e5e5e"/><path d="M1478 1393.94H744.53" stroke="#5e5e5e" stroke-width="2" fill="none"/><path d="M1479.13 1394.58l.2.36H1478v-2h.84z" fill="#5e5e5e"/><path d="M729.26 1393.94l14.27-4.64v9.27z" stroke="#5e5e5e" stroke-width="2" fill="#5e5e5e"/><path d="M882.66 1199.72c0-3.32 2.68-6 6-6h428c3.3 0 6 2.68 6 6V1234c0 3.3-2.7 6-6 6h-428c-3.32 0-6-2.7-6-6z" stroke="#000" stroke-opacity="0" stroke-width="3" fill="#fff" fill-opacity="0"/><g><use xlink:href="#am" transform="matrix(1,0,0,1,887.6562500000002,1198.7158002870842) translate(12.870370370370381 22.40277777777778)"/><use xlink:href="#an" transform="matrix(1,0,0,1,887.6562500000002,1198.7158002870842) translate(49.90740740740742 22.40277777777778)"/><use xlink:href="#j" transform="matrix(1,0,0,1,887.6562500000002,1198.7158002870842) translate(133.73456790123458 22.40277777777778)"/><use xlink:href="#aj" transform="matrix(1,0,0,1,887.6562500000002,1198.7158002870842) translate(170.7716049382716 22.40277777777778)"/><use xlink:href="#H" transform="matrix(1,0,0,1,887.6562500000002,1198.7158002870842) translate(227.43827160493825 22.40277777777778)"/><use xlink:href="#ao" transform="matrix(1,0,0,1,887.6562500000002,1198.7158002870842) translate(272.9938271604938 22.40277777777778)"/><use xlink:href="#al" transform="matrix(1,0,0,1,887.6562500000002,1198.7158002870842) translate(375.21604938271605 22.40277777777778)"/></g><path d="M979.44 1286c0-3.3 2.68-6 6-6h228c3.3 0 6 2.7 6 6v48c0 3.3-2.7 6-6 6h-228c-3.32 0-6-2.7-6-6z" stroke="#000" stroke-opacity="0" stroke-width="3" fill="#fff" fill-opacity="0"/><g><use xlink:href="#ap" transform="matrix(1,0,0,1,984.4375000000003,1285) translate(-70.24691358024685 29.444444444444443)"/></g><path d="M779.44 1360.17c0-3.32 2.68-6 6-6h628c3.3 0 6 2.68 6 6v48c0 3.3-2.7 6-6 6h-628c-3.32 0-6-2.7-6-6z" stroke="#000" stroke-opacity="0" stroke-width="3" fill="#fff" fill-opacity="0"/><g><use xlink:href="#aq" transform="matrix(1,0,0,1,784.4375000000003,1359.1666666666667) translate(21.419753086419746 30.27777777777778)"/><use xlink:href="#an" transform="matrix(1,0,0,1,784.4375000000003,1359.1666666666667) translate(64.62962962962962 30.27777777777778)"/><use xlink:href="#j" transform="matrix(1,0,0,1,784.4375000000003,1359.1666666666667) translate(148.45679012345678 30.27777777777778)"/><use xlink:href="#ar" transform="matrix(1,0,0,1,784.4375000000003,1359.1666666666667) translate(185.49382716049382 30.27777777777778)"/><use xlink:href="#as" transform="matrix(1,0,0,1,784.4375000000003,1359.1666666666667) translate(277.96296296296293 30.27777777777778)"/><use xlink:href="#at" transform="matrix(1,0,0,1,784.4375000000003,1359.1666666666667) translate(321.1728395061728 30.27777777777778)"/><use xlink:href="#j" transform="matrix(1,0,0,1,784.4375000000003,1359.1666666666667) translate(422.34567901234567 30.27777777777778)"/><use xlink:href="#ak" transform="matrix(1,0,0,1,784.4375000000003,1359.1666666666667) translate(459.3827160493827 30.27777777777778)"/><use xlink:href="#al" transform="matrix(1,0,0,1,784.4375000000003,1359.1666666666667) translate(566.6666666666666 30.27777777777778)"/></g><defs><path fill="#333" d="M30 0v-248h33v221h125V0H30" id="au"/><path fill="#333" d="M141-36C126-15 110 5 73 4 37 3 15-17 15-53c-1-64 63-63 125-63 3-35-9-54-41-54-24 1-41 7-42 31l-33-3c5-37 33-52 76-52 45 0 72 20 72 64v82c-1 20 7 32 28 27v20c-31 9-61-2-59-35zM48-53c0 20 12 33 32 33 41-3 63-29 60-74-43 2-92-5-92 41" id="av"/><path fill="#333" d="M115-194c53 0 69 39 70 98 0 66-23 100-70 100C84 3 66-7 56-30L54 0H23l1-261h32v101c10-23 28-34 59-34zm-8 174c40 0 45-34 45-75 0-40-5-75-45-74-42 0-51 32-51 76 0 43 10 73 51 73" id="aw"/><path fill="#333" d="M100-194c62-1 85 37 85 99 1 63-27 99-86 99S16-35 15-95c0-66 28-99 85-99zM99-20c44 1 53-31 53-75 0-43-8-75-51-75s-53 32-53 75 10 74 51 75" id="ax"/><path fill="#333" d="M114-163C36-179 61-72 57 0H25l-1-190h30c1 12-1 29 2 39 6-27 23-49 58-41v29" id="ay"/><path fill="#333" d="M59-47c-2 24 18 29 38 22v24C64 9 27 4 27-40v-127H5v-23h24l9-43h21v43h35v23H59v120" id="az"/><path fill="#333" d="M179-190L93 31C79 59 56 82 12 73V49c39 6 53-20 64-50L1-190h34L92-34l54-156h33" id="aA"/><g id="a"><use transform="matrix(0.06172839506172839,0,0,0.06172839506172839,0,0)" xlink:href="#au"/><use transform="matrix(0.06172839506172839,0,0,0.06172839506172839,12.345679012345679,0)" xlink:href="#av"/><use transform="matrix(0.06172839506172839,0,0,0.06172839506172839,24.691358024691358,0)" xlink:href="#aw"/><use transform="matrix(0.06172839506172839,0,0,0.06172839506172839,37.03703703703704,0)" xlink:href="#ax"/><use transform="matrix(0.06172839506172839,0,0,0.06172839506172839,49.382716049382715,0)" xlink:href="#ay"/><use transform="matrix(0.06172839506172839,0,0,0.06172839506172839,56.72839506172839,0)" xlink:href="#av"/><use transform="matrix(0.06172839506172839,0,0,0.06172839506172839,69.07407407407408,0)" xlink:href="#az"/><use transform="matrix(0.06172839506172839,0,0,0.06172839506172839,75.24691358024691,0)" xlink:href="#ax"/><use transform="matrix(0.06172839506172839,0,0,0.06172839506172839,87.5925925925926,0)" xlink:href="#ay"/><use transform="matrix(0.06172839506172839,0,0,0.06172839506172839,94.93827160493828,0)" xlink:href="#aA"/></g><path fill="#333" d="M212-179c-10-28-35-45-73-45-59 0-87 40-87 99 0 60 29 101 89 101 43 0 62-24 78-52l27 14C228-24 195 4 139 4 59 4 22-46 18-125c-6-104 99-153 187-111 19 9 31 26 39 46" id="aB"/><path fill="#333" d="M85-194c31 0 48 13 60 33l-1-100h32l1 261h-30c-2-10 0-23-3-31C134-8 116 4 85 4 32 4 16-35 15-94c0-66 23-100 70-100zm9 24c-40 0-46 34-46 75 0 40 6 74 45 74 42 0 51-32 51-76 0-42-9-74-50-73" id="aC"/><path fill="#333" d="M24-231v-30h32v30H24zM24 0v-190h32V0H24" id="aD"/><path fill="#333" d="M117-194c89-4 53 116 60 194h-32v-121c0-31-8-49-39-48C34-167 62-67 57 0H25l-1-190h30c1 10-1 24 2 32 11-22 29-35 61-36" id="aE"/><g id="b"><use transform="matrix(0.06172839506172839,0,0,0.06172839506172839,0,0)" xlink:href="#aB"/><use transform="matrix(0.06172839506172839,0,0,0.06172839506172839,15.987654320987653,0)" xlink:href="#ax"/><use transform="matrix(0.06172839506172839,0,0,0.06172839506172839,28.333333333333332,0)" xlink:href="#ax"/><use transform="matrix(0.06172839506172839,0,0,0.06172839506172839,40.67901234567901,0)" xlink:href="#ay"/><use transform="matrix(0.06172839506172839,0,0,0.06172839506172839,48.02469135802469,0)" xlink:href="#aC"/><use transform="matrix(0.06172839506172839,0,0,0.06172839506172839,60.37037037037037,0)" xlink:href="#aD"/><use transform="matrix(0.06172839506172839,0,0,0.06172839506172839,65.24691358024691,0)" xlink:href="#aE"/><use transform="matrix(0.06172839506172839,0,0,0.06172839506172839,77.5925925925926,0)" xlink:href="#av"/><use transform="matrix(0.06172839506172839,0,0,0.06172839506172839,89.93827160493828,0)" xlink:href="#az"/><use transform="matrix(0.06172839506172839,0,0,0.06172839506172839,96.11111111111111,0)" xlink:href="#ax"/><use transform="matrix(0.06172839506172839,0,0,0.06172839506172839,108.4567901234568,0)" xlink:href="#ay"/></g><path fill="#333" d="M127-220V0H93v-220H8v-28h204v28h-85" id="aF"/><path fill="#333" d="M100-194c63 0 86 42 84 106H49c0 40 14 67 53 68 26 1 43-12 49-29l28 8c-11 28-37 45-77 45C44 4 14-33 15-96c1-61 26-98 85-98zm52 81c6-60-76-77-97-28-3 7-6 17-6 28h103" id="aG"/><path fill="#333" d="M135-143c-3-34-86-38-87 0 15 53 115 12 119 90S17 21 10-45l28-5c4 36 97 45 98 0-10-56-113-15-118-90-4-57 82-63 122-42 12 7 21 19 24 35" id="aH"/><path fill="#333" d="M140-251c81 0 123 46 123 126C263-46 219 4 140 4 59 4 17-45 17-125s42-126 123-126zm0 227c63 0 89-41 89-101s-29-99-89-99c-61 0-89 39-89 99S79-25 140-24" id="aI"/><path fill="#333" d="M108 0H70L1-190h34L89-25l56-165h34" id="aJ"/><path fill="#333" d="M206 0h-36l-40-164L89 0H53L-1-190h32L70-26l43-164h34l41 164 42-164h31" id="aK"/><path fill="#333" d="M232-93c-1 65-40 97-104 97C67 4 28-28 28-90v-158h33c8 89-33 224 67 224 102 0 64-133 71-224h33v155" id="aL"/><path fill="#333" d="M33 0v-248h34V0H33" id="aM"/><g id="c"><use transform="matrix(0.06172839506172839,0,0,0.06172839506172839,0,0)" xlink:href="#aF"/><use transform="matrix(0.06172839506172839,0,0,0.06172839506172839,11.049382716049381,0)" xlink:href="#aG"/><use transform="matrix(0.06172839506172839,0,0,0.06172839506172839,23.39506172839506,0)" xlink:href="#aH"/><use transform="matrix(0.06172839506172839,0,0,0.06172839506172839,34.50617283950617,0)" xlink:href="#az"/><use transform="matrix(0.06172839506172839,0,0,0.06172839506172839,40.67901234567901,0)" xlink:href="#aI"/><use transform="matrix(0.06172839506172839,0,0,0.06172839506172839,57.96296296296296,0)" xlink:href="#aJ"/><use transform="matrix(0.06172839506172839,0,0,0.06172839506172839,69.07407407407408,0)" xlink:href="#aG"/><use transform="matrix(0.06172839506172839,0,0,0.06172839506172839,81.41975308641976,0)" xlink:href="#ay"/><use transform="matrix(0.06172839506172839,0,0,0.06172839506172839,88.76543209876544,0)" xlink:href="#aJ"/><use transform="matrix(0.06172839506172839,0,0,0.06172839506172839,99.87654320987656,0)" xlink:href="#aD"/><use transform="matrix(0.06172839506172839,0,0,0.06172839506172839,104.7530864197531,0)" xlink:href="#aG"/><use transform="matrix(0.06172839506172839,0,0,0.06172839506172839,117.09876543209879,0)" xlink:href="#aK"/><use transform="matrix(0.06172839506172839,0,0,0.06172839506172839,133.08641975308643,0)" xlink:href="#aL"/><use transform="matrix(0.06172839506172839,0,0,0.06172839506172839,149.07407407407408,0)" xlink:href="#aM"/></g><path fill="#333" d="M24 0v-261h32V0H24" id="aN"/><g id="d"><use transform="matrix(0.06172839506172839,0,0,0.06172839506172839,0,0)" xlink:href="#aF"/><use transform="matrix(0.06172839506172839,0,0,0.06172839506172839,11.049382716049381,0)" xlink:href="#aG"/><use transform="matrix(0.06172839506172839,0,0,0.06172839506172839,23.39506172839506,0)" xlink:href="#aH"/><use transform="matrix(0.06172839506172839,0,0,0.06172839506172839,34.50617283950617,0)" xlink:href="#az"/><use transform="matrix(0.06172839506172839,0,0,0.06172839506172839,40.67901234567901,0)" xlink:href="#aI"/><use transform="matrix(0.06172839506172839,0,0,0.06172839506172839,57.96296296296296,0)" xlink:href="#aJ"/><use transform="matrix(0.06172839506172839,0,0,0.06172839506172839,69.07407407407408,0)" xlink:href="#aG"/><use transform="matrix(0.06172839506172839,0,0,0.06172839506172839,81.41975308641976,0)" xlink:href="#ay"/><use transform="matrix(0.06172839506172839,0,0,0.06172839506172839,88.76543209876544,0)" xlink:href="#aJ"/><use transform="matrix(0.06172839506172839,0,0,0.06172839506172839,99.87654320987656,0)" xlink:href="#aD"/><use transform="matrix(0.06172839506172839,0,0,0.06172839506172839,104.7530864197531,0)" xlink:href="#aG"/><use transform="matrix(0.06172839506172839,0,0,0.06172839506172839,117.09876543209879,0)" xlink:href="#aK"/><use transform="matrix(0.06172839506172839,0,0,0.06172839506172839,133.08641975308643,0)" xlink:href="#aB"/><use transform="matrix(0.06172839506172839,0,0,0.06172839506172839,149.07407407407408,0)" xlink:href="#ax"/><use transform="matrix(0.06172839506172839,0,0,0.06172839506172839,161.41975308641975,0)" xlink:href="#aE"/><use transform="matrix(0.06172839506172839,0,0,0.06172839506172839,173.76543209876542,0)" xlink:href="#az"/><use transform="matrix(0.06172839506172839,0,0,0.06172839506172839,179.93827160493825,0)" xlink:href="#ay"/><use transform="matrix(0.06172839506172839,0,0,0.06172839506172839,187.28395061728392,0)" xlink:href="#ax"/><use transform="matrix(0.06172839506172839,0,0,0.06172839506172839,199.6296296296296,0)" xlink:href="#aN"/><use transform="matrix(0.06172839506172839,0,0,0.06172839506172839,204.50617283950612,0)" xlink:href="#aN"/><use transform="matrix(0.06172839506172839,0,0,0.06172839506172839,209.38271604938265,0)" xlink:href="#aG"/><use transform="matrix(0.06172839506172839,0,0,0.06172839506172839,221.72839506172832,0)" xlink:href="#ay"/></g><path fill="#333" d="M210-169c-67 3-38 105-44 169h-31v-121c0-29-5-50-35-48C34-165 62-65 56 0H25l-1-190h30c1 10-1 24 2 32 10-44 99-50 107 0 11-21 27-35 58-36 85-2 47 119 55 194h-31v-121c0-29-5-49-35-48" id="aO"/><path fill="#333" d="M115-194c55 1 70 41 70 98S169 2 115 4C84 4 66-9 55-30l1 105H24l-1-265h31l2 30c10-21 28-34 59-34zm-8 174c40 0 45-34 45-75s-6-73-45-74c-42 0-51 32-51 76 0 43 10 73 51 73" id="aP"/><g id="e"><use transform="matrix(0.06172839506172839,0,0,0.06172839506172839,0,0)" xlink:href="#aB"/><use transform="matrix(0.06172839506172839,0,0,0.06172839506172839,15.987654320987653,0)" xlink:href="#ax"/><use transform="matrix(0.06172839506172839,0,0,0.06172839506172839,28.333333333333332,0)" xlink:href="#aO"/><use transform="matrix(0.06172839506172839,0,0,0.06172839506172839,46.79012345679012,0)" xlink:href="#aP"/><use transform="matrix(0.06172839506172839,0,0,0.06172839506172839,59.1358024691358,0)" xlink:href="#av"/><use transform="matrix(0.06172839506172839,0,0,0.06172839506172839,71.48148148148148,0)" xlink:href="#aE"/><use transform="matrix(0.06172839506172839,0,0,0.06172839506172839,83.82716049382717,0)" xlink:href="#aA"/></g><path fill="#333" d="M185-189c-5-48-123-54-124 2 14 75 158 14 163 119 3 78-121 87-175 55-17-10-28-26-33-46l33-7c5 56 141 63 141-1 0-78-155-14-162-118-5-82 145-84 179-34 5 7 8 16 11 25" id="aQ"/><g id="f"><use transform="matrix(0.06172839506172839,0,0,0.06172839506172839,0,0)" xlink:href="#aF"/><use transform="matrix(0.06172839506172839,0,0,0.06172839506172839,11.049382716049381,0)" xlink:href="#aG"/><use transform="matrix(0.06172839506172839,0,0,0.06172839506172839,23.39506172839506,0)" xlink:href="#aH"/><use transform="matrix(0.06172839506172839,0,0,0.06172839506172839,34.50617283950617,0)" xlink:href="#az"/><use transform="matrix(0.06172839506172839,0,0,0.06172839506172839,40.67901234567901,0)" xlink:href="#aI"/><use transform="matrix(0.06172839506172839,0,0,0.06172839506172839,57.96296296296296,0)" xlink:href="#aJ"/><use transform="matrix(0.06172839506172839,0,0,0.06172839506172839,69.07407407407408,0)" xlink:href="#aG"/><use transform="matrix(0.06172839506172839,0,0,0.06172839506172839,81.41975308641976,0)" xlink:href="#ay"/><use transform="matrix(0.06172839506172839,0,0,0.06172839506172839,88.76543209876544,0)" xlink:href="#aJ"/><use transform="matrix(0.06172839506172839,0,0,0.06172839506172839,99.87654320987656,0)" xlink:href="#aD"/><use transform="matrix(0.06172839506172839,0,0,0.06172839506172839,104.7530864197531,0)" xlink:href="#aG"/><use transform="matrix(0.06172839506172839,0,0,0.06172839506172839,117.09876543209879,0)" xlink:href="#aK"/><use transform="matrix(0.06172839506172839,0,0,0.06172839506172839,133.08641975308643,0)" xlink:href="#aQ"/><use transform="matrix(0.06172839506172839,0,0,0.06172839506172839,147.90123456790124,0)" xlink:href="#az"/><use transform="matrix(0.06172839506172839,0,0,0.06172839506172839,154.07407407407408,0)" xlink:href="#ax"/><use transform="matrix(0.06172839506172839,0,0,0.06172839506172839,166.41975308641975,0)" xlink:href="#ay"/><use transform="matrix(0.06172839506172839,0,0,0.06172839506172839,173.76543209876542,0)" xlink:href="#aG"/></g><path fill="#333" d="M27 0v-27h64v-190l-56 39v-29l58-41h29v221h61V0H27" id="aR"/><path fill="#333" d="M33 0v-38h34V0H33" id="aS"/><g id="g"><use transform="matrix(0.06172839506172839,0,0,0.06172839506172839,0,0)" xlink:href="#aR"/><use transform="matrix(0.06172839506172839,0,0,0.06172839506172839,12.345679012345679,0)" xlink:href="#aS"/></g><g id="h"><use transform="matrix(0.06172839506172839,0,0,0.06172839506172839,0,0)" xlink:href="#aQ"/><use transform="matrix(0.06172839506172839,0,0,0.06172839506172839,14.814814814814813,0)" xlink:href="#az"/><use transform="matrix(0.06172839506172839,0,0,0.06172839506172839,20.98765432098765,0)" xlink:href="#av"/><use transform="matrix(0.06172839506172839,0,0,0.06172839506172839,33.33333333333333,0)" xlink:href="#ay"/><use transform="matrix(0.06172839506172839,0,0,0.06172839506172839,40.679012345679006,0)" xlink:href="#az"/><use transform="matrix(0.06172839506172839,0,0,0.06172839506172839,46.85185185185185,0)" xlink:href="#aH"/></g><path fill="#333" d="M177-190C167-65 218 103 67 71c-23-6-38-20-44-43l32-5c15 47 100 32 89-28v-30C133-14 115 1 83 1 29 1 15-40 15-95c0-56 16-97 71-98 29-1 48 16 59 35 1-10 0-23 2-32h30zM94-22c36 0 50-32 50-73 0-42-14-75-50-75-39 0-46 34-46 75s6 73 46 73" id="aT"/><g id="i"><use transform="matrix(0.06172839506172839,0,0,0.06172839506172839,0,0)" xlink:href="#av"/><use transform="matrix(0.06172839506172839,0,0,0.06172839506172839,12.345679012345679,0)" xlink:href="#aE"/><use transform="matrix(0.06172839506172839,0,0,0.06172839506172839,24.691358024691358,0)" xlink:href="#av"/><use transform="matrix(0.06172839506172839,0,0,0.06172839506172839,37.03703703703704,0)" xlink:href="#aN"/><use transform="matrix(0.06172839506172839,0,0,0.06172839506172839,41.91358024691358,0)" xlink:href="#aA"/><use transform="matrix(0.06172839506172839,0,0,0.06172839506172839,53.0246913580247,0)" xlink:href="#aH"/><use transform="matrix(0.06172839506172839,0,0,0.06172839506172839,64.13580246913581,0)" xlink:href="#aD"/><use transform="matrix(0.06172839506172839,0,0,0.06172839506172839,69.01234567901236,0)" xlink:href="#aE"/><use transform="matrix(0.06172839506172839,0,0,0.06172839506172839,81.35802469135804,0)" xlink:href="#aT"/></g><path fill="#333" d="M106-169C34-169 62-67 57 0H25v-261h32l-1 103c12-21 28-36 61-36 89 0 53 116 60 194h-32v-121c2-32-8-49-39-48" id="aU"/><g id="j"><use transform="matrix(0.06172839506172839,0,0,0.06172839506172839,0,0)" xlink:href="#az"/><use transform="matrix(0.06172839506172839,0,0,0.06172839506172839,6.172839506172839,0)" xlink:href="#aU"/><use transform="matrix(0.06172839506172839,0,0,0.06172839506172839,18.51851851851852,0)" xlink:href="#aG"/></g><g id="k"><use transform="matrix(0.06172839506172839,0,0,0.06172839506172839,0,0)" xlink:href="#ax"/><use transform="matrix(0.06172839506172839,0,0,0.06172839506172839,12.345679012345679,0)" xlink:href="#aJ"/><use transform="matrix(0.06172839506172839,0,0,0.06172839506172839,23.45679012345679,0)" xlink:href="#aG"/><use transform="matrix(0.06172839506172839,0,0,0.06172839506172839,35.80246913580247,0)" xlink:href="#ay"/><use transform="matrix(0.06172839506172839,0,0,0.06172839506172839,43.148148148148145,0)" xlink:href="#av"/><use transform="matrix(0.06172839506172839,0,0,0.06172839506172839,55.49382716049382,0)" xlink:href="#aN"/><use transform="matrix(0.06172839506172839,0,0,0.06172839506172839,60.37037037037037,0)" xlink:href="#aN"/></g><path fill="#333" d="M101-234c-31-9-42 10-38 44h38v23H63V0H32v-167H5v-23h27c-7-52 17-82 69-68v24" id="aV"/><path fill="#333" d="M96-169c-40 0-48 33-48 73s9 75 48 75c24 0 41-14 43-38l32 2c-6 37-31 61-74 61-59 0-76-41-82-99-10-93 101-131 147-64 4 7 5 14 7 22l-32 3c-4-21-16-35-41-35" id="aW"/><g id="l"><use transform="matrix(0.06172839506172839,0,0,0.06172839506172839,0,0)" xlink:href="#aP"/><use transform="matrix(0.06172839506172839,0,0,0.06172839506172839,12.345679012345679,0)" xlink:href="#aG"/><use transform="matrix(0.06172839506172839,0,0,0.06172839506172839,24.691358024691358,0)" xlink:href="#ay"/><use transform="matrix(0.06172839506172839,0,0,0.06172839506172839,32.03703703703704,0)" xlink:href="#aV"/><use transform="matrix(0.06172839506172839,0,0,0.06172839506172839,38.20987654320988,0)" xlink:href="#ax"/><use transform="matrix(0.06172839506172839,0,0,0.06172839506172839,50.55555555555556,0)" xlink:href="#aO"/><use transform="matrix(0.06172839506172839,0,0,0.06172839506172839,69.01234567901234,0)" xlink:href="#av"/><use transform="matrix(0.06172839506172839,0,0,0.06172839506172839,81.35802469135803,0)" xlink:href="#aE"/><use transform="matrix(0.06172839506172839,0,0,0.06172839506172839,93.70370370370371,0)" xlink:href="#aW"/><use transform="matrix(0.06172839506172839,0,0,0.06172839506172839,104.81481481481482,0)" xlink:href="#aG"/></g><path fill="#333" d="M101-251c82-7 93 87 43 132L82-64C71-53 59-42 53-27h129V0H18c2-99 128-94 128-182 0-28-16-43-45-43s-46 15-49 41l-32-3c6-41 34-60 81-64" id="aX"/><g id="m"><use transform="matrix(0.06172839506172839,0,0,0.06172839506172839,0,0)" xlink:href="#aX"/><use transform="matrix(0.06172839506172839,0,0,0.06172839506172839,12.345679012345679,0)" xlink:href="#aS"/></g><path fill="#333" d="M205 0l-28-72H64L36 0H1l101-248h38L239 0h-34zm-38-99l-47-123c-12 45-31 82-46 123h93" id="aY"/><path fill="#333" d="M143 0L79-87 56-68V0H24v-261h32v163l83-92h37l-77 82L181 0h-38" id="aZ"/><g id="n"><use transform="matrix(0.06172839506172839,0,0,0.06172839506172839,0,0)" xlink:href="#aY"/><use transform="matrix(0.06172839506172839,0,0,0.06172839506172839,14.814814814814813,0)" xlink:href="#aH"/><use transform="matrix(0.06172839506172839,0,0,0.06172839506172839,25.925925925925924,0)" xlink:href="#aZ"/><use transform="matrix(0.06172839506172839,0,0,0.06172839506172839,37.03703703703704,0)" xlink:href="#aH"/></g><g id="o"><use transform="matrix(0.06172839506172839,0,0,0.06172839506172839,0,0)" xlink:href="#aV"/><use transform="matrix(0.06172839506172839,0,0,0.06172839506172839,6.172839506172839,0)" xlink:href="#ax"/><use transform="matrix(0.06172839506172839,0,0,0.06172839506172839,18.51851851851852,0)" xlink:href="#ay"/></g><use transform="matrix(0.06172839506172839,0,0,0.06172839506172839,0,0)" xlink:href="#av" id="p"/><g id="q"><use transform="matrix(0.06172839506172839,0,0,0.06172839506172839,0,0)" xlink:href="#aD"/><use transform="matrix(0.06172839506172839,0,0,0.06172839506172839,4.876543209876543,0)" xlink:href="#aE"/><use transform="matrix(0.06172839506172839,0,0,0.06172839506172839,17.22222222222222,0)" xlink:href="#az"/><use transform="matrix(0.06172839506172839,0,0,0.06172839506172839,23.39506172839506,0)" xlink:href="#aG"/><use transform="matrix(0.06172839506172839,0,0,0.06172839506172839,35.74074074074074,0)" xlink:href="#ay"/><use transform="matrix(0.06172839506172839,0,0,0.06172839506172839,43.08641975308642,0)" xlink:href="#aJ"/><use transform="matrix(0.06172839506172839,0,0,0.06172839506172839,54.19753086419753,0)" xlink:href="#av"/><use transform="matrix(0.06172839506172839,0,0,0.06172839506172839,66.54320987654322,0)" xlink:href="#aN"/></g><g id="r"><use transform="matrix(0.06172839506172839,0,0,0.06172839506172839,0,0)" xlink:href="#ax"/><use transform="matrix(0.06172839506172839,0,0,0.06172839506172839,12.345679012345679,0)" xlink:href="#aV"/></g><g id="s"><use transform="matrix(0.06172839506172839,0,0,0.06172839506172839,0,0)" xlink:href="#az"/><use transform="matrix(0.06172839506172839,0,0,0.06172839506172839,6.172839506172839,0)" xlink:href="#aD"/><use transform="matrix(0.06172839506172839,0,0,0.06172839506172839,11.049382716049383,0)" xlink:href="#aO"/><use transform="matrix(0.06172839506172839,0,0,0.06172839506172839,29.50617283950617,0)" xlink:href="#aG"/></g><g id="t"><use transform="matrix(0.06172839506172839,0,0,0.06172839506172839,0,0)" xlink:href="#az"/><use transform="matrix(0.06172839506172839,0,0,0.06172839506172839,6.172839506172839,0)" xlink:href="#ax"/></g><g id="u"><use transform="matrix(0.06172839506172839,0,0,0.06172839506172839,0,0)" xlink:href="#av"/><use transform="matrix(0.06172839506172839,0,0,0.06172839506172839,12.345679012345679,0)" xlink:href="#aE"/><use transform="matrix(0.06172839506172839,0,0,0.06172839506172839,24.691358024691358,0)" xlink:href="#av"/><use transform="matrix(0.06172839506172839,0,0,0.06172839506172839,37.03703703703704,0)" xlink:href="#aN"/><use transform="matrix(0.06172839506172839,0,0,0.06172839506172839,41.91358024691358,0)" xlink:href="#aA"/><use transform="matrix(0.06172839506172839,0,0,0.06172839506172839,53.0246913580247,0)" xlink:href="#aH"/><use transform="matrix(0.06172839506172839,0,0,0.06172839506172839,64.13580246913581,0)" xlink:href="#aG"/></g><path fill="#333" d="M126-127c33 6 58 20 58 59 0 88-139 92-164 29-3-8-5-16-6-25l32-3c6 27 21 44 54 44 32 0 52-15 52-46 0-38-36-46-79-43v-28c39 1 72-4 72-42 0-27-17-43-46-43-28 0-47 15-49 41l-32-3c6-42 35-63 81-64 48-1 79 21 79 65 0 36-21 52-52 59" id="ba"/><g id="v"><use transform="matrix(0.06172839506172839,0,0,0.06172839506172839,0,0)" xlink:href="#ba"/><use transform="matrix(0.06172839506172839,0,0,0.06172839506172839,12.345679012345679,0)" xlink:href="#aS"/></g><path fill="#333" d="M84 4C-5 8 30-112 23-190h32v120c0 31 7 50 39 49 72-2 45-101 50-169h31l1 190h-30c-1-10 1-25-2-33-11 22-28 36-60 37" id="bb"/><g id="w"><use transform="matrix(0.06172839506172839,0,0,0.06172839506172839,0,0)" xlink:href="#aM"/><use transform="matrix(0.06172839506172839,0,0,0.06172839506172839,6.172839506172839,0)" xlink:href="#aE"/><use transform="matrix(0.06172839506172839,0,0,0.06172839506172839,18.51851851851852,0)" xlink:href="#az"/><use transform="matrix(0.06172839506172839,0,0,0.06172839506172839,24.691358024691358,0)" xlink:href="#ay"/><use transform="matrix(0.06172839506172839,0,0,0.06172839506172839,32.03703703703704,0)" xlink:href="#ax"/><use transform="matrix(0.06172839506172839,0,0,0.06172839506172839,44.382716049382715,0)" xlink:href="#aC"/><use transform="matrix(0.06172839506172839,0,0,0.06172839506172839,56.72839506172839,0)" xlink:href="#bb"/><use transform="matrix(0.06172839506172839,0,0,0.06172839506172839,69.07407407407408,0)" xlink:href="#aW"/><use transform="matrix(0.06172839506172839,0,0,0.06172839506172839,80.18518518518519,0)" xlink:href="#aG"/><use transform="matrix(0.06172839506172839,0,0,0.06172839506172839,92.53086419753087,0)" xlink:href="#aH"/></g><g id="x"><use transform="matrix(0.06172839506172839,0,0,0.06172839506172839,0,0)" xlink:href="#az"/><use transform="matrix(0.06172839506172839,0,0,0.06172839506172839,6.172839506172839,0)" xlink:href="#aK"/><use transform="matrix(0.06172839506172839,0,0,0.06172839506172839,22.160493827160494,0)" xlink:href="#ax"/></g><g id="y"><use transform="matrix(0.06172839506172839,0,0,0.06172839506172839,0,0)" xlink:href="#aC"/><use transform="matrix(0.06172839506172839,0,0,0.06172839506172839,12.345679012345679,0)" xlink:href="#av"/><use transform="matrix(0.06172839506172839,0,0,0.06172839506172839,24.691358024691358,0)" xlink:href="#az"/><use transform="matrix(0.06172839506172839,0,0,0.06172839506172839,30.864197530864196,0)" xlink:href="#aG"/><use transform="matrix(0.06172839506172839,0,0,0.06172839506172839,43.20987654320987,0)" xlink:href="#aH"/></g><g id="z"><use transform="matrix(0.06172839506172839,0,0,0.06172839506172839,0,0)" xlink:href="#aO"/><use transform="matrix(0.06172839506172839,0,0,0.06172839506172839,18.456790123456788,0)" xlink:href="#av"/><use transform="matrix(0.06172839506172839,0,0,0.06172839506172839,30.80246913580247,0)" xlink:href="#aZ"/><use transform="matrix(0.06172839506172839,0,0,0.06172839506172839,41.91358024691358,0)" xlink:href="#aG"/></g><g id="A"><use transform="matrix(0.06172839506172839,0,0,0.06172839506172839,0,0)" xlink:href="#aD"/><use transform="matrix(0.06172839506172839,0,0,0.06172839506172839,4.876543209876543,0)" xlink:href="#aE"/><use transform="matrix(0.06172839506172839,0,0,0.06172839506172839,17.22222222222222,0)" xlink:href="#az"/><use transform="matrix(0.06172839506172839,0,0,0.06172839506172839,23.39506172839506,0)" xlink:href="#aG"/><use transform="matrix(0.06172839506172839,0,0,0.06172839506172839,35.74074074074074,0)" xlink:href="#ay"/><use transform="matrix(0.06172839506172839,0,0,0.06172839506172839,43.08641975308642,0)" xlink:href="#aJ"/><use transform="matrix(0.06172839506172839,0,0,0.06172839506172839,54.19753086419753,0)" xlink:href="#av"/><use transform="matrix(0.06172839506172839,0,0,0.06172839506172839,66.54320987654322,0)" xlink:href="#aN"/></g><path fill="#333" d="M155-56V0h-30v-56H8v-25l114-167h33v167h35v25h-35zm-30-156c-27 46-58 90-88 131h88v-131" id="bc"/><path fill="#333" d="M87 75C49 33 22-17 22-94c0-76 28-126 65-167h31c-38 41-64 92-64 168S80 34 118 75H87" id="bd"/><path fill="#333" d="M141 0L90-78 38 0H4l68-98-65-92h35l48 74 47-74h35l-64 92 68 98h-35" id="be"/><path fill="#333" d="M33-261c38 41 65 92 65 168S71 34 33 75H2C39 34 66-17 66-93S39-220 2-261h31" id="bf"/><g id="B"><use transform="matrix(0.06172839506172839,0,0,0.06172839506172839,0,0)" xlink:href="#bc"/><use transform="matrix(0.06172839506172839,0,0,0.06172839506172839,12.345679012345679,0)" xlink:href="#aS"/><use transform="matrix(0.06172839506172839,0,0,0.06172839506172839,18.51851851851852,0)" xlink:href="#aQ"/><use transform="matrix(0.06172839506172839,0,0,0.06172839506172839,33.33333333333333,0)" xlink:href="#aP"/><use transform="matrix(0.06172839506172839,0,0,0.06172839506172839,45.679012345679006,0)" xlink:href="#aG"/><use transform="matrix(0.06172839506172839,0,0,0.06172839506172839,58.02469135802468,0)" xlink:href="#aW"/><use transform="matrix(0.06172839506172839,0,0,0.06172839506172839,69.1358024691358,0)" xlink:href="#aD"/><use transform="matrix(0.06172839506172839,0,0,0.06172839506172839,74.01234567901234,0)" xlink:href="#aV"/><use transform="matrix(0.06172839506172839,0,0,0.06172839506172839,80.18518518518518,0)" xlink:href="#aD"/><use transform="matrix(0.06172839506172839,0,0,0.06172839506172839,85.06172839506172,0)" xlink:href="#aW"/><use transform="matrix(0.06172839506172839,0,0,0.06172839506172839,96.17283950617283,0)" xlink:href="#aF"/><use transform="matrix(0.06172839506172839,0,0,0.06172839506172839,107.22222222222221,0)" xlink:href="#aG"/><use transform="matrix(0.06172839506172839,0,0,0.06172839506172839,119.5679012345679,0)" xlink:href="#aH"/><use transform="matrix(0.06172839506172839,0,0,0.06172839506172839,130.679012345679,0)" xlink:href="#az"/><use transform="matrix(0.06172839506172839,0,0,0.06172839506172839,136.85185185185185,0)" xlink:href="#bd"/><use transform="matrix(0.06172839506172839,0,0,0.06172839506172839,144.19753086419752,0)" xlink:href="#aD"/><use transform="matrix(0.06172839506172839,0,0,0.06172839506172839,149.07407407407405,0)" xlink:href="#aE"/><use transform="matrix(0.06172839506172839,0,0,0.06172839506172839,161.41975308641972,0)" xlink:href="#aC"/><use transform="matrix(0.06172839506172839,0,0,0.06172839506172839,173.7654320987654,0)" xlink:href="#aG"/><use transform="matrix(0.06172839506172839,0,0,0.06172839506172839,186.11111111111106,0)" xlink:href="#be"/><use transform="matrix(0.06172839506172839,0,0,0.06172839506172839,197.22222222222217,0)" xlink:href="#bf"/></g><path fill="#333" d="M64 0c3-98 48-159 88-221H18v-27h164v26C143-157 98-101 97 0H64" id="bg"/><g id="C"><use transform="matrix(0.06172839506172839,0,0,0.06172839506172839,0,0)" xlink:href="#bg"/><use transform="matrix(0.06172839506172839,0,0,0.06172839506172839,12.345679012345679,0)" xlink:href="#aS"/></g><path fill="#333" d="M233-177c-1 41-23 64-60 70L243 0h-38l-65-103H63V0H30v-248c88 3 205-21 203 71zM63-129c60-2 137 13 137-47 0-61-80-42-137-45v92" id="bh"/><g id="D"><use transform="matrix(0.06172839506172839,0,0,0.06172839506172839,0,0)" xlink:href="#aF"/><use transform="matrix(0.06172839506172839,0,0,0.06172839506172839,11.049382716049381,0)" xlink:href="#aG"/><use transform="matrix(0.06172839506172839,0,0,0.06172839506172839,23.39506172839506,0)" xlink:href="#aH"/><use transform="matrix(0.06172839506172839,0,0,0.06172839506172839,34.50617283950617,0)" xlink:href="#az"/><use transform="matrix(0.06172839506172839,0,0,0.06172839506172839,40.67901234567901,0)" xlink:href="#bh"/><use transform="matrix(0.06172839506172839,0,0,0.06172839506172839,56.666666666666664,0)" xlink:href="#aG"/><use transform="matrix(0.06172839506172839,0,0,0.06172839506172839,69.01234567901234,0)" xlink:href="#aH"/><use transform="matrix(0.06172839506172839,0,0,0.06172839506172839,80.12345679012346,0)" xlink:href="#bb"/><use transform="matrix(0.06172839506172839,0,0,0.06172839506172839,92.46913580246914,0)" xlink:href="#aN"/><use transform="matrix(0.06172839506172839,0,0,0.06172839506172839,97.34567901234568,0)" xlink:href="#az"/><use transform="matrix(0.06172839506172839,0,0,0.06172839506172839,103.51851851851852,0)" xlink:href="#bd"/><use transform="matrix(0.06172839506172839,0,0,0.06172839506172839,110.8641975308642,0)" xlink:href="#aD"/><use transform="matrix(0.06172839506172839,0,0,0.06172839506172839,115.74074074074075,0)" xlink:href="#aE"/><use transform="matrix(0.06172839506172839,0,0,0.06172839506172839,128.08641975308643,0)" xlink:href="#aC"/><use transform="matrix(0.06172839506172839,0,0,0.06172839506172839,140.4320987654321,0)" xlink:href="#aG"/><use transform="matrix(0.06172839506172839,0,0,0.06172839506172839,152.77777777777777,0)" xlink:href="#be"/><use transform="matrix(0.06172839506172839,0,0,0.06172839506172839,163.88888888888889,0)" xlink:href="#bf"/></g><path fill="#333" d="M99-251c64 0 84 50 84 122C183-37 130 33 47-8c-14-7-20-23-25-40l30-5c6 39 69 39 84 7 9-19 16-44 16-74-10 22-31 35-62 35-49 0-73-33-73-83 0-54 28-83 82-83zm-1 141c31-1 51-18 51-49 0-36-14-67-51-67-34 0-49 23-49 58 0 34 15 58 49 58" id="bi"/><g id="E"><use transform="matrix(0.06172839506172839,0,0,0.06172839506172839,0,0)" xlink:href="#bi"/><use transform="matrix(0.06172839506172839,0,0,0.06172839506172839,12.345679012345679,0)" xlink:href="#aS"/></g><path fill="#333" d="M143 4C61 4 22-44 18-125c-5-107 100-154 193-111 17 8 29 25 37 43l-32 9c-13-25-37-40-76-40-61 0-88 39-88 99 0 61 29 100 91 101 35 0 62-11 79-27v-45h-74v-28h105v86C228-13 192 4 143 4" id="bj"/><g id="F"><use transform="matrix(0.06172839506172839,0,0,0.06172839506172839,0,0)" xlink:href="#bj"/><use transform="matrix(0.06172839506172839,0,0,0.06172839506172839,17.28395061728395,0)" xlink:href="#aG"/><use transform="matrix(0.06172839506172839,0,0,0.06172839506172839,29.629629629629626,0)" xlink:href="#az"/><use transform="matrix(0.06172839506172839,0,0,0.06172839506172839,35.80246913580247,0)" xlink:href="#aH"/></g><g id="G"><use transform="matrix(0.06172839506172839,0,0,0.06172839506172839,0,0)" xlink:href="#az"/><use transform="matrix(0.06172839506172839,0,0,0.06172839506172839,6.172839506172839,0)" xlink:href="#aG"/><use transform="matrix(0.06172839506172839,0,0,0.06172839506172839,18.51851851851852,0)" xlink:href="#aH"/><use transform="matrix(0.06172839506172839,0,0,0.06172839506172839,29.62962962962963,0)" xlink:href="#az"/><use transform="matrix(0.06172839506172839,0,0,0.06172839506172839,35.80246913580247,0)" xlink:href="#aH"/></g><g id="H"><use transform="matrix(0.06172839506172839,0,0,0.06172839506172839,0,0)" xlink:href="#aK"/><use transform="matrix(0.06172839506172839,0,0,0.06172839506172839,15.987654320987653,0)" xlink:href="#aD"/><use transform="matrix(0.06172839506172839,0,0,0.06172839506172839,20.864197530864196,0)" xlink:href="#az"/><use transform="matrix(0.06172839506172839,0,0,0.06172839506172839,27.037037037037035,0)" xlink:href="#aU"/></g><g id="I"><use transform="matrix(0.06172839506172839,0,0,0.06172839506172839,0,0)" xlink:href="#aJ"/><use transform="matrix(0.06172839506172839,0,0,0.06172839506172839,11.11111111111111,0)" xlink:href="#av"/><use transform="matrix(0.06172839506172839,0,0,0.06172839506172839,23.45679012345679,0)" xlink:href="#aN"/><use transform="matrix(0.06172839506172839,0,0,0.06172839506172839,28.333333333333336,0)" xlink:href="#aD"/><use transform="matrix(0.06172839506172839,0,0,0.06172839506172839,33.20987654320988,0)" xlink:href="#aC"/></g><g id="J"><use transform="matrix(0.06172839506172839,0,0,0.06172839506172839,0,0)" xlink:href="#ay"/><use transform="matrix(0.06172839506172839,0,0,0.06172839506172839,7.345679012345679,0)" xlink:href="#aG"/><use transform="matrix(0.06172839506172839,0,0,0.06172839506172839,19.691358024691358,0)" xlink:href="#aH"/><use transform="matrix(0.06172839506172839,0,0,0.06172839506172839,30.80246913580247,0)" xlink:href="#bb"/><use transform="matrix(0.06172839506172839,0,0,0.06172839506172839,43.148148148148145,0)" xlink:href="#aN"/><use transform="matrix(0.06172839506172839,0,0,0.06172839506172839,48.02469135802469,0)" xlink:href="#az"/><use transform="matrix(0.06172839506172839,0,0,0.06172839506172839,54.19753086419753,0)" xlink:href="#aH"/></g><g id="K"><use transform="matrix(0.06172839506172839,0,0,0.06172839506172839,0,0)" xlink:href="#aD"/><use transform="matrix(0.06172839506172839,0,0,0.06172839506172839,4.876543209876543,0)" xlink:href="#aE"/></g><g id="L"><use transform="matrix(0.06172839506172839,0,0,0.06172839506172839,0,0)" xlink:href="#az"/><use transform="matrix(0.06172839506172839,0,0,0.06172839506172839,6.172839506172839,0)" xlink:href="#aU"/><use transform="matrix(0.06172839506172839,0,0,0.06172839506172839,18.51851851851852,0)" xlink:href="#aG"/></g><g id="M"><use transform="matrix(0.06172839506172839,0,0,0.06172839506172839,0,0)" xlink:href="#aD"/><use transform="matrix(0.06172839506172839,0,0,0.06172839506172839,4.876543209876543,0)" xlink:href="#aE"/><use transform="matrix(0.06172839506172839,0,0,0.06172839506172839,17.22222222222222,0)" xlink:href="#az"/><use transform="matrix(0.06172839506172839,0,0,0.06172839506172839,23.39506172839506,0)" xlink:href="#ay"/><use transform="matrix(0.06172839506172839,0,0,0.06172839506172839,30.74074074074074,0)" xlink:href="#ax"/><use transform="matrix(0.06172839506172839,0,0,0.06172839506172839,43.08641975308642,0)" xlink:href="#aC"/><use transform="matrix(0.06172839506172839,0,0,0.06172839506172839,55.432098765432094,0)" xlink:href="#bb"/><use transform="matrix(0.06172839506172839,0,0,0.06172839506172839,67.77777777777777,0)" xlink:href="#aW"/><use transform="matrix(0.06172839506172839,0,0,0.06172839506172839,78.88888888888889,0)" xlink:href="#aG"/><use transform="matrix(0.06172839506172839,0,0,0.06172839506172839,91.23456790123457,0)" xlink:href="#aC"/></g><path fill="#333" d="M54-142c48-35 137-8 131 61C196 18 31 33 14-55l32-4c7 23 22 37 52 37 35-1 51-22 54-58 4-55-73-65-99-34H22l8-134h141v27H59" id="bk"/><g id="N"><use transform="matrix(0.06172839506172839,0,0,0.06172839506172839,0,0)" xlink:href="#bk"/><use transform="matrix(0.06172839506172839,0,0,0.06172839506172839,12.345679012345679,0)" xlink:href="#aS"/><use transform="matrix(0.06172839506172839,0,0,0.06172839506172839,18.51851851851852,0)" xlink:href="#bj"/><use transform="matrix(0.06172839506172839,0,0,0.06172839506172839,35.80246913580247,0)" xlink:href="#aG"/><use transform="matrix(0.06172839506172839,0,0,0.06172839506172839,48.148148148148145,0)" xlink:href="#az"/><use transform="matrix(0.06172839506172839,0,0,0.06172839506172839,54.32098765432099,0)" xlink:href="#aF"/><use transform="matrix(0.06172839506172839,0,0,0.06172839506172839,65.37037037037037,0)" xlink:href="#aG"/><use transform="matrix(0.06172839506172839,0,0,0.06172839506172839,77.71604938271605,0)" xlink:href="#aH"/><use transform="matrix(0.06172839506172839,0,0,0.06172839506172839,88.82716049382717,0)" xlink:href="#az"/><use transform="matrix(0.06172839506172839,0,0,0.06172839506172839,95,0)" xlink:href="#au"/><use transform="matrix(0.06172839506172839,0,0,0.06172839506172839,107.34567901234568,0)" xlink:href="#aD"/><use transform="matrix(0.06172839506172839,0,0,0.06172839506172839,112.22222222222223,0)" xlink:href="#aH"/><use transform="matrix(0.06172839506172839,0,0,0.06172839506172839,123.33333333333334,0)" xlink:href="#az"/><use transform="matrix(0.06172839506172839,0,0,0.06172839506172839,129.50617283950618,0)" xlink:href="#bd"/><use transform="matrix(0.06172839506172839,0,0,0.06172839506172839,136.85185185185185,0)" xlink:href="#aD"/><use transform="matrix(0.06172839506172839,0,0,0.06172839506172839,141.72839506172838,0)" xlink:href="#aE"/><use transform="matrix(0.06172839506172839,0,0,0.06172839506172839,154.07407407407405,0)" xlink:href="#aC"/><use transform="matrix(0.06172839506172839,0,0,0.06172839506172839,166.41975308641972,0)" xlink:href="#aG"/><use transform="matrix(0.06172839506172839,0,0,0.06172839506172839,178.7654320987654,0)" xlink:href="#be"/><use transform="matrix(0.06172839506172839,0,0,0.06172839506172839,189.8765432098765,0)" xlink:href="#bf"/></g><path fill="#333" d="M110-160c48 1 74 30 74 79 0 53-28 85-80 85-65 0-83-55-86-122-5-90 50-162 133-122 14 7 22 21 27 39l-31 6c-5-40-67-38-82-6-9 19-15 44-15 74 11-20 30-34 60-33zm-7 138c34 0 49-23 49-58s-16-56-50-56c-29 0-50 16-49 49 1 36 15 65 50 65" id="bl"/><g id="O"><use transform="matrix(0.06172839506172839,0,0,0.06172839506172839,0,0)" xlink:href="#bl"/><use transform="matrix(0.06172839506172839,0,0,0.06172839506172839,12.345679012345679,0)" xlink:href="#aS"/></g><g id="P"><use transform="matrix(0.06172839506172839,0,0,0.06172839506172839,0,0)" xlink:href="#bh"/><use transform="matrix(0.06172839506172839,0,0,0.06172839506172839,15.987654320987653,0)" xlink:href="#aG"/><use transform="matrix(0.06172839506172839,0,0,0.06172839506172839,28.333333333333332,0)" xlink:href="#aT"/><use transform="matrix(0.06172839506172839,0,0,0.06172839506172839,40.67901234567901,0)" xlink:href="#aD"/><use transform="matrix(0.06172839506172839,0,0,0.06172839506172839,45.55555555555556,0)" xlink:href="#aH"/><use transform="matrix(0.06172839506172839,0,0,0.06172839506172839,56.66666666666667,0)" xlink:href="#az"/><use transform="matrix(0.06172839506172839,0,0,0.06172839506172839,62.83950617283951,0)" xlink:href="#aG"/><use transform="matrix(0.06172839506172839,0,0,0.06172839506172839,75.18518518518519,0)" xlink:href="#ay"/><use transform="matrix(0.06172839506172839,0,0,0.06172839506172839,82.53086419753087,0)" xlink:href="#aG"/><use transform="matrix(0.06172839506172839,0,0,0.06172839506172839,94.87654320987656,0)" xlink:href="#aC"/></g><g id="Q"><use transform="matrix(0.06172839506172839,0,0,0.06172839506172839,0,0)" xlink:href="#az"/><use transform="matrix(0.06172839506172839,0,0,0.06172839506172839,6.172839506172839,0)" xlink:href="#aD"/><use transform="matrix(0.06172839506172839,0,0,0.06172839506172839,11.049382716049383,0)" xlink:href="#aO"/><use transform="matrix(0.06172839506172839,0,0,0.06172839506172839,29.50617283950617,0)" xlink:href="#aG"/></g><path fill="#333" d="M134-131c28 9 52 24 51 62-1 50-34 73-85 73S17-19 16-69c0-36 21-54 49-61-75-25-45-126 34-121 46 3 78 18 79 63 0 33-17 51-44 57zm-34-11c31 1 46-15 46-44 0-28-17-43-47-42-29 0-46 13-45 42 1 28 16 44 46 44zm1 122c35 0 51-18 51-52 0-30-18-46-53-46-33 0-51 17-51 47 0 34 19 51 53 51" id="bm"/><path fill="#333" d="M137 0h-34L2-248h35l83 218 83-218h36" id="bn"/><g id="R"><use transform="matrix(0.06172839506172839,0,0,0.06172839506172839,0,0)" xlink:href="#bm"/><use transform="matrix(0.06172839506172839,0,0,0.06172839506172839,12.345679012345679,0)" xlink:href="#aS"/><use transform="matrix(0.06172839506172839,0,0,0.06172839506172839,18.51851851851852,0)" xlink:href="#bj"/><use transform="matrix(0.06172839506172839,0,0,0.06172839506172839,35.80246913580247,0)" xlink:href="#aG"/><use transform="matrix(0.06172839506172839,0,0,0.06172839506172839,48.148148148148145,0)" xlink:href="#az"/><use transform="matrix(0.06172839506172839,0,0,0.06172839506172839,54.32098765432099,0)" xlink:href="#bn"/><use transform="matrix(0.06172839506172839,0,0,0.06172839506172839,67.46913580246914,0)" xlink:href="#av"/><use transform="matrix(0.06172839506172839,0,0,0.06172839506172839,79.81481481481482,0)" xlink:href="#aN"/><use transform="matrix(0.06172839506172839,0,0,0.06172839506172839,84.69135802469137,0)" xlink:href="#aD"/><use transform="matrix(0.06172839506172839,0,0,0.06172839506172839,89.56790123456791,0)" xlink:href="#aC"/><use transform="matrix(0.06172839506172839,0,0,0.06172839506172839,101.9135802469136,0)" xlink:href="#av"/><use transform="matrix(0.06172839506172839,0,0,0.06172839506172839,114.25925925925928,0)" xlink:href="#az"/><use transform="matrix(0.06172839506172839,0,0,0.06172839506172839,120.43209876543212,0)" xlink:href="#aG"/><use transform="matrix(0.06172839506172839,0,0,0.06172839506172839,132.7777777777778,0)" xlink:href="#au"/><use transform="matrix(0.06172839506172839,0,0,0.06172839506172839,145.12345679012347,0)" xlink:href="#aD"/><use transform="matrix(0.06172839506172839,0,0,0.06172839506172839,150,0)" xlink:href="#aH"/><use transform="matrix(0.06172839506172839,0,0,0.06172839506172839,161.11111111111111,0)" xlink:href="#az"/><use transform="matrix(0.06172839506172839,0,0,0.06172839506172839,167.28395061728395,0)" xlink:href="#bd"/><use transform="matrix(0.06172839506172839,0,0,0.06172839506172839,174.62962962962962,0)" xlink:href="#aD"/><use transform="matrix(0.06172839506172839,0,0,0.06172839506172839,179.50617283950615,0)" xlink:href="#aE"/><use transform="matrix(0.06172839506172839,0,0,0.06172839506172839,191.85185185185182,0)" xlink:href="#aC"/><use transform="matrix(0.06172839506172839,0,0,0.06172839506172839,204.1975308641975,0)" xlink:href="#aG"/><use transform="matrix(0.06172839506172839,0,0,0.06172839506172839,216.54320987654316,0)" xlink:href="#be"/><use transform="matrix(0.06172839506172839,0,0,0.06172839506172839,227.65432098765427,0)" xlink:href="#bf"/></g><path fill="#333" d="M101-251c68 0 85 55 85 127S166 4 100 4C33 4 14-52 14-124c0-73 17-127 87-127zm-1 229c47 0 54-49 54-102s-4-102-53-102c-51 0-55 48-55 102 0 53 5 102 54 102" id="bo"/><g id="S"><use transform="matrix(0.06172839506172839,0,0,0.06172839506172839,0,0)" xlink:href="#aR"/><use transform="matrix(0.06172839506172839,0,0,0.06172839506172839,12.345679012345679,0)" xlink:href="#bo"/><use transform="matrix(0.06172839506172839,0,0,0.06172839506172839,24.691358024691358,0)" xlink:href="#aS"/><use transform="matrix(0.06172839506172839,0,0,0.06172839506172839,30.864197530864196,0)" xlink:href="#aQ"/><use transform="matrix(0.06172839506172839,0,0,0.06172839506172839,45.67901234567901,0)" xlink:href="#bb"/><use transform="matrix(0.06172839506172839,0,0,0.06172839506172839,58.02469135802469,0)" xlink:href="#aw"/><use transform="matrix(0.06172839506172839,0,0,0.06172839506172839,70.37037037037037,0)" xlink:href="#az"/><use transform="matrix(0.06172839506172839,0,0,0.06172839506172839,76.5432098765432,0)" xlink:href="#ay"/><use transform="matrix(0.06172839506172839,0,0,0.06172839506172839,83.88888888888889,0)" xlink:href="#av"/><use transform="matrix(0.06172839506172839,0,0,0.06172839506172839,96.23456790123457,0)" xlink:href="#aW"/><use transform="matrix(0.06172839506172839,0,0,0.06172839506172839,107.34567901234568,0)" xlink:href="#az"/><use transform="matrix(0.06172839506172839,0,0,0.06172839506172839,113.51851851851852,0)" xlink:href="#aH"/></g><g id="T"><use transform="matrix(0.06172839506172839,0,0,0.06172839506172839,0,0)" xlink:href="#ay"/><use transform="matrix(0.06172839506172839,0,0,0.06172839506172839,7.345679012345679,0)" xlink:href="#aG"/><use transform="matrix(0.06172839506172839,0,0,0.06172839506172839,19.691358024691358,0)" xlink:href="#aT"/><use transform="matrix(0.06172839506172839,0,0,0.06172839506172839,32.03703703703704,0)" xlink:href="#aD"/><use transform="matrix(0.06172839506172839,0,0,0.06172839506172839,36.91358024691358,0)" xlink:href="#aH"/><use transform="matrix(0.06172839506172839,0,0,0.06172839506172839,48.0246913580247,0)" xlink:href="#az"/><use transform="matrix(0.06172839506172839,0,0,0.06172839506172839,54.19753086419754,0)" xlink:href="#aG"/><use transform="matrix(0.06172839506172839,0,0,0.06172839506172839,66.54320987654322,0)" xlink:href="#ay"/><use transform="matrix(0.06172839506172839,0,0,0.06172839506172839,73.8888888888889,0)" xlink:href="#aG"/><use transform="matrix(0.06172839506172839,0,0,0.06172839506172839,86.23456790123458,0)" xlink:href="#aC"/></g><g id="U"><use transform="matrix(0.06172839506172839,0,0,0.06172839506172839,0,0)" xlink:href="#av"/><use transform="matrix(0.06172839506172839,0,0,0.06172839506172839,12.345679012345679,0)" xlink:href="#aE"/><use transform="matrix(0.06172839506172839,0,0,0.06172839506172839,24.691358024691358,0)" xlink:href="#aC"/></g><g id="V"><use transform="matrix(0.06172839506172839,0,0,0.06172839506172839,0,0)" xlink:href="#ax"/><use transform="matrix(0.06172839506172839,0,0,0.06172839506172839,12.345679012345679,0)" xlink:href="#aE"/><use transform="matrix(0.06172839506172839,0,0,0.06172839506172839,24.691358024691358,0)" xlink:href="#aG"/><use transform="matrix(0.06172839506172839,0,0,0.06172839506172839,37.03703703703704,0)" xlink:href="#aH"/></g><g id="W"><use transform="matrix(0.06172839506172839,0,0,0.06172839506172839,0,0)" xlink:href="#ay"/><use transform="matrix(0.06172839506172839,0,0,0.06172839506172839,7.345679012345679,0)" xlink:href="#aG"/><use transform="matrix(0.06172839506172839,0,0,0.06172839506172839,19.691358024691358,0)" xlink:href="#aH"/><use transform="matrix(0.06172839506172839,0,0,0.06172839506172839,30.80246913580247,0)" xlink:href="#bb"/><use transform="matrix(0.06172839506172839,0,0,0.06172839506172839,43.148148148148145,0)" xlink:href="#aN"/><use transform="matrix(0.06172839506172839,0,0,0.06172839506172839,48.02469135802469,0)" xlink:href="#az"/></g><g id="X"><use transform="matrix(0.06172839506172839,0,0,0.06172839506172839,0,0)" xlink:href="#aG"/><use transform="matrix(0.06172839506172839,0,0,0.06172839506172839,12.345679012345679,0)" xlink:href="#aJ"/><use transform="matrix(0.06172839506172839,0,0,0.06172839506172839,23.45679012345679,0)" xlink:href="#aG"/><use transform="matrix(0.06172839506172839,0,0,0.06172839506172839,35.80246913580247,0)" xlink:href="#ay"/><use transform="matrix(0.06172839506172839,0,0,0.06172839506172839,43.148148148148145,0)" xlink:href="#aA"/></g><g id="Y"><use transform="matrix(0.06172839506172839,0,0,0.06172839506172839,0,0)" xlink:href="#aU"/><use transform="matrix(0.06172839506172839,0,0,0.06172839506172839,12.345679012345679,0)" xlink:href="#av"/><use transform="matrix(0.06172839506172839,0,0,0.06172839506172839,24.691358024691358,0)" xlink:href="#aN"/><use transform="matrix(0.06172839506172839,0,0,0.06172839506172839,29.5679012345679,0)" xlink:href="#aV"/></g><g id="Z"><use transform="matrix(0.06172839506172839,0,0,0.06172839506172839,0,0)" xlink:href="#aU"/><use transform="matrix(0.06172839506172839,0,0,0.06172839506172839,12.345679012345679,0)" xlink:href="#ax"/><use transform="matrix(0.06172839506172839,0,0,0.06172839506172839,24.691358024691358,0)" xlink:href="#bb"/><use transform="matrix(0.06172839506172839,0,0,0.06172839506172839,37.03703703703704,0)" xlink:href="#ay"/></g><g id="aa"><use transform="matrix(0.06172839506172839,0,0,0.06172839506172839,0,0)" xlink:href="#aR"/><use transform="matrix(0.06172839506172839,0,0,0.06172839506172839,12.345679012345679,0)" xlink:href="#aX"/><use transform="matrix(0.06172839506172839,0,0,0.06172839506172839,24.691358024691358,0)" xlink:href="#aS"/></g><path fill="#333" d="M160-131c35 5 61 23 61 61C221 17 115-2 30 0v-248c76 3 177-17 177 60 0 33-19 50-47 57zm-97-11c50-1 110 9 110-42 0-47-63-36-110-37v79zm0 115c55-2 124 14 124-45 0-56-70-42-124-44v89" id="bp"/><path fill="#333" d="M63-220v92h138v28H63V0H30v-248h175v28H63" id="bq"/><g id="ab"><use transform="matrix(0.06172839506172839,0,0,0.06172839506172839,0,0)" xlink:href="#bp"/><use transform="matrix(0.06172839506172839,0,0,0.06172839506172839,14.814814814814813,0)" xlink:href="#ay"/><use transform="matrix(0.06172839506172839,0,0,0.06172839506172839,22.160493827160494,0)" xlink:href="#bb"/><use transform="matrix(0.06172839506172839,0,0,0.06172839506172839,34.50617283950617,0)" xlink:href="#az"/><use transform="matrix(0.06172839506172839,0,0,0.06172839506172839,40.67901234567901,0)" xlink:href="#aG"/><use transform="matrix(0.06172839506172839,0,0,0.06172839506172839,53.02469135802469,0)" xlink:href="#bq"/><use transform="matrix(0.06172839506172839,0,0,0.06172839506172839,66.5432098765432,0)" xlink:href="#ax"/><use transform="matrix(0.06172839506172839,0,0,0.06172839506172839,78.88888888888889,0)" xlink:href="#ay"/><use transform="matrix(0.06172839506172839,0,0,0.06172839506172839,86.23456790123457,0)" xlink:href="#aW"/><use transform="matrix(0.06172839506172839,0,0,0.06172839506172839,97.34567901234568,0)" xlink:href="#aG"/><use transform="matrix(0.06172839506172839,0,0,0.06172839506172839,109.69135802469137,0)" xlink:href="#aY"/><use transform="matrix(0.06172839506172839,0,0,0.06172839506172839,124.50617283950618,0)" xlink:href="#aN"/><use transform="matrix(0.06172839506172839,0,0,0.06172839506172839,129.3827160493827,0)" xlink:href="#aT"/><use transform="matrix(0.06172839506172839,0,0,0.06172839506172839,141.72839506172838,0)" xlink:href="#ax"/><use transform="matrix(0.06172839506172839,0,0,0.06172839506172839,154.07407407407405,0)" xlink:href="#ay"/><use transform="matrix(0.06172839506172839,0,0,0.06172839506172839,161.41975308641972,0)" xlink:href="#aD"/><use transform="matrix(0.06172839506172839,0,0,0.06172839506172839,166.29629629629625,0)" xlink:href="#az"/><use transform="matrix(0.06172839506172839,0,0,0.06172839506172839,172.46913580246908,0)" xlink:href="#aU"/><use transform="matrix(0.06172839506172839,0,0,0.06172839506172839,184.81481481481475,0)" xlink:href="#aO"/><use transform="matrix(0.06172839506172839,0,0,0.06172839506172839,203.27160493827154,0)" xlink:href="#bd"/><use transform="matrix(0.06172839506172839,0,0,0.06172839506172839,210.6172839506172,0)" xlink:href="#bh"/><use transform="matrix(0.06172839506172839,0,0,0.06172839506172839,226.60493827160485,0)" xlink:href="#aG"/><use transform="matrix(0.06172839506172839,0,0,0.06172839506172839,238.95061728395052,0)" xlink:href="#aH"/><use transform="matrix(0.06172839506172839,0,0,0.06172839506172839,250.06172839506164,0)" xlink:href="#aQ"/><use transform="matrix(0.06172839506172839,0,0,0.06172839506172839,264.87654320987644,0)" xlink:href="#bb"/><use transform="matrix(0.06172839506172839,0,0,0.06172839506172839,277.2222222222221,0)" xlink:href="#aw"/><use transform="matrix(0.06172839506172839,0,0,0.06172839506172839,289.5679012345678,0)" xlink:href="#bn"/><use transform="matrix(0.06172839506172839,0,0,0.06172839506172839,302.71604938271594,0)" xlink:href="#av"/><use transform="matrix(0.06172839506172839,0,0,0.06172839506172839,315.0617283950616,0)" xlink:href="#aN"/><use transform="matrix(0.06172839506172839,0,0,0.06172839506172839,319.93827160493817,0)" xlink:href="#bf"/></g><g id="ac"><use transform="matrix(0.06172839506172839,0,0,0.06172839506172839,0,0)" xlink:href="#aR"/><use transform="matrix(0.06172839506172839,0,0,0.06172839506172839,10.679012345679013,0)" xlink:href="#aR"/><use transform="matrix(0.06172839506172839,0,0,0.06172839506172839,23.02469135802469,0)" xlink:href="#aS"/></g><g id="ad"><use transform="matrix(0.06172839506172839,0,0,0.06172839506172839,0,0)" xlink:href="#aQ"/><use transform="matrix(0.06172839506172839,0,0,0.06172839506172839,14.814814814814813,0)" xlink:href="#aU"/><use transform="matrix(0.06172839506172839,0,0,0.06172839506172839,27.160493827160494,0)" xlink:href="#ax"/><use transform="matrix(0.06172839506172839,0,0,0.06172839506172839,39.50617283950617,0)" xlink:href="#aK"/><use transform="matrix(0.06172839506172839,0,0,0.06172839506172839,55.49382716049382,0)" xlink:href="#aH"/></g><g id="ae"><use transform="matrix(0.06172839506172839,0,0,0.06172839506172839,0,0)" xlink:href="#aT"/><use transform="matrix(0.06172839506172839,0,0,0.06172839506172839,12.345679012345679,0)" xlink:href="#ay"/><use transform="matrix(0.06172839506172839,0,0,0.06172839506172839,19.691358024691358,0)" xlink:href="#av"/><use transform="matrix(0.06172839506172839,0,0,0.06172839506172839,32.03703703703704,0)" xlink:href="#aP"/><use transform="matrix(0.06172839506172839,0,0,0.06172839506172839,44.382716049382715,0)" xlink:href="#aU"/><use transform="matrix(0.06172839506172839,0,0,0.06172839506172839,56.72839506172839,0)" xlink:href="#aD"/><use transform="matrix(0.06172839506172839,0,0,0.06172839506172839,61.60493827160494,0)" xlink:href="#aW"/></g><g id="af"><use transform="matrix(0.06172839506172839,0,0,0.06172839506172839,0,0)" xlink:href="#az"/><use transform="matrix(0.06172839506172839,0,0,0.06172839506172839,6.172839506172839,0)" xlink:href="#aU"/><use transform="matrix(0.06172839506172839,0,0,0.06172839506172839,18.51851851851852,0)" xlink:href="#aG"/><use transform="matrix(0.06172839506172839,0,0,0.06172839506172839,30.864197530864196,0)" xlink:href="#aH"/><use transform="matrix(0.06172839506172839,0,0,0.06172839506172839,41.9753086419753,0)" xlink:href="#aG"/></g><g id="ag"><use transform="matrix(0.06172839506172839,0,0,0.06172839506172839,0,0)" xlink:href="#aJ"/><use transform="matrix(0.06172839506172839,0,0,0.06172839506172839,11.11111111111111,0)" xlink:href="#av"/><use transform="matrix(0.06172839506172839,0,0,0.06172839506172839,23.45679012345679,0)" xlink:href="#aN"/><use transform="matrix(0.06172839506172839,0,0,0.06172839506172839,28.333333333333336,0)" xlink:href="#bb"/><use transform="matrix(0.06172839506172839,0,0,0.06172839506172839,40.67901234567901,0)" xlink:href="#aG"/><use transform="matrix(0.06172839506172839,0,0,0.06172839506172839,53.02469135802469,0)" xlink:href="#aH"/></g><g id="ah"><use transform="matrix(0.06172839506172839,0,0,0.06172839506172839,0,0)" xlink:href="#aR"/><use transform="matrix(0.06172839506172839,0,0,0.06172839506172839,12.345679012345679,0)" xlink:href="#bl"/><use transform="matrix(0.06172839506172839,0,0,0.06172839506172839,24.691358024691358,0)" xlink:href="#aS"/></g><path fill="#333" d="M30-248c118-7 216 8 213 122C240-48 200 0 122 0H30v-248zM63-27c89 8 146-16 146-99s-60-101-146-95v194" id="br"/><g id="ai"><use transform="matrix(0.06172839506172839,0,0,0.06172839506172839,0,0)" xlink:href="#br"/><use transform="matrix(0.06172839506172839,0,0,0.06172839506172839,15.987654320987653,0)" xlink:href="#aD"/><use transform="matrix(0.06172839506172839,0,0,0.06172839506172839,20.864197530864196,0)" xlink:href="#aH"/><use transform="matrix(0.06172839506172839,0,0,0.06172839506172839,31.975308641975307,0)" xlink:href="#aP"/><use transform="matrix(0.06172839506172839,0,0,0.06172839506172839,44.32098765432099,0)" xlink:href="#aN"/><use transform="matrix(0.06172839506172839,0,0,0.06172839506172839,49.19753086419753,0)" xlink:href="#av"/><use transform="matrix(0.06172839506172839,0,0,0.06172839506172839,61.54320987654321,0)" xlink:href="#aA"/><use transform="matrix(0.06172839506172839,0,0,0.06172839506172839,72.65432098765432,0)" xlink:href="#aH"/></g><g id="aj"><use transform="matrix(0.06172839506172839,0,0,0.06172839506172839,0,0)" xlink:href="#av"/><use transform="matrix(0.06172839506172839,0,0,0.06172839506172839,12.345679012345679,0)" xlink:href="#ay"/><use transform="matrix(0.06172839506172839,0,0,0.06172839506172839,19.691358024691358,0)" xlink:href="#ay"/><use transform="matrix(0.06172839506172839,0,0,0.06172839506172839,27.037037037037038,0)" xlink:href="#av"/><use transform="matrix(0.06172839506172839,0,0,0.06172839506172839,39.382716049382715,0)" xlink:href="#aA"/></g><g id="ak"><use transform="matrix(0.06172839506172839,0,0,0.06172839506172839,0,0)" xlink:href="#ay"/><use transform="matrix(0.06172839506172839,0,0,0.06172839506172839,7.345679012345679,0)" xlink:href="#aG"/><use transform="matrix(0.06172839506172839,0,0,0.06172839506172839,19.691358024691358,0)" xlink:href="#aH"/><use transform="matrix(0.06172839506172839,0,0,0.06172839506172839,30.80246913580247,0)" xlink:href="#aP"/><use transform="matrix(0.06172839506172839,0,0,0.06172839506172839,43.148148148148145,0)" xlink:href="#aG"/><use transform="matrix(0.06172839506172839,0,0,0.06172839506172839,55.49382716049382,0)" xlink:href="#aW"/><use transform="matrix(0.06172839506172839,0,0,0.06172839506172839,66.60493827160494,0)" xlink:href="#az"/><use transform="matrix(0.06172839506172839,0,0,0.06172839506172839,72.77777777777777,0)" xlink:href="#aD"/><use transform="matrix(0.06172839506172839,0,0,0.06172839506172839,77.65432098765432,0)" xlink:href="#aJ"/><use transform="matrix(0.06172839506172839,0,0,0.06172839506172839,88.76543209876543,0)" xlink:href="#aG"/></g><g id="al"><use transform="matrix(0.06172839506172839,0,0,0.06172839506172839,0,0)" xlink:href="#aH"/><use transform="matrix(0.06172839506172839,0,0,0.06172839506172839,11.11111111111111,0)" xlink:href="#bb"/><use transform="matrix(0.06172839506172839,0,0,0.06172839506172839,23.45679012345679,0)" xlink:href="#aO"/></g><g id="am"><use transform="matrix(0.06172839506172839,0,0,0.06172839506172839,0,0)" xlink:href="#aR"/><use transform="matrix(0.06172839506172839,0,0,0.06172839506172839,12.345679012345679,0)" xlink:href="#ba"/><use transform="matrix(0.06172839506172839,0,0,0.06172839506172839,24.691358024691358,0)" xlink:href="#aS"/></g><g id="an"><use transform="matrix(0.06172839506172839,0,0,0.06172839506172839,0,0)" xlink:href="#bh"/><use transform="matrix(0.06172839506172839,0,0,0.06172839506172839,15.987654320987653,0)" xlink:href="#aG"/><use transform="matrix(0.06172839506172839,0,0,0.06172839506172839,28.333333333333332,0)" xlink:href="#az"/><use transform="matrix(0.06172839506172839,0,0,0.06172839506172839,34.50617283950617,0)" xlink:href="#bb"/><use transform="matrix(0.06172839506172839,0,0,0.06172839506172839,46.85185185185185,0)" xlink:href="#ay"/><use transform="matrix(0.06172839506172839,0,0,0.06172839506172839,54.197530864197525,0)" xlink:href="#aE"/><use transform="matrix(0.06172839506172839,0,0,0.06172839506172839,66.5432098765432,0)" xlink:href="#aH"/></g><g id="ao"><use transform="matrix(0.06172839506172839,0,0,0.06172839506172839,0,0)" xlink:href="#aO"/><use transform="matrix(0.06172839506172839,0,0,0.06172839506172839,18.456790123456788,0)" xlink:href="#av"/><use transform="matrix(0.06172839506172839,0,0,0.06172839506172839,30.80246913580247,0)" xlink:href="#be"/><use transform="matrix(0.06172839506172839,0,0,0.06172839506172839,41.91358024691358,0)" xlink:href="#aD"/><use transform="matrix(0.06172839506172839,0,0,0.06172839506172839,46.79012345679013,0)" xlink:href="#aO"/><use transform="matrix(0.06172839506172839,0,0,0.06172839506172839,65.24691358024691,0)" xlink:href="#bb"/><use transform="matrix(0.06172839506172839,0,0,0.06172839506172839,77.5925925925926,0)" xlink:href="#aO"/></g><g id="ap"><use transform="matrix(0.06172839506172839,0,0,0.06172839506172839,0,0)" xlink:href="#aR"/><use transform="matrix(0.06172839506172839,0,0,0.06172839506172839,12.345679012345679,0)" xlink:href="#bc"/><use transform="matrix(0.06172839506172839,0,0,0.06172839506172839,24.691358024691358,0)" xlink:href="#aS"/><use transform="matrix(0.06172839506172839,0,0,0.06172839506172839,30.864197530864196,0)" xlink:href="#bp"/><use transform="matrix(0.06172839506172839,0,0,0.06172839506172839,45.67901234567901,0)" xlink:href="#ay"/><use transform="matrix(0.06172839506172839,0,0,0.06172839506172839,53.02469135802469,0)" xlink:href="#bb"/><use transform="matrix(0.06172839506172839,0,0,0.06172839506172839,65.37037037037037,0)" xlink:href="#az"/><use transform="matrix(0.06172839506172839,0,0,0.06172839506172839,71.5432098765432,0)" xlink:href="#aG"/><use transform="matrix(0.06172839506172839,0,0,0.06172839506172839,83.88888888888889,0)" xlink:href="#bq"/><use transform="matrix(0.06172839506172839,0,0,0.06172839506172839,97.4074074074074,0)" xlink:href="#ax"/><use transform="matrix(0.06172839506172839,0,0,0.06172839506172839,109.75308641975309,0)" xlink:href="#ay"/><use transform="matrix(0.06172839506172839,0,0,0.06172839506172839,117.09876543209877,0)" xlink:href="#aW"/><use transform="matrix(0.06172839506172839,0,0,0.06172839506172839,128.20987654320987,0)" xlink:href="#aG"/><use transform="matrix(0.06172839506172839,0,0,0.06172839506172839,140.55555555555554,0)" xlink:href="#aY"/><use transform="matrix(0.06172839506172839,0,0,0.06172839506172839,155.37037037037035,0)" xlink:href="#aN"/><use transform="matrix(0.06172839506172839,0,0,0.06172839506172839,160.24691358024688,0)" xlink:href="#aT"/><use transform="matrix(0.06172839506172839,0,0,0.06172839506172839,172.59259259259255,0)" xlink:href="#ax"/><use transform="matrix(0.06172839506172839,0,0,0.06172839506172839,184.93827160493822,0)" xlink:href="#ay"/><use transform="matrix(0.06172839506172839,0,0,0.06172839506172839,192.2839506172839,0)" xlink:href="#aD"/><use transform="matrix(0.06172839506172839,0,0,0.06172839506172839,197.16049382716042,0)" xlink:href="#az"/><use transform="matrix(0.06172839506172839,0,0,0.06172839506172839,203.33333333333326,0)" xlink:href="#aU"/><use transform="matrix(0.06172839506172839,0,0,0.06172839506172839,215.67901234567893,0)" xlink:href="#aO"/><use transform="matrix(0.06172839506172839,0,0,0.06172839506172839,234.1358024691357,0)" xlink:href="#aX"/><use transform="matrix(0.06172839506172839,0,0,0.06172839506172839,246.48148148148138,0)" xlink:href="#bd"/><use transform="matrix(0.06172839506172839,0,0,0.06172839506172839,253.82716049382702,0)" xlink:href="#bh"/><use transform="matrix(0.06172839506172839,0,0,0.06172839506172839,269.8148148148147,0)" xlink:href="#aG"/><use transform="matrix(0.06172839506172839,0,0,0.06172839506172839,282.1604938271604,0)" xlink:href="#aH"/><use transform="matrix(0.06172839506172839,0,0,0.06172839506172839,293.2716049382715,0)" xlink:href="#aQ"/><use transform="matrix(0.06172839506172839,0,0,0.06172839506172839,308.0864197530863,0)" xlink:href="#bb"/><use transform="matrix(0.06172839506172839,0,0,0.06172839506172839,320.432098765432,0)" xlink:href="#aw"/><use transform="matrix(0.06172839506172839,0,0,0.06172839506172839,332.77777777777766,0)" xlink:href="#bn"/><use transform="matrix(0.06172839506172839,0,0,0.06172839506172839,345.9259259259258,0)" xlink:href="#av"/><use transform="matrix(0.06172839506172839,0,0,0.06172839506172839,358.2716049382715,0)" xlink:href="#aN"/><use transform="matrix(0.06172839506172839,0,0,0.06172839506172839,363.14814814814804,0)" xlink:href="#bf"/></g><g id="aq"><use transform="matrix(0.06172839506172839,0,0,0.06172839506172839,0,0)" xlink:href="#aR"/><use transform="matrix(0.06172839506172839,0,0,0.06172839506172839,12.345679012345679,0)" xlink:href="#bk"/><use transform="matrix(0.06172839506172839,0,0,0.06172839506172839,24.691358024691358,0)" xlink:href="#aS"/></g><g id="ar"><use transform="matrix(0.06172839506172839,0,0,0.06172839506172839,0,0)" xlink:href="#aE"/><use transform="matrix(0.06172839506172839,0,0,0.06172839506172839,12.345679012345679,0)" xlink:href="#bb"/><use transform="matrix(0.06172839506172839,0,0,0.06172839506172839,24.691358024691358,0)" xlink:href="#aO"/><use transform="matrix(0.06172839506172839,0,0,0.06172839506172839,43.148148148148145,0)" xlink:href="#aw"/><use transform="matrix(0.06172839506172839,0,0,0.06172839506172839,55.49382716049382,0)" xlink:href="#aG"/><use transform="matrix(0.06172839506172839,0,0,0.06172839506172839,67.8395061728395,0)" xlink:href="#ay"/><use transform="matrix(0.06172839506172839,0,0,0.06172839506172839,75.18518518518519,0)" xlink:href="#aH"/></g><g id="as"><use transform="matrix(0.06172839506172839,0,0,0.06172839506172839,0,0)" xlink:href="#az"/><use transform="matrix(0.06172839506172839,0,0,0.06172839506172839,6.172839506172839,0)" xlink:href="#aU"/><use transform="matrix(0.06172839506172839,0,0,0.06172839506172839,18.51851851851852,0)" xlink:href="#av"/><use transform="matrix(0.06172839506172839,0,0,0.06172839506172839,30.864197530864196,0)" xlink:href="#az"/></g><g id="at"><use transform="matrix(0.06172839506172839,0,0,0.06172839506172839,0,0)" xlink:href="#aW"/><use transform="matrix(0.06172839506172839,0,0,0.06172839506172839,11.11111111111111,0)" xlink:href="#ax"/><use transform="matrix(0.06172839506172839,0,0,0.06172839506172839,23.45679012345679,0)" xlink:href="#aE"/><use transform="matrix(0.06172839506172839,0,0,0.06172839506172839,35.80246913580247,0)" xlink:href="#aH"/><use transform="matrix(0.06172839506172839,0,0,0.06172839506172839,46.91358024691358,0)" xlink:href="#az"/><use transform="matrix(0.06172839506172839,0,0,0.06172839506172839,53.086419753086425,0)" xlink:href="#aD"/><use transform="matrix(0.06172839506172839,0,0,0.06172839506172839,57.96296296296297,0)" xlink:href="#az"/><use transform="matrix(0.06172839506172839,0,0,0.06172839506172839,64.13580246913581,0)" xlink:href="#bb"/><use transform="matrix(0.06172839506172839,0,0,0.06172839506172839,76.4814814814815,0)" xlink:href="#az"/><use transform="matrix(0.06172839506172839,0,0,0.06172839506172839,82.65432098765433,0)" xlink:href="#aG"/></g></defs></g></svg>