<?xml version="1.0" encoding="UTF-8" standalone="no"?><svg xmlns="http://www.w3.org/2000/svg" xmlns:xlink="http://www.w3.org/1999/xlink" contentScriptType="application/ecmascript" contentStyleType="text/css" height="471px" preserveAspectRatio="none" style="width:516px;height:471px;background:#FFFFFF;" version="1.1" viewBox="0 0 516 471" width="516px" zoomAndPan="magnify"><defs><filter height="300%" id="f3dqpyrh45c76" width="300%" x="-1" y="-1"><feGaussianBlur result="blurOut" stdDeviation="2.0"/><feColorMatrix in="blurOut" result="blurOut2" type="matrix" values="0 0 0 0 0 0 0 0 0 0 0 0 0 0 0 0 0 0 .4 0"/><feOffset dx="4.0" dy="4.0" in="blurOut2" result="blurOut3"/><feBlend in="SourceGraphic" in2="blurOut3" mode="normal"/></filter></defs><g><rect fill="#FFFFFF" filter="url(#f3dqpyrh45c76)" height="177.9297" style="stroke:#000000;stroke-width:2.0;" width="492.5" x="10" y="192.6953"/><line style="stroke:#A80036;stroke-width:1.0;stroke-dasharray:5.0,5.0;" x1="136" x2="136" y1="88.2969" y2="387.625"/><line style="stroke:#A80036;stroke-width:1.0;stroke-dasharray:5.0,5.0;" x1="453.5" x2="453.5" y1="88.2969" y2="387.625"/><text fill="#000000" font-family="sans-serif" font-size="14" lengthAdjust="spacing" textLength="226" x="20" y="84.9951">Clinical Chemistry Technologist</text><ellipse cx="136" cy="15" fill="#FEFECE" filter="url(#f3dqpyrh45c76)" rx="8" ry="8" style="stroke:#A80036;stroke-width:2.0;"/><path d="M136,23 L136,50 M123,31 L149,31 M136,50 L123,65 M136,50 L149,65 " fill="none" filter="url(#f3dqpyrh45c76)" style="stroke:#A80036;stroke-width:2.0;"/><text fill="#000000" font-family="sans-serif" font-size="14" lengthAdjust="spacing" textLength="226" x="20" y="399.6201">Clinical Chemistry Technologist</text><ellipse cx="136" cy="412.9219" fill="#FEFECE" filter="url(#f3dqpyrh45c76)" rx="8" ry="8" style="stroke:#A80036;stroke-width:2.0;"/><path d="M136,420.9219 L136,447.9219 M123,428.9219 L149,428.9219 M136,447.9219 L123,462.9219 M136,447.9219 L149,462.9219 " fill="none" filter="url(#f3dqpyrh45c76)" style="stroke:#A80036;stroke-width:2.0;"/><rect fill="#FEFECE" filter="url(#f3dqpyrh45c76)" height="30.2969" style="stroke:#A80036;stroke-width:1.5;" width="73" x="415.5" y="53"/><text fill="#000000" font-family="sans-serif" font-size="14" lengthAdjust="spacing" textLength="59" x="422.5" y="72.9951">:System</text><rect fill="#FEFECE" filter="url(#f3dqpyrh45c76)" height="30.2969" style="stroke:#A80036;stroke-width:1.5;" width="73" x="415.5" y="386.625"/><text fill="#000000" font-family="sans-serif" font-size="14" lengthAdjust="spacing" textLength="59" x="422.5" y="406.6201">:System</text><polygon fill="#A80036" points="442,115.4297,452,119.4297,442,123.4297,446,119.4297" style="stroke:#A80036;stroke-width:1.0;"/><line style="stroke:#A80036;stroke-width:1.0;" x1="136" x2="448" y1="119.4297" y2="119.4297"/><text fill="#000000" font-family="sans-serif" font-size="13" font-weight="bold" lengthAdjust="spacing" textLength="9" x="143" y="114.3638">1</text><text fill="#000000" font-family="sans-serif" font-size="13" lengthAdjust="spacing" textLength="278" x="156" y="114.3638">starts registering the results of a given test</text><polygon fill="#A80036" points="147,144.5625,137,148.5625,147,152.5625,143,148.5625" style="stroke:#A80036;stroke-width:1.0;"/><line style="stroke:#A80036;stroke-width:1.0;stroke-dasharray:2.0,2.0;" x1="141" x2="453" y1="148.5625" y2="148.5625"/><text fill="#000000" font-family="sans-serif" font-size="13" font-weight="bold" lengthAdjust="spacing" textLength="9" x="153" y="143.4966">2</text><text fill="#000000" font-family="sans-serif" font-size="13" lengthAdjust="spacing" textLength="105" x="166" y="143.4966">asks for the test</text><polygon fill="#A80036" points="442,173.6953,452,177.6953,442,181.6953,446,177.6953" style="stroke:#A80036;stroke-width:1.0;"/><line style="stroke:#A80036;stroke-width:1.0;" x1="136" x2="448" y1="177.6953" y2="177.6953"/><text fill="#000000" font-family="sans-serif" font-size="13" font-weight="bold" lengthAdjust="spacing" textLength="8" x="143" y="172.6294">3</text><text fill="#000000" font-family="sans-serif" font-size="13" lengthAdjust="spacing" textLength="107" x="155" y="172.6294">chooses the test</text><path d="M10,192.6953 L88,192.6953 L88,199.6953 L78,209.6953 L10,209.6953 L10,192.6953 " fill="#EEEEEE" style="stroke:#000000;stroke-width:1.0;"/><rect fill="none" height="177.9297" style="stroke:#000000;stroke-width:2.0;" width="492.5" x="10" y="192.6953"/><text fill="#000000" font-family="sans-serif" font-size="13" font-weight="bold" lengthAdjust="spacing" textLength="33" x="25" y="205.7622">loop</text><text fill="#000000" font-family="sans-serif" font-size="11" font-weight="bold" lengthAdjust="spacing" textLength="303" x="103" y="204.9058">[numberOfParametersInTheGivenTest times]</text><polygon fill="#A80036" points="147,242.0938,137,246.0938,147,250.0938,143,246.0938" style="stroke:#A80036;stroke-width:1.0;"/><line style="stroke:#A80036;stroke-width:1.0;stroke-dasharray:2.0,2.0;" x1="141" x2="453" y1="246.0938" y2="246.0938"/><text fill="#000000" font-family="sans-serif" font-size="13" font-weight="bold" lengthAdjust="spacing" textLength="9" x="153" y="233.4614">4</text><text fill="#000000" font-family="sans-serif" font-size="13" lengthAdjust="spacing" textLength="226" x="166" y="225.895">requests data( parameterIdentifier,</text><text fill="#000000" font-family="sans-serif" font-size="13" lengthAdjust="spacing" textLength="281" x="166" y="241.0278">referenceDate, referenceMeasurementUnit)</text><polygon fill="#A80036" points="442,271.2266,452,275.2266,442,279.2266,446,275.2266" style="stroke:#A80036;stroke-width:1.0;"/><line style="stroke:#A80036;stroke-width:1.0;" x1="136" x2="448" y1="275.2266" y2="275.2266"/><text fill="#000000" font-family="sans-serif" font-size="13" font-weight="bold" lengthAdjust="spacing" textLength="9" x="143" y="270.1606">5</text><text fill="#000000" font-family="sans-serif" font-size="13" lengthAdjust="spacing" textLength="94" x="156" y="270.1606">types the data</text><polygon fill="#A80036" points="147,300.3594,137,304.3594,147,308.3594,143,304.3594" style="stroke:#A80036;stroke-width:1.0;"/><line style="stroke:#A80036;stroke-width:1.0;stroke-dasharray:2.0,2.0;" x1="141" x2="453" y1="304.3594" y2="304.3594"/><text fill="#000000" font-family="sans-serif" font-size="13" font-weight="bold" lengthAdjust="spacing" textLength="9" x="153" y="299.2935">6</text><text fill="#000000" font-family="sans-serif" font-size="13" lengthAdjust="spacing" textLength="141" x="166" y="299.2935">requests confirmation</text><polygon fill="#A80036" points="442,329.4922,452,333.4922,442,337.4922,446,333.4922" style="stroke:#A80036;stroke-width:1.0;"/><line style="stroke:#A80036;stroke-width:1.0;" x1="136" x2="448" y1="333.4922" y2="333.4922"/><text fill="#000000" font-family="sans-serif" font-size="13" font-weight="bold" lengthAdjust="spacing" textLength="9" x="143" y="328.4263">7</text><text fill="#000000" font-family="sans-serif" font-size="13" lengthAdjust="spacing" textLength="114" x="156" y="328.4263">confirms the data</text><polygon fill="#A80036" points="147,358.625,137,362.625,147,366.625,143,362.625" style="stroke:#A80036;stroke-width:1.0;"/><line style="stroke:#A80036;stroke-width:1.0;stroke-dasharray:2.0,2.0;" x1="141" x2="453" y1="362.625" y2="362.625"/><text fill="#000000" font-family="sans-serif" font-size="13" font-weight="bold" lengthAdjust="spacing" textLength="9" x="153" y="357.5591">8</text><text fill="#000000" font-family="sans-serif" font-size="13" lengthAdjust="spacing" textLength="236" x="166" y="357.5591">informs the success of the operation</text><!--MD5=[bdf1847f3369ed11ae2c685f552d442e]
@startuml
autonumber
Actor "Clinical Chemistry Technologist"
"Clinical Chemistry Technologist" -> ":System": starts registering the results of a given test
":System" - -> "Clinical Chemistry Technologist": asks for the test

"Clinical Chemistry Technologist" -> ":System": chooses the test
loop numberOfParametersInTheGivenTest times
            ":System" - -> "Clinical Chemistry Technologist": requests data( parameterIdentifier, \nreferenceDate, referenceMeasurementUnit)
            "Clinical Chemistry Technologist" -> ":System": types the data
             ":System" - -> "Clinical Chemistry Technologist": requests confirmation
             "Clinical Chemistry Technologist" -> ":System": confirms the data
             ":System" - -> "Clinical Chemistry Technologist": informs the success of the operation
end
@enduml

PlantUML version 1.2021.6beta6(Unknown compile time)
(GPL source distribution)
Java Runtime: Java(TM) SE Runtime Environment
JVM: Java HotSpot(TM) 64-Bit Server VM
Default Encoding: UTF-8
Language: en
Country: US
--></g></svg>