<?xml version="1.0" encoding="UTF-8" standalone="no"?><svg xmlns="http://www.w3.org/2000/svg" xmlns:xlink="http://www.w3.org/1999/xlink" contentScriptType="application/ecmascript" contentStyleType="text/css" height="730px" preserveAspectRatio="none" style="width:747px;height:730px;" version="1.1" viewBox="0 0 747 730" width="747px" zoomAndPan="magnify"><defs><filter height="300%" id="f1u8nombjvrszq" width="300%" x="-1" y="-1"><feGaussianBlur result="blurOut" stdDeviation="2.0"/><feColorMatrix in="blurOut" result="blurOut2" type="matrix" values="0 0 0 0 0 0 0 0 0 0 0 0 0 0 0 0 0 0 .4 0"/><feOffset dx="4.0" dy="4.0" in="blurOut2" result="blurOut3"/><feBlend in="SourceGraphic" in2="blurOut3" mode="normal"/></filter></defs><g><text fill="#000000" font-family="sans-serif" font-size="18" lengthAdjust="spacing" textLength="221" x="256.75" y="16.708">Classes - Class Diagram</text><!--MD5=[ca0899f9675cbde0ca144787fef7895c]
class RegisterClinicalAnalysisLaboratoryUI--><rect codeLine="4" fill="#FEFECE" filter="url(#f1u8nombjvrszq)" height="48" id="RegisterClinicalAnalysisLaboratoryUI" style="stroke:#A80036;stroke-width:1.5;" width="249" x="289.5" y="198.9531"/><ellipse cx="304.5" cy="214.9531" fill="#ADD1B2" rx="11" ry="11" style="stroke:#A80036;stroke-width:1.0;"/><path d="M306.8438,210.625 C305.9063,210.1875 305.3125,210.0469 304.4375,210.0469 C301.8125,210.0469 299.8125,212.125 299.8125,214.8438 L299.8125,215.9688 C299.8125,218.5469 301.9219,220.4375 304.8125,220.4375 C306.0313,220.4375 307.1875,220.1406 307.9375,219.5938 C308.5156,219.1875 308.8438,218.7344 308.8438,218.3438 C308.8438,217.8906 308.4531,217.5 307.9844,217.5 C307.7656,217.5 307.5625,217.5781 307.375,217.7656 C306.9219,218.25 306.9219,218.25 306.7344,218.3438 C306.3125,218.6094 305.625,218.7344 304.8594,218.7344 C302.8125,218.7344 301.5156,217.6406 301.5156,215.9375 L301.5156,214.8438 C301.5156,213.0625 302.7656,211.75 304.5,211.75 C305.0781,211.75 305.6875,211.9063 306.1563,212.1563 C306.6406,212.4375 306.8125,212.6563 306.9063,213.0625 C306.9688,213.4688 307,213.5938 307.1406,213.7188 C307.2813,213.8594 307.5156,213.9688 307.7344,213.9688 C308,213.9688 308.2656,213.8281 308.4375,213.6094 C308.5469,213.4531 308.5781,213.2656 308.5781,212.8438 L308.5781,211.4219 C308.5781,210.9844 308.5625,210.8594 308.4688,210.7031 C308.3125,210.4375 308.0313,210.2969 307.7344,210.2969 C307.4375,210.2969 307.2344,210.3906 307.0156,210.7031 L306.8438,210.625 Z " fill="#000000"/><text fill="#000000" font-family="sans-serif" font-size="12" lengthAdjust="spacing" textLength="217" x="318.5" y="219.1074">RegisterClinicalAnalysisLaboratoryUI</text><line style="stroke:#A80036;stroke-width:1.5;" x1="290.5" x2="537.5" y1="230.9531" y2="230.9531"/><line style="stroke:#A80036;stroke-width:1.5;" x1="290.5" x2="537.5" y1="238.9531" y2="238.9531"/><!--MD5=[da547346deef918ea16944ba046651ef]
class Administrator--><rect codeLine="6" fill="#FEFECE" filter="url(#f1u8nombjvrszq)" height="48" id="Administrator" style="stroke:#A80036;stroke-width:1.5;" width="112" x="358" y="27.9531"/><ellipse cx="373" cy="43.9531" fill="#ADD1B2" rx="11" ry="11" style="stroke:#A80036;stroke-width:1.0;"/><path d="M375.3438,39.625 C374.4063,39.1875 373.8125,39.0469 372.9375,39.0469 C370.3125,39.0469 368.3125,41.125 368.3125,43.8438 L368.3125,44.9688 C368.3125,47.5469 370.4219,49.4375 373.3125,49.4375 C374.5313,49.4375 375.6875,49.1406 376.4375,48.5938 C377.0156,48.1875 377.3438,47.7344 377.3438,47.3438 C377.3438,46.8906 376.9531,46.5 376.4844,46.5 C376.2656,46.5 376.0625,46.5781 375.875,46.7656 C375.4219,47.25 375.4219,47.25 375.2344,47.3438 C374.8125,47.6094 374.125,47.7344 373.3594,47.7344 C371.3125,47.7344 370.0156,46.6406 370.0156,44.9375 L370.0156,43.8438 C370.0156,42.0625 371.2656,40.75 373,40.75 C373.5781,40.75 374.1875,40.9063 374.6563,41.1563 C375.1406,41.4375 375.3125,41.6563 375.4063,42.0625 C375.4688,42.4688 375.5,42.5938 375.6406,42.7188 C375.7813,42.8594 376.0156,42.9688 376.2344,42.9688 C376.5,42.9688 376.7656,42.8281 376.9375,42.6094 C377.0469,42.4531 377.0781,42.2656 377.0781,41.8438 L377.0781,40.4219 C377.0781,39.9844 377.0625,39.8594 376.9688,39.7031 C376.8125,39.4375 376.5313,39.2969 376.2344,39.2969 C375.9375,39.2969 375.7344,39.3906 375.5156,39.7031 L375.3438,39.625 Z " fill="#000000"/><text fill="#000000" font-family="sans-serif" font-size="12" lengthAdjust="spacing" textLength="80" x="387" y="48.1074">Administrator</text><line style="stroke:#A80036;stroke-width:1.5;" x1="359" x2="469" y1="59.9531" y2="59.9531"/><line style="stroke:#A80036;stroke-width:1.5;" x1="359" x2="469" y1="67.9531" y2="67.9531"/><!--MD5=[3f9590349183eb3676f1b2ca1bdcb25d]
class ClinicalAnalysisLaboratoryController--><rect codeLine="8" fill="#FEFECE" filter="url(#f1u8nombjvrszq)" height="86.4141" id="ClinicalAnalysisLaboratoryController" style="stroke:#A80036;stroke-width:1.5;" width="340" x="77" y="369.9531"/><ellipse cx="135.75" cy="385.9531" fill="#ADD1B2" rx="11" ry="11" style="stroke:#A80036;stroke-width:1.0;"/><path d="M138.0938,381.625 C137.1563,381.1875 136.5625,381.0469 135.6875,381.0469 C133.0625,381.0469 131.0625,383.125 131.0625,385.8438 L131.0625,386.9688 C131.0625,389.5469 133.1719,391.4375 136.0625,391.4375 C137.2813,391.4375 138.4375,391.1406 139.1875,390.5938 C139.7656,390.1875 140.0938,389.7344 140.0938,389.3438 C140.0938,388.8906 139.7031,388.5 139.2344,388.5 C139.0156,388.5 138.8125,388.5781 138.625,388.7656 C138.1719,389.25 138.1719,389.25 137.9844,389.3438 C137.5625,389.6094 136.875,389.7344 136.1094,389.7344 C134.0625,389.7344 132.7656,388.6406 132.7656,386.9375 L132.7656,385.8438 C132.7656,384.0625 134.0156,382.75 135.75,382.75 C136.3281,382.75 136.9375,382.9063 137.4063,383.1563 C137.8906,383.4375 138.0625,383.6563 138.1563,384.0625 C138.2188,384.4688 138.25,384.5938 138.3906,384.7188 C138.5313,384.8594 138.7656,384.9688 138.9844,384.9688 C139.25,384.9688 139.5156,384.8281 139.6875,384.6094 C139.7969,384.4531 139.8281,384.2656 139.8281,383.8438 L139.8281,382.4219 C139.8281,381.9844 139.8125,381.8594 139.7188,381.7031 C139.5625,381.4375 139.2813,381.2969 138.9844,381.2969 C138.6875,381.2969 138.4844,381.3906 138.2656,381.7031 L138.0938,381.625 Z " fill="#000000"/><text fill="#000000" font-family="sans-serif" font-size="12" lengthAdjust="spacing" textLength="214" x="156.25" y="390.1074">ClinicalAnalysisLaboratoryController</text><line style="stroke:#A80036;stroke-width:1.5;" x1="78" x2="416" y1="401.9531" y2="401.9531"/><line style="stroke:#A80036;stroke-width:1.5;" x1="78" x2="416" y1="409.9531" y2="409.9531"/><text fill="#000000" font-family="sans-serif" font-size="11" lengthAdjust="spacing" textLength="324" x="83" y="424.1636">+RegisterClinicalAnalysisLaboratory(Laboratory id, name,</text><text fill="#000000" font-family="sans-serif" font-size="11" lengthAdjust="spacing" textLength="213" x="83" y="436.9683">address, phone number, TIN number)</text><text fill="#000000" font-family="sans-serif" font-size="11" lengthAdjust="spacing" textLength="194" x="83" y="449.7729">+SaveClinicalAnalysisLaboratory()</text><!--MD5=[02e4b9b7573f1156f41e60aa5b4e25a4]
class Company--><rect codeLine="12" fill="#FEFECE" filter="url(#f1u8nombjvrszq)" height="124.8281" id="Company" style="stroke:#A80036;stroke-width:1.5;" width="340" x="7" y="585.4531"/><ellipse cx="144.75" cy="601.4531" fill="#ADD1B2" rx="11" ry="11" style="stroke:#A80036;stroke-width:1.0;"/><path d="M147.0938,597.125 C146.1563,596.6875 145.5625,596.5469 144.6875,596.5469 C142.0625,596.5469 140.0625,598.625 140.0625,601.3438 L140.0625,602.4688 C140.0625,605.0469 142.1719,606.9375 145.0625,606.9375 C146.2813,606.9375 147.4375,606.6406 148.1875,606.0938 C148.7656,605.6875 149.0938,605.2344 149.0938,604.8438 C149.0938,604.3906 148.7031,604 148.2344,604 C148.0156,604 147.8125,604.0781 147.625,604.2656 C147.1719,604.75 147.1719,604.75 146.9844,604.8438 C146.5625,605.1094 145.875,605.2344 145.1094,605.2344 C143.0625,605.2344 141.7656,604.1406 141.7656,602.4375 L141.7656,601.3438 C141.7656,599.5625 143.0156,598.25 144.75,598.25 C145.3281,598.25 145.9375,598.4063 146.4063,598.6563 C146.8906,598.9375 147.0625,599.1563 147.1563,599.5625 C147.2188,599.9688 147.25,600.0938 147.3906,600.2188 C147.5313,600.3594 147.7656,600.4688 147.9844,600.4688 C148.25,600.4688 148.5156,600.3281 148.6875,600.1094 C148.7969,599.9531 148.8281,599.7656 148.8281,599.3438 L148.8281,597.9219 C148.8281,597.4844 148.8125,597.3594 148.7188,597.2031 C148.5625,596.9375 148.2813,596.7969 147.9844,596.7969 C147.6875,596.7969 147.4844,596.8906 147.2656,597.2031 L147.0938,597.125 Z " fill="#000000"/><text fill="#000000" font-family="sans-serif" font-size="12" lengthAdjust="spacing" textLength="56" x="165.25" y="605.6074">Company</text><line style="stroke:#A80036;stroke-width:1.5;" x1="8" x2="346" y1="617.4531" y2="617.4531"/><line style="stroke:#A80036;stroke-width:1.5;" x1="8" x2="346" y1="625.4531" y2="625.4531"/><text fill="#000000" font-family="sans-serif" font-size="11" lengthAdjust="spacing" textLength="324" x="13" y="639.6636">+RegisterClinicalAnalysisLaboratory(Laboratory id, name,</text><text fill="#000000" font-family="sans-serif" font-size="11" lengthAdjust="spacing" textLength="213" x="13" y="652.4683">address, phone number, TIN number)</text><text fill="#000000" font-family="sans-serif" font-size="11" lengthAdjust="spacing" textLength="226" x="13" y="665.2729">+validateClinicalAnalysisLaboratory(cal)</text><text fill="#000000" font-family="sans-serif" font-size="11" lengthAdjust="spacing" textLength="210" x="13" y="678.0776">+SaveClinicalAnalysisLaboratory(cal)</text><text fill="#000000" font-family="sans-serif" font-size="11" lengthAdjust="spacing" textLength="226" x="13" y="690.8823">+validateClinicalAnalysisLaboratory(cal)</text><text fill="#000000" font-family="sans-serif" font-size="11" lengthAdjust="spacing" textLength="201" x="13" y="703.687">+addClinicalAnalysisLaboratory(cal)</text><!--MD5=[1934a092c0e7d4da7dc7075b6f4b6b03]
class ClinicalAnalysisLaboratory--><rect codeLine="19" fill="#FEFECE" filter="url(#f1u8nombjvrszq)" height="137.6328" id="ClinicalAnalysisLaboratory" style="stroke:#A80036;stroke-width:1.5;" width="293" x="440.5" y="578.9531"/><ellipse cx="505.25" cy="594.9531" fill="#ADD1B2" rx="11" ry="11" style="stroke:#A80036;stroke-width:1.0;"/><path d="M507.5938,590.625 C506.6563,590.1875 506.0625,590.0469 505.1875,590.0469 C502.5625,590.0469 500.5625,592.125 500.5625,594.8438 L500.5625,595.9688 C500.5625,598.5469 502.6719,600.4375 505.5625,600.4375 C506.7813,600.4375 507.9375,600.1406 508.6875,599.5938 C509.2656,599.1875 509.5938,598.7344 509.5938,598.3438 C509.5938,597.8906 509.2031,597.5 508.7344,597.5 C508.5156,597.5 508.3125,597.5781 508.125,597.7656 C507.6719,598.25 507.6719,598.25 507.4844,598.3438 C507.0625,598.6094 506.375,598.7344 505.6094,598.7344 C503.5625,598.7344 502.2656,597.6406 502.2656,595.9375 L502.2656,594.8438 C502.2656,593.0625 503.5156,591.75 505.25,591.75 C505.8281,591.75 506.4375,591.9063 506.9063,592.1563 C507.3906,592.4375 507.5625,592.6563 507.6563,593.0625 C507.7188,593.4688 507.75,593.5938 507.8906,593.7188 C508.0313,593.8594 508.2656,593.9688 508.4844,593.9688 C508.75,593.9688 509.0156,593.8281 509.1875,593.6094 C509.2969,593.4531 509.3281,593.2656 509.3281,592.8438 L509.3281,591.4219 C509.3281,590.9844 509.3125,590.8594 509.2188,590.7031 C509.0625,590.4375 508.7813,590.2969 508.4844,590.2969 C508.1875,590.2969 507.9844,590.3906 507.7656,590.7031 L507.5938,590.625 Z " fill="#000000"/><text fill="#000000" font-family="sans-serif" font-size="12" lengthAdjust="spacing" textLength="155" x="525.75" y="599.1074">ClinicalAnalysisLaboratory</text><line style="stroke:#A80036;stroke-width:1.5;" x1="441.5" x2="732.5" y1="610.9531" y2="610.9531"/><text fill="#000000" font-family="sans-serif" font-size="11" lengthAdjust="spacing" textLength="78" x="446.5" y="625.1636">-Laboratory id</text><text fill="#000000" font-family="sans-serif" font-size="11" lengthAdjust="spacing" textLength="37" x="446.5" y="637.9683">-name</text><text fill="#000000" font-family="sans-serif" font-size="11" lengthAdjust="spacing" textLength="49" x="446.5" y="650.7729">-address</text><text fill="#000000" font-family="sans-serif" font-size="11" lengthAdjust="spacing" textLength="88" x="446.5" y="663.5776">-phone number</text><text fill="#000000" font-family="sans-serif" font-size="11" lengthAdjust="spacing" textLength="70" x="446.5" y="676.3823">-TIN number</text><line style="stroke:#A80036;stroke-width:1.5;" x1="441.5" x2="732.5" y1="682.9766" y2="682.9766"/><text fill="#000000" font-family="sans-serif" font-size="11" lengthAdjust="spacing" textLength="277" x="446.5" y="697.187">+ClinicalAnalysisLaboratory(Laboratory id, name,</text><text fill="#000000" font-family="sans-serif" font-size="11" lengthAdjust="spacing" textLength="213" x="446.5" y="709.9917">address, phone number, TIN number)</text><!--MD5=[530b4b4fbe5565fe5fec0a071bf42ca7]
link Administrator to RegisterClinicalAnalysisLaboratoryUI--><path codeLine="28" d="M414,76.0971 C414,106.7311 414,160.7081 414,193.7081 " fill="none" id="Administrator-to-RegisterClinicalAnalysisLaboratoryUI" style="stroke:#A80036;stroke-width:1.0;stroke-dasharray:7.0,7.0;"/><polygon fill="#A80036" points="414,198.8181,418,189.8181,414,193.8181,410,189.8181,414,198.8181" style="stroke:#A80036;stroke-width:1.0;"/><!--MD5=[df73237fa9079d323d34c29887efa0b7]
link RegisterClinicalAnalysisLaboratoryUI to ClinicalAnalysisLaboratoryController--><path codeLine="29" d="M393.523,247.0051 C367.388,276.4271 321.559,328.0181 288.098,365.6871 " fill="none" id="RegisterClinicalAnalysisLaboratoryUI-to-ClinicalAnalysisLaboratoryController" style="stroke:#A80036;stroke-width:1.0;stroke-dasharray:7.0,7.0;"/><polygon fill="#A80036" points="284.491,369.7471,293.4588,365.6756,287.8118,366.0092,287.4782,360.3622,284.491,369.7471" style="stroke:#A80036;stroke-width:1.0;"/><!--MD5=[2fab6d4771de95c03e53f4748d98c864]
link ClinicalAnalysisLaboratoryController to Company--><path codeLine="30" d="M234.324,456.1481 C223.912,490.8031 208.978,540.5131 196.963,580.5061 " fill="none" id="ClinicalAnalysisLaboratoryController-to-Company" style="stroke:#A80036;stroke-width:1.0;stroke-dasharray:7.0,7.0;"/><polygon fill="#A80036" points="195.512,585.3341,201.9323,577.8655,196.9506,580.5455,194.2706,575.5638,195.512,585.3341" style="stroke:#A80036;stroke-width:1.0;"/><!--MD5=[8b8740849c648dcb0b80070611db079e]
link RegisterClinicalAnalysisLaboratoryUI to ClinicalAnalysisLaboratory--><path codeLine="31" d="M513.799,247.0011 C540.941,259.5261 563,278.7031 563,307.9531 C563,307.9531 563,307.9531 563,517.9531 C563,536.1731 565.343,555.5991 568.564,573.7001 " fill="none" id="RegisterClinicalAnalysisLaboratoryUI-to-ClinicalAnalysisLaboratory" style="stroke:#A80036;stroke-width:1.0;stroke-dasharray:7.0,7.0;"/><polygon fill="#A80036" points="569.495,578.7691,571.8044,569.1948,568.5923,573.8513,563.9358,570.6392,569.495,578.7691" style="stroke:#A80036;stroke-width:1.0;"/><!--MD5=[aafc5d8a5829a6a8d6dc892cb1ff5d24]
link Company to ClinicalAnalysisLaboratory--><path codeLine="32" d="M347.019,647.9531 C376.242,647.9531 406.442,647.9531 435.149,647.9531 " fill="none" id="Company-to-ClinicalAnalysisLaboratory" style="stroke:#A80036;stroke-width:1.0;"/><polygon fill="#A80036" points="440.492,647.9531,431.492,643.9531,435.492,647.9531,431.492,651.9531,440.492,647.9531" style="stroke:#A80036;stroke-width:1.0;"/><polygon fill="#000000" points="374.25,636.5195,365.2049,633.5806,365.2049,639.4585,374.25,636.5195" style="stroke:#000000;stroke-width:1.0;"/><text fill="#000000" font-family="sans-serif" font-size="13" lengthAdjust="spacing" textLength="44" x="378.25" y="641.02">adopts</text><!--MD5=[0d1087b531e592f6b44a5350a7364897]
@startuml
title Classes - Class Diagram
skinparam classAttributeIconSize 0

class RegisterClinicalAnalysisLaboratoryUI{
}
class Administrator{
}
class ClinicalAnalysisLaboratoryController{
+RegisterClinicalAnalysisLaboratory(Laboratory id, name, \naddress, phone number, TIN number)
+SaveClinicalAnalysisLaboratory()
}
class Company{
+RegisterClinicalAnalysisLaboratory(Laboratory id, name, \naddress, phone number, TIN number)
+validateClinicalAnalysisLaboratory(cal)
+SaveClinicalAnalysisLaboratory(cal)
+validateClinicalAnalysisLaboratory(cal)
+addClinicalAnalysisLaboratory(cal)
}
class ClinicalAnalysisLaboratory{
-Laboratory id
-name
-address
-phone number
-TIN number
+ClinicalAnalysisLaboratory(Laboratory id, name, \naddress, phone number, TIN number)
}

Administrator -d..> RegisterClinicalAnalysisLaboratoryUI
RegisterClinicalAnalysisLaboratoryUI -d..> ClinicalAnalysisLaboratoryController
ClinicalAnalysisLaboratoryController -d..> Company
RegisterClinicalAnalysisLaboratoryUI ..> ClinicalAnalysisLaboratory
Company -> ClinicalAnalysisLaboratory : adopts >
@enduml

PlantUML version 1.2021.5(Sun Apr 25 11:20:28 UTC 2021)
(GPL source distribution)
Java Runtime: Java(TM) SE Runtime Environment
JVM: Java HotSpot(TM) 64-Bit Server VM
Default Encoding: UTF-8
Language: en
Country: US
--></g></svg>