<?xml version="1.0" encoding="UTF-8" standalone="no"?><svg xmlns="http://www.w3.org/2000/svg" xmlns:xlink="http://www.w3.org/1999/xlink" contentScriptType="application/ecmascript" contentStyleType="text/css" height="441px" preserveAspectRatio="none" style="width:663px;height:441px;" version="1.1" viewBox="0 0 663 441" width="663px" zoomAndPan="magnify"><defs><filter height="300%" id="f188ge58pjwype" width="300%" x="-1" y="-1"><feGaussianBlur result="blurOut" stdDeviation="2.0"/><feColorMatrix in="blurOut" result="blurOut2" type="matrix" values="0 0 0 0 0 0 0 0 0 0 0 0 0 0 0 0 0 0 .4 0"/><feOffset dx="4.0" dy="4.0" in="blurOut2" result="blurOut3"/><feBlend in="SourceGraphic" in2="blurOut3" mode="normal"/></filter></defs><g><text fill="#000000" font-family="sans-serif" font-size="18" lengthAdjust="spacing" textLength="221" x="214.75" y="16.708">Classes - Class Diagram</text><!--MD5=[da547346deef918ea16944ba046651ef]
class Administrator--><rect codeLine="5" fill="#FEFECE" filter="url(#f188ge58pjwype)" height="48" id="Administrator" style="stroke:#A80036;stroke-width:1.5;" width="112" x="44.5" y="27.9531"/><ellipse cx="59.5" cy="43.9531" fill="#ADD1B2" rx="11" ry="11" style="stroke:#A80036;stroke-width:1.0;"/><path d="M61.8438,39.625 C60.9063,39.1875 60.3125,39.0469 59.4375,39.0469 C56.8125,39.0469 54.8125,41.125 54.8125,43.8438 L54.8125,44.9688 C54.8125,47.5469 56.9219,49.4375 59.8125,49.4375 C61.0313,49.4375 62.1875,49.1406 62.9375,48.5938 C63.5156,48.1875 63.8438,47.7344 63.8438,47.3438 C63.8438,46.8906 63.4531,46.5 62.9844,46.5 C62.7656,46.5 62.5625,46.5781 62.375,46.7656 C61.9219,47.25 61.9219,47.25 61.7344,47.3438 C61.3125,47.6094 60.625,47.7344 59.8594,47.7344 C57.8125,47.7344 56.5156,46.6406 56.5156,44.9375 L56.5156,43.8438 C56.5156,42.0625 57.7656,40.75 59.5,40.75 C60.0781,40.75 60.6875,40.9063 61.1563,41.1563 C61.6406,41.4375 61.8125,41.6563 61.9063,42.0625 C61.9688,42.4688 62,42.5938 62.1406,42.7188 C62.2813,42.8594 62.5156,42.9688 62.7344,42.9688 C63,42.9688 63.2656,42.8281 63.4375,42.6094 C63.5469,42.4531 63.5781,42.2656 63.5781,41.8438 L63.5781,40.4219 C63.5781,39.9844 63.5625,39.8594 63.4688,39.7031 C63.3125,39.4375 63.0313,39.2969 62.7344,39.2969 C62.4375,39.2969 62.2344,39.3906 62.0156,39.7031 L61.8438,39.625 Z " fill="#000000"/><text fill="#000000" font-family="sans-serif" font-size="12" lengthAdjust="spacing" textLength="80" x="73.5" y="48.1074">Administrator</text><line style="stroke:#A80036;stroke-width:1.5;" x1="45.5" x2="155.5" y1="59.9531" y2="59.9531"/><line style="stroke:#A80036;stroke-width:1.5;" x1="45.5" x2="155.5" y1="67.9531" y2="67.9531"/><!--MD5=[1934a092c0e7d4da7dc7075b6f4b6b03]
class ClinicalAnalysisLaboratory--><rect codeLine="9" fill="#FEFECE" filter="url(#f188ge58pjwype)" height="112.0234" id="ClinicalAnalysisLaboratory" style="stroke:#A80036;stroke-width:1.5;" width="187" x="7" y="171.9531"/><ellipse cx="22" cy="187.9531" fill="#ADD1B2" rx="11" ry="11" style="stroke:#A80036;stroke-width:1.0;"/><path d="M24.3438,183.625 C23.4063,183.1875 22.8125,183.0469 21.9375,183.0469 C19.3125,183.0469 17.3125,185.125 17.3125,187.8438 L17.3125,188.9688 C17.3125,191.5469 19.4219,193.4375 22.3125,193.4375 C23.5313,193.4375 24.6875,193.1406 25.4375,192.5938 C26.0156,192.1875 26.3438,191.7344 26.3438,191.3438 C26.3438,190.8906 25.9531,190.5 25.4844,190.5 C25.2656,190.5 25.0625,190.5781 24.875,190.7656 C24.4219,191.25 24.4219,191.25 24.2344,191.3438 C23.8125,191.6094 23.125,191.7344 22.3594,191.7344 C20.3125,191.7344 19.0156,190.6406 19.0156,188.9375 L19.0156,187.8438 C19.0156,186.0625 20.2656,184.75 22,184.75 C22.5781,184.75 23.1875,184.9063 23.6563,185.1563 C24.1406,185.4375 24.3125,185.6563 24.4063,186.0625 C24.4688,186.4688 24.5,186.5938 24.6406,186.7188 C24.7813,186.8594 25.0156,186.9688 25.2344,186.9688 C25.5,186.9688 25.7656,186.8281 25.9375,186.6094 C26.0469,186.4531 26.0781,186.2656 26.0781,185.8438 L26.0781,184.4219 C26.0781,183.9844 26.0625,183.8594 25.9688,183.7031 C25.8125,183.4375 25.5313,183.2969 25.2344,183.2969 C24.9375,183.2969 24.7344,183.3906 24.5156,183.7031 L24.3438,183.625 Z " fill="#000000"/><text fill="#000000" font-family="sans-serif" font-size="12" lengthAdjust="spacing" textLength="155" x="36" y="192.1074">ClinicalAnalysisLaboratory</text><line style="stroke:#A80036;stroke-width:1.5;" x1="8" x2="193" y1="203.9531" y2="203.9531"/><text fill="#000000" font-family="sans-serif" font-size="11" lengthAdjust="spacing" textLength="80" x="13" y="218.1636">-Laboratory ID</text><text fill="#000000" font-family="sans-serif" font-size="11" lengthAdjust="spacing" textLength="38" x="13" y="230.9683">-Name</text><text fill="#000000" font-family="sans-serif" font-size="11" lengthAdjust="spacing" textLength="50" x="13" y="243.7729">-Address</text><text fill="#000000" font-family="sans-serif" font-size="11" lengthAdjust="spacing" textLength="88" x="13" y="256.5776">-Phone Number</text><text fill="#000000" font-family="sans-serif" font-size="11" lengthAdjust="spacing" textLength="70" x="13" y="269.3823">-TIN number</text><line style="stroke:#A80036;stroke-width:1.5;" x1="8" x2="193" y1="275.9766" y2="275.9766"/><!--MD5=[df38be88ccee13e832d6fafd6288a4ca]
class Test--><rect codeLine="16" fill="#FEFECE" filter="url(#f188ge58pjwype)" height="150.4375" id="Test" style="stroke:#A80036;stroke-width:1.5;" width="244" x="405.5" y="152.9531"/><ellipse cx="510.25" cy="168.9531" fill="#ADD1B2" rx="11" ry="11" style="stroke:#A80036;stroke-width:1.0;"/><path d="M512.5938,164.625 C511.6563,164.1875 511.0625,164.0469 510.1875,164.0469 C507.5625,164.0469 505.5625,166.125 505.5625,168.8438 L505.5625,169.9688 C505.5625,172.5469 507.6719,174.4375 510.5625,174.4375 C511.7813,174.4375 512.9375,174.1406 513.6875,173.5938 C514.2656,173.1875 514.5938,172.7344 514.5938,172.3438 C514.5938,171.8906 514.2031,171.5 513.7344,171.5 C513.5156,171.5 513.3125,171.5781 513.125,171.7656 C512.6719,172.25 512.6719,172.25 512.4844,172.3438 C512.0625,172.6094 511.375,172.7344 510.6094,172.7344 C508.5625,172.7344 507.2656,171.6406 507.2656,169.9375 L507.2656,168.8438 C507.2656,167.0625 508.5156,165.75 510.25,165.75 C510.8281,165.75 511.4375,165.9063 511.9063,166.1563 C512.3906,166.4375 512.5625,166.6563 512.6563,167.0625 C512.7188,167.4688 512.75,167.5938 512.8906,167.7188 C513.0313,167.8594 513.2656,167.9688 513.4844,167.9688 C513.75,167.9688 514.0156,167.8281 514.1875,167.6094 C514.2969,167.4531 514.3281,167.2656 514.3281,166.8438 L514.3281,165.4219 C514.3281,164.9844 514.3125,164.8594 514.2188,164.7031 C514.0625,164.4375 513.7813,164.2969 513.4844,164.2969 C513.1875,164.2969 512.9844,164.3906 512.7656,164.7031 L512.5938,164.625 Z " fill="#000000"/><text fill="#000000" font-family="sans-serif" font-size="12" lengthAdjust="spacing" textLength="26" x="530.75" y="173.1074">Test</text><line style="stroke:#A80036;stroke-width:1.5;" x1="406.5" x2="648.5" y1="184.9531" y2="184.9531"/><text fill="#000000" font-family="sans-serif" font-size="11" lengthAdjust="spacing" textLength="62" x="411.5" y="199.1636">-Test Type</text><text fill="#000000" font-family="sans-serif" font-size="11" lengthAdjust="spacing" textLength="81" x="411.5" y="211.9683">-Internal Code</text><text fill="#000000" font-family="sans-serif" font-size="11" lengthAdjust="spacing" textLength="62" x="411.5" y="224.7729">-NHS Code</text><text fill="#000000" font-family="sans-serif" font-size="11" lengthAdjust="spacing" textLength="217" x="411.5" y="237.5776">-Description Of The Collection Method</text><text fill="#000000" font-family="sans-serif" font-size="11" lengthAdjust="spacing" textLength="148" x="411.5" y="250.3823">-Date and Time Collected</text><text fill="#000000" font-family="sans-serif" font-size="11" lengthAdjust="spacing" textLength="213" x="411.5" y="263.187">-Date and Time of Chemical Analysis</text><text fill="#000000" font-family="sans-serif" font-size="11" lengthAdjust="spacing" textLength="232" x="411.5" y="275.9917">-Date and Time of Validation of the Test</text><text fill="#000000" font-family="sans-serif" font-size="11" lengthAdjust="spacing" textLength="187" x="411.5" y="288.7964">-Date and Time of the Diagnosis</text><line style="stroke:#A80036;stroke-width:1.5;" x1="406.5" x2="648.5" y1="295.3906" y2="295.3906"/><!--MD5=[63d70d9fc382ec74720fc4f696215b7d]
class Laboratories--><rect codeLine="27" fill="#FEFECE" filter="url(#f188ge58pjwype)" height="48" id="Laboratories" style="stroke:#A80036;stroke-width:1.5;" width="108" x="46.5" y="379.9531"/><ellipse cx="61.5" cy="395.9531" fill="#ADD1B2" rx="11" ry="11" style="stroke:#A80036;stroke-width:1.0;"/><path d="M63.8438,391.625 C62.9063,391.1875 62.3125,391.0469 61.4375,391.0469 C58.8125,391.0469 56.8125,393.125 56.8125,395.8438 L56.8125,396.9688 C56.8125,399.5469 58.9219,401.4375 61.8125,401.4375 C63.0313,401.4375 64.1875,401.1406 64.9375,400.5938 C65.5156,400.1875 65.8438,399.7344 65.8438,399.3438 C65.8438,398.8906 65.4531,398.5 64.9844,398.5 C64.7656,398.5 64.5625,398.5781 64.375,398.7656 C63.9219,399.25 63.9219,399.25 63.7344,399.3438 C63.3125,399.6094 62.625,399.7344 61.8594,399.7344 C59.8125,399.7344 58.5156,398.6406 58.5156,396.9375 L58.5156,395.8438 C58.5156,394.0625 59.7656,392.75 61.5,392.75 C62.0781,392.75 62.6875,392.9063 63.1563,393.1563 C63.6406,393.4375 63.8125,393.6563 63.9063,394.0625 C63.9688,394.4688 64,394.5938 64.1406,394.7188 C64.2813,394.8594 64.5156,394.9688 64.7344,394.9688 C65,394.9688 65.2656,394.8281 65.4375,394.6094 C65.5469,394.4531 65.5781,394.2656 65.5781,393.8438 L65.5781,392.4219 C65.5781,391.9844 65.5625,391.8594 65.4688,391.7031 C65.3125,391.4375 65.0313,391.2969 64.7344,391.2969 C64.4375,391.2969 64.2344,391.3906 64.0156,391.7031 L63.8438,391.625 Z " fill="#000000"/><text fill="#000000" font-family="sans-serif" font-size="12" lengthAdjust="spacing" textLength="76" x="75.5" y="400.1074">Laboratories</text><line style="stroke:#A80036;stroke-width:1.5;" x1="47.5" x2="153.5" y1="411.9531" y2="411.9531"/><line style="stroke:#A80036;stroke-width:1.5;" x1="47.5" x2="153.5" y1="419.9531" y2="419.9531"/><!--MD5=[23b8a99c177c2cd6d714b2cbaa81b3c4]
link Administrator to ClinicalAnalysisLaboratory--><path codeLine="30" d="M100.5,76.0591 C100.5,100.3721 100.5,139.5221 100.5,171.8511 " fill="none" id="Administrator-ClinicalAnalysisLaboratory" style="stroke:#A80036;stroke-width:1.0;"/><polygon fill="#000000" points="105.5,119.5195,108.4389,110.4744,102.5611,110.4744,105.5,119.5195" style="stroke:#000000;stroke-width:1.0;"/><text fill="#000000" font-family="sans-serif" font-size="13" lengthAdjust="spacing" textLength="49" x="114.5" y="119.02">register</text><!--MD5=[d480452e7d21fe720ba0207568bc7434]
link ClinicalAnalysisLaboratory to Test--><path codeLine="31" d="M194.207,227.9531 C256.195,227.9531 338.103,227.9531 405.207,227.9531 " fill="none" id="ClinicalAnalysisLaboratory-Test" style="stroke:#A80036;stroke-width:1.0;"/><polygon fill="#000000" points="211.25,216.5195,220.2951,219.4585,220.2951,213.5806,211.25,216.5195" style="stroke:#000000;stroke-width:1.0;"/><text fill="#000000" font-family="sans-serif" font-size="13" lengthAdjust="spacing" textLength="162" x="225.25" y="221.02">determine analysis types</text><!--MD5=[eea11252f0b3915a435a28328cb56940]
link ClinicalAnalysisLaboratory to Laboratories--><path codeLine="32" d="M100.5,284.0081 C100.5,316.2661 100.5,355.3295 100.5,379.6672 " fill="none" id="ClinicalAnalysisLaboratory-Laboratories" style="stroke:#A80036;stroke-width:1.0;"/><polygon fill="#000000" points="105.5,346.5195,108.4389,337.4744,102.5611,337.4744,105.5,346.5195" style="stroke:#000000;stroke-width:1.0;"/><text fill="#000000" font-family="sans-serif" font-size="13" lengthAdjust="spacing" textLength="57" x="114.5" y="346.02">is part of</text><!--MD5=[eb7d3510a34f723f4b50bf2ebe358937]
@startuml
title Classes - Class Diagram
skinparam classAttributeIconSize 0


class Administrator{
}


class ClinicalAnalysisLaboratory {
-Laboratory ID
-Name
-Address
-Phone Number
-TIN number
}
class Test{
-Test Type
-Internal Code
-NHS Code
-Description Of The Collection Method
-Date and Time Collected
-Date and Time of Chemical Analysis
-Date and Time of Validation of the Test
-Date and Time of the Diagnosis

}
class Laboratories{
}

Administrator -d- ClinicalAnalysisLaboratory : register >
Test -l- ClinicalAnalysisLaboratory : determine analysis types >
ClinicalAnalysisLaboratory -d- Laboratories : is part of >
@enduml

PlantUML version 1.2021.5beta3(Unknown compile time)
(GPL source distribution)
Java Runtime: Java(TM) SE Runtime Environment
JVM: Java HotSpot(TM) 64-Bit Server VM
Default Encoding: UTF-8
Language: en
Country: US
--></g></svg>