<svg xmlns="http://www.w3.org/2000/svg" xmlns:xlink="http://www.w3.org/1999/xlink" xmlns:lucid="lucid" width="3934.75" height="1400"><g transform="translate(-83.75308641975309 0)" lucid:page-tab-id="0_0"><path d="M0 0h5484.6v2581.67H0z" fill="#fff"/><path d="M239.75 39.75c0 10.9-8.84 19.75-19.75 19.75-10.9 0-19.75-8.84-19.75-19.75C200.25 28.85 209.1 20 220 20c10.9 0 19.75 8.84 19.75 19.75z" stroke="#5e5e5e" stroke-width="3" fill="#fff"/><path d="M220 59.5v49.3c0 3.3 1.44 8.27 3.2 11.07L260 178m-40-63.2L180 178m0-98.75h80" stroke="#5e5e5e" stroke-width="3" fill="none"/><path d="M180 26c0-3.3 2.7-6 6-6h68c3.3 0 6 2.7 6 6v168c0 3.3-2.7 6-6 6h-68c-3.3 0-6-2.7-6-6z" fill="none"/><use xlink:href="#a" transform="matrix(1,0,0,1,100,178) translate(4.753086419753089 17.77777777777778)"/><use xlink:href="#b" transform="matrix(1,0,0,1,100,178) translate(87.28395061728395 17.77777777777778)"/><use xlink:href="#c" transform="matrix(1,0,0,1,100,178) translate(130.49382716049382 17.77777777777778)"/><path d="M239.75 1219.75c0 10.9-8.84 19.75-19.75 19.75-10.9 0-19.75-8.84-19.75-19.75 0-10.9 8.84-19.75 19.75-19.75 10.9 0 19.75 8.84 19.75 19.75z" stroke="#5e5e5e" stroke-width="3" fill="#fff"/><path d="M220 1239.5v49.3c0 3.3 1.44 8.27 3.2 11.07L260 1358m-40-63.2l-40 63.2m0-98.75h80" stroke="#5e5e5e" stroke-width="3" fill="none"/><path d="M180 1206c0-3.3 2.7-6 6-6h68c3.3 0 6 2.7 6 6v168c0 3.3-2.7 6-6 6h-68c-3.3 0-6-2.7-6-6z" fill="none"/><use xlink:href="#a" transform="matrix(1,0,0,1,100,1358) translate(4.753086419753089 17.77777777777778)"/><use xlink:href="#b" transform="matrix(1,0,0,1,100,1358) translate(87.28395061728395 17.77777777777778)"/><use xlink:href="#c" transform="matrix(1,0,0,1,100,1358) translate(130.49382716049382 17.77777777777778)"/><path d="M240 228c0-4.42-3.58-8-8-8h-24c-4.42 0-8 3.58-8 8v944c0 4.42 3.58 8 8 8h24c4.42 0 8-3.58 8-8z" stroke="#5e5e5e" stroke-width="3" fill="#fff"/><path d="M700 151.92c0-.28.22-.5.5-.5s.5.22.5.5V1199.5c0 .28-.22.5-.5.5s-.5-.22-.5-.5z" fill="#fff"/><path d="M701 166.97V173m0 12.03v6.02m0 12.04v6m0 12.05v6.02m0 12.05v6.02m0 12.04v6.02m0 12.04v6.02m0 12.04v6.02m0 12.04v6.02m0 12.04v6.03m0 12.04v6m0 12.05v6.02m0 12.04v6.03m0 12.04v6.02m0 12.03v6.02m0 12.05v6.02m0 12.04v6.02m0 12.04v6.02m0 12.04v6.02m0 12.04v6.02m0 12.04v6.02m0 12.05v6.02m0 12.03v6.02m0 12.04v6m0 12.05v6.02m0 12.04v6.03m0 12.04v6.03m0 12.04v6.02m0 12.04v6.02m0 12.04v6.02m0 12.04v6.02m0 12.04v6.02m0 12.05v6.02m0 12.04v6.03m0 12.04v6.02m0 12.03v6.02m0 12.04v6m0 12.05v6.02m0 12.05v6.02m0 12.04v6.02m0 12.04v6.02m0 12.04v6.02m0 12.04v6.02m0 12.04v6.03m0 12.04v6m0 12.05v6.02m0 12.04v6.03m0 12.04v6.02m0 12.03v6.02m0 12.05v6.02m0 12.04v6.02m0 12.04v6.02m0 12.04v6.02m0 12.04v6.02m0 12.04v6.02m0 12.05v6.02m0 12.03v6.02m0 12.04v3l-.15.35-.35.15-.35-.15-.15-.35v-3m0-12.05v-6.02m0-12.04v-6.03m0-12.05v-6.02m0-12.04v-6.02m0-12.04v-6.02m0-12.04v-6.02m0-12.04v-6.02m0-12.04V1052m0-12.05v-6.02m0-12.04v-6.03m0-12.04v-6.02m0-12.03v-6.02m0-12.04v-6m0-12.05v-6.03m0-12.04v-6.02m0-12.04v-6.02m0-12.04v-6.02m0-12.04v-6.02m0-12.04v-6.02m0-12.05v-6.02m0-12.04v-6m0-12.05v-6.02m0-12.04v-6.03m0-12.04V763m0-12.03v-6.02m0-12.05v-6.02m0-12.04v-6.02m0-12.04v-6.02m0-12.04v-6.02m0-12.04v-6.02m0-12.04v-6.03m0-12.04v-6.02m0-12.03v-6.02m0-12.04v-6m0-12.05v-6.02m0-12.04v-6.03m0-12.05v-6.02m0-12.04v-6.02m0-12.04v-6.02m0-12.04v-6.02m0-12.04v-6.02m0-12.04v-6.02m0-12.05v-6.02m0-12.04v-6.03m0-12.04v-6.02m0-12.03v-6.02m0-12.04v-6m0-12.05v-6.03m0-12.04v-6.02m0-12.04v-6.02m0-12.04v-6.02m0-12.04v-6.02m0-12.04v-6.02m0-12.05v-6.02m0-12.04v-6m0-12.05v-6.02m0-12.04v-6.03m0-12.04v-3l.15-.37.35-.14.35.14.15.36v3" stroke="#5e5e5e" stroke-width="3" fill="none"/><path d="M616.5 1200c-8.84 0-16 7.16-16 16v48c0 8.84 7.16 16 16 16h168c8.84 0 16-7.16 16-16v-48c0-8.84-7.16-16-16-16z" stroke="#5e5e5e" stroke-width="3" fill="#fff"/><use xlink:href="#d" transform="matrix(1,0,0,1,608.5,1208) translate(-2.259259259259238 36.44444444444444)"/><path d="M616.5 120c-8.84 0-16 7.16-16 16v48c0 8.84 7.16 16 16 16h168c8.84 0 16-7.16 16-16v-48c0-8.84-7.16-16-16-16z" stroke="#5e5e5e" stroke-width="3" fill="#fff"/><use xlink:href="#d" transform="matrix(1,0,0,1,608.5,128) translate(-2.259259259259238 36.44444444444444)"/><path d="M1376 1200c-8.84 0-16 7.16-16 16v48c0 8.84 7.16 16 16 16h248c8.84 0 16-7.16 16-16v-48c0-8.84-7.16-16-16-16z" stroke="#5e5e5e" stroke-width="3" fill="#fff"/><use xlink:href="#e" transform="matrix(1,0,0,1,1368,1208) translate(0.8271604938272219 36.44444444444444)"/><path d="M2215.5 1200c-8.84 0-16 7.16-16 16v48c0 8.84 7.16 16 16 16h168c8.84 0 16-7.16 16-16v-48c0-8.84-7.16-16-16-16z" stroke="#5e5e5e" stroke-width="3" fill="#fff"/><use xlink:href="#f" transform="matrix(1,0,0,1,2207.5,1208) translate(44.53086419753086 36.44444444444444)"/><path d="M2975 1200c-8.84 0-16 7.16-16 16v48c0 8.84 7.16 16 16 16h208c8.84 0 16-7.16 16-16v-48c0-8.84-7.16-16-16-16z" stroke="#5e5e5e" stroke-width="3" fill="#fff"/><use xlink:href="#g" transform="matrix(1,0,0,1,2967,1208) translate(2.8086419753086744 36.44444444444444)"/><path d="M2300 151.92c0-.28.22-.5.5-.5s.5.22.5.5V1199.5c0 .28-.22.5-.5.5s-.5-.22-.5-.5z" fill="#fff"/><path d="M2301 166.97V173m0 12.03v6.02m0 12.04v6m0 12.05v6.02m0 12.05v6.02m0 12.04v6.02m0 12.04v6.02m0 12.04v6.02m0 12.04v6.02m0 12.04v6.03m0 12.04v6m0 12.05v6.02m0 12.04v6.03m0 12.04v6.02m0 12.03v6.02m0 12.05v6.02m0 12.04v6.02m0 12.04v6.02m0 12.04v6.02m0 12.04v6.02m0 12.04v6.02m0 12.05v6.02m0 12.03v6.02m0 12.04v6m0 12.05v6.02m0 12.04v6.03m0 12.04v6.03m0 12.04v6.02m0 12.04v6.02m0 12.04v6.02m0 12.04v6.02m0 12.04v6.02m0 12.05v6.02m0 12.04v6.03m0 12.04v6.02m0 12.03v6.02m0 12.04v6m0 12.05v6.02m0 12.05v6.02m0 12.04v6.02m0 12.04v6.02m0 12.04v6.02m0 12.04v6.02m0 12.04v6.03m0 12.04v6m0 12.05v6.02m0 12.04v6.03m0 12.04v6.02m0 12.03v6.02m0 12.05v6.02m0 12.04v6.02m0 12.04v6.02m0 12.04v6.02m0 12.04v6.02m0 12.04v6.02m0 12.05v6.02m0 12.03v6.02m0 12.04v3l-.15.35-.35.15-.35-.15-.15-.35v-3m0-12.05v-6.02m0-12.04v-6.03m0-12.05v-6.02m0-12.04v-6.02m0-12.04v-6.02m0-12.04v-6.02m0-12.04v-6.02m0-12.04V1052m0-12.05v-6.02m0-12.04v-6.03m0-12.04v-6.02m0-12.03v-6.02m0-12.04v-6m0-12.05v-6.03m0-12.04v-6.02m0-12.04v-6.02m0-12.04v-6.02m0-12.04v-6.02m0-12.04v-6.02m0-12.05v-6.02m0-12.04v-6m0-12.05v-6.02m0-12.04v-6.03m0-12.04V763m0-12.03v-6.02m0-12.05v-6.02m0-12.04v-6.02m0-12.04v-6.02m0-12.04v-6.02m0-12.04v-6.02m0-12.04v-6.03m0-12.04v-6.02m0-12.03v-6.02m0-12.04v-6m0-12.05v-6.02m0-12.04v-6.03m0-12.05v-6.02m0-12.04v-6.02m0-12.04v-6.02m0-12.04v-6.02m0-12.04v-6.02m0-12.04v-6.02m0-12.05v-6.02m0-12.04v-6.03m0-12.04v-6.02m0-12.03v-6.02m0-12.04v-6m0-12.05v-6.03m0-12.04v-6.02m0-12.04v-6.02m0-12.04v-6.02m0-12.04v-6.02m0-12.04v-6.02m0-12.05v-6.02m0-12.04v-6m0-12.05v-6.02m0-12.04v-6.03m0-12.04v-3l.15-.37.35-.14.35.14.15.36v3" stroke="#5e5e5e" stroke-width="3" fill="none"/><path d="M1498.5 151.92c0-.28.22-.5.5-.5s.5.22.5.5V1199.5c0 .28-.22.5-.5.5s-.5-.22-.5-.5z" fill="#fff"/><path d="M1499.5 166.97V173m0 12.03v6.02m0 12.04v6m0 12.05v6.02m0 12.05v6.02m0 12.04v6.02m0 12.04v6.02m0 12.04v6.02m0 12.04v6.02m0 12.04v6.03m0 12.04v6m0 12.05v6.02m0 12.04v6.03m0 12.04v6.02m0 12.03v6.02m0 12.05v6.02m0 12.04v6.02m0 12.04v6.02m0 12.04v6.02m0 12.04v6.02m0 12.04v6.02m0 12.05v6.02m0 12.03v6.02m0 12.04v6m0 12.05v6.02m0 12.04v6.03m0 12.04v6.03m0 12.04v6.02m0 12.04v6.02m0 12.04v6.02m0 12.04v6.02m0 12.04v6.02m0 12.05v6.02m0 12.04v6.03m0 12.04v6.02m0 12.03v6.02m0 12.04v6m0 12.05v6.02m0 12.05v6.02m0 12.04v6.02m0 12.04v6.02m0 12.04v6.02m0 12.04v6.02m0 12.04v6.03m0 12.04v6m0 12.05v6.02m0 12.04v6.03m0 12.04v6.02m0 12.03v6.02m0 12.05v6.02m0 12.04v6.02m0 12.04v6.02m0 12.04v6.02m0 12.04v6.02m0 12.04v6.02m0 12.05v6.02m0 12.03v6.02m0 12.04v3l-.15.35-.35.15-.35-.15-.15-.35v-3m0-12.05v-6.02m0-12.04v-6.03m0-12.05v-6.02m0-12.04v-6.02m0-12.04v-6.02m0-12.04v-6.02m0-12.04v-6.02m0-12.04V1052m0-12.05v-6.02m0-12.04v-6.03m0-12.04v-6.02m0-12.03v-6.02m0-12.04v-6m0-12.05v-6.03m0-12.04v-6.02m0-12.04v-6.02m0-12.04v-6.02m0-12.04v-6.02m0-12.04v-6.02m0-12.05v-6.02m0-12.04v-6m0-12.05v-6.02m0-12.04v-6.03m0-12.04V763m0-12.03v-6.02m0-12.05v-6.02m0-12.04v-6.02m0-12.04v-6.02m0-12.04v-6.02m0-12.04v-6.02m0-12.04v-6.03m0-12.04v-6.02m0-12.03v-6.02m0-12.04v-6m0-12.05v-6.02m0-12.04v-6.03m0-12.05v-6.02m0-12.04v-6.02m0-12.04v-6.02m0-12.04v-6.02m0-12.04v-6.02m0-12.04v-6.02m0-12.05v-6.02m0-12.04v-6.03m0-12.04v-6.02m0-12.03v-6.02m0-12.04v-6m0-12.05v-6.03m0-12.04v-6.02m0-12.04v-6.02m0-12.04v-6.02m0-12.04v-6.02m0-12.04v-6.02m0-12.05v-6.02m0-12.04v-6m0-12.05v-6.02m0-12.04v-6.03m0-12.04v-3l.15-.37.35-.14.35.14.15.36v3" stroke="#5e5e5e" stroke-width="3" fill="none"/><path d="M2215.5 120c-8.84 0-16 7.16-16 16v48c0 8.84 7.16 16 16 16h168c8.84 0 16-7.16 16-16v-48c0-8.84-7.16-16-16-16z" stroke="#5e5e5e" stroke-width="3" fill="#fff"/><use xlink:href="#f" transform="matrix(1,0,0,1,2207.5,128) translate(44.53086419753086 36.44444444444444)"/><path d="M1376 120c-8.84 0-16 7.16-16 16v48c0 8.84 7.16 16 16 16h248c8.84 0 16-7.16 16-16v-48c0-8.84-7.16-16-16-16z" stroke="#5e5e5e" stroke-width="3" fill="#fff"/><use xlink:href="#e" transform="matrix(1,0,0,1,1368,128) translate(0.8271604938272219 36.44444444444444)"/><path d="M3080 151.92c0-.28.22-.5.5-.5s.5.22.5.5V1199.5c0 .28-.22.5-.5.5s-.5-.22-.5-.5z" fill="#fff"/><path d="M3081 166.97V173m0 12.03v6.02m0 12.04v6m0 12.05v6.02m0 12.05v6.02m0 12.04v6.02m0 12.04v6.02m0 12.04v6.02m0 12.04v6.02m0 12.04v6.03m0 12.04v6m0 12.05v6.02m0 12.04v6.03m0 12.04v6.02m0 12.03v6.02m0 12.05v6.02m0 12.04v6.02m0 12.04v6.02m0 12.04v6.02m0 12.04v6.02m0 12.04v6.02m0 12.05v6.02m0 12.03v6.02m0 12.04v6m0 12.05v6.02m0 12.04v6.03m0 12.04v6.03m0 12.04v6.02m0 12.04v6.02m0 12.04v6.02m0 12.04v6.02m0 12.04v6.02m0 12.05v6.02m0 12.04v6.03m0 12.04v6.02m0 12.03v6.02m0 12.04v6m0 12.05v6.02m0 12.05v6.02m0 12.04v6.02m0 12.04v6.02m0 12.04v6.02m0 12.04v6.02m0 12.04v6.03m0 12.04v6m0 12.05v6.02m0 12.04v6.03m0 12.04v6.02m0 12.03v6.02m0 12.05v6.02m0 12.04v6.02m0 12.04v6.02m0 12.04v6.02m0 12.04v6.02m0 12.04v6.02m0 12.05v6.02m0 12.03v6.02m0 12.04v3l-.15.35-.35.15-.35-.15-.15-.35v-3m0-12.05v-6.02m0-12.04v-6.03m0-12.05v-6.02m0-12.04v-6.02m0-12.04v-6.02m0-12.04v-6.02m0-12.04v-6.02m0-12.04V1052m0-12.05v-6.02m0-12.04v-6.03m0-12.04v-6.02m0-12.03v-6.02m0-12.04v-6m0-12.05v-6.03m0-12.04v-6.02m0-12.04v-6.02m0-12.04v-6.02m0-12.04v-6.02m0-12.04v-6.02m0-12.05v-6.02m0-12.04v-6m0-12.05v-6.02m0-12.04v-6.03m0-12.04V763m0-12.03v-6.02m0-12.05v-6.02m0-12.04v-6.02m0-12.04v-6.02m0-12.04v-6.02m0-12.04v-6.02m0-12.04v-6.03m0-12.04v-6.02m0-12.03v-6.02m0-12.04v-6m0-12.05v-6.02m0-12.04v-6.03m0-12.05v-6.02m0-12.04v-6.02m0-12.04v-6.02m0-12.04v-6.02m0-12.04v-6.02m0-12.04v-6.02m0-12.05v-6.02m0-12.04v-6.03m0-12.04v-6.02m0-12.03v-6.02m0-12.04v-6m0-12.05v-6.03m0-12.04v-6.02m0-12.04v-6.02m0-12.04v-6.02m0-12.04v-6.02m0-12.04v-6.02m0-12.05v-6.02m0-12.04v-6m0-12.05v-6.02m0-12.04v-6.03m0-12.04v-3l.15-.37.35-.14.35.14.15.36v3" stroke="#5e5e5e" stroke-width="3" fill="none"/><path d="M2975 120c-8.84 0-16 7.16-16 16v48c0 8.84 7.16 16 16 16h208c8.84 0 16-7.16 16-16v-48c0-8.84-7.16-16-16-16z" stroke="#5e5e5e" stroke-width="3" fill="#fff"/><use xlink:href="#g" transform="matrix(1,0,0,1,2967,128) translate(2.8086419753086744 36.44444444444444)"/><path d="M720.5 268.63c0-4.42-3.58-8-8-8h-24c-4.42 0-8 3.58-8 8v192c0 4.4 3.58 8 8 8h24c4.42 0 8-3.6 8-8z" stroke="#5e5e5e" stroke-width="3" fill="#fff"/><path d="M242.5 282.67h418" stroke="#5e5e5e" stroke-width="2" fill="none"/><path d="M242.53 283.67h-1.03v-2h1.03z" fill="#5e5e5e"/><path d="M675.76 282.67l-14.26 4.63v-9.27z" stroke="#5e5e5e" stroke-width="2" fill="#5e5e5e"/><path d="M678 438.9H260" stroke="#5e5e5e" stroke-width="2" fill="none"/><path d="M679 439.9h-1.03v-2H679z" fill="#5e5e5e"/><path d="M244.74 438.9L259 434.3v9.27z" stroke="#5e5e5e" stroke-width="2" fill="#5e5e5e"/><path d="M280 246c0-3.3 2.7-6 6-6h348.5c3.3 0 6 2.7 6 6v29.67c0 3.3-2.7 6-6 6H286c-3.3 0-6-2.7-6-6z" stroke="#000" stroke-opacity="0" stroke-width="3" fill="#fff" fill-opacity="0"/><use xlink:href="#h" transform="matrix(1,0,0,1,285.0000000000001,245) translate(0 19.77777777777778)"/><use xlink:href="#i" transform="matrix(1,0,0,1,285.0000000000001,245) translate(22.22222222222222 19.77777777777778)"/><use xlink:href="#j" transform="matrix(1,0,0,1,285.0000000000001,245) translate(86.35802469135803 19.77777777777778)"/><use xlink:href="#k" transform="matrix(1,0,0,1,285.0000000000001,245) translate(180.06172839506172 19.77777777777778)"/><use xlink:href="#l" transform="matrix(1,0,0,1,285.0000000000001,245) translate(198.58024691358025 19.77777777777778)"/><path d="M270.38 406c0-3.3 2.68-6 6-6h367.75c3.3 0 6 2.7 6 6v19.67c0 3.3-2.7 6-6 6H276.38c-3.32 0-6-2.7-6-6z" stroke="#000" stroke-opacity="0" stroke-width="3" fill="#fff" fill-opacity="0"/><use xlink:href="#m" transform="matrix(1,0,0,1,275.3750000000001,405) translate(18.518518518518505 17.77777777777778)"/><use xlink:href="#n" transform="matrix(1,0,0,1,275.3750000000001,405) translate(43.20987654320986 17.77777777777778)"/><use xlink:href="#o" transform="matrix(1,0,0,1,275.3750000000001,405) translate(115.98765432098763 17.77777777777778)"/><use xlink:href="#p" transform="matrix(1,0,0,1,275.3750000000001,405) translate(153.02469135802468 17.77777777777778)"/><use xlink:href="#q" transform="matrix(1,0,0,1,275.3750000000001,405) translate(186.23456790123456 17.77777777777778)"/><use xlink:href="#r" transform="matrix(1,0,0,1,275.3750000000001,405) translate(210.92592592592592 17.77777777777778)"/><use xlink:href="#s" transform="matrix(1,0,0,1,275.3750000000001,405) translate(264.01234567901236 17.77777777777778)"/><path d="M720.5 553c0-4.42-3.58-8-8-8h-24c-4.42 0-8 3.58-8 8v242.33c0 4.42 3.58 8 8 8h24c4.42 0 8-3.58 8-8z" stroke="#5e5e5e" stroke-width="3" fill="#fff"/><path d="M242.5 581.9h418" stroke="#5e5e5e" stroke-width="2" fill="none"/><path d="M242.53 582.9h-1.03v-2h1.03z" fill="#5e5e5e"/><path d="M675.76 581.9l-14.26 4.64v-9.27z" stroke="#5e5e5e" stroke-width="2" fill="#5e5e5e"/><path d="M261 551c0-3.3 2.7-6 6-6h368.5c3.3 0 6 2.7 6 6v29.67c0 3.3-2.7 6-6 6H267c-3.3 0-6-2.7-6-6z" stroke="#000" stroke-opacity="0" stroke-width="3" fill="#fff" fill-opacity="0"/><use xlink:href="#t" transform="matrix(1,0,0,1,266.0000000000001,549.9999999999999) translate(40.59259259259261 19.77777777777778)"/><use xlink:href="#u" transform="matrix(1,0,0,1,266.0000000000001,549.9999999999999) translate(65.28395061728396 19.77777777777778)"/><use xlink:href="#k" transform="matrix(1,0,0,1,266.0000000000001,549.9999999999999) translate(144.23456790123458 19.77777777777778)"/><use xlink:href="#r" transform="matrix(1,0,0,1,266.0000000000001,549.9999999999999) translate(162.7530864197531 19.77777777777778)"/><use xlink:href="#v" transform="matrix(1,0,0,1,266.0000000000001,549.9999999999999) translate(215.83950617283952 19.77777777777778)"/><use xlink:href="#o" transform="matrix(1,0,0,1,266.0000000000001,549.9999999999999) translate(266.33333333333337 19.77777777777778)"/><use xlink:href="#w" transform="matrix(1,0,0,1,266.0000000000001,549.9999999999999) translate(303.3703703703704 19.77777777777778)"/><path d="M1520 553.2c0-4.53-3.67-8.2-8.2-8.2h-24.6c-4.53 0-8.2 3.67-8.2 8.2v241.93c0 4.53 3.67 8.2 8.2 8.2h24.6c4.53 0 8.2-3.67 8.2-8.2z" stroke="#5e5e5e" stroke-width="3" fill="#fff"/><path d="M723 584.98h376.67c.05 0 .08.03.08.08 0 .04.03.07.08.07H1459" stroke="#5e5e5e" stroke-width="2" fill="none"/><path d="M723.03 585.98H722v-2h1.03z" fill="#5e5e5e"/><path d="M1474.26 585.13l-14.26 4.64v-9.27z" stroke="#5e5e5e" stroke-width="2" fill="#5e5e5e"/><path d="M879.75 558.08c0-3.3 2.7-6 6-6h428c3.3 0 6 2.7 6 6v15.5c0 3.32-2.7 6-6 6h-428c-3.3 0-6-2.68-6-6z" stroke="#000" stroke-opacity="0" stroke-width="3" fill="#fff" fill-opacity="0"/><use xlink:href="#x" transform="matrix(1,0,0,1,884.7500000000002,557.0833333333333) translate(25.956790123456813 17.77777777777778)"/><use xlink:href="#y" transform="matrix(1,0,0,1,884.7500000000002,557.0833333333333) translate(50.64814814814817 17.77777777777778)"/><use xlink:href="#z" transform="matrix(1,0,0,1,884.7500000000002,557.0833333333333) translate(262.3148148148148 17.77777777777778)"/><path d="M678 766.43H260" stroke="#5e5e5e" stroke-width="2" fill="none"/><path d="M679 767.43h-1.03v-2H679z" fill="#5e5e5e"/><path d="M244.74 766.43L259 761.8v9.26z" stroke="#5e5e5e" stroke-width="2" fill="#5e5e5e"/><path d="M300.38 715.17c0-3.32 2.68-6 6-6h307.75c3.3 0 6 2.68 6 6v51.33c0 3.3-2.7 6-6 6H306.38c-3.32 0-6-2.7-6-6z" stroke="#000" stroke-opacity="0" stroke-width="3" fill="#fff" fill-opacity="0"/><use xlink:href="#A" transform="matrix(1,0,0,1,305.3750000000001,714.1666666666667) translate(8.827160493827165 31.27777777777778)"/><use xlink:href="#B" transform="matrix(1,0,0,1,305.3750000000001,714.1666666666667) translate(33.51851851851852 31.27777777777778)"/><use xlink:href="#C" transform="matrix(1,0,0,1,305.3750000000001,714.1666666666667) translate(113.64197530864197 31.27777777777778)"/><use xlink:href="#q" transform="matrix(1,0,0,1,305.3750000000001,714.1666666666667) translate(188.9506172839506 31.27777777777778)"/><use xlink:href="#D" transform="matrix(1,0,0,1,305.3750000000001,714.1666666666667) translate(213.64197530864197 31.27777777777778)"/><path d="M720.5 888c0-4.42-3.58-8-8-8h-24c-4.42 0-8 3.58-8 8v227.33c0 4.42 3.58 8 8 8h24c4.42 0 8-3.58 8-8z" stroke="#5e5e5e" stroke-width="3" fill="#fff"/><path d="M242.5 914.76h418" stroke="#5e5e5e" stroke-width="2" fill="none"/><path d="M242.53 915.76h-1.03v-2h1.03z" fill="#5e5e5e"/><path d="M675.76 914.76l-14.26 4.64v-9.27z" stroke="#5e5e5e" stroke-width="2" fill="#5e5e5e"/><path d="M249.75 886c0-3.3 2.7-6 6-6h409c3.3 0 6 2.7 6 6v29.67c0 3.3-2.7 6-6 6h-409c-3.3 0-6-2.7-6-6z" stroke="#000" stroke-opacity="0" stroke-width="3" fill="#fff" fill-opacity="0"/><use xlink:href="#E" transform="matrix(1,0,0,1,254.7500000000001,884.9999999999999) translate(2.84567901234567 19.77777777777778)"/><use xlink:href="#F" transform="matrix(1,0,0,1,254.7500000000001,884.9999999999999) translate(27.537037037037027 19.77777777777778)"/><use xlink:href="#G" transform="matrix(1,0,0,1,254.7500000000001,884.9999999999999) translate(96.05555555555554 19.77777777777778)"/><use xlink:href="#q" transform="matrix(1,0,0,1,254.7500000000001,884.9999999999999) translate(177.41358024691357 19.77777777777778)"/><use xlink:href="#H" transform="matrix(1,0,0,1,254.7500000000001,884.9999999999999) translate(202.10493827160494 19.77777777777778)"/><use xlink:href="#I" transform="matrix(1,0,0,1,254.7500000000001,884.9999999999999) translate(290.8703703703704 19.77777777777778)"/><use xlink:href="#J" transform="matrix(1,0,0,1,254.7500000000001,884.9999999999999) translate(315.5617283950617 19.77777777777778)"/><use xlink:href="#K" transform="matrix(1,0,0,1,254.7500000000001,884.9999999999999) translate(346.4259259259259 19.77777777777778)"/><path d="M723 917.66h737" stroke="#5e5e5e" stroke-width="2" fill="none"/><path d="M723.03 918.66H722v-2h1.03z" fill="#5e5e5e"/><path d="M1475.26 917.66L1461 922.3V913z" stroke="#5e5e5e" stroke-width="2" fill="#5e5e5e"/><path d="M1520 888c0-4.42-3.58-8-8-8h-24c-4.42 0-8 3.58-8 8v227.33c0 4.42 3.58 8 8 8h24c4.42 0 8-3.58 8-8z" stroke="#5e5e5e" stroke-width="3" fill="#fff"/><path d="M760.25 891.7c0-3.3 2.7-6 6-6h668c3.3 0 6 2.7 6 6v23.97c0 3.3-2.7 6-6 6h-668c-3.3 0-6-2.7-6-6z" stroke="#000" stroke-opacity="0" stroke-width="3" fill="#fff" fill-opacity="0"/><use xlink:href="#L" transform="matrix(1,0,0,1,765.25,890.7086614173229) translate(98.61111111111114 19.40277777777778)"/><use xlink:href="#M" transform="matrix(1,0,0,1,765.25,890.7086614173229) translate(123.3024691358025 19.40277777777778)"/><use xlink:href="#N" transform="matrix(1,0,0,1,765.25,890.7086614173229) translate(277.00617283950623 19.40277777777778)"/><g><path d="M3081 888c0-4.42-3.58-8-8-8h-24c-4.42 0-8 3.58-8 8v227.33c0 4.42 3.58 8 8 8h24c4.42 0 8-3.58 8-8z" stroke="#5e5e5e" stroke-width="3" fill="#fff"/></g><path d="M1522.5 921.67H3021" stroke="#5e5e5e" stroke-width="2" fill="none"/><path d="M1522.53 922.67h-1.03v-2h1.03z" fill="#5e5e5e"/><path d="M3036.26 921.67L3022 926.3v-9.27z" stroke="#5e5e5e" stroke-width="2" fill="#5e5e5e"/><path d="M2070.5 882.43c0-3.32 2.7-6 6-6h408c3.3 0 6 2.68 6 6v36.8c0 3.32-2.7 6-6 6h-408c-3.3 0-6-2.68-6-6z" stroke="#000" stroke-opacity="0" stroke-width="3" fill="#fff" fill-opacity="0"/><g><use xlink:href="#O" transform="matrix(1,0,0,1,2075.5,881.4271653543308) translate(12.043209876543216 25.09027777777778)"/><use xlink:href="#P" transform="matrix(1,0,0,1,2075.5,881.4271653543308) translate(30.561728395061735 25.09027777777778)"/><use xlink:href="#Q" transform="matrix(1,0,0,1,2075.5,881.4271653543308) translate(288.2777777777777 25.09027777777778)"/></g><path d="M2020.5 940.8c0-3.32 2.7-6 6-6h508c3.3 0 6 2.68 6 6v22.5c0 3.3-2.7 6-6 6h-508c-3.3 0-6-2.7-6-6z" stroke="#000" stroke-opacity="0" stroke-width="3" fill="#fff" fill-opacity="0"/><g><use xlink:href="#R" transform="matrix(1,0,0,1,2025.5,939.7916666666665) translate(128.54938271604942 19.34027777777778)"/><use xlink:href="#S" transform="matrix(1,0,0,1,2025.5,939.7916666666665) translate(153.2407407407408 19.34027777777778)"/></g><path d="M678 1098.5H260" stroke="#5e5e5e" stroke-width="2" fill="none"/><path d="M679 1099.5h-1.03v-2H679z" fill="#5e5e5e"/><path d="M244.74 1098.5l14.26-4.64v9.28z" stroke="#5e5e5e" stroke-width="2" fill="#5e5e5e"/><path d="M240 1059.38c0-3.32 2.7-6 6-6h436.75c3.3 0 6 2.68 6 6v33.12c0 3.3-2.7 6-6 6H246c-3.3 0-6-2.7-6-6z" stroke="#000" stroke-opacity="0" stroke-width="3" fill="#fff" fill-opacity="0"/><g><use xlink:href="#T" transform="matrix(1,0,0,1,245.00000000000003,1058.3753280839903) translate(8.018518518518505 22.27777777777778)"/><use xlink:href="#B" transform="matrix(1,0,0,1,245.00000000000003,1058.3753280839903) translate(45.05555555555554 22.27777777777778)"/><use xlink:href="#U" transform="matrix(1,0,0,1,245.00000000000003,1058.3753280839903) translate(125.179012345679 22.27777777777778)"/><use xlink:href="#V" transform="matrix(1,0,0,1,245.00000000000003,1058.3753280839903) translate(142.4012345679012 22.27777777777778)"/><use xlink:href="#W" transform="matrix(1,0,0,1,245.00000000000003,1058.3753280839903) translate(159.62345679012344 22.27777777777778)"/><use xlink:href="#X" transform="matrix(1,0,0,1,245.00000000000003,1058.3753280839903) translate(205.24074074074073 22.27777777777778)"/><use xlink:href="#Y" transform="matrix(1,0,0,1,245.00000000000003,1058.3753280839903) translate(311.35185185185185 22.27777777777778)"/></g><path d="M1522.5 1028H3021" stroke="#5e5e5e" stroke-width="2" fill="none"/><path d="M1522.53 1029h-1.03v-2h1.03z" fill="#5e5e5e"/><path d="M3036.26 1028l-14.26 4.64v-9.28z" stroke="#5e5e5e" stroke-width="2" fill="#5e5e5e"/><path d="M1522.5 976H3021" stroke="#5e5e5e" stroke-width="2" fill="none"/><path d="M1522.53 977h-1.03v-2h1.03z" fill="#5e5e5e"/><path d="M3036.26 976l-14.26 4.64v-9.28z" stroke="#5e5e5e" stroke-width="2" fill="#5e5e5e"/><path d="M2110.75 988.42c0-3.32 2.7-6 6-6h327.5c3.3 0 6 2.68 6 6v26.5c0 3.3-2.7 6-6 6h-327.5c-3.3 0-6-2.7-6-6z" stroke="#000" stroke-opacity="0" stroke-width="3" fill="#fff" fill-opacity="0"/><g><use xlink:href="#Z" transform="matrix(1,0,0,1,2115.75,987.4166666666666) translate(28.0555555555556 19.59027777777778)"/><use xlink:href="#aa" transform="matrix(1,0,0,1,2115.75,987.4166666666666) translate(65.09259259259264 19.59027777777778)"/></g><path d="M3083.5 969.3H3860" stroke="#5e5e5e" stroke-width="2" fill="none"/><path d="M3083.53 970.3h-1.03v-2h1.03z" fill="#5e5e5e"/><path d="M3875.26 969.3l-14.26 4.63v-9.27z" stroke="#5e5e5e" stroke-width="2" fill="#5e5e5e"/><path d="M3774.5 1200c-8.84 0-16 7.16-16 16v48c0 8.84 7.16 16 16 16h208c8.84 0 16-7.16 16-16v-48c0-8.84-7.16-16-16-16z" stroke="#5e5e5e" stroke-width="3" fill="#fff"/><g><use xlink:href="#ab" transform="matrix(1,0,0,1,3766.5,1208) translate(32.314814814814824 36.44444444444444)"/></g><path d="M3880 160.5c0-.28.22-.5.5-.5s.5.22.5.5v1047.58c0 .28-.22.5-.5.5s-.5-.22-.5-.5z" fill="#fff"/><path d="M3881 175.55v6.02m0 12.04v6.03m0 12.05v6.02m0 12.04v6.02m0 12.04v6.02m0 12.04v6.02m0 12.04v6.02m0 12.04V308m0 12.05v6.02m0 12.04v6.03m0 12.04v6.02m0 12.03v6.02m0 12.04v6m0 12.05v6.03m0 12.04v6.02m0 12.04v6.02m0 12.04v6.02m0 12.04v6.02m0 12.04v6.02m0 12.05v6.02m0 12.04v6m0 12.05v6.02m0 12.04v6.03m0 12.04V597m0 12.03v6.02m0 12.05v6.02m0 12.04v6.02m0 12.04v6.02m0 12.04v6.02m0 12.04v6.02m0 12.04v6.03m0 12.04v6.02m0 12.03v6.02m0 12.04v6m0 12.05v6.02m0 12.04v6.03m0 12.05v6.02m0 12.04v6.02m0 12.04v6.02m0 12.04v6.02m0 12.04v6.02m0 12.04v6.02m0 12.05v6.02m0 12.04v6.03m0 12.04v6.02m0 12.03v6.02m0 12.04v6m0 12.05v6.03m0 12.04v6.02m0 12.04v6.02m0 12.04v6.02m0 12.04v6.02m0 12.04v6.02m0 12.05v6.02m0 12.04v6m0 12.05v6.02m0 12.04v6.03m0 12.04v3l-.15.37-.35.14-.35-.14-.15-.36v-3m0-12.05V1187m0-12.03v-6.02m0-12.04v-6m0-12.05v-6.02m0-12.05v-6.02m0-12.04v-6.02m0-12.04v-6.02m0-12.04v-6.02m0-12.04v-6.02m0-12.04v-6.03m0-12.04v-6m0-12.05v-6.02m0-12.04v-6.03m0-12.04v-6.02m0-12.03v-6.02m0-12.05v-6.02m0-12.04v-6.02m0-12.04v-6.02m0-12.04v-6.02m0-12.04v-6.02m0-12.04v-6.02m0-12.05v-6.02m0-12.03v-6.02m0-12.04v-6m0-12.05v-6.02m0-12.04v-6.03m0-12.04v-6.03m0-12.04v-6.02m0-12.04v-6.02m0-12.04v-6.02m0-12.04v-6.02m0-12.04v-6.02m0-12.05v-6.02m0-12.04v-6.03m0-12.04v-6.02m0-12.03v-6.02m0-12.04v-6m0-12.05v-6.02m0-12.05v-6.02m0-12.04v-6.02m0-12.04v-6.02m0-12.04v-6.02m0-12.04v-6.02m0-12.04v-6.03m0-12.04v-6m0-12.05v-6.02m0-12.04v-6.03m0-12.04v-6.02m0-12.03v-6.02m0-12.05v-6.02m0-12.04v-6.02m0-12.04v-6.02m0-12.04v-6.02m0-12.04v-6.02m0-12.04v-6.02m0-12.05v-6.02m0-12.03v-6.02m0-12.04v-3l.15-.35.35-.15.35.15.15.35v3" stroke="#5e5e5e" stroke-width="3" fill="none"/><path d="M3774.5 120c-8.84 0-16 7.16-16 16v48c0 8.84 7.16 16 16 16h208c8.84 0 16-7.16 16-16v-48c0-8.84-7.16-16-16-16z" stroke="#5e5e5e" stroke-width="3" fill="#fff"/><g><use xlink:href="#ab" transform="matrix(1,0,0,1,3766.5,128) translate(32.314814814814824 36.44444444444444)"/></g><path d="M3340 931.24c0-3.3 2.7-6 6-6h327.5c3.3 0 6 2.7 6 6v29.67c0 3.32-2.7 6-6 6H3346c-3.3 0-6-2.68-6-6z" stroke="#000" stroke-opacity="0" stroke-width="3" fill="#fff" fill-opacity="0"/><g><use xlink:href="#ac" transform="matrix(1,0,0,1,3345,930.2395013123356) translate(34.5679012345679 19.77777777777778)"/><use xlink:href="#ad" transform="matrix(1,0,0,1,3345,930.2395013123356) translate(63.76543209876543 19.77777777777778)"/><use xlink:href="#ae" transform="matrix(1,0,0,1,3345,930.2395013123356) translate(136.48148148148147 19.77777777777778)"/></g><defs><path fill="#333" d="M240 0l2-218c-23 76-54 145-80 218h-23L58-218 59 0H30v-248h44l77 211c21-75 51-140 76-211h43V0h-30" id="af"/><path fill="#333" d="M100-194c63 0 86 42 84 106H49c0 40 14 67 53 68 26 1 43-12 49-29l28 8c-11 28-37 45-77 45C44 4 14-33 15-96c1-61 26-98 85-98zm52 81c6-60-76-77-97-28-3 7-6 17-6 28h103" id="ag"/><path fill="#333" d="M85-194c31 0 48 13 60 33l-1-100h32l1 261h-30c-2-10 0-23-3-31C134-8 116 4 85 4 32 4 16-35 15-94c0-66 23-100 70-100zm9 24c-40 0-46 34-46 75 0 40 6 74 45 74 42 0 51-32 51-76 0-42-9-74-50-73" id="ah"/><path fill="#333" d="M24-231v-30h32v30H24zM24 0v-190h32V0H24" id="ai"/><path fill="#333" d="M96-169c-40 0-48 33-48 73s9 75 48 75c24 0 41-14 43-38l32 2c-6 37-31 61-74 61-59 0-76-41-82-99-10-93 101-131 147-64 4 7 5 14 7 22l-32 3c-4-21-16-35-41-35" id="aj"/><path fill="#333" d="M141-36C126-15 110 5 73 4 37 3 15-17 15-53c-1-64 63-63 125-63 3-35-9-54-41-54-24 1-41 7-42 31l-33-3c5-37 33-52 76-52 45 0 72 20 72 64v82c-1 20 7 32 28 27v20c-31 9-61-2-59-35zM48-53c0 20 12 33 32 33 41-3 63-29 60-74-43 2-92-5-92 41" id="ak"/><path fill="#333" d="M24 0v-261h32V0H24" id="al"/><g id="a"><use transform="matrix(0.06172839506172839,0,0,0.06172839506172839,0,0)" xlink:href="#af"/><use transform="matrix(0.06172839506172839,0,0,0.06172839506172839,18.456790123456788,0)" xlink:href="#ag"/><use transform="matrix(0.06172839506172839,0,0,0.06172839506172839,30.80246913580247,0)" xlink:href="#ah"/><use transform="matrix(0.06172839506172839,0,0,0.06172839506172839,43.148148148148145,0)" xlink:href="#ai"/><use transform="matrix(0.06172839506172839,0,0,0.06172839506172839,48.02469135802469,0)" xlink:href="#aj"/><use transform="matrix(0.06172839506172839,0,0,0.06172839506172839,59.1358024691358,0)" xlink:href="#ak"/><use transform="matrix(0.06172839506172839,0,0,0.06172839506172839,71.48148148148148,0)" xlink:href="#al"/></g><path fill="#333" d="M30 0v-248h33v221h125V0H30" id="am"/><path fill="#333" d="M115-194c53 0 69 39 70 98 0 66-23 100-70 100C84 3 66-7 56-30L54 0H23l1-261h32v101c10-23 28-34 59-34zm-8 174c40 0 45-34 45-75 0-40-5-75-45-74-42 0-51 32-51 76 0 43 10 73 51 73" id="an"/><g id="b"><use transform="matrix(0.06172839506172839,0,0,0.06172839506172839,0,0)" xlink:href="#am"/><use transform="matrix(0.06172839506172839,0,0,0.06172839506172839,12.345679012345679,0)" xlink:href="#ak"/><use transform="matrix(0.06172839506172839,0,0,0.06172839506172839,24.691358024691358,0)" xlink:href="#an"/></g><path fill="#333" d="M127-220V0H93v-220H8v-28h204v28h-85" id="ao"/><path fill="#333" d="M106-169C34-169 62-67 57 0H25v-261h32l-1 103c12-21 28-36 61-36 89 0 53 116 60 194h-32v-121c2-32-8-49-39-48" id="ap"/><path fill="#333" d="M117-194c89-4 53 116 60 194h-32v-121c0-31-8-49-39-48C34-167 62-67 57 0H25l-1-190h30c1 10-1 24 2 32 11-22 29-35 61-36" id="aq"/><g id="c"><use transform="matrix(0.06172839506172839,0,0,0.06172839506172839,0,0)" xlink:href="#ao"/><use transform="matrix(0.06172839506172839,0,0,0.06172839506172839,11.049382716049381,0)" xlink:href="#ag"/><use transform="matrix(0.06172839506172839,0,0,0.06172839506172839,23.39506172839506,0)" xlink:href="#aj"/><use transform="matrix(0.06172839506172839,0,0,0.06172839506172839,34.50617283950617,0)" xlink:href="#ap"/><use transform="matrix(0.06172839506172839,0,0,0.06172839506172839,46.85185185185185,0)" xlink:href="#aq"/><use transform="matrix(0.06172839506172839,0,0,0.06172839506172839,59.197530864197525,0)" xlink:href="#ai"/><use transform="matrix(0.06172839506172839,0,0,0.06172839506172839,64.07407407407406,0)" xlink:href="#aj"/><use transform="matrix(0.06172839506172839,0,0,0.06172839506172839,75.18518518518518,0)" xlink:href="#ai"/><use transform="matrix(0.06172839506172839,0,0,0.06172839506172839,80.06172839506172,0)" xlink:href="#ak"/><use transform="matrix(0.06172839506172839,0,0,0.06172839506172839,92.4074074074074,0)" xlink:href="#aq"/></g><path fill="#333" d="M185-189c-5-48-123-54-124 2 14 75 158 14 163 119 3 78-121 87-175 55-17-10-28-26-33-46l33-7c5 56 141 63 141-1 0-78-155-14-162-118-5-82 145-84 179-34 5 7 8 16 11 25" id="ar"/><path fill="#333" d="M210-169c-67 3-38 105-44 169h-31v-121c0-29-5-50-35-48C34-165 62-65 56 0H25l-1-190h30c1 10-1 24 2 32 10-44 99-50 107 0 11-21 27-35 58-36 85-2 47 119 55 194h-31v-121c0-29-5-49-35-48" id="as"/><path fill="#333" d="M115-194c55 1 70 41 70 98S169 2 115 4C84 4 66-9 55-30l1 105H24l-1-265h31l2 30c10-21 28-34 59-34zm-8 174c40 0 45-34 45-75s-6-73-45-74c-42 0-51 32-51 76 0 43 10 73 51 73" id="at"/><path fill="#333" d="M233-177c-1 41-23 64-60 70L243 0h-38l-65-103H63V0H30v-248c88 3 205-21 203 71zM63-129c60-2 137 13 137-47 0-61-80-42-137-45v92" id="au"/><path fill="#333" d="M100-194c62-1 85 37 85 99 1 63-27 99-86 99S16-35 15-95c0-66 28-99 85-99zM99-20c44 1 53-31 53-75 0-43-8-75-51-75s-53 32-53 75 10 74 51 75" id="av"/><path fill="#333" d="M114-163C36-179 61-72 57 0H25l-1-190h30c1 12-1 29 2 39 6-27 23-49 58-41v29" id="aw"/><path fill="#333" d="M232-93c-1 65-40 97-104 97C67 4 28-28 28-90v-158h33c8 89-33 224 67 224 102 0 64-133 71-224h33v155" id="ax"/><path fill="#333" d="M33 0v-248h34V0H33" id="ay"/><g id="d"><use transform="matrix(0.06172839506172839,0,0,0.06172839506172839,0,0)" xlink:href="#ar"/><use transform="matrix(0.06172839506172839,0,0,0.06172839506172839,14.814814814814813,0)" xlink:href="#ak"/><use transform="matrix(0.06172839506172839,0,0,0.06172839506172839,27.160493827160494,0)" xlink:href="#as"/><use transform="matrix(0.06172839506172839,0,0,0.06172839506172839,45.61728395061728,0)" xlink:href="#at"/><use transform="matrix(0.06172839506172839,0,0,0.06172839506172839,57.962962962962955,0)" xlink:href="#al"/><use transform="matrix(0.06172839506172839,0,0,0.06172839506172839,62.8395061728395,0)" xlink:href="#ag"/><use transform="matrix(0.06172839506172839,0,0,0.06172839506172839,75.18518518518518,0)" xlink:href="#au"/><use transform="matrix(0.06172839506172839,0,0,0.06172839506172839,91.17283950617283,0)" xlink:href="#ag"/><use transform="matrix(0.06172839506172839,0,0,0.06172839506172839,103.51851851851852,0)" xlink:href="#aj"/><use transform="matrix(0.06172839506172839,0,0,0.06172839506172839,114.62962962962963,0)" xlink:href="#av"/><use transform="matrix(0.06172839506172839,0,0,0.06172839506172839,126.97530864197533,0)" xlink:href="#aw"/><use transform="matrix(0.06172839506172839,0,0,0.06172839506172839,134.320987654321,0)" xlink:href="#ah"/><use transform="matrix(0.06172839506172839,0,0,0.06172839506172839,146.66666666666666,0)" xlink:href="#ag"/><use transform="matrix(0.06172839506172839,0,0,0.06172839506172839,159.01234567901233,0)" xlink:href="#aw"/><use transform="matrix(0.06172839506172839,0,0,0.06172839506172839,166.358024691358,0)" xlink:href="#ax"/><use transform="matrix(0.06172839506172839,0,0,0.06172839506172839,182.34567901234564,0)" xlink:href="#ay"/></g><path fill="#333" d="M212-179c-10-28-35-45-73-45-59 0-87 40-87 99 0 60 29 101 89 101 43 0 62-24 78-52l27 14C228-24 195 4 139 4 59 4 22-46 18-125c-6-104 99-153 187-111 19 9 31 26 39 46" id="az"/><path fill="#333" d="M59-47c-2 24 18 29 38 22v24C64 9 27 4 27-40v-127H5v-23h24l9-43h21v43h35v23H59v120" id="aA"/><g id="e"><use transform="matrix(0.06172839506172839,0,0,0.06172839506172839,0,0)" xlink:href="#ar"/><use transform="matrix(0.06172839506172839,0,0,0.06172839506172839,14.814814814814813,0)" xlink:href="#ak"/><use transform="matrix(0.06172839506172839,0,0,0.06172839506172839,27.160493827160494,0)" xlink:href="#as"/><use transform="matrix(0.06172839506172839,0,0,0.06172839506172839,45.61728395061728,0)" xlink:href="#at"/><use transform="matrix(0.06172839506172839,0,0,0.06172839506172839,57.962962962962955,0)" xlink:href="#al"/><use transform="matrix(0.06172839506172839,0,0,0.06172839506172839,62.8395061728395,0)" xlink:href="#ag"/><use transform="matrix(0.06172839506172839,0,0,0.06172839506172839,75.18518518518518,0)" xlink:href="#au"/><use transform="matrix(0.06172839506172839,0,0,0.06172839506172839,91.17283950617283,0)" xlink:href="#ag"/><use transform="matrix(0.06172839506172839,0,0,0.06172839506172839,103.51851851851852,0)" xlink:href="#aj"/><use transform="matrix(0.06172839506172839,0,0,0.06172839506172839,114.62962962962963,0)" xlink:href="#av"/><use transform="matrix(0.06172839506172839,0,0,0.06172839506172839,126.97530864197533,0)" xlink:href="#aw"/><use transform="matrix(0.06172839506172839,0,0,0.06172839506172839,134.320987654321,0)" xlink:href="#ah"/><use transform="matrix(0.06172839506172839,0,0,0.06172839506172839,146.66666666666666,0)" xlink:href="#ag"/><use transform="matrix(0.06172839506172839,0,0,0.06172839506172839,159.01234567901233,0)" xlink:href="#aw"/><use transform="matrix(0.06172839506172839,0,0,0.06172839506172839,166.358024691358,0)" xlink:href="#az"/><use transform="matrix(0.06172839506172839,0,0,0.06172839506172839,182.34567901234564,0)" xlink:href="#av"/><use transform="matrix(0.06172839506172839,0,0,0.06172839506172839,194.6913580246913,0)" xlink:href="#aq"/><use transform="matrix(0.06172839506172839,0,0,0.06172839506172839,207.03703703703698,0)" xlink:href="#aA"/><use transform="matrix(0.06172839506172839,0,0,0.06172839506172839,213.20987654320982,0)" xlink:href="#aw"/><use transform="matrix(0.06172839506172839,0,0,0.06172839506172839,220.5555555555555,0)" xlink:href="#av"/><use transform="matrix(0.06172839506172839,0,0,0.06172839506172839,232.90123456790116,0)" xlink:href="#al"/><use transform="matrix(0.06172839506172839,0,0,0.06172839506172839,237.7777777777777,0)" xlink:href="#al"/><use transform="matrix(0.06172839506172839,0,0,0.06172839506172839,242.65432098765422,0)" xlink:href="#ag"/><use transform="matrix(0.06172839506172839,0,0,0.06172839506172839,254.9999999999999,0)" xlink:href="#aw"/></g><path fill="#333" d="M179-190L93 31C79 59 56 82 12 73V49c39 6 53-20 64-50L1-190h34L92-34l54-156h33" id="aB"/><g id="f"><use transform="matrix(0.06172839506172839,0,0,0.06172839506172839,0,0)" xlink:href="#az"/><use transform="matrix(0.06172839506172839,0,0,0.06172839506172839,15.987654320987653,0)" xlink:href="#av"/><use transform="matrix(0.06172839506172839,0,0,0.06172839506172839,28.333333333333332,0)" xlink:href="#as"/><use transform="matrix(0.06172839506172839,0,0,0.06172839506172839,46.79012345679012,0)" xlink:href="#at"/><use transform="matrix(0.06172839506172839,0,0,0.06172839506172839,59.1358024691358,0)" xlink:href="#ak"/><use transform="matrix(0.06172839506172839,0,0,0.06172839506172839,71.48148148148148,0)" xlink:href="#aq"/><use transform="matrix(0.06172839506172839,0,0,0.06172839506172839,83.82716049382717,0)" xlink:href="#aB"/></g><g id="g"><use transform="matrix(0.06172839506172839,0,0,0.06172839506172839,0,0)" xlink:href="#ar"/><use transform="matrix(0.06172839506172839,0,0,0.06172839506172839,14.814814814814813,0)" xlink:href="#ak"/><use transform="matrix(0.06172839506172839,0,0,0.06172839506172839,27.160493827160494,0)" xlink:href="#as"/><use transform="matrix(0.06172839506172839,0,0,0.06172839506172839,45.61728395061728,0)" xlink:href="#at"/><use transform="matrix(0.06172839506172839,0,0,0.06172839506172839,57.962962962962955,0)" xlink:href="#al"/><use transform="matrix(0.06172839506172839,0,0,0.06172839506172839,62.8395061728395,0)" xlink:href="#ag"/><use transform="matrix(0.06172839506172839,0,0,0.06172839506172839,75.18518518518518,0)" xlink:href="#au"/><use transform="matrix(0.06172839506172839,0,0,0.06172839506172839,91.17283950617283,0)" xlink:href="#ag"/><use transform="matrix(0.06172839506172839,0,0,0.06172839506172839,103.51851851851852,0)" xlink:href="#aj"/><use transform="matrix(0.06172839506172839,0,0,0.06172839506172839,114.62962962962963,0)" xlink:href="#av"/><use transform="matrix(0.06172839506172839,0,0,0.06172839506172839,126.97530864197533,0)" xlink:href="#aw"/><use transform="matrix(0.06172839506172839,0,0,0.06172839506172839,134.320987654321,0)" xlink:href="#ah"/><use transform="matrix(0.06172839506172839,0,0,0.06172839506172839,146.66666666666666,0)" xlink:href="#ag"/><use transform="matrix(0.06172839506172839,0,0,0.06172839506172839,159.01234567901233,0)" xlink:href="#aw"/><use transform="matrix(0.06172839506172839,0,0,0.06172839506172839,166.358024691358,0)" xlink:href="#ar"/><use transform="matrix(0.06172839506172839,0,0,0.06172839506172839,181.1728395061728,0)" xlink:href="#aA"/><use transform="matrix(0.06172839506172839,0,0,0.06172839506172839,187.34567901234564,0)" xlink:href="#av"/><use transform="matrix(0.06172839506172839,0,0,0.06172839506172839,199.6913580246913,0)" xlink:href="#aw"/><use transform="matrix(0.06172839506172839,0,0,0.06172839506172839,207.03703703703698,0)" xlink:href="#ag"/></g><path fill="#333" d="M27 0v-27h64v-190l-56 39v-29l58-41h29v221h61V0H27" id="aC"/><path fill="#333" d="M33 0v-38h34V0H33" id="aD"/><g id="h"><use transform="matrix(0.06172839506172839,0,0,0.06172839506172839,0,0)" xlink:href="#aC"/><use transform="matrix(0.06172839506172839,0,0,0.06172839506172839,12.345679012345679,0)" xlink:href="#aD"/></g><path fill="#333" d="M135-143c-3-34-86-38-87 0 15 53 115 12 119 90S17 21 10-45l28-5c4 36 97 45 98 0-10-56-113-15-118-90-4-57 82-63 122-42 12 7 21 19 24 35" id="aE"/><g id="i"><use transform="matrix(0.06172839506172839,0,0,0.06172839506172839,0,0)" xlink:href="#ar"/><use transform="matrix(0.06172839506172839,0,0,0.06172839506172839,14.814814814814813,0)" xlink:href="#aA"/><use transform="matrix(0.06172839506172839,0,0,0.06172839506172839,20.98765432098765,0)" xlink:href="#ak"/><use transform="matrix(0.06172839506172839,0,0,0.06172839506172839,33.33333333333333,0)" xlink:href="#aw"/><use transform="matrix(0.06172839506172839,0,0,0.06172839506172839,40.679012345679006,0)" xlink:href="#aA"/><use transform="matrix(0.06172839506172839,0,0,0.06172839506172839,46.85185185185185,0)" xlink:href="#aE"/></g><path fill="#333" d="M177-190C167-65 218 103 67 71c-23-6-38-20-44-43l32-5c15 47 100 32 89-28v-30C133-14 115 1 83 1 29 1 15-40 15-95c0-56 16-97 71-98 29-1 48 16 59 35 1-10 0-23 2-32h30zM94-22c36 0 50-32 50-73 0-42-14-75-50-75-39 0-46 34-46 75s6 73 46 73" id="aF"/><g id="j"><use transform="matrix(0.06172839506172839,0,0,0.06172839506172839,0,0)" xlink:href="#aE"/><use transform="matrix(0.06172839506172839,0,0,0.06172839506172839,11.11111111111111,0)" xlink:href="#ag"/><use transform="matrix(0.06172839506172839,0,0,0.06172839506172839,23.45679012345679,0)" xlink:href="#al"/><use transform="matrix(0.06172839506172839,0,0,0.06172839506172839,28.333333333333336,0)" xlink:href="#ag"/><use transform="matrix(0.06172839506172839,0,0,0.06172839506172839,40.67901234567901,0)" xlink:href="#aj"/><use transform="matrix(0.06172839506172839,0,0,0.06172839506172839,51.79012345679013,0)" xlink:href="#aA"/><use transform="matrix(0.06172839506172839,0,0,0.06172839506172839,57.96296296296297,0)" xlink:href="#ai"/><use transform="matrix(0.06172839506172839,0,0,0.06172839506172839,62.83950617283951,0)" xlink:href="#aq"/><use transform="matrix(0.06172839506172839,0,0,0.06172839506172839,75.18518518518519,0)" xlink:href="#aF"/></g><use transform="matrix(0.06172839506172839,0,0,0.06172839506172839,0,0)" xlink:href="#ak" id="k"/><g id="l"><use transform="matrix(0.06172839506172839,0,0,0.06172839506172839,0,0)" xlink:href="#aA"/><use transform="matrix(0.06172839506172839,0,0,0.06172839506172839,6.172839506172839,0)" xlink:href="#ag"/><use transform="matrix(0.06172839506172839,0,0,0.06172839506172839,18.51851851851852,0)" xlink:href="#aE"/><use transform="matrix(0.06172839506172839,0,0,0.06172839506172839,29.62962962962963,0)" xlink:href="#aA"/></g><path fill="#333" d="M101-251c82-7 93 87 43 132L82-64C71-53 59-42 53-27h129V0H18c2-99 128-94 128-182 0-28-16-43-45-43s-46 15-49 41l-32-3c6-41 34-60 81-64" id="aG"/><g id="m"><use transform="matrix(0.06172839506172839,0,0,0.06172839506172839,0,0)" xlink:href="#aG"/><use transform="matrix(0.06172839506172839,0,0,0.06172839506172839,12.345679012345679,0)" xlink:href="#aD"/></g><path fill="#333" d="M206 0h-36l-40-164L89 0H53L-1-190h32L70-26l43-164h34l41 164 42-164h31" id="aH"/><g id="n"><use transform="matrix(0.06172839506172839,0,0,0.06172839506172839,0,0)" xlink:href="#ar"/><use transform="matrix(0.06172839506172839,0,0,0.06172839506172839,14.814814814814813,0)" xlink:href="#ap"/><use transform="matrix(0.06172839506172839,0,0,0.06172839506172839,27.160493827160494,0)" xlink:href="#av"/><use transform="matrix(0.06172839506172839,0,0,0.06172839506172839,39.50617283950617,0)" xlink:href="#aH"/><use transform="matrix(0.06172839506172839,0,0,0.06172839506172839,55.49382716049382,0)" xlink:href="#aE"/></g><g id="o"><use transform="matrix(0.06172839506172839,0,0,0.06172839506172839,0,0)" xlink:href="#aA"/><use transform="matrix(0.06172839506172839,0,0,0.06172839506172839,6.172839506172839,0)" xlink:href="#ap"/><use transform="matrix(0.06172839506172839,0,0,0.06172839506172839,18.51851851851852,0)" xlink:href="#ag"/></g><g id="p"><use transform="matrix(0.06172839506172839,0,0,0.06172839506172839,0,0)" xlink:href="#al"/><use transform="matrix(0.06172839506172839,0,0,0.06172839506172839,4.876543209876543,0)" xlink:href="#ai"/><use transform="matrix(0.06172839506172839,0,0,0.06172839506172839,9.753086419753085,0)" xlink:href="#aE"/><use transform="matrix(0.06172839506172839,0,0,0.06172839506172839,20.864197530864196,0)" xlink:href="#aA"/></g><path fill="#333" d="M101-234c-31-9-42 10-38 44h38v23H63V0H32v-167H5v-23h27c-7-52 17-82 69-68v24" id="aI"/><g id="q"><use transform="matrix(0.06172839506172839,0,0,0.06172839506172839,0,0)" xlink:href="#av"/><use transform="matrix(0.06172839506172839,0,0,0.06172839506172839,12.345679012345679,0)" xlink:href="#aI"/></g><g id="r"><use transform="matrix(0.06172839506172839,0,0,0.06172839506172839,0,0)" xlink:href="#aA"/><use transform="matrix(0.06172839506172839,0,0,0.06172839506172839,6.172839506172839,0)" xlink:href="#ag"/><use transform="matrix(0.06172839506172839,0,0,0.06172839506172839,18.51851851851852,0)" xlink:href="#aE"/><use transform="matrix(0.06172839506172839,0,0,0.06172839506172839,29.62962962962963,0)" xlink:href="#aA"/><use transform="matrix(0.06172839506172839,0,0,0.06172839506172839,35.80246913580247,0)" xlink:href="#aE"/></g><path fill="#333" d="M108 0H70L1-190h34L89-25l56-165h34" id="aJ"/><g id="s"><use transform="matrix(0.06172839506172839,0,0,0.06172839506172839,0,0)" xlink:href="#ak"/><use transform="matrix(0.06172839506172839,0,0,0.06172839506172839,12.345679012345679,0)" xlink:href="#aJ"/><use transform="matrix(0.06172839506172839,0,0,0.06172839506172839,23.45679012345679,0)" xlink:href="#ak"/><use transform="matrix(0.06172839506172839,0,0,0.06172839506172839,35.80246913580247,0)" xlink:href="#ai"/><use transform="matrix(0.06172839506172839,0,0,0.06172839506172839,40.67901234567901,0)" xlink:href="#al"/><use transform="matrix(0.06172839506172839,0,0,0.06172839506172839,45.55555555555556,0)" xlink:href="#ak"/><use transform="matrix(0.06172839506172839,0,0,0.06172839506172839,57.901234567901234,0)" xlink:href="#an"/><use transform="matrix(0.06172839506172839,0,0,0.06172839506172839,70.24691358024691,0)" xlink:href="#al"/><use transform="matrix(0.06172839506172839,0,0,0.06172839506172839,75.12345679012346,0)" xlink:href="#ag"/></g><path fill="#333" d="M126-127c33 6 58 20 58 59 0 88-139 92-164 29-3-8-5-16-6-25l32-3c6 27 21 44 54 44 32 0 52-15 52-46 0-38-36-46-79-43v-28c39 1 72-4 72-42 0-27-17-43-46-43-28 0-47 15-49 41l-32-3c6-42 35-63 81-64 48-1 79 21 79 65 0 36-21 52-52 59" id="aK"/><g id="t"><use transform="matrix(0.06172839506172839,0,0,0.06172839506172839,0,0)" xlink:href="#aK"/><use transform="matrix(0.06172839506172839,0,0,0.06172839506172839,12.345679012345679,0)" xlink:href="#aD"/></g><g id="u"><use transform="matrix(0.06172839506172839,0,0,0.06172839506172839,0,0)" xlink:href="#ar"/><use transform="matrix(0.06172839506172839,0,0,0.06172839506172839,14.814814814814813,0)" xlink:href="#ag"/><use transform="matrix(0.06172839506172839,0,0,0.06172839506172839,27.160493827160494,0)" xlink:href="#al"/><use transform="matrix(0.06172839506172839,0,0,0.06172839506172839,32.03703703703704,0)" xlink:href="#ag"/><use transform="matrix(0.06172839506172839,0,0,0.06172839506172839,44.382716049382715,0)" xlink:href="#aj"/><use transform="matrix(0.06172839506172839,0,0,0.06172839506172839,55.49382716049382,0)" xlink:href="#aA"/><use transform="matrix(0.06172839506172839,0,0,0.06172839506172839,61.666666666666664,0)" xlink:href="#aE"/></g><g id="v"><use transform="matrix(0.06172839506172839,0,0,0.06172839506172839,0,0)" xlink:href="#aI"/><use transform="matrix(0.06172839506172839,0,0,0.06172839506172839,6.172839506172839,0)" xlink:href="#aw"/><use transform="matrix(0.06172839506172839,0,0,0.06172839506172839,13.518518518518519,0)" xlink:href="#av"/><use transform="matrix(0.06172839506172839,0,0,0.06172839506172839,25.864197530864196,0)" xlink:href="#as"/></g><g id="w"><use transform="matrix(0.06172839506172839,0,0,0.06172839506172839,0,0)" xlink:href="#al"/><use transform="matrix(0.06172839506172839,0,0,0.06172839506172839,4.876543209876543,0)" xlink:href="#ai"/><use transform="matrix(0.06172839506172839,0,0,0.06172839506172839,9.753086419753085,0)" xlink:href="#aE"/><use transform="matrix(0.06172839506172839,0,0,0.06172839506172839,20.864197530864196,0)" xlink:href="#aA"/></g><path fill="#333" d="M155-56V0h-30v-56H8v-25l114-167h33v167h35v25h-35zm-30-156c-27 46-58 90-88 131h88v-131" id="aL"/><g id="x"><use transform="matrix(0.06172839506172839,0,0,0.06172839506172839,0,0)" xlink:href="#aL"/><use transform="matrix(0.06172839506172839,0,0,0.06172839506172839,12.345679012345679,0)" xlink:href="#aD"/></g><path fill="#333" d="M137 0h-34L2-248h35l83 218 83-218h36" id="aM"/><g id="y"><use transform="matrix(0.06172839506172839,0,0,0.06172839506172839,0,0)" xlink:href="#aM"/><use transform="matrix(0.06172839506172839,0,0,0.06172839506172839,13.148148148148147,0)" xlink:href="#ak"/><use transform="matrix(0.06172839506172839,0,0,0.06172839506172839,25.493827160493826,0)" xlink:href="#al"/><use transform="matrix(0.06172839506172839,0,0,0.06172839506172839,30.370370370370367,0)" xlink:href="#ai"/><use transform="matrix(0.06172839506172839,0,0,0.06172839506172839,35.24691358024691,0)" xlink:href="#ah"/><use transform="matrix(0.06172839506172839,0,0,0.06172839506172839,47.59259259259259,0)" xlink:href="#ak"/><use transform="matrix(0.06172839506172839,0,0,0.06172839506172839,59.938271604938265,0)" xlink:href="#aA"/><use transform="matrix(0.06172839506172839,0,0,0.06172839506172839,66.1111111111111,0)" xlink:href="#ag"/><use transform="matrix(0.06172839506172839,0,0,0.06172839506172839,78.45679012345678,0)" xlink:href="#ao"/><use transform="matrix(0.06172839506172839,0,0,0.06172839506172839,89.50617283950616,0)" xlink:href="#ag"/><use transform="matrix(0.06172839506172839,0,0,0.06172839506172839,101.85185185185185,0)" xlink:href="#aE"/><use transform="matrix(0.06172839506172839,0,0,0.06172839506172839,112.96296296296296,0)" xlink:href="#aA"/><use transform="matrix(0.06172839506172839,0,0,0.06172839506172839,119.1358024691358,0)" xlink:href="#ar"/><use transform="matrix(0.06172839506172839,0,0,0.06172839506172839,133.9506172839506,0)" xlink:href="#ag"/><use transform="matrix(0.06172839506172839,0,0,0.06172839506172839,146.29629629629628,0)" xlink:href="#al"/><use transform="matrix(0.06172839506172839,0,0,0.06172839506172839,151.1728395061728,0)" xlink:href="#ag"/><use transform="matrix(0.06172839506172839,0,0,0.06172839506172839,163.51851851851848,0)" xlink:href="#aj"/><use transform="matrix(0.06172839506172839,0,0,0.06172839506172839,174.6296296296296,0)" xlink:href="#aA"/><use transform="matrix(0.06172839506172839,0,0,0.06172839506172839,180.80246913580243,0)" xlink:href="#ag"/><use transform="matrix(0.06172839506172839,0,0,0.06172839506172839,193.1481481481481,0)" xlink:href="#ah"/></g><path fill="#333" d="M87 75C49 33 22-17 22-94c0-76 28-126 65-167h31c-38 41-64 92-64 168S80 34 118 75H87" id="aN"/><path fill="#333" d="M33-261c38 41 65 92 65 168S71 34 33 75H2C39 34 66-17 66-93S39-220 2-261h31" id="aO"/><g id="z"><use transform="matrix(0.06172839506172839,0,0,0.06172839506172839,0,0)" xlink:href="#aN"/><use transform="matrix(0.06172839506172839,0,0,0.06172839506172839,7.345679012345679,0)" xlink:href="#ao"/><use transform="matrix(0.06172839506172839,0,0,0.06172839506172839,18.39506172839506,0)" xlink:href="#ag"/><use transform="matrix(0.06172839506172839,0,0,0.06172839506172839,30.74074074074074,0)" xlink:href="#aE"/><use transform="matrix(0.06172839506172839,0,0,0.06172839506172839,41.85185185185185,0)" xlink:href="#aA"/><use transform="matrix(0.06172839506172839,0,0,0.06172839506172839,48.02469135802469,0)" xlink:href="#ar"/><use transform="matrix(0.06172839506172839,0,0,0.06172839506172839,62.839506172839506,0)" xlink:href="#ag"/><use transform="matrix(0.06172839506172839,0,0,0.06172839506172839,75.18518518518519,0)" xlink:href="#al"/><use transform="matrix(0.06172839506172839,0,0,0.06172839506172839,80.06172839506173,0)" xlink:href="#ag"/><use transform="matrix(0.06172839506172839,0,0,0.06172839506172839,92.40740740740742,0)" xlink:href="#aj"/><use transform="matrix(0.06172839506172839,0,0,0.06172839506172839,103.51851851851853,0)" xlink:href="#aA"/><use transform="matrix(0.06172839506172839,0,0,0.06172839506172839,109.69135802469137,0)" xlink:href="#ag"/><use transform="matrix(0.06172839506172839,0,0,0.06172839506172839,122.03703703703705,0)" xlink:href="#ah"/><use transform="matrix(0.06172839506172839,0,0,0.06172839506172839,134.38271604938274,0)" xlink:href="#aO"/></g><path fill="#333" d="M54-142c48-35 137-8 131 61C196 18 31 33 14-55l32-4c7 23 22 37 52 37 35-1 51-22 54-58 4-55-73-65-99-34H22l8-134h141v27H59" id="aP"/><g id="A"><use transform="matrix(0.06172839506172839,0,0,0.06172839506172839,0,0)" xlink:href="#aP"/><use transform="matrix(0.06172839506172839,0,0,0.06172839506172839,12.345679012345679,0)" xlink:href="#aD"/></g><g id="B"><use transform="matrix(0.06172839506172839,0,0,0.06172839506172839,0,0)" xlink:href="#ay"/><use transform="matrix(0.06172839506172839,0,0,0.06172839506172839,6.172839506172839,0)" xlink:href="#aq"/><use transform="matrix(0.06172839506172839,0,0,0.06172839506172839,18.51851851851852,0)" xlink:href="#aI"/><use transform="matrix(0.06172839506172839,0,0,0.06172839506172839,24.691358024691358,0)" xlink:href="#av"/><use transform="matrix(0.06172839506172839,0,0,0.06172839506172839,37.03703703703704,0)" xlink:href="#aw"/><use transform="matrix(0.06172839506172839,0,0,0.06172839506172839,44.382716049382715,0)" xlink:href="#as"/><use transform="matrix(0.06172839506172839,0,0,0.06172839506172839,62.839506172839506,0)" xlink:href="#aE"/></g><path fill="#333" d="M84 4C-5 8 30-112 23-190h32v120c0 31 7 50 39 49 72-2 45-101 50-169h31l1 190h-30c-1-10 1-25-2-33-11 22-28 36-60 37" id="aQ"/><g id="C"><use transform="matrix(0.06172839506172839,0,0,0.06172839506172839,0,0)" xlink:href="#aE"/><use transform="matrix(0.06172839506172839,0,0,0.06172839506172839,11.11111111111111,0)" xlink:href="#aQ"/><use transform="matrix(0.06172839506172839,0,0,0.06172839506172839,23.45679012345679,0)" xlink:href="#aj"/><use transform="matrix(0.06172839506172839,0,0,0.06172839506172839,34.5679012345679,0)" xlink:href="#ag"/><use transform="matrix(0.06172839506172839,0,0,0.06172839506172839,46.913580246913575,0)" xlink:href="#aE"/><use transform="matrix(0.06172839506172839,0,0,0.06172839506172839,58.02469135802468,0)" xlink:href="#aE"/></g><g id="D"><use transform="matrix(0.06172839506172839,0,0,0.06172839506172839,0,0)" xlink:href="#aE"/><use transform="matrix(0.06172839506172839,0,0,0.06172839506172839,11.11111111111111,0)" xlink:href="#ag"/><use transform="matrix(0.06172839506172839,0,0,0.06172839506172839,23.45679012345679,0)" xlink:href="#al"/><use transform="matrix(0.06172839506172839,0,0,0.06172839506172839,28.333333333333336,0)" xlink:href="#ag"/><use transform="matrix(0.06172839506172839,0,0,0.06172839506172839,40.67901234567901,0)" xlink:href="#aj"/><use transform="matrix(0.06172839506172839,0,0,0.06172839506172839,51.79012345679013,0)" xlink:href="#aA"/><use transform="matrix(0.06172839506172839,0,0,0.06172839506172839,57.96296296296297,0)" xlink:href="#ai"/><use transform="matrix(0.06172839506172839,0,0,0.06172839506172839,62.83950617283951,0)" xlink:href="#av"/><use transform="matrix(0.06172839506172839,0,0,0.06172839506172839,75.18518518518519,0)" xlink:href="#aq"/></g><path fill="#333" d="M110-160c48 1 74 30 74 79 0 53-28 85-80 85-65 0-83-55-86-122-5-90 50-162 133-122 14 7 22 21 27 39l-31 6c-5-40-67-38-82-6-9 19-15 44-15 74 11-20 30-34 60-33zm-7 138c34 0 49-23 49-58s-16-56-50-56c-29 0-50 16-49 49 1 36 15 65 50 65" id="aR"/><g id="E"><use transform="matrix(0.06172839506172839,0,0,0.06172839506172839,0,0)" xlink:href="#aR"/><use transform="matrix(0.06172839506172839,0,0,0.06172839506172839,12.345679012345679,0)" xlink:href="#aD"/></g><path fill="#333" d="M266 0h-40l-56-210L115 0H75L2-248h35L96-30l15-64 43-154h32l59 218 59-218h35" id="aS"/><g id="F"><use transform="matrix(0.06172839506172839,0,0,0.06172839506172839,0,0)" xlink:href="#aS"/><use transform="matrix(0.06172839506172839,0,0,0.06172839506172839,20.493827160493826,0)" xlink:href="#aw"/><use transform="matrix(0.06172839506172839,0,0,0.06172839506172839,27.839506172839506,0)" xlink:href="#ai"/><use transform="matrix(0.06172839506172839,0,0,0.06172839506172839,32.71604938271605,0)" xlink:href="#aA"/><use transform="matrix(0.06172839506172839,0,0,0.06172839506172839,38.88888888888889,0)" xlink:href="#ag"/><use transform="matrix(0.06172839506172839,0,0,0.06172839506172839,51.23456790123457,0)" xlink:href="#aE"/></g><g id="G"><use transform="matrix(0.06172839506172839,0,0,0.06172839506172839,0,0)" xlink:href="#aq"/><use transform="matrix(0.06172839506172839,0,0,0.06172839506172839,12.345679012345679,0)" xlink:href="#aQ"/><use transform="matrix(0.06172839506172839,0,0,0.06172839506172839,24.691358024691358,0)" xlink:href="#as"/><use transform="matrix(0.06172839506172839,0,0,0.06172839506172839,43.148148148148145,0)" xlink:href="#an"/><use transform="matrix(0.06172839506172839,0,0,0.06172839506172839,55.49382716049382,0)" xlink:href="#ag"/><use transform="matrix(0.06172839506172839,0,0,0.06172839506172839,67.8395061728395,0)" xlink:href="#aw"/></g><g id="H"><use transform="matrix(0.06172839506172839,0,0,0.06172839506172839,0,0)" xlink:href="#aE"/><use transform="matrix(0.06172839506172839,0,0,0.06172839506172839,11.11111111111111,0)" xlink:href="#ak"/><use transform="matrix(0.06172839506172839,0,0,0.06172839506172839,23.45679012345679,0)" xlink:href="#as"/><use transform="matrix(0.06172839506172839,0,0,0.06172839506172839,41.91358024691358,0)" xlink:href="#at"/><use transform="matrix(0.06172839506172839,0,0,0.06172839506172839,54.25925925925926,0)" xlink:href="#al"/><use transform="matrix(0.06172839506172839,0,0,0.06172839506172839,59.135802469135804,0)" xlink:href="#ag"/><use transform="matrix(0.06172839506172839,0,0,0.06172839506172839,71.48148148148148,0)" xlink:href="#aE"/></g><g id="I"><use transform="matrix(0.06172839506172839,0,0,0.06172839506172839,0,0)" xlink:href="#aA"/><use transform="matrix(0.06172839506172839,0,0,0.06172839506172839,6.172839506172839,0)" xlink:href="#av"/></g><g id="J"><use transform="matrix(0.06172839506172839,0,0,0.06172839506172839,0,0)" xlink:href="#an"/><use transform="matrix(0.06172839506172839,0,0,0.06172839506172839,12.345679012345679,0)" xlink:href="#ag"/></g><g id="K"><use transform="matrix(0.06172839506172839,0,0,0.06172839506172839,0,0)" xlink:href="#ak"/><use transform="matrix(0.06172839506172839,0,0,0.06172839506172839,12.345679012345679,0)" xlink:href="#ah"/><use transform="matrix(0.06172839506172839,0,0,0.06172839506172839,24.691358024691358,0)" xlink:href="#ah"/><use transform="matrix(0.06172839506172839,0,0,0.06172839506172839,37.03703703703704,0)" xlink:href="#ag"/><use transform="matrix(0.06172839506172839,0,0,0.06172839506172839,49.382716049382715,0)" xlink:href="#ah"/></g><path fill="#333" d="M64 0c3-98 48-159 88-221H18v-27h164v26C143-157 98-101 97 0H64" id="aT"/><g id="L"><use transform="matrix(0.06172839506172839,0,0,0.06172839506172839,0,0)" xlink:href="#aT"/><use transform="matrix(0.06172839506172839,0,0,0.06172839506172839,12.345679012345679,0)" xlink:href="#aD"/></g><g id="M"><use transform="matrix(0.06172839506172839,0,0,0.06172839506172839,0,0)" xlink:href="#aM"/><use transform="matrix(0.06172839506172839,0,0,0.06172839506172839,13.148148148148147,0)" xlink:href="#ak"/><use transform="matrix(0.06172839506172839,0,0,0.06172839506172839,25.493827160493826,0)" xlink:href="#al"/><use transform="matrix(0.06172839506172839,0,0,0.06172839506172839,30.370370370370367,0)" xlink:href="#ai"/><use transform="matrix(0.06172839506172839,0,0,0.06172839506172839,35.24691358024691,0)" xlink:href="#ah"/><use transform="matrix(0.06172839506172839,0,0,0.06172839506172839,47.59259259259259,0)" xlink:href="#ak"/><use transform="matrix(0.06172839506172839,0,0,0.06172839506172839,59.938271604938265,0)" xlink:href="#aA"/><use transform="matrix(0.06172839506172839,0,0,0.06172839506172839,66.1111111111111,0)" xlink:href="#ag"/><use transform="matrix(0.06172839506172839,0,0,0.06172839506172839,78.45679012345678,0)" xlink:href="#ay"/><use transform="matrix(0.06172839506172839,0,0,0.06172839506172839,84.62962962962962,0)" xlink:href="#aq"/><use transform="matrix(0.06172839506172839,0,0,0.06172839506172839,96.9753086419753,0)" xlink:href="#aA"/><use transform="matrix(0.06172839506172839,0,0,0.06172839506172839,103.14814814814814,0)" xlink:href="#ag"/><use transform="matrix(0.06172839506172839,0,0,0.06172839506172839,115.49382716049382,0)" xlink:href="#aF"/><use transform="matrix(0.06172839506172839,0,0,0.06172839506172839,127.83950617283949,0)" xlink:href="#ag"/><use transform="matrix(0.06172839506172839,0,0,0.06172839506172839,140.1851851851852,0)" xlink:href="#aw"/></g><path fill="#333" d="M190 0L58-211 59 0H30v-248h39L202-35l-2-213h31V0h-41" id="aU"/><path fill="#333" d="M140-251c81 0 123 46 123 126C263-46 219 4 140 4 59 4 17-45 17-125s42-126 123-126zm0 227c63 0 89-41 89-101s-29-99-89-99c-61 0-89 39-89 99S79-25 140-24" id="aV"/><g id="N"><use transform="matrix(0.06172839506172839,0,0,0.06172839506172839,0,0)" xlink:href="#aN"/><use transform="matrix(0.06172839506172839,0,0,0.06172839506172839,7.345679012345679,0)" xlink:href="#aU"/><use transform="matrix(0.06172839506172839,0,0,0.06172839506172839,23.333333333333332,0)" xlink:href="#aQ"/><use transform="matrix(0.06172839506172839,0,0,0.06172839506172839,35.67901234567901,0)" xlink:href="#as"/><use transform="matrix(0.06172839506172839,0,0,0.06172839506172839,54.1358024691358,0)" xlink:href="#an"/><use transform="matrix(0.06172839506172839,0,0,0.06172839506172839,66.48148148148148,0)" xlink:href="#ag"/><use transform="matrix(0.06172839506172839,0,0,0.06172839506172839,78.82716049382717,0)" xlink:href="#aw"/><use transform="matrix(0.06172839506172839,0,0,0.06172839506172839,86.17283950617285,0)" xlink:href="#aV"/><use transform="matrix(0.06172839506172839,0,0,0.06172839506172839,103.4567901234568,0)" xlink:href="#aI"/><use transform="matrix(0.06172839506172839,0,0,0.06172839506172839,109.62962962962963,0)" xlink:href="#ar"/><use transform="matrix(0.06172839506172839,0,0,0.06172839506172839,124.44444444444444,0)" xlink:href="#ak"/><use transform="matrix(0.06172839506172839,0,0,0.06172839506172839,136.79012345679013,0)" xlink:href="#as"/><use transform="matrix(0.06172839506172839,0,0,0.06172839506172839,155.2469135802469,0)" xlink:href="#at"/><use transform="matrix(0.06172839506172839,0,0,0.06172839506172839,167.59259259259258,0)" xlink:href="#al"/><use transform="matrix(0.06172839506172839,0,0,0.06172839506172839,172.4691358024691,0)" xlink:href="#ag"/><use transform="matrix(0.06172839506172839,0,0,0.06172839506172839,184.81481481481478,0)" xlink:href="#aE"/><use transform="matrix(0.06172839506172839,0,0,0.06172839506172839,195.9259259259259,0)" xlink:href="#ao"/><use transform="matrix(0.06172839506172839,0,0,0.06172839506172839,206.97530864197526,0)" xlink:href="#av"/><use transform="matrix(0.06172839506172839,0,0,0.06172839506172839,219.32098765432093,0)" xlink:href="#az"/><use transform="matrix(0.06172839506172839,0,0,0.06172839506172839,235.30864197530857,0)" xlink:href="#av"/><use transform="matrix(0.06172839506172839,0,0,0.06172839506172839,247.65432098765424,0)" xlink:href="#al"/><use transform="matrix(0.06172839506172839,0,0,0.06172839506172839,252.53086419753078,0)" xlink:href="#al"/><use transform="matrix(0.06172839506172839,0,0,0.06172839506172839,257.40740740740733,0)" xlink:href="#ag"/><use transform="matrix(0.06172839506172839,0,0,0.06172839506172839,269.753086419753,0)" xlink:href="#aj"/><use transform="matrix(0.06172839506172839,0,0,0.06172839506172839,280.8641975308641,0)" xlink:href="#aA"/><use transform="matrix(0.06172839506172839,0,0,0.06172839506172839,287.03703703703695,0)" xlink:href="#aO"/></g><path fill="#333" d="M134-131c28 9 52 24 51 62-1 50-34 73-85 73S17-19 16-69c0-36 21-54 49-61-75-25-45-126 34-121 46 3 78 18 79 63 0 33-17 51-44 57zm-34-11c31 1 46-15 46-44 0-28-17-43-47-42-29 0-46 13-45 42 1 28 16 44 46 44zm1 122c35 0 51-18 51-52 0-30-18-46-53-46-33 0-51 17-51 47 0 34 19 51 53 51" id="aW"/><use transform="matrix(0.06172839506172839,0,0,0.06172839506172839,0,0)" xlink:href="#aW" id="O"/><path fill="#333" d="M205 0l-28-72H64L36 0H1l101-248h38L239 0h-34zm-38-99l-47-123c-12 45-31 82-46 123h93" id="aX"/><path fill="#333" d="M68-38c1 34 0 65-14 84H32c9-13 17-26 17-46H33v-38h35" id="aY"/><g id="P"><use transform="matrix(0.06172839506172839,0,0,0.06172839506172839,0,0)" xlink:href="#aD"/><use transform="matrix(0.06172839506172839,0,0,0.06172839506172839,6.172839506172839,0)" xlink:href="#aX"/><use transform="matrix(0.06172839506172839,0,0,0.06172839506172839,20.98765432098765,0)" xlink:href="#ah"/><use transform="matrix(0.06172839506172839,0,0,0.06172839506172839,33.33333333333333,0)" xlink:href="#ah"/><use transform="matrix(0.06172839506172839,0,0,0.06172839506172839,45.679012345679006,0)" xlink:href="#ar"/><use transform="matrix(0.06172839506172839,0,0,0.06172839506172839,60.49382716049382,0)" xlink:href="#ak"/><use transform="matrix(0.06172839506172839,0,0,0.06172839506172839,72.8395061728395,0)" xlink:href="#as"/><use transform="matrix(0.06172839506172839,0,0,0.06172839506172839,91.29629629629629,0)" xlink:href="#at"/><use transform="matrix(0.06172839506172839,0,0,0.06172839506172839,103.64197530864197,0)" xlink:href="#al"/><use transform="matrix(0.06172839506172839,0,0,0.06172839506172839,108.51851851851852,0)" xlink:href="#ag"/><use transform="matrix(0.06172839506172839,0,0,0.06172839506172839,120.8641975308642,0)" xlink:href="#aN"/><use transform="matrix(0.06172839506172839,0,0,0.06172839506172839,128.20987654320987,0)" xlink:href="#ao"/><use transform="matrix(0.06172839506172839,0,0,0.06172839506172839,139.25925925925924,0)" xlink:href="#ag"/><use transform="matrix(0.06172839506172839,0,0,0.06172839506172839,151.6049382716049,0)" xlink:href="#aE"/><use transform="matrix(0.06172839506172839,0,0,0.06172839506172839,162.71604938271602,0)" xlink:href="#aA"/><use transform="matrix(0.06172839506172839,0,0,0.06172839506172839,168.88888888888886,0)" xlink:href="#az"/><use transform="matrix(0.06172839506172839,0,0,0.06172839506172839,184.8765432098765,0)" xlink:href="#ap"/><use transform="matrix(0.06172839506172839,0,0,0.06172839506172839,197.22222222222217,0)" xlink:href="#av"/><use transform="matrix(0.06172839506172839,0,0,0.06172839506172839,209.56790123456784,0)" xlink:href="#aE"/><use transform="matrix(0.06172839506172839,0,0,0.06172839506172839,220.67901234567896,0)" xlink:href="#ag"/><use transform="matrix(0.06172839506172839,0,0,0.06172839506172839,233.02469135802463,0)" xlink:href="#aq"/><use transform="matrix(0.06172839506172839,0,0,0.06172839506172839,245.3703703703703,0)" xlink:href="#aY"/></g><path fill="#333" d="M63-220v92h138v28H63V0H30v-248h175v28H63" id="aZ"/><g id="Q"><use transform="matrix(0.06172839506172839,0,0,0.06172839506172839,0,0)" xlink:href="#aZ"/><use transform="matrix(0.06172839506172839,0,0,0.06172839506172839,13.518518518518517,0)" xlink:href="#ai"/><use transform="matrix(0.06172839506172839,0,0,0.06172839506172839,18.39506172839506,0)" xlink:href="#al"/><use transform="matrix(0.06172839506172839,0,0,0.06172839506172839,23.2716049382716,0)" xlink:href="#al"/><use transform="matrix(0.06172839506172839,0,0,0.06172839506172839,28.148148148148145,0)" xlink:href="#ar"/><use transform="matrix(0.06172839506172839,0,0,0.06172839506172839,42.96296296296296,0)" xlink:href="#ak"/><use transform="matrix(0.06172839506172839,0,0,0.06172839506172839,55.30864197530864,0)" xlink:href="#as"/><use transform="matrix(0.06172839506172839,0,0,0.06172839506172839,73.76543209876543,0)" xlink:href="#at"/><use transform="matrix(0.06172839506172839,0,0,0.06172839506172839,86.11111111111111,0)" xlink:href="#al"/><use transform="matrix(0.06172839506172839,0,0,0.06172839506172839,90.98765432098766,0)" xlink:href="#ag"/><use transform="matrix(0.06172839506172839,0,0,0.06172839506172839,103.33333333333334,0)" xlink:href="#aO"/></g><path fill="#333" d="M99-251c64 0 84 50 84 122C183-37 130 33 47-8c-14-7-20-23-25-40l30-5c6 39 69 39 84 7 9-19 16-44 16-74-10 22-31 35-62 35-49 0-73-33-73-83 0-54 28-83 82-83zm-1 141c31-1 51-18 51-49 0-36-14-67-51-67-34 0-49 23-49 58 0 34 15 58 49 58" id="ba"/><g id="R"><use transform="matrix(0.06172839506172839,0,0,0.06172839506172839,0,0)" xlink:href="#ba"/><use transform="matrix(0.06172839506172839,0,0,0.06172839506172839,12.345679012345679,0)" xlink:href="#aD"/></g><path fill="#333" d="M143 4C61 4 22-44 18-125c-5-107 100-154 193-111 17 8 29 25 37 43l-32 9c-13-25-37-40-76-40-61 0-88 39-88 99 0 61 29 100 91 101 35 0 62-11 79-27v-45h-74v-28h105v86C228-13 192 4 143 4" id="bb"/><path fill="#333" d="M160-131c35 5 61 23 61 61C221 17 115-2 30 0v-248c76 3 177-17 177 60 0 33-19 50-47 57zm-97-11c50-1 110 9 110-42 0-47-63-36-110-37v79zm0 115c55-2 124 14 124-45 0-56-70-42-124-44v89" id="bc"/><g id="S"><use transform="matrix(0.06172839506172839,0,0,0.06172839506172839,0,0)" xlink:href="#bb"/><use transform="matrix(0.06172839506172839,0,0,0.06172839506172839,17.28395061728395,0)" xlink:href="#ag"/><use transform="matrix(0.06172839506172839,0,0,0.06172839506172839,29.629629629629626,0)" xlink:href="#aq"/><use transform="matrix(0.06172839506172839,0,0,0.06172839506172839,41.9753086419753,0)" xlink:href="#ag"/><use transform="matrix(0.06172839506172839,0,0,0.06172839506172839,54.32098765432098,0)" xlink:href="#aw"/><use transform="matrix(0.06172839506172839,0,0,0.06172839506172839,61.66666666666666,0)" xlink:href="#ak"/><use transform="matrix(0.06172839506172839,0,0,0.06172839506172839,74.01234567901234,0)" xlink:href="#aA"/><use transform="matrix(0.06172839506172839,0,0,0.06172839506172839,80.18518518518518,0)" xlink:href="#ag"/><use transform="matrix(0.06172839506172839,0,0,0.06172839506172839,92.53086419753086,0)" xlink:href="#bc"/><use transform="matrix(0.06172839506172839,0,0,0.06172839506172839,107.34567901234567,0)" xlink:href="#ak"/><use transform="matrix(0.06172839506172839,0,0,0.06172839506172839,119.69135802469135,0)" xlink:href="#aw"/><use transform="matrix(0.06172839506172839,0,0,0.06172839506172839,127.03703703703702,0)" xlink:href="#aj"/><use transform="matrix(0.06172839506172839,0,0,0.06172839506172839,138.14814814814815,0)" xlink:href="#av"/><use transform="matrix(0.06172839506172839,0,0,0.06172839506172839,150.49382716049382,0)" xlink:href="#ah"/><use transform="matrix(0.06172839506172839,0,0,0.06172839506172839,162.8395061728395,0)" xlink:href="#ag"/><use transform="matrix(0.06172839506172839,0,0,0.06172839506172839,175.18518518518516,0)" xlink:href="#az"/><use transform="matrix(0.06172839506172839,0,0,0.06172839506172839,191.1728395061728,0)" xlink:href="#av"/><use transform="matrix(0.06172839506172839,0,0,0.06172839506172839,203.51851851851848,0)" xlink:href="#ah"/><use transform="matrix(0.06172839506172839,0,0,0.06172839506172839,215.86419753086415,0)" xlink:href="#ag"/></g><g id="T"><use transform="matrix(0.06172839506172839,0,0,0.06172839506172839,0,0)" xlink:href="#aC"/><use transform="matrix(0.06172839506172839,0,0,0.06172839506172839,12.345679012345679,0)" xlink:href="#aG"/><use transform="matrix(0.06172839506172839,0,0,0.06172839506172839,24.691358024691358,0)" xlink:href="#aD"/></g><g id="U"><use transform="matrix(0.06172839506172839,0,0,0.06172839506172839,0,0)" xlink:href="#ai"/><use transform="matrix(0.06172839506172839,0,0,0.06172839506172839,4.876543209876543,0)" xlink:href="#aI"/></g><g id="V"><use transform="matrix(0.06172839506172839,0,0,0.06172839506172839,0,0)" xlink:href="#ai"/><use transform="matrix(0.06172839506172839,0,0,0.06172839506172839,4.876543209876543,0)" xlink:href="#aA"/></g><g id="W"><use transform="matrix(0.06172839506172839,0,0,0.06172839506172839,0,0)" xlink:href="#aH"/><use transform="matrix(0.06172839506172839,0,0,0.06172839506172839,15.987654320987653,0)" xlink:href="#ak"/><use transform="matrix(0.06172839506172839,0,0,0.06172839506172839,28.333333333333332,0)" xlink:href="#aE"/></g><g id="X"><use transform="matrix(0.06172839506172839,0,0,0.06172839506172839,0,0)" xlink:href="#aF"/><use transform="matrix(0.06172839506172839,0,0,0.06172839506172839,12.345679012345679,0)" xlink:href="#ag"/><use transform="matrix(0.06172839506172839,0,0,0.06172839506172839,24.691358024691358,0)" xlink:href="#aq"/><use transform="matrix(0.06172839506172839,0,0,0.06172839506172839,37.03703703703704,0)" xlink:href="#ag"/><use transform="matrix(0.06172839506172839,0,0,0.06172839506172839,49.382716049382715,0)" xlink:href="#aw"/><use transform="matrix(0.06172839506172839,0,0,0.06172839506172839,56.72839506172839,0)" xlink:href="#ak"/><use transform="matrix(0.06172839506172839,0,0,0.06172839506172839,69.07407407407408,0)" xlink:href="#aA"/><use transform="matrix(0.06172839506172839,0,0,0.06172839506172839,75.24691358024691,0)" xlink:href="#ag"/><use transform="matrix(0.06172839506172839,0,0,0.06172839506172839,87.5925925925926,0)" xlink:href="#ah"/></g><g id="Y"><use transform="matrix(0.06172839506172839,0,0,0.06172839506172839,0,0)" xlink:href="#aE"/><use transform="matrix(0.06172839506172839,0,0,0.06172839506172839,11.11111111111111,0)" xlink:href="#aQ"/><use transform="matrix(0.06172839506172839,0,0,0.06172839506172839,23.45679012345679,0)" xlink:href="#aj"/><use transform="matrix(0.06172839506172839,0,0,0.06172839506172839,34.5679012345679,0)" xlink:href="#aj"/><use transform="matrix(0.06172839506172839,0,0,0.06172839506172839,45.67901234567901,0)" xlink:href="#ag"/><use transform="matrix(0.06172839506172839,0,0,0.06172839506172839,58.02469135802469,0)" xlink:href="#aE"/><use transform="matrix(0.06172839506172839,0,0,0.06172839506172839,69.1358024691358,0)" xlink:href="#aE"/><use transform="matrix(0.06172839506172839,0,0,0.06172839506172839,80.24691358024691,0)" xlink:href="#aI"/><use transform="matrix(0.06172839506172839,0,0,0.06172839506172839,86.41975308641975,0)" xlink:href="#aQ"/><use transform="matrix(0.06172839506172839,0,0,0.06172839506172839,98.76543209876543,0)" xlink:href="#al"/><use transform="matrix(0.06172839506172839,0,0,0.06172839506172839,103.64197530864197,0)" xlink:href="#al"/><use transform="matrix(0.06172839506172839,0,0,0.06172839506172839,108.51851851851852,0)" xlink:href="#aB"/></g><path fill="#333" d="M101-251c68 0 85 55 85 127S166 4 100 4C33 4 14-52 14-124c0-73 17-127 87-127zm-1 229c47 0 54-49 54-102s-4-102-53-102c-51 0-55 48-55 102 0 53 5 102 54 102" id="bd"/><g id="Z"><use transform="matrix(0.06172839506172839,0,0,0.06172839506172839,0,0)" xlink:href="#aC"/><use transform="matrix(0.06172839506172839,0,0,0.06172839506172839,12.345679012345679,0)" xlink:href="#bd"/><use transform="matrix(0.06172839506172839,0,0,0.06172839506172839,24.691358024691358,0)" xlink:href="#aD"/></g><g id="aa"><use transform="matrix(0.06172839506172839,0,0,0.06172839506172839,0,0)" xlink:href="#bb"/><use transform="matrix(0.06172839506172839,0,0,0.06172839506172839,17.28395061728395,0)" xlink:href="#ag"/><use transform="matrix(0.06172839506172839,0,0,0.06172839506172839,29.629629629629626,0)" xlink:href="#aq"/><use transform="matrix(0.06172839506172839,0,0,0.06172839506172839,41.9753086419753,0)" xlink:href="#ag"/><use transform="matrix(0.06172839506172839,0,0,0.06172839506172839,54.32098765432098,0)" xlink:href="#aw"/><use transform="matrix(0.06172839506172839,0,0,0.06172839506172839,61.66666666666666,0)" xlink:href="#ak"/><use transform="matrix(0.06172839506172839,0,0,0.06172839506172839,74.01234567901234,0)" xlink:href="#aA"/><use transform="matrix(0.06172839506172839,0,0,0.06172839506172839,80.18518518518518,0)" xlink:href="#ag"/><use transform="matrix(0.06172839506172839,0,0,0.06172839506172839,92.53086419753086,0)" xlink:href="#bc"/><use transform="matrix(0.06172839506172839,0,0,0.06172839506172839,107.34567901234567,0)" xlink:href="#ak"/><use transform="matrix(0.06172839506172839,0,0,0.06172839506172839,119.69135802469135,0)" xlink:href="#aw"/><use transform="matrix(0.06172839506172839,0,0,0.06172839506172839,127.03703703703702,0)" xlink:href="#aj"/><use transform="matrix(0.06172839506172839,0,0,0.06172839506172839,138.14814814814815,0)" xlink:href="#av"/><use transform="matrix(0.06172839506172839,0,0,0.06172839506172839,150.49382716049382,0)" xlink:href="#ah"/><use transform="matrix(0.06172839506172839,0,0,0.06172839506172839,162.8395061728395,0)" xlink:href="#ag"/><use transform="matrix(0.06172839506172839,0,0,0.06172839506172839,175.18518518518516,0)" xlink:href="#ay"/><use transform="matrix(0.06172839506172839,0,0,0.06172839506172839,181.358024691358,0)" xlink:href="#as"/><use transform="matrix(0.06172839506172839,0,0,0.06172839506172839,199.81481481481478,0)" xlink:href="#ak"/><use transform="matrix(0.06172839506172839,0,0,0.06172839506172839,212.16049382716045,0)" xlink:href="#aF"/><use transform="matrix(0.06172839506172839,0,0,0.06172839506172839,224.50617283950612,0)" xlink:href="#ag"/></g><g id="ab"><use transform="matrix(0.06172839506172839,0,0,0.06172839506172839,0,0)" xlink:href="#bc"/><use transform="matrix(0.06172839506172839,0,0,0.06172839506172839,14.814814814814813,0)" xlink:href="#ak"/><use transform="matrix(0.06172839506172839,0,0,0.06172839506172839,27.160493827160494,0)" xlink:href="#aw"/><use transform="matrix(0.06172839506172839,0,0,0.06172839506172839,34.50617283950617,0)" xlink:href="#aj"/><use transform="matrix(0.06172839506172839,0,0,0.06172839506172839,45.61728395061728,0)" xlink:href="#av"/><use transform="matrix(0.06172839506172839,0,0,0.06172839506172839,57.962962962962955,0)" xlink:href="#ah"/><use transform="matrix(0.06172839506172839,0,0,0.06172839506172839,70.30864197530863,0)" xlink:href="#ag"/><use transform="matrix(0.06172839506172839,0,0,0.06172839506172839,82.65432098765432,0)" xlink:href="#aX"/><use transform="matrix(0.06172839506172839,0,0,0.06172839506172839,97.46913580246913,0)" xlink:href="#ah"/><use transform="matrix(0.06172839506172839,0,0,0.06172839506172839,109.81481481481481,0)" xlink:href="#ak"/><use transform="matrix(0.06172839506172839,0,0,0.06172839506172839,122.1604938271605,0)" xlink:href="#at"/><use transform="matrix(0.06172839506172839,0,0,0.06172839506172839,134.50617283950618,0)" xlink:href="#aA"/><use transform="matrix(0.06172839506172839,0,0,0.06172839506172839,140.679012345679,0)" xlink:href="#ag"/><use transform="matrix(0.06172839506172839,0,0,0.06172839506172839,153.02469135802468,0)" xlink:href="#aw"/></g><g id="ac"><use transform="matrix(0.06172839506172839,0,0,0.06172839506172839,0,0)" xlink:href="#aC"/><use transform="matrix(0.06172839506172839,0,0,0.06172839506172839,10.679012345679013,0)" xlink:href="#aC"/></g><g id="ad"><use transform="matrix(0.06172839506172839,0,0,0.06172839506172839,0,0)" xlink:href="#az"/><use transform="matrix(0.06172839506172839,0,0,0.06172839506172839,15.987654320987653,0)" xlink:href="#aw"/><use transform="matrix(0.06172839506172839,0,0,0.06172839506172839,23.333333333333332,0)" xlink:href="#ag"/><use transform="matrix(0.06172839506172839,0,0,0.06172839506172839,35.67901234567901,0)" xlink:href="#ak"/><use transform="matrix(0.06172839506172839,0,0,0.06172839506172839,48.02469135802469,0)" xlink:href="#aA"/><use transform="matrix(0.06172839506172839,0,0,0.06172839506172839,54.19753086419753,0)" xlink:href="#ag"/></g><path fill="#333" d="M30-248c87 1 191-15 191 75 0 78-77 80-158 76V0H30v-248zm33 125c57 0 124 11 124-50 0-59-68-47-124-48v98" id="be"/><g id="ae"><use transform="matrix(0.06172839506172839,0,0,0.06172839506172839,0,0)" xlink:href="#ax"/><use transform="matrix(0.06172839506172839,0,0,0.06172839506172839,15.987654320987653,0)" xlink:href="#be"/><use transform="matrix(0.06172839506172839,0,0,0.06172839506172839,30.80246913580247,0)" xlink:href="#az"/><use transform="matrix(0.06172839506172839,0,0,0.06172839506172839,46.79012345679012,0)" xlink:href="#aX"/><use transform="matrix(0.06172839506172839,0,0,0.06172839506172839,61.60493827160494,0)" xlink:href="#aN"/><use transform="matrix(0.06172839506172839,0,0,0.06172839506172839,68.95061728395062,0)" xlink:href="#bc"/><use transform="matrix(0.06172839506172839,0,0,0.06172839506172839,83.76543209876543,0)" xlink:href="#ak"/><use transform="matrix(0.06172839506172839,0,0,0.06172839506172839,96.11111111111111,0)" xlink:href="#aw"/><use transform="matrix(0.06172839506172839,0,0,0.06172839506172839,103.4567901234568,0)" xlink:href="#aj"/><use transform="matrix(0.06172839506172839,0,0,0.06172839506172839,114.56790123456791,0)" xlink:href="#av"/><use transform="matrix(0.06172839506172839,0,0,0.06172839506172839,126.9135802469136,0)" xlink:href="#ah"/><use transform="matrix(0.06172839506172839,0,0,0.06172839506172839,139.25925925925927,0)" xlink:href="#ag"/><use transform="matrix(0.06172839506172839,0,0,0.06172839506172839,151.60493827160494,0)" xlink:href="#aO"/></g></defs></g></svg>