<?xml version="1.0" encoding="UTF-8" standalone="no"?><svg xmlns="http://www.w3.org/2000/svg" xmlns:xlink="http://www.w3.org/1999/xlink" contentScriptType="application/ecmascript" contentStyleType="text/css" height="197px" preserveAspectRatio="none" style="width:837px;height:197px;" version="1.1" viewBox="0 0 837 197" width="837px" zoomAndPan="magnify"><defs><filter height="300%" id="fvtw7c42w67kl" width="300%" x="-1" y="-1"><feGaussianBlur result="blurOut" stdDeviation="2.0"/><feColorMatrix in="blurOut" result="blurOut2" type="matrix" values="0 0 0 0 0 0 0 0 0 0 0 0 0 0 0 0 0 0 .4 0"/><feOffset dx="4.0" dy="4.0" in="blurOut2" result="blurOut3"/><feBlend in="SourceGraphic" in2="blurOut3" mode="normal"/></filter></defs><g><!--MD5=[3fd616f346a44cd59a91eb10b19e157c]
class User--><rect codeLine="2" fill="#FEFECE" filter="url(#fvtw7c42w67kl)" height="86.4141" id="User" style="stroke:#A80036;stroke-width:1.5;" width="68" x="755.5" y="52"/><ellipse cx="773.65" cy="68" fill="#ADD1B2" rx="11" ry="11" style="stroke:#A80036;stroke-width:1.0;"/><path d="M775.9938,63.6719 C775.0563,63.2344 774.4625,63.0938 773.5875,63.0938 C770.9625,63.0938 768.9625,65.1719 768.9625,67.8906 L768.9625,69.0156 C768.9625,71.5938 771.0719,73.4844 773.9625,73.4844 C775.1813,73.4844 776.3375,73.1875 777.0875,72.6406 C777.6656,72.2344 777.9938,71.7813 777.9938,71.3906 C777.9938,70.9375 777.6031,70.5469 777.1344,70.5469 C776.9156,70.5469 776.7125,70.625 776.525,70.8125 C776.0719,71.2969 776.0719,71.2969 775.8844,71.3906 C775.4625,71.6563 774.775,71.7813 774.0094,71.7813 C771.9625,71.7813 770.6656,70.6875 770.6656,68.9844 L770.6656,67.8906 C770.6656,66.1094 771.9156,64.7969 773.65,64.7969 C774.2281,64.7969 774.8375,64.9531 775.3063,65.2031 C775.7906,65.4844 775.9625,65.7031 776.0563,66.1094 C776.1188,66.5156 776.15,66.6406 776.2906,66.7656 C776.4313,66.9063 776.6656,67.0156 776.8844,67.0156 C777.15,67.0156 777.4156,66.875 777.5875,66.6563 C777.6969,66.5 777.7281,66.3125 777.7281,65.8906 L777.7281,64.4688 C777.7281,64.0313 777.7125,63.9063 777.6188,63.75 C777.4625,63.4844 777.1813,63.3438 776.8844,63.3438 C776.5875,63.3438 776.3844,63.4375 776.1656,63.75 L775.9938,63.6719 Z " fill="#000000"/><text fill="#000000" font-family="sans-serif" font-size="12" lengthAdjust="spacing" textLength="29" x="788.35" y="72.1543">User</text><line style="stroke:#A80036;stroke-width:1.5;" x1="756.5" x2="822.5" y1="84" y2="84"/><text fill="#000000" font-family="sans-serif" font-size="11" lengthAdjust="spacing" textLength="38" x="761.5" y="98.2104">-Name</text><text fill="#000000" font-family="sans-serif" font-size="11" lengthAdjust="spacing" textLength="39" x="761.5" y="111.0151">-E-mail</text><text fill="#000000" font-family="sans-serif" font-size="11" lengthAdjust="spacing" textLength="56" x="761.5" y="123.8198">-Password</text><line style="stroke:#A80036;stroke-width:1.5;" x1="756.5" x2="822.5" y1="130.4141" y2="130.4141"/><!--MD5=[ed6624c6556d5e7b1bd23032162d20b7]
class Client--><rect codeLine="7" fill="#FEFECE" filter="url(#fvtw7c42w67kl)" height="176.0469" id="Client" style="stroke:#A80036;stroke-width:1.5;" width="261" x="399" y="7"/><ellipse cx="508.75" cy="23" fill="#ADD1B2" rx="11" ry="11" style="stroke:#A80036;stroke-width:1.0;"/><path d="M511.0938,18.6719 C510.1563,18.2344 509.5625,18.0938 508.6875,18.0938 C506.0625,18.0938 504.0625,20.1719 504.0625,22.8906 L504.0625,24.0156 C504.0625,26.5938 506.1719,28.4844 509.0625,28.4844 C510.2813,28.4844 511.4375,28.1875 512.1875,27.6406 C512.7656,27.2344 513.0938,26.7813 513.0938,26.3906 C513.0938,25.9375 512.7031,25.5469 512.2344,25.5469 C512.0156,25.5469 511.8125,25.625 511.625,25.8125 C511.1719,26.2969 511.1719,26.2969 510.9844,26.3906 C510.5625,26.6563 509.875,26.7813 509.1094,26.7813 C507.0625,26.7813 505.7656,25.6875 505.7656,23.9844 L505.7656,22.8906 C505.7656,21.1094 507.0156,19.7969 508.75,19.7969 C509.3281,19.7969 509.9375,19.9531 510.4063,20.2031 C510.8906,20.4844 511.0625,20.7031 511.1563,21.1094 C511.2188,21.5156 511.25,21.6406 511.3906,21.7656 C511.5313,21.9063 511.7656,22.0156 511.9844,22.0156 C512.25,22.0156 512.5156,21.875 512.6875,21.6563 C512.7969,21.5 512.8281,21.3125 512.8281,20.8906 L512.8281,19.4688 C512.8281,19.0313 512.8125,18.9063 512.7188,18.75 C512.5625,18.4844 512.2813,18.3438 511.9844,18.3438 C511.6875,18.3438 511.4844,18.4375 511.2656,18.75 L511.0938,18.6719 Z " fill="#000000"/><text fill="#000000" font-family="sans-serif" font-size="12" lengthAdjust="spacing" textLength="33" x="529.25" y="27.1543">Client</text><line style="stroke:#A80036;stroke-width:1.5;" x1="400" x2="659" y1="39" y2="39"/><text fill="#000000" font-family="sans-serif" font-size="11" lengthAdjust="spacing" textLength="38" x="405" y="53.2104">-Name</text><text fill="#000000" font-family="sans-serif" font-size="11" lengthAdjust="spacing" textLength="27" x="405" y="66.0151">-Sex</text><text fill="#000000" font-family="sans-serif" font-size="11" lengthAdjust="spacing" textLength="123" x="405" y="78.8198">-Citizen Card Number</text><text fill="#000000" font-family="sans-serif" font-size="11" lengthAdjust="spacing" textLength="249" x="405" y="91.6245">-National Healthcare Service (NHS) Number</text><text fill="#000000" font-family="sans-serif" font-size="11" lengthAdjust="spacing" textLength="62" x="405" y="104.4292">-Birth Date</text><text fill="#000000" font-family="sans-serif" font-size="11" lengthAdjust="spacing" textLength="27" x="405" y="117.2339">-Sex</text><text fill="#000000" font-family="sans-serif" font-size="11" lengthAdjust="spacing" textLength="181" x="405" y="130.0386">-Tax Identification Number (TIN)</text><text fill="#000000" font-family="sans-serif" font-size="11" lengthAdjust="spacing" textLength="88" x="405" y="142.8433">-Phone Number</text><text fill="#000000" font-family="sans-serif" font-size="11" lengthAdjust="spacing" textLength="39" x="405" y="155.6479">-E-mail</text><text fill="#000000" font-family="sans-serif" font-size="11" lengthAdjust="spacing" textLength="60" x="405" y="168.4526">-Lab Order</text><line style="stroke:#A80036;stroke-width:1.5;" x1="400" x2="659" y1="175.0469" y2="175.0469"/><!--MD5=[03960189e81aa2c066c762ffabbee709]
class Receptionist--><rect codeLine="19" fill="#FEFECE" filter="url(#fvtw7c42w67kl)" height="137.6328" id="Receptionist" style="stroke:#A80036;stroke-width:1.5;" width="293" x="7" y="26"/><ellipse cx="112.25" cy="42" fill="#ADD1B2" rx="11" ry="11" style="stroke:#A80036;stroke-width:1.0;"/><path d="M114.5938,37.6719 C113.6563,37.2344 113.0625,37.0938 112.1875,37.0938 C109.5625,37.0938 107.5625,39.1719 107.5625,41.8906 L107.5625,43.0156 C107.5625,45.5938 109.6719,47.4844 112.5625,47.4844 C113.7813,47.4844 114.9375,47.1875 115.6875,46.6406 C116.2656,46.2344 116.5938,45.7813 116.5938,45.3906 C116.5938,44.9375 116.2031,44.5469 115.7344,44.5469 C115.5156,44.5469 115.3125,44.625 115.125,44.8125 C114.6719,45.2969 114.6719,45.2969 114.4844,45.3906 C114.0625,45.6563 113.375,45.7813 112.6094,45.7813 C110.5625,45.7813 109.2656,44.6875 109.2656,42.9844 L109.2656,41.8906 C109.2656,40.1094 110.5156,38.7969 112.25,38.7969 C112.8281,38.7969 113.4375,38.9531 113.9063,39.2031 C114.3906,39.4844 114.5625,39.7031 114.6563,40.1094 C114.7188,40.5156 114.75,40.6406 114.8906,40.7656 C115.0313,40.9063 115.2656,41.0156 115.4844,41.0156 C115.75,41.0156 116.0156,40.875 116.1875,40.6563 C116.2969,40.5 116.3281,40.3125 116.3281,39.8906 L116.3281,38.4688 C116.3281,38.0313 116.3125,37.9063 116.2188,37.75 C116.0625,37.4844 115.7813,37.3438 115.4844,37.3438 C115.1875,37.3438 114.9844,37.4375 114.7656,37.75 L114.5938,37.6719 Z " fill="#000000"/><text fill="#000000" font-family="sans-serif" font-size="12" lengthAdjust="spacing" textLength="74" x="132.75" y="46.1543">Receptionist</text><line style="stroke:#A80036;stroke-width:1.5;" x1="8" x2="299" y1="58" y2="58"/><text fill="#000000" font-family="sans-serif" font-size="11" lengthAdjust="spacing" textLength="78" x="13" y="72.2104">-Employee ID</text><text fill="#000000" font-family="sans-serif" font-size="11" lengthAdjust="spacing" textLength="105" x="13" y="85.0151">-Organization Role</text><text fill="#000000" font-family="sans-serif" font-size="11" lengthAdjust="spacing" textLength="38" x="13" y="97.8198">-Name</text><text fill="#000000" font-family="sans-serif" font-size="11" lengthAdjust="spacing" textLength="43" x="13" y="110.6245">-Adress</text><text fill="#000000" font-family="sans-serif" font-size="11" lengthAdjust="spacing" textLength="39" x="13" y="123.4292">-E-mail</text><text fill="#000000" font-family="sans-serif" font-size="11" lengthAdjust="spacing" textLength="88" x="13" y="136.2339">-Phone Number</text><text fill="#000000" font-family="sans-serif" font-size="11" lengthAdjust="spacing" textLength="281" x="13" y="149.0386">-Standard Occupational Classification (SOC) Code</text><line style="stroke:#A80036;stroke-width:1.5;" x1="8" x2="299" y1="155.6328" y2="155.6328"/><!--MD5=[6a35157f4c730bda767e7c9f1b8b7f73]
link Receptionist to Client--><path codeLine="28" d="M300.217,95 C332.779,95 367.079,95 398.943,95 " fill="none" id="Receptionist-Client" style="stroke:#A80036;stroke-width:1.0;"/><polygon fill="#000000" points="327.5,83.5664,318.4549,80.6275,318.4549,86.5053,327.5,83.5664" style="stroke:#000000;stroke-width:1.0;"/><text fill="#000000" font-family="sans-serif" font-size="13" lengthAdjust="spacing" textLength="49" x="331.5" y="88.0669">register</text><text fill="#000000" font-family="sans-serif" font-size="13" lengthAdjust="spacing" textLength="23" x="307.8806" y="107.4423">1..*</text><text fill="#000000" font-family="sans-serif" font-size="13" lengthAdjust="spacing" textLength="23" x="368.1743" y="107.4794">1..*</text><!--MD5=[9a8dc34b38f85b9f3fcdb440f4bffc6a]
link Client to User--><path codeLine="29" d="M660.262,95 C695.543,95 730.749,95 755.486,95 " fill="none" id="Client-User" style="stroke:#A80036;stroke-width:1.0;"/><polygon fill="#000000" points="687.25,83.5664,678.2049,80.6275,678.2049,86.5053,687.25,83.5664" style="stroke:#000000;stroke-width:1.0;"/><text fill="#000000" font-family="sans-serif" font-size="13" lengthAdjust="spacing" textLength="46" x="691.25" y="88.0669">acts as</text><text fill="#000000" font-family="sans-serif" font-size="13" lengthAdjust="spacing" textLength="8" x="668.0529" y="91.6358">1</text><text fill="#000000" font-family="sans-serif" font-size="13" lengthAdjust="spacing" textLength="8" x="739.6456" y="90.491">1</text><!--MD5=[2cf7b17acb410fce6a11424f07fc7e7a]
@startuml
skinparam classAttributeIconSize 0
class User{
-Name
-E-mail
-Password
}
class Client{
-Name
-Sex
-Citizen Card Number
  {field}-National Healthcare Service (NHS) Number
-Birth Date
-Sex
  {field}-Tax Identification Number (TIN)
-Phone Number
-E-mail
-Lab Order
}
class Receptionist{
-Employee ID
-Organization Role
-Name
-Adress
-E-mail
-Phone Number
  {field}-Standard Occupational Classification (SOC) Code
}
Receptionist "1..*" - "1..*" Client : register >
Client "1" - "1" User : acts as >
@enduml

PlantUML version 1.2021.5beta3(Unknown compile time)
(GPL source distribution)
Java Runtime: Java(TM) SE Runtime Environment
JVM: Java HotSpot(TM) 64-Bit Server VM
Default Encoding: UTF-8
Language: en
Country: US
--></g></svg>