<?xml version="1.0" encoding="UTF-8" standalone="no"?><svg xmlns="http://www.w3.org/2000/svg" xmlns:xlink="http://www.w3.org/1999/xlink" contentScriptType="application/ecmascript" contentStyleType="text/css" height="478px" preserveAspectRatio="none" style="width:1155px;height:478px;" version="1.1" viewBox="0 0 1155 478" width="1155px" zoomAndPan="magnify"><defs><filter height="300%" id="f1h34hprzf58p6" width="300%" x="-1" y="-1"><feGaussianBlur result="blurOut" stdDeviation="2.0"/><feColorMatrix in="blurOut" result="blurOut2" type="matrix" values="0 0 0 0 0 0 0 0 0 0 0 0 0 0 0 0 0 0 .4 0"/><feOffset dx="4.0" dy="4.0" in="blurOut2" result="blurOut3"/><feBlend in="SourceGraphic" in2="blurOut3" mode="normal"/></filter></defs><g><!--MD5=[04f26a29428078a1ed80c034ba7fd820]
class ClientUI--><rect codeLine="3" fill="#FEFECE" filter="url(#f1h34hprzf58p6)" height="48" id="ClientUI" style="stroke:#A80036;stroke-width:1.5;" width="77" x="647.5" y="7"/><ellipse cx="662.5" cy="23" fill="#ADD1B2" rx="11" ry="11" style="stroke:#A80036;stroke-width:1.0;"/><path d="M664.8438,18.6719 C663.9063,18.2344 663.3125,18.0938 662.4375,18.0938 C659.8125,18.0938 657.8125,20.1719 657.8125,22.8906 L657.8125,24.0156 C657.8125,26.5938 659.9219,28.4844 662.8125,28.4844 C664.0313,28.4844 665.1875,28.1875 665.9375,27.6406 C666.5156,27.2344 666.8438,26.7813 666.8438,26.3906 C666.8438,25.9375 666.4531,25.5469 665.9844,25.5469 C665.7656,25.5469 665.5625,25.625 665.375,25.8125 C664.9219,26.2969 664.9219,26.2969 664.7344,26.3906 C664.3125,26.6563 663.625,26.7813 662.8594,26.7813 C660.8125,26.7813 659.5156,25.6875 659.5156,23.9844 L659.5156,22.8906 C659.5156,21.1094 660.7656,19.7969 662.5,19.7969 C663.0781,19.7969 663.6875,19.9531 664.1563,20.2031 C664.6406,20.4844 664.8125,20.7031 664.9063,21.1094 C664.9688,21.5156 665,21.6406 665.1406,21.7656 C665.2813,21.9063 665.5156,22.0156 665.7344,22.0156 C666,22.0156 666.2656,21.875 666.4375,21.6563 C666.5469,21.5 666.5781,21.3125 666.5781,20.8906 L666.5781,19.4688 C666.5781,19.0313 666.5625,18.9063 666.4688,18.75 C666.3125,18.4844 666.0313,18.3438 665.7344,18.3438 C665.4375,18.3438 665.2344,18.4375 665.0156,18.75 L664.8438,18.6719 Z " fill="#000000"/><text fill="#000000" font-family="sans-serif" font-size="12" lengthAdjust="spacing" textLength="45" x="676.5" y="27.1543">ClientUI</text><line style="stroke:#A80036;stroke-width:1.5;" x1="648.5" x2="723.5" y1="39" y2="39"/><line style="stroke:#A80036;stroke-width:1.5;" x1="648.5" x2="723.5" y1="47" y2="47"/><!--MD5=[648611e10171f93773cfd106d6a9256b]
class ClientController--><rect codeLine="4" fill="#FEFECE" filter="url(#f1h34hprzf58p6)" height="99.2188" id="ClientController" style="stroke:#A80036;stroke-width:1.5;" width="280" x="254" y="116"/><ellipse cx="343.75" cy="132" fill="#ADD1B2" rx="11" ry="11" style="stroke:#A80036;stroke-width:1.0;"/><path d="M346.0938,127.6719 C345.1563,127.2344 344.5625,127.0938 343.6875,127.0938 C341.0625,127.0938 339.0625,129.1719 339.0625,131.8906 L339.0625,133.0156 C339.0625,135.5938 341.1719,137.4844 344.0625,137.4844 C345.2813,137.4844 346.4375,137.1875 347.1875,136.6406 C347.7656,136.2344 348.0938,135.7813 348.0938,135.3906 C348.0938,134.9375 347.7031,134.5469 347.2344,134.5469 C347.0156,134.5469 346.8125,134.625 346.625,134.8125 C346.1719,135.2969 346.1719,135.2969 345.9844,135.3906 C345.5625,135.6563 344.875,135.7813 344.1094,135.7813 C342.0625,135.7813 340.7656,134.6875 340.7656,132.9844 L340.7656,131.8906 C340.7656,130.1094 342.0156,128.7969 343.75,128.7969 C344.3281,128.7969 344.9375,128.9531 345.4063,129.2031 C345.8906,129.4844 346.0625,129.7031 346.1563,130.1094 C346.2188,130.5156 346.25,130.6406 346.3906,130.7656 C346.5313,130.9063 346.7656,131.0156 346.9844,131.0156 C347.25,131.0156 347.5156,130.875 347.6875,130.6563 C347.7969,130.5 347.8281,130.3125 347.8281,129.8906 L347.8281,128.4688 C347.8281,128.0313 347.8125,127.9063 347.7188,127.75 C347.5625,127.4844 347.2813,127.3438 346.9844,127.3438 C346.6875,127.3438 346.4844,127.4375 346.2656,127.75 L346.0938,127.6719 Z " fill="#000000"/><text fill="#000000" font-family="sans-serif" font-size="12" lengthAdjust="spacing" textLength="92" x="364.25" y="136.1543">ClientController</text><line style="stroke:#A80036;stroke-width:1.5;" x1="255" x2="533" y1="148" y2="148"/><line style="stroke:#A80036;stroke-width:1.5;" x1="255" x2="533" y1="156" y2="156"/><text fill="#000000" font-family="sans-serif" font-size="11" lengthAdjust="spacing" textLength="268" x="260" y="170.2104">+createClient(name, sex, citizen card number,</text><text fill="#000000" font-family="sans-serif" font-size="11" lengthAdjust="spacing" textLength="253" x="264" y="183.0151">NHS number, birth date, TIN, phone number,</text><text fill="#000000" font-family="sans-serif" font-size="11" lengthAdjust="spacing" textLength="40" x="264" y="195.8198">e-mail)</text><text fill="#000000" font-family="sans-serif" font-size="11" lengthAdjust="spacing" textLength="78" x="260" y="208.6245">+saveClient()</text><!--MD5=[02e4b9b7573f1156f41e60aa5b4e25a4]
class Company--><rect codeLine="9" fill="#FEFECE" filter="url(#f1h34hprzf58p6)" height="60.8047" id="Company" style="stroke:#A80036;stroke-width:1.5;" width="103" x="342.5" y="340"/><ellipse cx="364.25" cy="356" fill="#ADD1B2" rx="11" ry="11" style="stroke:#A80036;stroke-width:1.0;"/><path d="M366.5938,351.6719 C365.6563,351.2344 365.0625,351.0938 364.1875,351.0938 C361.5625,351.0938 359.5625,353.1719 359.5625,355.8906 L359.5625,357.0156 C359.5625,359.5938 361.6719,361.4844 364.5625,361.4844 C365.7813,361.4844 366.9375,361.1875 367.6875,360.6406 C368.2656,360.2344 368.5938,359.7813 368.5938,359.3906 C368.5938,358.9375 368.2031,358.5469 367.7344,358.5469 C367.5156,358.5469 367.3125,358.625 367.125,358.8125 C366.6719,359.2969 366.6719,359.2969 366.4844,359.3906 C366.0625,359.6563 365.375,359.7813 364.6094,359.7813 C362.5625,359.7813 361.2656,358.6875 361.2656,356.9844 L361.2656,355.8906 C361.2656,354.1094 362.5156,352.7969 364.25,352.7969 C364.8281,352.7969 365.4375,352.9531 365.9063,353.2031 C366.3906,353.4844 366.5625,353.7031 366.6563,354.1094 C366.7188,354.5156 366.75,354.6406 366.8906,354.7656 C367.0313,354.9063 367.2656,355.0156 367.4844,355.0156 C367.75,355.0156 368.0156,354.875 368.1875,354.6563 C368.2969,354.5 368.3281,354.3125 368.3281,353.8906 L368.3281,352.4688 C368.3281,352.0313 368.3125,351.9063 368.2188,351.75 C368.0625,351.4844 367.7813,351.3438 367.4844,351.3438 C367.1875,351.3438 366.9844,351.4375 366.7656,351.75 L366.5938,351.6719 Z " fill="#000000"/><text fill="#000000" font-family="sans-serif" font-size="12" lengthAdjust="spacing" textLength="56" x="379.75" y="360.1543">Company</text><line style="stroke:#A80036;stroke-width:1.5;" x1="343.5" x2="444.5" y1="372" y2="372"/><line style="stroke:#A80036;stroke-width:1.5;" x1="343.5" x2="444.5" y1="380" y2="380"/><text fill="#000000" font-family="sans-serif" font-size="11" lengthAdjust="spacing" textLength="91" x="348.5" y="394.2104">getClientStore()</text><!--MD5=[55cb992be19579b505cea3c5691093cb]
class ClientStore--><rect codeLine="12" fill="#FEFECE" filter="url(#f1h34hprzf58p6)" height="124.8281" id="ClientStore" style="stroke:#A80036;stroke-width:1.5;" width="280" x="512" y="308"/><ellipse cx="614.75" cy="324" fill="#ADD1B2" rx="11" ry="11" style="stroke:#A80036;stroke-width:1.0;"/><path d="M617.0938,319.6719 C616.1563,319.2344 615.5625,319.0938 614.6875,319.0938 C612.0625,319.0938 610.0625,321.1719 610.0625,323.8906 L610.0625,325.0156 C610.0625,327.5938 612.1719,329.4844 615.0625,329.4844 C616.2813,329.4844 617.4375,329.1875 618.1875,328.6406 C618.7656,328.2344 619.0938,327.7813 619.0938,327.3906 C619.0938,326.9375 618.7031,326.5469 618.2344,326.5469 C618.0156,326.5469 617.8125,326.625 617.625,326.8125 C617.1719,327.2969 617.1719,327.2969 616.9844,327.3906 C616.5625,327.6563 615.875,327.7813 615.1094,327.7813 C613.0625,327.7813 611.7656,326.6875 611.7656,324.9844 L611.7656,323.8906 C611.7656,322.1094 613.0156,320.7969 614.75,320.7969 C615.3281,320.7969 615.9375,320.9531 616.4063,321.2031 C616.8906,321.4844 617.0625,321.7031 617.1563,322.1094 C617.2188,322.5156 617.25,322.6406 617.3906,322.7656 C617.5313,322.9063 617.7656,323.0156 617.9844,323.0156 C618.25,323.0156 618.5156,322.875 618.6875,322.6563 C618.7969,322.5 618.8281,322.3125 618.8281,321.8906 L618.8281,320.4688 C618.8281,320.0313 618.8125,319.9063 618.7188,319.75 C618.5625,319.4844 618.2813,319.3438 617.9844,319.3438 C617.6875,319.3438 617.4844,319.4375 617.2656,319.75 L617.0938,319.6719 Z " fill="#000000"/><text fill="#000000" font-family="sans-serif" font-size="12" lengthAdjust="spacing" textLength="66" x="635.25" y="328.1543">ClientStore</text><line style="stroke:#A80036;stroke-width:1.5;" x1="513" x2="791" y1="340" y2="340"/><line style="stroke:#A80036;stroke-width:1.5;" x1="513" x2="791" y1="348" y2="348"/><text fill="#000000" font-family="sans-serif" font-size="11" lengthAdjust="spacing" textLength="268" x="518" y="362.2104">+createClient(name, sex, citizen card number,</text><text fill="#000000" font-family="sans-serif" font-size="11" lengthAdjust="spacing" textLength="253" x="522" y="375.0151">NHS number, birth date, TIN, phone number,</text><text fill="#000000" font-family="sans-serif" font-size="11" lengthAdjust="spacing" textLength="40" x="522" y="387.8198">e-mail)</text><text fill="#000000" font-family="sans-serif" font-size="11" lengthAdjust="spacing" textLength="102" x="518" y="400.6245">+validateClient(c)</text><text fill="#000000" font-family="sans-serif" font-size="11" lengthAdjust="spacing" textLength="77" x="518" y="413.4292">+addClient(c)</text><text fill="#000000" font-family="sans-serif" font-size="11" lengthAdjust="spacing" textLength="84" x="518" y="426.2339">+saveClient(c)</text><!--MD5=[ed6624c6556d5e7b1bd23032162d20b7]
class Client--><rect codeLine="18" fill="#FEFECE" filter="url(#f1h34hprzf58p6)" height="188.8516" id="Client" style="stroke:#A80036;stroke-width:1.5;" width="269" x="872.5" y="276"/><ellipse cx="986.25" cy="292" fill="#ADD1B2" rx="11" ry="11" style="stroke:#A80036;stroke-width:1.0;"/><path d="M988.5938,287.6719 C987.6563,287.2344 987.0625,287.0938 986.1875,287.0938 C983.5625,287.0938 981.5625,289.1719 981.5625,291.8906 L981.5625,293.0156 C981.5625,295.5938 983.6719,297.4844 986.5625,297.4844 C987.7813,297.4844 988.9375,297.1875 989.6875,296.6406 C990.2656,296.2344 990.5938,295.7813 990.5938,295.3906 C990.5938,294.9375 990.2031,294.5469 989.7344,294.5469 C989.5156,294.5469 989.3125,294.625 989.125,294.8125 C988.6719,295.2969 988.6719,295.2969 988.4844,295.3906 C988.0625,295.6563 987.375,295.7813 986.6094,295.7813 C984.5625,295.7813 983.2656,294.6875 983.2656,292.9844 L983.2656,291.8906 C983.2656,290.1094 984.5156,288.7969 986.25,288.7969 C986.8281,288.7969 987.4375,288.9531 987.9063,289.2031 C988.3906,289.4844 988.5625,289.7031 988.6563,290.1094 C988.7188,290.5156 988.75,290.6406 988.8906,290.7656 C989.0313,290.9063 989.2656,291.0156 989.4844,291.0156 C989.75,291.0156 990.0156,290.875 990.1875,290.6563 C990.2969,290.5 990.3281,290.3125 990.3281,289.8906 L990.3281,288.4688 C990.3281,288.0313 990.3125,287.9063 990.2188,287.75 C990.0625,287.4844 989.7813,287.3438 989.4844,287.3438 C989.1875,287.3438 988.9844,287.4375 988.7656,287.75 L988.5938,287.6719 Z " fill="#000000"/><text fill="#000000" font-family="sans-serif" font-size="12" lengthAdjust="spacing" textLength="33" x="1006.75" y="296.1543">Client</text><line style="stroke:#A80036;stroke-width:1.5;" x1="873.5" x2="1140.5" y1="308" y2="308"/><text fill="#000000" font-family="sans-serif" font-size="11" lengthAdjust="spacing" textLength="37" x="878.5" y="322.2104">-name</text><text fill="#000000" font-family="sans-serif" font-size="11" lengthAdjust="spacing" textLength="25" x="878.5" y="335.0151">-sex</text><text fill="#000000" font-family="sans-serif" font-size="11" lengthAdjust="spacing" textLength="110" x="878.5" y="347.8198">-citizencardnumber</text><text fill="#000000" font-family="sans-serif" font-size="11" lengthAdjust="spacing" textLength="68" x="878.5" y="360.6245">-nhsnumber</text><text fill="#000000" font-family="sans-serif" font-size="11" lengthAdjust="spacing" textLength="55" x="878.5" y="373.4292">-birthdate</text><text fill="#000000" font-family="sans-serif" font-size="11" lengthAdjust="spacing" textLength="18" x="878.5" y="386.2339">-tin</text><text fill="#000000" font-family="sans-serif" font-size="11" lengthAdjust="spacing" textLength="84" x="878.5" y="399.0386">-phonenumber</text><text fill="#000000" font-family="sans-serif" font-size="11" lengthAdjust="spacing" textLength="36" x="878.5" y="411.8433">-email</text><line style="stroke:#A80036;stroke-width:1.5;" x1="873.5" x2="1140.5" y1="418.4375" y2="418.4375"/><text fill="#000000" font-family="sans-serif" font-size="11" lengthAdjust="spacing" textLength="231" x="878.5" y="432.6479">+Client(name, sex, citizen card number,</text><text fill="#000000" font-family="sans-serif" font-size="11" lengthAdjust="spacing" textLength="253" x="882.5" y="445.4526">NHS number, birth date, TIN, phone number,</text><text fill="#000000" font-family="sans-serif" font-size="11" lengthAdjust="spacing" textLength="40" x="882.5" y="458.2573">e-mail)</text><!--MD5=[8ae808d068a8995f06b9b3ec51357f0b]
class AuthFacade--><rect codeLine="29" fill="#FEFECE" filter="url(#f1h34hprzf58p6)" height="73.6094" id="AuthFacade" style="stroke:#A80036;stroke-width:1.5;" width="300" x="7" y="333.5"/><ellipse cx="117.75" cy="349.5" fill="#ADD1B2" rx="11" ry="11" style="stroke:#A80036;stroke-width:1.0;"/><path d="M120.0938,345.1719 C119.1563,344.7344 118.5625,344.5938 117.6875,344.5938 C115.0625,344.5938 113.0625,346.6719 113.0625,349.3906 L113.0625,350.5156 C113.0625,353.0938 115.1719,354.9844 118.0625,354.9844 C119.2813,354.9844 120.4375,354.6875 121.1875,354.1406 C121.7656,353.7344 122.0938,353.2813 122.0938,352.8906 C122.0938,352.4375 121.7031,352.0469 121.2344,352.0469 C121.0156,352.0469 120.8125,352.125 120.625,352.3125 C120.1719,352.7969 120.1719,352.7969 119.9844,352.8906 C119.5625,353.1563 118.875,353.2813 118.1094,353.2813 C116.0625,353.2813 114.7656,352.1875 114.7656,350.4844 L114.7656,349.3906 C114.7656,347.6094 116.0156,346.2969 117.75,346.2969 C118.3281,346.2969 118.9375,346.4531 119.4063,346.7031 C119.8906,346.9844 120.0625,347.2031 120.1563,347.6094 C120.2188,348.0156 120.25,348.1406 120.3906,348.2656 C120.5313,348.4063 120.7656,348.5156 120.9844,348.5156 C121.25,348.5156 121.5156,348.375 121.6875,348.1563 C121.7969,348 121.8281,347.8125 121.8281,347.3906 L121.8281,345.9688 C121.8281,345.5313 121.8125,345.4063 121.7188,345.25 C121.5625,344.9844 121.2813,344.8438 120.9844,344.8438 C120.6875,344.8438 120.4844,344.9375 120.2656,345.25 L120.0938,345.1719 Z " fill="#000000"/><text fill="#000000" font-family="sans-serif" font-size="12" lengthAdjust="spacing" textLength="70" x="138.25" y="353.6543">AuthFacade</text><line style="stroke:#A80036;stroke-width:1.5;" x1="8" x2="306" y1="365.5" y2="365.5"/><line style="stroke:#A80036;stroke-width:1.5;" x1="8" x2="306" y1="373.5" y2="373.5"/><text fill="#000000" font-family="sans-serif" font-size="11" lengthAdjust="spacing" textLength="288" x="13" y="387.7104">+addUserWithRole(name,email, password,"Client")</text><text fill="#000000" font-family="sans-serif" font-size="11" lengthAdjust="spacing" textLength="109" x="13" y="400.5151">+existsUser(email)</text><!--MD5=[951cb31bd26eb521ce34d9c994356a24]
link ClientUI to ClientController--><path codeLine="34" d="M647.225,49.595 C611.155,65.962 555.627,91.159 505.751,113.791 " fill="none" id="ClientUI-to-ClientController" style="stroke:#A80036;stroke-width:1.0;stroke-dasharray:7.0,7.0;"/><polygon fill="#A80036" points="500.943,115.973,510.7916,115.897,505.4963,113.9071,507.4861,108.6118,500.943,115.973" style="stroke:#A80036;stroke-width:1.0;"/><!--MD5=[d4c124bf3d0a3f0bd355f51bc6131d76]
link ClientController to Company--><path codeLine="35" d="M394,215.124 C394,251.977 394,301.734 394,334.68 " fill="none" id="ClientController-to-Company" style="stroke:#A80036;stroke-width:1.0;stroke-dasharray:7.0,7.0;"/><polygon fill="#A80036" points="394,339.818,398,330.818,394,334.818,390,330.818,394,339.818" style="stroke:#A80036;stroke-width:1.0;"/><!--MD5=[db9a0bd6950731edd3b38b4dcde2573e]
link ClientUI to Client--><path codeLine="36" d="M708.064,55.198 C749.88,99.164 842.86,196.923 914.099,271.824 " fill="none" id="ClientUI-to-Client" style="stroke:#A80036;stroke-width:1.0;stroke-dasharray:7.0,7.0;"/><polygon fill="#A80036" points="917.902,275.822,914.5979,266.5439,914.4562,272.199,908.8011,272.0573,917.902,275.822" style="stroke:#A80036;stroke-width:1.0;"/><!--MD5=[f36e8fec416bdf9859648497fd14b825]
link ClientController to AuthFacade--><path codeLine="37" d="M337.233,215.124 C296.273,250.207 241.661,296.984 203.326,329.82 " fill="none" id="ClientController-to-AuthFacade" style="stroke:#A80036;stroke-width:1.0;stroke-dasharray:7.0,7.0;"/><polygon fill="#A80036" points="199.202,333.352,208.6398,330.5363,202.9998,330.0998,203.4363,324.4598,199.202,333.352" style="stroke:#A80036;stroke-width:1.0;"/><!--MD5=[a11230341c8e65219708844feaa40162]
link Company to ClientStore--><path codeLine="38" d="M445.59,370.5 C463.56,370.5 484.711,370.5 506.5,370.5 " fill="none" id="Company-to-ClientStore" style="stroke:#A80036;stroke-width:1.0;"/><polygon fill="#A80036" points="511.752,370.5,502.752,366.5,506.752,370.5,502.752,374.5,511.752,370.5" style="stroke:#A80036;stroke-width:1.0;"/><text fill="#000000" font-family="sans-serif" font-size="13" lengthAdjust="spacing" textLength="30" x="463.75" y="363.5669">uses</text><!--MD5=[1d934105a045dbf126514c6917bd5072]
link ClientStore to Client--><path codeLine="39" d="M792.051,370.5 C816.763,370.5 842.489,370.5 867.194,370.5 " fill="none" id="ClientStore-to-Client" style="stroke:#A80036;stroke-width:1.0;"/><polygon fill="#A80036" points="872.45,370.5,863.45,366.5,867.45,370.5,863.45,374.5,872.45,370.5" style="stroke:#A80036;stroke-width:1.0;"/><text fill="#000000" font-family="sans-serif" font-size="13" lengthAdjust="spacing" textLength="44" x="810.25" y="363.5669">adopts</text><!--MD5=[9394023a79275412c5e137e9be08d512]
@startuml
skinparam classAttributeIconSize 0

class ClientUI
class ClientController{
{method}+createClient(name, sex, citizen card number,\n NHS number, birth date, TIN, phone number,\n e-mail)
{method}+saveClient()

}
class Company{
{method}getClientStore()
}
class ClientStore{
{method}+createClient(name, sex, citizen card number,\n NHS number, birth date, TIN, phone number,\n e-mail)
{method}+validateClient(c)
{method}+addClient(c)
{method}+saveClient(c)
}
class Client{
{field}-name
{field}-sex
{field}-citizencardnumber
{field}-nhsnumber
{field}-birthdate
{field}-tin
{field}-phonenumber
{field}-email
{method}+Client(name, sex, citizen card number,\n NHS number, birth date, TIN, phone number,\n e-mail)
}
class AuthFacade{
{method}+addUserWithRole(name,email, password,"Client")
{method}+existsUser(email)
}

ClientUI ..> ClientController
ClientController ..> Company
ClientUI ..> Client
ClientController ..> AuthFacade
Company -> ClientStore: uses
ClientStore -> Client: adopts
@enduml

PlantUML version 1.2021.6beta4(Unknown compile time)
(GPL source distribution)
Java Runtime: Java(TM) SE Runtime Environment
JVM: Java HotSpot(TM) 64-Bit Server VM
Default Encoding: UTF-8
Language: en
Country: US
--></g></svg>