<svg xmlns="http://www.w3.org/2000/svg" xmlns:xlink="http://www.w3.org/1999/xlink" xmlns:lucid="lucid" width="2020.36" height="1240"><g transform="translate(-99.63580246913581 -220)" lucid:page-tab-id="0_0"><path d="M0 0h3677.73v2581.67H0z" fill="#fff"/><path d="M209.75 259.75c0 10.9-8.84 19.75-19.75 19.75-10.9 0-19.75-8.84-19.75-19.75 0-10.9 8.84-19.75 19.75-19.75 10.9 0 19.75 8.84 19.75 19.75z" stroke="#5e5e5e" stroke-width="3" fill="#fff"/><path d="M190 279.5v49.3c0 3.3 1.44 8.27 3.2 11.07L230 398m-40-63.2L150 398m0-98.75h80" stroke="#5e5e5e" stroke-width="3" fill="none"/><path d="M150 246c0-3.3 2.7-6 6-6h68c3.3 0 6 2.7 6 6v168c0 3.3-2.7 6-6 6h-68c-3.3 0-6-2.7-6-6z" fill="none"/><use xlink:href="#a" transform="matrix(1,0,0,1,70,398) translate(51.63580246913581 17.77777777777778)"/><path d="M180 446c0-3.3 2.7-6 6-6h8c3.3 0 6 2.7 6 6v748c0 3.3-2.7 6-6 6h-8c-3.3 0-6-2.7-6-6z" stroke="#5e5e5e" stroke-width="3" fill="#fff"/><path d="M202.5 483.33H710" stroke="#5e5e5e" stroke-width="2" fill="none"/><path d="M202.53 484.33h-1.03v-2h1.03z" fill="#5e5e5e"/><path d="M725.26 483.33L711 487.97v-9.27z" stroke="#5e5e5e" stroke-width="2" fill="#5e5e5e"/><use xlink:href="#b" transform="matrix(1,0,0,1,275.34567901234567,458) translate(0 14.222222222222223)"/><use xlink:href="#c" transform="matrix(1,0,0,1,275.34567901234567,458) translate(20.69135802469136 14.222222222222223)"/><use xlink:href="#d" transform="matrix(1,0,0,1,275.34567901234567,458) translate(64.0493827160494 14.222222222222223)"/><use xlink:href="#e" transform="matrix(1,0,0,1,275.34567901234567,458) translate(95.55555555555557 14.222222222222223)"/><use xlink:href="#f" transform="matrix(1,0,0,1,275.34567901234567,458) translate(208.8888888888889 14.222222222222223)"/><use xlink:href="#g" transform="matrix(1,0,0,1,275.34567901234567,458) translate(230.51851851851853 14.222222222222223)"/><use xlink:href="#h" transform="matrix(1,0,0,1,275.34567901234567,458) translate(245.33333333333334 14.222222222222223)"/><use xlink:href="#i" transform="matrix(1,0,0,1,275.34567901234567,458) translate(284.7901234567901 14.222222222222223)"/><use xlink:href="#f" transform="matrix(1,0,0,1,275.34567901234567,458) translate(326.17283950617286 14.222222222222223)"/><use xlink:href="#j" transform="matrix(1,0,0,1,275.34567901234567,458) translate(347.8024691358025 14.222222222222223)"/><path d="M730 466c0-3.3 2.7-6 6-6h8c3.3 0 6 2.7 6 6v128c0 3.3-2.7 6-6 6h-8c-3.3 0-6-2.7-6-6zM730 626c0-3.3 2.7-6 6-6h8c3.3 0 6 2.7 6 6v208c0 3.3-2.7 6-6 6h-8c-3.3 0-6-2.7-6-6z" stroke="#5e5e5e" stroke-width="3" fill="#fff"/><path d="M1167.72 281c0-3.3 2.68-6 6-6h272.56c3.32 0 6 2.7 6 6v98c0 3.3-2.68 6-6 6h-272.56c-3.32 0-6-2.7-6-6z" stroke="#000" stroke-width="3" fill="#fff"/><use xlink:href="#k" transform="matrix(1,0,0,1,1172.716535433071,280) translate(9.338888888888931 55.633333333333326)"/><path d="M202.5 636.77H710" stroke="#5e5e5e" stroke-width="2" fill="none"/><path d="M202.53 637.77h-1.03v-2h1.03z" fill="#5e5e5e"/><path d="M725.26 636.77L711 641.4v-9.27z" stroke="#5e5e5e" stroke-width="2" fill="#5e5e5e"/><use xlink:href="#l" transform="matrix(1,0,0,1,370.9012345679012,611.4320468728864) translate(0 14.222222222222223)"/><use xlink:href="#m" transform="matrix(1,0,0,1,370.9012345679012,611.4320468728864) translate(20.69135802469136 14.222222222222223)"/><use xlink:href="#n" transform="matrix(1,0,0,1,370.9012345679012,611.4320468728864) translate(62.07407407407408 14.222222222222223)"/><use xlink:href="#o" transform="matrix(1,0,0,1,370.9012345679012,611.4320468728864) translate(151.7530864197531 14.222222222222223)"/><path d="M1300 636c0-3.3 2.7-6 6-6h8c3.3 0 6 2.7 6 6v188c0 3.3-2.7 6-6 6h-8c-3.3 0-6-2.7-6-6z" stroke="#5e5e5e" stroke-width="3" fill="#fff"/><path d="M630 286c0-3.3 2.7-6 6-6h208c3.3 0 6 2.7 6 6v88c0 3.3-2.7 6-6 6H636c-3.3 0-6-2.7-6-6z" stroke="#000" stroke-width="3" fill="#fff"/><use xlink:href="#p" transform="matrix(1,0,0,1,635,285) translate(14.490740740740762 49.070833333333326)"/><path d="M752.5 652.27h529" stroke="#5e5e5e" stroke-width="2" fill="none"/><path d="M752.53 653.27h-1.03v-2h1.03z" fill="#5e5e5e"/><path d="M1296.76 652.27l-14.26 4.63v-9.27z" stroke="#5e5e5e" stroke-width="2" fill="#5e5e5e"/><use xlink:href="#q" transform="matrix(1,0,0,1,780.2685185185185,626.9338257917643) translate(0 14.222222222222223)"/><use xlink:href="#r" transform="matrix(1,0,0,1,780.2685185185185,626.9338257917643) translate(20.69135802469136 14.222222222222223)"/><use xlink:href="#s" transform="matrix(1,0,0,1,780.2685185185185,626.9338257917643) translate(218.0740740740741 14.222222222222223)"/><use xlink:href="#t" transform="matrix(1,0,0,1,780.2685185185185,626.9338257917643) translate(323.50617283950623 14.222222222222223)"/><use xlink:href="#u" transform="matrix(1,0,0,1,780.2685185185185,626.9338257917643) translate(411.20987654320993 14.222222222222223)"/><path d="M727.5 582.5h-2m-8.07 0h-4.03m-8.05 0h-4.03m-8.06 0h-4.02m-8.06 0h-4.03m-8.05 0h-4.03m-8.06 0h-4m-8.07 0h-4.03m-8.05 0h-4.03m-8.06 0h-4.02m-8.06 0h-4.03m-8.05 0h-4.03m-8.06 0h-4m-8.07 0h-4.03m-8.05 0h-4.03m-8.06 0h-4.02m-8.06 0h-4.03m-8.05 0h-4.03m-8.06 0h-4m-8.07 0h-4.03m-8.05 0h-4.03m-8.06 0h-4.02m-8.06 0h-4.03m-8.05 0h-4.03m-8.06 0h-4m-8.07 0h-4.03m-8.05 0h-4.03m-8.05 0h-4.03m-8.06 0h-4.03m-8.05 0h-4.03m-8.05 0H363m-8.07 0h-4.03m-8.05 0h-4.03m-8.05 0h-4.03m-8.06 0h-4.03m-8.05 0h-4.03m-8.05 0h-4.03m-8.07 0h-4.03m-8.05 0h-4.03m-8.05 0h-4.03m-8.06 0h-4.03m-8.05 0h-4.03m-8.05 0H220" stroke="#5e5e5e" stroke-width="2" fill="none"/><path d="M728.5 583.5h-1.03v-2h1.03z" fill="#5e5e5e"/><path d="M204.74 582.5l14.26-4.64v9.27z" stroke="#5e5e5e" stroke-width="2" fill="#5e5e5e"/><use xlink:href="#v" transform="matrix(1,0,0,1,234.45679012345676,557.1653543307089) translate(0 14.222222222222223)"/><use xlink:href="#w" transform="matrix(1,0,0,1,234.45679012345676,557.1653543307089) translate(20.69135802469136 14.222222222222223)"/><use xlink:href="#x" transform="matrix(1,0,0,1,234.45679012345676,557.1653543307089) translate(89.67901234567904 14.222222222222223)"/><use xlink:href="#y" transform="matrix(1,0,0,1,234.45679012345676,557.1653543307089) translate(131.06172839506178 14.222222222222223)"/><use xlink:href="#z" transform="matrix(1,0,0,1,234.45679012345676,557.1653543307089) translate(183.25925925925932 14.222222222222223)"/><use xlink:href="#t" transform="matrix(1,0,0,1,234.45679012345676,557.1653543307089) translate(293.6296296296297 14.222222222222223)"/><use xlink:href="#u" transform="matrix(1,0,0,1,234.45679012345676,557.1653543307089) translate(381.33333333333337 14.222222222222223)"/><path d="M1590 301c0-3.3 2.7-6 6-6h148c3.3 0 6 2.7 6 6v58c0 3.3-2.7 6-6 6h-148c-3.3 0-6-2.7-6-6z" stroke="#000" stroke-width="3" fill="#fff"/><use xlink:href="#A" transform="matrix(1,0,0,1,1595,300) translate(26.581481481481497 33.133333333333326)"/><path d="M1900 304.33c0-3.3 2.7-6 6-6h188c3.3 0 6 2.7 6 6v51.34c0 3.3-2.7 6-6 6h-188c-3.3 0-6-2.7-6-6z" stroke="#5e5e5e" stroke-width="3" fill="#fff"/><use xlink:href="#B" transform="matrix(1,0,0,1,1905,303.33333333333337) translate(19.444444444444457 31.27777777777778)"/><use xlink:href="#C" transform="matrix(1,0,0,1,1905,303.33333333333337) translate(37.962962962962976 31.27777777777778)"/><use xlink:href="#D" transform="matrix(1,0,0,1,1905,303.33333333333337) translate(105.18518518518519 31.27777777777778)"/><use xlink:href="#E" transform="matrix(1,0,0,1,1905,303.33333333333337) translate(129.87654320987656 31.27777777777778)"/><path d="M727.5 827.78h-2m-8.07 0h-4.03m-8.05 0h-4.03m-8.06 0h-4.02m-8.06 0h-4.03m-8.05 0h-4.03m-8.06 0h-4m-8.07 0h-4.03m-8.05 0h-4.03m-8.06 0h-4.02m-8.06 0h-4.03m-8.05 0h-4.03m-8.06 0h-4m-8.07 0h-4.03m-8.05 0h-4.03m-8.06 0h-4.02m-8.06 0h-4.03m-8.05 0h-4.03m-8.06 0h-4m-8.07 0h-4.03m-8.05 0h-4.03m-8.06 0h-4.02m-8.06 0h-4.03m-8.05 0h-4.03m-8.06 0h-4m-8.07 0h-4.03m-8.05 0h-4.03m-8.05 0h-4.03m-8.06 0h-4.03m-8.05 0h-4.03m-8.05 0H363m-8.07 0h-4.03m-8.05 0h-4.03m-8.05 0h-4.03m-8.06 0h-4.03m-8.05 0h-4.03m-8.05 0h-4.03m-8.07 0h-4.03m-8.05 0h-4.03m-8.05 0h-4.03m-8.06 0h-4.03m-8.05 0h-4.03m-8.05 0H220" stroke="#5e5e5e" stroke-width="2" fill="none"/><path d="M728.5 828.78h-1.03v-2h1.03z" fill="#5e5e5e"/><path d="M204.74 827.78l14.26-4.64v9.27z" stroke="#5e5e5e" stroke-width="2" fill="#5e5e5e"/><use xlink:href="#F" transform="matrix(1,0,0,1,276.8024691358024,802.4444444444446) translate(0 14.222222222222223)"/><use xlink:href="#G" transform="matrix(1,0,0,1,276.8024691358024,802.4444444444446) translate(20.69135802469136 14.222222222222223)"/><use xlink:href="#d" transform="matrix(1,0,0,1,276.8024691358024,802.4444444444446) translate(80.83950617283952 14.222222222222223)"/><use xlink:href="#x" transform="matrix(1,0,0,1,276.8024691358024,802.4444444444446) translate(112.3456790123457 14.222222222222223)"/><use xlink:href="#H" transform="matrix(1,0,0,1,276.8024691358024,802.4444444444446) translate(153.7283950617284 14.222222222222223)"/><use xlink:href="#I" transform="matrix(1,0,0,1,276.8024691358024,802.4444444444446) translate(190.17283950617286 14.222222222222223)"/><use xlink:href="#J" transform="matrix(1,0,0,1,276.8024691358024,802.4444444444446) translate(269.03703703703707 14.222222222222223)"/><path d="M2000 364.17v2m0 8.04v4.02m0 8.03v4.02m0 8.03v4m0 8.04v4.02m0 8.03v4m0 8.04v4m0 8.04v4.02m0 8.03v4.02m0 8.03v4m0 8.04v4.02m0 8.03v4m0 8.05v4m0 8.04v4.02m0 8.03v4.02m0 8.04v4m0 8.04v4.02m0 8.03v4m0 8.04v4m0 8.04v4.02m0 8.03v4m0 8.03v4.02m0 8.03v4.02m0 8.03v4m0 8.04v4.02m0 8.02v4m0 8.05v4m0 8.04v4.03m0 8.03v4m0 8.04v4.02m0 8.03v4.02m0 8.03v4m0 8.04v4.02m0 8.03v4m0 8.04v4m0 8.04v4.02m0 8.03v4.02m0 8.03v4m0 8.04v4.02m0 8.03v4m0 8.05v4m0 8.04v4.02m0 8.03v4.02m0 8.03v4.02m0 8.03v4.02m0 8.03v4m0 8.04v4m0 8.04v4.02m0 8.03v4m0 8.03v4.02m0 8.03v4.02m0 8.03v4m0 8.04v4.02m0 8.02v4m0 8.05v4m0 8.04v4.03m0 8.03v4m0 8.04v4.02m0 8.03v4.02m0 8.03v4m0 8.04v4.02m0 8.03v4m0 8.04v4m0 8.04v4.02m0 8.03v4m0 8.05v4m0 8.04v4.02m0 8.03v4m0 8.05v4m0 8.04v4.02m0 8.03v4.02m0 8.03v4.02m0 8.03v4.02m0 8.03v4m0 8.04v4m0 8.04v4.02m0 8.03v4m0 8.03v4.02m0 8.03v4m0 8.05v2" stroke="#5e5e5e" stroke-width="2" fill="none"/><path d="M2001 364.2h-2v-1.03h2zM2001 1316.83h-2v-1.02h2z" fill="#5e5e5e"/><path d="M730 916c0-3.3 2.7-6 6-6h8c3.3 0 6 2.7 6 6v258c0 3.3-2.7 6-6 6h-8c-3.3 0-6-2.7-6-6z" stroke="#5e5e5e" stroke-width="3" fill="#fff"/><path d="M202.5 930H710" stroke="#5e5e5e" stroke-width="2" fill="none"/><path d="M202.53 931h-1.03v-2h1.03z" fill="#5e5e5e"/><path d="M725.26 930L711 934.64v-9.28z" stroke="#5e5e5e" stroke-width="2" fill="#5e5e5e"/><use xlink:href="#K" transform="matrix(1,0,0,1,396.50617283950623,904.6666666666667) translate(0 14.222222222222223)"/><use xlink:href="#L" transform="matrix(1,0,0,1,396.50617283950623,904.6666666666667) translate(20.69135802469136 14.222222222222223)"/><use xlink:href="#o" transform="matrix(1,0,0,1,396.50617283950623,904.6666666666667) translate(100.54320987654324 14.222222222222223)"/><path d="M1300 956c0-3.3 2.7-6 6-6h8c3.3 0 6 2.7 6 6v198c0 3.3-2.7 6-6 6h-8c-3.3 0-6-2.7-6-6z" stroke="#5e5e5e" stroke-width="3" fill="#fff"/><path d="M752.5 970H1280" stroke="#5e5e5e" stroke-width="2" fill="none"/><path d="M752.53 971h-1.03v-2h1.03z" fill="#5e5e5e"/><path d="M1295.26 970l-14.26 4.64v-9.28z" stroke="#5e5e5e" stroke-width="2" fill="#5e5e5e"/><use xlink:href="#M" transform="matrix(1,0,0,1,905.8148148148148,944.6666666666669) translate(0 14.222222222222223)"/><use xlink:href="#N" transform="matrix(1,0,0,1,905.8148148148148,944.6666666666669) translate(20.69135802469136 14.222222222222223)"/><path d="M727.5 1165H220" stroke="#5e5e5e" stroke-width="2" fill="none"/><path d="M728.5 1166h-1.03v-2h1.03z" fill="#5e5e5e"/><path d="M204.74 1165l14.26-4.64v9.28z" stroke="#5e5e5e" stroke-width="2" fill="#5e5e5e"/><use xlink:href="#O" transform="matrix(1,0,0,1,337.34567901234567,1139.6666666666665) translate(0 14.222222222222223)"/><use xlink:href="#P" transform="matrix(1,0,0,1,337.34567901234567,1139.6666666666665) translate(29.58024691358025 14.222222222222223)"/><use xlink:href="#Q" transform="matrix(1,0,0,1,337.34567901234567,1139.6666666666665) translate(99.55555555555557 14.222222222222223)"/><use xlink:href="#R" transform="matrix(1,0,0,1,337.34567901234567,1139.6666666666665) translate(185.23456790123458 14.222222222222223)"/><path d="M209.75 1279.75c0 10.9-8.84 19.75-19.75 19.75-10.9 0-19.75-8.84-19.75-19.75 0-10.9 8.84-19.75 19.75-19.75 10.9 0 19.75 8.84 19.75 19.75z" stroke="#5e5e5e" stroke-width="3" fill="#fff"/><path d="M190 1299.5v49.3c0 3.3 1.44 8.27 3.2 11.07L230 1418m-40-63.2l-40 63.2m0-98.75h80" stroke="#5e5e5e" stroke-width="3" fill="none"/><path d="M150 1266c0-3.3 2.7-6 6-6h68c3.3 0 6 2.7 6 6v168c0 3.3-2.7 6-6 6h-68c-3.3 0-6-2.7-6-6z" fill="none"/><g><use xlink:href="#S" transform="matrix(1,0,0,1,70,1418) translate(54.72222222222223 17.77777777777778)"/></g><path d="M630 1306c0-3.3 2.7-6 6-6h208c3.3 0 6 2.7 6 6v88c0 3.3-2.7 6-6 6H636c-3.3 0-6-2.7-6-6z" stroke="#000" stroke-width="3" fill="#fff"/><g><use xlink:href="#p" transform="matrix(1,0,0,1,635,1305) translate(14.490740740740762 49.070833333333326)"/></g><path d="M1170 1299.73c0-3.3 2.7-6 6-6h268c3.3 0 6 2.7 6 6v100.54c0 3.3-2.7 6-6 6h-268c-3.3 0-6-2.7-6-6z" stroke="#000" stroke-width="3" fill="#fff"/><g><use xlink:href="#T" transform="matrix(1,0,0,1,1175,1298.7333333333333) translate(9.35185185185189 56.40277777777778)"/></g><path d="M1900 1324.33c0-3.3 2.7-6 6-6h188c3.3 0 6 2.7 6 6v51.34c0 3.3-2.7 6-6 6h-188c-3.3 0-6-2.7-6-6z" stroke="#5e5e5e" stroke-width="3" fill="#fff"/><g><use xlink:href="#B" transform="matrix(1,0,0,1,1905,1323.3333333333335) translate(19.444444444444457 31.27777777777778)"/><use xlink:href="#C" transform="matrix(1,0,0,1,1905,1323.3333333333335) translate(37.962962962962976 31.27777777777778)"/><use xlink:href="#D" transform="matrix(1,0,0,1,1905,1323.3333333333335) translate(105.18518518518519 31.27777777777778)"/><use xlink:href="#E" transform="matrix(1,0,0,1,1905,1323.3333333333335) translate(129.87654320987656 31.27777777777778)"/></g><path d="M1590 1321c0-3.3 2.7-6 6-6h148c3.3 0 6 2.7 6 6v58c0 3.3-2.7 6-6 6h-148c-3.3 0-6-2.7-6-6z" stroke="#000" stroke-width="3" fill="#fff"/><g><use xlink:href="#A" transform="matrix(1,0,0,1,1595,1320) translate(26.581481481481497 33.133333333333326)"/></g><path d="M1322.5 687.02h659" stroke="#5e5e5e" stroke-width="2" fill="none"/><path d="M1322.53 688.02h-1.03v-2h1.03z" fill="#5e5e5e"/><path d="M1996.76 687.02l-14.26 4.63v-9.27z" stroke="#5e5e5e" stroke-width="2" fill="#5e5e5e"/><g><use xlink:href="#U" transform="matrix(1,0,0,1,1462.2314814814815,661.6861620795119) translate(0 14.222222222222223)"/><use xlink:href="#V" transform="matrix(1,0,0,1,1462.2314814814815,661.6861620795119) translate(20.69135802469136 14.222222222222223)"/><use xlink:href="#s" transform="matrix(1,0,0,1,1462.2314814814815,661.6861620795119) translate(130.12345679012347 14.222222222222223)"/><use xlink:href="#W" transform="matrix(1,0,0,1,1462.2314814814815,661.6861620795119) translate(235.55555555555557 14.222222222222223)"/></g><path d="M1322.5 770h659" stroke="#5e5e5e" stroke-width="2" fill="none"/><path d="M1322.53 771h-1.03v-2h1.03z" fill="#5e5e5e"/><path d="M1996.76 770l-14.26 4.64v-9.28z" stroke="#5e5e5e" stroke-width="2" fill="#5e5e5e"/><g><use xlink:href="#X" transform="matrix(1,0,0,1,1528.280864197531,744.6666666666666) translate(0 14.222222222222223)"/><use xlink:href="#Y" transform="matrix(1,0,0,1,1528.280864197531,744.6666666666666) translate(20.69135802469136 14.222222222222223)"/></g><path d="M1660 1006c0-3.3 2.7-6 6-6h8c3.3 0 6 2.7 6 6v128c0 3.3-2.7 6-6 6h-8c-3.3 0-6-2.7-6-6z" stroke="#5e5e5e" stroke-width="3" fill="#fff"/><path d="M1322.5 1020H1640" stroke="#5e5e5e" stroke-width="2" fill="none"/><path d="M1322.53 1021h-1.03v-2h1.03z" fill="#5e5e5e"/><path d="M1655.26 1020l-14.26 4.64v-9.28z" stroke="#5e5e5e" stroke-width="2" fill="#5e5e5e"/><g><use xlink:href="#Z" transform="matrix(1,0,0,1,1365.8765432098767,994.6666666666669) translate(0 14.222222222222223)"/><use xlink:href="#N" transform="matrix(1,0,0,1,1365.8765432098767,994.6666666666669) translate(30.567901234567906 14.222222222222223)"/></g><path d="M1670 367.5v2m0 7.97v4m0 7.96v4m0 7.96v3.98m0 7.97v4m0 7.97v3.98m0 7.98v4m0 7.96v4m0 7.96v4m0 7.96v4m0 7.97v3.98m0 8v3.98m0 7.97v4m0 7.96v4m0 7.97v4m0 7.97v3.98m0 7.98v4m0 7.96v4m0 7.96v4m0 7.96v4m0 7.97v3.98m0 7.98v4m0 7.97v4m0 7.96v4m0 7.96v3.98m0 7.98v3.98m0 7.98v4m0 7.96v4m0 7.96v4m0 7.97v4m0 7.97v3.98m0 7.98v4m0 7.96v3.98m0 7.97v4m0 7.97v3.98m0 7.98v3.98m0 7.98v4m0 7.96v4m0 7.96v4m0 7.97V836m0 8v3.97m0 7.98v4m0 7.96v4m0 7.97v4m0 7.97v3.98m0 7.98v3.98m0 7.98v4m0 7.96v4m0 7.96v4m0 7.97v3.98m0 7.98v4m0 7.97v4m0 7.96v4m0 7.96v3.98m0 7.98v3.98m0 7.98v4m0 7.96v4m0 7.96v4m0 7.96v4m0 7.97v3.98m0 7.98v4m0 7.96v3.98m0 7.97v4m0 7.96v4m0 7.98v3.98m0 7.98v4m0 7.96v4m0 7.96v4m0 7.96v4m0 7.97v3.97m0 7.98v4m0 7.96v4m0 7.97v4m0 7.96v4m0 7.97v3.98m0 7.98v4m0 7.96v4m0 7.96v4m0 7.96v4m0 7.97v2" stroke="#5e5e5e" stroke-width="2" fill="none"/><path d="M1671 367.53h-2v-1.03h2zM1671 1313.5h-2v-1.03h2z" fill="#5e5e5e"/><path d="M1310 387.5v2m0 8.04v4.02m0 8.03v4m0 8.04v4.02m0 8.03v4m0 8.04v4.02m0 8.03v4m0 8.04v4.02m0 8.03v4m0 8.04v4.02m0 8.03v4m0 8.04v4.02m0 8.03v4m0 8.04v4.02m0 8.03v4m0 8.04v4m0 8.05v4m0 8.04v4m0 8.05v4m0 8.04v4m0 8.05v4m0 8.04v4m0 8.05v4m0 8.04v4m0 8.05v4m0 8.04v4m0 8.05v4m0 8.04v4m0 8.05v4m0 8.04v4m0 8.05v4m0 8.03v4.02m0 8.03v4.02m0 8.03v4.02m0 8.03v4.02m0 8.03v4.02m0 8.03v4.02m0 8.03v4.02m0 8.03v4.02m0 8.03v4.02m0 8.03v4.02m0 8.03v4.02m0 8.03v4.02m0 8.03v4.02m0 8.03v4.02m0 8.03v4.02m0 8.03v4.02m0 8.03v4.02m0 8.03v4.02m0 8.03v4.02m0 8.03V992m0 8.03v4.02m0 8.03v4.02m0 8.03v4.02m0 8.03v4.02m0 8.03v4.02m0 8.03v4.02m0 8.03v4.02m0 8.03v4.02m0 8.03v4.02m0 8.03v4m0 8.05v4m0 8.05v4m0 8.05v4m0 8.05v4m0 8.05v4m0 8.05v4m0 8.05v4m0 8.05v4m0 8.05v4m0 8.05v4m0 8.05v4m0 8.05v4m0 8.05v4m0 8.05v4m0 8.05v2" stroke="#5e5e5e" stroke-width="2" fill="none"/><path d="M1311 387.53h-2v-1.03h2zM1311 1292.23h-2v-1.02h2z" fill="#5e5e5e"/><path d="M740 382.5v2m0 8.03v4.02m0 8.02v4.02m0 8v4.02m0 8.03v4m0 8.04v4m0 8.03v4m0 8.04v4m0 8.04v4.02m0 8.03v4m0 8.04v4m0 8.03v4m0 8.04v4m0 8.04v4.02m0 8.03v4m0 8.04v4m0 8.02v4.02m0 8.02v4.02m0 8.02v4.02m0 8.02v4.02m0 8.02v4.02m0 8.02v4.02m0 8.02v4m0 8.04v4m0 8.04v4m0 8.04v4m0 8.04v4m0 8.04v4m0 8.04v4m0 8.04v4m0 8.04v4m0 8.04v4m0 8.04v4m0 8.04v4m0 8.04v4m0 8.03v4.02m0 8v4.03m0 8.02v4.02m0 8.02v4m0 8.03v4.02m0 8.02v4.02m0 8v4.02m0 8.03v4m0 8.04v4m0 8.03v4m0 8.04v4m0 8.04v4.02m0 8.03v4m0 8.04v4m0 8.03v4m0 8.04v4m0 8.04v4.02m0 8.03v4m0 8.04v4m0 8.02v4.02m0 8.02v4.02m0 8.02v4.02m0 8.02v4.02m0 8.02v4.02m0 8.02v4m0 8.04v4m0 8.04v4m0 8.04v4m0 8.04v4m0 8.04v4m0 8.04v4m0 8.04v4m0 8.04v4m0 8.04v4m0 8.04v4m0 8.04v4m0 8.04v4m0 8.03v4.02m0 8.02v4.02m0 8v4.03m0 8.02v4.02m0 8.02v2" stroke="#5e5e5e" stroke-width="2" fill="none"/><path d="M741 382.53h-2v-1.03h2zM741 1298.5h-2v-1.03h2z" fill="#5e5e5e"/><defs><path fill="#333" d="M205 0l-28-72H64L36 0H1l101-248h38L239 0h-34zm-38-99l-47-123c-12 45-31 82-46 123h93" id="aa"/><path fill="#333" d="M85-194c31 0 48 13 60 33l-1-100h32l1 261h-30c-2-10 0-23-3-31C134-8 116 4 85 4 32 4 16-35 15-94c0-66 23-100 70-100zm9 24c-40 0-46 34-46 75 0 40 6 74 45 74 42 0 51-32 51-76 0-42-9-74-50-73" id="ab"/><path fill="#333" d="M210-169c-67 3-38 105-44 169h-31v-121c0-29-5-50-35-48C34-165 62-65 56 0H25l-1-190h30c1 10-1 24 2 32 10-44 99-50 107 0 11-21 27-35 58-36 85-2 47 119 55 194h-31v-121c0-29-5-49-35-48" id="ac"/><path fill="#333" d="M24-231v-30h32v30H24zM24 0v-190h32V0H24" id="ad"/><path fill="#333" d="M117-194c89-4 53 116 60 194h-32v-121c0-31-8-49-39-48C34-167 62-67 57 0H25l-1-190h30c1 10-1 24 2 32 11-22 29-35 61-36" id="ae"/><path fill="#333" d="M135-143c-3-34-86-38-87 0 15 53 115 12 119 90S17 21 10-45l28-5c4 36 97 45 98 0-10-56-113-15-118-90-4-57 82-63 122-42 12 7 21 19 24 35" id="af"/><path fill="#333" d="M59-47c-2 24 18 29 38 22v24C64 9 27 4 27-40v-127H5v-23h24l9-43h21v43h35v23H59v120" id="ag"/><path fill="#333" d="M114-163C36-179 61-72 57 0H25l-1-190h30c1 12-1 29 2 39 6-27 23-49 58-41v29" id="ah"/><path fill="#333" d="M141-36C126-15 110 5 73 4 37 3 15-17 15-53c-1-64 63-63 125-63 3-35-9-54-41-54-24 1-41 7-42 31l-33-3c5-37 33-52 76-52 45 0 72 20 72 64v82c-1 20 7 32 28 27v20c-31 9-61-2-59-35zM48-53c0 20 12 33 32 33 41-3 63-29 60-74-43 2-92-5-92 41" id="ai"/><path fill="#333" d="M100-194c62-1 85 37 85 99 1 63-27 99-86 99S16-35 15-95c0-66 28-99 85-99zM99-20c44 1 53-31 53-75 0-43-8-75-51-75s-53 32-53 75 10 74 51 75" id="aj"/><g id="a"><use transform="matrix(0.06172839506172839,0,0,0.06172839506172839,0,0)" xlink:href="#aa"/><use transform="matrix(0.06172839506172839,0,0,0.06172839506172839,14.814814814814813,0)" xlink:href="#ab"/><use transform="matrix(0.06172839506172839,0,0,0.06172839506172839,27.160493827160494,0)" xlink:href="#ac"/><use transform="matrix(0.06172839506172839,0,0,0.06172839506172839,45.61728395061728,0)" xlink:href="#ad"/><use transform="matrix(0.06172839506172839,0,0,0.06172839506172839,50.49382716049382,0)" xlink:href="#ae"/><use transform="matrix(0.06172839506172839,0,0,0.06172839506172839,62.8395061728395,0)" xlink:href="#ad"/><use transform="matrix(0.06172839506172839,0,0,0.06172839506172839,67.71604938271604,0)" xlink:href="#af"/><use transform="matrix(0.06172839506172839,0,0,0.06172839506172839,78.82716049382715,0)" xlink:href="#ag"/><use transform="matrix(0.06172839506172839,0,0,0.06172839506172839,84.99999999999999,0)" xlink:href="#ah"/><use transform="matrix(0.06172839506172839,0,0,0.06172839506172839,92.34567901234567,0)" xlink:href="#ai"/><use transform="matrix(0.06172839506172839,0,0,0.06172839506172839,104.69135802469135,0)" xlink:href="#ab"/><use transform="matrix(0.06172839506172839,0,0,0.06172839506172839,117.03703703703704,0)" xlink:href="#aj"/><use transform="matrix(0.06172839506172839,0,0,0.06172839506172839,129.3827160493827,0)" xlink:href="#ah"/></g><path fill="#333" d="M23 0v-37h61v-169l-59 37v-38l62-41h46v211h57V0H23" id="ak"/><path fill="#333" d="M35-132v-50h50v50H35zM35 0v-49h50V0H35" id="al"/><g id="b"><use transform="matrix(0.04938271604938272,0,0,0.04938271604938272,0,0)" xlink:href="#ak"/><use transform="matrix(0.04938271604938272,0,0,0.04938271604938272,9.876543209876544,0)" xlink:href="#al"/></g><path fill="#333" d="M137-138c1-29-70-34-71-4 15 46 118 7 119 86 1 83-164 76-172 9l43-7c4 19 20 25 44 25 33 8 57-30 24-41C81-84 22-81 20-136c-2-80 154-74 161-7" id="am"/><path fill="#333" d="M115-3C79 11 28 4 28-45v-112H4v-33h27l15-45h31v45h36v33H77v99c-1 23 16 31 38 25v30" id="an"/><path fill="#333" d="M133-34C117-15 103 5 69 4 32 3 11-16 11-54c-1-60 55-63 116-61 1-26-3-47-28-47-18 1-26 9-28 27l-52-2c7-38 36-58 82-57s74 22 75 68l1 82c-1 14 12 18 25 15v27c-30 8-71 5-69-32zm-48 3c29 0 43-24 42-57-32 0-66-3-65 30 0 17 8 27 23 27" id="ao"/><path fill="#333" d="M135-150c-39-12-60 13-60 57V0H25l-1-190h47c2 13-1 29 3 40 6-28 27-53 61-41v41" id="ap"/><g id="c"><use transform="matrix(0.04938271604938272,0,0,0.04938271604938272,0,0)" xlink:href="#am"/><use transform="matrix(0.04938271604938272,0,0,0.04938271604938272,9.876543209876544,0)" xlink:href="#an"/><use transform="matrix(0.04938271604938272,0,0,0.04938271604938272,15.753086419753087,0)" xlink:href="#ao"/><use transform="matrix(0.04938271604938272,0,0,0.04938271604938272,25.629629629629633,0)" xlink:href="#ap"/><use transform="matrix(0.04938271604938272,0,0,0.04938271604938272,32.543209876543216,0)" xlink:href="#an"/></g><path fill="#333" d="M114-157C55-157 80-60 75 0H25v-261h50l-1 109c12-26 28-41 61-42 86-1 58 113 63 194h-50c-7-57 23-157-34-157" id="aq"/><path fill="#333" d="M185-48c-13 30-37 53-82 52C43 2 14-33 14-96s30-98 90-98c62 0 83 45 84 108H66c0 31 8 55 39 56 18 0 30-7 34-22zm-45-69c5-46-57-63-70-21-2 6-4 13-4 21h74" id="ar"/><g id="d"><use transform="matrix(0.04938271604938272,0,0,0.04938271604938272,0,0)" xlink:href="#an"/><use transform="matrix(0.04938271604938272,0,0,0.04938271604938272,5.8765432098765435,0)" xlink:href="#aq"/><use transform="matrix(0.04938271604938272,0,0,0.04938271604938272,16.691358024691358,0)" xlink:href="#ar"/></g><path fill="#333" d="M135-194c53 0 70 44 70 98 0 56-19 98-73 100-31 1-45-17-59-34 3 33 2 69 2 105H25l-1-265h48c2 10 0 23 3 31 11-24 29-35 60-35zM114-30c33 0 39-31 40-66 0-38-9-64-40-64-56 0-55 130 0 130" id="as"/><path fill="#333" d="M190-63c-7 42-38 67-86 67-59 0-84-38-90-98-12-110 154-137 174-36l-49 2c-2-19-15-32-35-32-30 0-35 28-38 64-6 74 65 87 74 30" id="at"/><path fill="#333" d="M25-224v-37h50v37H25zM25 0v-190h50V0H25" id="au"/><path fill="#333" d="M121-226c-27-7-43 5-38 36h38v33H83V0H34v-157H6v-33h28c-9-59 32-81 87-68v32" id="av"/><path fill="#333" d="M110-194c64 0 96 36 96 99 0 64-35 99-97 99-61 0-95-36-95-99 0-62 34-99 96-99zm-1 164c35 0 45-28 45-65 0-40-10-65-43-65-34 0-45 26-45 65 0 36 10 65 43 65" id="aw"/><path fill="#333" d="M135-194c87-1 58 113 63 194h-50c-7-57 23-157-34-157-59 0-34 97-39 157H25l-1-190h47c2 12-1 28 3 38 12-26 28-41 61-42" id="ax"/><g id="e"><use transform="matrix(0.04938271604938272,0,0,0.04938271604938272,0,0)" xlink:href="#am"/><use transform="matrix(0.04938271604938272,0,0,0.04938271604938272,9.876543209876544,0)" xlink:href="#as"/><use transform="matrix(0.04938271604938272,0,0,0.04938271604938272,20.69135802469136,0)" xlink:href="#ar"/><use transform="matrix(0.04938271604938272,0,0,0.04938271604938272,30.567901234567906,0)" xlink:href="#at"/><use transform="matrix(0.04938271604938272,0,0,0.04938271604938272,40.44444444444445,0)" xlink:href="#au"/><use transform="matrix(0.04938271604938272,0,0,0.04938271604938272,45.38271604938272,0)" xlink:href="#av"/><use transform="matrix(0.04938271604938272,0,0,0.04938271604938272,51.25925925925927,0)" xlink:href="#au"/><use transform="matrix(0.04938271604938272,0,0,0.04938271604938272,56.19753086419754,0)" xlink:href="#at"/><use transform="matrix(0.04938271604938272,0,0,0.04938271604938272,66.07407407407408,0)" xlink:href="#ao"/><use transform="matrix(0.04938271604938272,0,0,0.04938271604938272,75.95061728395062,0)" xlink:href="#an"/><use transform="matrix(0.04938271604938272,0,0,0.04938271604938272,81.82716049382717,0)" xlink:href="#au"/><use transform="matrix(0.04938271604938272,0,0,0.04938271604938272,86.76543209876544,0)" xlink:href="#aw"/><use transform="matrix(0.04938271604938272,0,0,0.04938271604938272,97.58024691358025,0)" xlink:href="#ax"/></g><g id="f"><use transform="matrix(0.04938271604938272,0,0,0.04938271604938272,0,0)" xlink:href="#aw"/><use transform="matrix(0.04938271604938272,0,0,0.04938271604938272,10.814814814814815,0)" xlink:href="#av"/></g><use transform="matrix(0.04938271604938272,0,0,0.04938271604938272,0,0)" xlink:href="#ao" id="g"/><path fill="#333" d="M231 0h-52l-39-155L100 0H48L-1-190h46L77-45c9-52 24-97 36-145h53l37 145 32-145h46" id="ay"/><g id="h"><use transform="matrix(0.04938271604938272,0,0,0.04938271604938272,0,0)" xlink:href="#ax"/><use transform="matrix(0.04938271604938272,0,0,0.04938271604938272,10.814814814814815,0)" xlink:href="#ar"/><use transform="matrix(0.04938271604938272,0,0,0.04938271604938272,20.69135802469136,0)" xlink:href="#ay"/></g><path fill="#333" d="M123 10C108 53 80 86 19 72V37c35 8 53-11 59-39L3-190h52l48 148c12-52 28-100 44-148h51" id="az"/><g id="i"><use transform="matrix(0.04938271604938272,0,0,0.04938271604938272,0,0)" xlink:href="#an"/><use transform="matrix(0.04938271604938272,0,0,0.04938271604938272,5.8765432098765435,0)" xlink:href="#az"/><use transform="matrix(0.04938271604938272,0,0,0.04938271604938272,15.753086419753087,0)" xlink:href="#as"/><use transform="matrix(0.04938271604938272,0,0,0.04938271604938272,26.567901234567902,0)" xlink:href="#ar"/></g><g id="j"><use transform="matrix(0.04938271604938272,0,0,0.04938271604938272,0,0)" xlink:href="#an"/><use transform="matrix(0.04938271604938272,0,0,0.04938271604938272,5.8765432098765435,0)" xlink:href="#ar"/><use transform="matrix(0.04938271604938272,0,0,0.04938271604938272,15.753086419753087,0)" xlink:href="#am"/><use transform="matrix(0.04938271604938272,0,0,0.04938271604938272,25.629629629629633,0)" xlink:href="#an"/></g><path d="M212-179c-10-28-35-45-73-45-59 0-87 40-87 99 0 60 29 101 89 101 43 0 62-24 78-52l27 14C228-24 195 4 139 4 59 4 22-46 18-125c-6-104 99-153 187-111 19 9 31 26 39 46" id="aA"/><path d="M114-163C36-179 61-72 57 0H25l-1-190h30c1 12-1 29 2 39 6-27 23-49 58-41v29" id="aB"/><path d="M100-194c63 0 86 42 84 106H49c0 40 14 67 53 68 26 1 43-12 49-29l28 8c-11 28-37 45-77 45C44 4 14-33 15-96c1-61 26-98 85-98zm52 81c6-60-76-77-97-28-3 7-6 17-6 28h103" id="aC"/><path d="M141-36C126-15 110 5 73 4 37 3 15-17 15-53c-1-64 63-63 125-63 3-35-9-54-41-54-24 1-41 7-42 31l-33-3c5-37 33-52 76-52 45 0 72 20 72 64v82c-1 20 7 32 28 27v20c-31 9-61-2-59-35zM48-53c0 20 12 33 32 33 41-3 63-29 60-74-43 2-92-5-92 41" id="aD"/><path d="M59-47c-2 24 18 29 38 22v24C64 9 27 4 27-40v-127H5v-23h24l9-43h21v43h35v23H59v120" id="aE"/><path d="M127-220V0H93v-220H8v-28h204v28h-85" id="aF"/><path d="M179-190L93 31C79 59 56 82 12 73V49c39 6 53-20 64-50L1-190h34L92-34l54-156h33" id="aG"/><path d="M115-194c55 1 70 41 70 98S169 2 115 4C84 4 66-9 55-30l1 105H24l-1-265h31l2 30c10-21 28-34 59-34zm-8 174c40 0 45-34 45-75s-6-73-45-74c-42 0-51 32-51 76 0 43 10 73 51 73" id="aH"/><path d="M135-143c-3-34-86-38-87 0 15 53 115 12 119 90S17 21 10-45l28-5c4 36 97 45 98 0-10-56-113-15-118-90-4-57 82-63 122-42 12 7 21 19 24 35" id="aI"/><path d="M100-194c62-1 85 37 85 99 1 63-27 99-86 99S16-35 15-95c0-66 28-99 85-99zM99-20c44 1 53-31 53-75 0-43-8-75-51-75s-53 32-53 75 10 74 51 75" id="aJ"/><path d="M117-194c89-4 53 116 60 194h-32v-121c0-31-8-49-39-48C34-167 62-67 57 0H25l-1-190h30c1 10-1 24 2 32 11-22 29-35 61-36" id="aK"/><path d="M24 0v-261h32V0H24" id="aL"/><g id="k"><use transform="matrix(0.06296296296296294,0,0,0.06296296296296294,0,0)" xlink:href="#aA"/><use transform="matrix(0.06296296296296294,0,0,0.06296296296296294,16.307407407407403,0)" xlink:href="#aB"/><use transform="matrix(0.06296296296296294,0,0,0.06296296296296294,23.799999999999994,0)" xlink:href="#aC"/><use transform="matrix(0.06296296296296294,0,0,0.06296296296296294,36.39259259259258,0)" xlink:href="#aD"/><use transform="matrix(0.06296296296296294,0,0,0.06296296296296294,48.985185185185166,0)" xlink:href="#aE"/><use transform="matrix(0.06296296296296294,0,0,0.06296296296296294,55.281481481481464,0)" xlink:href="#aC"/><use transform="matrix(0.06296296296296294,0,0,0.06296296296296294,67.87407407407406,0)" xlink:href="#aF"/><use transform="matrix(0.06296296296296294,0,0,0.06296296296296294,80.40370370370368,0)" xlink:href="#aG"/><use transform="matrix(0.06296296296296294,0,0,0.06296296296296294,91.73703703703701,0)" xlink:href="#aH"/><use transform="matrix(0.06296296296296294,0,0,0.06296296296296294,104.32962962962961,0)" xlink:href="#aC"/><use transform="matrix(0.06296296296296294,0,0,0.06296296296296294,116.92222222222219,0)" xlink:href="#aF"/><use transform="matrix(0.06296296296296294,0,0,0.06296296296296294,128.19259259259255,0)" xlink:href="#aC"/><use transform="matrix(0.06296296296296294,0,0,0.06296296296296294,140.78518518518513,0)" xlink:href="#aI"/><use transform="matrix(0.06296296296296294,0,0,0.06296296296296294,152.11851851851847,0)" xlink:href="#aE"/><use transform="matrix(0.06296296296296294,0,0,0.06296296296296294,158.41481481481478,0)" xlink:href="#aA"/><use transform="matrix(0.06296296296296294,0,0,0.06296296296296294,174.72222222222217,0)" xlink:href="#aJ"/><use transform="matrix(0.06296296296296294,0,0,0.06296296296296294,187.31481481481475,0)" xlink:href="#aK"/><use transform="matrix(0.06296296296296294,0,0,0.06296296296296294,199.90740740740733,0)" xlink:href="#aE"/><use transform="matrix(0.06296296296296294,0,0,0.06296296296296294,206.20370370370364,0)" xlink:href="#aB"/><use transform="matrix(0.06296296296296294,0,0,0.06296296296296294,213.69629629629623,0)" xlink:href="#aJ"/><use transform="matrix(0.06296296296296294,0,0,0.06296296296296294,226.2888888888888,0)" xlink:href="#aL"/><use transform="matrix(0.06296296296296294,0,0,0.06296296296296294,231.2629629629629,0)" xlink:href="#aL"/><use transform="matrix(0.06296296296296294,0,0,0.06296296296296294,236.23703703703697,0)" xlink:href="#aC"/><use transform="matrix(0.06296296296296294,0,0,0.06296296296296294,248.82962962962955,0)" xlink:href="#aB"/></g><path fill="#333" d="M128-127c34 4 56 21 59 58 7 91-148 94-172 28-4-9-6-17-7-26l51-5c1 24 16 35 40 36 23 0 39-12 38-36-1-31-31-36-65-34v-40c32 2 59-3 59-33 0-20-13-33-34-33s-33 13-35 32l-50-3c6-44 37-68 86-68 50 0 83 20 83 66 0 35-22 52-53 58" id="aM"/><g id="l"><use transform="matrix(0.04938271604938272,0,0,0.04938271604938272,0,0)" xlink:href="#aM"/><use transform="matrix(0.04938271604938272,0,0,0.04938271604938272,9.876543209876544,0)" xlink:href="#al"/></g><g id="m"><use transform="matrix(0.04938271604938272,0,0,0.04938271604938272,0,0)" xlink:href="#an"/><use transform="matrix(0.04938271604938272,0,0,0.04938271604938272,5.8765432098765435,0)" xlink:href="#az"/><use transform="matrix(0.04938271604938272,0,0,0.04938271604938272,15.753086419753087,0)" xlink:href="#as"/><use transform="matrix(0.04938271604938272,0,0,0.04938271604938272,26.567901234567902,0)" xlink:href="#ar"/></g><path fill="#333" d="M84 4C32 4 15-41 15-95c0-55 18-99 73-99 29 0 47 12 58 34l2-30h48l-1 265h-49V-32C136-9 114 4 84 4zm21-34c32 0 41-29 41-66 0-36-9-64-40-64-33 0-39 30-40 65 0 43 13 65 39 65" id="aN"/><path fill="#333" d="M85 4C-2 5 27-109 22-190h50c7 57-23 150 33 157 60-5 35-97 40-157h50l1 190h-47c-2-12 1-28-3-38-12 25-28 42-61 42" id="aO"/><path fill="#333" d="M88-194c31-1 46 15 58 34l-1-101h50l1 261h-48c-2-10 0-23-3-31C134-8 116 4 84 4 32 4 16-41 15-95c0-56 19-97 73-99zm17 164c33 0 40-30 41-66 1-37-9-64-41-64s-38 30-39 65c0 43 13 65 39 65" id="aP"/><g id="n"><use transform="matrix(0.04938271604938272,0,0,0.04938271604938272,0,0)" xlink:href="#ap"/><use transform="matrix(0.04938271604938272,0,0,0.04938271604938272,6.913580246913581,0)" xlink:href="#ar"/><use transform="matrix(0.04938271604938272,0,0,0.04938271604938272,16.790123456790127,0)" xlink:href="#aN"/><use transform="matrix(0.04938271604938272,0,0,0.04938271604938272,27.604938271604947,0)" xlink:href="#aO"/><use transform="matrix(0.04938271604938272,0,0,0.04938271604938272,38.41975308641976,0)" xlink:href="#ar"/><use transform="matrix(0.04938271604938272,0,0,0.04938271604938272,48.296296296296305,0)" xlink:href="#am"/><use transform="matrix(0.04938271604938272,0,0,0.04938271604938272,58.17283950617284,0)" xlink:href="#an"/><use transform="matrix(0.04938271604938272,0,0,0.04938271604938272,64.0493827160494,0)" xlink:href="#ar"/><use transform="matrix(0.04938271604938272,0,0,0.04938271604938272,73.92592592592594,0)" xlink:href="#aP"/></g><g id="o"><use transform="matrix(0.04938271604938272,0,0,0.04938271604938272,0,0)" xlink:href="#aP"/><use transform="matrix(0.04938271604938272,0,0,0.04938271604938272,10.814814814814815,0)" xlink:href="#ao"/><use transform="matrix(0.04938271604938272,0,0,0.04938271604938272,20.69135802469136,0)" xlink:href="#an"/><use transform="matrix(0.04938271604938272,0,0,0.04938271604938272,26.567901234567902,0)" xlink:href="#ao"/></g><path d="M232-93c-1 65-40 97-104 97C67 4 28-28 28-90v-158h33c8 89-33 224 67 224 102 0 64-133 71-224h33v155" id="aQ"/><path d="M33 0v-248h34V0H33" id="aR"/><g id="p"><use transform="matrix(0.06296296296296294,0,0,0.06296296296296294,0,0)" xlink:href="#aA"/><use transform="matrix(0.06296296296296294,0,0,0.06296296296296294,16.307407407407403,0)" xlink:href="#aB"/><use transform="matrix(0.06296296296296294,0,0,0.06296296296296294,23.799999999999994,0)" xlink:href="#aC"/><use transform="matrix(0.06296296296296294,0,0,0.06296296296296294,36.39259259259258,0)" xlink:href="#aD"/><use transform="matrix(0.06296296296296294,0,0,0.06296296296296294,48.985185185185166,0)" xlink:href="#aE"/><use transform="matrix(0.06296296296296294,0,0,0.06296296296296294,55.281481481481464,0)" xlink:href="#aC"/><use transform="matrix(0.06296296296296294,0,0,0.06296296296296294,67.87407407407406,0)" xlink:href="#aF"/><use transform="matrix(0.06296296296296294,0,0,0.06296296296296294,80.40370370370368,0)" xlink:href="#aG"/><use transform="matrix(0.06296296296296294,0,0,0.06296296296296294,91.73703703703701,0)" xlink:href="#aH"/><use transform="matrix(0.06296296296296294,0,0,0.06296296296296294,104.32962962962961,0)" xlink:href="#aC"/><use transform="matrix(0.06296296296296294,0,0,0.06296296296296294,116.92222222222219,0)" xlink:href="#aF"/><use transform="matrix(0.06296296296296294,0,0,0.06296296296296294,128.19259259259255,0)" xlink:href="#aC"/><use transform="matrix(0.06296296296296294,0,0,0.06296296296296294,140.78518518518513,0)" xlink:href="#aI"/><use transform="matrix(0.06296296296296294,0,0,0.06296296296296294,152.11851851851847,0)" xlink:href="#aE"/><use transform="matrix(0.06296296296296294,0,0,0.06296296296296294,158.41481481481478,0)" xlink:href="#aQ"/><use transform="matrix(0.06296296296296294,0,0,0.06296296296296294,174.72222222222217,0)" xlink:href="#aR"/></g><path fill="#333" d="M165-50V0h-47v-50H5v-38l105-160h55v161h33v37h-33zm-47-37l2-116L46-87h72" id="aS"/><g id="q"><use transform="matrix(0.04938271604938272,0,0,0.04938271604938272,0,0)" xlink:href="#aS"/><use transform="matrix(0.04938271604938272,0,0,0.04938271604938272,9.876543209876544,0)" xlink:href="#al"/></g><path fill="#333" d="M195-6C206 82 75 100 31 46c-4-6-6-13-8-21l49-6c3 16 16 24 34 25 40 0 42-37 40-79-11 22-30 35-61 35-53 0-70-43-70-97 0-56 18-96 73-97 30 0 46 14 59 34l2-30h47zm-90-29c32 0 41-27 41-63 0-35-9-62-40-62-32 0-39 29-40 63 0 36 9 62 39 62" id="aT"/><path fill="#333" d="M136-208V0H84v-208H4v-40h212v40h-80" id="aU"/><path fill="#333" d="M67-93c0 74 22 123 53 168H70C40 30 18-18 18-93s22-123 52-168h50c-32 44-53 94-53 168" id="aV"/><path fill="#333" d="M76-54c-1 42 2 86-19 110H24C36 42 46 24 48 0H25v-54h51" id="aW"/><g id="r"><use transform="matrix(0.04938271604938272,0,0,0.04938271604938272,0,0)" xlink:href="#ap"/><use transform="matrix(0.04938271604938272,0,0,0.04938271604938272,6.913580246913581,0)" xlink:href="#ar"/><use transform="matrix(0.04938271604938272,0,0,0.04938271604938272,16.790123456790127,0)" xlink:href="#aT"/><use transform="matrix(0.04938271604938272,0,0,0.04938271604938272,27.604938271604947,0)" xlink:href="#au"/><use transform="matrix(0.04938271604938272,0,0,0.04938271604938272,32.543209876543216,0)" xlink:href="#am"/><use transform="matrix(0.04938271604938272,0,0,0.04938271604938272,42.41975308641976,0)" xlink:href="#an"/><use transform="matrix(0.04938271604938272,0,0,0.04938271604938272,48.296296296296305,0)" xlink:href="#ar"/><use transform="matrix(0.04938271604938272,0,0,0.04938271604938272,58.17283950617284,0)" xlink:href="#ap"/><use transform="matrix(0.04938271604938272,0,0,0.04938271604938272,65.08641975308643,0)" xlink:href="#aU"/><use transform="matrix(0.04938271604938272,0,0,0.04938271604938272,74.56790123456791,0)" xlink:href="#az"/><use transform="matrix(0.04938271604938272,0,0,0.04938271604938272,84.44444444444446,0)" xlink:href="#as"/><use transform="matrix(0.04938271604938272,0,0,0.04938271604938272,95.25925925925927,0)" xlink:href="#ar"/><use transform="matrix(0.04938271604938272,0,0,0.04938271604938272,105.13580246913581,0)" xlink:href="#aU"/><use transform="matrix(0.04938271604938272,0,0,0.04938271604938272,114.61728395061729,0)" xlink:href="#ar"/><use transform="matrix(0.04938271604938272,0,0,0.04938271604938272,124.49382716049384,0)" xlink:href="#am"/><use transform="matrix(0.04938271604938272,0,0,0.04938271604938272,134.37037037037038,0)" xlink:href="#an"/><use transform="matrix(0.04938271604938272,0,0,0.04938271604938272,140.2469135802469,0)" xlink:href="#aV"/><use transform="matrix(0.04938271604938272,0,0,0.04938271604938272,146.12345679012344,0)" xlink:href="#at"/><use transform="matrix(0.04938271604938272,0,0,0.04938271604938272,156,0)" xlink:href="#aw"/><use transform="matrix(0.04938271604938272,0,0,0.04938271604938272,166.8148148148148,0)" xlink:href="#aP"/><use transform="matrix(0.04938271604938272,0,0,0.04938271604938272,177.62962962962962,0)" xlink:href="#ar"/><use transform="matrix(0.04938271604938272,0,0,0.04938271604938272,187.50617283950618,0)" xlink:href="#aW"/></g><g id="s"><use transform="matrix(0.04938271604938272,0,0,0.04938271604938272,0,0)" xlink:href="#aP"/><use transform="matrix(0.04938271604938272,0,0,0.04938271604938272,10.814814814814815,0)" xlink:href="#ar"/><use transform="matrix(0.04938271604938272,0,0,0.04938271604938272,20.69135802469136,0)" xlink:href="#am"/><use transform="matrix(0.04938271604938272,0,0,0.04938271604938272,30.567901234567906,0)" xlink:href="#at"/><use transform="matrix(0.04938271604938272,0,0,0.04938271604938272,40.44444444444445,0)" xlink:href="#ap"/><use transform="matrix(0.04938271604938272,0,0,0.04938271604938272,47.35802469135803,0)" xlink:href="#au"/><use transform="matrix(0.04938271604938272,0,0,0.04938271604938272,52.2962962962963,0)" xlink:href="#as"/><use transform="matrix(0.04938271604938272,0,0,0.04938271604938272,63.111111111111114,0)" xlink:href="#an"/><use transform="matrix(0.04938271604938272,0,0,0.04938271604938272,68.98765432098766,0)" xlink:href="#au"/><use transform="matrix(0.04938271604938272,0,0,0.04938271604938272,73.92592592592592,0)" xlink:href="#aw"/><use transform="matrix(0.04938271604938272,0,0,0.04938271604938272,84.74074074074073,0)" xlink:href="#ax"/><use transform="matrix(0.04938271604938272,0,0,0.04938271604938272,95.55555555555554,0)" xlink:href="#aW"/></g><path fill="#333" d="M25 0v-261h50V0H25" id="aX"/><g id="t"><use transform="matrix(0.04938271604938272,0,0,0.04938271604938272,0,0)" xlink:href="#at"/><use transform="matrix(0.04938271604938272,0,0,0.04938271604938272,9.876543209876544,0)" xlink:href="#aw"/><use transform="matrix(0.04938271604938272,0,0,0.04938271604938272,20.69135802469136,0)" xlink:href="#aX"/><use transform="matrix(0.04938271604938272,0,0,0.04938271604938272,25.629629629629633,0)" xlink:href="#aX"/><use transform="matrix(0.04938271604938272,0,0,0.04938271604938272,30.567901234567906,0)" xlink:href="#ar"/><use transform="matrix(0.04938271604938272,0,0,0.04938271604938272,40.44444444444445,0)" xlink:href="#at"/><use transform="matrix(0.04938271604938272,0,0,0.04938271604938272,50.320987654320994,0)" xlink:href="#an"/><use transform="matrix(0.04938271604938272,0,0,0.04938271604938272,56.19753086419754,0)" xlink:href="#au"/><use transform="matrix(0.04938271604938272,0,0,0.04938271604938272,61.13580246913581,0)" xlink:href="#ax"/><use transform="matrix(0.04938271604938272,0,0,0.04938271604938272,71.95061728395062,0)" xlink:href="#aT"/></g><path fill="#333" d="M220-157c-53 9-28 100-34 157h-49v-107c1-27-5-49-29-50C55-147 81-57 75 0H25l-1-190h47c2 12-1 28 3 38 10-53 101-56 108 0 13-22 24-43 59-42 82 1 51 116 57 194h-49v-107c-1-25-5-48-29-50" id="aY"/><path fill="#333" d="M102-93c0 74-22 123-52 168H0C30 29 54-18 53-93c0-74-22-123-53-168h50c30 45 52 94 52 168" id="aZ"/><g id="u"><use transform="matrix(0.04938271604938272,0,0,0.04938271604938272,0,0)" xlink:href="#aY"/><use transform="matrix(0.04938271604938272,0,0,0.04938271604938272,15.80246913580247,0)" xlink:href="#ar"/><use transform="matrix(0.04938271604938272,0,0,0.04938271604938272,25.679012345679016,0)" xlink:href="#an"/><use transform="matrix(0.04938271604938272,0,0,0.04938271604938272,31.555555555555557,0)" xlink:href="#aq"/><use transform="matrix(0.04938271604938272,0,0,0.04938271604938272,42.370370370370374,0)" xlink:href="#aw"/><use transform="matrix(0.04938271604938272,0,0,0.04938271604938272,53.18518518518519,0)" xlink:href="#aP"/><use transform="matrix(0.04938271604938272,0,0,0.04938271604938272,64,0)" xlink:href="#am"/><use transform="matrix(0.04938271604938272,0,0,0.04938271604938272,73.87654320987654,0)" xlink:href="#aZ"/></g><path fill="#333" d="M182-182c0 78-84 86-111 141h115V0H12c-6-101 99-100 120-180 1-22-12-31-33-32-23 0-32 14-35 34l-49-3c5-45 32-70 84-70 51 0 83 22 83 69" id="ba"/><g id="v"><use transform="matrix(0.04938271604938272,0,0,0.04938271604938272,0,0)" xlink:href="#ba"/><use transform="matrix(0.04938271604938272,0,0,0.04938271604938272,9.876543209876544,0)" xlink:href="#al"/></g><g id="w"><use transform="matrix(0.04938271604938272,0,0,0.04938271604938272,0,0)" xlink:href="#ap"/><use transform="matrix(0.04938271604938272,0,0,0.04938271604938272,6.913580246913581,0)" xlink:href="#ar"/><use transform="matrix(0.04938271604938272,0,0,0.04938271604938272,16.790123456790127,0)" xlink:href="#aN"/><use transform="matrix(0.04938271604938272,0,0,0.04938271604938272,27.604938271604947,0)" xlink:href="#aO"/><use transform="matrix(0.04938271604938272,0,0,0.04938271604938272,38.41975308641976,0)" xlink:href="#ar"/><use transform="matrix(0.04938271604938272,0,0,0.04938271604938272,48.296296296296305,0)" xlink:href="#am"/><use transform="matrix(0.04938271604938272,0,0,0.04938271604938272,58.17283950617284,0)" xlink:href="#an"/></g><g id="x"><use transform="matrix(0.04938271604938272,0,0,0.04938271604938272,0,0)" xlink:href="#aP"/><use transform="matrix(0.04938271604938272,0,0,0.04938271604938272,10.814814814814815,0)" xlink:href="#ao"/><use transform="matrix(0.04938271604938272,0,0,0.04938271604938272,20.69135802469136,0)" xlink:href="#an"/><use transform="matrix(0.04938271604938272,0,0,0.04938271604938272,26.567901234567902,0)" xlink:href="#ao"/></g><g id="y"><use transform="matrix(0.04938271604938272,0,0,0.04938271604938272,0,0)" xlink:href="#aV"/><use transform="matrix(0.04938271604938272,0,0,0.04938271604938272,5.8765432098765435,0)" xlink:href="#at"/><use transform="matrix(0.04938271604938272,0,0,0.04938271604938272,15.753086419753087,0)" xlink:href="#aw"/><use transform="matrix(0.04938271604938272,0,0,0.04938271604938272,26.567901234567902,0)" xlink:href="#aP"/><use transform="matrix(0.04938271604938272,0,0,0.04938271604938272,37.38271604938272,0)" xlink:href="#ar"/></g><g id="z"><use transform="matrix(0.04938271604938272,0,0,0.04938271604938272,0,0)" xlink:href="#aW"/><use transform="matrix(0.04938271604938272,0,0,0.04938271604938272,4.938271604938272,0)" xlink:href="#aP"/><use transform="matrix(0.04938271604938272,0,0,0.04938271604938272,15.753086419753087,0)" xlink:href="#ar"/><use transform="matrix(0.04938271604938272,0,0,0.04938271604938272,25.629629629629633,0)" xlink:href="#am"/><use transform="matrix(0.04938271604938272,0,0,0.04938271604938272,35.50617283950618,0)" xlink:href="#at"/><use transform="matrix(0.04938271604938272,0,0,0.04938271604938272,45.38271604938272,0)" xlink:href="#ap"/><use transform="matrix(0.04938271604938272,0,0,0.04938271604938272,52.2962962962963,0)" xlink:href="#au"/><use transform="matrix(0.04938271604938272,0,0,0.04938271604938272,57.23456790123457,0)" xlink:href="#as"/><use transform="matrix(0.04938271604938272,0,0,0.04938271604938272,68.0493827160494,0)" xlink:href="#an"/><use transform="matrix(0.04938271604938272,0,0,0.04938271604938272,73.92592592592594,0)" xlink:href="#au"/><use transform="matrix(0.04938271604938272,0,0,0.04938271604938272,78.8641975308642,0)" xlink:href="#aw"/><use transform="matrix(0.04938271604938272,0,0,0.04938271604938272,89.67901234567901,0)" xlink:href="#ax"/><use transform="matrix(0.04938271604938272,0,0,0.04938271604938272,100.49382716049382,0)" xlink:href="#aW"/></g><path d="M210-169c-67 3-38 105-44 169h-31v-121c0-29-5-50-35-48C34-165 62-65 56 0H25l-1-190h30c1 10-1 24 2 32 10-44 99-50 107 0 11-21 27-35 58-36 85-2 47 119 55 194h-31v-121c0-29-5-49-35-48" id="bb"/><g id="A"><use transform="matrix(0.06296296296296294,0,0,0.06296296296296294,0,0)" xlink:href="#aA"/><use transform="matrix(0.06296296296296294,0,0,0.06296296296296294,16.307407407407403,0)" xlink:href="#aJ"/><use transform="matrix(0.06296296296296294,0,0,0.06296296296296294,28.89999999999999,0)" xlink:href="#bb"/><use transform="matrix(0.06296296296296294,0,0,0.06296296296296294,47.72592592592591,0)" xlink:href="#aH"/><use transform="matrix(0.06296296296296294,0,0,0.06296296296296294,60.318518518518495,0)" xlink:href="#aD"/><use transform="matrix(0.06296296296296294,0,0,0.06296296296296294,72.91111111111108,0)" xlink:href="#aK"/><use transform="matrix(0.06296296296296294,0,0,0.06296296296296294,85.50370370370368,0)" xlink:href="#aG"/></g><g id="B"><use transform="matrix(0.06172839506172839,0,0,0.06172839506172839,0,0)" xlink:href="#ag"/><use transform="matrix(0.06172839506172839,0,0,0.06172839506172839,6.172839506172839,0)" xlink:href="#ag"/></g><path fill="#333" d="M18-150v-26h174v26H18zm0 90v-26h174v26H18" id="bc"/><path fill="#333" d="M127-220V0H93v-220H8v-28h204v28h-85" id="bd"/><path fill="#333" d="M179-190L93 31C79 59 56 82 12 73V49c39 6 53-20 64-50L1-190h34L92-34l54-156h33" id="be"/><path fill="#333" d="M115-194c55 1 70 41 70 98S169 2 115 4C84 4 66-9 55-30l1 105H24l-1-265h31l2 30c10-21 28-34 59-34zm-8 174c40 0 45-34 45-75s-6-73-45-74c-42 0-51 32-51 76 0 43 10 73 51 73" id="bf"/><path fill="#333" d="M100-194c63 0 86 42 84 106H49c0 40 14 67 53 68 26 1 43-12 49-29l28 8c-11 28-37 45-77 45C44 4 14-33 15-96c1-61 26-98 85-98zm52 81c6-60-76-77-97-28-3 7-6 17-6 28h103" id="bg"/><g id="C"><use transform="matrix(0.06172839506172839,0,0,0.06172839506172839,0,0)" xlink:href="#bc"/><use transform="matrix(0.06172839506172839,0,0,0.06172839506172839,12.962962962962962,0)" xlink:href="#bd"/><use transform="matrix(0.06172839506172839,0,0,0.06172839506172839,25.24691358024691,0)" xlink:href="#be"/><use transform="matrix(0.06172839506172839,0,0,0.06172839506172839,36.358024691358025,0)" xlink:href="#bf"/><use transform="matrix(0.06172839506172839,0,0,0.06172839506172839,48.7037037037037,0)" xlink:href="#bg"/></g><path fill="#333" d="M101-234c-31-9-42 10-38 44h38v23H63V0H32v-167H5v-23h27c-7-52 17-82 69-68v24" id="bh"/><g id="D"><use transform="matrix(0.06172839506172839,0,0,0.06172839506172839,0,0)" xlink:href="#aj"/><use transform="matrix(0.06172839506172839,0,0,0.06172839506172839,12.345679012345679,0)" xlink:href="#bh"/></g><g id="E"><use transform="matrix(0.06172839506172839,0,0,0.06172839506172839,0,0)" xlink:href="#bd"/><use transform="matrix(0.06172839506172839,0,0,0.06172839506172839,11.049382716049381,0)" xlink:href="#bg"/><use transform="matrix(0.06172839506172839,0,0,0.06172839506172839,23.39506172839506,0)" xlink:href="#af"/><use transform="matrix(0.06172839506172839,0,0,0.06172839506172839,34.50617283950617,0)" xlink:href="#ag"/></g><path fill="#333" d="M52 0c1-96 47-148 87-207H15v-41h169v40c-36 62-79 113-81 208H52" id="bi"/><g id="F"><use transform="matrix(0.04938271604938272,0,0,0.04938271604938272,0,0)" xlink:href="#bi"/><use transform="matrix(0.04938271604938272,0,0,0.04938271604938272,9.876543209876544,0)" xlink:href="#al"/></g><g id="G"><use transform="matrix(0.04938271604938272,0,0,0.04938271604938272,0,0)" xlink:href="#am"/><use transform="matrix(0.04938271604938272,0,0,0.04938271604938272,9.876543209876544,0)" xlink:href="#aq"/><use transform="matrix(0.04938271604938272,0,0,0.04938271604938272,20.69135802469136,0)" xlink:href="#aw"/><use transform="matrix(0.04938271604938272,0,0,0.04938271604938272,31.506172839506174,0)" xlink:href="#ay"/><use transform="matrix(0.04938271604938272,0,0,0.04938271604938272,45.33333333333334,0)" xlink:href="#am"/></g><g id="H"><use transform="matrix(0.04938271604938272,0,0,0.04938271604938272,0,0)" xlink:href="#ao"/><use transform="matrix(0.04938271604938272,0,0,0.04938271604938272,9.876543209876544,0)" xlink:href="#ax"/><use transform="matrix(0.04938271604938272,0,0,0.04938271604938272,20.69135802469136,0)" xlink:href="#aP"/></g><g id="I"><use transform="matrix(0.04938271604938272,0,0,0.04938271604938272,0,0)" xlink:href="#ap"/><use transform="matrix(0.04938271604938272,0,0,0.04938271604938272,6.913580246913581,0)" xlink:href="#ar"/><use transform="matrix(0.04938271604938272,0,0,0.04938271604938272,16.790123456790127,0)" xlink:href="#aN"/><use transform="matrix(0.04938271604938272,0,0,0.04938271604938272,27.604938271604947,0)" xlink:href="#aO"/><use transform="matrix(0.04938271604938272,0,0,0.04938271604938272,38.41975308641976,0)" xlink:href="#ar"/><use transform="matrix(0.04938271604938272,0,0,0.04938271604938272,48.296296296296305,0)" xlink:href="#am"/><use transform="matrix(0.04938271604938272,0,0,0.04938271604938272,58.17283950617284,0)" xlink:href="#an"/><use transform="matrix(0.04938271604938272,0,0,0.04938271604938272,64.0493827160494,0)" xlink:href="#am"/></g><g id="J"><use transform="matrix(0.04938271604938272,0,0,0.04938271604938272,0,0)" xlink:href="#at"/><use transform="matrix(0.04938271604938272,0,0,0.04938271604938272,9.876543209876544,0)" xlink:href="#aw"/><use transform="matrix(0.04938271604938272,0,0,0.04938271604938272,20.69135802469136,0)" xlink:href="#ax"/><use transform="matrix(0.04938271604938272,0,0,0.04938271604938272,31.506172839506174,0)" xlink:href="#av"/><use transform="matrix(0.04938271604938272,0,0,0.04938271604938272,37.38271604938272,0)" xlink:href="#au"/><use transform="matrix(0.04938271604938272,0,0,0.04938271604938272,42.320987654320994,0)" xlink:href="#ap"/><use transform="matrix(0.04938271604938272,0,0,0.04938271604938272,49.23456790123458,0)" xlink:href="#aY"/><use transform="matrix(0.04938271604938272,0,0,0.04938271604938272,65.03703703703705,0)" xlink:href="#ao"/><use transform="matrix(0.04938271604938272,0,0,0.04938271604938272,74.9135802469136,0)" xlink:href="#an"/><use transform="matrix(0.04938271604938272,0,0,0.04938271604938272,80.79012345679014,0)" xlink:href="#au"/><use transform="matrix(0.04938271604938272,0,0,0.04938271604938272,85.7283950617284,0)" xlink:href="#aw"/><use transform="matrix(0.04938271604938272,0,0,0.04938271604938272,96.54320987654322,0)" xlink:href="#ax"/></g><path fill="#333" d="M138-131c27 9 52 24 51 61 0 53-36 74-89 74S11-19 11-69c0-35 22-54 51-61-78-25-46-121 38-121 51 0 83 19 83 66 0 30-18 49-45 54zm-38-16c24 0 32-13 32-36 1-23-11-34-32-34-22 0-33 12-32 34 0 22 9 36 32 36zm1 116c27 0 37-17 37-43 0-25-13-39-39-39-24 0-37 15-37 40 0 27 11 42 39 42" id="bj"/><g id="K"><use transform="matrix(0.04938271604938272,0,0,0.04938271604938272,0,0)" xlink:href="#bj"/><use transform="matrix(0.04938271604938272,0,0,0.04938271604938272,9.876543209876544,0)" xlink:href="#al"/></g><g id="L"><use transform="matrix(0.04938271604938272,0,0,0.04938271604938272,0,0)" xlink:href="#at"/><use transform="matrix(0.04938271604938272,0,0,0.04938271604938272,9.876543209876544,0)" xlink:href="#aw"/><use transform="matrix(0.04938271604938272,0,0,0.04938271604938272,20.69135802469136,0)" xlink:href="#ax"/><use transform="matrix(0.04938271604938272,0,0,0.04938271604938272,31.506172839506174,0)" xlink:href="#av"/><use transform="matrix(0.04938271604938272,0,0,0.04938271604938272,37.38271604938272,0)" xlink:href="#au"/><use transform="matrix(0.04938271604938272,0,0,0.04938271604938272,42.320987654320994,0)" xlink:href="#ap"/><use transform="matrix(0.04938271604938272,0,0,0.04938271604938272,49.23456790123458,0)" xlink:href="#aY"/><use transform="matrix(0.04938271604938272,0,0,0.04938271604938272,65.03703703703705,0)" xlink:href="#am"/></g><path fill="#333" d="M99-251c69 0 84 53 88 123 5 99-61 162-144 118-15-8-21-25-26-45l46-6c4 31 50 33 63 7 7-15 12-36 12-60-9 18-29 28-54 28-48 0-72-32-72-82 0-55 31-83 87-83zm-1 128c24 0 37-16 37-39 0-27-10-51-37-51-25 0-35 19-35 45 0 25 10 45 35 45" id="bk"/><g id="M"><use transform="matrix(0.04938271604938272,0,0,0.04938271604938272,0,0)" xlink:href="#bk"/><use transform="matrix(0.04938271604938272,0,0,0.04938271604938272,9.876543209876544,0)" xlink:href="#al"/></g><path fill="#333" d="M128 0H69L1-190h53L99-40l48-150h52" id="bl"/><path fill="#333" d="M140-251c80 0 125 45 125 126S219 4 139 4C58 4 15-44 15-125s44-126 125-126zm-1 214c52 0 73-35 73-88 0-50-21-86-72-86-52 0-73 35-73 86s22 88 72 88" id="bm"/><g id="N"><use transform="matrix(0.04938271604938272,0,0,0.04938271604938272,0,0)" xlink:href="#am"/><use transform="matrix(0.04938271604938272,0,0,0.04938271604938272,9.876543209876544,0)" xlink:href="#ao"/><use transform="matrix(0.04938271604938272,0,0,0.04938271604938272,19.75308641975309,0)" xlink:href="#bl"/><use transform="matrix(0.04938271604938272,0,0,0.04938271604938272,29.629629629629633,0)" xlink:href="#ar"/><use transform="matrix(0.04938271604938272,0,0,0.04938271604938272,39.50617283950618,0)" xlink:href="#aU"/><use transform="matrix(0.04938271604938272,0,0,0.04938271604938272,48.98765432098766,0)" xlink:href="#az"/><use transform="matrix(0.04938271604938272,0,0,0.04938271604938272,58.8641975308642,0)" xlink:href="#as"/><use transform="matrix(0.04938271604938272,0,0,0.04938271604938272,69.67901234567901,0)" xlink:href="#ar"/><use transform="matrix(0.04938271604938272,0,0,0.04938271604938272,79.55555555555556,0)" xlink:href="#aU"/><use transform="matrix(0.04938271604938272,0,0,0.04938271604938272,89.03703703703704,0)" xlink:href="#ar"/><use transform="matrix(0.04938271604938272,0,0,0.04938271604938272,98.91358024691358,0)" xlink:href="#am"/><use transform="matrix(0.04938271604938272,0,0,0.04938271604938272,108.79012345679013,0)" xlink:href="#an"/><use transform="matrix(0.04938271604938272,0,0,0.04938271604938272,114.66666666666667,0)" xlink:href="#aV"/><use transform="matrix(0.04938271604938272,0,0,0.04938271604938272,120.54320987654322,0)" xlink:href="#an"/><use transform="matrix(0.04938271604938272,0,0,0.04938271604938272,126.41975308641976,0)" xlink:href="#az"/><use transform="matrix(0.04938271604938272,0,0,0.04938271604938272,136.2962962962963,0)" xlink:href="#as"/><use transform="matrix(0.04938271604938272,0,0,0.04938271604938272,147.11111111111111,0)" xlink:href="#ar"/><use transform="matrix(0.04938271604938272,0,0,0.04938271604938272,156.98765432098764,0)" xlink:href="#bm"/><use transform="matrix(0.04938271604938272,0,0,0.04938271604938272,170.8148148148148,0)" xlink:href="#av"/><use transform="matrix(0.04938271604938272,0,0,0.04938271604938272,176.69135802469134,0)" xlink:href="#aU"/><use transform="matrix(0.04938271604938272,0,0,0.04938271604938272,186.1728395061728,0)" xlink:href="#ar"/><use transform="matrix(0.04938271604938272,0,0,0.04938271604938272,196.04938271604937,0)" xlink:href="#am"/><use transform="matrix(0.04938271604938272,0,0,0.04938271604938272,205.92592592592595,0)" xlink:href="#an"/><use transform="matrix(0.04938271604938272,0,0,0.04938271604938272,211.80246913580245,0)" xlink:href="#aZ"/></g><g id="O"><use transform="matrix(0.04938271604938272,0,0,0.04938271604938272,0,0)" xlink:href="#ak"/><use transform="matrix(0.04938271604938272,0,0,0.04938271604938272,8.88888888888889,0)" xlink:href="#ak"/><use transform="matrix(0.04938271604938272,0,0,0.04938271604938272,18.765432098765434,0)" xlink:href="#al"/></g><g id="P"><use transform="matrix(0.04938271604938272,0,0,0.04938271604938272,0,0)" xlink:href="#au"/><use transform="matrix(0.04938271604938272,0,0,0.04938271604938272,4.938271604938272,0)" xlink:href="#ax"/><use transform="matrix(0.04938271604938272,0,0,0.04938271604938272,15.753086419753087,0)" xlink:href="#av"/><use transform="matrix(0.04938271604938272,0,0,0.04938271604938272,21.62962962962963,0)" xlink:href="#aw"/><use transform="matrix(0.04938271604938272,0,0,0.04938271604938272,32.44444444444444,0)" xlink:href="#ap"/><use transform="matrix(0.04938271604938272,0,0,0.04938271604938272,39.358024691358025,0)" xlink:href="#aY"/><use transform="matrix(0.04938271604938272,0,0,0.04938271604938272,55.1604938271605,0)" xlink:href="#am"/></g><g id="Q"><use transform="matrix(0.04938271604938272,0,0,0.04938271604938272,0,0)" xlink:href="#aw"/><use transform="matrix(0.04938271604938272,0,0,0.04938271604938272,10.814814814814815,0)" xlink:href="#as"/><use transform="matrix(0.04938271604938272,0,0,0.04938271604938272,21.62962962962963,0)" xlink:href="#ar"/><use transform="matrix(0.04938271604938272,0,0,0.04938271604938272,31.506172839506174,0)" xlink:href="#ap"/><use transform="matrix(0.04938271604938272,0,0,0.04938271604938272,38.41975308641975,0)" xlink:href="#ao"/><use transform="matrix(0.04938271604938272,0,0,0.04938271604938272,48.2962962962963,0)" xlink:href="#an"/><use transform="matrix(0.04938271604938272,0,0,0.04938271604938272,54.17283950617284,0)" xlink:href="#au"/><use transform="matrix(0.04938271604938272,0,0,0.04938271604938272,59.111111111111114,0)" xlink:href="#aw"/><use transform="matrix(0.04938271604938272,0,0,0.04938271604938272,69.92592592592592,0)" xlink:href="#ax"/></g><g id="R"><use transform="matrix(0.04938271604938272,0,0,0.04938271604938272,0,0)" xlink:href="#am"/><use transform="matrix(0.04938271604938272,0,0,0.04938271604938272,9.876543209876544,0)" xlink:href="#aO"/><use transform="matrix(0.04938271604938272,0,0,0.04938271604938272,20.69135802469136,0)" xlink:href="#at"/><use transform="matrix(0.04938271604938272,0,0,0.04938271604938272,30.567901234567906,0)" xlink:href="#at"/><use transform="matrix(0.04938271604938272,0,0,0.04938271604938272,40.44444444444445,0)" xlink:href="#ar"/><use transform="matrix(0.04938271604938272,0,0,0.04938271604938272,50.320987654320994,0)" xlink:href="#am"/><use transform="matrix(0.04938271604938272,0,0,0.04938271604938272,60.19753086419754,0)" xlink:href="#am"/></g><g id="S"><use transform="matrix(0.06172839506172839,0,0,0.06172839506172839,0,0)" xlink:href="#aa"/><use transform="matrix(0.06172839506172839,0,0,0.06172839506172839,14.814814814814813,0)" xlink:href="#ab"/><use transform="matrix(0.06172839506172839,0,0,0.06172839506172839,27.160493827160494,0)" xlink:href="#ac"/><use transform="matrix(0.06172839506172839,0,0,0.06172839506172839,45.61728395061728,0)" xlink:href="#ad"/><use transform="matrix(0.06172839506172839,0,0,0.06172839506172839,50.49382716049382,0)" xlink:href="#ae"/><use transform="matrix(0.06172839506172839,0,0,0.06172839506172839,62.8395061728395,0)" xlink:href="#ad"/><use transform="matrix(0.06172839506172839,0,0,0.06172839506172839,67.71604938271604,0)" xlink:href="#af"/><use transform="matrix(0.06172839506172839,0,0,0.06172839506172839,78.82716049382715,0)" xlink:href="#ag"/><use transform="matrix(0.06172839506172839,0,0,0.06172839506172839,84.99999999999999,0)" xlink:href="#ah"/><use transform="matrix(0.06172839506172839,0,0,0.06172839506172839,92.34567901234567,0)" xlink:href="#ai"/><use transform="matrix(0.06172839506172839,0,0,0.06172839506172839,104.69135802469135,0)" xlink:href="#ag"/><use transform="matrix(0.06172839506172839,0,0,0.06172839506172839,110.86419753086419,0)" xlink:href="#aj"/><use transform="matrix(0.06172839506172839,0,0,0.06172839506172839,123.20987654320987,0)" xlink:href="#ah"/></g><path fill="#333" d="M212-179c-10-28-35-45-73-45-59 0-87 40-87 99 0 60 29 101 89 101 43 0 62-24 78-52l27 14C228-24 195 4 139 4 59 4 22-46 18-125c-6-104 99-153 187-111 19 9 31 26 39 46" id="bn"/><path fill="#333" d="M24 0v-261h32V0H24" id="bo"/><g id="T"><use transform="matrix(0.06172839506172839,0,0,0.06172839506172839,0,0)" xlink:href="#bn"/><use transform="matrix(0.06172839506172839,0,0,0.06172839506172839,15.987654320987653,0)" xlink:href="#ah"/><use transform="matrix(0.06172839506172839,0,0,0.06172839506172839,23.333333333333332,0)" xlink:href="#bg"/><use transform="matrix(0.06172839506172839,0,0,0.06172839506172839,35.67901234567901,0)" xlink:href="#ai"/><use transform="matrix(0.06172839506172839,0,0,0.06172839506172839,48.02469135802469,0)" xlink:href="#ag"/><use transform="matrix(0.06172839506172839,0,0,0.06172839506172839,54.19753086419753,0)" xlink:href="#bg"/><use transform="matrix(0.06172839506172839,0,0,0.06172839506172839,66.54320987654322,0)" xlink:href="#bd"/><use transform="matrix(0.06172839506172839,0,0,0.06172839506172839,78.82716049382717,0)" xlink:href="#be"/><use transform="matrix(0.06172839506172839,0,0,0.06172839506172839,89.93827160493828,0)" xlink:href="#bf"/><use transform="matrix(0.06172839506172839,0,0,0.06172839506172839,102.28395061728396,0)" xlink:href="#bg"/><use transform="matrix(0.06172839506172839,0,0,0.06172839506172839,114.62962962962965,0)" xlink:href="#bd"/><use transform="matrix(0.06172839506172839,0,0,0.06172839506172839,125.67901234567903,0)" xlink:href="#bg"/><use transform="matrix(0.06172839506172839,0,0,0.06172839506172839,138.0246913580247,0)" xlink:href="#af"/><use transform="matrix(0.06172839506172839,0,0,0.06172839506172839,149.13580246913583,0)" xlink:href="#ag"/><use transform="matrix(0.06172839506172839,0,0,0.06172839506172839,155.30864197530866,0)" xlink:href="#bn"/><use transform="matrix(0.06172839506172839,0,0,0.06172839506172839,171.2962962962963,0)" xlink:href="#aj"/><use transform="matrix(0.06172839506172839,0,0,0.06172839506172839,183.64197530864197,0)" xlink:href="#ae"/><use transform="matrix(0.06172839506172839,0,0,0.06172839506172839,195.98765432098764,0)" xlink:href="#ag"/><use transform="matrix(0.06172839506172839,0,0,0.06172839506172839,202.16049382716048,0)" xlink:href="#ah"/><use transform="matrix(0.06172839506172839,0,0,0.06172839506172839,209.50617283950615,0)" xlink:href="#aj"/><use transform="matrix(0.06172839506172839,0,0,0.06172839506172839,221.85185185185182,0)" xlink:href="#bo"/><use transform="matrix(0.06172839506172839,0,0,0.06172839506172839,226.72839506172835,0)" xlink:href="#bo"/><use transform="matrix(0.06172839506172839,0,0,0.06172839506172839,231.60493827160488,0)" xlink:href="#bg"/><use transform="matrix(0.06172839506172839,0,0,0.06172839506172839,243.95061728395055,0)" xlink:href="#ah"/></g><path fill="#333" d="M139-81c0-46-55-55-73-27H18l9-140h149v37H72l-4 63c44-38 133-4 122 66C201 21 21 35 11-62l49-4c5 18 15 30 39 30 26 0 40-18 40-45" id="bp"/><g id="U"><use transform="matrix(0.04938271604938272,0,0,0.04938271604938272,0,0)" xlink:href="#bp"/><use transform="matrix(0.04938271604938272,0,0,0.04938271604938272,9.876543209876544,0)" xlink:href="#al"/></g><g id="V"><use transform="matrix(0.04938271604938272,0,0,0.04938271604938272,0,0)" xlink:href="#at"/><use transform="matrix(0.04938271604938272,0,0,0.04938271604938272,9.876543209876544,0)" xlink:href="#ap"/><use transform="matrix(0.04938271604938272,0,0,0.04938271604938272,16.790123456790127,0)" xlink:href="#ar"/><use transform="matrix(0.04938271604938272,0,0,0.04938271604938272,26.666666666666668,0)" xlink:href="#ao"/><use transform="matrix(0.04938271604938272,0,0,0.04938271604938272,36.543209876543216,0)" xlink:href="#an"/><use transform="matrix(0.04938271604938272,0,0,0.04938271604938272,42.41975308641976,0)" xlink:href="#ar"/><use transform="matrix(0.04938271604938272,0,0,0.04938271604938272,52.2962962962963,0)" xlink:href="#aV"/><use transform="matrix(0.04938271604938272,0,0,0.04938271604938272,58.17283950617284,0)" xlink:href="#at"/><use transform="matrix(0.04938271604938272,0,0,0.04938271604938272,68.0493827160494,0)" xlink:href="#aw"/><use transform="matrix(0.04938271604938272,0,0,0.04938271604938272,78.8641975308642,0)" xlink:href="#aP"/><use transform="matrix(0.04938271604938272,0,0,0.04938271604938272,89.67901234567901,0)" xlink:href="#ar"/><use transform="matrix(0.04938271604938272,0,0,0.04938271604938272,99.55555555555556,0)" xlink:href="#aW"/></g><path fill="#333" d="M230 0l2-204L168 0h-37L68-204 70 0H24v-248h70l56 185 57-185h69V0h-46" id="bq"/><g id="W"><use transform="matrix(0.04938271604938272,0,0,0.04938271604938272,0,0)" xlink:href="#at"/><use transform="matrix(0.04938271604938272,0,0,0.04938271604938272,9.876543209876544,0)" xlink:href="#aw"/><use transform="matrix(0.04938271604938272,0,0,0.04938271604938272,20.69135802469136,0)" xlink:href="#aX"/><use transform="matrix(0.04938271604938272,0,0,0.04938271604938272,25.629629629629633,0)" xlink:href="#aX"/><use transform="matrix(0.04938271604938272,0,0,0.04938271604938272,30.567901234567906,0)" xlink:href="#ar"/><use transform="matrix(0.04938271604938272,0,0,0.04938271604938272,40.44444444444445,0)" xlink:href="#at"/><use transform="matrix(0.04938271604938272,0,0,0.04938271604938272,50.320987654320994,0)" xlink:href="#an"/><use transform="matrix(0.04938271604938272,0,0,0.04938271604938272,56.19753086419754,0)" xlink:href="#au"/><use transform="matrix(0.04938271604938272,0,0,0.04938271604938272,61.13580246913581,0)" xlink:href="#ax"/><use transform="matrix(0.04938271604938272,0,0,0.04938271604938272,71.95061728395062,0)" xlink:href="#aT"/><use transform="matrix(0.04938271604938272,0,0,0.04938271604938272,82.76543209876543,0)" xlink:href="#bq"/><use transform="matrix(0.04938271604938272,0,0,0.04938271604938272,97.53086419753086,0)" xlink:href="#ar"/><use transform="matrix(0.04938271604938272,0,0,0.04938271604938272,107.40740740740739,0)" xlink:href="#an"/><use transform="matrix(0.04938271604938272,0,0,0.04938271604938272,113.28395061728396,0)" xlink:href="#aq"/><use transform="matrix(0.04938271604938272,0,0,0.04938271604938272,124.09876543209876,0)" xlink:href="#aw"/><use transform="matrix(0.04938271604938272,0,0,0.04938271604938272,134.91358024691357,0)" xlink:href="#aP"/><use transform="matrix(0.04938271604938272,0,0,0.04938271604938272,145.72839506172838,0)" xlink:href="#am"/><use transform="matrix(0.04938271604938272,0,0,0.04938271604938272,155.6049382716049,0)" xlink:href="#aZ"/></g><path fill="#333" d="M115-159c48 0 72 30 72 78 0 54-30 85-83 85-64 0-91-50-91-122 0-98 58-163 141-120 15 8 21 24 27 44l-47 6c-5-31-48-31-61-4-7 14-11 33-11 60 9-17 28-27 53-27zM102-35c24 0 36-20 36-45s-11-43-37-43c-23 0-36 14-36 38 0 27 11 50 37 50" id="br"/><g id="X"><use transform="matrix(0.04938271604938272,0,0,0.04938271604938272,0,0)" xlink:href="#br"/><use transform="matrix(0.04938271604938272,0,0,0.04938271604938272,9.876543209876544,0)" xlink:href="#al"/></g><g id="Y"><use transform="matrix(0.04938271604938272,0,0,0.04938271604938272,0,0)" xlink:href="#bl"/><use transform="matrix(0.04938271604938272,0,0,0.04938271604938272,9.876543209876544,0)" xlink:href="#ao"/><use transform="matrix(0.04938271604938272,0,0,0.04938271604938272,19.75308641975309,0)" xlink:href="#aX"/><use transform="matrix(0.04938271604938272,0,0,0.04938271604938272,24.69135802469136,0)" xlink:href="#au"/><use transform="matrix(0.04938271604938272,0,0,0.04938271604938272,29.629629629629633,0)" xlink:href="#aP"/><use transform="matrix(0.04938271604938272,0,0,0.04938271604938272,40.44444444444445,0)" xlink:href="#ao"/><use transform="matrix(0.04938271604938272,0,0,0.04938271604938272,50.320987654320994,0)" xlink:href="#an"/><use transform="matrix(0.04938271604938272,0,0,0.04938271604938272,56.19753086419754,0)" xlink:href="#ar"/><use transform="matrix(0.04938271604938272,0,0,0.04938271604938272,66.07407407407408,0)" xlink:href="#aU"/><use transform="matrix(0.04938271604938272,0,0,0.04938271604938272,75.55555555555556,0)" xlink:href="#az"/><use transform="matrix(0.04938271604938272,0,0,0.04938271604938272,85.4320987654321,0)" xlink:href="#as"/><use transform="matrix(0.04938271604938272,0,0,0.04938271604938272,96.24691358024691,0)" xlink:href="#ar"/><use transform="matrix(0.04938271604938272,0,0,0.04938271604938272,106.12345679012347,0)" xlink:href="#aU"/><use transform="matrix(0.04938271604938272,0,0,0.04938271604938272,115.60493827160492,0)" xlink:href="#ar"/><use transform="matrix(0.04938271604938272,0,0,0.04938271604938272,125.4814814814815,0)" xlink:href="#am"/><use transform="matrix(0.04938271604938272,0,0,0.04938271604938272,135.35802469135803,0)" xlink:href="#an"/><use transform="matrix(0.04938271604938272,0,0,0.04938271604938272,141.23456790123456,0)" xlink:href="#aV"/><use transform="matrix(0.04938271604938272,0,0,0.04938271604938272,147.1111111111111,0)" xlink:href="#an"/><use transform="matrix(0.04938271604938272,0,0,0.04938271604938272,152.98765432098762,0)" xlink:href="#az"/><use transform="matrix(0.04938271604938272,0,0,0.04938271604938272,162.86419753086415,0)" xlink:href="#as"/><use transform="matrix(0.04938271604938272,0,0,0.04938271604938272,173.67901234567896,0)" xlink:href="#ar"/><use transform="matrix(0.04938271604938272,0,0,0.04938271604938272,183.5555555555555,0)" xlink:href="#bm"/><use transform="matrix(0.04938271604938272,0,0,0.04938271604938272,197.38271604938265,0)" xlink:href="#av"/><use transform="matrix(0.04938271604938272,0,0,0.04938271604938272,203.25925925925918,0)" xlink:href="#aU"/><use transform="matrix(0.04938271604938272,0,0,0.04938271604938272,212.74074074074068,0)" xlink:href="#ar"/><use transform="matrix(0.04938271604938272,0,0,0.04938271604938272,222.6172839506172,0)" xlink:href="#am"/><use transform="matrix(0.04938271604938272,0,0,0.04938271604938272,232.49382716049377,0)" xlink:href="#an"/><use transform="matrix(0.04938271604938272,0,0,0.04938271604938272,238.3703703703703,0)" xlink:href="#aZ"/></g><path fill="#333" d="M101-251c68 0 84 54 84 127C185-50 166 4 99 4S15-52 14-124c-1-75 17-127 87-127zm-1 216c37-5 36-46 36-89s4-89-36-89c-39 0-36 45-36 89 0 43-3 85 36 89" id="bs"/><g id="Z"><use transform="matrix(0.04938271604938272,0,0,0.04938271604938272,0,0)" xlink:href="#ak"/><use transform="matrix(0.04938271604938272,0,0,0.04938271604938272,9.876543209876544,0)" xlink:href="#bs"/><use transform="matrix(0.04938271604938272,0,0,0.04938271604938272,19.75308641975309,0)" xlink:href="#al"/></g></defs></g></svg>