<?xml version="1.0" encoding="UTF-8" standalone="no"?><svg xmlns="http://www.w3.org/2000/svg" xmlns:xlink="http://www.w3.org/1999/xlink" contentScriptType="application/ecmascript" contentStyleType="text/css" height="596px" preserveAspectRatio="none" style="width:665px;height:596px;background:#FFFFFF;" version="1.1" viewBox="0 0 665 596" width="665px" zoomAndPan="magnify"><defs><filter height="300%" id="fl2f3rovz9dhn" width="300%" x="-1" y="-1"><feGaussianBlur result="blurOut" stdDeviation="2.0"/><feColorMatrix in="blurOut" result="blurOut2" type="matrix" values="0 0 0 0 0 0 0 0 0 0 0 0 0 0 0 0 0 0 .4 0"/><feOffset dx="4.0" dy="4.0" in="blurOut2" result="blurOut3"/><feBlend in="SourceGraphic" in2="blurOut3" mode="normal"/></filter></defs><g><text fill="#000000" font-family="sans-serif" font-size="18" lengthAdjust="spacing" textLength="221" x="215.75" y="16.708">Classes - Class Diagram</text><!--MD5=[03960189e81aa2c066c762ffabbee709]
class Receptionist--><rect codeLine="4" fill="#FEFECE" filter="url(#fl2f3rovz9dhn)" height="48" id="Receptionist" style="stroke:#A80036;stroke-width:1.5;" width="106" x="104" y="27.9531"/><ellipse cx="119" cy="43.9531" fill="#ADD1B2" rx="11" ry="11" style="stroke:#A80036;stroke-width:1.0;"/><path d="M121.3438,39.625 C120.4063,39.1875 119.8125,39.0469 118.9375,39.0469 C116.3125,39.0469 114.3125,41.125 114.3125,43.8438 L114.3125,44.9688 C114.3125,47.5469 116.4219,49.4375 119.3125,49.4375 C120.5313,49.4375 121.6875,49.1406 122.4375,48.5938 C123.0156,48.1875 123.3438,47.7344 123.3438,47.3438 C123.3438,46.8906 122.9531,46.5 122.4844,46.5 C122.2656,46.5 122.0625,46.5781 121.875,46.7656 C121.4219,47.25 121.4219,47.25 121.2344,47.3438 C120.8125,47.6094 120.125,47.7344 119.3594,47.7344 C117.3125,47.7344 116.0156,46.6406 116.0156,44.9375 L116.0156,43.8438 C116.0156,42.0625 117.2656,40.75 119,40.75 C119.5781,40.75 120.1875,40.9063 120.6563,41.1563 C121.1406,41.4375 121.3125,41.6563 121.4063,42.0625 C121.4688,42.4688 121.5,42.5938 121.6406,42.7188 C121.7813,42.8594 122.0156,42.9688 122.2344,42.9688 C122.5,42.9688 122.7656,42.8281 122.9375,42.6094 C123.0469,42.4531 123.0781,42.2656 123.0781,41.8438 L123.0781,40.4219 C123.0781,39.9844 123.0625,39.8594 122.9688,39.7031 C122.8125,39.4375 122.5313,39.2969 122.2344,39.2969 C121.9375,39.2969 121.7344,39.3906 121.5156,39.7031 L121.3438,39.625 Z " fill="#000000"/><text fill="#000000" font-family="sans-serif" font-size="12" lengthAdjust="spacing" textLength="74" x="133" y="48.1074">Receptionist</text><line style="stroke:#A80036;stroke-width:1.5;" x1="105" x2="209" y1="59.9531" y2="59.9531"/><line style="stroke:#A80036;stroke-width:1.5;" x1="105" x2="209" y1="67.9531" y2="67.9531"/><!--MD5=[d77386df0ab152061918b4652af9ba57]
class RegisterTestUI--><rect codeLine="5" fill="#FEFECE" filter="url(#fl2f3rovz9dhn)" height="48" id="RegisterTestUI" style="stroke:#A80036;stroke-width:1.5;" width="120" x="97" y="136.9531"/><ellipse cx="112" cy="152.9531" fill="#ADD1B2" rx="11" ry="11" style="stroke:#A80036;stroke-width:1.0;"/><path d="M114.3438,148.625 C113.4063,148.1875 112.8125,148.0469 111.9375,148.0469 C109.3125,148.0469 107.3125,150.125 107.3125,152.8438 L107.3125,153.9688 C107.3125,156.5469 109.4219,158.4375 112.3125,158.4375 C113.5313,158.4375 114.6875,158.1406 115.4375,157.5938 C116.0156,157.1875 116.3438,156.7344 116.3438,156.3438 C116.3438,155.8906 115.9531,155.5 115.4844,155.5 C115.2656,155.5 115.0625,155.5781 114.875,155.7656 C114.4219,156.25 114.4219,156.25 114.2344,156.3438 C113.8125,156.6094 113.125,156.7344 112.3594,156.7344 C110.3125,156.7344 109.0156,155.6406 109.0156,153.9375 L109.0156,152.8438 C109.0156,151.0625 110.2656,149.75 112,149.75 C112.5781,149.75 113.1875,149.9063 113.6563,150.1563 C114.1406,150.4375 114.3125,150.6563 114.4063,151.0625 C114.4688,151.4688 114.5,151.5938 114.6406,151.7188 C114.7813,151.8594 115.0156,151.9688 115.2344,151.9688 C115.5,151.9688 115.7656,151.8281 115.9375,151.6094 C116.0469,151.4531 116.0781,151.2656 116.0781,150.8438 L116.0781,149.4219 C116.0781,148.9844 116.0625,148.8594 115.9688,148.7031 C115.8125,148.4375 115.5313,148.2969 115.2344,148.2969 C114.9375,148.2969 114.7344,148.3906 114.5156,148.7031 L114.3438,148.625 Z " fill="#000000"/><text fill="#000000" font-family="sans-serif" font-size="12" lengthAdjust="spacing" textLength="88" x="126" y="157.1074">RegisterTestUI</text><line style="stroke:#A80036;stroke-width:1.5;" x1="98" x2="216" y1="168.9531" y2="168.9531"/><line style="stroke:#A80036;stroke-width:1.5;" x1="98" x2="216" y1="176.9531" y2="176.9531"/><!--MD5=[73677359b52d98a525977144c337a659]
class RegisterTestController--><rect codeLine="6" fill="#FEFECE" filter="url(#fl2f3rovz9dhn)" height="137.6328" id="RegisterTestController" style="stroke:#A80036;stroke-width:1.5;" width="300" x="7" y="245.9531"/><ellipse cx="85.25" cy="261.9531" fill="#ADD1B2" rx="11" ry="11" style="stroke:#A80036;stroke-width:1.0;"/><path d="M87.5938,257.625 C86.6563,257.1875 86.0625,257.0469 85.1875,257.0469 C82.5625,257.0469 80.5625,259.125 80.5625,261.8438 L80.5625,262.9688 C80.5625,265.5469 82.6719,267.4375 85.5625,267.4375 C86.7813,267.4375 87.9375,267.1406 88.6875,266.5938 C89.2656,266.1875 89.5938,265.7344 89.5938,265.3438 C89.5938,264.8906 89.2031,264.5 88.7344,264.5 C88.5156,264.5 88.3125,264.5781 88.125,264.7656 C87.6719,265.25 87.6719,265.25 87.4844,265.3438 C87.0625,265.6094 86.375,265.7344 85.6094,265.7344 C83.5625,265.7344 82.2656,264.6406 82.2656,262.9375 L82.2656,261.8438 C82.2656,260.0625 83.5156,258.75 85.25,258.75 C85.8281,258.75 86.4375,258.9063 86.9063,259.1563 C87.3906,259.4375 87.5625,259.6563 87.6563,260.0625 C87.7188,260.4688 87.75,260.5938 87.8906,260.7188 C88.0313,260.8594 88.2656,260.9688 88.4844,260.9688 C88.75,260.9688 89.0156,260.8281 89.1875,260.6094 C89.2969,260.4531 89.3281,260.2656 89.3281,259.8438 L89.3281,258.4219 C89.3281,257.9844 89.3125,257.8594 89.2188,257.7031 C89.0625,257.4375 88.7813,257.2969 88.4844,257.2969 C88.1875,257.2969 87.9844,257.3906 87.7656,257.7031 L87.5938,257.625 Z " fill="#000000"/><text fill="#000000" font-family="sans-serif" font-size="12" lengthAdjust="spacing" textLength="135" x="105.75" y="266.1074">RegisterTestController</text><line style="stroke:#A80036;stroke-width:1.5;" x1="8" x2="306" y1="277.9531" y2="277.9531"/><line style="stroke:#A80036;stroke-width:1.5;" x1="8" x2="306" y1="285.9531" y2="285.9531"/><text fill="#000000" font-family="sans-serif" font-size="11" lengthAdjust="spacing" textLength="105" x="13" y="300.1636">+validateCCN(TIN)</text><text fill="#000000" font-family="sans-serif" font-size="11" lengthAdjust="spacing" textLength="169" x="13" y="312.9683">+validateTestType(test type)</text><text fill="#000000" font-family="sans-serif" font-size="11" lengthAdjust="spacing" textLength="194" x="13" y="325.7729">+validateParameters(parameters)</text><text fill="#000000" font-family="sans-serif" font-size="11" lengthAdjust="spacing" textLength="66" x="13" y="338.5776">+showDto()</text><text fill="#000000" font-family="sans-serif" font-size="11" lengthAdjust="spacing" textLength="127" x="13" y="351.3823">+getRegisterTestList()</text><text fill="#000000" font-family="sans-serif" font-size="11" lengthAdjust="spacing" textLength="288" x="13" y="364.187">+RegisterTest(i.e TIN, NHS, test type, parameters)</text><text fill="#000000" font-family="sans-serif" font-size="11" lengthAdjust="spacing" textLength="117" x="13" y="376.9917">+saveRegisterTest()</text><!--MD5=[066cd7a73ef0b4b422aeb7a87336c3d5]
class RegisterTestMapper--><rect codeLine="15" fill="#FEFECE" filter="url(#fl2f3rovz9dhn)" height="73.6094" id="RegisterTestMapper" style="stroke:#A80036;stroke-width:1.5;" width="176" x="401" y="277.9531"/><ellipse cx="425.9" cy="293.9531" fill="#ADD1B2" rx="11" ry="11" style="stroke:#A80036;stroke-width:1.0;"/><path d="M428.2438,289.625 C427.3063,289.1875 426.7125,289.0469 425.8375,289.0469 C423.2125,289.0469 421.2125,291.125 421.2125,293.8438 L421.2125,294.9688 C421.2125,297.5469 423.3219,299.4375 426.2125,299.4375 C427.4313,299.4375 428.5875,299.1406 429.3375,298.5938 C429.9156,298.1875 430.2438,297.7344 430.2438,297.3438 C430.2438,296.8906 429.8531,296.5 429.3844,296.5 C429.1656,296.5 428.9625,296.5781 428.775,296.7656 C428.3219,297.25 428.3219,297.25 428.1344,297.3438 C427.7125,297.6094 427.025,297.7344 426.2594,297.7344 C424.2125,297.7344 422.9156,296.6406 422.9156,294.9375 L422.9156,293.8438 C422.9156,292.0625 424.1656,290.75 425.9,290.75 C426.4781,290.75 427.0875,290.9063 427.5563,291.1563 C428.0406,291.4375 428.2125,291.6563 428.3063,292.0625 C428.3688,292.4688 428.4,292.5938 428.5406,292.7188 C428.6813,292.8594 428.9156,292.9688 429.1344,292.9688 C429.4,292.9688 429.6656,292.8281 429.8375,292.6094 C429.9469,292.4531 429.9781,292.2656 429.9781,291.8438 L429.9781,290.4219 C429.9781,289.9844 429.9625,289.8594 429.8688,289.7031 C429.7125,289.4375 429.4313,289.2969 429.1344,289.2969 C428.8375,289.2969 428.6344,289.3906 428.4156,289.7031 L428.2438,289.625 Z " fill="#000000"/><text fill="#000000" font-family="sans-serif" font-size="12" lengthAdjust="spacing" textLength="122" x="442.1" y="298.1074">RegisterTestMapper</text><line style="stroke:#A80036;stroke-width:1.5;" x1="402" x2="576" y1="309.9531" y2="309.9531"/><line style="stroke:#A80036;stroke-width:1.5;" x1="402" x2="576" y1="317.9531" y2="317.9531"/><text fill="#000000" font-family="sans-serif" font-size="11" lengthAdjust="spacing" textLength="43" x="407" y="332.1636">+dto(rt)</text><text fill="#000000" font-family="sans-serif" font-size="11" lengthAdjust="spacing" textLength="164" x="407" y="344.9683">+dtoList(getRegisterTestList)</text><!--MD5=[02e4b9b7573f1156f41e60aa5b4e25a4]
class Company--><rect codeLine="19" fill="#FEFECE" filter="url(#fl2f3rovz9dhn)" height="137.6328" id="Company" style="stroke:#A80036;stroke-width:1.5;" width="300" x="7" y="444.9531"/><ellipse cx="124.75" cy="460.9531" fill="#ADD1B2" rx="11" ry="11" style="stroke:#A80036;stroke-width:1.0;"/><path d="M127.0938,456.625 C126.1563,456.1875 125.5625,456.0469 124.6875,456.0469 C122.0625,456.0469 120.0625,458.125 120.0625,460.8438 L120.0625,461.9688 C120.0625,464.5469 122.1719,466.4375 125.0625,466.4375 C126.2813,466.4375 127.4375,466.1406 128.1875,465.5938 C128.7656,465.1875 129.0938,464.7344 129.0938,464.3438 C129.0938,463.8906 128.7031,463.5 128.2344,463.5 C128.0156,463.5 127.8125,463.5781 127.625,463.7656 C127.1719,464.25 127.1719,464.25 126.9844,464.3438 C126.5625,464.6094 125.875,464.7344 125.1094,464.7344 C123.0625,464.7344 121.7656,463.6406 121.7656,461.9375 L121.7656,460.8438 C121.7656,459.0625 123.0156,457.75 124.75,457.75 C125.3281,457.75 125.9375,457.9063 126.4063,458.1563 C126.8906,458.4375 127.0625,458.6563 127.1563,459.0625 C127.2188,459.4688 127.25,459.5938 127.3906,459.7188 C127.5313,459.8594 127.7656,459.9688 127.9844,459.9688 C128.25,459.9688 128.5156,459.8281 128.6875,459.6094 C128.7969,459.4531 128.8281,459.2656 128.8281,458.8438 L128.8281,457.4219 C128.8281,456.9844 128.8125,456.8594 128.7188,456.7031 C128.5625,456.4375 128.2813,456.2969 127.9844,456.2969 C127.6875,456.2969 127.4844,456.3906 127.2656,456.7031 L127.0938,456.625 Z " fill="#000000"/><text fill="#000000" font-family="sans-serif" font-size="12" lengthAdjust="spacing" textLength="56" x="145.25" y="465.1074">Company</text><line style="stroke:#A80036;stroke-width:1.5;" x1="8" x2="306" y1="476.9531" y2="476.9531"/><line style="stroke:#A80036;stroke-width:1.5;" x1="8" x2="306" y1="484.9531" y2="484.9531"/><text fill="#000000" font-family="sans-serif" font-size="11" lengthAdjust="spacing" textLength="88" x="13" y="499.1636">+getClientList()</text><text fill="#000000" font-family="sans-serif" font-size="11" lengthAdjust="spacing" textLength="109" x="13" y="511.9683">+getTestTypeList()</text><text fill="#000000" font-family="sans-serif" font-size="11" lengthAdjust="spacing" textLength="114" x="13" y="524.7729">+getParameterList()</text><text fill="#000000" font-family="sans-serif" font-size="11" lengthAdjust="spacing" textLength="288" x="13" y="537.5776">+RegisterTest(i.e TIN, NHS, test type, parameters)</text><text fill="#000000" font-family="sans-serif" font-size="11" lengthAdjust="spacing" textLength="143" x="13" y="550.3823">+validateRegisterTest(rt)</text><text fill="#000000" font-family="sans-serif" font-size="11" lengthAdjust="spacing" textLength="125" x="13" y="563.187">+saveRegisterTest(rt)</text><text fill="#000000" font-family="sans-serif" font-size="11" lengthAdjust="spacing" textLength="118" x="13" y="575.9917">+addRegisterTest(rt)</text><!--MD5=[2ae8ceb0ddbd1a68870cd99845186261]
class RegisterTest--><rect codeLine="28" fill="#FEFECE" filter="url(#fl2f3rovz9dhn)" height="99.2188" id="RegisterTest" style="stroke:#A80036;stroke-width:1.5;" width="265" x="386.5" y="464.4531"/><ellipse cx="476.75" cy="480.4531" fill="#ADD1B2" rx="11" ry="11" style="stroke:#A80036;stroke-width:1.0;"/><path d="M479.0938,476.125 C478.1563,475.6875 477.5625,475.5469 476.6875,475.5469 C474.0625,475.5469 472.0625,477.625 472.0625,480.3438 L472.0625,481.4688 C472.0625,484.0469 474.1719,485.9375 477.0625,485.9375 C478.2813,485.9375 479.4375,485.6406 480.1875,485.0938 C480.7656,484.6875 481.0938,484.2344 481.0938,483.8438 C481.0938,483.3906 480.7031,483 480.2344,483 C480.0156,483 479.8125,483.0781 479.625,483.2656 C479.1719,483.75 479.1719,483.75 478.9844,483.8438 C478.5625,484.1094 477.875,484.2344 477.1094,484.2344 C475.0625,484.2344 473.7656,483.1406 473.7656,481.4375 L473.7656,480.3438 C473.7656,478.5625 475.0156,477.25 476.75,477.25 C477.3281,477.25 477.9375,477.4063 478.4063,477.6563 C478.8906,477.9375 479.0625,478.1563 479.1563,478.5625 C479.2188,478.9688 479.25,479.0938 479.3906,479.2188 C479.5313,479.3594 479.7656,479.4688 479.9844,479.4688 C480.25,479.4688 480.5156,479.3281 480.6875,479.1094 C480.7969,478.9531 480.8281,478.7656 480.8281,478.3438 L480.8281,476.9219 C480.8281,476.4844 480.8125,476.3594 480.7188,476.2031 C480.5625,475.9375 480.2813,475.7969 479.9844,475.7969 C479.6875,475.7969 479.4844,475.8906 479.2656,476.2031 L479.0938,476.125 Z " fill="#000000"/><text fill="#000000" font-family="sans-serif" font-size="12" lengthAdjust="spacing" textLength="76" x="497.25" y="484.6074">RegisterTest</text><line style="stroke:#A80036;stroke-width:1.5;" x1="387.5" x2="650.5" y1="496.4531" y2="496.4531"/><text fill="#000000" font-family="sans-serif" font-size="11" lengthAdjust="spacing" textLength="22" x="392.5" y="510.6636">-TIN</text><text fill="#000000" font-family="sans-serif" font-size="11" lengthAdjust="spacing" textLength="56" x="392.5" y="523.4683">-test type</text><text fill="#000000" font-family="sans-serif" font-size="11" lengthAdjust="spacing" textLength="70" x="392.5" y="536.2729">-parameters</text><line style="stroke:#A80036;stroke-width:1.5;" x1="387.5" x2="650.5" y1="542.8672" y2="542.8672"/><text fill="#000000" font-family="sans-serif" font-size="11" lengthAdjust="spacing" textLength="253" x="392.5" y="557.0776">+create(i.e TIN, NHS, test type, parameters)</text><!--MD5=[7faa7234f4787e626851dc34a86488a6]
link Receptionist to RegisterTestUI--><path codeLine="35" d="M157,76.1701 C157,92.4351 157,114.2681 157,131.5691 " fill="none" id="Receptionist-to-RegisterTestUI" style="stroke:#A80036;stroke-width:1.0;stroke-dasharray:7.0,7.0;"/><polygon fill="#A80036" points="157,136.7811,161,127.7811,157,131.7811,153,127.7811,157,136.7811" style="stroke:#A80036;stroke-width:1.0;"/><!--MD5=[14857a0f682f89c0bb9098ba51bf3333]
link RegisterTestUI to RegisterTestController--><path codeLine="36" d="M157,185.0391 C157,200.0451 157,220.5151 157,240.7231 " fill="none" id="RegisterTestUI-to-RegisterTestController" style="stroke:#A80036;stroke-width:1.0;stroke-dasharray:7.0,7.0;"/><polygon fill="#A80036" points="157,245.8521,161,236.8521,157,240.8521,153,236.8521,157,245.8521" style="stroke:#A80036;stroke-width:1.0;"/><!--MD5=[fd1bc663e883ec1d717e7d33cb6b726b]
link RegisterTestController to Company--><path codeLine="37" d="M157,384.0251 C157,402.0181 157,421.5141 157,439.7661 " fill="none" id="RegisterTestController-to-Company" style="stroke:#A80036;stroke-width:1.0;stroke-dasharray:7.0,7.0;"/><polygon fill="#A80036" points="157,444.8781,161,435.8781,157,439.8781,153,435.8781,157,444.8781" style="stroke:#A80036;stroke-width:1.0;"/><!--MD5=[b0655bfafd246e06f770ff87136d824c]
link RegisterTestController to RegisterTestMapper--><path codeLine="38" d="M307.458,314.9531 C337.5,314.9531 368.226,314.9531 395.656,314.9531 " fill="none" id="RegisterTestController-to-RegisterTestMapper" style="stroke:#A80036;stroke-width:1.0;"/><polygon fill="#A80036" points="400.738,314.9531,391.738,310.9531,395.738,314.9531,391.738,318.9531,400.738,314.9531" style="stroke:#A80036;stroke-width:1.0;"/><polygon fill="#000000" points="334.5,303.5195,325.4549,300.5806,325.4549,306.4585,334.5,303.5195" style="stroke:#000000;stroke-width:1.0;"/><text fill="#000000" font-family="sans-serif" font-size="13" lengthAdjust="spacing" textLength="44" x="338.5" y="308.02">adopts</text><!--MD5=[712998d59344c9daa718ac40a6981301]
link Company to RegisterTest--><path codeLine="39" d="M307.114,513.9531 C331.613,513.9531 356.89,513.9531 381.077,513.9531 " fill="none" id="Company-to-RegisterTest" style="stroke:#A80036;stroke-width:1.0;"/><polygon fill="#A80036" points="386.222,513.9531,377.222,509.9531,381.222,513.9531,377.222,517.9531,386.222,513.9531" style="stroke:#A80036;stroke-width:1.0;"/><polygon fill="#000000" points="334.25,502.5195,325.2049,499.5806,325.2049,505.4585,334.25,502.5195" style="stroke:#000000;stroke-width:1.0;"/><text fill="#000000" font-family="sans-serif" font-size="13" lengthAdjust="spacing" textLength="30" x="338.25" y="507.02">uses</text><!--MD5=[6e2d649ba0c113a6a8494467845be8aa]
@startuml
title Classes - Class Diagram
skinparam classAttributeIconSize 0

class Receptionist
class RegisterTestUI
class RegisterTestController{
+validateCCN(TIN)
+validateTestType(test type)
+validateParameters(parameters)
+showDto()
+getRegisterTestList()
+RegisterTest(i.e TIN, NHS, test type, parameters)
+saveRegisterTest()
}
class RegisterTestMapper{
+dto(rt)
+dtoList(getRegisterTestList)
}
class Company{
+getClientList()
+getTestTypeList()
+getParameterList()
+RegisterTest(i.e TIN, NHS, test type, parameters)
+validateRegisterTest(rt)
+saveRegisterTest(rt)
+addRegisterTest(rt)
}
class RegisterTest{
{field}-TIN
{field}-test type
{field}-parameters
+create(i.e TIN, NHS, test type, parameters)
}

Receptionist -d.> RegisterTestUI
RegisterTestUI -d.> RegisterTestController
RegisterTestController -d.> Company
RegisterTestController -R-> RegisterTestMapper: adopts >
Company -R-> RegisterTest: uses >
@enduml

PlantUML version 1.2021.7(Sun May 23 12:40:07 UTC 2021)
(GPL source distribution)
Java Runtime: Java(TM) SE Runtime Environment
JVM: Java HotSpot(TM) 64-Bit Server VM
Default Encoding: UTF-8
Language: en
Country: US
--></g></svg>