<?xml version="1.0" encoding="UTF-8" standalone="no"?><svg xmlns="http://www.w3.org/2000/svg" xmlns:xlink="http://www.w3.org/1999/xlink" contentScriptType="application/ecmascript" contentStyleType="text/css" height="717px" preserveAspectRatio="none" style="width:654px;height:717px;background:#FFFFFF;" version="1.1" viewBox="0 0 654 717" width="654px" zoomAndPan="magnify"><defs><filter height="300%" id="f1xnszeyuk4ucp" width="300%" x="-1" y="-1"><feGaussianBlur result="blurOut" stdDeviation="2.0"/><feColorMatrix in="blurOut" result="blurOut2" type="matrix" values="0 0 0 0 0 0 0 0 0 0 0 0 0 0 0 0 0 0 .4 0"/><feOffset dx="4.0" dy="4.0" in="blurOut2" result="blurOut3"/><feBlend in="SourceGraphic" in2="blurOut3" mode="normal"/></filter></defs><g><text fill="#000000" font-family="sans-serif" font-size="18" lengthAdjust="spacing" textLength="221" x="210.25" y="16.708">Classes - Class Diagram</text><!--MD5=[03960189e81aa2c066c762ffabbee709]
class Receptionist--><rect codeLine="5" fill="#FEFECE" filter="url(#f1xnszeyuk4ucp)" height="137.6328" id="Receptionist" style="stroke:#A80036;stroke-width:1.5;" width="293" x="219" y="337.9531"/><ellipse cx="324.25" cy="353.9531" fill="#ADD1B2" rx="11" ry="11" style="stroke:#A80036;stroke-width:1.0;"/><path d="M326.5938,349.625 C325.6563,349.1875 325.0625,349.0469 324.1875,349.0469 C321.5625,349.0469 319.5625,351.125 319.5625,353.8438 L319.5625,354.9688 C319.5625,357.5469 321.6719,359.4375 324.5625,359.4375 C325.7813,359.4375 326.9375,359.1406 327.6875,358.5938 C328.2656,358.1875 328.5938,357.7344 328.5938,357.3438 C328.5938,356.8906 328.2031,356.5 327.7344,356.5 C327.5156,356.5 327.3125,356.5781 327.125,356.7656 C326.6719,357.25 326.6719,357.25 326.4844,357.3438 C326.0625,357.6094 325.375,357.7344 324.6094,357.7344 C322.5625,357.7344 321.2656,356.6406 321.2656,354.9375 L321.2656,353.8438 C321.2656,352.0625 322.5156,350.75 324.25,350.75 C324.8281,350.75 325.4375,350.9063 325.9063,351.1563 C326.3906,351.4375 326.5625,351.6563 326.6563,352.0625 C326.7188,352.4688 326.75,352.5938 326.8906,352.7188 C327.0313,352.8594 327.2656,352.9688 327.4844,352.9688 C327.75,352.9688 328.0156,352.8281 328.1875,352.6094 C328.2969,352.4531 328.3281,352.2656 328.3281,351.8438 L328.3281,350.4219 C328.3281,349.9844 328.3125,349.8594 328.2188,349.7031 C328.0625,349.4375 327.7813,349.2969 327.4844,349.2969 C327.1875,349.2969 326.9844,349.3906 326.7656,349.7031 L326.5938,349.625 Z " fill="#000000"/><text fill="#000000" font-family="sans-serif" font-size="12" lengthAdjust="spacing" textLength="74" x="344.75" y="358.1074">Receptionist</text><line style="stroke:#A80036;stroke-width:1.5;" x1="220" x2="511" y1="369.9531" y2="369.9531"/><text fill="#000000" font-family="sans-serif" font-size="11" lengthAdjust="spacing" textLength="78" x="225" y="384.1636">-Employee ID</text><text fill="#000000" font-family="sans-serif" font-size="11" lengthAdjust="spacing" textLength="114" x="225" y="396.9683">-Organization Role~</text><text fill="#000000" font-family="sans-serif" font-size="11" lengthAdjust="spacing" textLength="38" x="225" y="409.7729">-Name</text><text fill="#000000" font-family="sans-serif" font-size="11" lengthAdjust="spacing" textLength="43" x="225" y="422.5776">-Adress</text><text fill="#000000" font-family="sans-serif" font-size="11" lengthAdjust="spacing" textLength="39" x="225" y="435.3823">-E-mail</text><text fill="#000000" font-family="sans-serif" font-size="11" lengthAdjust="spacing" textLength="88" x="225" y="448.187">-Phone Number</text><text fill="#000000" font-family="sans-serif" font-size="11" lengthAdjust="spacing" textLength="281" x="225" y="460.9917">-Standard Occupational Classification (SOC) Code</text><line style="stroke:#A80036;stroke-width:1.5;" x1="220" x2="511" y1="467.5859" y2="467.5859"/><!--MD5=[ed6624c6556d5e7b1bd23032162d20b7]
class Client--><rect codeLine="14" fill="#FEFECE" filter="url(#f1xnszeyuk4ucp)" height="176.0469" id="Client" style="stroke:#A80036;stroke-width:1.5;" width="261" x="7" y="131.9531"/><ellipse cx="116.75" cy="147.9531" fill="#ADD1B2" rx="11" ry="11" style="stroke:#A80036;stroke-width:1.0;"/><path d="M119.0938,143.625 C118.1563,143.1875 117.5625,143.0469 116.6875,143.0469 C114.0625,143.0469 112.0625,145.125 112.0625,147.8438 L112.0625,148.9688 C112.0625,151.5469 114.1719,153.4375 117.0625,153.4375 C118.2813,153.4375 119.4375,153.1406 120.1875,152.5938 C120.7656,152.1875 121.0938,151.7344 121.0938,151.3438 C121.0938,150.8906 120.7031,150.5 120.2344,150.5 C120.0156,150.5 119.8125,150.5781 119.625,150.7656 C119.1719,151.25 119.1719,151.25 118.9844,151.3438 C118.5625,151.6094 117.875,151.7344 117.1094,151.7344 C115.0625,151.7344 113.7656,150.6406 113.7656,148.9375 L113.7656,147.8438 C113.7656,146.0625 115.0156,144.75 116.75,144.75 C117.3281,144.75 117.9375,144.9063 118.4063,145.1563 C118.8906,145.4375 119.0625,145.6563 119.1563,146.0625 C119.2188,146.4688 119.25,146.5938 119.3906,146.7188 C119.5313,146.8594 119.7656,146.9688 119.9844,146.9688 C120.25,146.9688 120.5156,146.8281 120.6875,146.6094 C120.7969,146.4531 120.8281,146.2656 120.8281,145.8438 L120.8281,144.4219 C120.8281,143.9844 120.8125,143.8594 120.7188,143.7031 C120.5625,143.4375 120.2813,143.2969 119.9844,143.2969 C119.6875,143.2969 119.4844,143.3906 119.2656,143.7031 L119.0938,143.625 Z " fill="#000000"/><text fill="#000000" font-family="sans-serif" font-size="12" lengthAdjust="spacing" textLength="33" x="137.25" y="152.1074">Client</text><line style="stroke:#A80036;stroke-width:1.5;" x1="8" x2="267" y1="163.9531" y2="163.9531"/><text fill="#000000" font-family="sans-serif" font-size="11" lengthAdjust="spacing" textLength="38" x="13" y="178.1636">-Name</text><text fill="#000000" font-family="sans-serif" font-size="11" lengthAdjust="spacing" textLength="27" x="13" y="190.9683">-Sex</text><text fill="#000000" font-family="sans-serif" font-size="11" lengthAdjust="spacing" textLength="123" x="13" y="203.7729">-Citizen Card Number</text><text fill="#000000" font-family="sans-serif" font-size="11" lengthAdjust="spacing" textLength="249" x="13" y="216.5776">-National Healthcare Service (NHS) Number</text><text fill="#000000" font-family="sans-serif" font-size="11" lengthAdjust="spacing" textLength="62" x="13" y="229.3823">-Birth Date</text><text fill="#000000" font-family="sans-serif" font-size="11" lengthAdjust="spacing" textLength="27" x="13" y="242.187">-Sex</text><text fill="#000000" font-family="sans-serif" font-size="11" lengthAdjust="spacing" textLength="181" x="13" y="254.9917">-Tax Identification Number (TIN)</text><text fill="#000000" font-family="sans-serif" font-size="11" lengthAdjust="spacing" textLength="88" x="13" y="267.7964">-Phone Number</text><text fill="#000000" font-family="sans-serif" font-size="11" lengthAdjust="spacing" textLength="39" x="13" y="280.6011">-E-mail</text><text fill="#000000" font-family="sans-serif" font-size="11" lengthAdjust="spacing" textLength="60" x="13" y="293.4058">-Lab Order</text><line style="stroke:#A80036;stroke-width:1.5;" x1="8" x2="267" y1="300" y2="300"/><!--MD5=[a999c1570c205a2156b04a15307bc1ff]
class LabOrder--><rect codeLine="26" fill="#FEFECE" filter="url(#f1xnszeyuk4ucp)" height="73.6094" id="LabOrder" style="stroke:#A80036;stroke-width:1.5;" width="89" x="321" y="27.9531"/><ellipse cx="336" cy="43.9531" fill="#ADD1B2" rx="11" ry="11" style="stroke:#A80036;stroke-width:1.0;"/><path d="M338.3438,39.625 C337.4063,39.1875 336.8125,39.0469 335.9375,39.0469 C333.3125,39.0469 331.3125,41.125 331.3125,43.8438 L331.3125,44.9688 C331.3125,47.5469 333.4219,49.4375 336.3125,49.4375 C337.5313,49.4375 338.6875,49.1406 339.4375,48.5938 C340.0156,48.1875 340.3438,47.7344 340.3438,47.3438 C340.3438,46.8906 339.9531,46.5 339.4844,46.5 C339.2656,46.5 339.0625,46.5781 338.875,46.7656 C338.4219,47.25 338.4219,47.25 338.2344,47.3438 C337.8125,47.6094 337.125,47.7344 336.3594,47.7344 C334.3125,47.7344 333.0156,46.6406 333.0156,44.9375 L333.0156,43.8438 C333.0156,42.0625 334.2656,40.75 336,40.75 C336.5781,40.75 337.1875,40.9063 337.6563,41.1563 C338.1406,41.4375 338.3125,41.6563 338.4063,42.0625 C338.4688,42.4688 338.5,42.5938 338.6406,42.7188 C338.7813,42.8594 339.0156,42.9688 339.2344,42.9688 C339.5,42.9688 339.7656,42.8281 339.9375,42.6094 C340.0469,42.4531 340.0781,42.2656 340.0781,41.8438 L340.0781,40.4219 C340.0781,39.9844 340.0625,39.8594 339.9688,39.7031 C339.8125,39.4375 339.5313,39.2969 339.2344,39.2969 C338.9375,39.2969 338.7344,39.3906 338.5156,39.7031 L338.3438,39.625 Z " fill="#000000"/><text fill="#000000" font-family="sans-serif" font-size="12" lengthAdjust="spacing" textLength="57" x="350" y="48.1074">LabOrder</text><line style="stroke:#A80036;stroke-width:1.5;" x1="322" x2="409" y1="59.9531" y2="59.9531"/><text fill="#000000" font-family="sans-serif" font-size="11" lengthAdjust="spacing" textLength="77" x="327" y="74.1636">-Type of Test</text><text fill="#000000" font-family="sans-serif" font-size="11" lengthAdjust="spacing" textLength="69" x="327" y="86.9683">-Parameters</text><line style="stroke:#A80036;stroke-width:1.5;" x1="322" x2="409" y1="93.5625" y2="93.5625"/><!--MD5=[df38be88ccee13e832d6fafd6288a4ca]
class Test--><rect codeLine="30" fill="#FEFECE" filter="url(#f1xnszeyuk4ucp)" height="150.4375" id="Test" style="stroke:#A80036;stroke-width:1.5;" width="244" x="243.5" y="552.9531"/><ellipse cx="348.25" cy="568.9531" fill="#ADD1B2" rx="11" ry="11" style="stroke:#A80036;stroke-width:1.0;"/><path d="M350.5938,564.625 C349.6563,564.1875 349.0625,564.0469 348.1875,564.0469 C345.5625,564.0469 343.5625,566.125 343.5625,568.8438 L343.5625,569.9688 C343.5625,572.5469 345.6719,574.4375 348.5625,574.4375 C349.7813,574.4375 350.9375,574.1406 351.6875,573.5938 C352.2656,573.1875 352.5938,572.7344 352.5938,572.3438 C352.5938,571.8906 352.2031,571.5 351.7344,571.5 C351.5156,571.5 351.3125,571.5781 351.125,571.7656 C350.6719,572.25 350.6719,572.25 350.4844,572.3438 C350.0625,572.6094 349.375,572.7344 348.6094,572.7344 C346.5625,572.7344 345.2656,571.6406 345.2656,569.9375 L345.2656,568.8438 C345.2656,567.0625 346.5156,565.75 348.25,565.75 C348.8281,565.75 349.4375,565.9063 349.9063,566.1563 C350.3906,566.4375 350.5625,566.6563 350.6563,567.0625 C350.7188,567.4688 350.75,567.5938 350.8906,567.7188 C351.0313,567.8594 351.2656,567.9688 351.4844,567.9688 C351.75,567.9688 352.0156,567.8281 352.1875,567.6094 C352.2969,567.4531 352.3281,567.2656 352.3281,566.8438 L352.3281,565.4219 C352.3281,564.9844 352.3125,564.8594 352.2188,564.7031 C352.0625,564.4375 351.7813,564.2969 351.4844,564.2969 C351.1875,564.2969 350.9844,564.3906 350.7656,564.7031 L350.5938,564.625 Z " fill="#000000"/><text fill="#000000" font-family="sans-serif" font-size="12" lengthAdjust="spacing" textLength="26" x="368.75" y="573.1074">Test</text><line style="stroke:#A80036;stroke-width:1.5;" x1="244.5" x2="486.5" y1="584.9531" y2="584.9531"/><text fill="#000000" font-family="sans-serif" font-size="11" lengthAdjust="spacing" textLength="62" x="249.5" y="599.1636">-Test Type</text><text fill="#000000" font-family="sans-serif" font-size="11" lengthAdjust="spacing" textLength="81" x="249.5" y="611.9683">-Internal Code</text><text fill="#000000" font-family="sans-serif" font-size="11" lengthAdjust="spacing" textLength="62" x="249.5" y="624.7729">-NHS Code</text><text fill="#000000" font-family="sans-serif" font-size="11" lengthAdjust="spacing" textLength="217" x="249.5" y="637.5776">-Description Of The Collection Method</text><text fill="#000000" font-family="sans-serif" font-size="11" lengthAdjust="spacing" textLength="148" x="249.5" y="650.3823">-Date and Time Collected</text><text fill="#000000" font-family="sans-serif" font-size="11" lengthAdjust="spacing" textLength="213" x="249.5" y="663.187">-Date and Time of Chemical Analysis</text><text fill="#000000" font-family="sans-serif" font-size="11" lengthAdjust="spacing" textLength="232" x="249.5" y="675.9917">-Date and Time of Validation of the Test</text><text fill="#000000" font-family="sans-serif" font-size="11" lengthAdjust="spacing" textLength="187" x="249.5" y="688.7964">-Date and Time of the Diagnosis</text><line style="stroke:#A80036;stroke-width:1.5;" x1="244.5" x2="486.5" y1="695.3906" y2="695.3906"/><!--MD5=[b097d9d314264888b7dbeddc95343863]
link LabOrder to Client--><path codeLine="40" d="M320.998,95.8161 C305.188,106.4261 286.493,118.9711 267.187,131.9261 " fill="none" id="LabOrder-Client" style="stroke:#A80036;stroke-width:1.0;"/><!--MD5=[84a279e28ad6c3248737114c29c49c27]
link LabOrder to Test--><path codeLine="41" d="M410.176,91.4801 C425.931,102.2861 442.653,116.0721 454.5,131.9531 C560.781,274.4201 626.008,368.2441 538.5,522.9531 C526.423,544.3051 508.015,561.7561 487.643,575.8431 " fill="none" id="LabOrder-Test" style="stroke:#A80036;stroke-width:1.0;"/><polygon fill="#000000" points="584.2896,411.9568,585.7632,402.5611,579.9591,403.4894,584.2896,411.9568" style="stroke:#000000;stroke-width:1.0;"/><text fill="#000000" font-family="sans-serif" font-size="13" lengthAdjust="spacing" textLength="54" x="592.5" y="411.52">contains</text><!--MD5=[727b58dfd932e2fbda2a273f174e2308]
link LabOrder to Receptionist--><path codeLine="42" d="M365.5,102.0171 C365.5,157.9881 365.5,266.7111 365.5,337.8001 " fill="none" id="LabOrder-Receptionist" style="stroke:#A80036;stroke-width:1.0;"/><polygon fill="#000000" points="370.5,225.0195,373.4389,215.9744,367.5611,215.9744,370.5,225.0195" style="stroke:#000000;stroke-width:1.0;"/><text fill="#000000" font-family="sans-serif" font-size="13" lengthAdjust="spacing" textLength="66" x="379.5" y="224.52">is given to</text><!--MD5=[e8b34c2e6517a986175307f5599f058a]
link Receptionist to Test--><path codeLine="43" d="M365.5,476.0451 C365.5,500.4051 365.5,527.9701 365.5,552.8141 " fill="none" id="Receptionist-Test" style="stroke:#A80036;stroke-width:1.0;"/><polygon fill="#000000" points="370.5,519.5195,373.4389,510.4744,367.5611,510.4744,370.5,519.5195" style="stroke:#000000;stroke-width:1.0;"/><text fill="#000000" font-family="sans-serif" font-size="13" lengthAdjust="spacing" textLength="150" x="379.5" y="519.02">register a test for client</text><!--MD5=[502b51bc079239060389dab43b7d3470]
link Client to Test--><path codeLine="44" d="M97.4409,308.0211 C79.8033,359.9401 68.996,425.3721 98.5,475.9531 C130.027,530.0031 188.862,566.2481 243.294,589.6451 " fill="none" id="Client-Test" style="stroke:#A80036;stroke-width:1.0;"/><polygon fill="#000000" points="101.2006,402.5796,102.7506,411.963,107.97,409.2599,101.2006,402.5796" style="stroke:#000000;stroke-width:1.0;"/><text fill="#000000" font-family="sans-serif" font-size="13" lengthAdjust="spacing" textLength="88" x="112.5" y="411.52">performed by</text><!--MD5=[f1a8b88ccfb96b2507366330d26834d7]
@startuml
title Classes - Class Diagram
skinparam classAttributeIconSize 0


class Receptionist {
  -Employee ID
  -Organization Role~
  -Name
  -Adress
  -E-mail
  -Phone Number
  {field}-Standard Occupational Classification (SOC) Code
}
class Client{
  -Name
  -Sex
  -Citizen Card Number
  {field}-National Healthcare Service (NHS) Number
  -Birth Date
  -Sex
  {field}-Tax Identification Number (TIN)
  -Phone Number
  -E-mail
  -Lab Order
}
class LabOrder{
  -Type of Test
  -Parameters
}
class Test{
  -Test Type
  -Internal Code
  -NHS Code
  -Description Of The Collection Method
  -Date and Time Collected
  -Date and Time of Chemical Analysis
  -Date and Time of Validation of the Test
  -Date and Time of the Diagnosis
}
LabOrder -R- Client : belongs to > 
LabOrder -d-Test : contains >
LabOrder -d-Receptionist : is given to >
Receptionist -d- Test : register a test for client >
Client -d- Test : performed by <
@enduml

PlantUML version 1.2021.7beta1(Unknown compile time)
(GPL source distribution)
Java Runtime: Java(TM) SE Runtime Environment
JVM: Java HotSpot(TM) 64-Bit Server VM
Default Encoding: UTF-8
Language: en
Country: US
--></g></svg>