<?xml version="1.0" encoding="UTF-8" standalone="no"?><svg xmlns="http://www.w3.org/2000/svg" xmlns:xlink="http://www.w3.org/1999/xlink" contentScriptType="application/ecmascript" contentStyleType="text/css" height="1233px" preserveAspectRatio="none" style="width:1492px;height:1233px;background:#FFFFFF;" version="1.1" viewBox="0 0 1492 1233" width="1492px" zoomAndPan="magnify"><defs><filter height="300%" id="fe4feh04ps3un" width="300%" x="-1" y="-1"><feGaussianBlur result="blurOut" stdDeviation="2.0"/><feColorMatrix in="blurOut" result="blurOut2" type="matrix" values="0 0 0 0 0 0 0 0 0 0 0 0 0 0 0 0 0 0 .4 0"/><feOffset dx="4.0" dy="4.0" in="blurOut2" result="blurOut3"/><feBlend in="SourceGraphic" in2="blurOut3" mode="normal"/></filter></defs><g><rect fill="#FFFFFF" filter="url(#fe4feh04ps3un)" height="1033.1172" style="stroke:#A80036;stroke-width:1.0;" width="10" x="64.5" y="98.2969"/><rect fill="#FFFFFF" filter="url(#fe4feh04ps3un)" height="44.2656" style="stroke:#A80036;stroke-width:1.0;" width="10" x="398.5" y="134.5625"/><rect fill="#FFFFFF" filter="url(#fe4feh04ps3un)" height="662.6563" style="stroke:#A80036;stroke-width:1.0;" width="10" x="403.5" y="207.9609"/><rect fill="#FFFFFF" filter="url(#fe4feh04ps3un)" height="88.2656" style="stroke:#A80036;stroke-width:1.0;" width="10" x="403.5" y="207.9609"/><rect fill="#FFFFFF" filter="url(#fe4feh04ps3un)" height="59.1328" style="stroke:#A80036;stroke-width:1.0;" width="10" x="403.5" y="325.3594"/><rect fill="#FFFFFF" filter="url(#fe4feh04ps3un)" height="59.1328" style="stroke:#A80036;stroke-width:1.0;" width="10" x="403.5" y="473.8906"/><rect fill="#FFFFFF" filter="url(#fe4feh04ps3un)" height="240.6641" style="stroke:#A80036;stroke-width:1.0;" width="10" x="398.5" y="899.75"/><rect fill="#FFFFFF" filter="url(#fe4feh04ps3un)" height="59.1328" style="stroke:#A80036;stroke-width:1.0;" width="10" x="676.5" y="237.0938"/><rect fill="#FFFFFF" filter="url(#fe4feh04ps3un)" height="59.1328" style="stroke:#A80036;stroke-width:1.0;" width="10" x="676.5" y="325.3594"/><rect fill="#FFFFFF" filter="url(#fe4feh04ps3un)" height="59.1328" style="stroke:#A80036;stroke-width:1.0;" width="10" x="676.5" y="473.8906"/><rect fill="#FFFFFF" filter="url(#fe4feh04ps3un)" height="147.6641" style="stroke:#A80036;stroke-width:1.0;" width="10" x="676.5" y="577.2891"/><rect fill="#FFFFFF" filter="url(#fe4feh04ps3un)" height="87.3984" style="stroke:#A80036;stroke-width:1.0;" width="10" x="676.5" y="754.0859"/><rect fill="#FFFFFF" filter="url(#fe4feh04ps3un)" height="211.5313" style="stroke:#A80036;stroke-width:1.0;" width="10" x="676.5" y="928.8828"/><rect fill="#FFFFFF" filter="url(#fe4feh04ps3un)" height="30" style="stroke:#A80036;stroke-width:1.0;" width="10" x="954.5" y="266.2266"/><rect fill="#FFFFFF" filter="url(#fe4feh04ps3un)" height="30" style="stroke:#A80036;stroke-width:1.0;" width="10" x="954.5" y="354.4922"/><rect fill="#FFFFFF" filter="url(#fe4feh04ps3un)" height="30" style="stroke:#A80036;stroke-width:1.0;" width="10" x="954.5" y="503.0234"/><rect fill="#FFFFFF" filter="url(#fe4feh04ps3un)" height="44.2656" style="stroke:#A80036;stroke-width:1.0;" width="10" x="954.5" y="621.5547"/><rect fill="#FFFFFF" filter="url(#fe4feh04ps3un)" height="30" style="stroke:#A80036;stroke-width:1.0;" width="10" x="954.5" y="694.9531"/><rect fill="#FFFFFF" filter="url(#fe4feh04ps3un)" height="137.2656" style="stroke:#A80036;stroke-width:1.0;" width="10" x="954.5" y="958.0156"/><rect fill="#FFFFFF" filter="url(#fe4feh04ps3un)" height="28" style="stroke:#A80036;stroke-width:1.0;" width="10" x="959.5" y="995.1484"/><rect fill="#FFFFFF" filter="url(#fe4feh04ps3un)" height="28" style="stroke:#A80036;stroke-width:1.0;" width="10" x="959.5" y="1067.2813"/><rect fill="#FFFFFF" filter="url(#fe4feh04ps3un)" height="29.1328" style="stroke:#A80036;stroke-width:1.0;" width="10" x="1391.5" y="754.0859"/><rect fill="#FFFFFF" filter="url(#fe4feh04ps3un)" height="46.2656" style="stroke:#000000;stroke-width:2.0;" width="465.5" x="10" y="399.4922"/><line style="stroke:#A80036;stroke-width:1.0;stroke-dasharray:5.0,5.0;" x1="69" x2="69" y1="88.2969" y2="1149.4141"/><line style="stroke:#A80036;stroke-width:1.0;stroke-dasharray:5.0,5.0;" x1="403.5" x2="403.5" y1="88.2969" y2="1149.4141"/><line style="stroke:#A80036;stroke-width:1.0;stroke-dasharray:5.0,5.0;" x1="681.5" x2="681.5" y1="88.2969" y2="1149.4141"/><line style="stroke:#A80036;stroke-width:1.0;stroke-dasharray:5.0,5.0;" x1="959.5" x2="959.5" y1="88.2969" y2="1149.4141"/><line style="stroke:#A80036;stroke-width:1.0;stroke-dasharray:5.0,5.0;" x1="1236" x2="1236" y1="88.2969" y2="1149.4141"/><line style="stroke:#A80036;stroke-width:1.0;stroke-dasharray:5.0,5.0;" x1="1396" x2="1396" y1="88.2969" y2="1149.4141"/><text fill="#000000" font-family="sans-serif" font-size="14" lengthAdjust="spacing" textLength="93" x="20" y="84.9951">Receptionist</text><ellipse cx="69.5" cy="15" fill="#FEFECE" filter="url(#fe4feh04ps3un)" rx="8" ry="8" style="stroke:#A80036;stroke-width:2.0;"/><path d="M69.5,23 L69.5,50 M56.5,31 L82.5,31 M69.5,50 L56.5,65 M69.5,50 L82.5,65 " fill="none" filter="url(#fe4feh04ps3un)" style="stroke:#A80036;stroke-width:2.0;"/><text fill="#000000" font-family="sans-serif" font-size="14" lengthAdjust="spacing" textLength="93" x="20" y="1161.4092">Receptionist</text><ellipse cx="69.5" cy="1174.7109" fill="#FEFECE" filter="url(#fe4feh04ps3un)" rx="8" ry="8" style="stroke:#A80036;stroke-width:2.0;"/><path d="M69.5,1182.7109 L69.5,1209.7109 M56.5,1190.7109 L82.5,1190.7109 M69.5,1209.7109 L56.5,1224.7109 M69.5,1209.7109 L82.5,1224.7109 " fill="none" filter="url(#fe4feh04ps3un)" style="stroke:#A80036;stroke-width:2.0;"/><rect fill="#FEFECE" filter="url(#fe4feh04ps3un)" height="30.2969" style="stroke:#A80036;stroke-width:1.5;" width="120" x="341.5" y="53"/><text fill="#000000" font-family="sans-serif" font-size="14" lengthAdjust="spacing" textLength="106" x="348.5" y="72.9951">RegisterTestUI</text><rect fill="#FEFECE" filter="url(#fe4feh04ps3un)" height="30.2969" style="stroke:#A80036;stroke-width:1.5;" width="120" x="341.5" y="1148.4141"/><text fill="#000000" font-family="sans-serif" font-size="14" lengthAdjust="spacing" textLength="106" x="348.5" y="1168.4092">RegisterTestUI</text><rect fill="#FEFECE" filter="url(#fe4feh04ps3un)" height="30.2969" style="stroke:#A80036;stroke-width:1.5;" width="180" x="589.5" y="53"/><text fill="#000000" font-family="sans-serif" font-size="14" lengthAdjust="spacing" textLength="166" x="596.5" y="72.9951">RegisterTestController</text><rect fill="#FEFECE" filter="url(#fe4feh04ps3un)" height="30.2969" style="stroke:#A80036;stroke-width:1.5;" width="180" x="589.5" y="1148.4141"/><text fill="#000000" font-family="sans-serif" font-size="14" lengthAdjust="spacing" textLength="166" x="596.5" y="1168.4092">RegisterTestController</text><rect fill="#FEFECE" filter="url(#fe4feh04ps3un)" height="30.2969" style="stroke:#A80036;stroke-width:1.5;" width="82" x="916.5" y="53"/><text fill="#000000" font-family="sans-serif" font-size="14" lengthAdjust="spacing" textLength="68" x="923.5" y="72.9951">Company</text><rect fill="#FEFECE" filter="url(#fe4feh04ps3un)" height="30.2969" style="stroke:#A80036;stroke-width:1.5;" width="82" x="916.5" y="1148.4141"/><text fill="#000000" font-family="sans-serif" font-size="14" lengthAdjust="spacing" textLength="68" x="923.5" y="1168.4092">Company</text><rect fill="#FEFECE" filter="url(#fe4feh04ps3un)" height="30.2969" style="stroke:#A80036;stroke-width:1.5;" width="125" x="1172" y="53"/><text fill="#000000" font-family="sans-serif" font-size="14" lengthAdjust="spacing" textLength="111" x="1179" y="72.9951">rt:RegisterTest</text><rect fill="#FEFECE" filter="url(#fe4feh04ps3un)" height="30.2969" style="stroke:#A80036;stroke-width:1.5;" width="125" x="1172" y="1148.4141"/><text fill="#000000" font-family="sans-serif" font-size="14" lengthAdjust="spacing" textLength="111" x="1179" y="1168.4092">rt:RegisterTest</text><rect fill="#FEFECE" filter="url(#fe4feh04ps3un)" height="30.2969" style="stroke:#A80036;stroke-width:1.5;" width="167" x="1311" y="53"/><text fill="#000000" font-family="sans-serif" font-size="14" lengthAdjust="spacing" textLength="153" x="1318" y="72.9951">:RegisterTestMapper</text><rect fill="#FEFECE" filter="url(#fe4feh04ps3un)" height="30.2969" style="stroke:#A80036;stroke-width:1.5;" width="167" x="1311" y="1148.4141"/><text fill="#000000" font-family="sans-serif" font-size="14" lengthAdjust="spacing" textLength="153" x="1318" y="1168.4092">:RegisterTestMapper</text><rect fill="#FFFFFF" filter="url(#fe4feh04ps3un)" height="1033.1172" style="stroke:#A80036;stroke-width:1.0;" width="10" x="64.5" y="98.2969"/><rect fill="#FFFFFF" filter="url(#fe4feh04ps3un)" height="44.2656" style="stroke:#A80036;stroke-width:1.0;" width="10" x="398.5" y="134.5625"/><rect fill="#FFFFFF" filter="url(#fe4feh04ps3un)" height="662.6563" style="stroke:#A80036;stroke-width:1.0;" width="10" x="403.5" y="207.9609"/><rect fill="#FFFFFF" filter="url(#fe4feh04ps3un)" height="88.2656" style="stroke:#A80036;stroke-width:1.0;" width="10" x="403.5" y="207.9609"/><rect fill="#FFFFFF" filter="url(#fe4feh04ps3un)" height="59.1328" style="stroke:#A80036;stroke-width:1.0;" width="10" x="403.5" y="325.3594"/><rect fill="#FFFFFF" filter="url(#fe4feh04ps3un)" height="59.1328" style="stroke:#A80036;stroke-width:1.0;" width="10" x="403.5" y="473.8906"/><rect fill="#FFFFFF" filter="url(#fe4feh04ps3un)" height="240.6641" style="stroke:#A80036;stroke-width:1.0;" width="10" x="398.5" y="899.75"/><rect fill="#FFFFFF" filter="url(#fe4feh04ps3un)" height="59.1328" style="stroke:#A80036;stroke-width:1.0;" width="10" x="676.5" y="237.0938"/><rect fill="#FFFFFF" filter="url(#fe4feh04ps3un)" height="59.1328" style="stroke:#A80036;stroke-width:1.0;" width="10" x="676.5" y="325.3594"/><rect fill="#FFFFFF" filter="url(#fe4feh04ps3un)" height="59.1328" style="stroke:#A80036;stroke-width:1.0;" width="10" x="676.5" y="473.8906"/><rect fill="#FFFFFF" filter="url(#fe4feh04ps3un)" height="147.6641" style="stroke:#A80036;stroke-width:1.0;" width="10" x="676.5" y="577.2891"/><rect fill="#FFFFFF" filter="url(#fe4feh04ps3un)" height="87.3984" style="stroke:#A80036;stroke-width:1.0;" width="10" x="676.5" y="754.0859"/><rect fill="#FFFFFF" filter="url(#fe4feh04ps3un)" height="211.5313" style="stroke:#A80036;stroke-width:1.0;" width="10" x="676.5" y="928.8828"/><rect fill="#FFFFFF" filter="url(#fe4feh04ps3un)" height="30" style="stroke:#A80036;stroke-width:1.0;" width="10" x="954.5" y="266.2266"/><rect fill="#FFFFFF" filter="url(#fe4feh04ps3un)" height="30" style="stroke:#A80036;stroke-width:1.0;" width="10" x="954.5" y="354.4922"/><rect fill="#FFFFFF" filter="url(#fe4feh04ps3un)" height="30" style="stroke:#A80036;stroke-width:1.0;" width="10" x="954.5" y="503.0234"/><rect fill="#FFFFFF" filter="url(#fe4feh04ps3un)" height="44.2656" style="stroke:#A80036;stroke-width:1.0;" width="10" x="954.5" y="621.5547"/><rect fill="#FFFFFF" filter="url(#fe4feh04ps3un)" height="30" style="stroke:#A80036;stroke-width:1.0;" width="10" x="954.5" y="694.9531"/><rect fill="#FFFFFF" filter="url(#fe4feh04ps3un)" height="137.2656" style="stroke:#A80036;stroke-width:1.0;" width="10" x="954.5" y="958.0156"/><rect fill="#FFFFFF" filter="url(#fe4feh04ps3un)" height="28" style="stroke:#A80036;stroke-width:1.0;" width="10" x="959.5" y="995.1484"/><rect fill="#FFFFFF" filter="url(#fe4feh04ps3un)" height="28" style="stroke:#A80036;stroke-width:1.0;" width="10" x="959.5" y="1067.2813"/><rect fill="#FFFFFF" filter="url(#fe4feh04ps3un)" height="29.1328" style="stroke:#A80036;stroke-width:1.0;" width="10" x="1391.5" y="754.0859"/><polygon fill="#A80036" points="386.5,130.5625,396.5,134.5625,386.5,138.5625,390.5,134.5625" style="stroke:#A80036;stroke-width:1.0;"/><line style="stroke:#A80036;stroke-width:1.0;" x1="74.5" x2="392.5" y1="134.5625" y2="134.5625"/><text fill="#000000" font-family="sans-serif" font-size="13" font-weight="bold" lengthAdjust="spacing" textLength="9" x="81.5" y="121.9302">1</text><text fill="#000000" font-family="sans-serif" font-size="13" lengthAdjust="spacing" textLength="180" x="94.5" y="114.3638">Starts to register a new test</text><text fill="#000000" font-family="sans-serif" font-size="13" lengthAdjust="spacing" textLength="188" x="94.5" y="129.4966">to be performed by the client</text><polygon fill="#A80036" points="85.5,174.8281,75.5,178.8281,85.5,182.8281,81.5,178.8281" style="stroke:#A80036;stroke-width:1.0;"/><line style="stroke:#A80036;stroke-width:1.0;stroke-dasharray:2.0,2.0;" x1="79.5" x2="402.5" y1="178.8281" y2="178.8281"/><text fill="#000000" font-family="sans-serif" font-size="13" font-weight="bold" lengthAdjust="spacing" textLength="9" x="91.5" y="166.1958">2</text><text fill="#000000" font-family="sans-serif" font-size="13" lengthAdjust="spacing" textLength="88" x="104.5" y="158.6294">Request Data</text><text fill="#000000" font-family="sans-serif" font-size="13" lengthAdjust="spacing" textLength="232" x="104.5" y="173.7622">(i.e TIN, NHS, test type, parameters)</text><polygon fill="#A80036" points="391.5,203.9609,401.5,207.9609,391.5,211.9609,395.5,207.9609" style="stroke:#A80036;stroke-width:1.0;"/><line style="stroke:#A80036;stroke-width:1.0;" x1="74.5" x2="397.5" y1="207.9609" y2="207.9609"/><text fill="#000000" font-family="sans-serif" font-size="13" font-weight="bold" lengthAdjust="spacing" textLength="8" x="81.5" y="202.895">3</text><text fill="#000000" font-family="sans-serif" font-size="13" lengthAdjust="spacing" textLength="143" x="93.5" y="202.895">Types requested Data</text><polygon fill="#A80036" points="664.5,233.0938,674.5,237.0938,664.5,241.0938,668.5,237.0938" style="stroke:#A80036;stroke-width:1.0;"/><line style="stroke:#A80036;stroke-width:1.0;" x1="413.5" x2="670.5" y1="237.0938" y2="237.0938"/><text fill="#000000" font-family="sans-serif" font-size="13" font-weight="bold" lengthAdjust="spacing" textLength="9" x="420.5" y="232.0278">4</text><text fill="#000000" font-family="sans-serif" font-size="13" lengthAdjust="spacing" textLength="108" x="433.5" y="232.0278">validateCCN(TIN)</text><polygon fill="#A80036" points="942.5,262.2266,952.5,266.2266,942.5,270.2266,946.5,266.2266" style="stroke:#A80036;stroke-width:1.0;"/><line style="stroke:#A80036;stroke-width:1.0;" x1="686.5" x2="948.5" y1="266.2266" y2="266.2266"/><text fill="#000000" font-family="sans-serif" font-size="13" font-weight="bold" lengthAdjust="spacing" textLength="9" x="693.5" y="261.1606">5</text><text fill="#000000" font-family="sans-serif" font-size="13" lengthAdjust="spacing" textLength="89" x="706.5" y="261.1606">getClientList()</text><polygon fill="#A80036" points="664.5,321.3594,674.5,325.3594,664.5,329.3594,668.5,325.3594" style="stroke:#A80036;stroke-width:1.0;"/><line style="stroke:#A80036;stroke-width:1.0;" x1="413.5" x2="670.5" y1="325.3594" y2="325.3594"/><text fill="#000000" font-family="sans-serif" font-size="13" font-weight="bold" lengthAdjust="spacing" textLength="9" x="420.5" y="320.2935">6</text><text fill="#000000" font-family="sans-serif" font-size="13" lengthAdjust="spacing" textLength="179" x="433.5" y="320.2935">validateTestType(test type)</text><polygon fill="#A80036" points="942.5,350.4922,952.5,354.4922,942.5,358.4922,946.5,354.4922" style="stroke:#A80036;stroke-width:1.0;"/><line style="stroke:#A80036;stroke-width:1.0;" x1="686.5" x2="948.5" y1="354.4922" y2="354.4922"/><text fill="#000000" font-family="sans-serif" font-size="13" font-weight="bold" lengthAdjust="spacing" textLength="9" x="693.5" y="349.4263">7</text><text fill="#000000" font-family="sans-serif" font-size="13" lengthAdjust="spacing" textLength="113" x="706.5" y="349.4263">getTestTypeList()</text><path d="M10,399.4922 L88,399.4922 L88,406.4922 L78,416.4922 L10,416.4922 L10,399.4922 " fill="#EEEEEE" style="stroke:#000000;stroke-width:1.0;"/><rect fill="none" height="46.2656" style="stroke:#000000;stroke-width:2.0;" width="465.5" x="10" y="399.4922"/><text fill="#000000" font-family="sans-serif" font-size="13" font-weight="bold" lengthAdjust="spacing" textLength="33" x="25" y="412.5591">loop</text><text fill="#000000" font-family="sans-serif" font-size="11" font-weight="bold" lengthAdjust="spacing" textLength="101" x="103" y="411.7026">[n Parameters]</text><polygon fill="#A80036" points="386.5,433.7578,396.5,437.7578,386.5,441.7578,390.5,437.7578" style="stroke:#A80036;stroke-width:1.0;"/><line style="stroke:#A80036;stroke-width:1.0;" x1="74.5" x2="392.5" y1="437.7578" y2="437.7578"/><text fill="#000000" font-family="sans-serif" font-size="13" font-weight="bold" lengthAdjust="spacing" textLength="9" x="81.5" y="432.6919">8</text><text fill="#000000" font-family="sans-serif" font-size="13" lengthAdjust="spacing" textLength="228" x="94.5" y="432.6919">Types requested Data(parameters)</text><polygon fill="#A80036" points="664.5,469.8906,674.5,473.8906,664.5,477.8906,668.5,473.8906" style="stroke:#A80036;stroke-width:1.0;"/><line style="stroke:#A80036;stroke-width:1.0;" x1="413.5" x2="670.5" y1="473.8906" y2="473.8906"/><text fill="#000000" font-family="sans-serif" font-size="13" font-weight="bold" lengthAdjust="spacing" textLength="9" x="420.5" y="468.8247">9</text><text fill="#000000" font-family="sans-serif" font-size="13" lengthAdjust="spacing" textLength="211" x="433.5" y="468.8247">validateParameters(parameters)</text><polygon fill="#A80036" points="942.5,499.0234,952.5,503.0234,942.5,507.0234,946.5,503.0234" style="stroke:#A80036;stroke-width:1.0;"/><line style="stroke:#A80036;stroke-width:1.0;" x1="686.5" x2="948.5" y1="503.0234" y2="503.0234"/><text fill="#000000" font-family="sans-serif" font-size="13" font-weight="bold" lengthAdjust="spacing" textLength="19" x="693.5" y="497.9575">10</text><text fill="#000000" font-family="sans-serif" font-size="13" lengthAdjust="spacing" textLength="121" x="716.5" y="497.9575">getParameterList()</text><polygon fill="#A80036" points="664.5,573.2891,674.5,577.2891,664.5,581.2891,668.5,577.2891" style="stroke:#A80036;stroke-width:1.0;"/><line style="stroke:#A80036;stroke-width:1.0;" x1="408.5" x2="670.5" y1="577.2891" y2="577.2891"/><text fill="#000000" font-family="sans-serif" font-size="13" font-weight="bold" lengthAdjust="spacing" textLength="18" x="415.5" y="564.6567">11</text><text fill="#000000" font-family="sans-serif" font-size="13" lengthAdjust="spacing" textLength="86" x="437.5" y="557.0903">RegisterTest(</text><text fill="#000000" font-family="sans-serif" font-size="13" lengthAdjust="spacing" textLength="227" x="437.5" y="572.2231">i.e TIN, NHS, test type, parameters)</text><polygon fill="#A80036" points="942.5,617.5547,952.5,621.5547,942.5,625.5547,946.5,621.5547" style="stroke:#A80036;stroke-width:1.0;"/><line style="stroke:#A80036;stroke-width:1.0;" x1="686.5" x2="948.5" y1="621.5547" y2="621.5547"/><text fill="#000000" font-family="sans-serif" font-size="13" font-weight="bold" lengthAdjust="spacing" textLength="18" x="693.5" y="608.9224">12</text><text fill="#000000" font-family="sans-serif" font-size="13" lengthAdjust="spacing" textLength="114" x="715.5" y="601.356">rt = RegisterTest(</text><text fill="#000000" font-family="sans-serif" font-size="13" lengthAdjust="spacing" textLength="227" x="715.5" y="616.4888">i.e TIN, NHS, test type, parameters)</text><polygon fill="#A80036" points="1224.5,661.8203,1234.5,665.8203,1224.5,669.8203,1228.5,665.8203" style="stroke:#A80036;stroke-width:1.0;"/><line style="stroke:#A80036;stroke-width:1.0;" x1="959.5" x2="1230.5" y1="665.8203" y2="665.8203"/><text fill="#000000" font-family="sans-serif" font-size="13" font-weight="bold" lengthAdjust="spacing" textLength="17" x="966.5" y="653.188">13</text><text fill="#000000" font-family="sans-serif" font-size="13" lengthAdjust="spacing" textLength="46" x="987.5" y="645.6216">create(</text><text fill="#000000" font-family="sans-serif" font-size="13" lengthAdjust="spacing" textLength="227" x="987.5" y="660.7544">i.e TIN, NHS, test type, parameters)</text><polygon fill="#A80036" points="942.5,690.9531,952.5,694.9531,942.5,698.9531,946.5,694.9531" style="stroke:#A80036;stroke-width:1.0;"/><line style="stroke:#A80036;stroke-width:1.0;" x1="686.5" x2="948.5" y1="694.9531" y2="694.9531"/><text fill="#000000" font-family="sans-serif" font-size="13" font-weight="bold" lengthAdjust="spacing" textLength="18" x="693.5" y="689.8872">14</text><text fill="#000000" font-family="sans-serif" font-size="13" lengthAdjust="spacing" textLength="152" x="715.5" y="689.8872">validateRegisterTest(rt)</text><polygon fill="#A80036" points="1379.5,750.0859,1389.5,754.0859,1379.5,758.0859,1383.5,754.0859" style="stroke:#A80036;stroke-width:1.0;"/><line style="stroke:#A80036;stroke-width:1.0;" x1="686.5" x2="1385.5" y1="754.0859" y2="754.0859"/><text fill="#000000" font-family="sans-serif" font-size="13" font-weight="bold" lengthAdjust="spacing" textLength="18" x="693.5" y="749.02">15</text><text fill="#000000" font-family="sans-serif" font-size="13" lengthAdjust="spacing" textLength="204" x="715.5" y="749.02">mapper = newValidateMapper()</text><polygon fill="#A80036" points="1384.5,779.2188,1394.5,783.2188,1384.5,787.2188,1388.5,783.2188" style="stroke:#A80036;stroke-width:1.0;"/><line style="stroke:#A80036;stroke-width:1.0;" x1="686.5" x2="1390.5" y1="783.2188" y2="783.2188"/><text fill="#000000" font-family="sans-serif" font-size="13" font-weight="bold" lengthAdjust="spacing" textLength="18" x="693.5" y="778.1528">16</text><text fill="#000000" font-family="sans-serif" font-size="13" lengthAdjust="spacing" textLength="134" x="715.5" y="778.1528">dto = mapper.dto(rt)</text><polygon fill="#A80036" points="664.5,808.3516,674.5,812.3516,664.5,816.3516,668.5,812.3516" style="stroke:#A80036;stroke-width:1.0;"/><line style="stroke:#A80036;stroke-width:1.0;" x1="408.5" x2="670.5" y1="812.3516" y2="812.3516"/><text fill="#000000" font-family="sans-serif" font-size="13" font-weight="bold" lengthAdjust="spacing" textLength="18" x="415.5" y="807.2856">17</text><text fill="#000000" font-family="sans-serif" font-size="13" lengthAdjust="spacing" textLength="67" x="437.5" y="807.2856">showDto()</text><polygon fill="#A80036" points="669.5,837.4844,679.5,841.4844,669.5,845.4844,673.5,841.4844" style="stroke:#A80036;stroke-width:1.0;"/><line style="stroke:#A80036;stroke-width:1.0;" x1="408.5" x2="675.5" y1="841.4844" y2="841.4844"/><text fill="#000000" font-family="sans-serif" font-size="13" font-weight="bold" lengthAdjust="spacing" textLength="18" x="415.5" y="836.4185">18</text><text fill="#000000" font-family="sans-serif" font-size="13" lengthAdjust="spacing" textLength="134" x="437.5" y="836.4185">getRegisterTestList()</text><polygon fill="#A80036" points="85.5,866.6172,75.5,870.6172,85.5,874.6172,81.5,870.6172" style="stroke:#A80036;stroke-width:1.0;"/><line style="stroke:#A80036;stroke-width:1.0;stroke-dasharray:2.0,2.0;" x1="79.5" x2="402.5" y1="870.6172" y2="870.6172"/><text fill="#000000" font-family="sans-serif" font-size="13" font-weight="bold" lengthAdjust="spacing" textLength="18" x="91.5" y="865.5513">19</text><text fill="#000000" font-family="sans-serif" font-size="13" lengthAdjust="spacing" textLength="278" x="113.5" y="865.5513">Show the data and requests a confirmation</text><polygon fill="#A80036" points="386.5,895.75,396.5,899.75,386.5,903.75,390.5,899.75" style="stroke:#A80036;stroke-width:1.0;"/><line style="stroke:#A80036;stroke-width:1.0;" x1="74.5" x2="392.5" y1="899.75" y2="899.75"/><text fill="#000000" font-family="sans-serif" font-size="13" font-weight="bold" lengthAdjust="spacing" textLength="19" x="81.5" y="894.6841">20</text><text fill="#000000" font-family="sans-serif" font-size="13" lengthAdjust="spacing" textLength="116" x="104.5" y="894.6841">Confirms the data</text><polygon fill="#A80036" points="664.5,924.8828,674.5,928.8828,664.5,932.8828,668.5,928.8828" style="stroke:#A80036;stroke-width:1.0;"/><line style="stroke:#A80036;stroke-width:1.0;" x1="408.5" x2="670.5" y1="928.8828" y2="928.8828"/><text fill="#000000" font-family="sans-serif" font-size="13" font-weight="bold" lengthAdjust="spacing" textLength="18" x="415.5" y="923.8169">21</text><text fill="#000000" font-family="sans-serif" font-size="13" lengthAdjust="spacing" textLength="122" x="437.5" y="923.8169">saveRegisterTest()</text><polygon fill="#A80036" points="942.5,954.0156,952.5,958.0156,942.5,962.0156,946.5,958.0156" style="stroke:#A80036;stroke-width:1.0;"/><line style="stroke:#A80036;stroke-width:1.0;" x1="686.5" x2="948.5" y1="958.0156" y2="958.0156"/><text fill="#000000" font-family="sans-serif" font-size="13" font-weight="bold" lengthAdjust="spacing" textLength="18" x="693.5" y="952.9497">22</text><text fill="#000000" font-family="sans-serif" font-size="13" lengthAdjust="spacing" textLength="132" x="715.5" y="952.9497">saveRegisterTest(rt)</text><line style="stroke:#A80036;stroke-width:1.0;" x1="969.5" x2="1011.5" y1="987.1484" y2="987.1484"/><line style="stroke:#A80036;stroke-width:1.0;" x1="1011.5" x2="1011.5" y1="987.1484" y2="1000.1484"/><line style="stroke:#A80036;stroke-width:1.0;" x1="970.5" x2="1011.5" y1="1000.1484" y2="1000.1484"/><polygon fill="#A80036" points="980.5,996.1484,970.5,1000.1484,980.5,1004.1484,976.5,1000.1484" style="stroke:#A80036;stroke-width:1.0;"/><text fill="#000000" font-family="sans-serif" font-size="13" font-weight="bold" lengthAdjust="spacing" textLength="17" x="976.5" y="982.0825">23</text><text fill="#000000" font-family="sans-serif" font-size="13" lengthAdjust="spacing" textLength="152" x="997.5" y="982.0825">validateRegisterTest(rt)</text><line style="stroke:#A80036;stroke-width:1.0;" x1="969.5" x2="1011.5" y1="1059.2813" y2="1059.2813"/><line style="stroke:#A80036;stroke-width:1.0;" x1="1011.5" x2="1011.5" y1="1059.2813" y2="1072.2813"/><line style="stroke:#A80036;stroke-width:1.0;" x1="970.5" x2="1011.5" y1="1072.2813" y2="1072.2813"/><polygon fill="#A80036" points="980.5,1068.2813,970.5,1072.2813,980.5,1076.2813,976.5,1072.2813" style="stroke:#A80036;stroke-width:1.0;"/><text fill="#000000" font-family="sans-serif" font-size="13" font-weight="bold" lengthAdjust="spacing" textLength="18" x="976.5" y="1054.2153">24</text><text fill="#000000" font-family="sans-serif" font-size="13" lengthAdjust="spacing" textLength="125" x="998.5" y="1054.2153">addRegisterTest(rt)</text><polygon fill="#A80036" points="80.5,1127.4141,70.5,1131.4141,80.5,1135.4141,76.5,1131.4141" style="stroke:#A80036;stroke-width:1.0;"/><line style="stroke:#A80036;stroke-width:1.0;stroke-dasharray:2.0,2.0;" x1="74.5" x2="397.5" y1="1131.4141" y2="1131.4141"/><text fill="#000000" font-family="sans-serif" font-size="13" font-weight="bold" lengthAdjust="spacing" textLength="18" x="86.5" y="1126.3481">25</text><text fill="#000000" font-family="sans-serif" font-size="13" lengthAdjust="spacing" textLength="169" x="108.5" y="1126.3481">Informs operation success</text><!--MD5=[2aa18cdaf46ddc26e1b8b55c7fc447c5]
@startuml
actor Receptionist
autonumber
activate Receptionist
Receptionist->RegisterTestUI: Starts to register a new test\nto be performed by the client
activate RegisterTestUI
Receptionist<- -RegisterTestUI:Request Data\n(i.e TIN, NHS, test type, parameters)

deactivate RegisterTestUI

Receptionist->RegisterTestUI:Types requested Data
activate RegisterTestUI
activate RegisterTestUI
RegisterTestUI->RegisterTestController:validateCCN(TIN)
activate RegisterTestController
RegisterTestController->Company:getClientList()
activate Company
deactivate RegisterTestController
deactivate RegisterTestUI
deactivate Company
RegisterTestUI->RegisterTestController:validateTestType(test type)
activate RegisterTestUI
activate RegisterTestController
RegisterTestController->Company:getTestTypeList()
activate Company
deactivate RegisterTestUI

deactivate RegisterTestController
deactivate Company
loop n Parameters
Receptionist->RegisterTestUI:Types requested Data(parameters)
end
RegisterTestUI->RegisterTestController:validateParameters(parameters)
activate RegisterTestUI
activate RegisterTestController
RegisterTestController->Company:getParameterList()
activate Company
deactivate Company
deactivate RegisterTestUI
deactivate Company
deactivate RegisterTestController

RegisterTestUI->RegisterTestController:RegisterTest(\ni.e TIN, NHS, test type, parameters)
activate RegisterTestController
RegisterTestController->Company:rt = RegisterTest(\ni.e TIN, NHS, test type, parameters)
activate Company
Company->"rt:RegisterTest":create(\ni.e TIN, NHS, test type, parameters)
deactivate Company
RegisterTestController->Company:validateRegisterTest(rt)



activate Company

deactivate Company
deactivate RegisterTestController
deactivate Company
RegisterTestController->":RegisterTestMapper":mapper = newValidateMapper()
activate RegisterTestController
activate ":RegisterTestMapper"
RegisterTestController->":RegisterTestMapper":dto = mapper.dto(rt)
deactivate ":RegisterTestMapper"
RegisterTestUI->RegisterTestController:showDto()
RegisterTestUI->RegisterTestController:getRegisterTestList()
deactivate RegisterTestController
Receptionist<- -RegisterTestUI:Show the data and requests a confirmation
deactivate RegisterTestUI

Receptionist->RegisterTestUI:Confirms the data
activate RegisterTestUI
RegisterTestUI->RegisterTestController:saveRegisterTest()
activate RegisterTestController
RegisterTestController->Company:saveRegisterTest(rt)
activate Company
Company->Company:validateRegisterTest(rt)
activate Company
deactivate Company

Company->Company:addRegisterTest(rt)
activate Company
deactivate Company
deactivate Company
deactivate Company
Receptionist<- -RegisterTestUI:Informs operation success
deactivate Receptionist
@enduml

PlantUML version 1.2021.7(Sun May 23 12:40:07 UTC 2021)
(GPL source distribution)
Java Runtime: Java(TM) SE Runtime Environment
JVM: Java HotSpot(TM) 64-Bit Server VM
Default Encoding: UTF-8
Language: en
Country: US
--></g></svg>