<?xml version="1.0" encoding="UTF-8" standalone="no"?><svg xmlns="http://www.w3.org/2000/svg" xmlns:xlink="http://www.w3.org/1999/xlink" contentScriptType="application/ecmascript" contentStyleType="text/css" height="457px" preserveAspectRatio="none" style="width:439px;height:457px;background:#FFFFFF;" version="1.1" viewBox="0 0 439 457" width="439px" zoomAndPan="magnify"><defs><filter height="300%" id="f1p5o746743v27" width="300%" x="-1" y="-1"><feGaussianBlur result="blurOut" stdDeviation="2.0"/><feColorMatrix in="blurOut" result="blurOut2" type="matrix" values="0 0 0 0 0 0 0 0 0 0 0 0 0 0 0 0 0 0 .4 0"/><feOffset dx="4.0" dy="4.0" in="blurOut2" result="blurOut3"/><feBlend in="SourceGraphic" in2="blurOut3" mode="normal"/></filter></defs><g><rect fill="#FFFFFF" filter="url(#f1p5o746743v27)" height="44.2656" style="stroke:#A80036;stroke-width:1.0;" width="10" x="371.5" y="134.5625"/><rect fill="#FFFFFF" filter="url(#f1p5o746743v27)" height="89.3984" style="stroke:#A80036;stroke-width:1.0;" width="10" x="371.5" y="207.9609"/><rect fill="#FFFFFF" filter="url(#f1p5o746743v27)" height="29.1328" style="stroke:#A80036;stroke-width:1.0;" width="10" x="371.5" y="326.4922"/><rect fill="#FFFFFF" filter="url(#f1p5o746743v27)" height="46.2656" style="stroke:#000000;stroke-width:2.0;" width="415" x="10" y="222.9609"/><line style="stroke:#A80036;stroke-width:1.0;stroke-dasharray:5.0,5.0;" x1="69" x2="69" y1="88.2969" y2="373.625"/><line style="stroke:#A80036;stroke-width:1.0;stroke-dasharray:5.0,5.0;" x1="376" x2="376" y1="88.2969" y2="373.625"/><text fill="#000000" font-family="sans-serif" font-size="14" lengthAdjust="spacing" textLength="93" x="20" y="84.9951">Receptionist</text><ellipse cx="69.5" cy="15" fill="#FEFECE" filter="url(#f1p5o746743v27)" rx="8" ry="8" style="stroke:#A80036;stroke-width:2.0;"/><path d="M69.5,23 L69.5,50 M56.5,31 L82.5,31 M69.5,50 L56.5,65 M69.5,50 L82.5,65 " fill="none" filter="url(#f1p5o746743v27)" style="stroke:#A80036;stroke-width:2.0;"/><text fill="#000000" font-family="sans-serif" font-size="14" lengthAdjust="spacing" textLength="93" x="20" y="385.6201">Receptionist</text><ellipse cx="69.5" cy="398.9219" fill="#FEFECE" filter="url(#f1p5o746743v27)" rx="8" ry="8" style="stroke:#A80036;stroke-width:2.0;"/><path d="M69.5,406.9219 L69.5,433.9219 M56.5,414.9219 L82.5,414.9219 M69.5,433.9219 L56.5,448.9219 M69.5,433.9219 L82.5,448.9219 " fill="none" filter="url(#f1p5o746743v27)" style="stroke:#A80036;stroke-width:2.0;"/><rect fill="#FEFECE" filter="url(#f1p5o746743v27)" height="30.2969" style="stroke:#A80036;stroke-width:1.5;" width="73" x="338" y="53"/><text fill="#000000" font-family="sans-serif" font-size="14" lengthAdjust="spacing" textLength="59" x="345" y="72.9951">:System</text><rect fill="#FEFECE" filter="url(#f1p5o746743v27)" height="30.2969" style="stroke:#A80036;stroke-width:1.5;" width="73" x="338" y="372.625"/><text fill="#000000" font-family="sans-serif" font-size="14" lengthAdjust="spacing" textLength="59" x="345" y="392.6201">:System</text><rect fill="#FFFFFF" filter="url(#f1p5o746743v27)" height="44.2656" style="stroke:#A80036;stroke-width:1.0;" width="10" x="371.5" y="134.5625"/><rect fill="#FFFFFF" filter="url(#f1p5o746743v27)" height="89.3984" style="stroke:#A80036;stroke-width:1.0;" width="10" x="371.5" y="207.9609"/><rect fill="#FFFFFF" filter="url(#f1p5o746743v27)" height="29.1328" style="stroke:#A80036;stroke-width:1.0;" width="10" x="371.5" y="326.4922"/><polygon fill="#A80036" points="359.5,130.5625,369.5,134.5625,359.5,138.5625,363.5,134.5625" style="stroke:#A80036;stroke-width:1.0;"/><line style="stroke:#A80036;stroke-width:1.0;" x1="69.5" x2="365.5" y1="134.5625" y2="134.5625"/><text fill="#000000" font-family="sans-serif" font-size="13" lengthAdjust="spacing" textLength="180" x="76.5" y="114.3638">Starts to register a new test</text><text fill="#000000" font-family="sans-serif" font-size="13" lengthAdjust="spacing" textLength="188" x="76.5" y="129.4966">to be performed by the client</text><polygon fill="#A80036" points="80.5,174.8281,70.5,178.8281,80.5,182.8281,76.5,178.8281" style="stroke:#A80036;stroke-width:1.0;"/><line style="stroke:#A80036;stroke-width:1.0;stroke-dasharray:2.0,2.0;" x1="74.5" x2="375.5" y1="178.8281" y2="178.8281"/><text fill="#000000" font-family="sans-serif" font-size="13" lengthAdjust="spacing" textLength="88" x="86.5" y="158.6294">Request Data</text><text fill="#000000" font-family="sans-serif" font-size="13" lengthAdjust="spacing" textLength="232" x="86.5" y="173.7622">(i.e TIN, NHS, test type, parameters)</text><polygon fill="#A80036" points="359.5,203.9609,369.5,207.9609,359.5,211.9609,363.5,207.9609" style="stroke:#A80036;stroke-width:1.0;"/><line style="stroke:#A80036;stroke-width:1.0;" x1="69.5" x2="365.5" y1="207.9609" y2="207.9609"/><text fill="#000000" font-family="sans-serif" font-size="13" lengthAdjust="spacing" textLength="141" x="76.5" y="202.895">Types requested data</text><path d="M10,222.9609 L88,222.9609 L88,229.9609 L78,239.9609 L10,239.9609 L10,222.9609 " fill="#EEEEEE" style="stroke:#000000;stroke-width:1.0;"/><rect fill="none" height="46.2656" style="stroke:#000000;stroke-width:2.0;" width="415" x="10" y="222.9609"/><text fill="#000000" font-family="sans-serif" font-size="13" font-weight="bold" lengthAdjust="spacing" textLength="33" x="25" y="236.0278">loop</text><text fill="#000000" font-family="sans-serif" font-size="11" font-weight="bold" lengthAdjust="spacing" textLength="101" x="103" y="235.1714">[n Parameters]</text><polygon fill="#A80036" points="359.5,257.2266,369.5,261.2266,359.5,265.2266,363.5,261.2266" style="stroke:#A80036;stroke-width:1.0;"/><line style="stroke:#A80036;stroke-width:1.0;" x1="69.5" x2="365.5" y1="261.2266" y2="261.2266"/><text fill="#000000" font-family="sans-serif" font-size="13" lengthAdjust="spacing" textLength="226" x="76.5" y="256.1606">Types requested data(Parameters)</text><polygon fill="#A80036" points="80.5,293.3594,70.5,297.3594,80.5,301.3594,76.5,297.3594" style="stroke:#A80036;stroke-width:1.0;"/><line style="stroke:#A80036;stroke-width:1.0;stroke-dasharray:2.0,2.0;" x1="74.5" x2="375.5" y1="297.3594" y2="297.3594"/><text fill="#000000" font-family="sans-serif" font-size="13" lengthAdjust="spacing" textLength="278" x="86.5" y="292.2935">Show the data and requests a confirmation</text><polygon fill="#A80036" points="359.5,322.4922,369.5,326.4922,359.5,330.4922,363.5,326.4922" style="stroke:#A80036;stroke-width:1.0;"/><line style="stroke:#A80036;stroke-width:1.0;" x1="69.5" x2="365.5" y1="326.4922" y2="326.4922"/><text fill="#000000" font-family="sans-serif" font-size="13" lengthAdjust="spacing" textLength="116" x="76.5" y="321.4263">Confirms the data</text><polygon fill="#A80036" points="80.5,351.625,70.5,355.625,80.5,359.625,76.5,355.625" style="stroke:#A80036;stroke-width:1.0;"/><line style="stroke:#A80036;stroke-width:1.0;stroke-dasharray:2.0,2.0;" x1="74.5" x2="375.5" y1="355.625" y2="355.625"/><text fill="#000000" font-family="sans-serif" font-size="13" lengthAdjust="spacing" textLength="169" x="86.5" y="350.5591">Informs operation success</text><!--MD5=[d4bb0e4daf697fc958859b6de51d7d09]
@startuml
actor Receptionist
Receptionist->":System":Starts to register a new test\nto be performed by the client
activate ":System"
Receptionist<- -":System":Request Data\n(i.e TIN, NHS, test type, parameters)
deactivate ":System"
Receptionist->":System":Types requested data
activate ":System"
loop n Parameters
Receptionist->":System":Types requested data(Parameters)
end
Receptionist<- -":System":Show the data and requests a confirmation
deactivate ":System"
Receptionist->":System":Confirms the data
activate ":System"
Receptionist<- -":System":Informs operation success
deactivate ":System"
@enduml

PlantUML version 1.2021.7(Sun May 23 12:40:07 UTC 2021)
(GPL source distribution)
Java Runtime: Java(TM) SE Runtime Environment
JVM: Java HotSpot(TM) 64-Bit Server VM
Default Encoding: UTF-8
Language: en
Country: US
--></g></svg>