<?xml version="1.0" encoding="UTF-8" standalone="no"?><svg xmlns="http://www.w3.org/2000/svg" xmlns:xlink="http://www.w3.org/1999/xlink" contentScriptType="application/ecmascript" contentStyleType="text/css" height="601px" preserveAspectRatio="none" style="width:1004px;height:601px;" version="1.1" viewBox="0 0 1004 601" width="1004px" zoomAndPan="magnify"><defs><filter height="300%" id="fplt1vcr44gp5" width="300%" x="-1" y="-1"><feGaussianBlur result="blurOut" stdDeviation="2.0"/><feColorMatrix in="blurOut" result="blurOut2" type="matrix" values="0 0 0 0 0 0 0 0 0 0 0 0 0 0 0 0 0 0 .4 0"/><feOffset dx="4.0" dy="4.0" in="blurOut2" result="blurOut3"/><feBlend in="SourceGraphic" in2="blurOut3" mode="normal"/></filter></defs><g><!--MD5=[087080c1c19f14e82fd51cad7b5d4fe4]
class CheckingTestsUI--><rect codeLine="3" fill="#FEFECE" filter="url(#fplt1vcr44gp5)" height="48" id="CheckingTestsUI" style="stroke:#A80036;stroke-width:1.5;" width="127" x="254.5" y="62.66"/><ellipse cx="269.5" cy="78.66" fill="#ADD1B2" rx="11" ry="11" style="stroke:#A80036;stroke-width:1.0;"/><path d="M271.5,75.16 Q271.7031,74.66 271.9375,74.41 Q272.1719,74.16 272.4375,74.16 Q272.9063,74.16 273.2031,74.4412 Q273.5,74.7225 273.5,75.3787 L273.5,76.9412 Q273.5,77.5975 273.2188,77.8787 Q272.9375,78.16 272.5,78.16 Q272.1094,78.16 271.8594,77.9881 Q271.6094,77.8162 271.5,77.3631 Q271.4531,77.0506 271.2813,76.8787 Q270.9688,76.5506 270.4063,76.3631 Q269.8438,76.16 269.2813,76.16 Q268.5781,76.16 267.9844,76.4412 Q267.4063,76.7225 266.9531,77.3475 Q266.5,77.9725 266.5,78.8319 L266.5,79.7537 Q266.5,80.785 267.3438,81.4725 Q268.1875,82.16 269.6875,82.16 Q270.5781,82.16 271.2031,81.9569 Q271.5625,81.8475 271.9688,81.4881 Q272.2344,81.285 272.375,81.2225 Q272.5156,81.16 272.6875,81.16 Q273.0156,81.16 273.25,81.4256 Q273.5,81.6756 273.5,82.035 Q273.5,82.3787 273.1563,82.785 Q272.6563,83.3787 271.8594,83.7069 Q270.8125,84.16 269.5313,84.16 Q268.0313,84.16 266.8281,83.5662 Q265.8594,83.0975 265.1719,82.0819 Q264.5,81.0662 264.5,79.8631 L264.5,78.7694 Q264.5,77.5194 265.0938,76.4256 Q265.7031,75.3319 266.75,74.7537 Q267.8125,74.16 269,74.16 Q269.7188,74.16 270.3438,74.41 Q270.9688,74.66 271.5,75.16 Z " fill="#000000"/><text fill="#000000" font-family="sans-serif" font-size="12" lengthAdjust="spacing" textLength="95" x="283.5" y="83.5702">CheckingTestsUI</text><line style="stroke:#A80036;stroke-width:1.5;" x1="255.5" x2="380.5" y1="94.66" y2="94.66"/><line style="stroke:#A80036;stroke-width:1.5;" x1="255.5" x2="380.5" y1="102.66" y2="102.66"/><!--MD5=[10bc126502c243ba4ae2d070e2b96d85]
class ShowClientsController--><rect codeLine="4" fill="#FEFECE" filter="url(#fplt1vcr44gp5)" height="75.6719" id="ShowClientsController" style="stroke:#A80036;stroke-width:1.5;" width="156" x="240" y="178.66"/><ellipse cx="255" cy="194.66" fill="#ADD1B2" rx="11" ry="11" style="stroke:#A80036;stroke-width:1.0;"/><path d="M257,191.16 Q257.2031,190.66 257.4375,190.41 Q257.6719,190.16 257.9375,190.16 Q258.4063,190.16 258.7031,190.4412 Q259,190.7225 259,191.3787 L259,192.9412 Q259,193.5975 258.7188,193.8787 Q258.4375,194.16 258,194.16 Q257.6094,194.16 257.3594,193.9881 Q257.1094,193.8162 257,193.3631 Q256.9531,193.0506 256.7813,192.8787 Q256.4688,192.5506 255.9063,192.3631 Q255.3438,192.16 254.7813,192.16 Q254.0781,192.16 253.4844,192.4412 Q252.9063,192.7225 252.4531,193.3475 Q252,193.9725 252,194.8319 L252,195.7537 Q252,196.785 252.8438,197.4725 Q253.6875,198.16 255.1875,198.16 Q256.0781,198.16 256.7031,197.9569 Q257.0625,197.8475 257.4688,197.4881 Q257.7344,197.285 257.875,197.2225 Q258.0156,197.16 258.1875,197.16 Q258.5156,197.16 258.75,197.4256 Q259,197.6756 259,198.035 Q259,198.3787 258.6563,198.785 Q258.1563,199.3787 257.3594,199.7069 Q256.3125,200.16 255.0313,200.16 Q253.5313,200.16 252.3281,199.5662 Q251.3594,199.0975 250.6719,198.0819 Q250,197.0662 250,195.8631 L250,194.7694 Q250,193.5194 250.5938,192.4256 Q251.2031,191.3319 252.25,190.7537 Q253.3125,190.16 254.5,190.16 Q255.2188,190.16 255.8438,190.41 Q256.4688,190.66 257,191.16 Z " fill="#000000"/><text fill="#000000" font-family="sans-serif" font-size="12" lengthAdjust="spacing" textLength="124" x="269" y="199.5702">ShowClientsController</text><line style="stroke:#A80036;stroke-width:1.5;" x1="241" x2="395" y1="210.66" y2="210.66"/><line style="stroke:#A80036;stroke-width:1.5;" x1="241" x2="395" y1="218.66" y2="218.66"/><text fill="#000000" font-family="sans-serif" font-size="11" lengthAdjust="spacing" textLength="51" x="246" y="234.0789">+initialize()</text><text fill="#000000" font-family="sans-serif" font-size="11" lengthAdjust="spacing" textLength="132" x="246" y="247.9149">+checkTestDetailsResults()</text><!--MD5=[392a7ab9b716fff51313012fd4565a94]
class CheckingTestsController--><rect codeLine="8" fill="#FEFECE" filter="url(#fplt1vcr44gp5)" height="89.5078" id="CheckingTestsController" style="stroke:#A80036;stroke-width:1.5;" width="169" x="461.5" y="315.66"/><ellipse cx="476.5" cy="331.66" fill="#ADD1B2" rx="11" ry="11" style="stroke:#A80036;stroke-width:1.0;"/><path d="M478.5,328.16 Q478.7031,327.66 478.9375,327.41 Q479.1719,327.16 479.4375,327.16 Q479.9063,327.16 480.2031,327.4412 Q480.5,327.7225 480.5,328.3787 L480.5,329.9412 Q480.5,330.5975 480.2188,330.8787 Q479.9375,331.16 479.5,331.16 Q479.1094,331.16 478.8594,330.9881 Q478.6094,330.8162 478.5,330.3631 Q478.4531,330.0506 478.2813,329.8787 Q477.9688,329.5506 477.4063,329.3631 Q476.8438,329.16 476.2813,329.16 Q475.5781,329.16 474.9844,329.4412 Q474.4063,329.7225 473.9531,330.3475 Q473.5,330.9725 473.5,331.8319 L473.5,332.7537 Q473.5,333.785 474.3438,334.4725 Q475.1875,335.16 476.6875,335.16 Q477.5781,335.16 478.2031,334.9569 Q478.5625,334.8475 478.9688,334.4881 Q479.2344,334.285 479.375,334.2225 Q479.5156,334.16 479.6875,334.16 Q480.0156,334.16 480.25,334.4256 Q480.5,334.6756 480.5,335.035 Q480.5,335.3787 480.1563,335.785 Q479.6563,336.3787 478.8594,336.7069 Q477.8125,337.16 476.5313,337.16 Q475.0313,337.16 473.8281,336.5662 Q472.8594,336.0975 472.1719,335.0819 Q471.5,334.0662 471.5,332.8631 L471.5,331.7694 Q471.5,330.5194 472.0938,329.4256 Q472.7031,328.3319 473.75,327.7537 Q474.8125,327.16 476,327.16 Q476.7188,327.16 477.3438,327.41 Q477.9688,327.66 478.5,328.16 Z " fill="#000000"/><text fill="#000000" font-family="sans-serif" font-size="12" lengthAdjust="spacing" textLength="137" x="490.5" y="336.5702">CheckingTestsController</text><line style="stroke:#A80036;stroke-width:1.5;" x1="462.5" x2="629.5" y1="347.66" y2="347.66"/><line style="stroke:#A80036;stroke-width:1.5;" x1="462.5" x2="629.5" y1="355.66" y2="355.66"/><text fill="#000000" font-family="sans-serif" font-size="11" lengthAdjust="spacing" textLength="118" x="467.5" y="371.0789">+getOrderedClientsList()</text><text fill="#000000" font-family="sans-serif" font-size="11" lengthAdjust="spacing" textLength="106" x="467.5" y="384.9149">+getClientsValidated()</text><text fill="#000000" font-family="sans-serif" font-size="11" lengthAdjust="spacing" textLength="122" x="467.5" y="398.7508">+getResultOfClient(client)</text><!--MD5=[02e4b9b7573f1156f41e60aa5b4e25a4]
class Company--><rect codeLine="13" fill="#FEFECE" filter="url(#fplt1vcr44gp5)" height="103.3438" id="Company" style="stroke:#A80036;stroke-width:1.5;" width="132" x="7" y="483.66"/><ellipse cx="43.15" cy="499.66" fill="#ADD1B2" rx="11" ry="11" style="stroke:#A80036;stroke-width:1.0;"/><path d="M45.15,496.16 Q45.3531,495.66 45.5875,495.41 Q45.8219,495.16 46.0875,495.16 Q46.5563,495.16 46.8531,495.4412 Q47.15,495.7225 47.15,496.3787 L47.15,497.9412 Q47.15,498.5975 46.8688,498.8787 Q46.5875,499.16 46.15,499.16 Q45.7594,499.16 45.5094,498.9881 Q45.2594,498.8162 45.15,498.3631 Q45.1031,498.0506 44.9313,497.8787 Q44.6188,497.5506 44.0563,497.3631 Q43.4938,497.16 42.9313,497.16 Q42.2281,497.16 41.6344,497.4412 Q41.0563,497.7225 40.6031,498.3475 Q40.15,498.9725 40.15,499.8319 L40.15,500.7537 Q40.15,501.785 40.9938,502.4725 Q41.8375,503.16 43.3375,503.16 Q44.2281,503.16 44.8531,502.9569 Q45.2125,502.8475 45.6188,502.4881 Q45.8844,502.285 46.025,502.2225 Q46.1656,502.16 46.3375,502.16 Q46.6656,502.16 46.9,502.4256 Q47.15,502.6756 47.15,503.035 Q47.15,503.3787 46.8063,503.785 Q46.3063,504.3787 45.5094,504.7069 Q44.4625,505.16 43.1813,505.16 Q41.6813,505.16 40.4781,504.5662 Q39.5094,504.0975 38.8219,503.0819 Q38.15,502.0662 38.15,500.8631 L38.15,499.7694 Q38.15,498.5194 38.7438,497.4256 Q39.3531,496.3319 40.4,495.7537 Q41.4625,495.16 42.65,495.16 Q43.3688,495.16 43.9938,495.41 Q44.6188,495.66 45.15,496.16 Z " fill="#000000"/><text fill="#000000" font-family="sans-serif" font-size="12" lengthAdjust="spacing" textLength="53" x="61.85" y="504.5702">Company</text><line style="stroke:#A80036;stroke-width:1.5;" x1="8" x2="138" y1="515.66" y2="515.66"/><line style="stroke:#A80036;stroke-width:1.5;" x1="8" x2="138" y1="523.66" y2="523.66"/><text fill="#000000" font-family="sans-serif" font-size="11" lengthAdjust="spacing" textLength="81" x="13" y="539.0789">+getClientStore()</text><text fill="#000000" font-family="sans-serif" font-size="11" lengthAdjust="spacing" textLength="94" x="13" y="552.9149">+getValidateStore()</text><text fill="#000000" font-family="sans-serif" font-size="11" lengthAdjust="spacing" textLength="120" x="13" y="566.7508">+getCheckingTestStore()</text><text fill="#000000" font-family="sans-serif" font-size="11" lengthAdjust="spacing" textLength="120" x="13" y="580.5868">+getRecordResultStore()</text><!--MD5=[ba35ae546f0531c5ba753a653500d32d]
class ValidateStore--><rect codeLine="19" fill="#FEFECE" filter="url(#fplt1vcr44gp5)" height="61.8359" id="ValidateStore" style="stroke:#A80036;stroke-width:1.5;" width="105" x="203.5" y="504.16"/><ellipse cx="218.5" cy="520.16" fill="#ADD1B2" rx="11" ry="11" style="stroke:#A80036;stroke-width:1.0;"/><path d="M220.5,516.66 Q220.7031,516.16 220.9375,515.91 Q221.1719,515.66 221.4375,515.66 Q221.9063,515.66 222.2031,515.9413 Q222.5,516.2225 222.5,516.8788 L222.5,518.4413 Q222.5,519.0975 222.2188,519.3788 Q221.9375,519.66 221.5,519.66 Q221.1094,519.66 220.8594,519.4881 Q220.6094,519.3163 220.5,518.8631 Q220.4531,518.5506 220.2813,518.3788 Q219.9688,518.0506 219.4063,517.8631 Q218.8438,517.66 218.2813,517.66 Q217.5781,517.66 216.9844,517.9413 Q216.4063,518.2225 215.9531,518.8475 Q215.5,519.4725 215.5,520.3319 L215.5,521.2538 Q215.5,522.285 216.3438,522.9725 Q217.1875,523.66 218.6875,523.66 Q219.5781,523.66 220.2031,523.4569 Q220.5625,523.3475 220.9688,522.9881 Q221.2344,522.785 221.375,522.7225 Q221.5156,522.66 221.6875,522.66 Q222.0156,522.66 222.25,522.9256 Q222.5,523.1756 222.5,523.535 Q222.5,523.8788 222.1563,524.285 Q221.6563,524.8788 220.8594,525.2069 Q219.8125,525.66 218.5313,525.66 Q217.0313,525.66 215.8281,525.0663 Q214.8594,524.5975 214.1719,523.5819 Q213.5,522.5663 213.5,521.3631 L213.5,520.2694 Q213.5,519.0194 214.0938,517.9256 Q214.7031,516.8319 215.75,516.2538 Q216.8125,515.66 218,515.66 Q218.7188,515.66 219.3438,515.91 Q219.9688,516.16 220.5,516.66 Z " fill="#000000"/><text fill="#000000" font-family="sans-serif" font-size="12" lengthAdjust="spacing" textLength="73" x="232.5" y="525.0702">ValidateStore</text><line style="stroke:#A80036;stroke-width:1.5;" x1="204.5" x2="307.5" y1="536.16" y2="536.16"/><line style="stroke:#A80036;stroke-width:1.5;" x1="204.5" x2="307.5" y1="544.16" y2="544.16"/><text fill="#000000" font-family="sans-serif" font-size="11" lengthAdjust="spacing" textLength="91" x="209.5" y="559.5789">+getValidatedList()</text><!--MD5=[55cb992be19579b505cea3c5691093cb]
class ClientStore--><rect codeLine="22" fill="#FEFECE" filter="url(#fplt1vcr44gp5)" height="61.8359" id="ClientStore" style="stroke:#A80036;stroke-width:1.5;" width="93" x="525.5" y="504.16"/><ellipse cx="540.5" cy="520.16" fill="#ADD1B2" rx="11" ry="11" style="stroke:#A80036;stroke-width:1.0;"/><path d="M542.5,516.66 Q542.7031,516.16 542.9375,515.91 Q543.1719,515.66 543.4375,515.66 Q543.9063,515.66 544.2031,515.9413 Q544.5,516.2225 544.5,516.8788 L544.5,518.4413 Q544.5,519.0975 544.2188,519.3788 Q543.9375,519.66 543.5,519.66 Q543.1094,519.66 542.8594,519.4881 Q542.6094,519.3163 542.5,518.8631 Q542.4531,518.5506 542.2813,518.3788 Q541.9688,518.0506 541.4063,517.8631 Q540.8438,517.66 540.2813,517.66 Q539.5781,517.66 538.9844,517.9413 Q538.4063,518.2225 537.9531,518.8475 Q537.5,519.4725 537.5,520.3319 L537.5,521.2538 Q537.5,522.285 538.3438,522.9725 Q539.1875,523.66 540.6875,523.66 Q541.5781,523.66 542.2031,523.4569 Q542.5625,523.3475 542.9688,522.9881 Q543.2344,522.785 543.375,522.7225 Q543.5156,522.66 543.6875,522.66 Q544.0156,522.66 544.25,522.9256 Q544.5,523.1756 544.5,523.535 Q544.5,523.8788 544.1563,524.285 Q543.6563,524.8788 542.8594,525.2069 Q541.8125,525.66 540.5313,525.66 Q539.0313,525.66 537.8281,525.0663 Q536.8594,524.5975 536.1719,523.5819 Q535.5,522.5663 535.5,521.3631 L535.5,520.2694 Q535.5,519.0194 536.0938,517.9256 Q536.7031,516.8319 537.75,516.2538 Q538.8125,515.66 540,515.66 Q540.7188,515.66 541.3438,515.91 Q541.9688,516.16 542.5,516.66 Z " fill="#000000"/><text fill="#000000" font-family="sans-serif" font-size="12" lengthAdjust="spacing" textLength="61" x="554.5" y="525.0702">ClientStore</text><line style="stroke:#A80036;stroke-width:1.5;" x1="526.5" x2="617.5" y1="536.16" y2="536.16"/><line style="stroke:#A80036;stroke-width:1.5;" x1="526.5" x2="617.5" y1="544.16" y2="544.16"/><text fill="#000000" font-family="sans-serif" font-size="11" lengthAdjust="spacing" textLength="72" x="531.5" y="559.5789">+getClientList()</text><!--MD5=[c96209c71c28440498b348b6f5fb51b1]
class SortingAlgorithm--><rect codeLine="25" fill="#FEFECE" filter="url(#fplt1vcr44gp5)" height="61.8359" id="SortingAlgorithm" style="stroke:#A80036;stroke-width:1.5;" width="126" x="864" y="504.16"/><ellipse cx="880.35" cy="520.16" fill="#ADD1B2" rx="11" ry="11" style="stroke:#A80036;stroke-width:1.0;"/><path d="M882.35,516.66 Q882.5531,516.16 882.7875,515.91 Q883.0219,515.66 883.2875,515.66 Q883.7563,515.66 884.0531,515.9413 Q884.35,516.2225 884.35,516.8788 L884.35,518.4413 Q884.35,519.0975 884.0688,519.3788 Q883.7875,519.66 883.35,519.66 Q882.9594,519.66 882.7094,519.4881 Q882.4594,519.3163 882.35,518.8631 Q882.3031,518.5506 882.1313,518.3788 Q881.8188,518.0506 881.2563,517.8631 Q880.6938,517.66 880.1313,517.66 Q879.4281,517.66 878.8344,517.9413 Q878.2563,518.2225 877.8031,518.8475 Q877.35,519.4725 877.35,520.3319 L877.35,521.2538 Q877.35,522.285 878.1938,522.9725 Q879.0375,523.66 880.5375,523.66 Q881.4281,523.66 882.0531,523.4569 Q882.4125,523.3475 882.8188,522.9881 Q883.0844,522.785 883.225,522.7225 Q883.3656,522.66 883.5375,522.66 Q883.8656,522.66 884.1,522.9256 Q884.35,523.1756 884.35,523.535 Q884.35,523.8788 884.0063,524.285 Q883.5063,524.8788 882.7094,525.2069 Q881.6625,525.66 880.3813,525.66 Q878.8813,525.66 877.6781,525.0663 Q876.7094,524.5975 876.0219,523.5819 Q875.35,522.5663 875.35,521.3631 L875.35,520.2694 Q875.35,519.0194 875.9438,517.9256 Q876.5531,516.8319 877.6,516.2538 Q878.6625,515.66 879.85,515.66 Q880.5688,515.66 881.1938,515.91 Q881.8188,516.16 882.35,516.66 Z " fill="#000000"/><text fill="#000000" font-family="sans-serif" font-size="12" lengthAdjust="spacing" textLength="91" x="894.65" y="525.0702">SortingAlgorithm</text><line style="stroke:#A80036;stroke-width:1.5;" x1="865" x2="989" y1="536.16" y2="536.16"/><line style="stroke:#A80036;stroke-width:1.5;" x1="865" x2="989" y1="544.16" y2="544.16"/><text fill="#000000" font-family="sans-serif" font-size="11" lengthAdjust="spacing" textLength="114" x="870" y="559.5789">+orderClients(clientList)</text><!--MD5=[d9af5e34e5bc78cd5a2caff02363fedd]
class ClientMapper--><rect codeLine="28" fill="#FEFECE" filter="url(#fplt1vcr44gp5)" height="61.8359" id="ClientMapper" style="stroke:#A80036;stroke-width:1.5;" width="105" x="457.5" y="55.66"/><ellipse cx="472.5" cy="71.66" fill="#ADD1B2" rx="11" ry="11" style="stroke:#A80036;stroke-width:1.0;"/><path d="M474.5,68.16 Q474.7031,67.66 474.9375,67.41 Q475.1719,67.16 475.4375,67.16 Q475.9063,67.16 476.2031,67.4412 Q476.5,67.7225 476.5,68.3787 L476.5,69.9412 Q476.5,70.5975 476.2188,70.8787 Q475.9375,71.16 475.5,71.16 Q475.1094,71.16 474.8594,70.9881 Q474.6094,70.8162 474.5,70.3631 Q474.4531,70.0506 474.2813,69.8787 Q473.9688,69.5506 473.4063,69.3631 Q472.8438,69.16 472.2813,69.16 Q471.5781,69.16 470.9844,69.4412 Q470.4063,69.7225 469.9531,70.3475 Q469.5,70.9725 469.5,71.8319 L469.5,72.7537 Q469.5,73.785 470.3438,74.4725 Q471.1875,75.16 472.6875,75.16 Q473.5781,75.16 474.2031,74.9569 Q474.5625,74.8475 474.9688,74.4881 Q475.2344,74.285 475.375,74.2225 Q475.5156,74.16 475.6875,74.16 Q476.0156,74.16 476.25,74.4256 Q476.5,74.6756 476.5,75.035 Q476.5,75.3787 476.1563,75.785 Q475.6563,76.3787 474.8594,76.7069 Q473.8125,77.16 472.5313,77.16 Q471.0313,77.16 469.8281,76.5662 Q468.8594,76.0975 468.1719,75.0819 Q467.5,74.0662 467.5,72.8631 L467.5,71.7694 Q467.5,70.5194 468.0938,69.4256 Q468.7031,68.3319 469.75,67.7537 Q470.8125,67.16 472,67.16 Q472.7188,67.16 473.3438,67.41 Q473.9688,67.66 474.5,68.16 Z " fill="#000000"/><text fill="#000000" font-family="sans-serif" font-size="12" lengthAdjust="spacing" textLength="73" x="486.5" y="76.5702">ClientMapper</text><line style="stroke:#A80036;stroke-width:1.5;" x1="458.5" x2="561.5" y1="87.66" y2="87.66"/><line style="stroke:#A80036;stroke-width:1.5;" x1="458.5" x2="561.5" y1="95.66" y2="95.66"/><text fill="#000000" font-family="sans-serif" font-size="11" lengthAdjust="spacing" textLength="86" x="463.5" y="111.0789">+toDTO(clientList)</text><!--MD5=[18da2eb51254a626e466617bcbdfcca6]
class ShowResultsController--><rect codeLine="31" fill="#FEFECE" filter="url(#fplt1vcr44gp5)" height="75.6719" id="ShowResultsController" style="stroke:#A80036;stroke-width:1.5;" width="160" x="12" y="322.66"/><ellipse cx="27" cy="338.66" fill="#ADD1B2" rx="11" ry="11" style="stroke:#A80036;stroke-width:1.0;"/><path d="M29,335.16 Q29.2031,334.66 29.4375,334.41 Q29.6719,334.16 29.9375,334.16 Q30.4063,334.16 30.7031,334.4412 Q31,334.7225 31,335.3787 L31,336.9412 Q31,337.5975 30.7188,337.8787 Q30.4375,338.16 30,338.16 Q29.6094,338.16 29.3594,337.9881 Q29.1094,337.8162 29,337.3631 Q28.9531,337.0506 28.7813,336.8787 Q28.4688,336.5506 27.9063,336.3631 Q27.3438,336.16 26.7813,336.16 Q26.0781,336.16 25.4844,336.4412 Q24.9063,336.7225 24.4531,337.3475 Q24,337.9725 24,338.8319 L24,339.7537 Q24,340.785 24.8438,341.4725 Q25.6875,342.16 27.1875,342.16 Q28.0781,342.16 28.7031,341.9569 Q29.0625,341.8475 29.4688,341.4881 Q29.7344,341.285 29.875,341.2225 Q30.0156,341.16 30.1875,341.16 Q30.5156,341.16 30.75,341.4256 Q31,341.6756 31,342.035 Q31,342.3787 30.6563,342.785 Q30.1563,343.3787 29.3594,343.7069 Q28.3125,344.16 27.0313,344.16 Q25.5313,344.16 24.3281,343.5662 Q23.3594,343.0975 22.6719,342.0819 Q22,341.0662 22,339.8631 L22,338.7694 Q22,337.5194 22.5938,336.4256 Q23.2031,335.3319 24.25,334.7537 Q25.3125,334.16 26.5,334.16 Q27.2188,334.16 27.8438,334.41 Q28.4688,334.66 29,335.16 Z " fill="#000000"/><text fill="#000000" font-family="sans-serif" font-size="12" lengthAdjust="spacing" textLength="128" x="41" y="343.5702">ShowResultsController</text><line style="stroke:#A80036;stroke-width:1.5;" x1="13" x2="171" y1="354.66" y2="354.66"/><line style="stroke:#A80036;stroke-width:1.5;" x1="13" x2="171" y1="362.66" y2="362.66"/><text fill="#000000" font-family="sans-serif" font-size="11" lengthAdjust="spacing" textLength="55" x="18" y="378.0789">+setClient()</text><text fill="#000000" font-family="sans-serif" font-size="11" lengthAdjust="spacing" textLength="51" x="18" y="391.9149">+initialize()</text><!--MD5=[0a24a5852fd4a1cb5a7e23f71b7ad617]
class CheckingTestsStore--><rect codeLine="35" fill="#FEFECE" filter="url(#fplt1vcr44gp5)" height="61.8359" id="CheckingTestsStore" style="stroke:#A80036;stroke-width:1.5;" width="175" x="653.5" y="504.16"/><ellipse cx="682.45" cy="520.16" fill="#ADD1B2" rx="11" ry="11" style="stroke:#A80036;stroke-width:1.0;"/><path d="M684.45,516.66 Q684.6531,516.16 684.8875,515.91 Q685.1219,515.66 685.3875,515.66 Q685.8563,515.66 686.1531,515.9413 Q686.45,516.2225 686.45,516.8788 L686.45,518.4413 Q686.45,519.0975 686.1688,519.3788 Q685.8875,519.66 685.45,519.66 Q685.0594,519.66 684.8094,519.4881 Q684.5594,519.3163 684.45,518.8631 Q684.4031,518.5506 684.2313,518.3788 Q683.9188,518.0506 683.3563,517.8631 Q682.7938,517.66 682.2313,517.66 Q681.5281,517.66 680.9344,517.9413 Q680.3563,518.2225 679.9031,518.8475 Q679.45,519.4725 679.45,520.3319 L679.45,521.2538 Q679.45,522.285 680.2938,522.9725 Q681.1375,523.66 682.6375,523.66 Q683.5281,523.66 684.1531,523.4569 Q684.5125,523.3475 684.9188,522.9881 Q685.1844,522.785 685.325,522.7225 Q685.4656,522.66 685.6375,522.66 Q685.9656,522.66 686.2,522.9256 Q686.45,523.1756 686.45,523.535 Q686.45,523.8788 686.1063,524.285 Q685.6063,524.8788 684.8094,525.2069 Q683.7625,525.66 682.4813,525.66 Q680.9813,525.66 679.7781,525.0663 Q678.8094,524.5975 678.1219,523.5819 Q677.45,522.5663 677.45,521.3631 L677.45,520.2694 Q677.45,519.0194 678.0438,517.9256 Q678.6531,516.8319 679.7,516.2538 Q680.7625,515.66 681.95,515.66 Q682.6688,515.66 683.2938,515.91 Q683.9188,516.16 684.45,516.66 Z " fill="#000000"/><text fill="#000000" font-family="sans-serif" font-size="12" lengthAdjust="spacing" textLength="112" x="699.55" y="525.0702">CheckingTestsStore</text><line style="stroke:#A80036;stroke-width:1.5;" x1="654.5" x2="827.5" y1="536.16" y2="536.16"/><line style="stroke:#A80036;stroke-width:1.5;" x1="654.5" x2="827.5" y1="544.16" y2="544.16"/><text fill="#000000" font-family="sans-serif" font-size="11" lengthAdjust="spacing" textLength="163" x="659.5" y="559.5789">+getResultOfClient(client.getTIN())</text><!--MD5=[4d8f450a69726129155477674cc4d30e]
class RecordResultStore--><rect codeLine="38" fill="#FEFECE" filter="url(#fplt1vcr44gp5)" height="61.8359" id="RecordResultStore" style="stroke:#A80036;stroke-width:1.5;" width="146" x="344" y="504.16"/><ellipse cx="363.05" cy="520.16" fill="#ADD1B2" rx="11" ry="11" style="stroke:#A80036;stroke-width:1.0;"/><path d="M365.05,516.66 Q365.2531,516.16 365.4875,515.91 Q365.7219,515.66 365.9875,515.66 Q366.4563,515.66 366.7531,515.9413 Q367.05,516.2225 367.05,516.8788 L367.05,518.4413 Q367.05,519.0975 366.7688,519.3788 Q366.4875,519.66 366.05,519.66 Q365.6594,519.66 365.4094,519.4881 Q365.1594,519.3163 365.05,518.8631 Q365.0031,518.5506 364.8313,518.3788 Q364.5188,518.0506 363.9563,517.8631 Q363.3938,517.66 362.8313,517.66 Q362.1281,517.66 361.5344,517.9413 Q360.9563,518.2225 360.5031,518.8475 Q360.05,519.4725 360.05,520.3319 L360.05,521.2538 Q360.05,522.285 360.8938,522.9725 Q361.7375,523.66 363.2375,523.66 Q364.1281,523.66 364.7531,523.4569 Q365.1125,523.3475 365.5188,522.9881 Q365.7844,522.785 365.925,522.7225 Q366.0656,522.66 366.2375,522.66 Q366.5656,522.66 366.8,522.9256 Q367.05,523.1756 367.05,523.535 Q367.05,523.8788 366.7063,524.285 Q366.2063,524.8788 365.4094,525.2069 Q364.3625,525.66 363.0813,525.66 Q361.5813,525.66 360.3781,525.0663 Q359.4094,524.5975 358.7219,523.5819 Q358.05,522.5663 358.05,521.3631 L358.05,520.2694 Q358.05,519.0194 358.6438,517.9256 Q359.2531,516.8319 360.3,516.2538 Q361.3625,515.66 362.55,515.66 Q363.2688,515.66 363.8938,515.91 Q364.5188,516.16 365.05,516.66 Z " fill="#000000"/><text fill="#000000" font-family="sans-serif" font-size="12" lengthAdjust="spacing" textLength="105" x="377.95" y="525.0702">RecordResultStore</text><line style="stroke:#A80036;stroke-width:1.5;" x1="345" x2="489" y1="536.16" y2="536.16"/><line style="stroke:#A80036;stroke-width:1.5;" x1="345" x2="489" y1="544.16" y2="544.16"/><text fill="#000000" font-family="sans-serif" font-size="11" lengthAdjust="spacing" textLength="134" x="350" y="559.5789">+getTestResultsWithTests()</text><!--MD5=[b97c1cf86f4d83816f9e31902b458415]
class TestDetailsResultsMapper--><rect codeLine="41" fill="#FEFECE" filter="url(#fplt1vcr44gp5)" height="61.8359" id="TestDetailsResultsMapper" style="stroke:#A80036;stroke-width:1.5;" width="179" x="247.5" y="329.66"/><ellipse cx="262.5" cy="345.66" fill="#ADD1B2" rx="11" ry="11" style="stroke:#A80036;stroke-width:1.0;"/><path d="M264.5,342.16 Q264.7031,341.66 264.9375,341.41 Q265.1719,341.16 265.4375,341.16 Q265.9063,341.16 266.2031,341.4412 Q266.5,341.7225 266.5,342.3787 L266.5,343.9412 Q266.5,344.5975 266.2188,344.8787 Q265.9375,345.16 265.5,345.16 Q265.1094,345.16 264.8594,344.9881 Q264.6094,344.8162 264.5,344.3631 Q264.4531,344.0506 264.2813,343.8787 Q263.9688,343.5506 263.4063,343.3631 Q262.8438,343.16 262.2813,343.16 Q261.5781,343.16 260.9844,343.4412 Q260.4063,343.7225 259.9531,344.3475 Q259.5,344.9725 259.5,345.8319 L259.5,346.7537 Q259.5,347.785 260.3438,348.4725 Q261.1875,349.16 262.6875,349.16 Q263.5781,349.16 264.2031,348.9569 Q264.5625,348.8475 264.9688,348.4881 Q265.2344,348.285 265.375,348.2225 Q265.5156,348.16 265.6875,348.16 Q266.0156,348.16 266.25,348.4256 Q266.5,348.6756 266.5,349.035 Q266.5,349.3787 266.1563,349.785 Q265.6563,350.3787 264.8594,350.7069 Q263.8125,351.16 262.5313,351.16 Q261.0313,351.16 259.8281,350.5662 Q258.8594,350.0975 258.1719,349.0819 Q257.5,348.0662 257.5,346.8631 L257.5,345.7694 Q257.5,344.5194 258.0938,343.4256 Q258.7031,342.3319 259.75,341.7537 Q260.8125,341.16 262,341.16 Q262.7188,341.16 263.3438,341.41 Q263.9688,341.66 264.5,342.16 Z " fill="#000000"/><text fill="#000000" font-family="sans-serif" font-size="12" lengthAdjust="spacing" textLength="147" x="276.5" y="350.5702">TestDetailsResultsMapper</text><line style="stroke:#A80036;stroke-width:1.5;" x1="248.5" x2="425.5" y1="361.66" y2="361.66"/><line style="stroke:#A80036;stroke-width:1.5;" x1="248.5" x2="425.5" y1="369.66" y2="369.66"/><text fill="#000000" font-family="sans-serif" font-size="11" lengthAdjust="spacing" textLength="44" x="253.5" y="385.0789">+toDTO()</text><!--MD5=[3148edbe2915b5c695712a6a48cf5199]
class CheckingTestsMapper--><rect fill="#FEFECE" filter="url(#fplt1vcr44gp5)" height="48" id="CheckingTestsMapper" style="stroke:#A80036;stroke-width:1.5;" width="156" x="598" y="62.66"/><ellipse cx="613" cy="78.66" fill="#ADD1B2" rx="11" ry="11" style="stroke:#A80036;stroke-width:1.0;"/><path d="M615,75.16 Q615.2031,74.66 615.4375,74.41 Q615.6719,74.16 615.9375,74.16 Q616.4063,74.16 616.7031,74.4412 Q617,74.7225 617,75.3787 L617,76.9412 Q617,77.5975 616.7188,77.8787 Q616.4375,78.16 616,78.16 Q615.6094,78.16 615.3594,77.9881 Q615.1094,77.8162 615,77.3631 Q614.9531,77.0506 614.7813,76.8787 Q614.4688,76.5506 613.9063,76.3631 Q613.3438,76.16 612.7813,76.16 Q612.0781,76.16 611.4844,76.4412 Q610.9063,76.7225 610.4531,77.3475 Q610,77.9725 610,78.8319 L610,79.7537 Q610,80.785 610.8438,81.4725 Q611.6875,82.16 613.1875,82.16 Q614.0781,82.16 614.7031,81.9569 Q615.0625,81.8475 615.4688,81.4881 Q615.7344,81.285 615.875,81.2225 Q616.0156,81.16 616.1875,81.16 Q616.5156,81.16 616.75,81.4256 Q617,81.6756 617,82.035 Q617,82.3787 616.6563,82.785 Q616.1563,83.3787 615.3594,83.7069 Q614.3125,84.16 613.0313,84.16 Q611.5313,84.16 610.3281,83.5662 Q609.3594,83.0975 608.6719,82.0819 Q608,81.0662 608,79.8631 L608,78.7694 Q608,77.5194 608.5938,76.4256 Q609.2031,75.3319 610.25,74.7537 Q611.3125,74.16 612.5,74.16 Q613.2188,74.16 613.8438,74.41 Q614.4688,74.66 615,75.16 Z " fill="#000000"/><text fill="#000000" font-family="sans-serif" font-size="12" lengthAdjust="spacing" textLength="124" x="627" y="83.5702">CheckingTestsMapper</text><line style="stroke:#A80036;stroke-width:1.5;" x1="599" x2="753" y1="94.66" y2="94.66"/><line style="stroke:#A80036;stroke-width:1.5;" x1="599" x2="753" y1="102.66" y2="102.66"/><!--MD5=[6c5943c90dcf29a80da5b6753b914c40]
link CheckingTestsUI to ShowClientsController--><path codeLine="46" d="M318,110.84 C318,128.24 318,152.55 318,173.38 " fill="none" id="CheckingTestsUI-to-ShowClientsController" style="stroke:#A80036;stroke-width:1.0;stroke-dasharray:7.0,7.0;"/><polygon fill="#A80036" points="318,178.59,322,169.59,318,173.59,314,169.59,318,178.59" style="stroke:#A80036;stroke-width:1.0;"/><!--MD5=[4606552b25d0cb8e4d79ac0d85896b7f]
link ShowClientsController to ShowResultsController--><path codeLine="47" d="M258.92,254.78 C227.12,274.76 187.9,299.41 155.46,319.79 " fill="none" id="ShowClientsController-to-ShowResultsController" style="stroke:#A80036;stroke-width:1.0;stroke-dasharray:7.0,7.0;"/><polygon fill="#A80036" points="151.13,322.51,160.8752,321.0848,155.3571,319.8395,156.6024,314.3214,151.13,322.51" style="stroke:#A80036;stroke-width:1.0;"/><!--MD5=[a68036f2ed53e82ee25813899b6d09ee]
link CheckingTestsController to Company--><path codeLine="48" d="M461.5,400.25 C455.64,402.26 449.77,404.09 444,405.66 C339.41,434.08 302.33,394.68 202,435.66 C176.21,446.19 151.11,463.28 130,480.28 " fill="none" id="CheckingTestsController-to-Company" style="stroke:#A80036;stroke-width:1.0;stroke-dasharray:7.0,7.0;"/><polygon fill="#A80036" points="126.11,483.45,135.6127,480.862,129.9849,480.29,130.5568,474.6622,126.11,483.45" style="stroke:#A80036;stroke-width:1.0;"/><!--MD5=[01d0348885c274324b13581cff4fabac]
link Company to CheckingTestsStore--><path codeLine="49" d="M139.23,500.87 C154.28,494.24 170.43,488.02 186,483.66 C318.58,446.56 357.22,434.98 494,450.66 C558.37,458.04 574.96,461.92 636,483.66 C650.26,488.74 665.13,495.23 679.03,501.88 " fill="none" id="Company-to-CheckingTestsStore" style="stroke:#A80036;stroke-width:1.0;"/><polygon fill="#A80036" points="683.7,504.14,677.3327,496.6262,679.1969,501.9671,673.856,503.8312,683.7,504.14" style="stroke:#A80036;stroke-width:1.0;"/><text fill="#000000" font-family="sans-serif" font-size="13" lengthAdjust="spacing" textLength="28" x="465" y="450.1551">uses</text><!--MD5=[a11230341c8e65219708844feaa40162]
link Company to ClientStore--><path codeLine="50" d="M139.18,484.19 C160.62,470.56 185.27,457.67 210,450.66 C229.58,445.11 416.8,445.09 508,483.66 C517.93,487.86 527.58,494.07 536.25,500.74 " fill="none" id="Company-to-ClientStore" style="stroke:#A80036;stroke-width:1.0;"/><polygon fill="#A80036" points="540.42,504.05,535.8326,495.3348,536.4949,500.9527,530.8769,501.615,540.42,504.05" style="stroke:#A80036;stroke-width:1.0;"/><text fill="#000000" font-family="sans-serif" font-size="13" lengthAdjust="spacing" textLength="28" x="211" y="450.1551">uses</text><!--MD5=[1adbe75fe27471c948f09b3a8a2e446f]
link Company to RecordResultStore--><path codeLine="51" d="M139.33,485.5 C183.81,458.34 243.94,433.42 298,450.66 C328.91,460.52 358.66,481.65 380.69,500.31 " fill="none" id="Company-to-RecordResultStore" style="stroke:#A80036;stroke-width:1.0;"/><polygon fill="#A80036" points="384.71,503.77,380.4799,494.8759,380.9137,500.516,375.2735,500.9499,384.71,503.77" style="stroke:#A80036;stroke-width:1.0;"/><text fill="#000000" font-family="sans-serif" font-size="13" lengthAdjust="spacing" textLength="28" x="269" y="450.1551">uses</text><!--MD5=[77f3e0a9603fba82903e0a21972bd168]
link Company to ValidateStore--><path codeLine="52" d="M139.07,535.16 C158.34,535.16 179.26,535.16 198,535.16 " fill="none" id="Company-to-ValidateStore" style="stroke:#A80036;stroke-width:1.0;"/><polygon fill="#A80036" points="203.22,535.16,194.22,531.16,198.22,535.16,194.22,539.16,203.22,535.16" style="stroke:#A80036;stroke-width:1.0;"/><text fill="#000000" font-family="sans-serif" font-size="13" lengthAdjust="spacing" textLength="28" x="157.25" y="528.6551">uses</text><!--MD5=[e2ef5d60e26be8b2bdaa125c3726c124]
link ShowClientsController to CheckingTestsController--><path codeLine="53" d="M377.61,254.78 C406.03,272.48 440.34,293.85 470.56,312.67 " fill="none" id="ShowClientsController-to-CheckingTestsController" style="stroke:#A80036;stroke-width:1.0;stroke-dasharray:7.0,7.0;"/><polygon fill="#A80036" points="474.98,315.43,469.4557,307.2764,470.736,312.7864,465.2259,314.0668,474.98,315.43" style="stroke:#A80036;stroke-width:1.0;"/><!--MD5=[7aa88cf2a8ba5a42c25ae1b957853ad0]
link CheckingTestsController to SortingAlgorithm--><path codeLine="54" d="M630.8,391.7 C691.85,414.39 775.51,447.69 846,483.66 C856.33,488.93 867.07,495.1 877.22,501.27 " fill="none" id="CheckingTestsController-to-SortingAlgorithm" style="stroke:#A80036;stroke-width:1.0;stroke-dasharray:7.0,7.0;"/><polygon fill="#A80036" points="881.53,503.92,875.9539,495.8017,877.2693,501.3035,871.7675,502.6189,881.53,503.92" style="stroke:#A80036;stroke-width:1.0;"/><text fill="#000000" font-family="sans-serif" font-size="13" lengthAdjust="spacing" textLength="28" x="782" y="450.1551">uses</text><!--MD5=[b56af5aca9504d32ff4270b5c35a278d]
link CheckingTestsUI to CheckingTestsMapper--><path codeLine="55" d="M358.82,62.63 C388.42,46.66 430.03,27.11 469.5,18.66 C528.61,6 594.59,35.8 635.7,59.88 " fill="none" id="CheckingTestsUI-to-CheckingTestsMapper" style="stroke:#A80036;stroke-width:1.0;"/><polygon fill="#A80036" points="640.09,62.49,634.399,54.4518,635.7925,59.9343,630.31,61.3278,640.09,62.49" style="stroke:#A80036;stroke-width:1.0;"/><text fill="#000000" font-family="sans-serif" font-size="13" lengthAdjust="spacing" textLength="39" x="470.5" y="22.1551">adopts</text><!--MD5=[2c6e708dd1f509d74eb858b0fb2fc65c]
link CheckingTestsUI to ClientMapper--><path codeLine="56" d="M381.67,86.66 C404.4,86.66 429.88,86.66 452.11,86.66 " fill="none" id="CheckingTestsUI-to-ClientMapper" style="stroke:#A80036;stroke-width:1.0;"/><polygon fill="#A80036" points="457.39,86.66,448.39,82.66,452.39,86.66,448.39,90.66,457.39,86.66" style="stroke:#A80036;stroke-width:1.0;"/><text fill="#000000" font-family="sans-serif" font-size="13" lengthAdjust="spacing" textLength="39" x="400" y="80.1551">adopts</text><!--MD5=[ecb7445892d4a96031bd343ed8283f00]
link ShowResultsController to TestDetailsResultsMapper--><path codeLine="57" d="M172.22,360.66 C194.54,360.66 218.99,360.66 242.06,360.66 " fill="none" id="ShowResultsController-to-TestDetailsResultsMapper" style="stroke:#A80036;stroke-width:1.0;"/><polygon fill="#A80036" points="247.27,360.66,238.27,356.66,242.27,360.66,238.27,364.66,247.27,360.66" style="stroke:#A80036;stroke-width:1.0;"/><text fill="#000000" font-family="sans-serif" font-size="13" lengthAdjust="spacing" textLength="39" x="190.25" y="354.1551">adopts</text><!--MD5=[62551492a430543d0adfed1d24b1fa64]
@startuml
skinparam classAttributeIconSize 0

class CheckingTestsUI
class ShowClientsController{
{method}+initialize()
{method}+checkTestDetailsResults()
}
class CheckingTestsController{
{method}+getOrderedClientsList()
{method}+getClientsValidated()
{method}+getResultOfClient(client)
}
class Company{
{method}+getClientStore()
{method}+getValidateStore()
{method}+getCheckingTestStore()
{method}+getRecordResultStore()
}
class ValidateStore{
{method}+getValidatedList()
}
class ClientStore{
{method}+getClientList()
}
class SortingAlgorithm{
{method}+orderClients(clientList)
}
class ClientMapper{
{method}+toDTO(clientList)
}
class ShowResultsController{
{method}+setClient()
{method}+initialize()
}
class CheckingTestsStore{
{method}+getResultOfClient(client.getTIN())
}
class RecordResultStore{
{method}+getTestResultsWithTests()
}
class TestDetailsResultsMapper{
{method}+toDTO()
}


CheckingTestsUI ..> ShowClientsController
ShowClientsController ..> ShowResultsController
CheckingTestsController ..> Company
Company -> CheckingTestsStore: uses
Company -> ClientStore: uses
Company -> RecordResultStore: uses
Company -> ValidateStore: uses
ShowClientsController ..> CheckingTestsController
CheckingTestsController ..> SortingAlgorithm: uses
CheckingTestsUI -> CheckingTestsMapper: adopts
CheckingTestsUI -> ClientMapper: adopts
ShowResultsController -> TestDetailsResultsMapper: adopts
@enduml

PlantUML version 1.2021.5(Sun Apr 25 12:20:28 BST 2021)
(GPL source distribution)
Java Runtime: OpenJDK Runtime Environment
JVM: Dynamic Code Evolution 64-Bit Server VM
Default Encoding: Cp1252
Language: en
Country: US
--></g></svg>