<?xml version="1.0" encoding="UTF-8" standalone="no"?><svg xmlns="http://www.w3.org/2000/svg" xmlns:xlink="http://www.w3.org/1999/xlink" contentScriptType="application/ecmascript" contentStyleType="text/css" height="243px" preserveAspectRatio="none" style="width:916px;height:243px;" version="1.1" viewBox="0 0 916 243" width="916px" zoomAndPan="magnify"><defs><filter height="300%" id="f1l7cghaiwi6l3" width="300%" x="-1" y="-1"><feGaussianBlur result="blurOut" stdDeviation="2.0"/><feColorMatrix in="blurOut" result="blurOut2" type="matrix" values="0 0 0 0 0 0 0 0 0 0 0 0 0 0 0 0 0 0 .4 0"/><feOffset dx="4.0" dy="4.0" in="blurOut2" result="blurOut3"/><feBlend in="SourceGraphic" in2="blurOut3" mode="normal"/></filter></defs><g><!--MD5=[012ee2a8bf3ae2b319009b06f951c2e5]
class ClinicalChemistryTechnologist--><rect codeLine="2" fill="#FEFECE" filter="url(#f1l7cghaiwi6l3)" height="144.8516" id="ClinicalChemistryTechnologist" style="stroke:#A80036;stroke-width:1.5;" width="200" x="553" y="70.84"/><ellipse cx="568" cy="86.84" fill="#ADD1B2" rx="11" ry="11" style="stroke:#A80036;stroke-width:1.0;"/><path d="M570,83.34 Q570.2031,82.84 570.4375,82.59 Q570.6719,82.34 570.9375,82.34 Q571.4063,82.34 571.7031,82.6213 Q572,82.9025 572,83.5588 L572,85.1213 Q572,85.7775 571.7188,86.0588 Q571.4375,86.34 571,86.34 Q570.6094,86.34 570.3594,86.1681 Q570.1094,85.9963 570,85.5431 Q569.9531,85.2306 569.7813,85.0588 Q569.4688,84.7306 568.9063,84.5431 Q568.3438,84.34 567.7813,84.34 Q567.0781,84.34 566.4844,84.6213 Q565.9063,84.9025 565.4531,85.5275 Q565,86.1525 565,87.0119 L565,87.9338 Q565,88.965 565.8438,89.6525 Q566.6875,90.34 568.1875,90.34 Q569.0781,90.34 569.7031,90.1369 Q570.0625,90.0275 570.4688,89.6681 Q570.7344,89.465 570.875,89.4025 Q571.0156,89.34 571.1875,89.34 Q571.5156,89.34 571.75,89.6056 Q572,89.8556 572,90.215 Q572,90.5588 571.6563,90.965 Q571.1563,91.5588 570.3594,91.8869 Q569.3125,92.34 568.0313,92.34 Q566.5313,92.34 565.3281,91.7463 Q564.3594,91.2775 563.6719,90.2619 Q563,89.2463 563,88.0431 L563,86.9494 Q563,85.6994 563.5938,84.6056 Q564.2031,83.5119 565.25,82.9338 Q566.3125,82.34 567.5,82.34 Q568.2188,82.34 568.8438,82.59 Q569.4688,82.84 570,83.34 Z " fill="#000000"/><text fill="#000000" font-family="sans-serif" font-size="12" lengthAdjust="spacing" textLength="168" x="582" y="91.7502">ClinicalChemistryTechnologist</text><line style="stroke:#A80036;stroke-width:1.5;" x1="554" x2="752" y1="102.84" y2="102.84"/><text fill="#000000" font-family="sans-serif" font-size="11" lengthAdjust="spacing" textLength="62" x="559" y="118.2589">-Employee ID</text><text fill="#000000" font-family="sans-serif" font-size="11" lengthAdjust="spacing" textLength="89" x="559" y="132.0949">-Organization Role</text><text fill="#000000" font-family="sans-serif" font-size="11" lengthAdjust="spacing" textLength="31" x="559" y="145.9308">-Name</text><text fill="#000000" font-family="sans-serif" font-size="11" lengthAdjust="spacing" textLength="46" x="559" y="159.7668">-Address</text><text fill="#000000" font-family="sans-serif" font-size="11" lengthAdjust="spacing" textLength="32" x="559" y="173.6027">-E-mail</text><text fill="#000000" font-family="sans-serif" font-size="11" lengthAdjust="spacing" textLength="74" x="559" y="187.4386">-Phone Number</text><text fill="#000000" font-family="sans-serif" font-size="11" lengthAdjust="spacing" textLength="54" x="559" y="201.2746">-SOC Code</text><line style="stroke:#A80036;stroke-width:1.5;" x1="554" x2="752" y1="207.6916" y2="207.6916"/><!--MD5=[ed6624c6556d5e7b1bd23032162d20b7]
class Client--><rect codeLine="11" fill="#FEFECE" filter="url(#f1l7cghaiwi6l3)" height="172.5234" id="Client" style="stroke:#A80036;stroke-width:1.5;" width="114" x="788" y="56.84"/><ellipse cx="825.5" cy="72.84" fill="#ADD1B2" rx="11" ry="11" style="stroke:#A80036;stroke-width:1.0;"/><path d="M827.5,69.34 Q827.7031,68.84 827.9375,68.59 Q828.1719,68.34 828.4375,68.34 Q828.9063,68.34 829.2031,68.6213 Q829.5,68.9025 829.5,69.5588 L829.5,71.1213 Q829.5,71.7775 829.2188,72.0588 Q828.9375,72.34 828.5,72.34 Q828.1094,72.34 827.8594,72.1681 Q827.6094,71.9963 827.5,71.5431 Q827.4531,71.2306 827.2813,71.0588 Q826.9688,70.7306 826.4063,70.5431 Q825.8438,70.34 825.2813,70.34 Q824.5781,70.34 823.9844,70.6213 Q823.4063,70.9025 822.9531,71.5275 Q822.5,72.1525 822.5,73.0119 L822.5,73.9338 Q822.5,74.965 823.3438,75.6525 Q824.1875,76.34 825.6875,76.34 Q826.5781,76.34 827.2031,76.1369 Q827.5625,76.0275 827.9688,75.6681 Q828.2344,75.465 828.375,75.4025 Q828.5156,75.34 828.6875,75.34 Q829.0156,75.34 829.25,75.6056 Q829.5,75.8556 829.5,76.215 Q829.5,76.5588 829.1563,76.965 Q828.6563,77.5588 827.8594,77.8869 Q826.8125,78.34 825.5313,78.34 Q824.0313,78.34 822.8281,77.7463 Q821.8594,77.2775 821.1719,76.2619 Q820.5,75.2463 820.5,74.0431 L820.5,72.9494 Q820.5,71.6994 821.0938,70.6056 Q821.7031,69.5119 822.75,68.9338 Q823.8125,68.34 825,68.34 Q825.7188,68.34 826.3438,68.59 Q826.9688,68.84 827.5,69.34 Z " fill="#000000"/><text fill="#000000" font-family="sans-serif" font-size="12" lengthAdjust="spacing" textLength="32" x="844.5" y="77.7502">Client</text><line style="stroke:#A80036;stroke-width:1.5;" x1="789" x2="901" y1="88.84" y2="88.84"/><text fill="#000000" font-family="sans-serif" font-size="11" lengthAdjust="spacing" textLength="31" x="794" y="104.2589">-Name</text><text fill="#000000" font-family="sans-serif" font-size="11" lengthAdjust="spacing" textLength="23" x="794" y="118.0949">-Sex</text><text fill="#000000" font-family="sans-serif" font-size="11" lengthAdjust="spacing" textLength="102" x="794" y="131.9308">-Citizen Card Number</text><text fill="#000000" font-family="sans-serif" font-size="11" lengthAdjust="spacing" textLength="65" x="794" y="145.7668">-NHS Number</text><text fill="#000000" font-family="sans-serif" font-size="11" lengthAdjust="spacing" textLength="51" x="794" y="159.6027">-Birth Date</text><text fill="#000000" font-family="sans-serif" font-size="11" lengthAdjust="spacing" textLength="23" x="794" y="173.4386">-Sex</text><text fill="#000000" font-family="sans-serif" font-size="11" lengthAdjust="spacing" textLength="18" x="794" y="187.2746">-TIF</text><text fill="#000000" font-family="sans-serif" font-size="11" lengthAdjust="spacing" textLength="74" x="794" y="201.1105">-Phone Number</text><text fill="#000000" font-family="sans-serif" font-size="11" lengthAdjust="spacing" textLength="32" x="794" y="214.9464">-E-mail</text><line style="stroke:#A80036;stroke-width:1.5;" x1="789" x2="901" y1="221.3634" y2="221.3634"/><!--MD5=[df38be88ccee13e832d6fafd6288a4ca]
class Test--><rect codeLine="22" fill="#FEFECE" filter="url(#f1l7cghaiwi6l3)" height="117.1797" id="Test" style="stroke:#A80036;stroke-width:1.5;" width="108" x="289" y="84.84"/><ellipse cx="327.4" cy="100.84" fill="#ADD1B2" rx="11" ry="11" style="stroke:#A80036;stroke-width:1.0;"/><path d="M329.4,97.34 Q329.6031,96.84 329.8375,96.59 Q330.0719,96.34 330.3375,96.34 Q330.8063,96.34 331.1031,96.6213 Q331.4,96.9025 331.4,97.5588 L331.4,99.1213 Q331.4,99.7775 331.1188,100.0588 Q330.8375,100.34 330.4,100.34 Q330.0094,100.34 329.7594,100.1681 Q329.5094,99.9963 329.4,99.5431 Q329.3531,99.2306 329.1813,99.0588 Q328.8688,98.7306 328.3063,98.5431 Q327.7438,98.34 327.1813,98.34 Q326.4781,98.34 325.8844,98.6213 Q325.3063,98.9025 324.8531,99.5275 Q324.4,100.1525 324.4,101.0119 L324.4,101.9338 Q324.4,102.965 325.2438,103.6525 Q326.0875,104.34 327.5875,104.34 Q328.4781,104.34 329.1031,104.1369 Q329.4625,104.0275 329.8688,103.6681 Q330.1344,103.465 330.275,103.4025 Q330.4156,103.34 330.5875,103.34 Q330.9156,103.34 331.15,103.6056 Q331.4,103.8556 331.4,104.215 Q331.4,104.5588 331.0563,104.965 Q330.5563,105.5588 329.7594,105.8869 Q328.7125,106.34 327.4313,106.34 Q325.9313,106.34 324.7281,105.7463 Q323.7594,105.2775 323.0719,104.2619 Q322.4,103.2463 322.4,102.0431 L322.4,100.9494 Q322.4,99.6994 322.9938,98.6056 Q323.6031,97.5119 324.65,96.9338 Q325.7125,96.34 326.9,96.34 Q327.6188,96.34 328.2438,96.59 Q328.8688,96.84 329.4,97.34 Z " fill="#000000"/><text fill="#000000" font-family="sans-serif" font-size="12" lengthAdjust="spacing" textLength="24" x="346.6" y="105.7502">Test</text><line style="stroke:#A80036;stroke-width:1.5;" x1="290" x2="396" y1="116.84" y2="116.84"/><text fill="#000000" font-family="sans-serif" font-size="11" lengthAdjust="spacing" textLength="52" x="295" y="132.2589">-Test Type</text><text fill="#000000" font-family="sans-serif" font-size="11" lengthAdjust="spacing" textLength="67" x="295" y="146.0949">-Internal Code</text><text fill="#000000" font-family="sans-serif" font-size="11" lengthAdjust="spacing" textLength="53" x="295" y="159.9308">-NHS Code</text><text fill="#000000" font-family="sans-serif" font-size="11" lengthAdjust="spacing" textLength="69" x="295" y="173.7668">-Laboratory ID</text><text fill="#000000" font-family="sans-serif" font-size="11" lengthAdjust="spacing" textLength="96" x="295" y="187.6027">-Date of registration</text><line style="stroke:#A80036;stroke-width:1.5;" x1="290" x2="396" y1="194.0197" y2="194.0197"/><!--MD5=[f856f85595ce4f8bf435bc42f531c692]
class Results--><rect codeLine="29" fill="#FEFECE" filter="url(#f1l7cghaiwi6l3)" height="89.5078" id="Results" style="stroke:#A80036;stroke-width:1.5;" width="128" x="7" y="98.34"/><ellipse cx="45.85" cy="114.34" fill="#ADD1B2" rx="11" ry="11" style="stroke:#A80036;stroke-width:1.0;"/><path d="M47.85,110.84 Q48.0531,110.34 48.2875,110.09 Q48.5219,109.84 48.7875,109.84 Q49.2563,109.84 49.5531,110.1213 Q49.85,110.4025 49.85,111.0588 L49.85,112.6213 Q49.85,113.2775 49.5688,113.5588 Q49.2875,113.84 48.85,113.84 Q48.4594,113.84 48.2094,113.6681 Q47.9594,113.4963 47.85,113.0431 Q47.8031,112.7306 47.6313,112.5588 Q47.3188,112.2306 46.7563,112.0431 Q46.1938,111.84 45.6313,111.84 Q44.9281,111.84 44.3344,112.1213 Q43.7563,112.4025 43.3031,113.0275 Q42.85,113.6525 42.85,114.5119 L42.85,115.4338 Q42.85,116.465 43.6938,117.1525 Q44.5375,117.84 46.0375,117.84 Q46.9281,117.84 47.5531,117.6369 Q47.9125,117.5275 48.3188,117.1681 Q48.5844,116.965 48.725,116.9025 Q48.8656,116.84 49.0375,116.84 Q49.3656,116.84 49.6,117.1056 Q49.85,117.3556 49.85,117.715 Q49.85,118.0588 49.5063,118.465 Q49.0063,119.0588 48.2094,119.3869 Q47.1625,119.84 45.8813,119.84 Q44.3813,119.84 43.1781,119.2463 Q42.2094,118.7775 41.5219,117.7619 Q40.85,116.7463 40.85,115.5431 L40.85,114.4494 Q40.85,113.1994 41.4438,112.1056 Q42.0531,111.0119 43.1,110.4338 Q44.1625,109.84 45.35,109.84 Q46.0688,109.84 46.6938,110.09 Q47.3188,110.34 47.85,110.84 Z " fill="#000000"/><text fill="#000000" font-family="sans-serif" font-size="12" lengthAdjust="spacing" textLength="43" x="65.15" y="119.2502">Results</text><line style="stroke:#A80036;stroke-width:1.5;" x1="8" x2="134" y1="130.34" y2="130.34"/><text fill="#000000" font-family="sans-serif" font-size="11" lengthAdjust="spacing" textLength="25" x="13" y="145.7589">-Test</text><text fill="#000000" font-family="sans-serif" font-size="11" lengthAdjust="spacing" textLength="116" x="13" y="159.5949">-Test Parameter Results</text><text fill="#000000" font-family="sans-serif" font-size="11" lengthAdjust="spacing" textLength="82" x="13" y="173.4308">-Date of analysis</text><line style="stroke:#A80036;stroke-width:1.5;" x1="8" x2="134" y1="179.8478" y2="179.8478"/><!--MD5=[3994f36c72829dbcddd1cf7021dddf61]
link Test to Client--><path codeLine="34" d="M397.37,104.95 C439.42,77.73 500.28,43.54 559.5,28.84 C651.53,6 689,9.23 771,56.84 C776.81,60.21 782.38,64.22 787.68,68.62 " fill="none" id="Test-Client" style="stroke:#A80036;stroke-width:1.0;"/><polygon fill="#000000" points="569.4785,17.5524,560.1999,15.4644,560.7447,21.317,569.4785,17.5524" style="stroke:#000000;stroke-width:1.0;"/><text fill="#000000" font-family="sans-serif" font-size="13" lengthAdjust="spacing" textLength="50" x="573.5" y="23.3351">is from a</text><text fill="#000000" font-family="sans-serif" font-size="13" lengthAdjust="spacing" textLength="5" x="405.0119" y="96.223">*</text><text fill="#000000" font-family="sans-serif" font-size="13" lengthAdjust="spacing" textLength="7" x="772.8874" y="55.5697">1</text><!--MD5=[13141aaa27ee37ce7fb7aefedd9c137d]
link Test to ClinicalChemistryTechnologist--><path codeLine="35" d="M397.35,143.34 C440.24,143.34 501.25,143.34 552.91,143.34 " fill="none" id="Test-ClinicalChemistryTechnologist" style="stroke:#A80036;stroke-width:1.0;"/><polygon fill="#000000" points="414.5,131.5158,423.5451,134.4547,423.5451,128.5769,414.5,131.5158" style="stroke:#000000;stroke-width:1.0;"/><text fill="#000000" font-family="sans-serif" font-size="13" lengthAdjust="spacing" textLength="106" x="428.5" y="136.8351">checks the details</text><text fill="#000000" font-family="sans-serif" font-size="13" lengthAdjust="spacing" textLength="20" x="405.1927" y="157.8206">1..*</text><text fill="#000000" font-family="sans-serif" font-size="13" lengthAdjust="spacing" textLength="20" x="525.1693" y="157.4152">1..*</text><!--MD5=[6f4c18357b74a52c8cd2fef95f8fa484]
link Results to Test--><path codeLine="36" d="M135.12,143.34 C181.92,143.34 244.66,143.34 288.94,143.34 " fill="none" id="Results-Test" style="stroke:#A80036;stroke-width:1.0;"/><polygon fill="#000000" points="162.5,131.5158,153.4549,128.5769,153.4549,134.4547,162.5,131.5158" style="stroke:#000000;stroke-width:1.0;"/><text fill="#000000" font-family="sans-serif" font-size="13" lengthAdjust="spacing" textLength="104" x="166.5" y="136.8351">is associated with</text><text fill="#000000" font-family="sans-serif" font-size="13" lengthAdjust="spacing" textLength="7" x="142.9386" y="139.9589">1</text><text fill="#000000" font-family="sans-serif" font-size="13" lengthAdjust="spacing" textLength="7" x="273.8456" y="139.7222">1</text><!--MD5=[0431cb41fb82162227af02820afe26ff]
@startuml
skinparam classAttributeIconSize 0
Class ClinicalChemistryTechnologist{
- Employee ID
- Organization Role
- Name
- Address
- E-mail
- Phone Number
- {field}SOC Code
}
Class Client{
- Name
- Sex
- Citizen Card Number
- NHS Number
- Birth Date
- Sex
- TIF
- Phone Number
- E-mail
}
Class Test{
- Test Type
- Internal Code
- NHS Code
- Laboratory ID
- Date of registration
}
Class Results{
- Test
- Test Parameter Results
- Date of analysis
}
Test "*" -r "1" Client: is from a >
ClinicalChemistryTechnologist "1..*" -l "1..*"Test: checks the details >
Results "1" -d "1" Test: is associated with >

@enduml

PlantUML version 1.2021.5(Sun Apr 25 12:20:28 BST 2021)
(GPL source distribution)
Java Runtime: OpenJDK Runtime Environment
JVM: Dynamic Code Evolution 64-Bit Server VM
Default Encoding: Cp1252
Language: en
Country: US
--></g></svg>