<?xml version="1.0" encoding="UTF-8" standalone="no"?><svg xmlns="http://www.w3.org/2000/svg" xmlns:xlink="http://www.w3.org/1999/xlink" contentScriptType="application/ecmascript" contentStyleType="text/css" height="1679px" preserveAspectRatio="none" style="width:2739px;height:1679px;background:#FFFFFF;" version="1.1" viewBox="0 0 2739 1679" width="2739px" zoomAndPan="magnify"><defs><filter height="300%" id="fir4lsoum2hrb" width="300%" x="-1" y="-1"><feGaussianBlur result="blurOut" stdDeviation="2.0"/><feColorMatrix in="blurOut" result="blurOut2" type="matrix" values="0 0 0 0 0 0 0 0 0 0 0 0 0 0 0 0 0 0 .4 0"/><feOffset dx="4.0" dy="4.0" in="blurOut2" result="blurOut3"/><feBlend in="SourceGraphic" in2="blurOut3" mode="normal"/></filter></defs><g><rect fill="#FFFFFF" filter="url(#fir4lsoum2hrb)" height="1475.9531" style="stroke:#A80036;stroke-width:1.0;" width="10" x="101.5" y="99.6094"/><rect fill="#FFFFFF" filter="url(#fir4lsoum2hrb)" height="653.9219" style="stroke:#A80036;stroke-width:1.0;" width="10" x="387.5" y="121.9609"/><rect fill="#FFFFFF" filter="url(#fir4lsoum2hrb)" height="769.3281" style="stroke:#A80036;stroke-width:1.0;" width="10" x="387.5" y="806.2344"/><rect fill="#FFFFFF" filter="url(#fir4lsoum2hrb)" height="593.2188" style="stroke:#A80036;stroke-width:1.0;" width="10" x="578.5" y="152.3125"/><rect fill="#FFFFFF" filter="url(#fir4lsoum2hrb)" height="738.9766" style="stroke:#A80036;stroke-width:1.0;" width="10" x="578.5" y="836.5859"/><rect fill="#FFFFFF" filter="url(#fir4lsoum2hrb)" height="562.8672" style="stroke:#A80036;stroke-width:1.0;" width="10" x="950.5" y="182.6641"/><rect fill="#FFFFFF" filter="url(#fir4lsoum2hrb)" height="531.2188" style="stroke:#A80036;stroke-width:1.0;" width="10" x="950.5" y="1044.3438"/><rect fill="#FFFFFF" filter="url(#fir4lsoum2hrb)" height="30" style="stroke:#A80036;stroke-width:1.0;" width="10" x="1264.5" y="213.0156"/><rect fill="#FFFFFF" filter="url(#fir4lsoum2hrb)" height="30" style="stroke:#A80036;stroke-width:1.0;" width="10" x="1264.5" y="333.7188"/><rect fill="#FFFFFF" filter="url(#fir4lsoum2hrb)" height="30" style="stroke:#A80036;stroke-width:1.0;" width="10" x="1264.5" y="1074.6953"/><rect fill="#FFFFFF" filter="url(#fir4lsoum2hrb)" height="30" style="stroke:#A80036;stroke-width:1.0;" width="10" x="1264.5" y="1165.3984"/><rect fill="#FFFFFF" filter="url(#fir4lsoum2hrb)" height="30" style="stroke:#A80036;stroke-width:1.0;" width="10" x="1369" y="273.3672"/><rect fill="#FFFFFF" filter="url(#fir4lsoum2hrb)" height="30" style="stroke:#A80036;stroke-width:1.0;" width="10" x="1478.5" y="394.0703"/><rect fill="#FFFFFF" filter="url(#fir4lsoum2hrb)" height="30" style="stroke:#A80036;stroke-width:1.0;" width="10" x="1597.5" y="594.8281"/><rect fill="#FFFFFF" filter="url(#fir4lsoum2hrb)" height="30" style="stroke:#A80036;stroke-width:1.0;" width="10" x="1723.5" y="655.1797"/><rect fill="#FFFFFF" filter="url(#fir4lsoum2hrb)" height="30" style="stroke:#A80036;stroke-width:1.0;" width="10" x="1723.5" y="715.5313"/><rect fill="#FFFFFF" filter="url(#fir4lsoum2hrb)" height="30" style="stroke:#A80036;stroke-width:1.0;" width="10" x="1869" y="953.6406"/><rect fill="#FFFFFF" filter="url(#fir4lsoum2hrb)" height="561.5703" style="stroke:#A80036;stroke-width:1.0;" width="10" x="1869" y="1013.9922"/><rect fill="#FFFFFF" filter="url(#fir4lsoum2hrb)" height="440.5156" style="stroke:#A80036;stroke-width:1.0;" width="10" x="2036.5" y="1135.0469"/><rect fill="#FFFFFF" filter="url(#fir4lsoum2hrb)" height="30" style="stroke:#A80036;stroke-width:1.0;" width="10" x="2455.5" y="1225.75"/><rect fill="#FFFFFF" filter="url(#fir4lsoum2hrb)" height="30" style="stroke:#A80036;stroke-width:1.0;" width="10" x="2630.5" y="1394.1563"/><rect fill="#FFFFFF" filter="url(#fir4lsoum2hrb)" height="30" style="stroke:#A80036;stroke-width:1.0;" width="10" x="2630.5" y="1454.5078"/><rect fill="#FFFFFF" filter="url(#fir4lsoum2hrb)" height="126.4063" style="stroke:#000000;stroke-width:2.0;" width="352" x="836.5" y="439.0703"/><rect fill="#FFFFFF" filter="url(#fir4lsoum2hrb)" height="94.0547" style="stroke:#000000;stroke-width:2.0;" width="332" x="846.5" y="464.4219"/><rect fill="#FFFFFF" filter="url(#fir4lsoum2hrb)" height="61.7031" style="stroke:#000000;stroke-width:2.0;" width="312" x="856.5" y="489.7734"/><rect fill="#FFFFFF" filter="url(#fir4lsoum2hrb)" height="94.0547" style="stroke:#000000;stroke-width:2.0;" width="311" x="1946.5" y="1270.75"/><rect fill="#FFFFFF" filter="url(#fir4lsoum2hrb)" height="61.7031" style="stroke:#000000;stroke-width:2.0;" width="291" x="1956.5" y="1296.1016"/><line style="stroke:#A80036;stroke-width:1.0;stroke-dasharray:5.0,5.0;" x1="106" x2="106" y1="89.6094" y2="1593.5625"/><line style="stroke:#A80036;stroke-width:1.0;stroke-dasharray:5.0,5.0;" x1="392.5" x2="392.5" y1="89.6094" y2="1593.5625"/><line style="stroke:#A80036;stroke-width:1.0;stroke-dasharray:5.0,5.0;" x1="583" x2="583" y1="89.6094" y2="1593.5625"/><line style="stroke:#A80036;stroke-width:1.0;stroke-dasharray:5.0,5.0;" x1="955.5" x2="955.5" y1="89.6094" y2="1593.5625"/><line style="stroke:#A80036;stroke-width:1.0;stroke-dasharray:5.0,5.0;" x1="1269.5" x2="1269.5" y1="89.6094" y2="1593.5625"/><line style="stroke:#A80036;stroke-width:1.0;stroke-dasharray:5.0,5.0;" x1="1373.5" x2="1373.5" y1="89.6094" y2="1593.5625"/><line style="stroke:#A80036;stroke-width:1.0;stroke-dasharray:5.0,5.0;" x1="1483.5" x2="1483.5" y1="89.6094" y2="1593.5625"/><line style="stroke:#A80036;stroke-width:1.0;stroke-dasharray:5.0,5.0;" x1="1602.5" x2="1602.5" y1="89.6094" y2="1593.5625"/><line style="stroke:#A80036;stroke-width:1.0;stroke-dasharray:5.0,5.0;" x1="1728.5" x2="1728.5" y1="89.6094" y2="1593.5625"/><line style="stroke:#A80036;stroke-width:1.0;stroke-dasharray:5.0,5.0;" x1="1873.5" x2="1873.5" y1="89.6094" y2="1593.5625"/><line style="stroke:#A80036;stroke-width:1.0;stroke-dasharray:5.0,5.0;" x1="2041.5" x2="2041.5" y1="89.6094" y2="1593.5625"/><line style="stroke:#A80036;stroke-width:1.0;stroke-dasharray:5.0,5.0;" x1="2460.5" x2="2460.5" y1="89.6094" y2="1593.5625"/><line style="stroke:#A80036;stroke-width:1.0;stroke-dasharray:5.0,5.0;" x1="2635.5" x2="2635.5" y1="89.6094" y2="1593.5625"/><text fill="#000000" font-family="sans-serif" font-size="14" lengthAdjust="spacing" textLength="197" x="5" y="86.5332">Clinical Chemistry Technologist</text><ellipse cx="106.5" cy="15" fill="#FEFECE" filter="url(#fir4lsoum2hrb)" rx="8" ry="8" style="stroke:#A80036;stroke-width:2.0;"/><path d="M106.5,23 L106.5,50 M93.5,31 L119.5,31 M106.5,50 L93.5,65 M106.5,50 L119.5,65 " fill="none" filter="url(#fir4lsoum2hrb)" style="stroke:#A80036;stroke-width:2.0;"/><text fill="#000000" font-family="sans-serif" font-size="14" lengthAdjust="spacing" textLength="197" x="5" y="1607.0957">Clinical Chemistry Technologist</text><ellipse cx="106.5" cy="1620.1719" fill="#FEFECE" filter="url(#fir4lsoum2hrb)" rx="8" ry="8" style="stroke:#A80036;stroke-width:2.0;"/><path d="M106.5,1628.1719 L106.5,1655.1719 M93.5,1636.1719 L119.5,1636.1719 M106.5,1655.1719 L93.5,1670.1719 M106.5,1655.1719 L119.5,1670.1719 " fill="none" filter="url(#fir4lsoum2hrb)" style="stroke:#A80036;stroke-width:2.0;"/><rect fill="#FEFECE" filter="url(#fir4lsoum2hrb)" height="31.6094" style="stroke:#A80036;stroke-width:1.5;" width="124" x="328.5" y="53"/><text fill="#000000" font-family="sans-serif" font-size="14" lengthAdjust="spacing" textLength="110" x="335.5" y="74.5332">:CheckingTestsUI</text><rect fill="#FEFECE" filter="url(#fir4lsoum2hrb)" height="31.6094" style="stroke:#A80036;stroke-width:1.5;" width="124" x="328.5" y="1592.5625"/><text fill="#000000" font-family="sans-serif" font-size="14" lengthAdjust="spacing" textLength="110" x="335.5" y="1614.0957">:CheckingTestsUI</text><rect fill="#FEFECE" filter="url(#fir4lsoum2hrb)" height="31.6094" style="stroke:#A80036;stroke-width:1.5;" width="157" x="503" y="53"/><text fill="#000000" font-family="sans-serif" font-size="14" lengthAdjust="spacing" textLength="143" x="510" y="74.5332">:ShowClientsController</text><rect fill="#FEFECE" filter="url(#fir4lsoum2hrb)" height="31.6094" style="stroke:#A80036;stroke-width:1.5;" width="157" x="503" y="1592.5625"/><text fill="#000000" font-family="sans-serif" font-size="14" lengthAdjust="spacing" textLength="143" x="510" y="1614.0957">:ShowClientsController</text><rect fill="#FEFECE" filter="url(#fir4lsoum2hrb)" height="31.6094" style="stroke:#A80036;stroke-width:1.5;" width="174" x="866.5" y="53"/><text fill="#000000" font-family="sans-serif" font-size="14" lengthAdjust="spacing" textLength="160" x="873.5" y="74.5332">:CheckingTestsController</text><rect fill="#FEFECE" filter="url(#fir4lsoum2hrb)" height="31.6094" style="stroke:#A80036;stroke-width:1.5;" width="174" x="866.5" y="1592.5625"/><text fill="#000000" font-family="sans-serif" font-size="14" lengthAdjust="spacing" textLength="160" x="873.5" y="1614.0957">:CheckingTestsController</text><rect fill="#FEFECE" filter="url(#fir4lsoum2hrb)" height="31.6094" style="stroke:#A80036;stroke-width:1.5;" width="78" x="1228.5" y="53"/><text fill="#000000" font-family="sans-serif" font-size="14" lengthAdjust="spacing" textLength="64" x="1235.5" y="74.5332">:Company</text><rect fill="#FEFECE" filter="url(#fir4lsoum2hrb)" height="31.6094" style="stroke:#A80036;stroke-width:1.5;" width="78" x="1228.5" y="1592.5625"/><text fill="#000000" font-family="sans-serif" font-size="14" lengthAdjust="spacing" textLength="64" x="1235.5" y="1614.0957">:Company</text><rect fill="#FEFECE" filter="url(#fir4lsoum2hrb)" height="31.6094" style="stroke:#A80036;stroke-width:1.5;" width="103" x="1320.5" y="53"/><text fill="#000000" font-family="sans-serif" font-size="14" lengthAdjust="spacing" textLength="89" x="1327.5" y="74.5332">:ValidateStore</text><rect fill="#FEFECE" filter="url(#fir4lsoum2hrb)" height="31.6094" style="stroke:#A80036;stroke-width:1.5;" width="103" x="1320.5" y="1592.5625"/><text fill="#000000" font-family="sans-serif" font-size="14" lengthAdjust="spacing" textLength="89" x="1327.5" y="1614.0957">:ValidateStore</text><rect fill="#FEFECE" filter="url(#fir4lsoum2hrb)" height="31.6094" style="stroke:#A80036;stroke-width:1.5;" width="88" x="1437.5" y="53"/><text fill="#000000" font-family="sans-serif" font-size="14" lengthAdjust="spacing" textLength="74" x="1444.5" y="74.5332">:ClientStore</text><rect fill="#FEFECE" filter="url(#fir4lsoum2hrb)" height="31.6094" style="stroke:#A80036;stroke-width:1.5;" width="88" x="1437.5" y="1592.5625"/><text fill="#000000" font-family="sans-serif" font-size="14" lengthAdjust="spacing" textLength="74" x="1444.5" y="1614.0957">:ClientStore</text><rect fill="#FEFECE" filter="url(#fir4lsoum2hrb)" height="31.6094" style="stroke:#A80036;stroke-width:1.5;" width="122" x="1539.5" y="53"/><text fill="#000000" font-family="sans-serif" font-size="14" lengthAdjust="spacing" textLength="108" x="1546.5" y="74.5332">:SortingAlgorithm</text><rect fill="#FEFECE" filter="url(#fir4lsoum2hrb)" height="31.6094" style="stroke:#A80036;stroke-width:1.5;" width="122" x="1539.5" y="1592.5625"/><text fill="#000000" font-family="sans-serif" font-size="14" lengthAdjust="spacing" textLength="108" x="1546.5" y="1614.0957">:SortingAlgorithm</text><rect fill="#FEFECE" filter="url(#fir4lsoum2hrb)" height="31.6094" style="stroke:#A80036;stroke-width:1.5;" width="102" x="1675.5" y="53"/><text fill="#000000" font-family="sans-serif" font-size="14" lengthAdjust="spacing" textLength="88" x="1682.5" y="74.5332">:ClientMapper</text><rect fill="#FEFECE" filter="url(#fir4lsoum2hrb)" height="31.6094" style="stroke:#A80036;stroke-width:1.5;" width="102" x="1675.5" y="1592.5625"/><text fill="#000000" font-family="sans-serif" font-size="14" lengthAdjust="spacing" textLength="88" x="1682.5" y="1614.0957">:ClientMapper</text><rect fill="#FEFECE" filter="url(#fir4lsoum2hrb)" height="31.6094" style="stroke:#A80036;stroke-width:1.5;" width="161" x="1791.5" y="53"/><text fill="#000000" font-family="sans-serif" font-size="14" lengthAdjust="spacing" textLength="147" x="1798.5" y="74.5332">:ShowResultsController</text><rect fill="#FEFECE" filter="url(#fir4lsoum2hrb)" height="31.6094" style="stroke:#A80036;stroke-width:1.5;" width="161" x="1791.5" y="1592.5625"/><text fill="#000000" font-family="sans-serif" font-size="14" lengthAdjust="spacing" textLength="147" x="1798.5" y="1614.0957">:ShowResultsController</text><rect fill="#FEFECE" filter="url(#fir4lsoum2hrb)" height="31.6094" style="stroke:#A80036;stroke-width:1.5;" width="146" x="1966.5" y="53"/><text fill="#000000" font-family="sans-serif" font-size="14" lengthAdjust="spacing" textLength="132" x="1973.5" y="74.5332">:CheckingTestsStore</text><rect fill="#FEFECE" filter="url(#fir4lsoum2hrb)" height="31.6094" style="stroke:#A80036;stroke-width:1.5;" width="146" x="1966.5" y="1592.5625"/><text fill="#000000" font-family="sans-serif" font-size="14" lengthAdjust="spacing" textLength="132" x="1973.5" y="1614.0957">:CheckingTestsStore</text><rect fill="#FEFECE" filter="url(#fir4lsoum2hrb)" height="31.6094" style="stroke:#A80036;stroke-width:1.5;" width="138" x="2389.5" y="53"/><text fill="#000000" font-family="sans-serif" font-size="14" lengthAdjust="spacing" textLength="124" x="2396.5" y="74.5332">:RecordResultStore</text><rect fill="#FEFECE" filter="url(#fir4lsoum2hrb)" height="31.6094" style="stroke:#A80036;stroke-width:1.5;" width="138" x="2389.5" y="1592.5625"/><text fill="#000000" font-family="sans-serif" font-size="14" lengthAdjust="spacing" textLength="124" x="2396.5" y="1614.0957">:RecordResultStore</text><rect fill="#FEFECE" filter="url(#fir4lsoum2hrb)" height="31.6094" style="stroke:#A80036;stroke-width:1.5;" width="184" x="2541.5" y="53"/><text fill="#000000" font-family="sans-serif" font-size="14" lengthAdjust="spacing" textLength="170" x="2548.5" y="74.5332">:TestDetailsResultsMapper</text><rect fill="#FEFECE" filter="url(#fir4lsoum2hrb)" height="31.6094" style="stroke:#A80036;stroke-width:1.5;" width="184" x="2541.5" y="1592.5625"/><text fill="#000000" font-family="sans-serif" font-size="14" lengthAdjust="spacing" textLength="170" x="2548.5" y="1614.0957">:TestDetailsResultsMapper</text><rect fill="#FFFFFF" filter="url(#fir4lsoum2hrb)" height="1475.9531" style="stroke:#A80036;stroke-width:1.0;" width="10" x="101.5" y="99.6094"/><rect fill="#FFFFFF" filter="url(#fir4lsoum2hrb)" height="653.9219" style="stroke:#A80036;stroke-width:1.0;" width="10" x="387.5" y="121.9609"/><rect fill="#FFFFFF" filter="url(#fir4lsoum2hrb)" height="769.3281" style="stroke:#A80036;stroke-width:1.0;" width="10" x="387.5" y="806.2344"/><rect fill="#FFFFFF" filter="url(#fir4lsoum2hrb)" height="593.2188" style="stroke:#A80036;stroke-width:1.0;" width="10" x="578.5" y="152.3125"/><rect fill="#FFFFFF" filter="url(#fir4lsoum2hrb)" height="738.9766" style="stroke:#A80036;stroke-width:1.0;" width="10" x="578.5" y="836.5859"/><rect fill="#FFFFFF" filter="url(#fir4lsoum2hrb)" height="562.8672" style="stroke:#A80036;stroke-width:1.0;" width="10" x="950.5" y="182.6641"/><rect fill="#FFFFFF" filter="url(#fir4lsoum2hrb)" height="531.2188" style="stroke:#A80036;stroke-width:1.0;" width="10" x="950.5" y="1044.3438"/><rect fill="#FFFFFF" filter="url(#fir4lsoum2hrb)" height="30" style="stroke:#A80036;stroke-width:1.0;" width="10" x="1264.5" y="213.0156"/><rect fill="#FFFFFF" filter="url(#fir4lsoum2hrb)" height="30" style="stroke:#A80036;stroke-width:1.0;" width="10" x="1264.5" y="333.7188"/><rect fill="#FFFFFF" filter="url(#fir4lsoum2hrb)" height="30" style="stroke:#A80036;stroke-width:1.0;" width="10" x="1264.5" y="1074.6953"/><rect fill="#FFFFFF" filter="url(#fir4lsoum2hrb)" height="30" style="stroke:#A80036;stroke-width:1.0;" width="10" x="1264.5" y="1165.3984"/><rect fill="#FFFFFF" filter="url(#fir4lsoum2hrb)" height="30" style="stroke:#A80036;stroke-width:1.0;" width="10" x="1369" y="273.3672"/><rect fill="#FFFFFF" filter="url(#fir4lsoum2hrb)" height="30" style="stroke:#A80036;stroke-width:1.0;" width="10" x="1478.5" y="394.0703"/><rect fill="#FFFFFF" filter="url(#fir4lsoum2hrb)" height="30" style="stroke:#A80036;stroke-width:1.0;" width="10" x="1597.5" y="594.8281"/><rect fill="#FFFFFF" filter="url(#fir4lsoum2hrb)" height="30" style="stroke:#A80036;stroke-width:1.0;" width="10" x="1723.5" y="655.1797"/><rect fill="#FFFFFF" filter="url(#fir4lsoum2hrb)" height="30" style="stroke:#A80036;stroke-width:1.0;" width="10" x="1723.5" y="715.5313"/><rect fill="#FFFFFF" filter="url(#fir4lsoum2hrb)" height="30" style="stroke:#A80036;stroke-width:1.0;" width="10" x="1869" y="953.6406"/><rect fill="#FFFFFF" filter="url(#fir4lsoum2hrb)" height="561.5703" style="stroke:#A80036;stroke-width:1.0;" width="10" x="1869" y="1013.9922"/><rect fill="#FFFFFF" filter="url(#fir4lsoum2hrb)" height="440.5156" style="stroke:#A80036;stroke-width:1.0;" width="10" x="2036.5" y="1135.0469"/><rect fill="#FFFFFF" filter="url(#fir4lsoum2hrb)" height="30" style="stroke:#A80036;stroke-width:1.0;" width="10" x="2455.5" y="1225.75"/><rect fill="#FFFFFF" filter="url(#fir4lsoum2hrb)" height="30" style="stroke:#A80036;stroke-width:1.0;" width="10" x="2630.5" y="1394.1563"/><rect fill="#FFFFFF" filter="url(#fir4lsoum2hrb)" height="30" style="stroke:#A80036;stroke-width:1.0;" width="10" x="2630.5" y="1454.5078"/><polygon fill="#A80036" points="375.5,117.9609,385.5,121.9609,375.5,125.9609,379.5,121.9609" style="stroke:#A80036;stroke-width:1.0;"/><line style="stroke:#A80036;stroke-width:1.0;" x1="111.5" x2="381.5" y1="121.9609" y2="121.9609"/><text fill="#000000" font-family="sans-serif" font-size="13" font-weight="bold" lengthAdjust="spacing" textLength="7" x="118.5" y="117.1045">1</text><text fill="#000000" font-family="sans-serif" font-size="13" lengthAdjust="spacing" textLength="246" x="129.5" y="117.1045">starts the checking details/results process</text><polygon fill="#A80036" points="566.5,148.3125,576.5,152.3125,566.5,156.3125,570.5,152.3125" style="stroke:#A80036;stroke-width:1.0;"/><line style="stroke:#A80036;stroke-width:1.0;" x1="397.5" x2="572.5" y1="152.3125" y2="152.3125"/><text fill="#000000" font-family="sans-serif" font-size="13" font-weight="bold" lengthAdjust="spacing" textLength="7" x="404.5" y="147.4561">2</text><text fill="#000000" font-family="sans-serif" font-size="13" lengthAdjust="spacing" textLength="55" x="415.5" y="147.4561">initialize()</text><polygon fill="#A80036" points="938.5,178.6641,948.5,182.6641,938.5,186.6641,942.5,182.6641" style="stroke:#A80036;stroke-width:1.0;"/><line style="stroke:#A80036;stroke-width:1.0;" x1="588.5" x2="944.5" y1="182.6641" y2="182.6641"/><text fill="#000000" font-family="sans-serif" font-size="13" font-weight="bold" lengthAdjust="spacing" textLength="7" x="595.5" y="177.8076">3</text><text fill="#000000" font-family="sans-serif" font-size="13" lengthAdjust="spacing" textLength="201" x="606.5" y="177.8076">clientList = getOrderedClientsList()</text><polygon fill="#A80036" points="1252.5,209.0156,1262.5,213.0156,1252.5,217.0156,1256.5,213.0156" style="stroke:#A80036;stroke-width:1.0;"/><line style="stroke:#A80036;stroke-width:1.0;" x1="960.5" x2="1258.5" y1="213.0156" y2="213.0156"/><text fill="#000000" font-family="sans-serif" font-size="13" font-weight="bold" lengthAdjust="spacing" textLength="7" x="967.5" y="208.1592">4</text><text fill="#000000" font-family="sans-serif" font-size="13" lengthAdjust="spacing" textLength="194" x="978.5" y="208.1592">validateStore = getValidateStore()</text><polygon fill="#A80036" points="1357,269.3672,1367,273.3672,1357,277.3672,1361,273.3672" style="stroke:#A80036;stroke-width:1.0;"/><line style="stroke:#A80036;stroke-width:1.0;" x1="960.5" x2="1363" y1="273.3672" y2="273.3672"/><text fill="#000000" font-family="sans-serif" font-size="13" font-weight="bold" lengthAdjust="spacing" textLength="7" x="967.5" y="268.5107">5</text><text fill="#000000" font-family="sans-serif" font-size="13" lengthAdjust="spacing" textLength="259" x="978.5" y="268.5107">validateList = validateStore.getValidatedList()</text><polygon fill="#A80036" points="1252.5,329.7188,1262.5,333.7188,1252.5,337.7188,1256.5,333.7188" style="stroke:#A80036;stroke-width:1.0;"/><line style="stroke:#A80036;stroke-width:1.0;" x1="960.5" x2="1258.5" y1="333.7188" y2="333.7188"/><text fill="#000000" font-family="sans-serif" font-size="13" font-weight="bold" lengthAdjust="spacing" textLength="7" x="967.5" y="328.8623">6</text><text fill="#000000" font-family="sans-serif" font-size="13" lengthAdjust="spacing" textLength="168" x="978.5" y="328.8623">clientStore = getClientStore()</text><polygon fill="#A80036" points="1466.5,390.0703,1476.5,394.0703,1466.5,398.0703,1470.5,394.0703" style="stroke:#A80036;stroke-width:1.0;"/><line style="stroke:#A80036;stroke-width:1.0;" x1="960.5" x2="1472.5" y1="394.0703" y2="394.0703"/><text fill="#000000" font-family="sans-serif" font-size="13" font-weight="bold" lengthAdjust="spacing" textLength="7" x="967.5" y="389.2139">7</text><text fill="#000000" font-family="sans-serif" font-size="13" lengthAdjust="spacing" textLength="193" x="978.5" y="389.2139">client = clientStore.getClientList()</text><path d="M836.5,439.0703 L909.5,439.0703 L909.5,447.0703 L899.5,457.0703 L836.5,457.0703 L836.5,439.0703 " fill="#EEEEEE" style="stroke:#000000;stroke-width:1.0;"/><rect fill="none" height="126.4063" style="stroke:#000000;stroke-width:2.0;" width="352" x="836.5" y="439.0703"/><text fill="#000000" font-family="sans-serif" font-size="13" font-weight="bold" lengthAdjust="spacing" textLength="28" x="851.5" y="453.5654">loop</text><text fill="#000000" font-family="sans-serif" font-size="11" font-weight="bold" lengthAdjust="spacing" textLength="132" x="924.5" y="452.4893">[x to validateList.length]</text><path d="M846.5,464.4219 L919.5,464.4219 L919.5,472.4219 L909.5,482.4219 L846.5,482.4219 L846.5,464.4219 " fill="#EEEEEE" style="stroke:#000000;stroke-width:1.0;"/><rect fill="none" height="94.0547" style="stroke:#000000;stroke-width:2.0;" width="332" x="846.5" y="464.4219"/><text fill="#000000" font-family="sans-serif" font-size="13" font-weight="bold" lengthAdjust="spacing" textLength="28" x="861.5" y="478.917">loop</text><text fill="#000000" font-family="sans-serif" font-size="11" font-weight="bold" lengthAdjust="spacing" textLength="120" x="934.5" y="477.8408">[y to clientList.length]</text><path d="M856.5,489.7734 L917.5,489.7734 L917.5,497.7734 L907.5,507.7734 L856.5,507.7734 L856.5,489.7734 " fill="#EEEEEE" style="stroke:#000000;stroke-width:1.0;"/><rect fill="none" height="61.7031" style="stroke:#000000;stroke-width:2.0;" width="312" x="856.5" y="489.7734"/><text fill="#000000" font-family="sans-serif" font-size="13" font-weight="bold" lengthAdjust="spacing" textLength="16" x="871.5" y="504.2686">alt</text><text fill="#000000" font-family="sans-serif" font-size="11" font-weight="bold" lengthAdjust="spacing" textLength="231" x="932.5" y="503.1924">[x.getTestRegistered.getTIN()==y.getTIN()]</text><line style="stroke:#A80036;stroke-width:1.0;" x1="960.5" x2="1002.5" y1="530.4766" y2="530.4766"/><line style="stroke:#A80036;stroke-width:1.0;" x1="1002.5" x2="1002.5" y1="530.4766" y2="543.4766"/><line style="stroke:#A80036;stroke-width:1.0;" x1="961.5" x2="1002.5" y1="543.4766" y2="543.4766"/><polygon fill="#A80036" points="971.5,539.4766,961.5,543.4766,971.5,547.4766,967.5,543.4766" style="stroke:#A80036;stroke-width:1.0;"/><text fill="#000000" font-family="sans-serif" font-size="13" font-weight="bold" lengthAdjust="spacing" textLength="7" x="967.5" y="525.6201">8</text><text fill="#000000" font-family="sans-serif" font-size="13" lengthAdjust="spacing" textLength="92" x="978.5" y="525.6201">clientList.add(y)</text><polygon fill="#A80036" points="1585.5,590.8281,1595.5,594.8281,1585.5,598.8281,1589.5,594.8281" style="stroke:#A80036;stroke-width:1.0;"/><line style="stroke:#A80036;stroke-width:1.0;" x1="960.5" x2="1591.5" y1="594.8281" y2="594.8281"/><text fill="#000000" font-family="sans-serif" font-size="13" font-weight="bold" lengthAdjust="spacing" textLength="7" x="967.5" y="589.9717">9</text><text fill="#000000" font-family="sans-serif" font-size="13" lengthAdjust="spacing" textLength="228" x="978.5" y="589.9717">orderedClients = orderClients(clientList)</text><polygon fill="#A80036" points="1711.5,651.1797,1721.5,655.1797,1711.5,659.1797,1715.5,655.1797" style="stroke:#A80036;stroke-width:1.0;"/><line style="stroke:#A80036;stroke-width:1.0;" x1="588.5" x2="1717.5" y1="655.1797" y2="655.1797"/><text fill="#000000" font-family="sans-serif" font-size="13" font-weight="bold" lengthAdjust="spacing" textLength="14" x="595.5" y="650.3232">10</text><text fill="#000000" font-family="sans-serif" font-size="13" lengthAdjust="spacing" textLength="170" x="613.5" y="650.3232">mapper = new ClientMapper()</text><polygon fill="#A80036" points="1711.5,711.5313,1721.5,715.5313,1711.5,719.5313,1715.5,715.5313" style="stroke:#A80036;stroke-width:1.0;"/><line style="stroke:#A80036;stroke-width:1.0;" x1="588.5" x2="1717.5" y1="715.5313" y2="715.5313"/><text fill="#000000" font-family="sans-serif" font-size="13" font-weight="bold" lengthAdjust="spacing" textLength="14" x="595.5" y="710.6748">11</text><text fill="#000000" font-family="sans-serif" font-size="13" lengthAdjust="spacing" textLength="144" x="613.5" y="710.6748">mapper.toDTO(clientList)</text><polygon fill="#A80036" points="122.5,771.8828,112.5,775.8828,122.5,779.8828,118.5,775.8828" style="stroke:#A80036;stroke-width:1.0;"/><line style="stroke:#A80036;stroke-width:1.0;stroke-dasharray:2.0,2.0;" x1="116.5" x2="391.5" y1="775.8828" y2="775.8828"/><text fill="#000000" font-family="sans-serif" font-size="13" font-weight="bold" lengthAdjust="spacing" textLength="14" x="128.5" y="771.0264">12</text><text fill="#000000" font-family="sans-serif" font-size="13" lengthAdjust="spacing" textLength="183" x="146.5" y="771.0264">shows the list of clients ordered</text><polygon fill="#A80036" points="375.5,802.2344,385.5,806.2344,375.5,810.2344,379.5,806.2344" style="stroke:#A80036;stroke-width:1.0;"/><line style="stroke:#A80036;stroke-width:1.0;" x1="111.5" x2="381.5" y1="806.2344" y2="806.2344"/><text fill="#000000" font-family="sans-serif" font-size="13" font-weight="bold" lengthAdjust="spacing" textLength="14" x="118.5" y="801.3779">13</text><text fill="#000000" font-family="sans-serif" font-size="13" lengthAdjust="spacing" textLength="106" x="136.5" y="801.3779">chooses the client</text><polygon fill="#A80036" points="566.5,832.5859,576.5,836.5859,566.5,840.5859,570.5,836.5859" style="stroke:#A80036;stroke-width:1.0;"/><line style="stroke:#A80036;stroke-width:1.0;" x1="397.5" x2="572.5" y1="836.5859" y2="836.5859"/><text fill="#000000" font-family="sans-serif" font-size="13" font-weight="bold" lengthAdjust="spacing" textLength="14" x="404.5" y="831.7295">14</text><text fill="#000000" font-family="sans-serif" font-size="13" lengthAdjust="spacing" textLength="144" x="422.5" y="831.7295">checkTestDetailsResults</text><line style="stroke:#A80036;stroke-width:1.0;" x1="588.5" x2="630.5" y1="866.9375" y2="866.9375"/><line style="stroke:#A80036;stroke-width:1.0;" x1="630.5" x2="630.5" y1="866.9375" y2="879.9375"/><line style="stroke:#A80036;stroke-width:1.0;" x1="589.5" x2="630.5" y1="879.9375" y2="879.9375"/><polygon fill="#A80036" points="599.5,875.9375,589.5,879.9375,599.5,883.9375,595.5,879.9375" style="stroke:#A80036;stroke-width:1.0;"/><text fill="#000000" font-family="sans-serif" font-size="13" font-weight="bold" lengthAdjust="spacing" textLength="14" x="595.5" y="862.0811">15</text><text fill="#000000" font-family="sans-serif" font-size="13" lengthAdjust="spacing" textLength="330" x="613.5" y="862.0811">object = tblClients.getSelectionModel().getSelectedItem()</text><line style="stroke:#A80036;stroke-width:1.0;" x1="588.5" x2="630.5" y1="910.2891" y2="910.2891"/><line style="stroke:#A80036;stroke-width:1.0;" x1="630.5" x2="630.5" y1="910.2891" y2="923.2891"/><line style="stroke:#A80036;stroke-width:1.0;" x1="589.5" x2="630.5" y1="923.2891" y2="923.2891"/><polygon fill="#A80036" points="599.5,919.2891,589.5,923.2891,599.5,927.2891,595.5,923.2891" style="stroke:#A80036;stroke-width:1.0;"/><text fill="#000000" font-family="sans-serif" font-size="13" font-weight="bold" lengthAdjust="spacing" textLength="14" x="595.5" y="905.4326">16</text><text fill="#000000" font-family="sans-serif" font-size="13" lengthAdjust="spacing" textLength="137" x="613.5" y="905.4326">client = object.getClient</text><polygon fill="#A80036" points="1857,949.6406,1867,953.6406,1857,957.6406,1861,953.6406" style="stroke:#A80036;stroke-width:1.0;"/><line style="stroke:#A80036;stroke-width:1.0;" x1="588.5" x2="1863" y1="953.6406" y2="953.6406"/><text fill="#000000" font-family="sans-serif" font-size="13" font-weight="bold" lengthAdjust="spacing" textLength="14" x="595.5" y="948.7842">17</text><text fill="#000000" font-family="sans-serif" font-size="13" lengthAdjust="spacing" textLength="90" x="613.5" y="948.7842">setClient(client)</text><polygon fill="#A80036" points="1857,1009.9922,1867,1013.9922,1857,1017.9922,1861,1013.9922" style="stroke:#A80036;stroke-width:1.0;"/><line style="stroke:#A80036;stroke-width:1.0;" x1="588.5" x2="1863" y1="1013.9922" y2="1013.9922"/><text fill="#000000" font-family="sans-serif" font-size="13" font-weight="bold" lengthAdjust="spacing" textLength="14" x="595.5" y="1009.1357">18</text><text fill="#000000" font-family="sans-serif" font-size="13" lengthAdjust="spacing" textLength="55" x="613.5" y="1009.1357">initialize()</text><polygon fill="#A80036" points="971.5,1040.3438,961.5,1044.3438,971.5,1048.3438,967.5,1044.3438" style="stroke:#A80036;stroke-width:1.0;"/><line style="stroke:#A80036;stroke-width:1.0;" x1="965.5" x2="1868" y1="1044.3438" y2="1044.3438"/><text fill="#000000" font-family="sans-serif" font-size="13" font-weight="bold" lengthAdjust="spacing" textLength="14" x="977.5" y="1039.4873">19</text><text fill="#000000" font-family="sans-serif" font-size="13" lengthAdjust="spacing" textLength="180" x="995.5" y="1039.4873">list = getResultsOfClient(client)</text><polygon fill="#A80036" points="1252.5,1070.6953,1262.5,1074.6953,1252.5,1078.6953,1256.5,1074.6953" style="stroke:#A80036;stroke-width:1.0;"/><line style="stroke:#A80036;stroke-width:1.0;" x1="960.5" x2="1258.5" y1="1074.6953" y2="1074.6953"/><text fill="#000000" font-family="sans-serif" font-size="13" font-weight="bold" lengthAdjust="spacing" textLength="14" x="967.5" y="1069.8389">20</text><text fill="#000000" font-family="sans-serif" font-size="13" lengthAdjust="spacing" textLength="267" x="985.5" y="1069.8389">checkingTestsStore = getCheckingTestStore()</text><polygon fill="#A80036" points="2024.5,1131.0469,2034.5,1135.0469,2024.5,1139.0469,2028.5,1135.0469" style="stroke:#A80036;stroke-width:1.0;"/><line style="stroke:#A80036;stroke-width:1.0;" x1="960.5" x2="2030.5" y1="1135.0469" y2="1135.0469"/><text fill="#000000" font-family="sans-serif" font-size="13" font-weight="bold" lengthAdjust="spacing" textLength="14" x="967.5" y="1130.1904">21</text><text fill="#000000" font-family="sans-serif" font-size="13" lengthAdjust="spacing" textLength="315" x="985.5" y="1130.1904">checkingTestsStore.getResultsOfClient(client.getTIN())</text><polygon fill="#A80036" points="1285.5,1161.3984,1275.5,1165.3984,1285.5,1169.3984,1281.5,1165.3984" style="stroke:#A80036;stroke-width:1.0;"/><line style="stroke:#A80036;stroke-width:1.0;" x1="1279.5" x2="2035.5" y1="1165.3984" y2="1165.3984"/><text fill="#000000" font-family="sans-serif" font-size="13" font-weight="bold" lengthAdjust="spacing" textLength="14" x="1291.5" y="1160.542">22</text><text fill="#000000" font-family="sans-serif" font-size="13" lengthAdjust="spacing" textLength="259" x="1309.5" y="1160.542">recordResultStore =  getRecordResultStore()</text><polygon fill="#A80036" points="2443.5,1221.75,2453.5,1225.75,2443.5,1229.75,2447.5,1225.75" style="stroke:#A80036;stroke-width:1.0;"/><line style="stroke:#A80036;stroke-width:1.0;" x1="2046.5" x2="2449.5" y1="1225.75" y2="1225.75"/><text fill="#000000" font-family="sans-serif" font-size="13" font-weight="bold" lengthAdjust="spacing" textLength="14" x="2053.5" y="1220.8936">23</text><text fill="#000000" font-family="sans-serif" font-size="13" lengthAdjust="spacing" textLength="372" x="2071.5" y="1220.8936">recordResultList = recordResultStore.getTestResultsWithTests()</text><path d="M1946.5,1270.75 L2019.5,1270.75 L2019.5,1278.75 L2009.5,1288.75 L1946.5,1288.75 L1946.5,1270.75 " fill="#EEEEEE" style="stroke:#000000;stroke-width:1.0;"/><rect fill="none" height="94.0547" style="stroke:#000000;stroke-width:2.0;" width="311" x="1946.5" y="1270.75"/><text fill="#000000" font-family="sans-serif" font-size="13" font-weight="bold" lengthAdjust="spacing" textLength="28" x="1961.5" y="1285.2451">loop</text><text fill="#000000" font-family="sans-serif" font-size="11" font-weight="bold" lengthAdjust="spacing" textLength="162" x="2034.5" y="1284.1689">[x to recordResultList.length]</text><path d="M1956.5,1296.1016 L2017.5,1296.1016 L2017.5,1304.1016 L2007.5,1314.1016 L1956.5,1314.1016 L1956.5,1296.1016 " fill="#EEEEEE" style="stroke:#000000;stroke-width:1.0;"/><rect fill="none" height="61.7031" style="stroke:#000000;stroke-width:2.0;" width="291" x="1956.5" y="1296.1016"/><text fill="#000000" font-family="sans-serif" font-size="13" font-weight="bold" lengthAdjust="spacing" textLength="16" x="1971.5" y="1310.5967">alt</text><text fill="#000000" font-family="sans-serif" font-size="11" font-weight="bold" lengthAdjust="spacing" textLength="210" x="2032.5" y="1309.5205">[x.getTest().getTIN()==(client.getTIN())]</text><line style="stroke:#A80036;stroke-width:1.0;" x1="2046.5" x2="2088.5" y1="1336.8047" y2="1336.8047"/><line style="stroke:#A80036;stroke-width:1.0;" x1="2088.5" x2="2088.5" y1="1336.8047" y2="1349.8047"/><line style="stroke:#A80036;stroke-width:1.0;" x1="2047.5" x2="2088.5" y1="1349.8047" y2="1349.8047"/><polygon fill="#A80036" points="2057.5,1345.8047,2047.5,1349.8047,2057.5,1353.8047,2053.5,1349.8047" style="stroke:#A80036;stroke-width:1.0;"/><text fill="#000000" font-family="sans-serif" font-size="13" font-weight="bold" lengthAdjust="spacing" textLength="14" x="2053.5" y="1331.9482">24</text><text fill="#000000" font-family="sans-serif" font-size="13" lengthAdjust="spacing" textLength="120" x="2071.5" y="1331.9482">recordResults.add(x)</text><polygon fill="#A80036" points="2618.5,1390.1563,2628.5,1394.1563,2618.5,1398.1563,2622.5,1394.1563" style="stroke:#A80036;stroke-width:1.0;"/><line style="stroke:#A80036;stroke-width:1.0;" x1="2046.5" x2="2624.5" y1="1394.1563" y2="1394.1563"/><text fill="#000000" font-family="sans-serif" font-size="13" font-weight="bold" lengthAdjust="spacing" textLength="14" x="2053.5" y="1389.2998">25</text><text fill="#000000" font-family="sans-serif" font-size="13" lengthAdjust="spacing" textLength="246" x="2071.5" y="1389.2998">mapper = new TestDetailsResultsMapper()</text><polygon fill="#A80036" points="2618.5,1450.5078,2628.5,1454.5078,2618.5,1458.5078,2622.5,1454.5078" style="stroke:#A80036;stroke-width:1.0;"/><line style="stroke:#A80036;stroke-width:1.0;" x1="2046.5" x2="2624.5" y1="1454.5078" y2="1454.5078"/><text fill="#000000" font-family="sans-serif" font-size="13" font-weight="bold" lengthAdjust="spacing" textLength="14" x="2053.5" y="1449.6514">26</text><text fill="#000000" font-family="sans-serif" font-size="13" lengthAdjust="spacing" textLength="329" x="2071.5" y="1449.6514">testDetailsResultsDTOS = mapper.toDTO(recordResults)</text><polygon fill="#A80036" points="971.5,1510.8594,961.5,1514.8594,971.5,1518.8594,967.5,1514.8594" style="stroke:#A80036;stroke-width:1.0;"/><line style="stroke:#A80036;stroke-width:1.0;" x1="965.5" x2="2035.5" y1="1514.8594" y2="1514.8594"/><text fill="#000000" font-family="sans-serif" font-size="13" font-weight="bold" lengthAdjust="spacing" textLength="14" x="977.5" y="1510.0029">27</text><text fill="#000000" font-family="sans-serif" font-size="13" lengthAdjust="spacing" textLength="230" x="995.5" y="1510.0029">recordResult = testDetailsResultsDTOS</text><polygon fill="#A80036" points="1857,1541.2109,1867,1545.2109,1857,1549.2109,1861,1545.2109" style="stroke:#A80036;stroke-width:1.0;"/><line style="stroke:#A80036;stroke-width:1.0;" x1="960.5" x2="1863" y1="1545.2109" y2="1545.2109"/><text fill="#000000" font-family="sans-serif" font-size="13" font-weight="bold" lengthAdjust="spacing" textLength="14" x="967.5" y="1540.3545">28</text><text fill="#000000" font-family="sans-serif" font-size="13" lengthAdjust="spacing" textLength="174" x="985.5" y="1540.3545">list = testDetailsResultsDTOS</text><polygon fill="#A80036" points="117.5,1571.5625,107.5,1575.5625,117.5,1579.5625,113.5,1575.5625" style="stroke:#A80036;stroke-width:1.0;"/><line style="stroke:#A80036;stroke-width:1.0;stroke-dasharray:2.0,2.0;" x1="111.5" x2="391.5" y1="1575.5625" y2="1575.5625"/><text fill="#000000" font-family="sans-serif" font-size="13" font-weight="bold" lengthAdjust="spacing" textLength="14" x="123.5" y="1570.7061">29</text><text fill="#000000" font-family="sans-serif" font-size="13" lengthAdjust="spacing" textLength="205" x="141.5" y="1570.7061">shows the client test results/details</text><!--MD5=[c1c1fe65133c53cbe6c086256ed3bb75]
@startuml
autonumber
actor "Clinical Chemistry Technologist"
activate "Clinical Chemistry Technologist"
"Clinical Chemistry Technologist" -> ":CheckingTestsUI": starts the checking details/results process
activate ":CheckingTestsUI"
":CheckingTestsUI" -> ":ShowClientsController": initialize()
activate ":ShowClientsController"

":ShowClientsController" -> ":CheckingTestsController": clientList = getOrderedClientsList()
activate ":CheckingTestsController"
":CheckingTestsController" -> ":Company": validateStore = getValidateStore()
activate ":Company"
deactivate
":CheckingTestsController" -> ":ValidateStore": validateList = validateStore.getValidatedList()
activate ":ValidateStore"
deactivate
":CheckingTestsController" -> ":Company": clientStore = getClientStore()
activate ":Company"
deactivate
":CheckingTestsController" -> ":ClientStore": client = clientStore.getClientList()
activate ":ClientStore"
deactivate
loop x to validateList.length
loop y to clientList.length
alt x.getTestRegistered.getTIN()==y.getTIN()
":CheckingTestsController" -> ":CheckingTestsController":clientList.add(y)
end
end
end
":CheckingTestsController" -> ":SortingAlgorithm":orderedClients = orderClients(clientList)
activate ":SortingAlgorithm"
deactivate ":SortingAlgorithm"
":ShowClientsController" -> ":ClientMapper": mapper = new ClientMapper()
activate ":ClientMapper"
deactivate
":ShowClientsController" -> ":ClientMapper": mapper.toDTO(clientList)
activate ":ClientMapper"
deactivate
deactivate ":ShowClientsController"
deactivate
deactivate ":CheckingTestsController"
":CheckingTestsUI" - -> "Clinical Chemistry Technologist": shows the list of clients ordered
deactivate ":CheckingTestsUI"
"Clinical Chemistry Technologist" -> ":CheckingTestsUI": chooses the client
activate ":CheckingTestsUI"
":CheckingTestsUI" -> ":ShowClientsController":checkTestDetailsResults
activate ":ShowClientsController"
":ShowClientsController" -> ":ShowClientsController":object = tblClients.getSelectionModel().getSelectedItem()
":ShowClientsController" -> ":ShowClientsController":client = object.getClient
":ShowClientsController" -> ":ShowResultsController": setClient(client)
activate ":ShowResultsController"
deactivate
":ShowClientsController" -> ":ShowResultsController": initialize()
activate ":ShowResultsController"
":ShowResultsController" -> ":CheckingTestsController":list = getResultsOfClient(client)
activate ":CheckingTestsController"
":CheckingTestsController" -> ":Company":checkingTestsStore = getCheckingTestStore()
activate ":Company"
deactivate
":CheckingTestsController" -> ":CheckingTestsStore": checkingTestsStore.getResultsOfClient(client.getTIN())
activate ":CheckingTestsStore"
":CheckingTestsStore" -> ":Company": recordResultStore =  getRecordResultStore()
activate ":Company"
deactivate
":CheckingTestsStore" -> ":RecordResultStore": recordResultList = recordResultStore.getTestResultsWithTests()
activate ":RecordResultStore"
deactivate
loop x to recordResultList.length
alt x.getTest().getTIN()==(client.getTIN())
":CheckingTestsStore" -> ":CheckingTestsStore": recordResults.add(x)
end
end
":CheckingTestsStore"->":TestDetailsResultsMapper":mapper = new TestDetailsResultsMapper()
activate ":TestDetailsResultsMapper"
deactivate
":CheckingTestsStore" -> ":TestDetailsResultsMapper": testDetailsResultsDTOS = mapper.toDTO(recordResults)
activate ":TestDetailsResultsMapper"
deactivate
":CheckingTestsStore" -> ":CheckingTestsController": recordResult = testDetailsResultsDTOS
":CheckingTestsController" -> ":ShowResultsController":list = testDetailsResultsDTOS
":CheckingTestsUI" - -> "Clinical Chemistry Technologist": shows the client test results/details
deactivate ":CheckingTestsStore"
deactivate ":ShowResultsController"
deactivate ":CheckingTestsController"
deactivate ":ShowClientsController"
deactivate ":CheckingTestsUI"
deactivate "Clinical Chemistry Technologist"
@enduml

PlantUML version 1.2021.7(Sun May 23 13:40:07 BST 2021)
(GPL source distribution)
Java Runtime: OpenJDK Runtime Environment
JVM: Dynamic Code Evolution 64-Bit Server VM
Default Encoding: Cp1252
Language: en
Country: US
--></g></svg>